<?xml version="1.0" standalone="no"?>
<!DOCTYPE svg PUBLIC "-//W3C//DTD SVG 20010904//EN"
 "http://www.w3.org/TR/2001/REC-SVG-20010904/DTD/svg10.dtd">
<svg version="1.0" xmlns="http://www.w3.org/2000/svg"
 width="700.000000pt" height="700.000000pt" viewBox="0 0 700.000000 700.000000"
 preserveAspectRatio="xMidYMid meet">
<metadata>
Created by potrace 1.14, written by Peter Selinger 2001-2017
</metadata>
<g transform="translate(0.000000,700.000000) scale(0.100000,-0.100000)"
fill="#000000" stroke="none">
<path d="M3278 6995 c-1 -1 -42 -5 -89 -9 -47 -4 -95 -8 -106 -10 -11 -3 -44
-7 -74 -11 -149 -18 -404 -75 -569 -128 -233 -75 -568 -226 -735 -331 -74 -47
-260 -170 -265 -175 -3 -3 -43 -35 -90 -71 -90 -69 -111 -86 -198 -165 -358
-326 -667 -751 -846 -1165 -16 -36 -35 -78 -42 -95 -54 -120 -153 -432 -180
-570 -2 -11 -10 -54 -19 -95 -29 -147 -36 -200 -52 -370 -15 -165 -8 -592 12
-711 2 -13 6 -46 9 -74 9 -78 23 -156 51 -285 71 -332 241 -752 415 -1033 30
-48 60 -95 65 -105 24 -42 133 -191 208 -285 147 -182 310 -348 497 -504 81
-67 304 -233 314 -233 3 0 32 -18 65 -40 33 -22 63 -40 67 -40 4 0 15 -6 23
-14 26 -22 259 -139 387 -194 148 -64 396 -149 484 -167 8 -2 53 -12 100 -24
109 -26 200 -43 299 -57 25 -3 57 -8 71 -10 162 -25 683 -25 841 1 13 2 47 7
74 10 71 10 87 13 115 18 14 3 43 8 65 12 22 4 67 14 100 22 33 8 71 17 85 20
70 12 299 87 440 143 560 223 1072 605 1446 1080 205 260 349 508 499 855 51
118 143 415 171 550 17 81 54 301 59 350 4 33 9 71 11 85 9 47 11 525 4 605
-15 157 -21 210 -25 225 -2 8 -7 35 -10 60 -17 129 -80 384 -136 552 -203 604
-585 1165 -1064 1563 -33 28 -62 53 -65 56 -4 5 -138 102 -270 196 -110 79
-423 244 -600 316 -215 88 -570 187 -760 212 -19 3 -46 7 -60 10 -13 2 -52 7
-86 11 -33 3 -74 8 -90 10 -33 5 -540 14 -546 9z"/>
</g>
</svg>
