<?xml version="1.0" standalone="no"?>
<!DOCTYPE svg PUBLIC "-//W3C//DTD SVG 20010904//EN"
 "http://www.w3.org/TR/2001/REC-SVG-20010904/DTD/svg10.dtd">
<svg version="1.0" xmlns="http://www.w3.org/2000/svg"
 width="255.000000pt" height="255.000000pt" viewBox="0 0 255.000000 255.000000"
 preserveAspectRatio="xMidYMid meet">
<metadata>
Created by potrace 1.14, written by Peter Selinger 2001-2017
</metadata>
<g transform="translate(0.000000,255.000000) scale(0.100000,-0.100000)"
fill="#000000" stroke="none">
<path d="M1245 2505 c-10 -22 -21 -50 -26 -61 -6 -17 -19 -24 -61 -29 -75 -10
-78 -15 -20 -41 50 -22 51 -23 63 -83 7 -34 16 -61 19 -61 3 0 21 25 39 55 33
55 33 55 85 56 51 0 114 17 72 18 -10 1 -36 6 -56 12 -31 10 -39 17 -44 43 -4
17 -17 54 -30 81 l-24 50 -17 -40z"/>
<path d="M1908 2150 l5 -50 -32 0 c-38 0 -39 -8 -5 -35 26 -21 26 -21 9 -54
-18 -36 -9 -35 33 3 l24 21 39 -45 c43 -50 46 -49 24 3 -22 54 -19 84 13 113
21 21 23 24 7 19 -61 -20 -70 -18 -83 18 -7 19 -19 40 -26 46 -11 9 -12 2 -8
-39z"/>
<path d="M1010 1990 c8 -5 20 -10 25 -10 6 0 3 5 -5 10 -8 5 -19 10 -25 10 -5
0 -3 -5 5 -10z"/>
<path d="M1512 1991 c-8 -4 -14 -12 -15 -17 -1 -5 -6 -8 -11 -6 -5 2 -6 -4 -3
-13 4 -8 2 -15 -3 -15 -6 0 -9 -6 -7 -12 1 -9 -11 -12 -40 -11 -51 2 -53 -6
-14 -35 22 -16 28 -27 24 -44 -4 -19 -3 -20 7 -8 8 12 9 7 4 -22 -3 -21 -3
-50 0 -64 l7 -26 19 22 c11 13 17 27 14 31 -3 5 -3 9 1 9 3 0 9 -10 14 -22 l8
-22 5 22 c4 12 2 20 -2 17 -5 -3 -8 4 -7 15 1 22 13 27 21 8 3 -7 3 -1 0 15
-6 26 -5 27 40 27 25 0 46 4 46 8 0 5 -18 16 -41 26 -22 10 -38 20 -35 23 2 3
19 -2 37 -11 18 -9 34 -14 37 -11 2 2 -8 10 -23 17 -24 11 -25 13 -8 20 11 5
6 6 -14 2 l-33 -6 3 43 c2 43 -7 55 -31 40z"/>
<path d="M1040 1961 c0 -7 -5 -9 -10 -6 -6 4 -21 -17 -34 -46 -14 -32 -26 -48
-30 -41 -4 7 -25 21 -46 32 -36 18 -39 19 -33 3 3 -10 13 -26 21 -35 10 -12
13 -30 9 -58 -3 -23 -1 -38 4 -34 5 3 9 15 9 27 1 19 2 20 11 5 6 -11 6 -24 0
-35 -11 -20 -23 -52 -27 -70 -1 -6 4 -14 11 -17 9 -3 12 0 9 8 -3 9 6 18 25
24 31 11 32 10 61 -41 28 -50 42 -89 19 -57 -8 12 -10 12 -7 1 2 -8 11 -15 20
-17 12 -1 15 12 16 80 0 66 3 81 15 78 19 -3 31 14 17 23 -16 10 -12 23 10 30
11 3 20 10 20 14 0 12 -50 32 -61 25 -12 -7 -39 14 -39 30 0 6 5 4 10 -4 8
-13 10 -13 10 2 0 9 -6 18 -12 20 -10 4 -10 10 0 33 7 15 10 30 7 33 -3 3 -5
0 -5 -7z m55 -189 c-6 -7 -34 11 -29 19 3 5 11 3 19 -4 7 -6 12 -13 10 -15z"/>
<path d="M525 1913 c-80 -41 -174 -163 -219 -281 -58 -151 -70 -231 -70 -447
-1 -188 1 -206 27 -299 109 -392 415 -722 757 -816 79 -21 274 -44 313 -36 12
3 58 7 102 10 44 3 102 12 130 20 32 10 53 12 59 6 6 -6 15 -10 21 -10 5 0 3
5 -5 10 -13 8 -12 10 3 10 9 0 17 5 17 11 0 6 9 8 20 4 13 -4 22 -1 26 9 4 11
11 13 31 5 34 -13 40 -11 18 5 -18 13 -18 14 6 22 13 4 26 8 29 9 6 1 43 24
130 81 36 23 85 62 110 86 24 24 38 34 31 23 -8 -11 1 -5 18 13 17 18 29 37
26 41 -3 5 2 22 11 37 l16 29 -6 -30 c-5 -22 -4 -26 4 -15 5 8 10 31 11 50 0
19 4 44 8 55 8 19 8 19 20 0 12 -20 12 -20 5 0 -4 11 -7 31 -7 45 1 65 12 197
18 215 5 15 4 16 -3 6 -9 -12 -11 -12 -15 0 -2 8 -2 3 0 -11 3 -22 2 -23 -7
-7 -6 9 -15 15 -21 12 -5 -4 -9 -2 -9 4 0 5 6 11 13 14 6 3 3 5 -8 4 -13 -1
-21 -8 -21 -18 0 -10 4 -15 8 -13 15 9 8 -12 -10 -32 -10 -10 -23 -27 -29 -38
-9 -16 -11 -16 -25 -2 -14 14 -17 14 -22 0 -3 -8 -1 -24 4 -34 8 -15 4 -23
-19 -40 -25 -17 -92 -50 -104 -50 -12 0 -2 40 11 43 15 4 15 5 1 6 -12 1 -18
16 -23 66 -4 36 -9 72 -13 82 -4 9 -2 14 3 11 5 -4 10 13 11 35 1 34 0 37 -7
17 -7 -21 -8 -22 -9 -5 -1 11 -8 39 -16 63 -8 23 -13 55 -9 70 4 22 3 24 -6
12 -9 -12 -10 -10 -6 13 4 16 2 27 -5 27 -6 0 -9 6 -6 13 2 6 9 11 15 10 6 -2
5 9 -4 25 -8 15 -12 39 -8 55 4 17 1 27 -6 27 -7 0 -10 -6 -7 -13 3 -8 1 -20
-4 -28 -6 -10 -9 -6 -9 16 0 17 -4 37 -9 45 -6 8 -7 18 -4 24 4 5 6 39 5 75
-1 48 2 59 8 41 l8 -25 1 28 c1 15 -3 27 -7 27 -12 0 -43 110 -36 122 4 6 2 8
-4 4 -6 -3 -13 -2 -16 3 -3 5 1 11 9 15 8 3 15 10 15 16 0 7 -6 5 -15 -3 -15
-15 -84 -15 -107 -1 -6 4 -8 2 -4 -4 3 -6 -4 -14 -16 -18 -13 -3 -35 -15 -50
-25 -14 -11 -30 -19 -35 -19 -4 0 -1 5 7 11 10 7 11 9 2 7 -8 -2 -12 -6 -10
-10 2 -3 -7 -17 -19 -30 -35 -37 -39 -73 -13 -124 13 -24 27 -44 32 -44 4 0 8
-5 8 -11 0 -5 -4 -7 -10 -4 -6 3 -7 -1 -3 -10 4 -12 8 -13 13 -5 5 9 9 9 14 1
4 -6 4 -15 1 -21 -3 -6 1 -7 9 -4 19 7 22 -12 4 -20 -7 -4 -4 -5 8 -2 25 4 25
-5 -7 -117 -14 -50 -25 -73 -31 -65 -5 9 -8 9 -8 1 0 -6 -3 -20 -6 -30 -5 -15
-4 -15 5 -3 6 8 11 12 11 8 0 -15 -26 -64 -42 -78 -9 -8 -19 -35 -22 -60 -3
-25 -5 -47 -6 -50 0 -3 -5 2 -11 10 -9 12 -10 12 -5 -4 4 -11 0 -26 -8 -35 -8
-9 -15 -19 -15 -24 -1 -18 -33 -67 -40 -63 -5 3 -16 -3 -26 -14 -10 -11 -15
-20 -10 -20 4 0 14 8 21 17 15 20 19 6 5 -16 -8 -12 -16 -12 -55 3 -25 10 -46
22 -46 27 0 5 -6 8 -12 6 -7 -1 -12 6 -10 16 2 9 -2 17 -8 17 -6 0 -8 -4 -5
-10 8 -13 -1 -13 -26 1 -11 5 -17 14 -14 19 3 5 1 11 -4 14 -5 4 -12 2 -16 -4
-4 -6 -11 -8 -16 -4 -5 3 -7 10 -4 15 3 5 0 6 -8 3 -17 -6 -80 44 -71 57 3 5
11 9 17 8 9 0 8 -2 -1 -6 -6 -2 -10 -9 -6 -14 10 -17 20 -9 20 15 0 24 -1 24
-29 9 -16 -8 -26 -10 -23 -4 4 6 1 11 -7 11 -21 0 -159 149 -151 162 5 8 2 9
-9 5 -13 -5 -17 -1 -17 14 0 11 -4 18 -9 14 -5 -3 -12 4 -16 15 -3 11 -9 20
-13 20 -4 0 -7 14 -7 32 0 19 -6 33 -15 36 -13 4 -13 3 -2 -11 8 -9 12 -21 10
-27 -10 -31 -152 219 -144 253 3 12 3 16 0 9 -5 -10 -10 -8 -21 7 -8 12 -11
26 -7 33 4 7 3 8 -4 4 -8 -4 -12 0 -12 11 0 10 -7 31 -15 46 -10 20 -12 35 -5
53 6 14 10 31 9 37 0 7 -5 1 -10 -12 -13 -34 -22 -20 -9 15 10 28 9 28 -6 9
-16 -20 -16 -20 -9 4 5 15 3 21 -3 17 -11 -7 -26 40 -17 54 4 6 2 10 -3 10
-10 0 -21 74 -27 180 -2 42 -1 58 5 45 6 -14 9 -16 9 -4 1 8 -5 21 -11 27 -7
7 -11 28 -9 47 3 39 -1 41 -44 18z m1225 -521 c27 -22 39 -89 28 -149 -9 -42
-30 -61 -46 -40 -36 48 -66 180 -45 200 12 12 40 7 63 -11z m316 -729 c-7 -7
-26 7 -26 19 0 6 6 6 15 -2 9 -7 13 -15 11 -17z m34 -277 c0 -2 -8 -10 -17
-17 -16 -13 -17 -12 -4 4 13 16 21 21 21 13z"/>
<path d="M920 1916 c0 -2 7 -7 16 -10 8 -3 12 -2 9 4 -6 10 -25 14 -25 6z"/>
<path d="M966 1905 c4 -8 7 -15 9 -15 2 0 5 7 9 15 3 9 0 15 -9 15 -9 0 -12
-6 -9 -15z"/>
<path d="M831 1894 c0 -11 3 -14 6 -6 3 7 2 16 -1 19 -3 4 -6 -2 -5 -13z"/>
<path d="M1055 1870 c-3 -5 -1 -10 4 -10 6 0 11 5 11 10 0 6 -2 10 -4 10 -3 0
-8 -4 -11 -10z"/>
<path d="M1400 1869 c0 -5 5 -7 10 -4 6 3 10 8 10 11 0 2 -4 4 -10 4 -5 0 -10
-5 -10 -11z"/>
<path d="M1135 1860 c-3 -5 -1 -10 4 -10 6 0 11 5 11 10 0 6 -2 10 -4 10 -3 0
-8 -4 -11 -10z"/>
<path d="M1140 1811 c0 -8 -7 -11 -17 -6 -15 5 -16 4 -5 -6 9 -10 15 -10 24
-1 6 6 9 15 5 19 -4 3 -7 1 -7 -6z"/>
<path d="M1900 1810 c0 -5 5 -10 11 -10 5 0 7 5 4 10 -3 6 -8 10 -11 10 -2 0
-4 -4 -4 -10z"/>
<path d="M1421 1795 c-1 -32 19 -95 31 -95 7 0 7 4 0 13 -5 6 -14 32 -20 57
-5 25 -10 36 -11 25z"/>
<path d="M1402 1735 c0 -16 2 -22 5 -12 2 9 2 23 0 30 -3 6 -5 -1 -5 -18z"/>
<path d="M1520 1710 c0 -5 5 -10 11 -10 5 0 7 5 4 10 -3 6 -8 10 -11 10 -2 0
-4 -4 -4 -10z"/>
<path d="M950 1699 c0 -5 5 -7 10 -4 6 3 10 8 10 11 0 2 -4 4 -10 4 -5 0 -10
-5 -10 -11z"/>
<path d="M1415 1690 c-3 -5 -1 -10 4 -10 6 0 11 5 11 10 0 6 -2 10 -4 10 -3 0
-8 -4 -11 -10z"/>
<path d="M1498 1683 c7 -3 16 -2 19 1 4 3 -2 6 -13 5 -11 0 -14 -3 -6 -6z"/>
<path d="M1315 1655 c-3 -17 -11 -46 -17 -67 -6 -20 -8 -48 -4 -62 4 -18 0
-30 -16 -46 -23 -21 -34 -25 -41 -12 -2 4 -2 1 -1 -5 2 -7 -6 -17 -16 -23 -23
-13 -26 -45 -5 -54 8 -3 20 1 27 8 24 23 49 14 69 -25 14 -28 17 -44 10 -62
-7 -17 -6 -24 4 -24 7 0 10 8 7 21 -4 21 -4 21 11 1 17 -21 19 -19 19 33 0 17
5 32 9 32 5 0 9 8 9 18 0 14 -2 15 -10 2 -8 -13 -10 -12 -10 3 0 23 28 33 51
18 16 -9 19 -8 19 8 0 11 -15 28 -35 40 -32 18 -34 23 -25 42 7 11 9 23 6 27
-3 3 -6 0 -6 -6 0 -7 -5 -12 -12 -12 -6 0 -9 3 -5 6 3 3 2 17 -3 30 -6 16 -6
33 2 48 9 20 7 31 -10 57 l-21 33 -6 -29z m34 -50 c0 -5 -6 -1 -14 9 -8 11
-15 27 -15 35 1 17 29 -26 29 -44z m-109 -199 c0 -11 -19 -15 -25 -6 -3 5 1
10 9 10 9 0 16 -2 16 -4z"/>
<path d="M1371 1664 c0 -11 3 -14 6 -6 3 7 2 16 -1 19 -3 4 -6 -2 -5 -13z"/>
<path d="M2035 1639 c-4 -6 -5 -12 -2 -15 2 -3 7 2 10 11 7 17 1 20 -8 4z"/>
<path d="M1371 1594 c0 -11 3 -14 6 -6 3 7 2 16 -1 19 -3 4 -6 -2 -5 -13z"/>
<path d="M1231 1584 c0 -11 3 -14 6 -6 3 7 2 16 -1 19 -3 4 -6 -2 -5 -13z"/>
<path d="M1250 1578 c0 -19 2 -20 10 -8 13 19 13 30 0 30 -5 0 -10 -10 -10
-22z"/>
<path d="M631 1564 c0 -11 3 -14 6 -6 3 7 2 16 -1 19 -3 4 -6 -2 -5 -13z"/>
<path d="M1381 1554 c0 -11 3 -14 6 -6 3 7 2 16 -1 19 -3 4 -6 -2 -5 -13z"/>
<path d="M1271 1534 c0 -11 3 -14 6 -6 3 7 2 16 -1 19 -3 4 -6 -2 -5 -13z"/>
<path d="M1703 1505 c0 -8 4 -12 9 -9 5 3 6 10 3 15 -9 13 -12 11 -12 -6z"/>
<path d="M1385 1480 c3 -5 8 -10 11 -10 2 0 4 5 4 10 0 6 -5 10 -11 10 -5 0
-7 -4 -4 -10z"/>
<path d="M2120 1480 c0 -5 5 -10 11 -10 5 0 7 5 4 10 -3 6 -8 10 -11 10 -2 0
-4 -4 -4 -10z"/>
<path d="M1410 1476 c0 -2 7 -9 15 -16 12 -10 15 -10 15 4 0 9 -7 16 -15 16
-8 0 -15 -2 -15 -4z"/>
<path d="M1587 1473 c-4 -3 -7 -11 -7 -17 0 -6 5 -5 12 2 6 6 9 14 7 17 -3 3
-9 2 -12 -2z"/>
<path d="M657 1451 c-4 -17 -3 -21 5 -13 5 5 8 16 6 23 -3 8 -7 3 -11 -10z"/>
<path d="M1800 1430 c0 -8 5 -22 10 -30 9 -13 10 -13 10 0 0 8 -5 22 -10 30
-9 13 -10 13 -10 0z"/>
<path d="M1155 1410 c3 -5 10 -10 16 -10 5 0 9 5 9 10 0 6 -7 10 -16 10 -8 0
-12 -4 -9 -10z"/>
<path d="M1466 1411 c-4 -7 -5 -15 -2 -18 9 -9 19 4 14 18 -4 11 -6 11 -12 0z"/>
<path d="M1270 1381 c0 -6 4 -12 8 -15 5 -3 9 1 9 9 0 8 -4 15 -9 15 -4 0 -8
-4 -8 -9z"/>
<path d="M1841 1374 c0 -11 3 -14 6 -6 3 7 2 16 -1 19 -3 4 -6 -2 -5 -13z"/>
<path d="M1491 1344 c0 -11 3 -14 6 -6 3 7 2 16 -1 19 -3 4 -6 -2 -5 -13z"/>
<path d="M1842 1300 c0 -14 2 -19 5 -12 2 6 2 18 0 25 -3 6 -5 1 -5 -13z"/>
<path d="M2226 1295 c-3 -8 -1 -15 4 -15 6 0 10 7 10 15 0 8 -2 15 -4 15 -2 0
-6 -7 -10 -15z"/>
<path d="M1499 1283 c5 -10 12 -27 16 -37 3 -10 8 -17 10 -14 8 7 -16 68 -26
68 -5 0 -5 -7 0 -17z"/>
<path d="M726 1265 c4 -8 11 -15 16 -15 6 0 5 6 -2 15 -7 8 -14 15 -16 15 -2
0 -1 -7 2 -15z"/>
<path d="M1482 1255 c0 -16 2 -22 5 -12 2 9 2 23 0 30 -3 6 -5 -1 -5 -18z"/>
<path d="M1831 1214 c0 -11 3 -14 6 -6 3 7 2 16 -1 19 -3 4 -6 -2 -5 -13z"/>
<path d="M806 1165 c-9 -26 -7 -32 5 -12 6 10 9 21 6 23 -2 3 -7 -2 -11 -11z"/>
<path d="M1820 1165 c0 -8 2 -15 4 -15 2 0 6 7 10 15 3 8 1 15 -4 15 -6 0 -10
-7 -10 -15z"/>
<path d="M1862 1110 c0 -19 2 -27 5 -17 2 9 2 25 0 35 -3 9 -5 1 -5 -18z"/>
<path d="M1560 1119 c0 -5 5 -7 11 -3 8 4 9 -4 5 -27 -5 -30 -5 -31 4 -10 6
14 8 31 6 38 -6 16 -26 18 -26 2z"/>
<path d="M1600 1115 c0 -8 2 -15 4 -15 2 0 6 7 10 15 3 8 1 15 -4 15 -6 0 -10
-7 -10 -15z"/>
<path d="M892 1060 c0 -19 2 -27 5 -17 2 9 2 25 0 35 -3 9 -5 1 -5 -18z"/>
<path d="M1570 1029 c-6 -11 -10 -25 -8 -30 2 -5 8 4 15 21 13 34 9 40 -7 9z"/>
<path d="M950 944 c0 -6 6 -17 14 -23 11 -9 15 -8 20 5 9 24 7 31 -4 14 -9
-13 -11 -13 -20 0 -5 8 -10 10 -10 4z"/>
<path d="M1480 870 c0 -8 5 -22 10 -30 9 -13 10 -13 10 0 0 8 -5 22 -10 30 -9
13 -10 13 -10 0z"/>
<path d="M1052 826 c7 -8 15 -12 17 -11 5 6 -10 25 -20 25 -5 0 -4 -6 3 -14z"/>
<path d="M1922 750 c0 -19 2 -27 5 -17 2 9 2 25 0 35 -3 9 -5 1 -5 -18z"/>
<path d="M1928 663 c5 -21 7 -23 10 -9 2 10 0 22 -6 28 -6 6 -7 0 -4 -19z"/>
<path d="M1978 633 c7 -3 16 -2 19 1 4 3 -2 6 -13 5 -11 0 -14 -3 -6 -6z"/>
<path d="M1960 610 c-18 -12 -2 -12 25 0 13 6 15 9 5 9 -8 0 -22 -4 -30 -9z"/>
<path d="M1890 190 c-14 -11 -20 -20 -15 -20 6 0 21 9 35 20 14 11 21 20 15
20 -5 0 -21 -9 -35 -20z"/>
<path d="M1760 126 c0 -2 7 -7 16 -10 8 -3 12 -2 9 4 -6 10 -25 14 -25 6z"/>
<path d="M1715 90 c-3 -6 1 -7 9 -4 18 7 21 14 7 14 -6 0 -13 -4 -16 -10z"/>
</g>
</svg>
