<svg id="Layer_1" data-name="Layer 1" xmlns="http://www.w3.org/2000/svg" viewBox="0 0 748.16 744.74">
	<defs>
		<style>
			.cls-1 {
				fill: #3a2205;
			}
		</style>
	</defs>
	<g id="layer1">
		<path id="path24" class="cls-1"
			d="M378.21,40.67s2.24,2,1.24,7.85c-.36,1.95-1.39,5.64-.09,8.59,5.61,12.18,14.68,39.33,4.38,67-1.49,4.27-4.84,8-8.38,12.26a23.5,23.5,0,0,0-.91-9.47c-1.73-5.27-5.59-8.73-7.26-12.67-.35-.78-.3-2.45-1.38-4.25A21.54,21.54,0,0,0,361,105.6c-1.54-1.26-2.89-2.63-3.29-4.27-1.48-5.19-.82-11.79-.95-16.89a23.43,23.43,0,0,0-5.05-14.6,38.12,38.12,0,0,0-2.94-2.91,34.18,34.18,0,0,1-3.57-3.86,7.35,7.35,0,0,1-1.83-4,3.15,3.15,0,0,1,2.27-3.31,3.22,3.22,0,0,0-2.48,3.31,7.59,7.59,0,0,0,1.7,4.22,33.93,33.93,0,0,0,3.43,4.08,39.42,39.42,0,0,1,2.73,3,22.21,22.21,0,0,1,4.12,14c-.12,5-1.09,11.58.2,17.48a11.34,11.34,0,0,0,3.91,5.79c1.57,1.39,3.21,2.52,4,3.93.46.51.22,1.94.91,3.77,1.87,4.9,5.57,8.54,6.49,12.54a18.82,18.82,0,0,1-.31,10.71c-1,3.12-2.94,6.2-4.63,9.41-.43,1.3-.48,1.89-.32,1.72,0,.51,0,1,0,1.45,0,1.33.06,2.66.1,3.94s.1,2.58.16,3.86c0,.44.05.88.08,1.33,0,.23.08.48.13.73a1.94,1.94,0,0,0,.07.33,17,17,0,0,0,1.87,2.94c.56,5,1.73,9.69-.14,12-3.36,6.56-4.34,13.38-5.34,19.68-.68,3.7-1.38,7.39-2.38,10.84a15.07,15.07,0,0,0-2-3.67c-4.09-5.15-9.27-8.36-14.13-12-4.25-3.41-8.73-6.83-9.59-11.47-2.37-10.48.45-21.68,5.5-30.56,1.3-2.22,2.95-4.44,3.43-7.31a38.85,38.85,0,0,0-1.77-17.47c-2.15-6.67-3.77-10.07-4.64-15.4-1.52-9,1.41-14.85,1.41-14.85s-3.15,5.38-2,14.94c.66,5.44,2.16,9,4,15.68a37.28,37.28,0,0,1,1,16.77c-.37,2.22-2,4.07-3.45,6.45-5.69,9-9.17,20.75-7.1,32.47,1.31,6.24,6.12,10.7,10.49,14.14,4.9,4.08,9.7,7.24,12.78,11.65,1.7,2.24,1.95,5.47,1.41,8.33-.6,3.09-2.18,6.54-3.34,9.85a5.93,5.93,0,0,0-.28,2.19c0,.83,0,1.62.09,2.33.06,1,.15,1.91.24,2.84a187.61,187.61,0,0,1-13.46,19.67,12.32,12.32,0,0,0-.5-1.4c-3.49-6.43-9-10.55-14.1-14.92-5.24-4.68-10.67-8.81-13.62-14.49-.08.13.07-.23,0-.87a1,1,0,0,0,.11-.73c3.59-2.68,5.39-6.76,6.49-10.48,1.21-4.1.19-8.25-1.19-11.65-1.5-3.82-3.18-6.6-3.82-10.07-.73-4-2.16-6.85-1.39-10.06,1-4.21,1.22-7.82.34-11.08-2.1-7.7-3.71-12-3.71-12s1.46,4.55,3.17,12.1c.72,3.18.3,6.6-.81,10.7-.93,3.59.33,6.75.91,10.56s2.16,6.82,3.44,10.51c1.11,3.3,1.91,7.05.71,10.18-1.31,3.5-3,7.13-6,8.88a3.34,3.34,0,0,0-1.34,2.68,4.05,4.05,0,0,0,.19,2.71c3.18,6.57,8.72,11.35,13.69,16.06s10.07,8.82,12.46,14.13c.94,1.4-.1,3.77-1.16,6-1.08,1.81-2.78,3.78-4,6.44-7.33,9.62-14.8,20.32-19.77,33a17,17,0,0,0-2-1.77,32.94,32.94,0,0,0-7.23-12.84c-1.17-.38-2.1-.64-2.89-.85a4.3,4.3,0,0,1-.67-.35c-.29-.5-.58-1-.84-1.5a21.45,21.45,0,0,0-7.28-7.35c-.32-.27-.61-.51-.91-.74-1-1.46-2-2.92-2.93-4.4,0-.05,0-.07,0-.11.18-.45-.43-2.2-2.44-4.8l-.9-.79c-6.61-13.26-7.34-30.29-7.92-45.58-.08-3.82-.14-7.45-.2-11.09l.24-.38c.84-1.9,4.09-2.78,7.23-5,5.84-4.24,8.43-11,9.69-17,.91-4.15-.39-7.5.55-9.49,1.88-5,2.8-10.24,3.88-14.93.91-4.11.41-8.17.3-11.68,0-3.78-.19-7.32,1.54-9.84.68-1.23,2.36-2,4.05-2.75a58.65,58.65,0,0,1,7-2.27c2.36-.65,4.64-1.23,6.94-2.07a7,7,0,0,0,4.41-3,7.59,7.59,0,0,0-.36-6.3c-.8-1.82-1.87-3.3-2.18-4.84-1.09-4.86-.22-10.13.61-14.38,1.21-6,2.19-9.9,2.11-14.64-.06-2.79-1.62-5.38-2.59-7-2.5-4.23-2.54-6.77-2.54-6.77s-.08,2.55,2.31,6.9c.91,1.65,2.35,4.27,2.28,6.87-.08,4.67-1.19,8.37-2.61,14.41-1,4.25-2.09,9.62-1.15,14.92.4,2,1.42,3.56,2.11,5.24s1,3.42.21,4.69c-.34.94-1.82,1.22-3.33,1.84-2.18.72-4.41,1.19-6.83,1.77a58,58,0,0,0-7.37,2.11,10.92,10.92,0,0,0-5.47,3.65c-2.3,3.51-2.47,7.7-2.43,11.48s.32,7.58-.59,10.75c-1.29,4.78-2.35,9.85-4.23,14.25-1.46,4-.37,7.71-1.07,10-1.62,5.49-3.83,11.24-8.13,13.77-1.29.77-3,1.5-4.74,2.58-.4-13.55-1.48-26.15-6-38.74-.39-1-.8-2.07-1.22-3.1a15.94,15.94,0,0,0,2.56-4.4c.63-2.6-.22-4.45,0-5.44-.05.35,2.07-14.16,2-13.8a5.64,5.64,0,0,0,0-1.39c0-.84-.08-1.68-.12-2.5-.14-2.43-.3-4.85-.47-7.21s-.35-4.86-.55-7.25c-.07-.85-.15-1.69-.25-2.54a5.22,5.22,0,0,0-.22-1.41c-.84-2.43-2.42-4.18-2.38-6-.09-2.79,1.27-5.83,2.12-8.53,1.06-3.25,1.53-6.52.35-9.4-1.51-3.54-4.48-7.4-6-9.61-4-6-3.62-10.28-3.62-10.28S258,71,261.78,77.19c1.41,2.29,4.22,6.26,5.51,9.71,1,2.58.37,5.53-.73,8.66-.93,2.55-2.44,5.64-2.54,8.93,0,2.57,1.59,4.65,2.21,6.61a6.9,6.9,0,0,1,.08,1c.06.83.1,1.66.14,2.51.11,2.37.19,4.76.27,7.23s.13,4.77.17,7.19q0,1.23,0,2.46a6.63,6.63,0,0,1,0,.87c0,.19-2.53,13.53-2.56,13.71-.38,2.41.43,4.18,0,4.87a5.57,5.57,0,0,1-.9,1.64,127.38,127.38,0,0,0-16.35-25.68,14,14,0,0,0-2-2.16c-.17-.38-1-.81-2.43-1a4.81,4.81,0,0,0-1.26.48c-.26-.53-.54-1.1-.89-1.7-17.41-32.24-30.82-49.42-30.82-49.42s12.57,18.55,27.53,51.06A13.07,13.07,0,0,0,240,129c.42.69,1.52.72,3.16-.07.15.19.28.38.44.6,5.94,8.49,12.07,18.77,15.76,30.14a7.75,7.75,0,0,0,0,1.71c.1,1.39.29,2.73.5,4,.38,2.38.87,4.72,1.38,7-3-1.89-6.25-2.53-8.36-3.83a8.16,8.16,0,0,0-5.58-.79c-1.62.1-2.86.45-3.59.12a38.24,38.24,0,0,1-6.86-3.2,29.55,29.55,0,0,1-6.33-4.11c-2.32-2-2.95-5.89-4.25-9.53-1.41-4.3-4.3-8.2-8.52-9.9a11.73,11.73,0,0,0-5.66-.24,63.74,63.74,0,0,0-7.49,1.37c-2.54.61-5,1.29-7.34,2a31,31,0,0,0-4.93,1.89c-.19.25-.8-.1-1.53-.27a25.82,25.82,0,0,1-3.5-1.63c-1-.57-2-1.16-3.06-1.77a12.84,12.84,0,0,1,2.26-6.41c2.36-3.45,4.69-5.76,5.84-9.42,1.27-4.36-1.51-8.57-3.32-10.88a40.61,40.61,0,0,0-7.72-7.93,40.31,40.31,0,0,1,7.29,8.25c1.65,2.36,4.13,6.59,2.74,10.22-1.18,3.33-3.52,5.33-6.13,8.84a14.35,14.35,0,0,0-2.74,6.23c-1.72-1.09-3.36-2.18-4.81-3.16-3.91-2.66-7.2-5.06-9.68-6.93-3.72-2.8-5.69-4.54-5.69-4.54s1.91,1.84,5.51,4.77c2.41,2,5.61,4.5,9.42,7.32,1.53,1.13,3.27,2.39,5.12,3.65a10.89,10.89,0,0,0,.4,3.77c2.41,7.68,7.17,12.7,11.82,20,1.8,2.77,2.23,6.81,4.63,10.69,2.19,3.24,5.58,4.48,6.17,6.37.54.86.19,2.32-.1,4a23.49,23.49,0,0,0-1.18,5.58c-.07,4.15.73,7.91,1.12,11.55.23,3.62.82,7-.53,9a46.36,46.36,0,0,0-3.75,8.09c-.17-.13-.33-.27-.51-.4a16.85,16.85,0,0,0-2.6-1.44c-.59-.57-1.19-1.14-1.82-1.7a12,12,0,0,0-4.35-2.86,21.81,21.81,0,0,0-5.34-.84c-14-8.18-24.76-15.23-33.47-25.26a87.34,87.34,0,0,1-5.42-7.42c-2.79-4-5-7.2-7.43-10.43a66.87,66.87,0,0,0-8.06-9.26c-4.38-4.06-7.34-3.92-7.34-3.92s2.9,0,7.09,4.18a66.56,66.56,0,0,1,7.6,9.51c2.3,3.32,4.34,6.55,7,10.7a86.74,86.74,0,0,0,5.21,7.8c7.59,9.47,17,16.73,28.76,24.44l-2,.25a90.18,90.18,0,0,0-12.35,2.43c-1.07.39-2.56,0-4.18-.36a51.66,51.66,0,0,1-6.42-2.18c-4-1.61-8-3.64-12.14-4.93-2.9-.74-5.47.71-7.37,1.8-2.37,1.21-4.17,2.59-6.32,3.05-2.6.6-5.47,0-8-.63a57.66,57.66,0,0,1-9.93-3.7,84.73,84.73,0,0,1-9.34-5.07,43.11,43.11,0,0,1-6.37-4.7,43.17,43.17,0,0,0,6.18,5,85.76,85.76,0,0,0,9.17,5.51,58.84,58.84,0,0,0,9.95,4.2,18.74,18.74,0,0,0,8.67,1c2.6-.49,4.65-1.85,6.86-2.9,2.11-.87,4.29-2.16,5.8-1.42,3.85,1.37,7.61,3.53,11.76,5.39a53.69,53.69,0,0,0,6.69,2.59,11.24,11.24,0,0,0,5.81.59,87,87,0,0,1,12-1.83,54.42,54.42,0,0,1,7.46-.25l3.11,2a28.68,28.68,0,0,0,4.95,2.23c.94,1,1.86,2,2.74,3.11,1.21,1.47,2.33,2.95,3.36,4.46a23.86,23.86,0,0,0,1.91,6.26c0,.39-.08.73-.11,1.16a12.86,12.86,0,0,0-.22,2.35,10.07,10.07,0,0,0,.56,4.69,18.25,18.25,0,0,0,5.55,5.8c.11.12.2.24.31.37a24.44,24.44,0,0,0,4.88,3.61,15.75,15.75,0,0,0,5,3.76,54.82,54.82,0,0,0,7.37,2A80.61,80.61,0,0,0,246.35,267c5,.87,9.66.58,13.8.66,3.46.15,6.74.58,9.31,1.85.72,1.63,1.5,3.24,2.37,4.84,10,17.79,23,34.1,34.79,50.76a56.07,56.07,0,0,0,4.15,13,92.37,92.37,0,0,0,10,16.77c3.68,9.29,6.34,15.68,7.05,17.21a52.62,52.62,0,0,0,5.89,9.75c.12.57.24,1.14.39,1.75-3.65-.59-7.25-1.1-10.82-1.58l-1-.49a52.85,52.85,0,0,0-10-4.27,98.17,98.17,0,0,0-11.11-2.18,81,81,0,0,0-10.06-4.76c-7.63-2.77-16.73-5.94-26.28-8.85-1-.72-2-1.44-3-2.17a16.66,16.66,0,0,0-1.74-4c-3.1-3.53-6-4.07-6.36-4.51-.46.37-.35-1.67-1.9-4.57a21.71,21.71,0,0,0-4.6-5.26,16.18,16.18,0,0,1-3.78-5.45,32.8,32.8,0,0,1-1.09-9.94,1.61,1.61,0,0,0,.09-1.08c.83-.95,2.66-1.68,4.55-3.13a9.37,9.37,0,0,0,2.75-3,5.24,5.24,0,0,0,0-4.74,12.14,12.14,0,0,0-6.13-4.73c-1.88-1.08-3.66-1.73-3.91-2.94a32.31,32.31,0,0,0-2.36-4.71c-1.28-2.27-2.62-4.41-4-6.44a57.59,57.59,0,0,0-4.56-6,9.78,9.78,0,0,0-4.27-3.39c-1.86-.55-3.62-1-5.24-1.48a25.8,25.8,0,0,1-2.9-1.06c-.65-.35-1.24-.5-1.41-.9a20.59,20.59,0,0,0-4.31-4.83c-.79-.67-.82-2.35-1-3.22C209.11,271,208,270,208,270a7.66,7.66,0,0,1,1.33,3.93c.09.84,0,2.53.91,3.57a19.66,19.66,0,0,1,3.79,4.89,3.61,3.61,0,0,0,1.81,1.48,26.25,26.25,0,0,0,2.94,1.33c1.64.64,3.4,1.2,5.15,1.85,1.23.41,2,1.69,3.19,3.07a53.07,53.07,0,0,1,3.94,6.05c1.19,2.06,2.34,4.23,3.42,6.5a29.44,29.44,0,0,1,1.83,4.36,10.22,10.22,0,0,0,5.41,5.36c1.87,1.2,3.74,2,4,3.18.06.15,0,.44-.09.48a5.41,5.41,0,0,1-1.51,1.29c-1.32.84-3.44,1.56-5.58,3.46a6.35,6.35,0,0,0-1.68,4,29.14,29.14,0,0,0-.29,4.49,27.39,27.39,0,0,0,.86,8.12,22.08,22.08,0,0,0,3.76,7,5.57,5.57,0,0,0-1.93-.06,44.13,44.13,0,0,0-6.09.42c-3.88.21-6.93,1.54-8.48.45-10.38-4.82-18.66-14.08-28.35-21-1-.52-1.53-2.18-2.31-3.95a54.14,54.14,0,0,1-2.16-7.71c-1.05-4.79-1.66-9.67-2.55-14.43a32.72,32.72,0,0,0-2.21-6.51c-1.25-3.06-2.61-6-4-8.85s-2.81-5.69-4.32-8.38a20.52,20.52,0,0,0-3.35-5.05,79,79,0,0,0-7.64-6.32c-1.53-1.15-3-2.2-4.58-3.15a12.72,12.72,0,0,0-3.72-1.76c-6.09-1.4-11.54-1.06-15.42-2.91a42.74,42.74,0,0,1-5.64-3.73c-4.07-2.71-6.64-2.5-6.64-2.5s2.55-.08,6.48,2.73a52.41,52.41,0,0,0,5.55,4c4,2.06,9.64,2,15.38,3.56a12,12,0,0,1,3.29,1.75c1.46,1,2.88,2,4.34,3.24a79.48,79.48,0,0,1,7.22,6.47c1.18,1.2,1.85,2.89,2.81,4.7,1.37,2.69,2.65,5.47,3.92,8.41s2.45,5.82,3.56,8.85a31.07,31.07,0,0,1,1.79,6c.68,4.67,1.1,9.58,2,14.63a55.94,55.94,0,0,0,2,8.36,11.72,11.72,0,0,0,3.57,6c6.91,5.42,13.28,12.43,21.14,18.15-2.37-.06-5-.05-8,0-8.79.14-19,1.1-29.73,1.33-2.89.06-5.85.13-8.73,0-1.74-.11-3.42-.14-4.91-.37q-2.42-1.1-4.78-2.08a28.66,28.66,0,0,1-5.4-5.66c-2.08-3.11-4.23-6.48-3.24-9.27a4.3,4.3,0,0,0,1.62-1.65,17.74,17.74,0,0,0,1.12-8.17c.05-2.54,0-5.49-1.45-8.14-4.5-7.44-11-12.51-15.4-18.17-1.91-2.45-3.17-4.71-5.36-6.83a8.47,8.47,0,0,1-2.13-4.88,18.19,18.19,0,0,0-1.41-5.73c-1.59-3-4.7-5-6.58-6.36-4.75-3.39-6.38-6.07-6.38-6.07s1.5,2.78,6.15,6.39c1.82,1.42,4.81,3.59,6.11,6.39.78,1.63.82,3.39,1.08,5.52a9.68,9.68,0,0,0,2.25,5.65c1.82,1.89,3.15,4.42,5,6.92,4.33,6,10.61,11.44,14.4,18.5,1,1.74.77,4.17.77,6.79s-.11,4.91-1.07,6.63c-.13,0-1,.43-1.89,2-1.4,4.67.67,9.29,3.15,12.63-5.33-2.07-10.44-4-15.2-6-10.3-4.36-18.33-9.14-24.72-15.1a36.49,36.49,0,0,1-5.7-7.46c-2.18-3.48-4.25-7.29-5.78-10.11-2.33-4.3-3.4-6.35-5.11-9.17a17.43,17.43,0,0,0-3.81-4.73,18.4,18.4,0,0,1,3.44,4.94c1.5,2.93,2.4,5,4.44,9.48,1.32,2.92,3.13,6.89,5.1,10.59a38.21,38.21,0,0,0,5.52,8.35c6.23,6.66,14.31,12.33,24.61,17.54,8.77,4.45,18.59,8.52,28.26,13.81,5.95,3.11,12.48,4.12,18.86,4.55,1.47.12,2.94.2,4.4.27-6.61,2.36-14.62,1.46-22.4,3.15-4.1.95-7.47,3.24-10.63,4.92-1.28.87-4,0-6.81,1.26-4.54,2.37-8.66,4.57-13,6.53a5.71,5.71,0,0,0-1.68,1.34c-.55.47-.86.91-1.15,1-3.12,1.38-6.3,2.43-8.76,4.92,0,.19-.51.09-1.07.12a13.65,13.65,0,0,1-2.44-.52,33.72,33.72,0,0,0-4.46-1.37c-7-1-13.06-.86-17.79-1.95a25.08,25.08,0,0,1-6.07-2.83c-3.78-2.11-6-2.09-6-2.09s2.24.09,5.9,2.3a25.15,25.15,0,0,0,6.07,3.1c4.77,1.29,11,1.38,17.73,2.63a40.08,40.08,0,0,1,4.25,1.5,15.22,15.22,0,0,0,2.68.67,2.65,2.65,0,0,0,2.3-.49c2.14-2.12,5.14-2.89,8.43-4.25a6,6,0,0,0,1.71-1.29c.56-.44.9-.88,1.18-.94,4.5-1.83,8.75-3.89,13.36-6.09,1.37-.79,4,.23,6.93-1,3.46-1.63,6.7-3.72,10-4.26,7.18-1.3,15.26-.08,23.26-2.51a7.13,7.13,0,0,0,3.57-3.69c4.35.07,8.71,0,13.21-.09,7.17-.12,14.72-.35,21.89,0,5.67.37,11.14.7,15.21,2.7a30.9,30.9,0,0,1,5,2.7c2.7,2,5.1,4,7,5.57,2.18,1.8,4,3.23,5.54,4.46l.59.5a36.56,36.56,0,0,0-6.94,4.41c-6.82,5.32-11.05,11.19-16.12,13.8-3,1.79-7.2,2.56-11.63,3.67a39.74,39.74,0,0,0-14.33,5.6c-6,4.4-8.57,9.86-12.21,11.63-5.64,3.23-13.28,4.44-20,6-8,1.75-15.21,5-20.4,10.42-.94,1.22-2.95,1.81-5,2.48a12.27,12.27,0,0,0-6,2.7c-1.33,1.85-4.75,1.71-7.58,1.54a65.19,65.19,0,0,1-13-3.16c-5.41-1.75-9.94-3.44-13.57-4.63a39.64,39.64,0,0,0-10-2.24,41.57,41.57,0,0,1,9.75,3c3.52,1.44,7.89,3.44,13.21,5.61a67.19,67.19,0,0,0,13.22,4.24c3,.66,7.15.93,10.44-1.83.72-.86,2.42-.8,4.54-1.39a14.47,14.47,0,0,0,7.13-3.15c4.57-4.33,11-6.44,18.42-7.65,6.52-1,14.67-1.73,22.24-5.1,6.38-3.24,9.93-8.89,13.72-11.06,2.9-1.87,6.83-2.49,11.34-3.31,4.27-.63,9.35-1.33,14.56-3.63,7.86-3.84,13.33-9.87,18.64-13.46a21.63,21.63,0,0,1,8-3.58,17,17,0,0,1,9.17,1.12A104.76,104.76,0,0,1,288.16,392c2.37,1.83,3.69,2.58,3.79,2.31.41.15.76.26,1.11.37l.05,0a11.76,11.76,0,0,0-1.63,2.63,21.53,21.53,0,0,0-1.64,7.84c-.12,2.38,0,4.69,0,6.82a16.08,16.08,0,0,1-.06,2.15.64.64,0,0,0-.08.39c-1.62,1.7-4.62,2.61-7.41,4.57-5.65,4-10.37,9.18-14.53,13.57a23.14,23.14,0,0,0-3.85,6.17,49.86,49.86,0,0,0-2.65,6.68,3.79,3.79,0,0,0,.07,2.07,2.35,2.35,0,0,0,.14.95c-1.74,2.94-5.73,4.45-8.84,5.78-4.38,1.82-7.52,2.67-10.8,5a11.36,11.36,0,0,0-3.59,4.53,16.1,16.1,0,0,1-2.76,4.64,8.38,8.38,0,0,1-2.48,1.4c-1.71.8-1.46,2-1.46,2s-.17-1.13,1.52-1.83a8.67,8.67,0,0,0,2.63-1.31,17,17,0,0,0,3.07-4.59,10.61,10.61,0,0,1,3.55-4.07c3.25-2.05,6.28-2.66,10.86-4.3,3.18-1.1,7.46-2.51,10-6a3.12,3.12,0,0,0,.29-2.32c0-.71-.2-1.14-.09-1.14a46.33,46.33,0,0,1,2.85-6.21,20.36,20.36,0,0,1,3.62-5.25c4.42-4.19,9.27-9,14.64-12.36,2.27-1.41,5.61-2.25,8.58-4.94a4.3,4.3,0,0,0,1.19-2.65,20.47,20.47,0,0,0,.25-2.74c.09-2.26.11-4.48.33-6.53a16.35,16.35,0,0,1,1.49-5.91,6.45,6.45,0,0,1,1.74-2.09c4.16,2.4,8.46,4.91,13.07,7.41,7.44,3.36,12.56,2.82,12.75,3.67-1.1-.85.59,2.1,7.58,5.64a32.34,32.34,0,0,0,11.63,1.31c2.44.27,3.69,0,3.08.33-.47-.35-.28.09.81,1,.36.36.73.77,1.09,1.16a90.4,90.4,0,0,0,4.4,12.32,59.71,59.71,0,0,0,4.5,4.94,57.37,57.37,0,0,0,3.16,5.93c.82.46,1.18,2.79,2.12,6a44.32,44.32,0,0,0,5.42,15.41c4.92,7.41,5.92,18.52,7.69,30.47q.69,6,1.08,12.06c-2.73,7.76-6.34,16.22-9.1,26-1.22,7.58-.91,12.2-.6,13.67-3.67,13.28-6.59,27.21-9.24,38.63a82,82,0,0,0-.95,22.87c.2,6.37.67,10.66-.2,13.17-3.25,18.06-3.59,35.89-2.88,51.23-3.59,14.18-5.24,24.14-8.87,29.89-3.25,6-11.06,16.07-12.73,19.2-1.07,2-2.1,4.21-3.05,6.54a52.53,52.53,0,0,0-3.5,17.8h98c-.52-6.29-1.66-12.54-2.65-18.87-.11-.61-.22-1.23-.33-1.87-.57-3.21-1.31-6.86-1.95-20.23-.33-8.28-.31-17.76.23-30a467.18,467.18,0,0,1,5.38-55c2-13-.31-21.33.68-23.63,2.56-13.44,1.33-24.78-.13-34.28-.71-9.16-2.19-16.94-.35-21.7,3.94-14.32,3-26.24,4.34-34.55q1.44-8.67,3.31-17.4c4.11-13.1,8.25-26.87,11.29-40.61,2.56-12.87,1.56-24.43.44-34.62.3-5.25.42-10.36.54-15.33.11-4.6.2-9.06.4-13.39.18-.44.39-.86.61-1.28a36.62,36.62,0,0,0,2.65-12.19,12.17,12.17,0,0,0,.41-3.59c.23-.36.5-.75.82-1.16a33.15,33.15,0,0,0,5-9.15,20.43,20.43,0,0,0,2-2.22,50.67,50.67,0,0,1,9.12-10.65c.66-.32,1.41-.71,2.26-1.18-.58,1.3,1.06-.08,4.46-4.25.57-.55,1.07-1.09,1.47-1.55.55-.26,1.1-.52,1.66-.76a40.6,40.6,0,0,0,7-2.49,5.35,5.35,0,0,0,1.41-.07c1.87.06,4.06.41,6.57.73a54.94,54.94,0,0,0,8.2.67c1.42.38,3.57,0,6.13-1.19a31.72,31.72,0,0,0,8.79-2.27l4-2.17c1.51-.34,3-.69,4.32-1,5,2.55,9.69,3.91,13.62,5.41.13.82.28,1.72.46,2.7-.1.19.15,1.38,1,3.44a31.13,31.13,0,0,0,10.66,10.77,33.17,33.17,0,0,0,13,6.2c.65.37,1.35.74,2.12,1.09a17.34,17.34,0,0,1,2.79,2.67c1.41,1.27,1.25,4.12,1.45,7.14-.11,3.05.31,6.86,3,9.86A55.94,55.94,0,0,0,584,386.73c1.94.82,3.46,3,5.18,5.08s3.13,4.34,5,6.44c3.71,4.13,8.32,6.45,11.61,9.63,5,4.73,6.61,12.65,11.61,17.56a5.78,5.78,0,0,0,1.93,1.12c1,.44,2.09.8,3.11,1.13,2.86.93,5.7,1.65,8.39,2.25a67.71,67.71,0,0,0,8.41,1.41,18,18,0,0,0,3.11.08,2.91,2.91,0,0,0,2-.65c1.26-1.39,3.53-1.55,5.35-1.6a189.92,189.92,0,0,1,19.45.47,189.27,189.27,0,0,0-19.45-1.16c-1.86-.05-4.28.07-6,1.65-.22.28-.77.25-1.38.32a17.36,17.36,0,0,1-2.93-.17,65.81,65.81,0,0,1-8.2-1.69c-2.64-.68-5.42-1.49-8.18-2.5a30.54,30.54,0,0,1-2.91-1.18,4.69,4.69,0,0,1-1.35-.79c-4.38-4.47-5.51-12.22-11.08-18.1-3.55-3.65-8.1-6.15-11.08-9.82-1.6-1.92-3-4.2-4.65-6.48-1.5-2.14-3.32-4.69-6.25-6.31-4.81-2.5-9-6.22-13.07-10.4-1.47-1.17-1.3-3.89-1.43-6.82a18,18,0,0,0-.87-7.62,24.92,24.92,0,0,1,2.89.68c3.75.82,6.24-.36,6.58-.05,1.5.34,3.55.92,5.58,1.26a11.5,11.5,0,0,0,7.45-.57l.54-.3a591.15,591.15,0,0,0,75,2c10-.33,18.9.28,26.25-.24,8.33-.53,13.58-2,17.49-4.15a16.06,16.06,0,0,0,4.88-3.76s-6.05,6.16-22.43,6.32c-7.24,0-15.93-1.16-26.19-1.5-12.86-.43-28.4-1.29-45.54-3.1a12.11,12.11,0,0,0,1.26-.94c3.41-3.69,4.85-8.11,6.47-12,1.63-3.53,3.61-7,6.78-8,1.64-.72,4-.16,6.45.11s5.22.79,8-.49a5,5,0,0,0,1-1.41c3.06-1.42,7.44-1.17,11-3.51.69-.61,2.07-.5,3.5-.62,2.13-.08,4.33,0,6.43.1,2.37.09,4.55.2,6.82.19a15.44,15.44,0,0,0,5.17-.58c5-1.8,9.24-5.77,12.09-8.25a127.41,127.41,0,0,0,10.63-10.14,126.91,126.91,0,0,1-11.05,9.64c-3,2.34-7.39,6.09-12.08,7.51a14.53,14.53,0,0,1-4.74.3c-2.21-.09-4.36-.29-6.73-.49-2.08-.18-4.32-.38-6.57-.39a8.11,8.11,0,0,0-4.74.82c-2.78,1.87-7.17,1.15-11.45,3.12a5.57,5.57,0,0,0-1,1.3c-1.5.56-3.52,0-5.76-.26-2.29-.48-5.06-1.12-8.06-.3-4.64,1.63-7.59,5.7-9.37,9.66-2,4.07-3.35,8-6,10.43-1.17,1.66-4.49.83-7.69.49-3.31-.7-6.51-2-10.73-2.19a14,14,0,0,0-6.81,2.32c-10.76-1.7-21.87-3.82-33.16-6.47-2.64-.52-5.3-2.67-8.53-5-2.65-2.29-5.12-4.29-6.2-6.34.05,0,0-.22-.1-.68-.09-.76-.16-1.61-.26-2.55s-.19-1.83-.39-3c1.35.58.29-1.46-3.79-5.64-2.85-1.52-5.62-2.68-8.21-3.78a160.82,160.82,0,0,1,18.84-8.55,25.22,25.22,0,0,0,8.29-5.45c3.09-2.62,6-5.32,8.77-7.8,6.14-5.27,10.87-10.37,16.56-12.31,5.34-2.08,11.95-2.49,18.5-3.2,3.4-.35,6.73-.64,10.19-1.09,1-.11,2-.25,3.1-.43,1.24,1.23,3.89,2,6.93,1.74l1.27-.13c3.59-.37,8.39-1,12-1.35a113.1,113.1,0,0,1,11.39-.73c2.55.16,5.06-.1,6.36.86,1.94,1,3.46,3.81,6.15,6.32,4.83,4.4,10.9,6.34,16.55,7.94a24.55,24.55,0,0,0,8.83.43c4.16-.27,8.31-.83,11.9-1.34,12.68-1.81,21.6-2.88,21.6-2.88s-9.14.4-21.77,1.24c-3.61.24-7.75.49-11.8.46-2.72-.05-5.52,0-7.76-.9-5.45-2.1-10.94-4.22-14.4-8.1-1.81-2-3.34-5.08-6.45-7.44a16.91,16.91,0,0,0-9-2.3A114.21,114.21,0,0,0,638.9,273l-2.9.12c3.79-1.77,7.45-3.65,10.94-5.58,7.49-4.09,14.41-8.38,20-14.3a23.62,23.62,0,0,0,4.19-7.64c1-2.18,1.68-4.11,2.85-5.1h.25c.47.46,1.83.42,3.63-.64,3.26-3.69,3.79-8.42,4.27-11.93.78-4.64.88-8,2-11.81,2.22-7.48,5.26-13.83,7.24-19.4,4.72-13.33,2.83-21.55,2.83-21.55s1.33,8.38-4.11,21.05c-2.29,5.37-5.7,11.45-8.5,19-1.48,4.08-1.85,7.65-2.85,12-.85,3.29-1.42,7.06-3.3,9.12h0c-.38-.38-1.59-.55-3.47.17a15.84,15.84,0,0,0-5.22,7c-1.24,2.35-2.13,4.72-3.56,5.88-5.25,5-11.83,8.37-19.38,12-1.51.72-3.06,1.42-4.62,2.1a18.6,18.6,0,0,0,2.09-3.23,7.32,7.32,0,0,0-.29-5.84c-.63-2.45-1.37-4.82-2-7.18a51.36,51.36,0,0,1-1.6-7.61c-.16-2.09-.33-4.05.4-5.47,1.07-2.38,3.07-4.52,5-6.83a23.23,23.23,0,0,0,5-7.89c.45-2-.32-3.15-.09-3.47.57-2.36,3.81-4.21,4.92-7.52,3.42-11.21,5.37-17.76,6.44-25.44a55.51,55.51,0,0,0,.64-10.41,55.53,55.53,0,0,1-1.2,10.31c-1.5,7.62-3.76,13.84-7.77,24.91-.75,2.29-4,3.79-5.39,7.37-.49,1.86.2,3.16-.09,3.4-.85,2.42-2.77,4.43-4.8,6.64a35.14,35.14,0,0,0-5.87,7.3A13.86,13.86,0,0,0,633.4,240a55,55,0,0,0,1.28,8.32c.53,2.5,1.14,4.9,1.61,7.22.11,1.83.82,2.83.47,2.5a19.55,19.55,0,0,1-2.3,3c-1.35,1.56-2.77,3.06-4.18,4.49-.9.92-1.78,1.78-2.66,2.61-2,.69-4,1.34-6,1.94a31.45,31.45,0,0,1-6.36.83c-.85-.09-1.72-.16-2.6-.19a88.21,88.21,0,0,0-12.23.78l-2.15.11c1.86-1.75,3.69-3.53,5.48-5.39,3-3.68,2.5-7.32,3.45-8.6.93-1.56,4.18-3.18,5.81-7.13a20.75,20.75,0,0,0-.16-12.6c-1.24-3.71-3.07-6.87-4.46-9.95a21.26,21.26,0,0,1-2.16-9.94c.26-4.87,2.85-9.52,5.72-13.56,5.52-7.67,14.07-15.39,19.75-21.29,4.27-4.45,6.59-10.48,8.42-15.12a84.41,84.41,0,0,0,5-16.27c1-5.47,3.25-9.58,4-12.51a15,15,0,0,0,.57-4.57,14.94,14.94,0,0,1-.73,4.53c-.82,2.87-3.22,6.82-4.45,12.42A83.21,83.21,0,0,1,639,167.54c-2,4.56-4.5,10.38-8.59,14.28-5.82,5.61-14.68,13-20.77,20.85-3.23,4.1-6.22,9.16-6.87,15a24.91,24.91,0,0,0,2.06,11.76c1.37,3.4,3.05,6.53,4,9.71a16,16,0,0,1-.2,9.83c-.19,1.52-3.23,2.55-5.53,5.84-2.3,3.6-1.81,7.1-3,7.61-3.23,3.11-6.66,6.06-10.18,9.08-.49.43-1,.84-1.48,1.26-1.45.29-2.9.61-4.35,1A44.75,44.75,0,0,0,573.41,279a29.63,29.63,0,0,0-9.85.66c-.12-.35-.26-.69-.41-1-1-2.27-2.07-4.12-2.85-5.81-.44-1.4-1-2.36-.7-2.62.7-2.49,2.63-5.28,3.81-9a54.74,54.74,0,0,0,2-14.83,70.26,70.26,0,0,0-.95-14.5,9.33,9.33,0,0,0,1.09-.63c1.45-.86,2.8-1.77,4.09-2.68,3.43-2.42,6.69-5,9.87-7.59s6.3-5.26,9.31-8c1.13-1,2.25-2.09,3.34-3.23a12.82,12.82,0,0,0,2.07-2.5c2.56-4.52,5.21-8.65,7.77-13.16,3.18-5.68,3.21-11.66,6-15.48,2-2.78,4.51-5.21,6.79-7.86s5-5.34,5.95-9.06c1.69-7.72.31-16.61-.24-22.2-1.35-14.27,2.39-21.83,2.39-21.83s-4.22,7.37-3.52,21.91c.26,5.65,1.18,14.55-.81,21.58-.73,2.89-3.27,5-5.81,7.75-2.2,2.3-5.1,4.86-7.38,7.74-3.67,4.83-4.19,11.12-6.94,15.32s-5.72,8.49-8.43,12.77a10.84,10.84,0,0,1-1.41,1.45c-.75.71-1.54,1.39-2.36,2.08.22-1,.42-2,.6-3,.53-2.76,1-5.53,1.47-8.28a30.29,30.29,0,0,1,1.13-5.17,42.48,42.48,0,0,0,1.63-6.38c.23-1.06.45-2.11.68-3.14.2-.71.21-1.17.3-1.29,2.55-5,5.9-10.91,4.44-17.34-.9-3.17-2.78-5.61-4-7.91-1.14-2.52-2.11-5.19-1-7.11a73.54,73.54,0,0,0,3.87-8.91,16.29,16.29,0,0,0,.45-10.36c-1.71-4.85-3.62-9.34-5-13.72a46.36,46.36,0,0,1-1.8-7.91c-.23-2.18-.34-4.21.49-5.91,1.33-2.84,4.17-5.1,6.22-6.89,2.68-2.28,4.7-3.86,5.53-6.46a11.28,11.28,0,0,0-.72-8.64,11.1,11.1,0,0,1,.42,8.54c-.86,2.48-2.87,3.84-5.63,6.08-2.11,1.69-5.08,3.89-6.69,6.93a11.89,11.89,0,0,0-.82,6.47,47.27,47.27,0,0,0,1.56,8.2c1.2,4.52,2.95,9.13,4.46,14,.91,2.75.29,5.88-.78,8.94a71.44,71.44,0,0,1-4.06,8.46c-1.51,3.26-.68,6.85.73,9.66,1.26,2.77,3,5.06,3.45,7.41,1.3,4.6-2.16,9.47-4.73,14.75a8.65,8.65,0,0,0-.67,2.11c-.27,1.06-.53,2.11-.8,3.14a39.87,39.87,0,0,1-1.65,5.71,31.75,31.75,0,0,0-1.56,5.91c-.6,2.78-1.15,5.51-1.75,8.17a61.76,61.76,0,0,1-2.05,7.46,12.73,12.73,0,0,0-.9,2.2l-.89.67c-.62.13-1.57.13-2.73.29a9,9,0,0,0-5.55,2.2,67.78,67.78,0,0,1-5.57,4.67c-.53.41-1,.8-1.55,1.17-.53-3.27-1-6.5-1.32-9.73-.66-6.64-1-12.56.25-18.26a90.1,90.1,0,0,1,5.92-18.61c.67-1.51,2.23-2.8,3.47-4.06a12.59,12.59,0,0,0,3.58-5c3.26-10.79,1.17-18,1.17-18s1.7,7.37-2.07,17.68c-.6,1.69-2,3-3.55,4.43a16.93,16.93,0,0,0-4,4.29,90.57,90.57,0,0,0-7.05,18.67c-1.66,6.08-1.67,12.42-1.3,19.17.2,4,.58,8,1.06,12-.35.19-.7.38-1,.54-.09.26-1,0-2.38-.06a9.57,9.57,0,0,0-5.71.51l-.16.08c-4.68,0-9.66,0-14.79,1.48a16.16,16.16,0,0,0-4.28,2.32c-1.59,1.07-3.09,2.16-4.51,3.17-2.18,1.48-4,2.91-5.6,3.8a32.09,32.09,0,0,0-3.75,1.33l-2.76.82c1.2-1.61,2.4-3.21,3.57-4.8,3.6-4.87,7-9.54,10.09-14.48,2.28-3.49,4.67-7.29,5.77-11.9,1.16-5.78,4.72-11.58,5.86-18.1.91-6-1.19-10.8-.49-14.68,1.07-7.07,5.69-14.13,8.81-19.22,4.5-7.35,6.16-18.14,6.93-21.86,1.08-5.22,1.9-7.91,1.9-7.91s-1,2.63-2.45,7.77c-1,3.69-3.46,14.35-8.17,20.81-3.48,4.82-8.7,11.7-10.63,19.68-1.12,5.2.61,10.46-.5,14.49-1.21,5.28-5,10.45-7.1,17.56-.67,2.51-2.26,4.83-4.11,7.41,0-.14-.06-.26-.12-.42a24.92,24.92,0,0,0-6.17-6.8c-1.06-1-2.12-1.89-3.07-2.83-.69-.78-1.28-1.2-1.32-1.48-1.71-4-3.93-7.5-5.52-11.12-1.53-3.8-3-7.67-1.89-11,1.86-6.32,8.11-11.88,9.29-19.26a157.71,157.71,0,0,0,1.67-26c-.13-5.26-1.41-9.62-.91-13.14a84.21,84.21,0,0,0,.91-9.78,84.4,84.4,0,0,1-1.39,9.7c-.69,3.61.37,8.22.24,13.22A155.6,155.6,0,0,1,512.33,161c-1.08,6.2-7.43,11-10.19,18.55-1.53,4.72-.25,9.6,1.4,13.61s3.62,7.72,4.95,11.31a9.52,9.52,0,0,0,2.19,3.09c1,1.12,2.11,2.16,3.09,3.14,1.89,2,3.65,3.42,4.52,5.05a.06.06,0,0,0,0,0c-.06.44-.18,1-.32,1.52-.38,1.58-.89,3.17-1.41,4.74-.27.79-.54,1.56-.81,2.32-1.35,1.63-2.72,3.27-4.16,5-.28.19-.58.4-.9.66a16.29,16.29,0,0,0-1.29,1.91q-2.87,3.33-5.82,6.8a17.91,17.91,0,0,0-.69-8.59,23.5,23.5,0,0,0-5.07-8c-1.92-2.08-3.9-3.82-5.63-5.52-1.39-1.51-2.64-2.61-2.91-3.67a77.53,77.53,0,0,0-4.46-10,4.94,4.94,0,0,0,.44-1.54,38.58,38.58,0,0,1,2.61-5.3c2-3.45,4.81-7.37,5.58-12.46,1.35-13-5-26.17-7.4-36.37a29.53,29.53,0,0,1,.75-15c1.39-4.61,3.83-9.37,5.71-13.38,2.18-4.9.19-10.26-1.55-13.87-2.17-4.66-4.73-8.27-5.51-11.74A37,37,0,0,1,484.37,82s-.72,4.22.53,11.4c.83,4.67,2.67,6.57,5,12.12,1.44,3.63,3.1,8.78,1,12.52s-4.77,8.56-6.52,13.4A32.6,32.6,0,0,0,482.68,148c1.09,6.34,3.45,13.45,4.86,20.39a24.24,24.24,0,0,1-1.68-4.09c-1.38-4.66-5.18-7.68-8.65-9.9s-6.85-3.87-9.51-6.34a1.15,1.15,0,0,0,0-.34,2.62,2.62,0,0,0-.08-1.9c-1.21-2.31-3.27-3.39-3.44-4.84-1.24-5.67-.81-11.63-2-17.13-1-4.42-3.92-7.94-6.76-10.58-3.23-3-6.57-5.33-9.21-7.88-1.27-1.08-.58-3.3.14-4.79,1.05-2,2.26-3.17,2.65-5.21a13.47,13.47,0,0,0-.81-7.34C447,85,446.49,83.3,446.49,83.3s.42,1.74,1.52,4.78a13.16,13.16,0,0,1,.57,7.21c-.35,1.67-1.73,3.13-2.78,5-.88,1.52-1.65,3.94-.16,5.62,2.61,2.69,5.9,5.15,8.94,8.18,2.66,2.67,5.35,6.08,6,10,1,5.25.33,11.11,1.44,17.25.63,2.53,2.65,3.94,3.38,5.36a1.14,1.14,0,0,0-.11.59c-.24.16-.31,1,.36,2.14,3,3.08,6.65,4.88,9.93,7.21s6.51,5,7.14,8.37c.67,2.75,2,5,2.76,7.22.47,2.27,1.45,4.54.36,4.85-1.09,1.82-1,3.18-.63,3.54a2.39,2.39,0,0,0,.17,1c-1.05,2-3.14,3.88-4.65,6.71a16.24,16.24,0,0,0-1.18,3.87c-.48,2-.89,4-1.25,5.92s-.7,3.92-.92,5.93c-.08.73-.15,1.51-.16,2.35a4.07,4.07,0,0,0,.39,2.22c1.19,2.47,2.59,4.76,3.82,6.92q1.15,2,2.32,4c.27.45.54.92.83,1.39,0,0,.2.41.75,1,3.24,3.47,7.2,4.52,7.23,6.51a13.33,13.33,0,0,0,.66,5c1.09,2.1,2.25,2.88,2.08,3.09.1.08,0,.38,0,.83s-.22.83-.36,1.24a39.35,39.35,0,0,0-1.19,5.13,7.22,7.22,0,0,0-.42,1.43,25.07,25.07,0,0,0-2.44,1.3,18.51,18.51,0,0,0-2.34,2.94c-1.08,1.47-2.13,2.93-3.15,4.35s-2,2.81-3,4.21l-1,1.43c-.16.3-.33.61-.5.94a4.1,4.1,0,0,0-.22.41c-1.17,4.09-.94,6.91-1.72,7.71v0a18.11,18.11,0,0,0-3.9,2.82c0,.05-.09.12-.14.18l-.34.44-1,1.83c-.39.89-.77,1.77-1.12,2.61-.62,1.41-1.28,2.84-1.92,4.63-.79,3.3-4.82,7-7.47,10.63-3.41-10.22-10.52-18.25-18.29-25.34-3.25-3.1-6.66-6.07-9.86-9.11a9.21,9.21,0,0,1,.19-1.6,32.71,32.71,0,0,1,1.84-6.34,5.16,5.16,0,0,1,1.77-2.27c2.8-1.87,6.61-2.61,10.06-4.43a7.16,7.16,0,0,0,3-3.83,32.7,32.7,0,0,0,1.57-5.31c.88-3.52.82-6.66,2.82-8.65.56-.69,1.74-1,2.85-1.4a6.36,6.36,0,0,0,3.39-2.27c1.14-1.94.63-4.19.13-5.84-.55-2.06-1.09-3.75-.35-5.24.93-2,1.77-2.86,2.18-4.68a8,8,0,0,0-.4-3.55c-.5-2.1.23-2.8.23-2.8s-.82.67-.38,2.83a8,8,0,0,1,.22,3.44c-.39,1.39-1.48,2.74-2.4,4.48s-.49,3.69,0,5.74c.34,1.66.75,3.71-.24,4.95a5.24,5.24,0,0,1-2.84,1.61,8.45,8.45,0,0,0-3.52,1.6c-2.52,2.53-2.89,6.05-3.73,9.26a31,31,0,0,1-1.7,4.86c-.6,1.11-1.21,2.2-2,2.48-3.07,1.44-6.9,2-10.55,4a8.42,8.42,0,0,0-3.16,3.51,32.6,32.6,0,0,0-2.23,6.2,42.85,42.85,0,0,1-7.39-9.91c-.23-.14-.2-.73,0-1.11a16.7,16.7,0,0,1,2.58-3.26,19.39,19.39,0,0,0,3.62-5.19,10.24,10.24,0,0,0,0-7.84c-1.78-3.92-4.59-6.62-7-8.93a34.64,34.64,0,0,1-2.51-2.9l.51-.11a27,27,0,0,0,8.41-4.2,86.72,86.72,0,0,0,9.71-7.56,75,75,0,0,0,8.48-8.68c2-2.38,3.79-4.76,4.48-7.65,1.25-5.53.81-11.59,2.06-17.11.84-3.69,2.73-6.39,3.33-8.34a8.6,8.6,0,0,0,.47-3.07,8.57,8.57,0,0,1-.6,3c-.68,1.9-2.67,4.43-3.71,8.25-1.23,4.5-1,10.54-2.8,16.92-.67,2.53-2.46,4.57-4.49,6.9a75.05,75.05,0,0,1-8.63,8.1,84.23,84.23,0,0,1-9.74,6.92c-2.48,1.46-5,3-7.65,3.47-.5.1-1,.18-1.5.26a7.58,7.58,0,0,1-.46-1.61c-.7-3.51-.44-7.38-.14-11.28s.68-7.7,1.94-11c.84-2.3,2.31-4.59,3.46-7.22a15.89,15.89,0,0,0,1.16-9.23c-2.2-11.5-7.59-20.84-9.6-29.9-1.18-5.13-.45-10.91.07-15.49.75-6.52,1.1-11.2.05-16-1.95-8.74-2.74-13.71-2.74-13.71s.58,5.12,2.12,13.84c.84,4.71.27,9.19-.75,15.67-.74,4.55-1.73,10.41-.75,16.07,1.7,9.51,6.71,19.29,8.22,30.06a12.1,12.1,0,0,1-1.22,7.07c-1.1,2.23-2.68,4.49-3.88,7.28a44.41,44.41,0,0,0-2.73,12.08,46.68,46.68,0,0,0-.34,12.62c.09.47.19.92.31,1.37-4,.29-8.17.27-12.68.37-6.33.11-13.32.44-20,2.9-3.9,1.64-6.15,4.61-8.38,5.56-1,.5-2.42.81-4.05,1.43-.22.05-.47.13-.71.21a7.16,7.16,0,0,0-.51-2.9c0-.65-.09-1-.2-1.1a57.72,57.72,0,0,0,3.54-11.76c.1-.2.2-.38.3-.6a11.88,11.88,0,0,0,.28-2.72c.15-.95.29-1.9.41-2.84.6-2,1.78-5.85,3.29-12.76a36.09,36.09,0,0,0,1.19-10.29c1.65-6.08.32-11.66-.83-15.83-.88-5.55-2.56-10-.79-13.09,3.42-7.61,11-14.31,14-23.42,9-30.22-2.22-57.37-8.59-69.16-1.33-2.33-.55-6-.33-8,.74-6.07-1.76-7.93-1.76-7.93ZM242.28,125.72a.4.4,0,0,1,.31.26A1.48,1.48,0,0,1,242.28,125.72Zm-27.53,17.35a5,5,0,0,1,2.08.38c3.31,1.32,5.46,4.76,6.62,8.52,1,3.42,1.64,7.69,4.67,11a31.5,31.5,0,0,0,6.88,4.93,41.12,41.12,0,0,0,7.43,3.8,12.5,12.5,0,0,0,5.21.24c1.48,0,2.6-.2,2.82.24,4.2,3,9,3.3,10.07,5.84,1.14,1.42.74,4.06.64,6.84-.33,2.85-.9,6-.15,9.67.66,2.79,1.65,5,2,7-.09,2.15-.18,4.36-.27,6.61-.12.8-.23,1.61-.3,2.42a21.19,21.19,0,0,0-.12,8.91c-.44,11.47-.39,24.3,2.68,37-.79,0-1.59,0-2.39.09-4.78.19-8.71,1.63-10.37.32-10.95-4.87-22.53-3.2-31.65-6-.44.53-1.39-2-4.82-4.25-.3-.22-.61-.41-.91-.61a72.87,72.87,0,0,1-4-9.3,40.38,40.38,0,0,0-4.56-9.1,8.2,8.2,0,0,1,.06-2.27c.29-2.84,1.89-5.81,3.4-9.1,1.88-4.46,1.25-8.82.58-12.28-.58-4-1.55-7.53-1.61-10.89-.11-1.16.48-2.72.83-4.65a10.37,10.37,0,0,0-.5-6.82c-2.19-3.69-5.61-4.78-6.79-6.59-2-2.72-2.69-6.86-5.09-10.38-5.17-7.42-10-11.85-12.49-18.9a7,7,0,0,1-.44-1.79c.78.51,1.59,1,2.4,1.5a25.63,25.63,0,0,0,3.62,1.87,3.2,3.2,0,0,0,2.66.29,29.85,29.85,0,0,1,4.76-1.61c2.34-.65,4.76-1.23,7.27-1.72a62.41,62.41,0,0,1,7.29-1.05c.85,0,1.69-.11,2.46-.1Zm272.52,42.82a52.22,52.22,0,0,1-3.15,5.13,3.64,3.64,0,0,1,.28-.81,31.23,31.23,0,0,1,2.87-4.32Zm-72,30a23.68,23.68,0,0,0,4.13,5.79c2.31,2.62,4.63,4.85,5.4,7.3a3.73,3.73,0,0,1-.11,3,14,14,0,0,1-2.65,3.31,21.83,21.83,0,0,0-3.73,4.49,8.34,8.34,0,0,0-.28,7.5c3.37,6.9,8.37,12.56,13.41,17.66-.05.72.49,1.91,2.05,3.1a26.52,26.52,0,0,1,6,4.9c.24.24.45.49.68.73l1,1.07a20.35,20.35,0,0,1,3.58,5.14,11.66,11.66,0,0,0,4.16,4.2c2.89,4.14,4.95,8.35,5.59,12.83a34.45,34.45,0,0,1,.32,5.33,16.69,16.69,0,0,0,0,2.58c-.25.5-.49,1-.68,1.43l-.43.94c-1.64,1.66-4.82,3.92-7.32,8.22-3.53,6.56-3.58,11.82-5.71,12.95,0,.1-1,.47-2.66,1.6a12.17,12.17,0,0,0-1.41.86,43.09,43.09,0,0,0-3.16-3.33l-.35-.78a9.24,9.24,0,0,0-3.66-3.5c-1.17-.79-2.37-1.49-3.58-2.17a16.45,16.45,0,0,0-2.73-2.1c-2.19-1-4.38-1.82-6.51-2.61l-1.64-.79a8.8,8.8,0,0,0-2.58-.83c-.42-.17-.85-.34-1.26-.52a6.34,6.34,0,0,0-.4-.94c-.93-1.33-1.77-1.84-2.16-1.85a24.3,24.3,0,0,0-2.47-1.07c-1.08-.42-2.18-.79-3.27-1.15a11.89,11.89,0,0,1-3.93-5.81c-2.3-7.39-1.62-16-1.14-23.67a45.82,45.82,0,0,0-.64-12.15,55.83,55.83,0,0,0-6.1-15.64c-1.17-2-1.45-5.57-1.8-7.33-1-5.24-3.64-6.16-3.64-6.16s2.39,1.17,3,6.25c.19,1.72.16,5.27,1.28,7.81A53.8,53.8,0,0,1,394.41,268a42.78,42.78,0,0,1-.37,11.34c-1.16,7.57-2.57,16.48-.78,25.44a19.71,19.71,0,0,0,1.66,4.38l-.7.16c-2.26.28-4,1.21-4.85.57-.33.25-.58-1.87-2.92-3.34A98.51,98.51,0,0,0,373.53,301c-4.07-1.19-8.22-.39-11.7.23-4.08.65-7.53,1.34-10.83.31-1.07-.24-1.82-1.48-2.61-2.55a5.82,5.82,0,0,0-1.2-1.15c-.69-.55-1.41-1.06-2.09-1.53-2.05-1.42-4.08-2.68-5.81-3.72-2.46-1.47-4.31-2.49-6-3.33-.63-.32-1.12-.54-1.58-.74,3-5.43,6.5-10.8,10.06-16.16,1.64-.87,3.42-1.74,5.28-2.76,4.16-2,8.83-5,11.59-10.21.18-.57,2.15-2.07,3.39-5.6,2.17-9.14,2.06-17.94,6.35-24.39,0-.43,1.14-.72,2.55-1.48,1.18-.5,2.72-.94,4.39-1.79,3.73-2,5.63-5,7.82-5.78,5.58-2.44,12.12-3,18.38-3.41,4.74-.29,9.26-.47,13.74-1.05ZM560,233.22a67.85,67.85,0,0,1,.1,12.92,49.74,49.74,0,0,1-2.46,13.18c-.87,2.48-2.92,5.12-4.29,8.84a10.46,10.46,0,0,0,.64,7.35c.89,2.23,1.89,4.08,2.47,5.76a9.68,9.68,0,0,1,.65,4.65q-1.75,2.06-3.45,4.1l-2.83,3.38c-2.62,1.27-6.16,2.29-9.76,4.57a51.71,51.71,0,0,0-4.86,3.65c-7,2.81-13.79,6-20.58,9.17a17.45,17.45,0,0,0-6.79,1.42,30,30,0,0,0-6.84,3.25c-1.52-.28-3.36-.65-5.6-.85a37.05,37.05,0,0,0-19-.52q-4.65,1.41-9.23,3.08c9.12-16.72,18.3-33.51,27.85-50.79.39-.39.78-.78,1.21-1.26a44,44,0,0,1,4.2-7.06c1.88-2.4,3.51-4.69,5.34-5.53,4.25-2.31,9.07-3.77,14.62-5.79a34,34,0,0,0,9.83-6.33c1.42-1.13,2.8-2.25,4.15-3.25l.26-.18a9.63,9.63,0,0,0,4.6-.46c1.79-1,4.54-1.38,7.86-2.4a91.59,91.59,0,0,0,11.88-.9ZM331.67,288.64c.44.22.92.47,1.54.82,1.63.92,3.4,2,5.78,3.62,1.67,1.12,3.63,2.47,5.58,4,.65.5,1.32,1,2,1.59a5.28,5.28,0,0,1,.94,1,6.85,6.85,0,0,0,3.12,3.19c3.64,1.28,7.44.82,11.51.31,3.54-.39,7.47-1,10.65.23a98,98,0,0,1,12.29,6c.36-.12.42,1.93,2.82,3.54,2.73,1.15,5.3.45,7,0,.82-.1,1.58-.22,2.32-.32a27,27,0,0,0,7.64,6.5c5,3,10.13,5,14.34,7.3a8.41,8.41,0,0,0,2.6,3.06,42.19,42.19,0,0,1,7.76,8.27,43.4,43.4,0,0,1-.33,4.85c-1.15,3.22-2.21,6.35-3,8.74-1.25,3.76-2,6.3-2.63,8.2-1.13,1.75-2.23,3.48-3.36,5.22-6.05,10.63-6.85,21.94-6,31.21.29,9.51,1.59,17.59-.21,23.37-.8,3.57-3.1,8.19-5,14.51-.57.21-2.6,2.46-5,7.46-.67,1.79-1.22,3.51-1.68,5.17l-26-48.27a35.48,35.48,0,0,0-9.45-10.81c-2.67-2.74-4.47-3.57-4.05-3.51-2.52-5-5.54-11.84-11-18.61-.43-1.13-.92-2.29-1.49-3.49a1.51,1.51,0,0,0-.11-.22c-.08-1.71-1.47-5.48-4.91-10.79l-1.63-1.58a50.47,50.47,0,0,0-4.1-8.81c-1.11-1.74-2.27-3.46-3.44-5.16-.4-.7-.83-1.39-1.3-2.06-.37-.48-.77-1-1.16-1.44-2.82-3.95-5.77-7.82-8.78-11.64a28.79,28.79,0,0,1,.07-15.66,75.68,75.68,0,0,1,6.72-15.75Z" />
	</g>
	<path fill="#02505e"
		d="M113.89,745.78c.5,0,1,0,1.55-.06,1.84-.13,2.19-.86,2.91-.86s6.55,1.73,12.2,1.83,9.57-1.42,10-2.29,0-2.29-.72-2.29a3.13,3.13,0,0,0-2.08-4c-3-1-7.54-2.1-8.05-2.3a7,7,0,0,0-2.28-1.46,59.56,59.56,0,0,0-6.4-2.06,4.7,4.7,0,0,1-.62-2.67c.3-2.63,5.3-22.37,5.82-28.1a1.23,1.23,0,0,0,1.13-.83,23.78,23.78,0,0,0,1.25-6.05,2.27,2.27,0,0,0-.69-1.66s2.55-7.31,3.55-10.82a14.65,14.65,0,0,0,.65-5.73s3-1.07,3.13-2.36c.06-.44.71-8.72.66-18.61,0-7.18.58-15.2.51-21.7a61.47,61.47,0,0,0-1.54-12.63c-.3-3-3.08-6.43-3.08-6.43a4.29,4.29,0,0,0,.26-1.34,24,24,0,0,0-.35-3.6,2.24,2.24,0,0,0-.69-1.17,4.1,4.1,0,0,0,1.46-2.1c14.25-8.92,34.57-21.35,48.34-29.74,1.46,1.48,4.62,4.73,8.18,8.8,2.63,3,3.44,7.12,5.95,10.62s6.88,6.63,8.18,9.9c1.17,2.94.77,5.48,1.54,7.63,2.44,6.84,4.44,9.78,4.7,9.4.15-.22.2-8.73.36-19.81.1-6.65-.68-14.22-1.24-21.48-.6-7.81-.61-15.25-2.37-20.81l.83-.55c1-.62.74-1.38.32-2.08s-1.07-1.36-1.69-1l-1.07.64c-.65-.7-1.51-1.3-2.31-.84s-.83,1.7-.59,2.59c-4.31,2.6-11.62,7-19.82,12a1.68,1.68,0,0,0-1.75-1.1c2.62-5.66,10.58-22.23,11-23s1.39-1.15,1.67-2.08-1.2-1.48-2.44-.69-13.54,28.48-14.61,29.55A2.16,2.16,0,0,0,175,576c-11.73,7.16-24.07,14.73-31.52,19.44-2.57,1.63-6.83,4.31-12.08,7.6a1.43,1.43,0,0,1-.05-.32,85.14,85.14,0,0,0-.61-11.19c-.27-1.7-.62-5.57-1-9.82A75,75,0,0,0,131,564.2c3.85-1.45,11.35-3.53,12-4.14.91-.82.57-3.38.57-3.38s4.51-2,5.94-5,2.3-9.24,2.13-14.1-.35-8.72-.26-9.59,1.21-2.64,1.6-4.94a15.54,15.54,0,0,0-.87-7.16c-.65-1.52-1.39-2.13-2-2.09a1.1,1.1,0,0,0-.82.53s-.65-.79-1.31-.53a1.75,1.75,0,0,0-.82.53,2.42,2.42,0,0,0-1.3-.58c-.7,0-1.35.84-1.35.84a2.39,2.39,0,0,0-1.56-.44c-.78.13-1,.61-1.26,1.26a3.36,3.36,0,0,0-.26,1.13,2.41,2.41,0,0,0-1.43.35c-.43.39-.13,1.21-.52,1.73s-.82,1-.65,2.91a7.59,7.59,0,0,0,1.34,4.16c.79,1.05,2.26,1.74,2.74,2.91s.08,4.6-1.17,8.42-2.56,8.37-2.56,8.37l-1.78.78a1.15,1.15,0,0,0-1,0,6.82,6.82,0,0,1-2,.66c-.95.17-2.21.17-3,.39a26.34,26.34,0,0,1-4.51-.26,2,2,0,0,0-1.13-.79l-1.26-.17s-.43-.82-.61-1.3.18-.65-.34-1.61-.83-1.47-1.09-1.47-.82,0-.82,0l-1.74-1.86s-.13-.92.22-1,3.64,1.13,5.73.34,1.12-3.73,2-4.12,1.78-.69,1.35-2c0,0,1.26-.34,1.3-1a10,10,0,0,0-.43-2.17s1,0,1.74.09,2.43-.09,1.73-2-2.47-4-2.47-5.17,1-1.17,1-3.47a12,12,0,0,0-.32-2.4c15.87-4.19,15.62-10.4,12.06-10.9-2.59-.37-8.48.42-14.21,1.41-2.16-3.9-5-8.84-6-9.59-1.67-1.26-.77-.87-4.33-1.29-4.54-.52-4-2.4-7.71-1.46-3.18.79-2.49,2.06-5.31,4.64-2,1.83-3.37.55-3.85,3.93-.19,1.33-.53,6.06-.68,10.26a95.17,95.17,0,0,0-13.23,5.58c-3.14,1.64-.08,6.89,15.19,3.67a22.82,22.82,0,0,1,.75,3.44c.22,2.69-.21,3.43-.21,3.43a20.44,20.44,0,0,0-3-.13,1,1,0,0,0-.18,0,6.25,6.25,0,0,0-2.54-4c-3.12-1.74-4,.18-7,0a83,83,0,0,1-12.12-1.74C76.2,523.28,72.9,526,72.9,526s-1.66-.18-2.21.92A26.66,26.66,0,0,0,67.75,533c-2,5.14,4.23,12.85,11.21,12.49a9.62,9.62,0,0,0-5.12,4.15c-2,3.31-2.79,14.51-3.51,16.34s2,3.86,2,3.86-4.43,17.64.84,26.81A8.84,8.84,0,0,0,72,599.07a10.64,10.64,0,0,0-.61,4.33,2,2,0,0,0,.81,1.61s-1.21,7.15,0,10.47a2.77,2.77,0,0,0,1.45,1.26,12,12,0,0,1-.42,1.64.19.19,0,0,0,.14.24l1.67.3a.17.17,0,0,0,.21-.12c.06-.23.17-.68.27-1.31a43.72,43.72,0,0,0,5.93,1.35c-.07.16-.14.32-.22.48a.18.18,0,0,0,.11.25l1.61.54a.19.19,0,0,0,.23-.1c.07-.16.19-.46.32-.86l1.29.17c1.7,3.13,3.93,6.83,3.93,6.83A7.46,7.46,0,0,0,88,629.4a3.2,3.2,0,0,0,.16.71c-12.47,7.76-22.58,14-24.7,15.14-5.56,3-35.19,20.94-40.3,24.23s-6.71,4-8.35,5.37c-.82.67-.37,1.6.19,2.35s1.22,1.34,2.4.59C20,676.08,23.46,673.37,31,669c5-2.89,35.53-21.33,59.81-36.25-.09.59-.17,1-.24,1.34-.61,2.28.4,3,.4,3.8s.86,9.33.15,12.37S89.39,665,89.24,666.11s2.63,2.59,2.63,2.59a28.56,28.56,0,0,1-1.16,6.74c-.92,2.28-3.45,7.66-5,10.45a1.63,1.63,0,0,0-1.47.4,27.09,27.09,0,0,0-2,4.77c-.15.61.61,1.52.61,1.52s-1.27,2.23-1.37,8.16,2.69,24.14,1.87,28a31.08,31.08,0,0,1-1.2,4.16l-.19.1c-.46.3-1,2.54-1.13,3.15a2.09,2.09,0,0,0,0,1.06s-.76.28-.91,3.07c-.13,2.39,0,2.32,0,2.25A3.67,3.67,0,0,0,79.8,745c.52,1,4.24,2.38,9.06,2,1.83-.14,2.18-.86,2.9-.86s6.52,1.72,12.16,1.82S113.37,746.64,113.89,745.78Zm74.28-173.46,7-4.26c3.9-2.35,5.62-3.46,7.23-4.53C200.42,566.15,196.28,569.88,188.17,572.32ZM102.22,735.76a34.82,34.82,0,0,0-6.1-1.8A25.11,25.11,0,0,1,95,728.63c-.46-4.92,3.85-26.21,4.71-31.34a3,3,0,0,0,1.22-.4c.56-.36,1.92-4.77,1.82-5.33s-.5-1.52-.66-1.52,1.93-2.18,3.91-4.31,2.58-4.05,3.8-6.54c.17-.34.34-.75.52-1.2l.46.25a10.89,10.89,0,0,0,3.14.81s.33,3.88-.58,6.19a54.32,54.32,0,0,0-1.73,5.64,2.24,2.24,0,0,0-1.35.6c-.39.51-1.34,5.69-1.43,6.29s.87,1.2.87,1.2-1.22,2.08-.92,6.66,1,9.14.83,13.62a87.1,87.1,0,0,1-.8,12.23,2.25,2.25,0,0,0-.22.11c-.46.31-1.07,2.55-1.23,3.16a2.12,2.12,0,0,0,0,1.07s-.61.23-.85,2.31c-1-.28-1.75-.49-2-.58A19.59,19.59,0,0,0,102.22,735.76Z" />
	<path fill="#02505e"
		d="M577.85,602.86c.29.1.59.19.91.28a23,23,0,0,0,2.47.48c.91.55,3.14,1.78,3.62,1.37a4.49,4.49,0,0,0,.26,2.28,2.8,2.8,0,0,0,1.66.9s-.1,1.72.65,2.22a4.8,4.8,0,0,0,1.11.45l1,.27a21.16,21.16,0,0,0,2.64.49c1.11.1,5.89,0,5.89,0a39.85,39.85,0,0,1-.5,4.88c-.31,1-1.26.81-1.11,2.72a3.07,3.07,0,0,0,1.51,2.57,3.31,3.31,0,0,0-.55,1c-.21.55.1,4,0,4.58a2,2,0,0,0,.5,1.31c-2.37,1.06-2.07,6.9-2.27,12s-.65,15.21-.35,19.84.05,18.48.91,19.44,5.49,2.42,5.49,2.42,1.15,4.08,1.91,6.54,2.27,6.4,2.27,6.4-1,.35-1,.91a29.48,29.48,0,0,0,.5,5,.88.88,0,0,0,.91.61c.2,7.3,3.22,26.69,3.12,29.86a4.94,4.94,0,0,1-.76,2.42,40.72,40.72,0,0,0-6.48,1.86,19.17,19.17,0,0,0-2.12,1.67c-.47.19-3.36.92-6.15,1.82a2.91,2.91,0,0,0-1.93,3.68c-.71,0-1.09,1.32-.66,2.12s4,2.22,9.29,2.12a53.86,53.86,0,0,0,10.5-1.55c2.77.72,6.26,1.31,8.22.41,2-.38,3.4-1.07,3.7-1.64a3.34,3.34,0,0,0-.06-2.34c0,.07.12.14,0-2.1-.14-2.59-.84-2.84-.84-2.84a2,2,0,0,0,0-1c-.15-.57-.63-2.65-1.06-2.93a1.08,1.08,0,0,0-.24-.11c-.52-5.66,1-21.49,1-21.49s3,10.83,2.77,16.57a23.83,23.83,0,0,1-.8,5.07c-1.64.37-7.44,1.69-8.43,2.34a18.73,18.73,0,0,0-2.26,1.78c-.51.2-3.59,1-6.56,1.93a3.1,3.1,0,0,0-2.06,3.93c-.76,0-1.16,1.4-.71,2.26s4.33,2.36,9.91,2.26,11.35-1.81,12-1.81,1.05.72,2.86.86c4.78.35,8.47-1,9-2a3.64,3.64,0,0,0-.06-2.49c0,.07.12.14,0-2.23-.15-2.77-.91-3-.91-3a2,2,0,0,0,0-1.06c-.15-.6-.66-2.81-1.12-3.11a1.88,1.88,0,0,0-.6-.23,13.2,13.2,0,0,1-.22-2.42c0-3.63,1.68-5.83,2.73-13.48a47.08,47.08,0,0,0-.15-13.9,2.21,2.21,0,0,0,.66-1.46,14.87,14.87,0,0,0-1.36-4.23c-.4-.66-1.74-.61-1.74-.61s-.68-1.81-1.48-3.62.64-5.16.64-5.16,3.42-1.11,3.52-3.23-1-17.72-1.36-19.24,1.51-16.61,2-21.55.8-8.61.3-12.39A8.9,8.9,0,0,0,635,625.7s-.06-2.12-.06-2.77a1,1,0,0,0-.35-.86,2.68,2.68,0,0,0,.91-3.72,9.94,9.94,0,0,1-.3-2.72s8.61-1,10-1.21,2.26-.35,4-4.28,1.11-12.29,1.11-12.29,2.61-1.36,2.36-3.07-2.62-14.61-3.07-17.33-2-5.79-2.92-9a21,21,0,0,0-3.32-6.25,2.12,2.12,0,0,0-.71-1.66c-.75-.55-5.14-2.67-5.14-2.67a1.93,1.93,0,0,0-.15-1.46c-.4-.6-4.43-5.54-4.78-6.09s-.1-1.36-.15-2a1,1,0,0,0-1.16-1,11,11,0,0,1-1.41.1,1.54,1.54,0,0,0-.91-.66,13.52,13.52,0,0,0-2.62.71,11.73,11.73,0,0,1-.75-2.92,23.13,23.13,0,0,1,.11-5.37c14.42,2.09,17-3.07,13.89-4.51A94.36,94.36,0,0,0,627,530c-.45-3.92-1.11-8.18-1.38-9.4-.74-3.22-2.09-2-4.3-3.65-3.13-2.39-2.5-3.62-5.87-4.3-4-.79-3.26,1-8,1.61-3.69.49-2.77.1-4.44,1.34-1,.72-3.47,5.26-5.43,9-5.47-.66-10.94-1.1-13.37-.64-3.51.68-3.45,6.89,12.7,10.27.14,2,.34,3.63.38,4.28a6.09,6.09,0,0,0,2.07,3.68c.7.65.25,1.36.86,4.58s5.74,9,6.39,10.08a2.42,2.42,0,0,0,1.92,1A10,10,0,0,0,607,560c-.25.7.56.95.81,1.46a8,8,0,0,1-.05,2.52s-4.78,3.42-5.24,4a6.06,6.06,0,0,0-1.26,3.12c-.2,2.06-1.71,3.07-2.21,4.73s0,6.1-.15,9.47-.71,9.92-.71,10.42a1.26,1.26,0,0,0,.4.86l-.25,2s-4-.91-5-1c-.59,0-1.67,0-2.5,0a2.61,2.61,0,0,0-1.56-1.45,3.69,3.69,0,0,0-1.58-.29c-1-.9-2.14-1.93-3-2.63a2.46,2.46,0,0,0-1.33-2.09,2.66,2.66,0,0,0-2.25.4l-.2,0a9.66,9.66,0,0,0-2.17-1.1,17.58,17.58,0,0,0-4,0c-.55,0-.8.75-.95,1.41s.6,1.71.6,1.71-1.06.55-1.06,1.36a2.78,2.78,0,0,0,.41,1.41V598c0,.5,1,1.46,1,1.46a1.83,1.83,0,0,0,0,1.71,4.4,4.4,0,0,0,2.14,1.4m58-1.79V600l.9-.23.35,1Z" />
</svg>