<svg xmlns="http://www.w3.org/2000/svg" viewBox="0 0 268.55 270.16"><path fill="#007d94" d="M214.48 23.71C199.25 11.54 173.52 0 142.79 0 113 0 83.76 6 63.53 16.76c-11.9 6.36-33.59 19.37-47.23 43.53-25 44.22-15 90.08-10.45 108.33s14.44 32.14 28.42 47c24.68 26.55 55.5 54.5 99.68 54.5s72.16-19.87 97.7-46.61 36.9-69 36.9-109.82-27.76-68.97-54.07-89.98ZM153.94 250c-32.94 5.28-63.89 4.28-95.62-19.81s-38.64-61-41.89-93.54c-1.91-18.33-1.42-33.69 5.25-49.3s24.55-54 66.6-72.13C111.26 5.27 134 7.76 146 9.68c20.44 3.27 44.66 14.92 66.1 31.2C234.13 57.64 246.32 80 250.63 97c7.44 29.45 12 64.84-10.27 94.18s-53.48 53.51-86.42 58.82Z"/></svg>