<svg xmlns="http://www.w3.org/2000/svg" viewBox="0 0 3500 444.39">
	<path fill="#ffffffcc"
		d="M1144.83 44.62s-7.33 10-18.75 28.69a181.36 181.36 0 0 1 18.75-28.69ZM1185.5 119c-.11-.61-.21-1.16-.32-1.63Zm130.62-60.51c2.34-24.6 4.6-38.74 4.6-38.74a267.69 267.69 0 0 0-4.6 38.76ZM1222 36.57l.32-2c-.15.57-.25 1.24-.32 2Zm115 145.67c6.79-15.24 11.45-23.7 11.45-23.7a138.29 138.29 0 0 0-11.53 23.7Zm158.1-147.56c.2-1.32.31-2 .31-2-.1.57-.21 1.25-.31 2Zm236.67 82.45c-.11-.61-.21-1.15-.32-1.63Zm-388.11-3.6A192.65 192.65 0 0 0 1332.21 84s4.66 10.53 11.45 29.53Zm288.27-55.82c7.88-22.12 13.28-34.39 13.28-34.39a224.6 224.6 0 0 0-13.28 34.39Zm136.3-23 .32-2c-.11.54-.21 1.22-.32 1.97Zm-309.6 82.45c-.1-.61-.21-1.15-.31-1.63Zm-388.1-1.72a193.55 193.55 0 0 0-11.45-29.54s4.66 10.51 11.45 29.51ZM639.23 119c-.11-.61-.21-1.16-.32-1.63Zm-99.84-59.4c7.88-22.12 13.28-34.4 13.28-34.4a226.82 226.82 0 0 0-13.28 34.4Zm-410-23c.2-1.32.31-2 .31-2-.06.54-.17 1.21-.27 1.97ZM366.1 119a53.4 53.4 0 0 0-.32-1.63Zm36.46-82.45.32-2c-.11.59-.22 1.26-.32 2.02Zm1502.5 21.14c7.88-22.12 13.28-34.39 13.28-34.39a226.69 226.69 0 0 0-13.28 34.41Zm-841.27 124.55c6.79-15.24 11.45-23.7 11.45-23.7a137.56 137.56 0 0 0-11.45 23.7ZM812.53 59.6c7.87-22.12 13.27-34.4 13.27-34.4a225.78 225.78 0 0 0-13.27 34.4Zm-546.27 0c7.87-22.12 13.28-34.4 13.28-34.4a224.73 224.73 0 0 0-13.28 34.4ZM93 119c-.1-.61-.21-1.16-.32-1.63Zm855.83-82.43c.2-1.32.31-2 .31-2-.14.57-.21 1.24-.31 2ZM912.36 119c-.1-.61-.21-1.16-.31-1.63 0 .02.11.63.31 1.63ZM675.7 36.57c.2-1.32.31-2 .31-2-.11.57-.21 1.24-.31 2ZM869.83 172.8c1.17-1.36 2.36-2.7 3.56-4 0 0-1.32 1.29-3.56 4Zm1638.81-1.89c1.17-1.36 2.35-2.69 3.56-4a53.41 53.41 0 0 0-3.56 4Zm273.13 0q1.76-2 3.56-4s-1.33 1.29-3.56 4Zm-1092.53 0q1.74-2 3.56-4a53.41 53.41 0 0 0-3.56 4ZM3407 34.68c.2-1.32.31-2 .31-2-.06.57-.17 1.25-.31 2ZM1.12 191.32q3.85 2.06 7.56 4.25a74 74 0 0 0-5.91-6.89C5.67 191 8.42 193.46 11 196c.82-16.21 1.4-26.18 1.4-26.18 0 6.73.4 16.6 1.11 28.65l.26.27q3.76 2.39 7.38 4.91c4.6-19.91 11-38.41 19.72-54.25q-.6-6.66-1.34-13c-8.31-13.63-15-19.39-15-19.39a73.13 73.13 0 0 1 13.62 8.92C28.21 53.92 5.6 13.14 0 3.91v-.4C22.76 32 37.41 68.1 46.32 107.37q3.84 11.35 7.27 23 3.15-3.87 6.59-7.37a107.33 107.33 0 0 0-5.84 9.93Q57 142 59.43 151.27a145.93 145.93 0 0 1 9.35 18.91c2.17 2.34 5.78 6.43 10.39 12.22a139.91 139.91 0 0 1 16.36-14.84s-6.3 5.9-14.15 17.66c4.73 6.11 10.31 13.8 16.3 23.05-1.2-43-2.75-77.78-4.72-89.25 1.3 6.72 6.49 33.75 12.67 69.94 1.24-3 2.48-5.9 3.72-8.76 9-71.86 18.28-132.06 20.08-143.63-2 14.29-3.52 57.65-4.72 111.3 6-11.53 11.56-21.12 16.29-28.73-7.85-14.67-14.14-22-14.14-22a157.64 157.64 0 0 1 16.35 18.5c7.69-12.05 12.65-18.2 12.65-18.2q-6.53 9.14-12.33 18.62a178.25 178.25 0 0 1 18.91 31.86 157.91 157.91 0 0 1 24.13-35.73c-10.91-46.51-24.36-70.6-24.36-70.6 16.43 20.78 27.75 49.87 35.38 83.06a169 169 0 0 1 12.29-18c0-2.46.07-4.72.07-6.75 0 0 .1 2.22.28 6.31a158.45 158.45 0 0 1 13.43-15s-5.79 6.88-13.19 20.6c.33 7.59.79 18.48 1.32 31.76q6.77-4.61 14-8.76a136.48 136.48 0 0 0-13.88 11.39c1 26.17 2.29 61 3.33 97.79 1.43-1 2.89-2 4.4-3a58.15 58.15 0 0 0-4.38 4v.8c1.21-.56 2.45-1.1 3.69-1.64.19-.55.39-1.1.59-1.65a1101.52 1101.52 0 0 1 30-131.35c-5.94-16.28-9.89-25.24-9.89-25.24a185.69 185.69 0 0 1 10 24.91c6-20.39 11.76-37.63 16.59-51.18-5.59 18.43-9.94 39.08-13.29 61 6.2 17.77 13.85 41.79 21.29 70.69 2.57 1.37 5.08 2.79 7.55 4.25a72.13 72.13 0 0 0-5.91-6.89c2.9 2.34 5.65 4.78 8.27 7.29.83-16.21 1.4-26.18 1.4-26.18 0 6.73.41 16.6 1.11 28.65l.26.27c2.51 1.59 5 3.23 7.38 4.91 5.13-22.17 12.48-42.58 22.78-59.53-10.21-19.21-19.34-27.1-19.34-27.1a78.09 78.09 0 0 1 24.34 19.52c.44-.62.88-1.23 1.33-1.84-4.12-23.59-7.05-36.23-7.05-36.23 3.72 10.45 7.17 21.13 10.37 31.95q3.15-3.87 6.58-7.37a106.23 106.23 0 0 0-5.83 9.93q2.65 9.1 5.08 18.33a146 146 0 0 1 9.36 18.91c1.43 1.55 3.5 3.86 6.07 6.93 13.3-86.56-2.39-143.37-2.39-143.37 16 44.91 19.08 93.33 14.54 141 2.71-2.46 5.54-4.85 8.52-7.15a89.39 89.39 0 0 0-8.83 10.2q-.63 6.3-1.45 12.56c3.8 5.13 8 11.11 12.43 18-1.2-43-2.75-77.78-4.71-89.25 1.3 6.72 6.48 33.75 12.66 69.94 1.24-3 2.48-5.9 3.72-8.76 9-71.86 18.28-132.06 20.08-143.63-2 14.29-3.51 57.65-4.71 111.3 6-11.53 11.56-21.12 16.29-28.73-7.85-14.67-14.15-22-14.15-22a157.73 157.73 0 0 1 16.36 18.5C424 103.57 429 97.42 429 97.42q-6.51 9.14-12.33 18.62a178.89 178.89 0 0 1 18.92 31.86 157.54 157.54 0 0 1 24.12-35.73c-10.9-46.51-24.35-70.6-24.35-70.6 16.42 20.78 27.75 49.87 35.37 83.06a172 172 0 0 1 12.29-18c.05-2.46.07-4.72.07-6.75 0 0 .1 2.22.28 6.31a157.19 157.19 0 0 1 13.44-15s-5.8 6.88-13.19 20.6c.33 7.59.79 18.48 1.31 31.76q6.76-4.61 14-8.76A135.12 135.12 0 0 0 485 146.18c1 26.17 2.29 61 3.32 97.79q2.14-1.53 4.4-3a57.13 57.13 0 0 0-4.37 4v.8c1.21-.56 2.46-1.1 3.69-1.64.2-.55.4-1.1.59-1.65a1101.34 1101.34 0 0 1 30-131.35c-5.94-16.28-9.9-25.24-9.9-25.24a185.69 185.69 0 0 1 10 24.91c3.1-10.5 6.12-20.16 9-28.92C503 41.11 477.72 28.3 477.72 28.3c22 7.88 41.25 22.51 58.07 41.6q1.88-5.46 3.6-10.3-1.6 5.31-3.09 10.87c19.59 22.4 35.87 50.85 49.36 81.73q2.18-4.17 4.57-8.11C580 124.89 570.88 117 570.88 117a78.2 78.2 0 0 1 24.34 19.52c.43-.62.88-1.23 1.32-1.84-4.11-23.59-7-36.23-7-36.23 3.72 10.45 7.17 21.13 10.37 31.95q3.15-3.87 6.59-7.37a107.33 107.33 0 0 0-5.84 9.93q2.65 9.1 5.08 18.33a144.69 144.69 0 0 1 9.36 18.91c2.16 2.34 5.78 6.43 10.39 12.22a139.91 139.91 0 0 1 16.36-14.84s-6.3 5.9-14.15 17.66c4.73 6.11 10.31 13.8 16.3 23.05-1.2-43-2.75-77.78-4.72-89.25 1.3 6.72 6.49 33.75 12.67 69.94 1.24-3 2.48-5.9 3.72-8.76 9-71.86 18.28-132.06 20.08-143.63-2 14.29-3.52 57.65-4.72 111.3 6-11.53 11.56-21.12 16.29-28.73-7.85-14.67-14.14-22-14.14-22a157.64 157.64 0 0 1 16.35 18.5c7.68-12.05 12.64-18.2 12.64-18.2q-6.51 9.14-12.32 18.62a178.25 178.25 0 0 1 18.91 31.86 157.91 157.91 0 0 1 24.13-35.73c-10.91-46.51-24.36-70.6-24.36-70.6 16.42 20.78 27.75 49.87 35.38 83.06a169 169 0 0 1 12.29-18c0-2.46.06-4.72.06-6.75 0 0 .11 2.22.29 6.31a157.08 157.08 0 0 1 13.43-15s-5.79 6.88-13.19 20.6c.33 7.59.79 18.48 1.32 31.76q6.77-4.61 14-8.76a136.48 136.48 0 0 0-13.88 11.39c1 26.17 2.29 61 3.33 97.79q2.13-1.53 4.4-3a55.8 55.8 0 0 0-4.38 4v.8c1.21-.56 2.45-1.1 3.69-1.64.19-.55.39-1.1.59-1.65a1099.56 1099.56 0 0 1 30-131.35c-5.94-16.28-9.9-25.24-9.9-25.24a184.37 184.37 0 0 1 10 24.91c6-20.39 11.77-37.63 16.6-51.18-5.59 18.43-9.94 39.08-13.29 61 6.2 17.77 13.85 41.79 21.29 70.69q3.84 2.06 7.55 4.25a74 74 0 0 0-5.91-6.89c2.9 2.34 5.65 4.78 8.27 7.29.83-16.21 1.4-26.18 1.4-26.18 0 6.73.41 16.6 1.11 28.65l.26.27c2.51 1.59 5 3.23 7.38 4.91a235.45 235.45 0 0 1 12.91-40.29c-13-51.73-30.57-77.73-30.57-77.73 15.51 19 27.33 41.43 36.18 66q2-3.85 4.26-7.51C853.14 124.89 844 117 844 117a78.2 78.2 0 0 1 24.34 19.52c.44-.62.88-1.23 1.33-1.84-4.12-23.59-7-36.23-7-36.23 3.71 10.45 7.16 21.13 10.37 31.95q3.15-3.87 6.58-7.37a106.23 106.23 0 0 0-5.83 9.93q2.65 9.1 5.08 18.33a144.66 144.66 0 0 1 9.35 18.91c2.17 2.34 5.79 6.43 10.39 12.22a139.91 139.91 0 0 1 16.36-14.84s-6.3 5.9-14.15 17.66c4.74 6.11 10.31 13.8 16.3 23.05-1.2-43-2.75-77.78-4.72-89.25 1.31 6.72 6.49 33.75 12.67 69.94 1.24-3 2.48-5.9 3.72-8.76 9-71.86 18.28-132.06 20.08-143.63-2 14.29-3.51 57.65-4.72 111.3 6-11.53 11.56-21.12 16.29-28.73-7.84-14.67-14.14-22-14.14-22a157.73 157.73 0 0 1 16.36 18.5c7.68-12.05 12.64-18.2 12.64-18.2q-6.51 9.14-12.33 18.62a178.89 178.89 0 0 1 18.92 31.86 157.54 157.54 0 0 1 24.11-35.77c-10.9-46.51-24.36-70.6-24.36-70.6 16.36 20.78 27.73 49.87 35.36 83.06a170.47 170.47 0 0 1 12.29-18c0-2.46.07-4.72.07-6.75 0 0 .1 2.22.28 6.31a158.45 158.45 0 0 1 13.43-15s-5.79 6.88-13.18 20.6c.33 7.59.79 18.48 1.31 31.76q6.76-4.61 14-8.76a135.12 135.12 0 0 0-13.88 11.39c1 26.17 2.29 61 3.32 97.79 1.43-1 2.89-2 4.4-3a57.13 57.13 0 0 0-4.37 4v.8c1.21-.56 2.46-1.1 3.69-1.64 6.34-17.76 12.71-32.87 18.16-44.78 2.59-6.38 5-12.1 7.27-17.09-.63 1.64-1.23 3.31-1.82 5a123.73 123.73 0 0 1 9.72-17.91s-4.15 7-10.37 19.82a277.77 277.77 0 0 0-9.82 39.71c9.48-25.65 19.38-49 29-69.89a359 359 0 0 0-10-43.55c3.69 10.32 8 23.14 12.55 38.13 7.43-15.76 14.68-30 21.45-42.58a150.1 150.1 0 0 0-9.82-18.22 188.88 188.88 0 0 1 11.32 15.41 845.624 845.624 0 0 1 20-34.87 342.82 342.82 0 0 0-17.55 38.76 240.15 240.15 0 0 1 21.4 44.08q3.08-6.28 6.57-12.06c-10.22-19.2-19.35-27.11-19.35-27.11a78 78 0 0 1 24.33 19.52c.44-.62.88-1.23 1.33-1.84-4.12-23.59-7-36.23-7-36.23 3.72 10.45 7.17 21.13 10.37 31.95q3.15-3.87 6.59-7.37a107.33 107.33 0 0 0-5.84 9.93q2.65 9.1 5.08 18.33a144.69 144.69 0 0 1 9.36 18.91c2.16 2.34 5.78 6.43 10.39 12.22a139.8 139.8 0 0 1 16.35-14.84s-6.29 5.9-14.14 17.66c4.73 6.11 10.3 13.8 16.3 23.05-1.21-43-2.75-77.78-4.72-89.25 1.3 6.72 6.49 33.75 12.66 69.94 1.25-3 2.49-5.9 3.73-8.76 9-71.86 18.27-132.06 20.07-143.63-2 14.29-3.51 57.65-4.71 111.3 6-11.53 11.56-21.12 16.29-28.73-7.85-14.67-14.14-22-14.14-22a158.56 158.56 0 0 1 16.35 18.5c7.68-12.05 12.64-18.2 12.64-18.2q-6.51 9.14-12.32 18.62A178.25 178.25 0 0 1 1255 147.9a158.2 158.2 0 0 1 24.12-35.73c-10.9-46.51-24.35-70.6-24.35-70.6 16.42 20.78 27.75 49.87 35.38 83.06a170.38 170.38 0 0 1 12.28-18c0-2.46.07-4.72.07-6.75 0 0 .11 2.22.29 6.31a159.45 159.45 0 0 1 10.58-12.13c.83-13.47 1.81-25.41 2.77-35.56-.54 10.62-.61 21.68-.28 33l.36-.36-.36.44c1 34.88 5.91 72.69 12.74 110.06l1.07-2.36c2.6-6.38 5-12.1 7.27-17.09-.62 1.64-1.23 3.31-1.81 5a123.7 123.7 0 0 1 9.71-17.91s-4.15 7-10.36 19.82c-1.85 5.5-3.52 11.24-5 17.17 3.51 18.78 7.5 37.41 11.72 55.47.34-7.69.68-15.1 1-22.13-1.47-2.4-2.32-3.67-2.32-3.67.8 1.07 1.58 2.18 2.34 3.3 1.7-35.49 3.28-61 3.28-61 0 14.06 2 42.27 4.77 75.42 3.88 7.18 8.52 16.37 13.34 27.25-.88-58.67-5.85-121.2-19.92-167.41 6.5 18.16 14.94 44.07 23.13 75.9q3.86 2.06 7.56 4.25a75.77 75.77 0 0 0-5.91-6.89q4.35 3.53 8.27 7.29c.82-16.21 1.4-26.18 1.4-26.18 0 6.74.4 16.6 1.11 28.65l.26.27q3.76 2.38 7.38 4.92c4.69-20.28 11.24-39.1 20.21-55.13q-1.53-7.44-3.18-14.3c-7.67-12.07-13.61-17.22-13.61-17.22a72.28 72.28 0 0 1 11 6.83c-12.79-47.51-28.91-71.39-28.91-71.39 19.16 23.45 32.68 52.18 41.94 83.68l.35.4c.44-.62.88-1.23 1.33-1.83-4.12-23.6-7.06-36.24-7.06-36.24 3.72 10.45 7.17 21.13 10.37 32q3.15-3.87 6.59-7.37a107.54 107.54 0 0 0-5.83 9.94q2.65 9.1 5.08 18.32a147.21 147.21 0 0 1 9.35 18.91c2.17 2.35 5.79 6.43 10.39 12.22a140.8 140.8 0 0 1 16.36-14.84s-6.3 5.9-14.15 17.66c4.74 6.11 10.31 13.8 16.3 23-1.2-43-2.75-77.78-4.72-89.25 1.31 6.72 6.49 33.75 12.67 70 1.24-3 2.48-5.91 3.72-8.77 9-71.86 18.28-132.06 20.08-143.63-2 14.29-3.52 57.66-4.72 111.31 6-11.53 11.56-21.12 16.29-28.74-7.84-14.66-14.14-22-14.14-22a156.93 156.93 0 0 1 16.35 18.51c7.69-12.06 12.65-18.21 12.65-18.21q-6.52 9.14-12.33 18.62a178.68 178.68 0 0 1 18.84 31.81 157.68 157.68 0 0 1 24.13-35.73c-10.91-46.52-24.36-70.61-24.36-70.61 16.43 20.78 27.76 49.87 35.38 83.07a170.47 170.47 0 0 1 12.29-18c0-2.47.07-4.73.07-6.76 0 0 .1 2.23.28 6.31a159.69 159.69 0 0 1 13.43-15s-5.79 6.89-13.18 20.6c.32 7.59.78 18.49 1.31 31.77q6.76-4.6 14-8.76a134.72 134.72 0 0 0-13.88 11.39c1 26.17 2.3 61 3.33 97.78 1.43-1 2.89-2 4.4-3 0 0-1.69 1.33-4.37 4v.8c1.21-.56 2.45-1.1 3.69-1.65l.59-1.65a1102 1102 0 0 1 30-131.35c-5.93-16.28-9.89-25.24-9.89-25.24a185.84 185.84 0 0 1 10 24.92c6-20.39 11.76-37.64 16.59-51.19-5.59 18.43-9.94 39.09-13.29 61 6.2 17.78 13.85 41.79 21.29 70.69 2.57 1.37 5.08 2.79 7.55 4.25a73.82 73.82 0 0 0-5.91-6.89q4.37 3.53 8.27 7.29c.83-16.21 1.4-26.18 1.4-26.18 0 6.74.41 16.6 1.11 28.65l.26.27q3.77 2.38 7.39 4.92c5.12-22.17 12.47-42.59 22.77-59.53-10.22-19.21-19.35-27.12-19.35-27.12a78.33 78.33 0 0 1 24.33 19.52c.44-.62.88-1.23 1.33-1.83-4.12-23.6-7-36.24-7-36.24 3.72 10.45 7.17 21.13 10.37 32q3.15-3.87 6.58-7.37a110.52 110.52 0 0 0-5.83 9.94q2.65 9.1 5.08 18.32a146 146 0 0 1 9.36 18.91c2.16 2.35 5.78 6.43 10.39 12.22a140.69 140.69 0 0 1 16.35-14.84s-6.29 5.9-14.14 17.66c4.73 6.11 10.3 13.8 16.29 23-1.2-43-2.74-77.78-4.71-89.25 1.3 6.72 6.49 33.75 12.66 70 1.24-3 2.49-5.91 3.73-8.76q.88-7 1.77-13.93c-12.06-77.69-38.45-116.78-38.45-116.78 19.58 24 33.26 53.43 42.53 85.73 6.85-50.84 12.82-89.61 14.22-98.66-2 14.29-3.51 57.66-4.71 111.31 6-11.53 11.56-21.12 16.29-28.74-7.85-14.66-14.15-22-14.15-22a157 157 0 0 1 16.3 18.48 221.25 221.25 0 0 1 12.64-18.21q-6.51 9.14-12.32 18.62a179.28 179.28 0 0 1 18.93 31.85 158 158 0 0 1 24.12-35.73c-10.9-46.5-24.37-70.59-24.37-70.59 16.42 20.78 27.75 49.87 35.37 83.07a172 172 0 0 1 12.29-18c0-2.47.07-4.73.07-6.76 0 0 .1 2.23.29 6.31a158.3 158.3 0 0 1 13.43-15s-5.79 6.89-13.19 20.6c.33 7.59.79 18.49 1.31 31.77 4.52-3.07 9.17-6 14-8.76a133.4 133.4 0 0 0-13.88 11.39c1 26.17 2.29 61 3.32 97.78 1.43-1 2.9-2 4.4-3 0 0-1.69 1.33-4.37 4v.8c1.22-.56 2.46-1.1 3.69-1.65l.6-1.65a1100 1100 0 0 1 30-131.35c-5.94-16.28-9.9-25.24-9.9-25.24a184.52 184.52 0 0 1 10 24.92c6-20.39 11.77-37.64 16.59-51.19-5.59 18.43-9.94 39.09-13.29 61 6.21 17.78 13.86 41.79 21.29 70.69q3.86 2.06 7.56 4.25a75.77 75.77 0 0 0-5.91-6.89q4.35 3.53 8.27 7.29c.82-16.21 1.4-26.18 1.4-26.18 0 6.74.4 16.6 1.11 28.65l.26.27q3.76 2.38 7.38 4.92c5.12-22.17 12.48-42.59 22.77-59.53-10.22-19.21-19.35-27.12-19.35-27.12a78.49 78.49 0 0 1 24.34 19.52c.44-.62.88-1.23 1.33-1.83-4.12-23.6-7.06-36.24-7.06-36.24 3.72 10.45 7.17 21.13 10.37 32q2.73-3.34 5.67-6.41c-10.75-32.36-18.25-56-20.33-62.64 4.85 14.46 24.88 56.74 49.49 106.79 4.33-99.51-22.24-157.4-22.24-157.4 24.74 44.13 34.18 97.32 34.77 151.47 1.45 8.13 3 17.13 4.68 26.78a483 483 0 0 1 35.37-69.83c-7.84-14.66-14.14-22-14.14-22a156.93 156.93 0 0 1 16.35 18.51c7.69-12.06 12.65-18.21 12.65-18.21q-6.53 9.14-12.33 18.62a178.68 178.68 0 0 1 18.95 31.8 157.68 157.68 0 0 1 24.13-35.73c-10.91-46.52-24.36-70.61-24.36-70.61 16.43 20.78 27.75 49.87 35.38 83.07a170.47 170.47 0 0 1 12.29-18c0-2.47.07-4.73.07-6.76 0 0 .1 2.23.28 6.31a159.69 159.69 0 0 1 13.43-15s-5.79 6.89-13.19 20.6c.33 7.59.79 18.49 1.32 31.77q6.76-4.6 14-8.76a134.72 134.72 0 0 0-13.88 11.39c1 26.17 2.29 61 3.33 97.78 1.43-1 2.89-2 4.4-3 0 0-1.69 1.33-4.37 4v.8c1.21-.56 2.45-1.1 3.69-1.65l.59-1.65a1102 1102 0 0 1 30-131.35c-5.94-16.28-9.89-25.24-9.89-25.24a185.84 185.84 0 0 1 10 24.92c6-20.39 11.76-37.64 16.59-51.19-5.59 18.43-9.94 39.09-13.29 61 6.2 17.78 13.85 41.79 21.29 70.69 2.57 1.37 5.08 2.79 7.55 4.25a73.82 73.82 0 0 0-5.91-6.89q4.35 3.53 8.27 7.29c.83-16.21 1.4-26.18 1.4-26.18 0 6.74.41 16.6 1.11 28.65l.26.27q3.76 2.38 7.39 4.92c4.6-19.92 11-38.42 19.72-54.26q-.6-6.64-1.35-13c-8.3-13.63-15-19.4-15-19.4a74 74 0 0 1 13.63 8.92C2211.82 41.51 2183.8 0 2183.8 0c23.5 28.76 38.52 65.47 47.59 105.48q3.84 11.37 7.28 23 3.15-3.87 6.58-7.37a107.54 107.54 0 0 0-5.83 9.94q2.65 9.1 5.08 18.32a147.25 147.25 0 0 1 9.36 18.91c2.16 2.35 5.78 6.43 10.38 12.22a141.62 141.62 0 0 1 16.36-14.84s-6.3 5.9-14.14 17.66c4.73 6.11 10.3 13.8 16.29 23-1.2-43-2.74-77.78-4.71-89.25 1.3 6.72 6.48 33.75 12.66 70 1.24-3 2.48-5.91 3.72-8.76 9-71.87 18.28-132.07 20.08-143.64-2 14.29-3.51 57.66-4.71 111.31 6-11.53 11.56-21.12 16.29-28.74-7.85-14.66-14.15-22-14.15-22a157 157 0 0 1 16.36 18.51 221.25 221.25 0 0 1 12.64-18.21q-6.51 9.14-12.33 18.62a178.73 178.73 0 0 1 18.92 31.84 158 158 0 0 1 24.12-35.73c-10.9-46.52-24.35-70.61-24.35-70.61 16.42 20.78 27.75 49.87 35.37 83.07a172 172 0 0 1 12.29-18c.05-2.47.07-4.73.07-6.76 0 0 .1 2.23.28 6.31a159.8 159.8 0 0 1 13.44-15s-5.8 6.89-13.19 20.6c.33 7.59.79 18.49 1.31 31.77q6.76-4.6 14-8.76A133.4 133.4 0 0 0 2397 144.3c1 26.17 2.29 61 3.32 97.78 1.43-1 2.9-2 4.4-3 0 0-1.69 1.33-4.37 4v.8c1.21-.56 2.46-1.1 3.69-1.65.2-.55.4-1.1.59-1.65a1101.79 1101.79 0 0 1 30-131.35c-5.94-16.28-9.9-25.24-9.9-25.24a184.52 184.52 0 0 1 10 24.92q3.47-11.73 6.77-22C2415.36 50.22 2393 38 2393 38c19.6 7.79 36.88 20.93 52.12 37.77 2.19-6.57 4.27-12.59 6.2-18q-2.79 9.21-5.18 19.14c19.29 21.65 35.27 49.25 48.48 79.43a151.49 151.49 0 0 1 7.54-14.07c-10.22-19.21-19.35-27.12-19.35-27.12a78.49 78.49 0 0 1 24.34 19.52c.43-.62.88-1.23 1.32-1.83-4.11-23.6-7.05-36.24-7.05-36.24 3.72 10.45 7.17 21.13 10.37 32q3.15-3.87 6.59-7.37a108.67 108.67 0 0 0-5.84 9.94q2.65 9.1 5.09 18.32a147.21 147.21 0 0 1 9.35 18.91c2.17 2.35 5.78 6.43 10.39 12.22a140.8 140.8 0 0 1 16.36-14.84s-6.3 5.9-14.15 17.66c4.73 6.11 10.31 13.8 16.3 23-1.2-43-2.75-77.78-4.72-89.25 1.3 6.72 6.49 33.75 12.67 70a509.86 509.86 0 0 1 25.38-52.82c2.32-8 4.55-15.67 6.69-22.93a119.66 119.66 0 0 0-10.84-16.1 156.09 156.09 0 0 1 11.83 12.66c9.78-33.15 17.18-57 19.25-63.64-2.84 9.72-7.58 34.43-13.27 67.13 6.85-10.57 11.2-16 11.2-16q-6 8.41-11.4 17.11l-.39 2.25a178.33 178.33 0 0 1 18.37 31.15 157.68 157.68 0 0 1 24.13-35.73c-10.91-46.52-24.36-70.61-24.36-70.61 16.42 20.78 27.75 49.87 35.38 83.07a169 169 0 0 1 12.29-18c0-2.47.07-4.73.07-6.76 0 0 .1 2.23.28 6.31a159.69 159.69 0 0 1 13.43-15s-5.79 6.89-13.19 20.6c.33 7.59.79 18.49 1.32 31.77q6.77-4.6 14-8.76a134.72 134.72 0 0 0-13.88 11.39c1 26.17 2.29 61 3.33 97.78 1.43-1 2.89-2 4.4-3a57.65 57.65 0 0 0-4.38 4v.8c1.21-.56 2.45-1.1 3.69-1.65.19-.55.39-1.1.59-1.65a1102 1102 0 0 1 30-131.35c-5.94-16.28-9.89-25.24-9.89-25.24a185.84 185.84 0 0 1 10 24.92c4.74-16.09 9.32-30.22 13.41-42.12-19.38-32.17-36-45.33-36-45.33 14.77 9.22 27.78 21.47 39.24 36a225.42 225.42 0 0 1 13.18-34.09s-5.35 12.16-13.17 34.11c13.47 17.05 24.79 37.22 34.31 59.23a79.62 79.62 0 0 1 21.41 18c.44-.62.88-1.23 1.33-1.83-4.12-23.6-7-36.24-7-36.24 3.72 10.45 7.16 21.13 10.37 32q3.15-3.87 6.58-7.37a107.54 107.54 0 0 0-5.83 9.94q2.66 9.1 5.08 18.32a145.92 145.92 0 0 1 9.35 18.91c2.17 2.35 5.79 6.43 10.39 12.22a140.8 140.8 0 0 1 16.36-14.84s-6.3 5.9-14.14 17.66c4.73 6.11 10.3 13.8 16.29 23-1.2-43-2.75-77.78-4.72-89.25 1.31 6.72 6.49 33.75 12.67 70 1.24-3 2.48-5.91 3.72-8.76 9-71.87 18.28-132.07 20.08-143.64-2 14.29-3.51 57.66-4.72 111.31 6-11.53 11.56-21.12 16.3-28.74-7.85-14.66-14.15-22-14.15-22a157 157 0 0 1 16.36 18.51 221.25 221.25 0 0 1 12.64-18.21q-6.51 9.14-12.33 18.62a179.33 179.33 0 0 1 18.92 31.7 157.32 157.32 0 0 1 24.12-35.73c-10.9-46.52-24.35-70.61-24.35-70.61 16.42 20.78 27.75 49.87 35.37 83.07a172 172 0 0 1 12.29-18c.05-2.47.07-4.73.07-6.76 0 0 .1 2.23.28 6.31a158.41 158.41 0 0 1 13.44-15s-5.8 6.89-13.19 20.6c.33 7.59.79 18.49 1.31 31.77q6.76-4.6 14-8.76a133.4 133.4 0 0 0-13.88 11.39c1 26.17 2.29 61 3.32 97.78 1.43-1 2.9-2 4.4-3 0 0-1.69 1.33-4.37 4v.8c1.21-.56 2.46-1.1 3.69-1.65 6.34-17.75 12.71-32.87 18.16-44.77.92-2.26 1.81-4.43 2.69-6.51 6-19.91 12.21-37.45 17.81-52.14-1.91-8.84-4.06-17.3-6.49-25.27 2.32 6.49 4.89 14 7.61 22.36 2.67-6.92 5.2-13.17 7.52-18.69-2.44 6.82-4.64 14-6.62 21.47 4.64 14.5 9.68 31.55 14.62 50.76q3.86 2.06 7.56 4.25a75.77 75.77 0 0 0-5.91-6.89q4.35 3.53 8.27 7.29c.82-16.21 1.4-26.18 1.4-26.18 0 6.74.4 16.6 1.11 28.65l.25.27q3.78 2.38 7.39 4.92c5.12-22.17 12.48-42.59 22.77-59.53-10.22-19.21-19.35-27.12-19.35-27.12a78.33 78.33 0 0 1 24.33 19.52c.44-.62.89-1.23 1.33-1.83-4.11-23.6-7.05-36.24-7.05-36.24 3.72 10.45 7.17 21.13 10.37 32q3.15-3.87 6.59-7.37a108.67 108.67 0 0 0-5.84 9.94q2.66 9.1 5.08 18.32 2.32 3.9 4.42 8.08c19-91 4-153.19 4-153.19 17.46 54.9 16.29 113.64 5.78 169.48q2.44 2.87 5.56 6.76a140 140 0 0 1 16.35-14.88s-6.3 5.9-14.15 17.66c4.73 6.11 10.3 13.8 16.3 23-1.2-43-2.75-77.78-4.72-89.25 1.3 6.72 6.49 33.75 12.67 70 1.24-3 2.48-5.91 3.72-8.76 9-71.87 18.28-132.07 20.07-143.64-2 14.29-3.51 57.66-4.71 111.31 6-11.53 11.56-21.12 16.29-28.74-7.85-14.66-14.14-22-14.14-22a156.93 156.93 0 0 1 16.35 18.51 221.25 221.25 0 0 1 12.64-18.21q-6.51 9.14-12.32 18.62a178.68 178.68 0 0 1 18.92 31.83 157.68 157.68 0 0 1 24.13-35.73c-10.91-46.52-24.36-70.61-24.36-70.61 16.42 20.78 27.75 49.87 35.38 83.07a170.38 170.38 0 0 1 12.28-18c.05-2.47.07-4.73.07-6.76 0 0 .11 2.23.29 6.31a158.3 158.3 0 0 1 13.43-15s-5.79 6.89-13.19 20.6c.33 7.59.79 18.49 1.32 31.77q6.77-4.6 14-8.76a133.4 133.4 0 0 0-13.88 11.39c1 26.17 2.29 61 3.33 97.78 1.42-1 2.89-2 4.4-3a57.65 57.65 0 0 0-4.38 4v.8c1.21-.56 2.45-1.1 3.69-1.65.19-.55.39-1.1.59-1.65a1100 1100 0 0 1 30-131.35c-5.94-16.28-9.9-25.24-9.9-25.24a184.52 184.52 0 0 1 10 24.92c5.88-19.89 11.53-36.83 16.28-50.24-16.86-29.62-31.15-42.43-31.15-42.43a160.49 160.49 0 0 1 34 33.65A213 213 0 0 1 3284 23.32s-4.18 9.5-10.55 26.85c15.06 19.89 27.15 43.72 36.84 69.69a82.06 82.06 0 0 1 16.26 14.75c.44-.62.88-1.23 1.33-1.83-4.12-23.6-7-36.24-7-36.24 3.71 10.45 7.16 21.13 10.37 32q3.15-3.87 6.58-7.37a107.54 107.54 0 0 0-5.83 9.94q2.65 9.1 5.08 18.32a147.21 147.21 0 0 1 9.35 18.91c2.17 2.35 5.79 6.43 10.39 12.22a140.8 140.8 0 0 1 16.36-14.84s-6.3 5.9-14.15 17.66c4.74 6.11 10.31 13.8 16.3 23-1.2-43-2.75-77.78-4.72-89.25 1.31 6.72 6.49 33.75 12.67 70 1.24-3 2.48-5.91 3.72-8.76 9-71.87 18.28-132.07 20.08-143.64-2 14.29-3.52 57.66-4.72 111.31 6-11.53 11.56-21.12 16.29-28.74-7.84-14.66-14.14-22-14.14-22a156 156 0 0 1 16.35 18.51c7.69-12.06 12.65-18.21 12.65-18.21q-6.51 9.14-12.33 18.62a179.33 179.33 0 0 1 18.88 31.78 157.32 157.32 0 0 1 24.12-35.73c-10.9-46.52-24.36-70.61-24.36-70.61 16.43 20.78 27.76 49.87 35.38 83.07a170.47 170.47 0 0 1 12.29-18c0-2.47.07-4.73.07-6.76 0 0 .1 2.23.28 6.31A158.89 158.89 0 0 1 3500 90.6v.33a148.73 148.73 0 0 0-11.91 19c.33 7.59.79 18.49 1.31 31.77q5.17-3.53 10.6-6.78v.52c-2.42 1.86-6 4.79-10.49 8.89 1 26.17 2.29 61 3.32 97.78 1.43-1 2.89-2 4.4-3 0 0-1.69 1.33-4.37 4v.8c1.21-.56 2.45-1.1 3.69-1.65l.59-1.65q1.38-8.32 2.84-16.41v220.19H0V187c.37 1.44.75 2.87 1.12 4.32Zm3491.78 53.32.21 7.56q1.66-4.95 3.35-9.66a120 120 0 0 0-3.56 2.1Zm-59.84 76.1c-.34-3.66-.83-7.2-1.43-10.6-.17 1.5-.33 3-.49 4.54.33 2.41.68 4.83 1.05 7.28.28-.41.58-.81.87-1.22Zm8.86-63.39c-1.3 1.54-2.74 3.35-4.26 5.43-.55 3.76-1.11 7.63-1.65 11.59 1.87-1.28 3.79-2.51 5.74-3.72q-.02-6.65.17-13.3Zm-.11 20.45-.92 1 .92-.85Zm-3.45 16.89c1.44 1.51 2.85 3 4.21 4.58-.16-2.88-.29-5.76-.41-8.66-1.25 1.27-2.52 2.64-3.8 4.08Zm26.92-7.55-.49 1.42.24 1.36c.09-.92.17-1.86.25-2.78Zm1.89-23.31c-1.06.94-2.13 1.89-3.22 2.89 0 1.67 0 3.34.05 5q1.39-2.13 2.91-4.22c.09-1.24.18-2.5.26-3.67Zm2.2.42q3.26-4.12 7-8.05-3.42 2.67-7.15 5.85c.06.71.1 1.45.15 2.2Zm8-1.76a121.7 121.7 0 0 0-7.27 13.15c.33 5.63.67 11.82 1 18.42 1-.32 2.06-.63 3.13-.92 0 0-1.16.54-3.09 1.69.45 8.53.91 17.73 1.34 27.24 2.52-20.98 4.11-40.84 4.85-59.58Zm8.42-114.68c-1.53 1.47-3.15 3.06-4.82 4.76a554.38 554.38 0 0 1 3.21 23.5c.56-9.98 1.1-19.45 1.57-28.26Zm-8.36-14.93q1.53 7.58 2.84 15.38c1.88-1.42 3.78-2.82 5.71-4.18.65-12.61 1.13-23.71 1.39-32.76a224.91 224.91 0 0 0-9.98 21.56Zm-4.18 27.89c-2.39 2.66-4.87 5.51-7.41 8.58-1.49 6.11-2.85 12.58-4 19.4a76.87 76.87 0 0 1 13.62-7.15s-6.65 4.62-15 15.54q-.82 5.73-1.49 11.76a371.38 371.38 0 0 1 4.88 51.5c1.23-.84 2.47-1.67 3.74-2.49.33-5.57.51-10.23.51-13.73 0 0 .33 4.77.85 12.85q4.26-2.73 8.75-5.3a604.2 604.2 0 0 0-4.49-90.96Zm-1.68-11.77c-.89 2.72-1.75 5.54-2.6 8.45 1.13-1 2.26-1.93 3.41-2.88-.27-1.93-.53-3.79-.81-5.57Zm-28.1 4.81a223 223 0 0 1 7.51 21c1.16-1.24 2.33-2.48 3.52-3.69a220.48 220.48 0 0 1 14.57-37.18c-1.51-8.33-3.14-16.13-4.83-23.38-3.07 4.44-12.24 18.84-20.77 43.2Zm-.47 75.89.48.72c.14-1.53.29-3.06.45-4.58-.14.31-.27.63-.4.95-.14.95-.31 1.93-.53 2.91Zm-.23 73.53q-1.64-2.22-3.27-4.29l.54 1.57c.94 1.14 1.87 2.28 2.77 3.44.03-.24.01-.48 0-.72Zm0-63.38c-.36-.82-.71-1.62-1.07-2.41q-1.71 10-3.43 21.31c1.2-1.09 2.44-2.17 3.71-3.22q.25-7.83.78-15.68Zm-4.09-70.85c-2.4 8.53-4.62 18-6.45 28.32 3.24-4.36 6.6-8.63 10.12-12.8q-1.69-8.13-3.67-15.52Zm-38.12 77.88c.42.3.83.61 1.24.92a339.13 339.13 0 0 1 16.69-30.28c3.29-21.26 8.61-41.88 16.62-60.76a235.31 235.31 0 0 0-16.19-38.94c-6.11 10.23-11.65 20.72-16.67 31.38-.67 30.53-1.25 64.21-1.69 97.68Zm0 3.58.67-1.38-.64-.67Zm-16.11-56.57c.12.73.24 1.46.37 2.2.2-1.72.41-3.42.62-5.13-.38.98-.72 1.96-1.04 2.93Zm-115.99 128.59c1.63-9.5 3.52-19.16 5.69-28.83-2.71-14.42-6.57-28-12-39.83l.18 2.14a354 354 0 0 1 4.24 47.1c.65 6.47 1.27 12.94 1.89 19.42Zm5.78 44.68c-.2.48-.4.95-.59 1.44-.05 1.76-.07 3.56-.1 5.35l.27 2.72q.18-4.67.42-9.51Zm.59-15.82-.46-.63c-.09 1.64-.18 3.28-.25 5 .19-.3.4-.6.59-.89Zm.38-13.6c-.31 4-.58 8.18-.81 12.39l.45.46q.21-6.31.36-12.85Zm13.31-141a114.87 114.87 0 0 0-9.78-7.28c2.87 11.14 5.71 23 8.42 35.53.48-10.55.95-20.1 1.36-28.25Zm8.51 13.18c-1.94-3.42-3.84-6.45-5.61-9.11.54 8.9 1.23 18.85 2 29.51a.87.87 0 0 0 .07-.17q1.51-10.27 3.51-20.23Zm6 113.9c.66-.54 1.34-1.07 2-1.6-1.2-5-2.48-9.58-3.77-13.81q.97 7.59 1.79 15.41Zm3.3 4c-.31-1.41-.63-2.81-.95-4.18-.72.64-1.44 1.3-2.17 2q.72 7.05 1.34 14.23c.43-1.57.86-3.15 1.31-4.72.14-2.54.33-4.98.49-7.36Zm1.14-16.54a113.42 113.42 0 0 0-7.48-17.69c0 .68 0 1.37.08 2.06q4.13 8 7.38 15.94Zm9.35-44.72c-.05-.32-.11-.64-.16-1-7.38-8-13.29-11.36-13.29-11.36a74.77 74.77 0 0 1 12.1 5.22 177.77 177.77 0 0 0-11.8-36.42 393.44 393.44 0 0 0-3.7 69.27c2.52 3.55 5.22 7.55 8 12 .88-11.71 1.53-19.14 1.53-19.14 0 5.28.65 13.84 1.71 24.35.63 1 1.27 2.1 1.9 3.17l.47-1.29a263.12 263.12 0 0 1 3.26-44.83Zm5-22.74c-.23-2.68-.47-5.32-.72-7.95-2.38-2.08-3.84-3.12-3.84-3.12 1.28.76 2.53 1.53 3.77 2.31-.19-1.87-.37-3.74-.57-5.58-5.28-6.57-10.39-12.27-15.14-17.14l-.21 1.21a142 142 0 0 1 16.3 31.73c.21-.52.34-1.01.48-1.49Zm-2.65-25.62q-1.76-14.7-4.17-28.2c-2.71 4.68-5.6 10.13-8.54 16.39-.06.28-.11.57-.17.86q6.77 5.25 12.95 10.92Zm46.7 49q.41 6.3.66 12.62c.66 1.21 1.31 2.41 2 3.62 0-.5.07-.77.07-.77.43 1.06.84 2.16 1.24 3.27q2.23 4.32 4.31 8.66c.79-8.74 1.64-17.58 2.54-26.47-.3-15.41-.62-30.67-1-45.26-3.94 14.85-7.16 29.71-9.75 44.26Zm-11.78-76.07a330.16 330.16 0 0 1 9.57 50.83c3.59-11.91 7.37-23.11 11.24-33.61a276.5 276.5 0 0 0-16.28-24.49c-1.4 2.14-2.92 4.58-4.46 7.2Zm-7.62-22.4c2.18 5.32 4.15 10.89 5.93 16.66q1.94-2.26 4-4.47-4.67-6.25-9.86-12.26Zm-3.75 103.69q.8 7.93 1.46 15.71c1.17 2 2.26 4.1 3.29 6.22q-.51-6.46-1-12.76-1.76-4.66-3.68-9.24Zm-3.86-47.52c-.52 1.58-1 3.18-1.53 4.82q.69 4.48 1.32 8.95c1.45 1.73 2.88 3.49 4.28 5.26-.33-3.23-.67-6.4-1-9.53-.93-3.4-1.93-6.54-3-9.57Zm-14.72-77.45c-.91 2.13-1.83 4.4-2.77 6.79q2.61 9.29 4.91 18.75l1.69-2c-.51.62-1.07 1.32-1.67 2.1q3 12.38 5.49 24.94 3 4.13 5.69 8.44l1-1.68q-2.25-18-4.48-33.22a202 202 0 0 0-9.79-24.19Zm-10.71-18.61q3 8.65 5.66 17.56c.79-1.39 1.59-2.77 2.42-4.12a145.49 145.49 0 0 0-8.01-13.51Zm-5.78 71.6q3.39-6 7.07-11.69c-.57-3.21-1.17-6.37-1.78-9.49-1.8 6.46-3.59 13.52-5.22 21.11Zm-50.27-81.63c6.2 17.78 13.85 41.79 21.29 70.69q3.84 2.06 7.55 4.25a75.77 75.77 0 0 0-5.91-6.89q4.35 3.53 8.27 7.29c.83-16.21 1.4-26.18 1.4-26.18 0 6.74.41 16.6 1.11 28.65l.26.27q3.76 2.38 7.38 4.92a242.25 242.25 0 0 1 11.29-36.43c-10.8-47.87-26.06-82.7-39.66-106.6a445.33 445.33 0 0 0-12.91 59.96ZM3248 318.83c.43-1 .88-2 1.36-2.91 0 0 .51 4.64 1.41 12.22.81-30.74 2.13-62.29 3.38-88.46-1.47-2.4-2.32-3.67-2.32-3.67.8 1.07 1.58 2.18 2.34 3.3 1.7-35.49 3.28-61 3.28-61 0 14.06 2 42.27 4.77 75.42 3.88 7.18 8.52 16.37 13.34 27.25-.84-56.2-5.44-115.93-18.19-161.48-2.68 17.76-4.72 36.35-6.22 55.28a130.24 130.24 0 0 1 9.2-18.09s-3.68 6.69-9.27 18.88c0 .61-.09 1.23-.14 1.85a112.76 112.76 0 0 1 5.87-9.95s-2.27 3.84-5.95 11c-3.63 47.46-3.95 96.87-2.86 140.36Zm-28.19-74.19c.07 2.51.14 5 .2 7.56q1.68-4.95 3.35-9.66c-.99.54-2.18 1.24-3.59 2.1Zm-59.85 76.1q-.51-5.49-1.43-10.6c-.16 1.5-.32 3-.48 4.54.33 2.41.68 4.83 1 7.28.29-.41.58-.81.87-1.22Zm8.87-63.39c-1.3 1.54-2.74 3.35-4.26 5.43q-.84 5.64-1.65 11.59c1.86-1.28 3.78-2.51 5.73-3.72q-.04-6.65.14-13.3Zm-.12 20.45-.91 1 .91-.85Zm-3.44 16.89c1.44 1.51 2.85 3 4.21 4.58-.16-2.88-.3-5.76-.41-8.66-1.3 1.27-2.57 2.64-3.84 4.08Zm26.92-7.55c-.17.47-.33.95-.5 1.42.08.46.17.91.25 1.36.06-.92.13-1.86.21-2.78Zm1.89-23.31c-1.06.94-2.13 1.89-3.22 2.89v5q1.39-2.13 2.91-4.22c.1-1.24.23-2.5.23-3.67Zm.78-14.18c-1.73-2.73-3.42-5.22-5.05-7.5q.66 9.14.92 18.25 1.84-1.26 3.73-2.49c.14-3.04.28-5.81.36-8.26Zm1 7.38c.85-.55 1.69-1.09 2.55-1.62-1-1.72-2-3.35-3-4.92.07 1.83.21 4.02.37 6.51Zm.46 7.22c1.34-1.71 2.75-3.4 4.22-5.05l-.3-.55c-1.32 1.08-2.68 2.21-4.06 3.4-.04.71.01 1.45.06 2.2Zm1.71 29.81c.73-.22 1.47-.44 2.21-.64-.8-.92-1.59-1.8-2.38-2.65-.03 1.08.03 2.23.14 3.29Zm4.15 1.61c-.61-.73-1.22-1.43-1.82-2.12-.53.27-1.31.7-2.29 1.28.46 8.53.92 17.73 1.34 27.24q1.59-13.51 2.69-26.4Zm2-29.63-.93-1.83a120.81 120.81 0 0 0-6.2 11.43c.24 4.11.49 8.51.75 13.16 1.58 1.49 3.13 3 4.63 4.53q1.04-14.02 1.62-27.33Zm-2.21-8.36c.46-.5.93-1 1.4-1.48l-1.55 1.23Zm10.77-109.87c-1.53 1.47-3.14 3.06-4.81 4.76 1.22 7.71 2.29 15.56 3.21 23.5.47-9.98 1.01-19.45 1.47-28.26Zm-8.36-14.93q1.55 7.58 2.85 15.38c1.87-1.42 3.78-2.82 5.71-4.18.64-12.61 1.12-23.71 1.39-32.76a227.23 227.23 0 0 0-10.08 21.56Zm-4.17 27.89c-2.4 2.66-4.87 5.51-7.42 8.58-1.48 6.11-2.84 12.58-4 19.4a76.87 76.87 0 0 1 13.62-7.15s-6.65 4.62-14.95 15.54q-.84 5.73-1.49 11.76c1.77 10.45 3 21 3.85 31.68q2.7 3.31 5.23 6.8v-3.2s.09 1.27.25 3.6q2.39 3.3 4.64 6.73 2.32-1.41 4.72-2.78a605.52 605.52 0 0 0-4.58-90.96Zm-1.77-11.77q-1.33 4.08-2.6 8.45c1.12-1 2.26-1.93 3.4-2.88q-.39-2.87-.8-5.57Zm-28.11 4.81q4.26 10.25 7.52 21c1.16-1.24 2.33-2.48 3.51-3.69a220.52 220.52 0 0 1 14.58-37.18c-1.51-8.33-3.14-16.13-4.84-23.38-3.1 4.44-12.28 18.84-20.77 43.2Zm-.42 75.94.47.72c.14-1.53.29-3.06.45-4.58-.13.31-.26.63-.4.95-.17.9-.35 1.88-.52 2.86Zm-.24 73.53q-1.64-2.22-3.27-4.29c.19.52.36 1.05.54 1.57.94 1.14 1.87 2.28 2.78 3.44-.02-.29-.03-.53-.05-.77Zm-.05-63.38c-.35-.82-.71-1.62-1.06-2.41q-1.71 10-3.43 21.31c1.2-1.09 2.44-2.17 3.71-3.22.16-5.27.42-10.5.78-15.73Zm-4.08-70.9c-2.4 8.53-4.61 18-6.45 28.32q4.86-6.54 10.12-12.8-1.68-8.13-3.67-15.52Zm-38.12 77.88c.42.3.83.61 1.24.92a339.24 339.24 0 0 1 16.7-30.28c3.29-21.26 8.6-41.88 16.61-60.76a233.6 233.6 0 0 0-16.19-38.94c-6.11 10.23-11.65 20.72-16.66 31.38-.67 30.53-1.23 64.21-1.7 97.68Zm-.05 3.58.67-1.38c-.21-.23-.43-.46-.64-.67Zm-16.11-56.57c.12.73.25 1.46.37 2.2l.63-5.13c-.34.98-.67 1.96-1 2.93Zm-81.35 129.93 2-1.6c-.3-1.24-.6-2.46-.91-3.66l-1.35 3Zm3.3 4c-.31-1.41-.62-2.81-.94-4.18a65.8 65.8 0 0 0-2.17 2q.72 7.05 1.34 14.23c.42-1.57.86-3.15 1.31-4.72.15-2.54.31-4.98.46-7.36Zm1.15-16.54a.56.56 0 0 1 0-.12c0 .07-.06.13-.08.19l.09.24Zm6.38-15.21q-1.59 3.84-3.19 7.6c.17 1.86.36 3.81.57 5.83.63 1 1.26 2.1 1.9 3.17l.47-1.29q-.07-7.65.25-15.38Zm19-25.29q2.63-4.37 5.46-8.56-2.82-6.19-5.89-12.28c-.88 4.68-1.63 9.55-2.21 14.62.9 2.03 1.78 4.11 2.64 6.19Zm-1.07 20c.9 8.31 1.36 16.66 1.45 24.95 1.3.94 2.87 2.11 4.66 3.5a705.3 705.3 0 0 0-5.69-29.48Zm1.46 26.18q0 7.14-.24 14.2 2.88-2.73 6-5.36c-.17-1.09-.35-2.18-.53-3.25q-2.54-2.82-5.23-5.55Zm1.07 24.5q3-3 6.2-5.78-.6-4-1.21-7.92c-2.11 2.08-4.24 4.32-6.34 6.72q.62 3.46 1.35 6.99Zm7.39 2.58c-.18-1.33-.36-2.65-.55-3.95-1.71 2.29-3.55 4.86-5.47 7.66q1.66 7.26 3.79 14.8 1.01-9.39 2.23-18.5Zm24.22-76.92q.39 6.3.65 12.62c.66 1.21 1.31 2.41 1.95 3.62.05-.5.07-.77.07-.77.44 1.06.85 2.16 1.24 3.27q2.24 4.32 4.31 8.66c.79-8.74 1.64-17.58 2.54-26.47-.29-15.41-.62-30.67-1-45.26-3.95 14.93-7.17 29.79-9.76 44.34ZM3081 191.06a329 329 0 0 1 9.57 50.83c3.6-11.91 7.38-23.11 11.24-33.61a276.37 276.37 0 0 0-16.27-24.49c-1.45 2.21-2.98 4.65-4.54 7.27Zm-3.87-12.45q1.14 3.3 2.18 6.71 2-2.26 4-4.47-2.6-3.39-5.31-6.72Zm-3.77 102.91q-2.24-5.68-4.66-11.34c-1.22 1.77-2.5 3.74-3.8 5.89l-.77 1.73a86.87 86.87 0 0 1 10.25 16.48q-.47-6.46-1-12.76Zm-10.67-46.28q3.7 4.24 7.15 8.62c-.33-3.23-.67-6.4-1-9.53q-1.44-4.94-3-9.45-1.53 5.2-3.13 10.36Zm-22.41-57.5c1.85 1.64 3.65 3.31 5.38 5 2.93-4.13 6-8.1 9.23-11.86a128.75 128.75 0 0 0-8.83 12.27 127.78 127.78 0 0 1 12.14 14.1q2.28-7.59 4.23-15-.76-5.55-1.53-10.79a200.4 200.4 0 0 0-9.84-24.11 274.68 274.68 0 0 0-10.76 30.39Zm-5.71 22.63q4.83-8.61 10.31-16.49c-2-2.81-3.67-4.79-4.66-5.94-1.98 6.87-3.9 14.35-5.63 22.43Zm-1.4 6.91a203.22 203.22 0 0 1 16.96 14.72q3.43-9.61 6.35-19a146.35 146.35 0 0 0-11.19-18.58 205.64 205.64 0 0 0-11.94 22c-.05.28-.11.58-.16.86Zm-1.14 6.24a138.42 138.42 0 0 1 12.7 22.83l1-2.46c-1-.78-1.51-1.17-1.51-1.17.54.31 1.06.64 1.59 1 .54-1.41 1.08-2.82 1.61-4.23-5.28-6.57-10.4-12.27-15.14-17.14Zm-5.43 63.85q4.8-9.72 9-19.26a44.91 44.91 0 0 0-5.41-3.9c2.11.7 4.14 1.47 6.11 2.32 1.16-2.63 2.28-5.25 3.38-7.86a174.19 174.19 0 0 0-9.2-25.65 384.56 384.56 0 0 0-3.86 54.35Zm-8.34-76.56c.55 8.9 1.24 18.85 2 29.51 0 0 0-.11.07-.17q1.49-10.28 3.5-20.23c-1.83-3.42-3.77-6.45-5.55-9.11Zm-12.67-11.35c2.87 11.14 5.7 23 8.41 35.53.49-10.55.95-20.1 1.36-28.25a115.57 115.57 0 0 0-9.75-7.28ZM3001 293.65c-2.71-14.42-6.58-28-12-39.83l.18 2.14a357.38 357.38 0 0 1 4.24 47.1c.61 6.47 1.22 13 1.84 19.42 1.74-9.48 3.58-19.16 5.74-28.83Zm-26.6 26.1c.56-1.32 1.14-2.6 1.77-3.83 0 0 .51 4.64 1.4 12.22.81-30.74 2.13-62.29 3.38-88.46-1.48-2.4-2.33-3.67-2.33-3.67.81 1.07 1.59 2.18 2.35 3.3 1.7-35.49 3.27-61 3.27-61 0 14.06 2 42.27 4.78 75.42 3.88 7.18 8.51 16.37 13.33 27.25-.7-46.95-4-96.36-12.53-137.92q-1.82 7.24-3.38 14.8c.24-.39.47-.79.71-1.17 0 0-.27.49-.76 1.42-10.31 49.95-12.69 109.41-11.97 161.64Zm-27.79-75.11.21 7.56q1.66-4.95 3.35-9.66c-.94.54-2.17 1.24-3.54 2.1Zm-59.84 76.1c-.34-3.66-.83-7.2-1.43-10.6-.17 1.5-.33 3-.49 4.54.33 2.41.68 4.83 1.06 7.28.29-.41.59-.81.88-1.22Zm8.87-63.39a93.963 93.963 0 0 0-4.27 5.43q-.82 5.64-1.65 11.59c1.87-1.28 3.79-2.51 5.74-3.72q0-6.65.2-13.3Zm-.12 20.45-.92 1 .92-.85Zm-3.44 16.89c1.43 1.51 2.84 3 4.21 4.58-.16-2.88-.3-5.76-.42-8.66-1.23 1.27-2.5 2.64-3.77 4.08Zm26.91-7.55-.49 1.42.24 1.36c.11-.92.19-1.86.26-2.78Zm1.89-23.31c-1.06.94-2.13 1.89-3.21 2.89v5q1.39-2.13 2.91-4.22c.15-1.24.24-2.5.32-3.67Zm.79-14.18c-1.73-2.73-3.42-5.22-5.05-7.5q.66 9.14.91 18.25 1.85-1.26 3.74-2.49c.2-3.04.33-5.81.42-8.26Zm1 7.38c.84-.55 1.68-1.09 2.54-1.62-1-1.72-2-3.35-3-4.92.14 1.83.28 4.02.44 6.51Zm.45 7.22c1.35-1.71 2.75-3.4 4.23-5.05l-.3-.55c-1.32 1.08-2.68 2.21-4.06 3.4.01.71.07 1.45.11 2.2Zm1.72 29.81c.73-.22 1.46-.44 2.21-.64-.8-.92-1.6-1.8-2.39-2.65.04 1.08.1 2.23.16 3.29Zm4.14 1.61c-.61-.73-1.21-1.43-1.82-2.12-.53.27-1.31.7-2.28 1.28.45 8.53.91 17.73 1.34 27.24q1.63-13.51 2.78-26.4Zm1.95-29.63c-.3-.62-.61-1.23-.92-1.83a120.81 120.81 0 0 0-6.2 11.43c.24 4.11.49 8.51.74 13.16 1.59 1.49 3.13 3 4.63 4.53q1.15-14.02 1.73-27.33Zm-2.2-8.36c.46-.5.93-1 1.4-1.48l-1.56 1.23Zm10.77-109.87q-2.3 2.2-4.82 4.76a554.38 554.38 0 0 1 3.21 23.5c.58-9.98 1.11-19.45 1.59-28.26Zm-8.36-14.93q1.53 7.58 2.84 15.38c1.88-1.42 3.78-2.82 5.71-4.18.65-12.61 1.13-23.71 1.39-32.76a224.91 224.91 0 0 0-9.96 21.56Zm-4.18 27.89c-2.39 2.66-4.87 5.51-7.41 8.58-1.49 6.11-2.85 12.58-4 19.4a76.87 76.87 0 0 1 13.62-7.15s-6.65 4.62-15 15.54q-.82 5.73-1.49 11.76c1.78 10.45 3 21 3.85 31.68q2.71 3.31 5.24 6.8v-3.2s.09 1.27.24 3.6q2.4 3.3 4.64 6.73 2.34-1.41 4.72-2.78a604.2 604.2 0 0 0-4.43-90.96ZM2925.3 149c-.89 2.72-1.75 5.54-2.6 8.45 1.13-1 2.26-1.93 3.41-2.88-.27-1.93-.53-3.79-.81-5.57Zm-28.1 4.81q4.26 10.25 7.52 21c1.15-1.24 2.32-2.48 3.51-3.69a219.67 219.67 0 0 1 14.58-37.18c-1.51-8.33-3.15-16.13-4.84-23.38-3.07 4.44-12.29 18.84-20.77 43.2Zm-.43 75.94.48.72c.14-1.53.29-3.06.45-4.58-.14.31-.27.63-.4.95-.18.9-.3 1.88-.53 2.86Zm-.23 73.53q-1.64-2.22-3.27-4.29l.54 1.57c.94 1.14 1.87 2.28 2.77 3.44-.01-.29-.03-.53-.04-.77Zm-.05-63.38c-.36-.82-.71-1.62-1.07-2.41q-1.71 10-3.43 21.31c1.2-1.09 2.44-2.17 3.72-3.22q.29-7.88.78-15.73Zm-4.08-70.9c-2.4 8.53-4.62 18-6.45 28.32q4.86-6.54 10.12-12.8c-1.08-5.42-2.36-10.59-3.67-15.52Zm-38.12 77.88c.42.3.83.61 1.24.92a339.13 339.13 0 0 1 16.69-30.28c3.3-21.26 8.61-41.88 16.62-60.76a235.31 235.31 0 0 0-16.19-38.94c-6.11 10.23-11.65 20.72-16.67 31.38-.67 30.53-1.23 64.21-1.69 97.68Zm-.05 3.58.67-1.38-.64-.67Zm-16.11-56.57c.12.73.24 1.46.37 2.2.21-1.72.41-3.42.62-5.13Zm-115.94 128.59c1.63-9.5 3.52-19.16 5.69-28.83-2.71-14.42-6.57-28-12-39.83l.18 2.14a354 354 0 0 1 4.24 47.1c.7 6.47 1.27 12.94 1.89 19.42Zm5.78 44.68c-.19.48-.4.95-.59 1.44 0 1.76-.07 3.56-.1 5.35l.27 2.72.45-9.51Zm.59-15.82-.46-.63c-.09 1.64-.17 3.28-.25 5l.6-.89c.04-1.19.07-2.33.11-3.48Zm.39-13.6c-.32 4-.58 8.18-.82 12.39.16.15.3.31.45.46q.21-6.31.42-12.85Zm13.3-141a114.87 114.87 0 0 0-9.78-7.28c2.87 11.14 5.71 23 8.42 35.53.48-10.55.95-20.1 1.36-28.25Zm8.51 13.18c-1.94-3.42-3.83-6.45-5.61-9.11.54 8.9 1.24 18.85 2 29.51a.87.87 0 0 0 .07-.17q1.53-10.27 3.54-20.23Zm6 113.9c.66-.54 1.34-1.07 2-1.6-1.2-5-2.48-9.58-3.77-13.81q1.01 7.59 1.79 15.41Zm3.3 4c-.31-1.41-.62-2.81-.95-4.18-.72.64-1.44 1.3-2.17 2q.72 7.05 1.34 14.23c.43-1.57.86-3.15 1.31-4.72.18-2.54.33-4.98.49-7.36Zm1.14-16.54a113.42 113.42 0 0 0-7.48-17.69c0 .68.06 1.37.08 2.06q4.13 8 7.38 15.94Zm9.35-44.72c-.05-.32-.11-.64-.16-1-7.38-8-13.29-11.36-13.29-11.36a74.77 74.77 0 0 1 12.1 5.22 177.16 177.16 0 0 0-11.8-36.42 393.44 393.44 0 0 0-3.7 69.27c2.52 3.55 5.23 7.55 8 12 .88-11.71 1.53-19.14 1.53-19.14 0 5.28.65 13.84 1.71 24.35.63 1 1.27 2.1 1.9 3.17l.48-1.29a262.09 262.09 0 0 1 3.25-44.83Zm5.63-24.73c-.22-1.82-.45-3.62-.68-5.42-2.75-2.44-4.46-3.66-4.46-3.66 1.48.87 2.91 1.76 4.32 2.66q-.36-2.76-.75-5.47c-5.41-6.77-10.65-12.62-15.5-17.6-.08.4-.15.81-.22 1.21a142 142 0 0 1 16.3 31.73q.5-1.77 1.01-3.48Zm-16-35.38c-.06.28-.11.57-.17.86q6.67 5.16 12.79 10.77-2.24-13.83-4.93-26.53c-2.42 4.3-5.01 9.25-7.65 14.87Zm7.39-16.32q-.84-4-1.73-7.83c-1.56 5.65-3.05 11.69-4.42 18.1q3-5.29 6.19-10.3Zm52.07 77q.39 6.3.65 12.62c.66 1.21 1.31 2.41 2 3.62 0-.5.07-.77.07-.77.43 1.06.84 2.16 1.24 3.27q2.23 4.32 4.31 8.66c.79-8.74 1.64-17.58 2.54-26.47-.3-15.41-.62-30.67-1-45.26-3.97 14.92-7.19 29.78-9.77 44.33Zm-11.79-76.07a330.16 330.16 0 0 1 9.57 50.83q5.4-17.87 11.24-33.61a276.5 276.5 0 0 0-16.28-24.49c-1.38 2.21-2.95 4.65-4.49 7.27Zm-7.62-22.4c2.18 5.32 4.15 10.89 5.93 16.66q1.93-2.26 4-4.47-4.7-6.18-9.89-12.19Zm-.6 111.34q.76 6 1.45 11.88c-.28-3.48-.55-6.94-.84-10.34-.24-.54-.41-1.05-.61-1.54Zm-7-55.15c-.39 1.19-.78 2.4-1.16 3.62q1.1 5.78 2.1 11.54 1.59 1.92 3.13 3.87c-.33-3.23-.67-6.4-1-9.53-.95-3.35-1.98-6.49-3.04-9.52Zm-18.73-67.43c1.76 5.58 3.43 11.23 5 16.91q1.4-1.73 2.82-3.4-1.21 1.49-2.78 3.54 3.09 11.12 5.77 22.4 3.48 4.65 6.53 9.54c.32-.56.65-1.12 1-1.68q-2.25-18-4.48-33.22a202 202 0 0 0-9.85-24.11c-1.28 3.05-2.62 6.4-3.98 10Zm-13.9-38.09c4.09 9.67 7.83 19.69 11.27 29.94q1.92-3.63 4-7.06a123.55 123.55 0 0 0-15.27-22.88Zm-48.84-.59c6.2 17.78 13.85 41.79 21.29 70.69 2.57 1.37 5.08 2.79 7.55 4.25a73.82 73.82 0 0 0-5.91-6.89q4.35 3.53 8.27 7.29c.83-16.21 1.4-26.18 1.4-26.18 0 6.74.41 16.6 1.11 28.65l.26.27c2.51 1.59 5 3.23 7.38 4.92a248 248 0 0 1 10-33.18c-11.63-44.91-26.93-77.9-40.84-101.13a471.62 471.62 0 0 0-10.49 51.31Zm-9.49 200.09c.43-1 .89-2 1.37-2.91 0 0 .5 4.64 1.4 12.22.81-30.74 2.13-62.29 3.39-88.46-1.48-2.4-2.33-3.67-2.33-3.67.8 1.07 1.58 2.18 2.34 3.3 1.71-35.49 3.28-61 3.28-61 0 14.06 2 42.27 4.77 75.42 3.88 7.18 8.52 16.37 13.34 27.25-.84-56.2-5.44-115.93-18.18-161.48-2.69 17.76-4.73 36.35-6.23 55.28a130.27 130.27 0 0 1 9.21-18.09s-3.69 6.69-9.27 18.88l-.15 1.85a112.76 112.76 0 0 1 5.87-9.95s-2.27 3.84-5.94 11c-3.54 47.46-3.9 96.87-2.85 140.36Zm-28.19-74.19c.07 2.51.14 5 .2 7.56q1.68-4.95 3.36-9.66c-.94.54-2.13 1.24-3.54 2.1Zm-91.72 4.44c-.42-.44-.81-.85-1.2-1.23l-.33 2.11c.18.38.37.76.55 1.15.34-.68.67-1.36 1-2.03Zm31.87 71.66q-.51-5.49-1.43-10.6c-.16 1.5-.32 3-.48 4.54.33 2.41.68 4.83 1.05 7.28.3-.41.6-.81.88-1.22Zm8.87-63.39c-1.3 1.54-2.74 3.35-4.26 5.43q-.84 5.64-1.65 11.59c1.87-1.28 3.79-2.51 5.73-3.72q.02-6.65.2-13.3Zm-.12 20.45-.91 1 .91-.85Zm-3.38 16.89c1.44 1.51 2.85 3 4.21 4.58-.16-2.88-.3-5.76-.41-8.66a64.878 64.878 0 0 0-3.8 4.08Zm26.92-7.55c-.17.47-.33.95-.5 1.42.09.46.17.91.25 1.36.04-.92.13-1.86.21-2.78Zm1.89-23.31c-1.06.94-2.13 1.89-3.22 2.89v5q1.39-2.13 2.91-4.22c.1-1.24.19-2.5.27-3.67Zm.79-14.18c-1.73-2.73-3.43-5.22-5.06-7.5.45 6.09.74 12.18.92 18.25q1.85-1.26 3.73-2.49c.14-3.04.28-5.81.37-8.26Zm1 7.38c.85-.55 1.69-1.09 2.55-1.62-1-1.72-2-3.35-3-4.92.06 1.83.2 4.02.36 6.51Zm.46 7.22c1.34-1.71 2.75-3.4 4.22-5.05l-.3-.55c-1.32 1.08-2.68 2.21-4.06 3.4-.04.71 0 1.45.08 2.2Zm1.71 29.81c.73-.22 1.47-.44 2.21-.64-.8-.92-1.59-1.8-2.38-2.65-.03 1.08.03 2.23.08 3.29Zm4.15 1.61c-.61-.73-1.22-1.43-1.82-2.12-.53.27-1.31.7-2.28 1.28.45 8.53.91 17.73 1.34 27.24q1.56-13.51 2.67-26.4Zm2-29.63-.93-1.83a120.81 120.81 0 0 0-6.2 11.43c.24 4.11.49 8.51.75 13.16 1.58 1.49 3.13 3 4.63 4.53q1.03-14.02 1.61-27.33Zm-2.2-8.36c.45-.5.92-1 1.39-1.48l-1.55 1.23Zm10.76-109.87c-1.53 1.47-3.14 3.06-4.81 4.76 1.22 7.71 2.29 15.56 3.21 23.5.46-9.98 1-19.45 1.46-28.26Zm-8.48-14.93q1.55 7.58 2.85 15.38c1.87-1.42 3.78-2.82 5.71-4.18.64-12.61 1.12-23.71 1.39-32.76a227.23 227.23 0 0 0-9.95 21.56Zm-4.17 27.89c-2.4 2.66-4.87 5.51-7.42 8.58-1.48 6.11-2.84 12.58-4 19.4a77.12 77.12 0 0 1 13.59-7.15s-6.65 4.62-14.95 15.54q-.84 5.73-1.49 11.76c1.78 10.45 3 21 3.85 31.68q2.7 3.31 5.23 6.8c0-1.15.05-2.22.05-3.2 0 0 .08 1.27.24 3.6 1.6 2.2 3.14 4.44 4.64 6.73q2.32-1.41 4.72-2.78a605.52 605.52 0 0 0-4.48-90.96Zm-1.66-11.77q-1.34 4.08-2.6 8.45c1.12-1 2.26-1.93 3.4-2.88q-.39-2.87-.8-5.57Zm-28.11 4.81q4.26 10.25 7.52 21c1.16-1.24 2.33-2.48 3.51-3.69a220.52 220.52 0 0 1 14.58-37.18c-1.51-8.33-3.14-16.13-4.84-23.38-3.06 4.44-12.28 18.84-20.77 43.2Zm-.42 75.94c.16.24.32.48.47.72.14-1.53.29-3.06.45-4.58-.13.31-.26.63-.4.95-.16.9-.35 1.88-.52 2.86Zm-.24 73.53q-1.64-2.22-3.27-4.29c.19.52.37 1.05.54 1.57.95 1.14 1.87 2.28 2.78 3.44-.02-.29-.03-.53-.05-.77Zm-.05-63.38c-.35-.82-.71-1.62-1.06-2.41q-1.71 10-3.43 21.31c1.2-1.09 2.44-2.17 3.71-3.22.17-5.27.43-10.5.78-15.73Zm-4.07-70.9c-2.41 8.53-4.62 18-6.46 28.32q4.86-6.54 10.12-12.8-1.68-8.13-3.66-15.52Zm-38.5 77.61 1.62 1.19a336.63 336.63 0 0 1 16.69-30.28c3.29-21.26 8.6-41.88 16.61-60.76a238.09 238.09 0 0 0-14.49-35.67c-6.21 36.35-13.44 80.99-20.43 125.52ZM2565 193.89q1.4 8.22 2.82 16.93c6.81-25.3 13.7-49.78 20.06-71.88a406.47 406.47 0 0 0-22.88 54.95Zm-18.45 73.24q.39 6.3.65 12.62c.66 1.21 1.32 2.41 2 3.62 0-.5.06-.77.06-.77l.09.22c2.47-10.2 5-20.51 7.68-30.82-.2-9.92-.42-19.7-.66-29.2-4.02 14.92-7.24 29.78-9.83 44.33Zm-11.79-76.07a329 329 0 0 1 9.57 50.83c3.6-11.91 7.38-23.11 11.24-33.61a276.37 276.37 0 0 0-16.27-24.49c-1.48 2.21-3 4.65-4.55 7.27Zm-7.61-22.4c2.18 5.32 4.15 10.89 5.93 16.66q1.93-2.26 4-4.47-4.76-6.18-9.94-12.19Zm-78.08 153.82c1.63-9.5 3.51-19.16 5.69-28.83-2.71-14.42-6.58-28-12-39.83l.24 2.18a357.38 357.38 0 0 1 4.24 47.1c.58 6.43 1.19 12.9 1.82 19.38Zm5.78 44.68c-.2.48-.4.95-.59 1.44-.05 1.76-.08 3.56-.11 5.35.09.91.19 1.82.28 2.72.13-3.1.28-6.27.41-9.51Zm.59-15.82-.47-.63c-.09 1.64-.17 3.28-.25 5l.6-.89Zm.38-13.6c-.31 4-.58 8.18-.81 12.39l.45.46c.12-4.21.25-8.49.35-12.85Zm13.3-141a115.57 115.57 0 0 0-9.77-7.28c2.87 11.14 5.7 23 8.41 35.53.48-10.55.94-20.1 1.35-28.25Zm8.51 13.18a140.59 140.59 0 0 0-5.61-9.11c.55 8.9 1.24 18.85 2 29.51 0 0 0-.11.07-.17q1.52-10.27 3.53-20.23Zm6 113.9c.67-.54 1.34-1.07 2-1.6-1.21-5-2.48-9.58-3.77-13.81q.97 7.59 1.78 15.41Zm3.31 4c-.31-1.41-.63-2.81-.95-4.18-.72.64-1.44 1.3-2.17 2q.72 7.05 1.34 14.23c.42-1.57.86-3.15 1.31-4.72q.24-3.78.53-7.36Zm1.14-16.54a114.39 114.39 0 0 0-7.48-17.69c0 .68 0 1.37.08 2.06q4.13 8 7.38 15.94c.01-.13.02-.24.03-.34Zm9.35-44.72c-.06-.32-.11-.64-.17-1-7.38-8-13.29-11.36-13.29-11.36a74.39 74.39 0 0 1 12.1 5.22 177.19 177.19 0 0 0-11.8-36.42 393.44 393.44 0 0 0-3.7 69.27c2.51 3.55 5.22 7.55 8 12 .88-11.71 1.53-19.14 1.53-19.14 0 5.28.65 13.84 1.71 24.35.63 1 1.26 2.1 1.9 3.17l.47-1.29a262.1 262.1 0 0 1 3.26-44.83Zm6.77-28.47a68.55 68.55 0 0 0-6.28-5.34c2.16 1.27 4.23 2.59 6.25 3.93-.36-1.59-.73-3.17-1.1-4.74a243.52 243.52 0 0 0-17.09-19.6l-.21 1.21a142 142 0 0 1 16.3 31.73q1-3.64 2.14-7.22Zm13.43 80.51q-.63-5.83-1.32-11.52a669 669 0 0 0-3.5-17.29l-.42 1c.9 8.31 1.36 16.66 1.45 24.95q1.65 1.18 3.8 2.83Zm-3.78-1.6q0 7.14-.24 14.2c1.57-1.49 3.18-3 4.86-4.42q-.27-2.75-.55-5.46-1.92-2.22-4.06-4.32Zm1.07 24.5q2.18-2.19 4.5-4.29-.34-4.12-.73-8.19-2.57 2.6-5.12 5.5.62 3.42 1.36 6.95Zm5.9 14.47q-.42-6.72-.95-13.27a232.95 232.95 0 0 0-3.58 5.09q1.66 7.26 3.79 14.8.37-3.36.75-6.65Zm-1.44-130.68q1.84 6.26 3.57 12.51c-.13-1.15-.25-2.3-.37-3.44q-1.47-5-3.06-9.5c-.04.14-.08.26-.13.4Zm-21.19-60.63q2.64 6.36 5.12 12.84 2.59-3.37 5.32-6.56c-1.41 1.71-3.17 4-5.2 6.86q3.06 8 5.88 16.09a131.11 131.11 0 0 1 8.83 12.53c.33-.56.65-1.12 1-1.68q-2.25-18-4.49-33.22a200.4 200.4 0 0 0-9.84-24.11c-2.15 5.01-4.39 10.76-6.61 17.22Zm-9.88 35.74c1.35-2.4 2.73-4.77 4.16-7.08-.48-1.53-1-3-1.45-4.53q-1.4 5.55-2.7 11.58Zm-1.4 6.91q6.61 5.11 12.67 10.67-3.16-12.07-6.64-23.15c-1.9 3.51-3.87 7.38-5.87 11.62-.07.25-.07.55-.15.83ZM2438 118.74c6.21 17.78 13.85 41.79 21.29 70.69q3.86 2.06 7.56 4.25a75.77 75.77 0 0 0-5.91-6.89q4.35 3.53 8.27 7.29c.82-16.21 1.4-26.18 1.4-26.18 0 6.74.4 16.6 1.11 28.65l.26.27q3.77 2.38 7.38 4.92a260.21 260.21 0 0 1 7.28-25.73c-13.42-37.64-28.9-65.84-43.37-86.59-1.94 9.44-3.69 19.24-5.27 29.32Zm-9.49 200.09c.44-1 .89-2 1.37-2.91 0 0 .51 4.64 1.41 12.22.81-30.73 2.13-62.28 3.38-88.45-1.48-2.4-2.33-3.67-2.33-3.67.81 1.07 1.59 2.18 2.35 3.3 1.7-35.49 3.27-61 3.27-61 0 14.06 2 42.27 4.78 75.42 3.88 7.18 8.52 16.37 13.34 27.25-.85-56.2-5.44-115.93-18.19-161.48-2.69 17.76-4.72 36.35-6.23 55.28a131.37 131.37 0 0 1 9.21-18.09s-3.68 6.69-9.27 18.88c0 .61-.09 1.23-.14 1.85a112.7 112.7 0 0 1 5.86-9.95s-2.26 3.84-5.94 11c-3.56 47.45-3.87 96.86-2.83 140.35Zm-28.19-74.19.21 7.56q1.66-4.95 3.35-9.66c-.88.54-2.11 1.24-3.52 2.1Zm-59.84 76.1q-.51-5.49-1.43-10.6c-.16 1.5-.33 3-.49 4.54.33 2.41.68 4.83 1.06 7.28.32-.41.61-.81.9-1.22Zm8.87-63.39a93.963 93.963 0 0 0-4.27 5.43q-.82 5.64-1.65 11.59c1.87-1.28 3.79-2.51 5.74-3.72q.04-6.65.22-13.3Zm-.12 20.45-.92 1 .92-.85Zm-3.44 16.89c1.43 1.51 2.84 3 4.21 4.58-.16-2.88-.3-5.76-.42-8.66a144.39 144.39 0 0 0-3.75 4.08Zm26.92-7.55c-.17.47-.34.95-.5 1.42l.24 1.36c.13-.92.21-1.86.3-2.78Zm1.88-23.31c-1.06.94-2.13 1.89-3.21 2.89v5q1.39-2.13 2.91-4.22c.17-1.24.26-2.5.34-3.67Zm.79-14.18c-1.73-2.73-3.42-5.22-5.05-7.5q.66 9.14.91 18.25 1.84-1.26 3.74-2.49c.22-3.04.35-5.81.44-8.26Zm1 7.38c.85-.55 1.69-1.09 2.54-1.62-1-1.72-2-3.35-3-4.92.16 1.83.3 4.02.46 6.51Zm.45 7.22c1.35-1.71 2.75-3.4 4.23-5.05l-.3-.55c-1.32 1.08-2.68 2.21-4.06 3.4.04.71.09 1.45.13 2.2Zm1.72 29.81c.73-.22 1.46-.44 2.21-.64-.8-.92-1.6-1.8-2.39-2.65.06 1.08.12 2.23.18 3.29Zm4.14 1.61c-.6-.73-1.21-1.43-1.82-2.12-.53.27-1.3.7-2.28 1.28.46 8.53.91 17.73 1.34 27.24q1.65-13.51 2.76-26.4Zm2-29.63q-.46-.93-.93-1.83a120.81 120.81 0 0 0-6.2 11.43c.24 4.11.49 8.51.74 13.16 1.59 1.49 3.13 3 4.64 4.53q1.12-14.02 1.71-27.33Zm-2.21-8.36c.46-.5.93-1 1.4-1.48l-1.56 1.23Zm10.77-109.87c-1.53 1.47-3.14 3.06-4.81 4.76 1.22 7.71 2.28 15.56 3.21 23.5.55-9.98 1.09-19.45 1.56-28.26Zm-8.36-14.93q1.55 7.58 2.84 15.38c1.88-1.42 3.78-2.82 5.71-4.18.65-12.61 1.13-23.71 1.39-32.76a227.39 227.39 0 0 0-9.98 21.56Zm-4.18 27.89c-2.39 2.66-4.87 5.51-7.41 8.58-1.49 6.11-2.85 12.58-4 19.4a76.87 76.87 0 0 1 13.62-7.15s-6.65 4.62-14.95 15.54q-.84 5.73-1.49 11.76c1.77 10.45 3 21 3.84 31.68q2.72 3.31 5.24 6.8v-3.2s.09 1.27.25 3.6q2.38 3.3 4.64 6.73 2.32-1.41 4.72-2.78a605.41 605.41 0 0 0-4.5-90.96ZM2379 149c-.88 2.72-1.75 5.54-2.59 8.45q1.68-1.46 3.4-2.88-.36-2.87-.81-5.57Zm-28.1 4.81q4.26 10.25 7.52 21c1.15-1.24 2.32-2.48 3.51-3.69a219.67 219.67 0 0 1 14.58-37.18c-1.51-8.33-3.15-16.13-4.84-23.38-3.04 4.44-12.26 18.84-20.74 43.2Zm-.42 75.94c.15.24.31.48.47.72.14-1.53.29-3.06.45-4.58-.14.31-.27.63-.4.95-.15.9-.32 1.88-.49 2.86Zm-.24 73.53q-1.64-2.22-3.27-4.29l.54 1.57c.94 1.14 1.87 2.28 2.77 3.44.02-.29 0-.53-.01-.77Zm-.05-63.38c-.36-.82-.71-1.62-1.07-2.41q-1.71 10-3.43 21.31c1.2-1.09 2.44-2.17 3.72-3.22q.27-7.88.81-15.73Zm-4.05-70.9c-2.4 8.53-4.62 18-6.45 28.32q4.86-6.54 10.12-12.8c-1.12-5.42-2.36-10.59-3.67-15.52ZM2308 246.88c.42.3.83.61 1.24.92a336.73 336.73 0 0 1 16.7-30.28c3.29-21.26 8.6-41.88 16.61-60.76a235.31 235.31 0 0 0-16.19-38.94c-6.11 10.23-11.65 20.72-16.66 31.38-.7 30.53-1.22 64.21-1.7 97.68Zm-.05 3.58.67-1.38-.64-.67Zm-16.11-56.57c.12.73.24 1.46.37 2.2.21-1.72.42-3.42.62-5.13Zm-50.04 147.58q3-3 6.2-5.78c-.4-2.69-.8-5.33-1.22-7.92q-3.17 3.12-6.34 6.72.63 3.45 1.36 6.98Zm4.67-15.66c-.18-1.09-.35-2.18-.53-3.25-1.69-1.89-3.42-3.75-5.21-5.59q0 7.14-.25 14.2 2.88-2.73 5.99-5.36Zm2.72 18.24c-.18-1.33-.37-2.65-.55-3.95-1.71 2.29-3.56 4.86-5.47 7.66q1.66 7.26 3.78 14.8 1.05-9.4 2.24-18.51Zm24.22-76.92q.39 6.3.65 12.62c.66 1.21 1.31 2.41 2 3.62 0-.5.07-.77.07-.77.43 1.06.84 2.16 1.24 3.27q2.23 4.32 4.31 8.66c.79-8.74 1.64-17.58 2.54-26.47-.29-15.41-.62-30.67-1-45.26-4.01 14.92-7.22 29.78-9.81 44.33Zm-11.79-76.07a330.16 330.16 0 0 1 9.57 50.83c3.6-11.91 7.38-23.11 11.24-33.61a274.31 274.31 0 0 0-16.28-24.49c-1.47 2.21-2.99 4.65-4.53 7.27Zm-7.62-22.4c2.18 5.32 4.15 10.89 5.93 16.66 1.29-1.51 2.63-3 4-4.47q-4.74-6.18-9.93-12.19Zm-4.68 101.52c-1.22 1.77-2.5 3.74-3.8 5.89-.26.57-.51 1.14-.77 1.73a86.87 86.87 0 0 1 10.25 16.48q-.49-6.46-1-12.76c-1.51-3.79-3.07-7.52-4.68-11.34Zm-3.52-8q-1.49-3.27-3.05-6.51-.23 6-.53 12c1.16-1.84 2.36-3.67 3.58-5.48Zm.59-37.36q-1.65 5-3.12 10.37 3.72 4.26 7.19 8.66c-.33-3.23-.67-6.4-1-9.53q-1.46-4.95-3.07-9.49Zm-5.28-54.55a624.27 624.27 0 0 1 1.87 32.94c.7 1.05 1.37 2.11 2 3.17.32-.56.65-1.12 1-1.68-1.49-12-3-23.08-4.48-33.22-.12-.39-.25-.8-.39-1.2Zm-1.06 129.15c.39 5.44.61 10.89.67 16.31 1.29.94 2.86 2.11 4.66 3.5-1.59-9.3-3.24-17.84-4.86-25.55q-.22 2.89-.47 5.75Zm-29.54 24.39c.66-.54 1.34-1.07 2-1.6-1.2-5-2.47-9.58-3.77-13.81q.95 7.6 1.77 15.42Zm3.3 4c-.31-1.41-.62-2.81-.95-4.18-.72.64-1.44 1.3-2.17 2q.69 6.69 1.28 13.48.83-3.84 1.6-7.63c.08-1.27.16-2.48.24-3.69Zm1.14-16.54a114.35 114.35 0 0 0-7.47-17.69c0 .68.05 1.37.07 2.06q4.13 8 7.38 15.94Zm13-130c-.41.62-.83 1.26-1.26 1.93l1.34 1.35c-.03-1.12-.03-2.21-.1-3.3Zm-7-3.51c1.85 1.64 3.65 3.31 5.38 5 .54-.76 1.08-1.51 1.63-2.26q-.3-10.89-1-21.12c-2.07 5.55-4.11 11.62-6.06 18.36Zm-5.71 22.63q4.83-8.61 10.3-16.49c-2-2.81-3.66-4.79-4.65-5.94-2.06 6.85-3.97 14.33-5.7 22.41Zm-1.41 6.91q7.28 5.63 13.88 11.79c.43-10.91.54-21.41.4-31.51-.76-1.13-1.49-2.18-2.18-3.14a205.78 205.78 0 0 0-11.93 22c-.11.26-.16.56-.22.84Zm-1.14 6.24a140.11 140.11 0 0 1 13.91 25.62c.11-1.61.22-3.2.32-4.79-1.32-1.09-2.08-1.63-2.08-1.63.71.42 1.41.84 2.1 1.27.12-1.84.23-3.68.33-5.5-5-6.17-9.85-11.55-14.36-16.18-.13.38-.2.79-.27 1.19Zm-5.2 78.77c2.51 3.55 5.22 7.55 8 12 .89-11.71 1.53-19.14 1.53-19.14 0 4.69.51 11.95 1.37 20.88q3.59-20.94 5.74-40.45c-7.36-8-13.26-11.34-13.26-11.34a74.77 74.77 0 0 1 12.1 5.22 177.16 177.16 0 0 0-11.84-36.48 392.56 392.56 0 0 0-3.69 69.29Zm-8.56-91.48c.54 8.9 1.24 18.85 2 29.51a.87.87 0 0 0 .07-.17q1.5-10.28 3.51-20.23c-1.96-3.44-3.85-6.47-5.63-9.13Zm-12.68-11.35c2.87 11.14 5.71 23 8.42 35.53.48-10.55 1-20.1 1.36-28.25a114.87 114.87 0 0 0-9.83-7.3Zm-10.28 133c1.64-9.5 3.52-19.16 5.7-28.83-2.71-14.42-6.58-28-12-39.83.06.71.12 1.42.19 2.14a357.38 357.38 0 0 1 4.24 47.1c.58 6.47 1.2 12.94 1.82 19.42Zm5.79 44.68c-.2.48-.4.95-.6 1.44 0 1.76-.07 3.56-.1 5.35l.27 2.72q.17-4.67.38-9.51Zm.58-15.82-.46-.63c-.09 1.64-.17 3.28-.25 5l.6-.89c-.01-1.19.02-2.33.06-3.48Zm.39-13.6c-.32 4-.58 8.18-.82 12.39.16.15.3.31.46.46q.14-6.31.31-12.85Zm-27.26-18.91c.44-1 .89-2 1.37-2.91 0 0 .5 4.64 1.4 12.22.81-30.73 2.13-62.28 3.39-88.45-1.48-2.4-2.33-3.67-2.33-3.67.8 1.07 1.58 2.18 2.34 3.3 1.71-35.49 3.28-61 3.28-61 0 14.06 2 42.27 4.77 75.42 3.88 7.18 8.52 16.37 13.34 27.25-.84-56.2-5.44-115.93-18.18-161.48-2.69 17.76-4.73 36.35-6.23 55.28a130.27 130.27 0 0 1 9.21-18.09s-3.69 6.69-9.27 18.88l-.15 1.85a112.76 112.76 0 0 1 5.87-9.95s-2.26 3.84-5.94 11c-3.65 47.45-3.96 96.86-2.92 140.35Zm-28.19-74.19c.07 2.51.14 5 .2 7.56q1.68-4.95 3.36-9.66c-1.01.54-2.2 1.24-3.61 2.1Zm-51 12.71c-1.3 1.54-2.74 3.35-4.26 5.43q-.84 5.64-1.65 11.59c1.87-1.28 3.79-2.51 5.73-3.72q-.03-6.65.15-13.3Zm-.12 20.45-.91 1 .91-.85Zm-3.44 16.89c1.44 1.51 2.85 3 4.21 4.58-.16-2.88-.3-5.76-.41-8.66-1.28 1.27-2.52 2.64-3.83 4.08Zm26.92-7.55c-.17.47-.33.95-.5 1.42.09.46.17.91.25 1.36.05-.92.14-1.86.22-2.78Zm1.89-23.31c-1.06.94-2.13 1.89-3.22 2.89v5c.93-1.42 1.91-2.83 2.92-4.22.1-1.24.19-2.5.27-3.67Zm.79-14.18c-1.73-2.73-3.42-5.22-5.05-7.5q.66 9.14.91 18.25 1.84-1.26 3.73-2.49c.15-3.04.29-5.81.38-8.26Zm1 7.38c.84-.55 1.68-1.09 2.54-1.62-1-1.72-2-3.35-3-4.92.08 1.83.23 4.02.39 6.51Zm.45 7.22c1.34-1.71 2.75-3.4 4.23-5.05l-.3-.55q-2 1.62-4.07 3.4c-.02.71.02 1.45.07 2.2Zm1.72 29.81c.72-.22 1.46-.44 2.2-.64-.8-.92-1.59-1.8-2.38-2.65-.01 1.08.05 2.23.11 3.29Zm4.14 1.61c-.61-.73-1.22-1.43-1.82-2.12-.53.27-1.31.7-2.28 1.28.45 8.53.91 17.73 1.34 27.24q1.58-13.51 2.69-26.4Zm2-29.63-.92-1.83a120.8 120.8 0 0 0-6.21 11.43c.24 4.11.5 8.51.75 13.16 1.58 1.49 3.13 3 4.63 4.53q1.05-14.02 1.63-27.33Zm-2.2-8.36c.46-.5.92-1 1.39-1.48l-1.55 1.23Zm10.76-109.87c-1.53 1.47-3.14 3.06-4.81 4.76 1.22 7.71 2.29 15.56 3.21 23.5.48-9.98 1.02-19.45 1.48-28.26Zm-8.35-14.93q1.53 7.58 2.84 15.38c1.87-1.42 3.78-2.82 5.71-4.18.65-12.61 1.13-23.71 1.39-32.76a224.91 224.91 0 0 0-10.06 21.56Zm-4.18 27.89c-2.4 2.66-4.87 5.51-7.42 8.58-1.48 6.11-2.84 12.58-4 19.4a77.12 77.12 0 0 1 13.61-7.15s-6.65 4.62-14.95 15.54q-.84 5.73-1.49 11.76c1.78 10.45 3 21 3.85 31.68q2.7 3.31 5.23 6.8c0-1.15.05-2.22.05-3.2 0 0 .09 1.27.24 3.6 1.6 2.2 3.14 4.44 4.64 6.73q2.32-1.41 4.72-2.78a605.52 605.52 0 0 0-4.6-90.96ZM2105.9 149q-1.33 4.08-2.6 8.45c1.12-1 2.26-1.93 3.4-2.88q-.39-2.87-.8-5.57Zm-28.11 4.81q4.26 10.25 7.52 21c1.16-1.24 2.33-2.48 3.51-3.69a220.52 220.52 0 0 1 14.58-37.18c-1.51-8.33-3.14-16.13-4.83-23.38-3.07 4.44-12.29 18.84-20.78 43.2Zm-.42 75.94c.16.24.32.48.47.72.15-1.53.29-3.06.45-4.58-.13.31-.26.63-.4.95-.17.9-.34 1.88-.52 2.86Zm-.23 73.53c-1.09-1.48-2.19-2.91-3.28-4.29.19.52.37 1.05.54 1.57.95 1.14 1.87 2.28 2.78 3.44-.02-.29-.03-.53-.04-.77Zm-.06-63.38c-.35-.82-.71-1.62-1.06-2.41q-1.71 10-3.43 21.31c1.2-1.09 2.44-2.17 3.71-3.22q.25-7.88.78-15.73ZM2073 169a289.66 289.66 0 0 0-6.45 28.32q4.84-6.54 10.11-12.8-1.66-8.13-3.66-15.52Zm-54.29 24.89q1.17 6.92 2.37 14.18c5.77 11.58 11.62 23.28 17.45 34.88 4.37-8.62 9.12-17.13 14.28-25.43 3.29-21.26 8.61-41.88 16.61-60.76a234.53 234.53 0 0 0-16.18-38.94 390.45 390.45 0 0 0-34.52 76.07Zm-7.11 106.83-.44-.44.45 1v-.56Zm0-2-.41.79.43.39Zm-9.74-17.28 1 1.93c0-.5.06-.77.06-.77.44 1.06.85 2.16 1.25 3.27q2.77 5.38 5.31 10.8l2-3.13c-.33-19.7-.71-39.61-1.15-58.66l-1.23-3.38c-1.87 17-4.37 33.73-7.26 49.94Zm-64.47 42.38c.67-.54 1.35-1.07 2-1.6-1.2-5-2.48-9.58-3.77-13.81q.94 7.59 1.75 15.41Zm3.31 4c-.31-1.41-.63-2.81-1-4.18-.72.64-1.44 1.3-2.17 2q.72 7.05 1.34 14.23c.42-1.57.86-3.15 1.31-4.72q.26-3.78.5-7.36Zm1.14-16.54a114.39 114.39 0 0 0-7.48-17.69c0 .68.05 1.37.08 2.06q4.13 8 7.38 15.94c-.02-.13-.01-.24 0-.34Zm25-61.34q-1.33 7-2.22 14.62c.91 2.06 1.78 4.14 2.64 6.22q2.63-4.37 5.47-8.56-2.88-6.22-5.95-12.31Zm10.55-6c-.34-3.23-.67-6.4-1-9.53-1-3.31-2-6.47-3.06-9.5-1.1 3.32-2.15 6.78-3.12 10.37q3.63 4.18 7.12 8.58Zm-5.77 77.31c-1.29-1.41-2.62-2.81-4-4.2 0 4.76 0 9.5-.24 14.2.44-.41.87-.83 1.32-1.24q1.46-4.49 2.86-8.84Zm.66-2.07a688.146 688.146 0 0 0-5.67-29.34l-.42 1c.91 8.31 1.36 16.66 1.45 24.95 1.29.93 2.84 2.09 4.61 3.45Zm9.13-31.32q-.25-3.15-.51-6.26-2.23-5.68-4.65-11.34c-1.22 1.77-2.5 3.74-3.81 5.89-.25.57-.51 1.14-.76 1.73a84.53 84.53 0 0 1 8.77 13.56c.27-1.28.55-2.44.9-3.66Zm5.45-102.46q1.93-2.26 4-4.47-4.74-6.18-9.92-12.19c2.11 5.26 4.06 10.81 5.86 16.58Zm5.66-.68c-1.29 2-2.63 4.13-4 6.42a290.72 290.72 0 0 1 6.63 30q1.59-10.84 2.7-21.19-2.75-7.76-5.39-15.31Zm-26.17-53.58q2.65 9.1 5.08 18.32a147.21 147.21 0 0 1 9.35 18.91c2.14 2.32 5.71 6.34 10.24 12-7.26-20.94-13.92-40.68-19.67-58-1.03 1.52-2.8 4.43-5.06 8.69Zm-18.53 46.68c1.85 1.64 3.65 3.31 5.38 5 2.94-4.13 6-8.1 9.23-11.86a128.75 128.75 0 0 0-8.83 12.27 130.1 130.1 0 0 1 18.34 23.21l1-1.68q-2.25-18-4.49-33.22a200.4 200.4 0 0 0-9.84-24.11 274.68 274.68 0 0 0-10.85 30.31Zm-5.71 22.63q4.85-8.61 10.31-16.49c-2-2.81-3.67-4.79-4.66-5.94-2.06 6.79-3.98 14.27-5.71 22.35Zm-1.4 6.91a203.55 203.55 0 0 1 21.46 19.2c1.9-4.71 4-9.35 6.36-13.88a153.9 153.9 0 0 0-15.72-28.18 205.78 205.78 0 0 0-11.93 22c-.12.2-.17.5-.23.78Zm-1.14 6.24a142 142 0 0 1 16.3 31.73c.67-2.41 1.37-4.81 2.14-7.19a69.3 69.3 0 0 0-6.29-5.34q3.45 2 6.66 4.2l.57-1.73c-.45-.78-.89-1.56-1.35-2.34a241 241 0 0 0-17.82-20.54Zm-5.21 78.77c2.51 3.55 5.22 7.55 8 12 .88-11.71 1.53-19.14 1.53-19.14 0 5.28.65 13.84 1.71 24.35.63 1 1.26 2.1 1.9 3.17l.47-1.29a262.1 262.1 0 0 1 3.22-44.82c-.05-.32-.11-.64-.17-1-7.37-8-13.29-11.36-13.29-11.36a74.39 74.39 0 0 1 12.1 5.22A177.19 177.19 0 0 0 1938 223a393.44 393.44 0 0 0-3.7 69.29Zm-8.56-91.48c.55 8.9 1.24 18.85 2 29.51 0 0 0-.11.07-.17q1.49-10.28 3.51-20.23c-1.96-3.5-3.86-6.53-5.64-9.19Zm-12.67-11.35c2.87 11.14 5.7 23 8.42 35.53.48-10.55.94-20.1 1.35-28.25a115.57 115.57 0 0 0-9.83-7.36Zm-10.28 133c1.63-9.5 3.52-19.16 5.69-28.83-2.71-14.42-6.58-28-12-39.83l.18 2.14c2.4 14.06 3.69 30.23 4.24 47.1q.9 9.66 1.83 19.36Zm5.78 44.68c-.2.48-.4.95-.59 1.44 0 1.76-.08 3.56-.11 5.35.1.91.19 1.82.28 2.72q.17-4.73.36-9.57Zm.59-15.82-.46-.63c-.09 1.64-.18 3.28-.25 5 .19-.3.39-.6.59-.89Zm.38-13.6c-.31 4-.58 8.18-.81 12.39l.45.46q.15-6.37.3-12.91Zm-27.26-18.91c.44-1 .89-2 1.37-2.91 0 0 .51 4.64 1.41 12.22.81-30.73 2.13-62.28 3.38-88.45-1.48-2.4-2.33-3.67-2.33-3.67.81 1.07 1.59 2.18 2.35 3.3 1.7-35.49 3.28-61 3.28-61 0 14.06 2 42.27 4.77 75.42 3.88 7.18 8.52 16.37 13.34 27.25-.84-56.2-5.44-115.93-18.19-161.48-2.69 17.76-4.72 36.35-6.22 55.28a130.24 130.24 0 0 1 9.2-18.09s-3.68 6.69-9.27 18.88c0 .61-.09 1.23-.14 1.85a115.22 115.22 0 0 1 5.86-9.95s-2.26 3.84-5.94 11c-3.65 47.39-3.97 96.8-2.93 140.29Zm-28.19-74.19c.07 2.51.14 5 .21 7.56q1.67-4.95 3.35-9.66c-1.01.48-2.21 1.18-3.62 2.04Zm-59.84 76.1q-.51-5.49-1.43-10.6c-.16 1.5-.33 3-.49 4.54.33 2.41.68 4.83 1.06 7.28.22-.47.55-.87.8-1.28Zm8.87-63.39c-1.3 1.54-2.74 3.35-4.27 5.43q-.82 5.64-1.65 11.59c1.87-1.28 3.79-2.51 5.74-3.72q-.06-6.71.12-13.36Zm-.18 20.39-.92 1 .92-.85Zm-3.44 16.89c1.44 1.51 2.85 3 4.21 4.58-.16-2.88-.3-5.76-.41-8.66a95.454 95.454 0 0 0-3.8 4.08Zm26.92-7.55c-.17.47-.34.95-.5 1.42.08.46.17.91.25 1.36.08-.92.16-1.86.25-2.78Zm1.89-23.31c-1.06.94-2.14 1.89-3.22 2.89v5q1.39-2.13 2.91-4.22c.13-1.24.22-2.5.31-3.67Zm.78-14.18c-1.73-2.73-3.42-5.22-5.05-7.5q.66 9.14.91 18.25 1.85-1.26 3.74-2.49c.18-3.04.32-5.81.4-8.26Zm1 7.38c.85-.55 1.69-1.09 2.55-1.62-1-1.72-2-3.35-3-4.92.11 1.83.3 4.02.41 6.51Zm.45 7.22c1.35-1.71 2.75-3.4 4.23-5.05l-.3-.55c-1.32 1.08-2.68 2.21-4.06 3.4 0 .71.05 1.45.09 2.2Zm1.72 29.81c.73-.22 1.46-.44 2.21-.64-.8-.92-1.6-1.8-2.39-2.65.02 1.08.08 2.23.14 3.29Zm4.15 1.61c-.61-.73-1.22-1.43-1.82-2.12-.54.27-1.31.7-2.29 1.28.46 8.53.92 17.73 1.34 27.24q1.61-13.51 2.73-26.4Zm2-29.63-.93-1.83a120.81 120.81 0 0 0-6.2 11.43c.24 4.11.49 8.51.75 13.16 1.58 1.49 3.13 3 4.63 4.53q1.08-14.02 1.66-27.33Zm-2.21-8.36c.46-.5.93-1 1.4-1.48l-1.56 1.23Zm10.77-109.87c-1.53 1.47-3.14 3.06-4.81 4.76 1.22 7.71 2.29 15.56 3.21 23.5.51-9.98 1.05-19.45 1.51-28.26Zm-8.36-14.93q1.55 7.58 2.84 15.38c1.88-1.42 3.78-2.82 5.71-4.18.65-12.61 1.13-23.71 1.39-32.76a227.39 227.39 0 0 0-10.03 21.56Zm-4.17 27.89c-2.4 2.66-4.88 5.51-7.42 8.58q-2.23 9.17-4 19.4a76.87 76.87 0 0 1 13.62-7.15s-6.65 4.62-14.95 15.54q-.84 5.73-1.49 11.76c1.77 10.45 3 21 3.85 31.68q2.7 3.31 5.23 6.8v-3.2s.09 1.27.25 3.6q2.38 3.3 4.64 6.73 2.32-1.41 4.72-2.78a605.52 605.52 0 0 0-4.54-90.96Zm-1.74-11.77c-.88 2.72-1.75 5.54-2.59 8.45 1.12-1 2.26-1.93 3.4-2.88q-.39-2.87-.81-5.57Zm-28.1 4.81q4.26 10.25 7.52 21c1.16-1.24 2.32-2.48 3.51-3.69a220.52 220.52 0 0 1 14.58-37.18c-1.51-8.33-3.14-16.13-4.84-23.38-3.07 4.44-12.28 18.84-20.77 43.2Zm-.42 75.94.47.72c.14-1.53.29-3.06.45-4.58-.13.31-.27.63-.4.95-.17.9-.35 1.88-.52 2.86Zm-.24 73.53q-1.63-2.22-3.27-4.29l.54 1.57c.94 1.14 1.87 2.28 2.78 3.44-.05-.29-.05-.53-.05-.77Zm0-63.38c-.36-.82-.71-1.62-1.07-2.41q-1.71 10-3.42 21.31c1.2-1.09 2.43-2.17 3.71-3.22q.19-7.88.78-15.73Zm-4.13-70.9c-2.4 8.53-4.62 18-6.45 28.32q4.86-6.54 10.12-12.8-1.68-8.13-3.67-15.52Zm-36.9 3.45a526.63 526.63 0 0 1 7 61.84q4.61-8.49 9.75-16.77c3.29-21.26 8.6-41.88 16.61-60.76a235.31 235.31 0 0 0-16.19-38.94c-6.11 10.23-11.65 20.72-16.66 31.38q-.28 11.37-.48 23.25Zm-17.38 21.44c.12.73.25 1.46.37 2.2l.63-5.13c-.34.98-.67 1.96-1 2.93Zm-81.35 129.93c.66-.54 1.34-1.07 2-1.6-1.2-5-2.47-9.58-3.77-13.81q.97 7.59 1.77 15.41Zm3.3 4c-.31-1.41-.62-2.81-.94-4.18a65.8 65.8 0 0 0-2.17 2q.72 7.05 1.33 14.23c.43-1.57.87-3.15 1.32-4.72.15-2.54.31-4.98.46-7.36Zm1.14-16.54a114.35 114.35 0 0 0-7.47-17.69c0 .68 0 1.37.08 2.06q4.11 8 7.37 15.94Zm25.39-40.5q2.63-4.37 5.46-8.56-2.82-6.19-5.89-12.28c-.88 4.68-1.63 9.55-2.21 14.62.9 2.03 1.78 4.11 2.64 6.19Zm-1.07 20c.9 8.31 1.36 16.66 1.45 24.95 1.3.94 2.86 2.11 4.66 3.5a705.3 705.3 0 0 0-5.69-29.48Zm1.46 26.18c0 4.76-.06 9.5-.24 14.2 1.91-1.82 3.91-3.61 6-5.36-.17-1.09-.35-2.18-.53-3.25q-2.54-2.82-5.23-5.55Zm1.07 24.5q3-3 6.2-5.78-.6-4-1.21-7.92-3.18 3.12-6.34 6.72.61 3.46 1.35 6.99Zm7.39 2.58c-.18-1.33-.36-2.65-.55-3.95-1.71 2.29-3.56 4.86-5.47 7.66q1.66 7.26 3.79 14.8 1-9.39 2.23-18.5Zm24.22-76.92q.39 6.3.65 12.62c.66 1.21 1.31 2.41 2 3.62 0-.5.07-.77.07-.77.43 1.06.84 2.16 1.24 3.27q2.23 4.32 4.31 8.66c.79-8.74 1.64-17.58 2.54-26.47-.29-15.41-.62-30.67-1-45.26-4.01 14.93-7.22 29.78-9.81 44.34Zm-11.79-76.07a329 329 0 0 1 9.57 50.83c3.6-11.91 7.38-23.11 11.24-33.61a274.31 274.31 0 0 0-16.28-24.49c-1.47 2.22-2.99 4.66-4.53 7.28Zm-7.61-22.4c2.17 5.32 4.14 10.89 5.92 16.66q2-2.26 4-4.47-4.74-6.17-9.92-12.18Zm-4.69 101.52c-1.22 1.77-2.5 3.74-3.8 5.89-.26.57-.51 1.14-.77 1.73a86.87 86.87 0 0 1 10.25 16.48q-.49-6.46-1-12.76c-1.51-3.78-3.07-7.51-4.68-11.33Zm-2.92-45.35q-1.67 5-3.12 10.37 3.71 4.26 7.18 8.66c-.33-3.23-.67-6.4-1-9.53q-1.46-4.95-3.06-9.49Zm-25.5-47.09c1.85 1.64 3.65 3.31 5.38 5 2.93-4.13 6-8.1 9.23-11.86a130.29 130.29 0 0 0-8.84 12.27 130.16 130.16 0 0 1 18.35 23.21q.48-.84 1-1.68-2.25-18-4.49-33.22a203.75 203.75 0 0 0-9.84-24.11 270.62 270.62 0 0 0-10.79 30.4Zm-5.71 22.63q4.83-8.61 10.3-16.49c-2-2.81-3.66-4.79-4.65-5.94-2.01 6.88-3.92 14.36-5.65 22.44Zm-1.4 6.91a205.57 205.57 0 0 1 21.46 19.2c1.89-4.71 4-9.35 6.36-13.88a155.1 155.1 0 0 0-15.72-28.18 205.64 205.64 0 0 0-11.94 22c-.05.29-.11.59-.16.87Zm-1.15 6.24a142.43 142.43 0 0 1 16.31 31.73q1-3.62 2.13-7.19a70.26 70.26 0 0 0-6.28-5.34c2.3 1.36 4.51 2.76 6.66 4.2.19-.58.37-1.15.57-1.73l-1.35-2.34a242.77 242.77 0 0 0-17.82-20.54c-.07.41-.15.82-.22 1.22Zm-5.2 78.77c2.51 3.55 5.22 7.55 8 12 .89-11.71 1.54-19.14 1.54-19.14 0 5.28.64 13.84 1.7 24.35.64 1 1.27 2.1 1.91 3.17.15-.43.31-.86.47-1.29a261.09 261.09 0 0 1 3.22-44.82c-.06-.32-.11-.64-.17-1-7.38-8-13.29-11.36-13.29-11.36a74.77 74.77 0 0 1 12.1 5.22 177.16 177.16 0 0 0-11.79-36.41 393.51 393.51 0 0 0-3.69 69.29Zm-8.56-91.48c.55 8.9 1.24 18.85 2 29.51l.06-.17q1.5-10.28 3.51-20.23c-1.9-3.41-3.79-6.44-5.57-9.1Zm-12.67-11.35c2.86 11.14 5.7 23 8.41 35.53.48-10.55 1-20.1 1.36-28.25a117.39 117.39 0 0 0-9.77-7.27Zm-10.29 133c1.64-9.5 3.52-19.16 5.7-28.83-2.71-14.42-6.58-28-12-39.83l.18 2.14a357.38 357.38 0 0 1 4.24 47.1c.64 6.5 1.23 12.97 1.88 19.45Zm5.79 44.68-.6 1.44c0 1.76-.07 3.56-.1 5.35.09.91.18 1.82.28 2.72q.21-4.64.42-9.48Zm.58-15.82-.46-.63c-.09 1.64-.17 3.28-.25 5l.6-.89c.09-1.16.09-2.3.09-3.45Zm.39-13.6c-.32 4-.58 8.18-.82 12.39.16.15.3.31.46.46q.2-6.28.36-12.82Zm-27.26-18.91c.44-1 .89-2 1.37-2.91 0 0 .51 4.64 1.4 12.22.81-30.73 2.13-62.28 3.38-88.45-1.48-2.4-2.33-3.67-2.33-3.67.81 1.07 1.58 2.18 2.35 3.3 1.7-35.49 3.27-61 3.27-61 0 14.06 2 42.27 4.77 75.42 3.88 7.18 8.52 16.37 13.34 27.25-.84-56.2-5.44-115.93-18.18-161.48-2.69 17.76-4.72 36.35-6.23 55.28a130.27 130.27 0 0 1 9.21-18.09s-3.69 6.69-9.27 18.88c0 .61-.1 1.23-.14 1.85a110.3 110.3 0 0 1 5.86-9.95s-2.26 3.84-5.94 11c-3.59 47.48-3.9 96.89-2.86 140.38ZM1581 244.64l.21 7.56q1.66-4.95 3.35-9.66c-1 .54-2.19 1.24-3.56 2.1Zm-59.85 76.1c-.33-3.66-.82-7.2-1.42-10.6-.17 1.5-.33 3-.49 4.54.33 2.41.68 4.83 1 7.28.29-.41.59-.81.87-1.22Zm8.87-63.39c-1.3 1.54-2.74 3.35-4.26 5.43q-.84 5.64-1.65 11.59c1.87-1.28 3.79-2.51 5.74-3.72q-.05-6.65.15-13.3Zm-.12 20.45-.91 1 .92-.85Zm-3.44 16.89c1.44 1.51 2.85 3 4.21 4.58-.16-2.88-.29-5.76-.41-8.66-1.26 1.27-2.56 2.64-3.84 4.08Zm26.92-7.55c-.17.47-.33.95-.49 1.42l.24 1.36c.05-.92.13-1.86.21-2.78Zm1.89-23.31c-1.06.94-2.13 1.89-3.22 2.89v5q1.41-2.13 2.92-4.22c.09-1.24.18-2.5.26-3.67Zm.79-14.18a216.71 216.71 0 0 0-5-7.5q.66 9.14.91 18.25 1.84-1.26 3.73-2.49c.1-3.04.23-5.81.3-8.26Zm1 7.38c.84-.55 1.68-1.09 2.54-1.62-1-1.72-2-3.35-3-4.92.07 1.83.22 4.02.4 6.51Zm.45 7.22c1.34-1.71 2.75-3.4 4.23-5.05l-.3-.55c-1.33 1.08-2.68 2.21-4.07 3.4-.03.71.01 1.45.06 2.2Zm1.72 29.81c.72-.22 1.46-.44 2.21-.64-.81-.92-1.6-1.8-2.39-2.65-.05 1.08.04 2.23.1 3.29Zm4.14 1.61c-.61-.73-1.21-1.43-1.82-2.12-.53.27-1.31.7-2.28 1.28.45 8.53.91 17.73 1.34 27.24q1.57-13.51 2.68-26.4Zm2-29.63c-.31-.62-.61-1.23-.92-1.83a123.12 123.12 0 0 0-6.21 11.43c.25 4.11.5 8.51.75 13.16 1.58 1.49 3.13 3 4.63 4.53q1.04-14.02 1.62-27.33Zm-2.2-8.36c.46-.5.92-1 1.39-1.48l-1.55 1.23c-.08.08-.01.16-.01.25Zm10.76-109.87c-1.53 1.47-3.14 3.06-4.81 4.76a554.38 554.38 0 0 1 3.21 23.5c.47-9.98 1.01-19.45 1.47-28.26Zm-8.35-14.93q1.53 7.58 2.84 15.38c1.87-1.42 3.78-2.82 5.71-4.19.65-12.6 1.13-23.7 1.39-32.75a224.91 224.91 0 0 0-10.07 21.56Zm-4.18 27.89c-2.39 2.66-4.87 5.51-7.41 8.58-1.49 6.11-2.85 12.58-4 19.4a76.87 76.87 0 0 1 13.62-7.15s-6.65 4.62-15 15.54q-.83 5.73-1.49 11.76c1.78 10.45 3 21 3.85 31.68q2.7 3.31 5.24 6.8v-3.2s.09 1.27.24 3.6q2.4 3.3 4.64 6.73c1.55-.94 3.13-1.87 4.72-2.78a605.52 605.52 0 0 0-4.54-90.96Zm-1.77-11.77c-.89 2.72-1.75 5.54-2.6 8.45q1.68-1.46 3.41-2.88-.44-2.87-.81-5.57Zm-28.1 4.81q4.26 10.25 7.51 21c1.16-1.24 2.33-2.48 3.51-3.69a221.37 221.37 0 0 1 14.58-37.18c-1.51-8.33-3.14-16.13-4.83-23.38-3.07 4.44-12.3 18.84-20.77 43.2Zm-.43 75.94.48.72c.14-1.53.29-3.06.45-4.58-.14.31-.27.63-.4.95-.18.9-.35 1.88-.53 2.86Zm-.23 73.53q-1.63-2.22-3.27-4.29c.18.52.36 1.05.53 1.57.95 1.14 1.87 2.28 2.78 3.44-.01-.29-.03-.53-.04-.77Zm-.06-63.38c-.35-.82-.71-1.62-1.06-2.41q-1.71 10-3.43 21.31c1.2-1.09 2.44-2.17 3.71-3.22q.26-7.88.78-15.73Zm-4.07-70.9a289.66 289.66 0 0 0-6.45 28.32c3.24-4.36 6.6-8.63 10.12-12.8q-1.69-8.13-3.67-15.52Zm-38.12 77.88 1.24.92a339.13 339.13 0 0 1 16.69-30.28c3.29-21.26 8.61-41.88 16.61-60.76a234.53 234.53 0 0 0-16.16-38.94c-6.11 10.23-11.65 20.72-16.67 31.38-.69 30.53-1.25 64.21-1.71 97.68Zm0 3.58c.22-.46.44-.92.67-1.38-.22-.23-.43-.46-.65-.67-.05.68-.06 1.37-.07 2.05Zm-16.11-56.57.36 2.2.63-5.13c-.38.98-.72 1.96-1.04 2.93ZM1454 267.13c.27 4.2.48 8.41.66 12.62.66 1.21 1.31 2.41 1.95 3.62 0-.5.07-.77.07-.77.43 1.06.84 2.16 1.24 3.27q2.24 4.32 4.3 8.66c.8-8.74 1.65-17.58 2.55-26.47-.3-15.41-.62-30.67-1-45.26-3.96 14.92-7.18 29.77-9.77 44.33Zm-11.78-76.07a329 329 0 0 1 9.56 50.83c3.6-11.91 7.38-23.11 11.25-33.61a278.72 278.72 0 0 0-16.28-24.49c-1.47 2.21-2.99 4.65-4.53 7.27Zm-7.62-22.4c2.18 5.32 4.15 10.89 5.93 16.66q1.93-2.26 4-4.47-4.74-6.18-9.93-12.19Zm-2.82 118.48a95.55 95.55 0 0 1 3.82 7.14q-.51-6.46-1-12.76-1.32-3.37-2.72-6.73-.02 6.21-.1 12.35Zm-4.32 75.1.09.32q1-9.4 2.24-18.51c-.16-1.12-.31-2.23-.47-3.34-.55 7.29-1.17 14.5-1.86 21.53Zm-36.17-36.68c.73-.59 1.47-1.17 2.22-1.75-1.31-5.58-2.72-10.72-4.15-15.4q1.04 8.46 1.93 17.15Zm3.12 2.23c-.19-.88-.39-1.75-.59-2.61-.78.69-1.56 1.4-2.36 2.14q.63 6.19 1.17 12.5c.43-1.57.86-3.15 1.31-4.72.16-2.49.31-4.93.47-7.31Zm1.14-16.54a114.39 114.39 0 0 0-7.48-17.69c0 .68 0 1.37.08 2.06q4.13 8 7.38 15.94c.01-.1.01-.21.02-.31Zm16.72-133.5c-1.3 1.78-2.73 3.83-4.26 6.18 2 2 3.91 4.12 5.74 6.26q-.68-6.36-1.48-12.44Zm-10.78 0q3.21 2.83 6.16 5.82 2.24-3.1 4.59-6.06-1.52-11.33-3.4-21.64c-2.46 6.42-4.96 13.71-7.35 21.87Zm-6.34 25.66a198.76 198.76 0 0 1 11.61-18.58c-2.35-3.32-4.23-5.61-5.33-6.88-2.25 7.71-4.43 16.2-6.28 25.45Zm-.29 4.25a205.58 205.58 0 0 1 21 18.83c.13-.34.27-.67.41-1q-.55-14.9-1.84-28.53c-2.65-4.7-5.16-8.57-7.31-11.63a202.24 202.24 0 0 0-12.26 22.32Zm-1.62 5.87a142 142 0 0 1 16.3 31.73c.67-2.41 1.37-4.81 2.14-7.19a69.3 69.3 0 0 0-6.29-5.34q3.45 2 6.66 4.2l.57-1.73c-.45-.78-.89-1.56-1.35-2.34a239.22 239.22 0 0 0-17.82-20.54Zm-5.24 78.76c2.51 3.55 5.22 7.55 8 12 .88-11.71 1.53-19.14 1.53-19.14 0 5.28.65 13.84 1.71 24.35.63 1 1.27 2.1 1.9 3.17l.47-1.29a262.1 262.1 0 0 1 3.22-44.82c-.05-.32-.11-.64-.16-1-7.38-8-13.3-11.36-13.3-11.36a74.88 74.88 0 0 1 12.11 5.22 177.77 177.77 0 0 0-11.75-36.42 393.44 393.44 0 0 0-3.73 69.29Zm-8.56-91.48c.56 8.95 1.25 19 2.06 29.71q1.5-10.47 3.56-20.6c-1.91-3.42-3.81-6.45-5.59-9.11Zm-12.67-11.35c2.87 11.14 5.71 23 8.42 35.53.48-10.55.94-20.1 1.36-28.25a116.67 116.67 0 0 0-9.75-7.28Zm-3.88 155.13c0 .18.11.36.16.54 0-1.51.08-3 .12-4.57-.07 1.33-.17 2.68-.25 4.03Zm-12.67-90.77.18 2.14a354 354 0 0 1 4.24 47.1c.58 6.2 1.17 12.41 1.77 18.59.11.41.22.82.34 1.23 1.62-9.31 3.48-18.75 5.63-28.2-2.69-14.81-6.62-28.77-12.13-40.86Zm-32.78 107.94c-.08-.8-.15-1.61-.23-2.41 0 .89 0 1.78.08 2.67Zm1.56 29.07q-.12-6.72-.44-13.11c-.21.49-.41 1-.62 1.48 0 .92.09 1.84.13 2.75.34 2.97.64 5.93.93 8.88Zm-1.88-80.63a168 168 0 0 1 2.33-3.33q-.88-7.11-1.66-14.13-.4 8.76-.64 17.46Zm-.19 9.64c2 6.65 3.73 13.32 5.29 19.92q1.5 3.15 2.88 6.32-3.26-19.71-5.63-39c-.56 1-1.39 2.54-2.38 4.56q-.09 4.12-.09 8.2Zm-5.58-75.42c-1 .54-2.15 1.24-3.55 2.11.07 2.51.13 5 .2 7.56q1.7-4.95 3.38-9.67Zm1.88-5.18c-2.21-36.14-2.52-69.69-1.85-99.14-2 1.63-4.33 3.66-7 6.08 1 26.17 2.29 61 3.32 97.79q2.14-1.53 4.41-3a55.8 55.8 0 0 0-4.38 4v.8c1.22-.56 2.46-1.1 3.69-1.64q.96-2.49 1.84-4.89ZM1303 111.79c.33 7.59.79 18.48 1.32 31.76 2.33-1.58 4.7-3.14 7.11-4.64.38-15.92 1-30.62 1.85-43.87a161.43 161.43 0 0 0-10.28 16.75Zm-55 210.84q-.51-5.5-1.43-10.61c-.16 1.51-.33 3-.49 4.55q.5 3.6 1.06 7.28c.26-.42.55-.85.86-1.22Zm8.87-63.39c-1.3 1.54-2.74 3.35-4.26 5.43q-.84 5.64-1.66 11.59c1.87-1.28 3.79-2.52 5.74-3.73q-.02-6.63.16-13.29Zm-.12 20.44c-.3.32-.61.64-.91 1l.91-.86Zm-3.44 16.9c1.44 1.51 2.85 3 4.21 4.57q-.24-4.31-.41-8.66-1.91 1.92-3.82 4.09Zm26.92-7.55c-.17.47-.33.94-.5 1.42.08.45.17.9.25 1.36.02-.94.15-1.81.23-2.81Zm1.89-23.31q-1.59 1.39-3.22 2.88v5q1.39-2.13 2.91-4.22c.12-1.24.19-2.47.29-3.66Zm.84-16c-1.8-2.84-3.57-5.44-5.26-7.79.53 6.78.87 13.57 1.06 20.35 1.23-.84 2.48-1.68 3.74-2.5.21-3.78.36-7.17.44-10.05Zm.9 9.18c1.11-.71 2.22-1.41 3.35-2.1-1.32-2.31-2.62-4.5-3.91-6.55.12 2.16.31 5.09.54 8.66Zm.46 7.23c1.53-2 3.16-3.88 4.87-5.77l-.23-.41c-1.55 1.25-3.15 2.57-4.78 4 .02.7.07 1.43.12 2.19Zm6 29.71q-2.32-2.76-4.58-5.2c.09 1.74.19 3.5.28 5.3 1-.32 2.07-.63 3.14-.92 0 0-1.17.54-3.1 1.68.46 8.54.92 17.74 1.34 27.25q1.76-14.39 2.91-28.1Zm1.87-29.66c-.15-.32-.31-.63-.47-.95a123.38 123.38 0 0 0-6.73 12.29c.21 3.51.42 7.25.64 11.17 1.67 1.56 3.3 3.16 4.88 4.78q1.12-14.01 1.67-27.28Zm-1.57-7.38.69-.72-.77.6Zm10.06-109.11c-1.53 1.47-3.14 3.06-4.81 4.75q1.83 11.56 3.21 23.51c.59-9.95 1.13-19.45 1.59-28.25Zm-8.36-14.93q1.55 7.57 2.85 15.38 2.8-2.13 5.7-4.19c.65-12.6 1.13-23.7 1.39-32.75a228.73 228.73 0 0 0-9.95 21.57Zm-4.17 27.89q-3.6 4-7.42 8.57c-1.48 6.12-2.84 12.59-4 19.4a78.21 78.21 0 0 1 13.62-7.15s-6.65 4.62-15 15.55q-.84 5.73-1.49 11.76c1.66 9.76 2.86 19.66 3.68 29.58q2.81 3.45 5.43 7.06v-1.36s0 .53.11 1.51q2.94 4 5.66 8.29c1.26-.76 2.54-1.52 3.84-2.25a605.52 605.52 0 0 0-4.44-90.95Zm-1.65-11.83c-.88 2.73-1.75 5.55-2.59 8.46 1.12-1 2.26-1.93 3.4-2.89q-.4-2.79-.82-5.56Zm-28.1 4.82c2.84 6.83 5.34 13.85 7.52 21q1.74-1.86 3.51-3.69a220.85 220.85 0 0 1 14.57-37.16 468.3 468.3 0 0 0-4.84-23.37c-3.06 4.44-12.28 18.87-20.77 43.23Zm-.42 75.93.47.73c.14-1.53.29-3.06.45-4.58l-.4.94c-.18.97-.36 1.94-.5 2.92Zm-.24 73.54q-1.63-2.22-3.27-4.29l.54 1.56q1.41 1.71 2.78 3.45c-.03-.23-.04-.47-.06-.71Zm0-63.38c-.35-.82-.71-1.62-1.06-2.41q-1.72 10-3.43 21.31 1.8-1.65 3.71-3.22.18-7.83.72-15.67Zm-4.08-70.85c-2.4 8.53-4.61 18-6.45 28.31 3.24-4.35 6.61-8.63 10.12-12.8q-1.74-8.12-3.73-15.5Zm-38.12 77.88 1.24.91a337.94 337.94 0 0 1 16.7-30.27c3.29-21.27 8.6-41.88 16.61-60.77a234.67 234.67 0 0 0-16.19-38.93c-6.11 10.23-11.65 20.72-16.66 31.38-.73 30.54-1.24 64.22-1.76 97.69Zm0 3.58c.22-.47.45-.93.67-1.39-.21-.23-.43-.45-.64-.67Zm-16.11-56.57c.12.73.25 1.46.37 2.19l.63-5.12c-.43.99-.78 1.96-1.11 2.94Zm-116.05 128.6c1.64-9.5 3.52-19.16 5.7-28.83-2.71-14.43-6.58-28-12-39.83l.18 2.13a357.54 357.54 0 0 1 4.24 47.11c.65 6.47 1.26 12.96 1.88 19.42Zm5.79 44.68-.6 1.44c0 1.76-.07 3.55-.1 5.34.09.92.18 1.82.28 2.73q.25-4.66.42-9.51Zm.58-15.83-.46-.63c-.09 1.64-.17 3.29-.25 5l.6-.89c.04-1.18.08-2.33.11-3.48Zm.39-13.59c-.31 4-.58 8.18-.81 12.38l.45.47q.22-6.31.36-12.85Zm13.3-141a117.39 117.39 0 0 0-9.77-7.28c2.86 11.14 5.7 23 8.41 35.52.49-10.54.92-20.1 1.36-28.24Zm8.51 13.18c-1.93-3.42-3.83-6.46-5.61-9.12.55 8.91 1.24 18.86 2 29.52a1.22 1.22 0 0 1 .07-.17c1.03-6.85 2.2-13.61 3.59-20.23Zm6 113.89 2-1.59c-1.2-5-2.47-9.58-3.76-13.82q.97 7.62 1.81 15.41Zm3.3 4c-.31-1.42-.62-2.82-.94-4.18a65.8 65.8 0 0 0-2.17 2q.72 7 1.34 14.22.63-2.35 1.31-4.72c.21-2.52.33-4.96.48-7.34Zm1.15-16.54a114.92 114.92 0 0 0-7.48-17.7c0 .69 0 1.38.08 2.07q4.11 8 7.37 15.94Zm9.35-44.73c-.06-.32-.11-.63-.17-1-7.38-8-13.29-11.36-13.29-11.36a74.77 74.77 0 0 1 12.1 5.22 177.47 177.47 0 0 0-11.82-36.42 394.65 394.65 0 0 0-3.69 69.28c2.51 3.55 5.22 7.55 8 12 .89-11.71 1.54-19.14 1.54-19.14 0 5.27.64 13.83 1.71 24.35.63 1 1.26 2.09 1.9 3.17l.47-1.29a261.14 261.14 0 0 1 3.27-44.83Zm5.47-24.21c-.16-2-.34-4-.52-5.92-2.75-2.45-4.46-3.68-4.46-3.68q2.23 1.34 4.36 2.7c-.16-1.73-.33-3.46-.52-5.16a237.17 237.17 0 0 0-15.78-17.95c-.07.41-.14.81-.22 1.22a141.94 141.94 0 0 1 16.31 31.72c.29-1 .61-1.97.85-2.95Zm11.83-29.71a165.99 165.99 0 0 0-5.86-12.15q1.85 8.53 3.34 17.25 1.22-2.61 2.54-5.12Zm3.16 51.12 1-1.54c-.46-1-.94-2-1.41-3 .2 1.46.31 2.99.43 4.52Zm4.42 80.33c-.18-1.33-.36-2.65-.55-4-.75 1-1.53 2.07-2.32 3.18q-.26 7.39-.62 14.71c.4 1.52.82 3.05 1.26 4.58q1.02-9.43 2.25-18.49Zm-1.19-8.37q-.6-4-1.21-7.91l-.1.09c0 3.06-.11 6.1-.19 9.14Zm25.43-68.59q.39 6.3.65 12.62c.66 1.2 1.31 2.41 2 3.61 0-.49.07-.76.07-.76.43 1.06.84 2.16 1.24 3.27q2.23 4.32 4.31 8.66c.79-8.74 1.64-17.58 2.54-26.47-.29-15.42-.62-30.68-1-45.26-4.01 14.94-7.22 29.79-9.81 44.33Zm-11.79-76a329 329 0 0 1 9.57 50.83c3.6-11.91 7.38-23.11 11.24-33.61a274.91 274.91 0 0 0-16.27-24.49c-1.47 2.17-3 4.59-4.54 7.27Zm-7.61-22.41q3.27 8 5.92 16.66 2-2.26 4-4.47-4.74-6.23-9.92-12.24Zm-4.69 101.52c-1.19 1.74-2.43 3.65-3.7 5.74l.18 3.23a87.07 87.07 0 0 1 9.2 15.14q-.49-6.46-1-12.76-2.25-5.75-4.68-11.4Zm-2.92-45.34q-1.66 5-3.12 10.37 3.71 4.26 7.18 8.66c-.33-3.23-.67-6.4-1-9.53q-1.46-5.01-3.06-9.55ZM1133.05 165q2.4 7.15 4.49 14.51 2.64-3.45 5.43-6.7c-1.44 1.74-3.24 4.07-5.33 7q1.75 6.24 3.31 12.62a132.22 132.22 0 0 1 11.53 15.82c.33-.56.65-1.12 1-1.68q-2.25-18-4.49-33.22a201.29 201.29 0 0 0-9.84-24.12c-1.99 4.67-4.05 9.92-6.1 15.77Zm-11.64 43.31c-.05.29-.11.58-.16.87q7.05 5.45 13.48 11.42a457.475 457.475 0 0 0-4.69-28.81c-2.74 4.69-5.65 10.21-8.63 16.51Zm6.44-26.93c-1.84 6.44-3.6 13.41-5.2 20.89q3.4-6.07 7.13-11.78-.94-4.67-1.93-9.12Zm-39-8.12q2.42 8.67 4.84 18.07c2.57 1.37 5.08 2.79 7.56 4.25a72.9 72.9 0 0 0-5.92-6.89c2.91 2.34 5.66 4.78 8.28 7.29.82-16.21 1.39-26.18 1.39-26.18 0 6.73.41 16.6 1.11 28.65l.26.27q3.78 2.39 7.39 4.91a243.1 243.1 0 0 1 10.93-35.55 335.07 335.07 0 0 0-17.72-51.82c-6.69 17.74-12.72 37-18.15 56.99Zm-13.74 57.36c.61 7.87 1.29 16.25 2 25 3.88 7.18 8.51 16.36 13.33 27.25-.47-31.32-2.1-63.73-5.66-94.17-3.5 13.77-6.72 27.84-9.7 41.91Zm-19.67 115.08c.36-.44.72-.9 1.09-1.34 1.46-9.93 3.9-19.06 7.72-26.55 0 0 .51 4.63 1.4 12.21.56-21.19 1.36-42.76 2.21-62.69-5.03 27.48-9.13 54.23-12.42 78.37Zm-20.75-99.17.21 7.56q1.66-5 3.35-9.67c-.96.58-2.15 1.24-3.56 2.11Zm-59.84 76.1c-.34-3.67-.83-7.2-1.43-10.61-.17 1.51-.33 3-.49 4.55q.5 3.6 1.06 7.28c.27-.42.57-.85.86-1.22Zm8.87-63.39a93.963 93.963 0 0 0-4.27 5.43q-.83 5.64-1.65 11.59c1.87-1.28 3.79-2.52 5.74-3.73q-.01-6.63.18-13.29Zm-.12 20.44-.92 1 .92-.86Zm-3.44 16.9c1.43 1.51 2.84 3 4.2 4.57q-.23-4.31-.41-8.66c-1.25 1.28-2.52 2.64-3.79 4.09Zm26.91-7.55c-.16.47-.33.94-.49 1.42l.24 1.36c.09-.94.18-1.81.25-2.81Zm1.89-23.31q-1.59 1.39-3.22 2.88v5q1.4-2.13 2.91-4.22c.14-1.24.23-2.47.35-3.66Zm.79-14.19q-2.6-4.08-5-7.49.66 9.12.91 18.25c1.23-.84 2.47-1.68 3.74-2.5.13-3.04.26-5.79.35-8.26Zm1 7.38c.84-.54 1.68-1.08 2.54-1.61-1-1.72-2-3.36-3-4.92.12 1.83.26 4.02.42 6.53Zm.45 7.23c1.35-1.72 2.75-3.4 4.23-5.06l-.3-.54a202.73 202.73 0 0 0-4.07 3.39c.01.72.05 1.45.1 2.21Zm1.72 29.81c.73-.23 1.46-.44 2.21-.65-.8-.91-1.6-1.79-2.39-2.64.02 1.08.08 2.18.14 3.34Zm4.14 1.6c-.61-.72-1.21-1.43-1.82-2.12-.53.28-1.31.7-2.28 1.28.45 8.54.91 17.74 1.34 27.25q1.61-13.51 2.7-26.41Zm2-29.63c-.3-.62-.61-1.23-.92-1.83a122.28 122.28 0 0 0-6.2 11.44c.24 4.1.49 8.51.74 13.16q2.38 2.22 4.63 4.53 1.08-14.02 1.69-27.3Zm-2.2-8.35c.46-.5.93-1 1.4-1.48l-1.56 1.22Zm10.77-109.87a261.06 261.06 0 0 0-4.82 4.75q1.85 11.56 3.21 23.51c.51-9.96 1.05-19.46 1.52-28.26Zm-8.36-14.93q1.53 7.57 2.84 15.38 2.82-2.13 5.71-4.19c.65-12.6 1.13-23.7 1.39-32.75a223.78 223.78 0 0 0-10.03 21.56Zm-4.27 27.89c-2.39 2.66-4.87 5.51-7.41 8.57-1.49 6.12-2.85 12.59-4 19.4a78.21 78.21 0 0 1 13.62-7.15s-6.65 4.62-15 15.55q-.83 5.73-1.49 11.76c1.78 10.45 3 21 3.85 31.67q2.7 3.33 5.24 6.81v-3.2s.09 1.27.24 3.59q2.4 3.3 4.64 6.74c1.56-.95 3.13-1.87 4.72-2.78a604.2 604.2 0 0 0-4.41-90.96Zm-1.64-11.83c-.89 2.73-1.75 5.55-2.6 8.46 1.13-1 2.26-1.93 3.41-2.89-.27-1.87-.53-3.73-.81-5.57Zm-28.1 4.82c2.84 6.83 5.34 13.85 7.52 21q1.72-1.86 3.51-3.69a220.82 220.82 0 0 1 14.57-37.18c-1.51-8.33-3.14-16.12-4.83-23.37-3.03 4.45-12.29 18.88-20.77 43.24Zm-.43 75.93.48.73c.14-1.53.29-3.06.45-4.58-.14.31-.27.63-.4.94-.18.96-.36 1.93-.53 2.91Zm-.23 73.54q-1.64-2.22-3.27-4.29l.54 1.56c.94 1.14 1.87 2.29 2.77 3.45-.01-.24-.03-.48-.04-.72Zm-.05-63.38c-.36-.82-.71-1.62-1.07-2.41q-1.71 10-3.43 21.31 1.8-1.65 3.72-3.22.23-7.84.78-15.68Zm-4.08-70.85c-2.4 8.53-4.62 18-6.45 28.31 3.24-4.35 6.61-8.63 10.12-12.8q-1.69-8.13-3.67-15.51Zm-38.12 77.88 1.24.91a340.36 340.36 0 0 1 16.69-30.27c3.29-21.27 8.61-41.88 16.62-60.77a235.53 235.53 0 0 0-16.19-38.93c-6.11 10.23-11.65 20.72-16.67 31.38-.67 30.53-1.23 64.21-1.69 97.68Zm-.05 3.58c.22-.47.45-.93.67-1.39l-.64-.67Zm-16.11-56.57c.12.73.24 1.46.37 2.19.2-1.71.41-3.42.62-5.12ZM844.84 325.7c.66-.53 1.34-1.06 2-1.59-1.2-5-2.48-9.58-3.77-13.82q.93 7.62 1.77 15.41Zm3.3 4c-.31-1.42-.63-2.82-.95-4.18-.72.64-1.44 1.3-2.17 2q.72 7 1.34 14.22c.43-1.57.86-3.14 1.31-4.72.16-2.52.33-4.96.47-7.34Zm1.14-16.54a113.94 113.94 0 0 0-7.48-17.7c0 .69.06 1.38.08 2.07q4.13 8 7.38 15.94c.01-.13.01-.23.02-.33Zm26.65-98.65-1.32-3c.24 1.39.47 2.79.71 4.19.2-.41.41-.81.61-1.21Zm7.59 131.45c-.18-1.33-.37-2.65-.55-4-.39.52-.78 1-1.17 1.58q-.39 9.72-1 19.23l.46 1.66q1.04-9.43 2.26-18.49Zm-1.19-8.37c-.09-.57-.17-1.15-.26-1.72l-.06 2Zm25.4-68.59q.4 6.3.66 12.62c.66 1.2 1.31 2.41 2 3.61 0-.49.07-.76.07-.76.43 1.06.84 2.16 1.24 3.27q2.24 4.32 4.31 8.66c.79-8.74 1.64-17.58 2.54-26.47-.3-15.42-.62-30.68-1-45.26-4.01 14.94-7.23 29.79-9.82 44.33ZM896 193a330.16 330.16 0 0 1 9.57 50.83q5.4-17.86 11.24-33.61a275 275 0 0 0-16.28-24.49c-1.53 2.17-3.04 4.59-4.53 7.27Zm-7.62-22.41q3.27 8 5.93 16.66 1.93-2.26 4-4.47-4.79-6.23-9.98-12.24Zm-4.68 101.52c-.68 1-1.38 2.05-2.1 3.16.15 2.76.27 5.51.38 8.27a89.59 89.59 0 0 1 7.4 12.68q-.51-6.46-1-12.76-2.31-5.75-4.73-11.4Zm-2.93-45.34q-1.37 4.11-2.61 8.51c.12 1 .23 1.89.34 2.84q3.27 3.78 6.34 7.68c-.33-3.23-.67-6.4-1-9.53a250.78 250.78 0 0 0-3.12-9.55Zm-18.85-67.1q2.7 8.24 5 16.75 1.46-1.81 3-3.57-1.27 1.55-2.92 3.72 2.8 10.35 5 21 4 5.2 7.41 10.73l1-1.68q-2.25-18-4.48-33.22a202.87 202.87 0 0 0-9.93-24.14q-2 4.74-4.13 10.36Zm-6.65 20q1.26 1.11 2.49 2.25c-.43-2.09-.86-4.16-1.31-6.19-.45 1.27-.84 2.56-1.23 3.9Zm-5.71 22.63q4.38-7.78 9.26-15c-.25-1.33-.51-2.66-.77-4a81.037 81.037 0 0 0-2.83-3.49c-2.06 6.89-3.98 14.37-5.71 22.45Zm-1.4 6.91a200.41 200.41 0 0 1 16 13.77C862.73 210.57 861 199 859 188.32a207.75 207.75 0 0 0-10.69 20c-.09.27-.14.56-.2.85Zm-1.16 6.2a141.9 141.9 0 0 1 16.3 31.72q1-3.62 2.14-7.18a70.77 70.77 0 0 0-6.29-5.35c2.24 1.33 4.39 2.69 6.47 4.08-.09-1.15-.18-2.29-.28-3.43l-.3-.52a244.1 244.1 0 0 0-17.83-20.54Zm-5.21 78.77c2.52 3.55 5.23 7.55 8 12 .88-11.71 1.53-19.14 1.53-19.14 0 5.27.65 13.83 1.71 24.35.63 1 1.27 2.09 1.9 3.17.16-.43.32-.86.47-1.29a263.16 263.16 0 0 1 3.22-44.83c0-.32-.11-.63-.16-1-7.38-8-13.29-11.36-13.29-11.36a74.77 74.77 0 0 1 12.1 5.22 177.47 177.47 0 0 0-11.82-36.42 393.62 393.62 0 0 0-3.69 69.3Zm-8.55-91.49c.54 8.91 1.23 18.86 2 29.52a1.22 1.22 0 0 0 .07-.17c1-6.85 2.16-13.61 3.51-20.23-1.94-3.42-3.82-6.46-5.61-9.12Zm-12.68-11.34c2.87 11.14 5.71 23 8.42 35.52.48-10.54.95-20.1 1.36-28.24a114.87 114.87 0 0 0-9.81-7.28Zm-10.28 133c1.63-9.5 3.52-19.16 5.69-28.83-2.71-14.43-6.57-28-12-39.83l.18 2.13A354.17 354.17 0 0 1 808.4 305c.6 6.42 1.23 12.91 1.85 19.37Zm5.72 44.7c-.19.48-.4.95-.59 1.44-.05 1.76-.07 3.55-.1 5.34l.27 2.73q.26-4.66.42-9.51Zm.59-15.83-.46-.63c-.09 1.64-.18 3.29-.25 5l.6-.89c.06-1.18.1-2.33.14-3.48Zm.38-13.59c-.31 4-.57 8.18-.81 12.38l.45.47q.24-6.31.39-12.85Zm-27.25-18.91c.43-1 .88-2 1.36-2.91 0 0 .51 4.63 1.41 12.21.81-30.74 2.13-62.28 3.38-88.45-1.47-2.4-2.32-3.67-2.32-3.67q1.2 1.6 2.34 3.3c1.7-35.5 3.28-61 3.28-61 0 14.06 2 42.28 4.77 75.43 3.88 7.18 8.52 16.36 13.34 27.25-.84-56.2-5.44-115.94-18.18-161.48-2.69 17.76-4.73 36.35-6.23 55.28a129.71 129.71 0 0 1 9.21-18.09s-3.69 6.69-9.28 18.87c0 .62-.09 1.24-.14 1.85a114 114 0 0 1 5.87-9.94s-2.27 3.83-5.95 11c-3.58 47.44-3.88 96.86-2.83 140.35Zm-28.19-74.19q.11 3.76.2 7.56 1.68-5 3.35-9.67c-.92.58-2.08 1.24-3.52 2.11Zm-59.85 76.1q-.51-5.5-1.43-10.61c-.16 1.51-.32 3-.48 4.55q.5 3.6 1.05 7.28c.31-.42.6-.85.89-1.22Zm8.87-63.39c-1.3 1.54-2.74 3.35-4.26 5.43q-.84 5.64-1.65 11.59 2.8-1.92 5.73-3.73.03-6.63.21-13.29Zm-.12 20.44-.91 1 .91-.86Zm-3.43 16.9c1.44 1.51 2.85 3 4.21 4.57q-.24-4.31-.41-8.66-1.87 1.92-3.8 4.09Zm26.94-7.58c-.17.47-.33.94-.5 1.42.09.45.17.9.25 1.36.08-.91.17-1.78.25-2.78Zm1.89-23.31q-1.59 1.39-3.22 2.88v5q1.4-2.13 2.91-4.22c.14-1.21.23-2.44.31-3.63Zm.78-14.19a153.57 153.57 0 0 0-5.05-7.49q.66 9.12.92 18.25c1.23-.84 2.47-1.68 3.73-2.5.18-3.01.32-5.76.4-8.23Zm1 7.38c.85-.54 1.69-1.08 2.55-1.61q-1.5-2.58-3-4.92c.11 1.86.25 4.05.41 6.56Zm.46 7.22q2-2.56 4.22-5.05l-.3-.54c-1.32 1.07-2.68 2.21-4.06 3.39 0 .75.07 1.48.07 2.23Zm1.67 29.9c.73-.23 1.47-.44 2.21-.65-.8-.91-1.59-1.79-2.38-2.64.06 1.03.11 2.13.17 3.29Zm4.15 1.6-1.82-2.12c-.53.28-1.31.7-2.29 1.28.46 8.54.92 17.73 1.35 27.25q1.65-13.56 2.76-26.46Zm2-29.63q-.47-.93-.93-1.83a122.28 122.28 0 0 0-6.2 11.44c.24 4.1.49 8.51.75 13.16 1.58 1.48 3.13 3 4.63 4.53q1.12-14.07 1.7-27.35Zm-2.2-8.35c.45-.5.92-1 1.39-1.48-.51.4-1 .8-1.55 1.22ZM754.4 149.7c-1.53 1.47-3.14 3.06-4.81 4.75Q751.42 166 752.8 178c.6-10 1.14-19.5 1.6-28.3Zm-8.4-14.93q1.55 7.57 2.85 15.38c1.87-1.42 3.78-2.82 5.71-4.19.64-12.6 1.12-23.7 1.39-32.75a226.07 226.07 0 0 0-9.95 21.56Zm-4.17 27.89q-3.6 4-7.42 8.57c-1.48 6.12-2.84 12.59-4 19.4a77.75 77.75 0 0 1 13.59-7.15s-6.65 4.62-14.95 15.55q-.84 5.73-1.49 11.76c1.78 10.45 3 21 3.85 31.67q2.7 3.33 5.23 6.81v-3.2s.09 1.27.25 3.59q2.38 3.3 4.64 6.74c1.55-.95 3.12-1.87 4.72-2.78a605.52 605.52 0 0 0-4.38-90.96Zm-1.64-11.83q-1.34 4.09-2.6 8.46c1.12-1 2.26-1.93 3.4-2.89q-.35-2.8-.76-5.57Zm-28.11 4.82c2.84 6.83 5.34 13.85 7.52 21q1.74-1.86 3.51-3.69a220.85 220.85 0 0 1 14.58-37.18 468.3 468.3 0 0 0-4.84-23.37c-3.02 4.45-12.24 18.88-20.73 43.24Zm-.42 75.93c.16.24.32.48.47.73.14-1.53.29-3.06.45-4.58-.13.31-.26.63-.4.94-.13.96-.31 1.93-.48 2.91Zm-.24 73.54q-1.63-2.22-3.27-4.29.28.78.54 1.56 1.41 1.71 2.78 3.45c.02-.24.01-.48-.01-.72Zm-.05-63.38c-.35-.82-.71-1.62-1.06-2.41q-1.71 10-3.43 21.31 1.8-1.65 3.71-3.22c.21-5.23.46-10.42.82-15.68Zm-4.08-70.85c-2.4 8.53-4.61 18-6.45 28.31 3.24-4.35 6.61-8.63 10.12-12.8q-1.64-8.13-3.63-15.51Zm-38.12 77.88 1.24.91a340.47 340.47 0 0 1 16.7-30.27c3.29-21.27 8.6-41.88 16.61-60.77a233.81 233.81 0 0 0-16.19-38.93c-6.11 10.23-11.65 20.72-16.66 31.38-.63 30.53-1.19 64.21-1.66 97.68Zm-.05 3.58c.22-.47.45-.93.67-1.39-.21-.23-.43-.45-.64-.67Zm-16.11-56.57c.13.73.25 1.46.37 2.19l.63-5.12c-.3.98-.63 1.95-.96 2.93ZM634.6 269q.39 6.3.65 12.62c.66 1.2 1.31 2.41 2 3.61 0-.49.07-.76.07-.76.44 1.06.85 2.16 1.24 3.27q2.24 4.32 4.31 8.66c.79-8.74 1.65-17.58 2.54-26.47-.29-15.42-.62-30.68-1-45.26-4 14.94-7.22 29.79-9.81 44.33Zm-11.79-76a329 329 0 0 1 9.57 50.83c3.6-11.91 7.38-23.11 11.24-33.61a274.91 274.91 0 0 0-16.27-24.49c-1.47 2.17-2.99 4.59-4.54 7.27Zm-7.61-22.41q3.27 8 5.92 16.66 1.95-2.26 4-4.47-4.74-6.23-9.92-12.24Zm-78.08 153.78c1.63-9.5 3.51-19.16 5.69-28.83-2.62-13.94-6.31-27.11-11.41-38.64-.07.67-.13 1.32-.2 2a358.74 358.74 0 0 1 4.07 46.1c.61 6.42 1.22 12.91 1.85 19.37Zm5.78 44.68c-.2.48-.4.95-.59 1.44 0 1.76-.08 3.55-.11 5.34.09.92.19 1.82.28 2.73q.21-4.66.42-9.51Zm.59-15.83-.47-.63c-.09 1.64-.17 3.29-.25 5l.6-.89.12-3.48Zm.38-13.59c-.31 4-.58 8.18-.81 12.38l.45.47c.13-4.21.26-8.48.36-12.85Zm.3-56.8c-.45-30.22-2-61.46-5.29-91-2.55 19-5.11 40.69-7.46 64.8 3.76 7.04 8.17 15.85 12.75 26.2Zm13-84.2a115.57 115.57 0 0 0-9.77-7.28c2.87 11.14 5.7 23 8.41 35.52.49-10.54.95-20.1 1.36-28.24Zm8.51 13.18c-1.93-3.42-3.83-6.46-5.61-9.12.55 8.91 1.24 18.86 2 29.52a.87.87 0 0 1 .07-.17c1.03-6.85 2.2-13.61 3.54-20.23Zm6 113.89 2-1.59c-1.2-5-2.47-9.58-3.76-13.82q.97 7.62 1.78 15.41Zm3.3 4c-.3-1.42-.62-2.82-.94-4.18-.72.64-1.44 1.3-2.17 2q.72 7 1.34 14.22.63-2.35 1.31-4.72c.17-2.52.33-4.96.48-7.34Zm1.15-16.54a114.92 114.92 0 0 0-7.48-17.7c0 .69.05 1.38.08 2.07q4.13 8 7.37 15.94Zm9.35-44.73c-.06-.32-.11-.63-.17-1C578 259.48 572 256.1 572 256.1a74.39 74.39 0 0 1 12.1 5.22 177.5 177.5 0 0 0-11.81-36.42 393.62 393.62 0 0 0-3.7 69.28c2.51 3.55 5.22 7.55 8 12 .89-11.71 1.54-19.14 1.54-19.14 0 5.27.64 13.83 1.71 24.35.63 1 1.26 2.09 1.9 3.17l.47-1.29a261.14 261.14 0 0 1 3.29-44.86Zm7.72-31.33c-.45-.78-.89-1.57-1.35-2.35a246 246 0 0 0-17.82-20.54l-.21 1.22a141.9 141.9 0 0 1 16.3 31.72q1-3.62 2.13-7.18a70 70 0 0 0-6.25-5.37q3.45 2.06 6.66 4.21c.18-.58.34-1.16.56-1.73Zm8.31 35.56c.32-.52.63-1.05.94-1.57q-1.15-6.78-2.4-13.31-.68 4.23-1.18 8.65c.93 2.05 1.8 4.13 2.66 6.21Zm-1.07 20c.9 8.31 1.36 16.66 1.45 24.94 1.3.95 2.87 2.12 4.66 3.5-1.87-10.9-3.81-20.76-5.69-29.47Zm9.37 49.3c-1.71 2.3-3.55 4.86-5.47 7.67q1.67 7.26 3.79 14.8 1-9.42 2.23-18.51c-.16-1.31-.36-2.63-.53-3.92Zm-1.81-12.3c-2.11 2.07-4.24 4.32-6.34 6.72.41 2.3.86 4.63 1.35 7q3-3 6.2-5.78-.62-4.06-1.21-7.94Zm-.31-2c-.18-1.1-.36-2.18-.54-3.26a169.65 169.65 0 0 0-5.21-5.58q0 7.14-.24 14.2c1.9-1.78 3.89-3.57 5.97-5.32ZM588.78 159.5q3.18 7.62 6.15 15.4c.59-.71 1.17-1.41 1.77-2.1-.53.64-1.11 1.37-1.74 2.17 4.14 10.83 8 21.83 11.51 32.87.24-.42.48-.83.73-1.24q-2.25-18-4.49-33.22a201.29 201.29 0 0 0-9.84-24.12q-2.01 4.74-4.09 10.24Zm-5 32.25c-2.74 4.71-5.67 10.22-8.65 16.55 0 .29-.11.58-.16.87a203.66 203.66 0 0 1 18 15.68q-4.32-17.52-9.18-33.1Zm-2.73-8.53a328.83 328.83 0 0 0-4.68 19q3.38-6 7-11.66-1.11-3.69-2.31-7.34Zm-29.56-69.52c-2.39 12.19-5.88 31.46-9.65 57q2.77 9.83 5.55 20.59 3.86 2.06 7.56 4.25a74 74 0 0 0-5.91-6.89c2.9 2.34 5.65 4.78 8.27 7.29.82-16.21 1.4-26.18 1.4-26.18 0 6.73.4 16.6 1.11 28.65l.25.27q3.78 2.39 7.39 4.91a249.62 249.62 0 0 1 9.54-32.06 410.55 410.55 0 0 0-25.51-57.83Zm-25.39 6.93c3.42 9.78 7.27 21.46 11.29 34.81 3.83-14.91 8.1-29.65 12.84-44a314.41 314.41 0 0 0-17.18-27.74c-2.69 11.72-4.99 24.1-6.95 36.93Zm-10 144.75c2.23-16 4.84-32.42 7.89-49 1.15-22 2-36.26 2-36.26 0 5.33.29 12.7.79 21.59 2.5-12.49 5.26-25 8.31-37.44a388.87 388.87 0 0 0-9.17-43c-2.69 17.76-4.72 36.35-6.23 55.28a130.81 130.81 0 0 1 9.31-18.01s-3.68 6.69-9.27 18.87c-.05.62-.09 1.24-.14 1.85a111.52 111.52 0 0 1 5.86-9.94s-2.26 3.83-5.94 11c-2.17 28.21-3.15 57.12-3.37 85.06Zm-27.72-18.85q.1 3.76.21 7.56 1.67-5 3.35-9.67c-.94.58-2.11 1.24-3.52 2.11Zm-59.84 76.1c-.34-3.67-.83-7.2-1.43-10.61-.17 1.51-.33 3-.49 4.55q.49 3.6 1.06 7.28c.32-.42.61-.85.9-1.22Zm8.87-63.39a93.963 93.963 0 0 0-4.27 5.43q-.82 5.64-1.65 11.59c1.87-1.28 3.79-2.52 5.74-3.73q.03-6.63.22-13.29Zm-.12 20.44-.92 1 .92-.86Zm-3.44 16.9c1.43 1.51 2.84 3 4.21 4.57q-.24-4.31-.42-8.66c-1.21 1.28-2.48 2.64-3.75 4.09ZM460.8 289c-.16.47-.33.94-.49 1.42l.24 1.36c.09-.91.17-1.78.25-2.78Zm1.89-23.31q-1.59 1.39-3.21 2.88v5q1.39-2.13 2.91-4.22c.13-1.21.22-2.44.3-3.63Zm.79-14.19q-2.6-4.08-5.05-7.49.66 9.12.91 18.25c1.23-.84 2.48-1.68 3.74-2.5.18-3.01.31-5.76.4-8.23Zm1 7.38c.84-.54 1.68-1.08 2.54-1.61q-1.49-2.58-3-4.92l.42 6.56Zm.45 7.22c1.35-1.71 2.75-3.39 4.23-5.05l-.3-.54c-1.32 1.07-2.68 2.21-4.06 3.39 0 .75.05 1.48.09 2.23Zm1.68 29.9c.73-.23 1.46-.44 2.21-.65-.8-.91-1.6-1.79-2.39-2.64.06 1.03.12 2.13.18 3.29Zm4.14 1.6c-.61-.72-1.21-1.43-1.82-2.12-.53.28-1.31.7-2.28 1.28.46 8.54.91 17.73 1.34 27.25q1.65-13.56 2.76-26.46Zm1.95-29.63c-.3-.62-.61-1.23-.92-1.83a122.28 122.28 0 0 0-6.2 11.44c.24 4.1.49 8.51.74 13.16q2.39 2.22 4.63 4.53 1.17-14.07 1.75-27.35Zm-2.2-8.35c.46-.5.93-1 1.4-1.48l-1.56 1.22Zm10.77-109.92c-1.53 1.47-3.14 3.06-4.82 4.75Q478.3 166 479.67 178c.59-10 1.13-19.5 1.6-28.3Zm-8.36-14.93q1.53 7.57 2.84 15.38 2.82-2.13 5.71-4.19c.65-12.6 1.13-23.7 1.39-32.75a223.78 223.78 0 0 0-9.94 21.56Zm-4.18 27.89c-2.39 2.66-4.87 5.51-7.41 8.57-1.49 6.12-2.85 12.59-4 19.4a78.21 78.21 0 0 1 13.62-7.15s-6.65 4.62-15 15.55q-.82 5.73-1.49 11.76c1.78 10.45 3 21 3.85 31.67q2.71 3.33 5.24 6.81v-3.2s.09 1.27.25 3.59q2.39 3.3 4.64 6.74c1.55-.95 3.12-1.87 4.72-2.78a605.41 605.41 0 0 0-4.42-90.96Zm-1.64-11.83q-1.32 4.09-2.6 8.46c1.13-1 2.26-1.93 3.41-2.89q-.39-2.8-.81-5.57ZM439 155.65c2.84 6.83 5.34 13.85 7.52 21q1.73-1.86 3.51-3.69a220 220 0 0 1 14.58-37.18c-1.51-8.33-3.15-16.12-4.84-23.37-3.08 4.45-12.3 18.88-20.77 43.24Zm-.43 75.93.48.73c.14-1.53.29-3.06.45-4.58-.14.31-.27.63-.4.94-.19.96-.36 1.93-.54 2.91Zm-.23 73.54q-1.63-2.22-3.27-4.29l.54 1.56c.94 1.14 1.87 2.29 2.77 3.45-.02-.24-.04-.48-.05-.72Zm-.05-63.38c-.36-.82-.71-1.62-1.07-2.41q-1.71 10-3.43 21.31 1.8-1.65 3.72-3.22.23-7.84.77-15.68Zm-4.08-70.85c-2.4 8.53-4.62 18-6.45 28.31 3.24-4.35 6.61-8.63 10.12-12.8-1.13-5.4-2.37-10.59-3.68-15.51Zm-38.12 77.88 1.24.91A340.36 340.36 0 0 1 414 219.41c3.3-21.27 8.61-41.88 16.62-60.77a235.53 235.53 0 0 0-16.19-38.93c-6.11 10.23-11.65 20.72-16.67 31.38-.66 30.53-1.22 64.21-1.68 97.68Zm-.05 3.58c.22-.47.45-.93.67-1.39l-.64-.67Zm-16.11-56.57c.12.73.24 1.46.37 2.19.21-1.71.41-3.42.62-5.12ZM361.47 269q.39 6.3.65 12.62c.66 1.2 1.31 2.41 1.95 3.61 0-.49.07-.76.07-.76.43 1.06.84 2.16 1.24 3.27q2.24 4.32 4.31 8.66c.79-8.74 1.64-17.58 2.54-26.47-.3-15.42-.62-30.68-1-45.26-3.96 14.94-7.18 29.79-9.76 44.33Zm-6.77-54.87c1.89 9.6 3.38 19.52 4.55 29.63 3.6-11.91 7.38-23.11 11.24-33.61q-5.67-9.58-12.23-18.92-1.51 11.54-3.56 22.92ZM298.57 325.7c.66-.53 1.34-1.06 2-1.59-1.2-5-2.48-9.58-3.77-13.82q.95 7.62 1.77 15.41Zm2.32-.17c-.71.63-1.42 1.28-2.14 2 .07.66.14 1.32.2 2 .66-1.38 1.3-2.69 1.94-4Zm2.11-12.39a114.88 114.88 0 0 0-7.47-17.7c0 .69 0 1.38.07 2.07q4.13 8 7.38 15.94c.02-.11.02-.21.02-.31Zm30.42 8q-1.37-8-2.77-15.21c-.66 2-1.33 3.92-2 5.87.06 2 .1 3.9.13 5.84 1.29.93 2.86 2.1 4.65 3.48Zm-4.64-2.26q0 7.14-.25 14.2 2.88-2.73 6-5.36c-.18-1.1-.36-2.18-.53-3.26-1.69-1.9-3.42-3.77-5.21-5.6Zm.69-64c-.5-1-1-2-1.51-3-.84 4.44-1.56 9.05-2.13 13.83q1.92-5.52 3.65-10.89Zm.37 88.53q3-3 6.21-5.78-.6-4-1.22-7.91a125.63 125.63 0 0 0-6.34 6.72c.43 2.24.88 4.56 1.36 6.91Zm12.21-172.81q2.63 6.41 4.85 13.26.52-3.13 1-6.24-2.83-3.62-5.84-7.08Zm-4.88 115.19a90.94 90.94 0 0 1 5.88 10.44q-.49-6.46-1-12.76c-.77-2-1.57-4-2.37-5.92q-1.23 4.08-2.5 8.18ZM336.7 342c-1.71 2.3-3.56 4.86-5.47 7.67q1.66 7.26 3.78 14.8 1-9.42 2.24-18.51c-.18-1.35-.37-2.67-.55-3.96Zm-2.25-115.26c-1.1 3.32-2.15 6.77-3.12 10.37.9 1 1.78 2 2.65 3.08q1.17-4 2.27-8.07-.87-2.78-1.8-5.4ZM309 179.63c1.86 1.64 3.66 3.31 5.38 5q4.41-6.21 9.23-11.86a131.51 131.51 0 0 0-8.83 12.26 130.22 130.22 0 0 1 18.35 23.22c.32-.56.65-1.12 1-1.68q-2.25-18-4.48-33.22a202.87 202.87 0 0 0-9.85-24.12 274.92 274.92 0 0 0-10.8 30.4Zm-5.7 22.63c3.22-5.74 6.65-11.26 10.3-16.49-2-2.82-3.66-4.8-4.65-5.94-2.06 6.87-3.95 14.35-5.7 22.43Zm-1.41 6.91a203.55 203.55 0 0 1 21.47 19.2q2.83-7.08 6.35-13.88a153.55 153.55 0 0 0-15.72-28.18 205.51 205.51 0 0 0-11.93 22c-.06.28-.16.57-.22.86Zm-1.14 6.24A141.9 141.9 0 0 1 317 247.13q1-3.62 2.14-7.18a70.77 70.77 0 0 0-6.29-5.35c2.31 1.37 4.52 2.77 6.66 4.21l.57-1.73-1.34-2.35a246 246 0 0 0-17.82-20.54c-.08.41-.15.81-.22 1.22Zm-5.21 78.77c2.52 3.55 5.23 7.55 8 12 .88-11.71 1.53-19.14 1.53-19.14 0 5.27.65 13.83 1.71 24.35l.45.73q1-2.14 1.92-4.28a257.43 257.43 0 0 1 3.22-39.4c-.05-.32-.11-.63-.16-1-7.38-8-13.29-11.36-13.29-11.36a74.77 74.77 0 0 1 12.1 5.22 177.47 177.47 0 0 0-11.82-36.42 393.62 393.62 0 0 0-3.71 69.3Zm-8.55-91.49c.54 8.91 1.24 18.86 2 29.52 0-.06 0-.12.07-.17 1-6.85 2.16-13.61 3.51-20.23-1.96-3.42-3.85-6.46-5.63-9.12Zm-12.68-11.34c2.87 11.14 5.71 23 8.42 35.52.48-10.54.95-20.1 1.36-28.24a114.87 114.87 0 0 0-9.83-7.28ZM264 324.37c1.63-9.5 3.52-19.16 5.69-28.83-2.7-14.43-6.57-28-12-39.83.06.71.12 1.42.19 2.13a355.93 355.93 0 0 1 4.25 47.16c.61 6.42 1.23 12.91 1.87 19.37Zm5.78 44.68c-.19.48-.4.95-.59 1.44 0 1.76-.07 3.55-.1 5.34l.27 2.73q.21-4.66.4-9.51Zm.59-15.83-.46-.63c-.09 1.64-.17 3.29-.25 5l.6-.89c.02-1.18.05-2.33.09-3.48Zm.39-13.59c-.32 4-.58 8.18-.82 12.38l.45.47q.19-6.31.35-12.85Zm-27.26-18.91c.44-1 .89-2 1.37-2.91 0 0 .5 4.63 1.4 12.21.81-30.74 2.13-62.28 3.39-88.45-1.48-2.4-2.33-3.67-2.33-3.67q1.2 1.6 2.34 3.3c1.71-35.5 3.28-61 3.28-61 0 14.06 2 42.28 4.77 75.43 3.88 7.18 8.52 16.36 13.34 27.25-.84-56.2-5.44-115.94-18.18-161.48-2.69 17.76-4.73 36.35-6.23 55.28a129.71 129.71 0 0 1 9.21-18.09s-3.69 6.69-9.27 18.87l-.15 1.85a114 114 0 0 1 5.87-9.94s-2.27 3.83-5.94 11c-3.62 47.44-3.93 96.86-2.89 140.35Zm-28.19-74.19q.11 3.76.2 7.56 1.68-5 3.36-9.67c-.98.58-2.17 1.24-3.58 2.11Zm-59.85 76.1q-.51-5.5-1.43-10.61c-.16 1.51-.32 3-.48 4.55q.5 3.6 1.05 7.28c.26-.42.56-.85.84-1.22Zm8.87-63.39c-1.3 1.54-2.74 3.35-4.26 5.43q-.84 5.64-1.65 11.59c1.87-1.28 3.79-2.52 5.73-3.73q-.02-6.63.16-13.29Zm-.12 20.44-.91 1 .91-.86Zm-3.44 16.9c1.44 1.51 2.85 3 4.21 4.57q-.24-4.31-.41-8.66c-1.27 1.28-2.57 2.64-3.82 4.09Zm26.9-7.58c-.17.47-.33.94-.5 1.42.09.45.17.9.25 1.36.08-.91.17-1.78.25-2.78Zm1.89-23.31q-1.59 1.39-3.22 2.88v5q1.4-2.13 2.92-4.22c.13-1.21.22-2.44.3-3.63Zm.79-14.19c-1.73-2.72-3.43-5.22-5.06-7.49q.68 9.12.92 18.25c1.23-.84 2.47-1.68 3.73-2.5.18-3.01.32-5.76.41-8.23Zm1 7.38c.84-.54 1.68-1.08 2.54-1.61q-1.5-2.58-3-4.92c.11 1.86.25 4.05.42 6.56Zm.45 7.22q2-2.56 4.22-5.05c-.1-.18-.2-.36-.29-.54-1.33 1.07-2.69 2.21-4.07 3.39.01.75.05 1.48.1 2.23Zm1.67 29.9c.73-.23 1.47-.44 2.21-.65-.8-.91-1.59-1.79-2.38-2.64.06 1.03.12 2.13.17 3.29Zm4.15 1.6-1.82-2.12c-.53.28-1.31.7-2.28 1.28.45 8.54.91 17.73 1.34 27.25q1.65-13.56 2.76-26.46Zm1.95-29.63-.93-1.83a122.28 122.28 0 0 0-6.2 11.44c.24 4.1.49 8.51.75 13.16 1.58 1.48 3.13 3 4.63 4.53q1.18-14.07 1.75-27.35Zm-2.2-8.35c.46-.5.92-1 1.39-1.48-.51.4-1 .8-1.55 1.22Zm10.76-109.92c-1.53 1.47-3.14 3.06-4.81 4.75q1.83 11.55 3.21 23.55c.6-10 1.14-19.5 1.6-28.3Zm-8.35-14.93q1.53 7.57 2.84 15.38c1.87-1.42 3.78-2.82 5.71-4.19.64-12.6 1.12-23.7 1.39-32.75a223.78 223.78 0 0 0-9.94 21.56Zm-4.18 27.89q-3.6 4-7.42 8.57c-1.48 6.12-2.84 12.59-4 19.4a78.47 78.47 0 0 1 13.61-7.15s-6.65 4.62-15 15.55q-.84 5.73-1.49 11.76c1.78 10.45 3 21 3.85 31.67q2.7 3.33 5.23 6.81c0-1.15.05-2.22.05-3.2 0 0 .08 1.27.24 3.59 1.6 2.2 3.14 4.45 4.64 6.74 1.55-.95 3.12-1.87 4.72-2.78a605.52 605.52 0 0 0-4.43-90.96Zm-1.6-11.83q-1.34 4.09-2.6 8.46c1.12-1 2.26-1.93 3.4-2.89q-.43-2.8-.8-5.57Zm-28.11 4.82c2.84 6.83 5.34 13.85 7.52 21q1.74-1.86 3.51-3.69a220.85 220.85 0 0 1 14.58-37.18 468.3 468.3 0 0 0-4.84-23.37c-3.1 4.45-12.32 18.88-20.81 43.24Zm-.42 75.93c.16.24.32.48.47.73.15-1.53.29-3.06.45-4.58-.13.31-.26.63-.4.94-.21.96-.38 1.93-.56 2.91Zm-.24 73.54c-1.08-1.48-2.18-2.91-3.27-4.29q.29.78.54 1.56c.95 1.14 1.87 2.29 2.78 3.45-.06-.24-.07-.48-.09-.72Zm-.05-63.38c-.35-.82-.71-1.62-1.06-2.41q-1.71 10-3.43 21.31 1.8-1.65 3.71-3.22.22-7.84.74-15.68Zm-4.07-70.85c-2.41 8.53-4.62 18-6.46 28.31 3.24-4.35 6.61-8.63 10.12-12.8q-1.72-8.13-3.7-15.51Zm-38.13 77.88 1.25.91a337.84 337.84 0 0 1 16.69-30.27c3.29-21.27 8.6-41.88 16.61-60.77a234.74 234.74 0 0 0-16.18-38.93c-6.12 10.23-11.66 20.72-16.67 31.38-.68 30.53-1.27 64.21-1.74 97.68Zm0 3.58c.23-.47.45-.93.68-1.39l-.65-.67Zm-16.11-56.57c.13.73.25 1.46.37 2.19l.63-5.12c-.43.98-.76 1.95-1.09 2.93ZM56.72 343.35q3-3 6.2-5.78c-.39-2.69-.8-5.33-1.21-7.91-2.11 2.07-4.24 4.32-6.34 6.72.41 2.3.87 4.62 1.35 6.97Zm4.68-15.65c-.18-1.1-.36-2.18-.54-3.26a169.65 169.65 0 0 0-5.21-5.58q0 7.14-.24 14.2c1.92-1.82 3.91-3.61 5.99-5.36Zm2.72 18.24c-.19-1.33-.37-2.65-.56-4-1.71 2.3-3.55 4.86-5.47 7.67q1.66 7.26 3.79 14.8 1-9.41 2.24-18.47ZM88.33 269q.4 6.3.65 12.62c.66 1.2 1.32 2.41 2 3.61 0-.49.06-.76.06-.76.44 1.06.85 2.16 1.25 3.27q2.22 4.32 4.3 8.66c.8-8.74 1.65-17.58 2.54-26.47-.29-15.42-.62-30.68-1-45.26-3.99 14.94-7.21 29.79-9.8 44.33Zm-11.79-76a329 329 0 0 1 9.57 50.83c3.6-11.91 7.38-23.11 11.24-33.61a274.91 274.91 0 0 0-16.27-24.49c-1.47 2.17-2.99 4.59-4.54 7.27Zm-7.61-22.41q3.27 8 5.93 16.66 1.94-2.26 4-4.47-4.75-6.23-9.93-12.24Zm-4.68 101.47c-1.23 1.78-2.5 3.75-3.81 5.89-.25.58-.51 1.15-.77 1.73a86.63 86.63 0 0 1 10.25 16.49q-.49-6.46-1-12.76-2.26-5.7-4.67-11.35Zm-3.53-8q-1.48-3.26-3-6.5-.22 6-.53 12 1.71-2.78 3.53-5.49Zm.6-37.35c-1.1 3.32-2.15 6.77-3.12 10.37q3.7 4.26 7.19 8.66c-.34-3.23-.67-6.4-1-9.53-.98-3.3-2.01-6.47-3.07-9.49ZM56 172.17c.92 11 1.53 22 1.88 32.94.69 1 1.37 2.1 2 3.17l1-1.68q-2.25-18-4.49-33.22c-.08-.38-.22-.81-.39-1.21Zm-1 129.14c.4 5.45.61 10.89.67 16.31 1.3.95 2.87 2.12 4.66 3.5-1.59-9.3-3.23-17.83-4.85-25.55-.19 1.92-.34 3.84-.48 5.74Zm-26.26 28.37c-1.56-7.13-3.29-13.61-5-19.39q1.83 15 3.2 30.67c.56-2.56 1.09-5.1 1.61-7.63.03-1.23.11-2.45.19-3.65Zm1.14-16.54a114.92 114.92 0 0 0-7.48-17.7c0 .69.05 1.38.08 2.07q4.13 8 7.38 15.94a3 3 0 0 1 .02-.31Zm5.94-133.51q3.72 3.28 7.11 6.79-.26-13-1.08-25.14c-2.03 5.53-4.07 11.65-6.03 18.35Zm-7.11 29.54Q36 214.8 42.59 221q.63-16.37.39-31.5a99.54 99.54 0 0 0-7.22-9.62c-2.56 8.74-4.98 18.52-7.05 29.29Zm-1.14 6.24A139.14 139.14 0 0 1 41.47 241c.12-1.61.22-3.21.33-4.8-1.32-1.08-2.08-1.63-2.08-1.63.71.42 1.41.85 2.1 1.28.12-1.85.23-3.68.33-5.5-5-6.17-9.86-11.55-14.37-16.19Zm-5.21 78.77c2.51 3.55 5.22 7.55 8 12 .88-11.71 1.53-19.14 1.53-19.14 0 4.68.51 11.95 1.36 20.88Q36.88 287 39 267.43c-7.37-8-13.27-11.33-13.27-11.33a74.39 74.39 0 0 1 12.1 5.22 177.5 177.5 0 0 0-11.77-36.42 393.62 393.62 0 0 0-3.7 69.28Zm-8.56-91.49c.55 9 1.25 19 2 29.71 1-7 2.19-13.85 3.57-20.59a125.69 125.69 0 0 0-5.57-9.12ZM1.13 191.35c2.87 11.14 5.7 23 8.41 35.52.49-10.54 1-20.1 1.36-28.24a115.57 115.57 0 0 0-9.77-7.28ZM3328 170.91q1.76-2 3.56-4s-1.28 1.29-3.56 4ZM323.56 172.8c1.17-1.36 2.36-2.7 3.56-4 0 0-1.32 1.29-3.56 4Zm273.14 0c1.17-1.36 2.35-2.7 3.56-4a53.41 53.41 0 0 0-3.56 4Zm2458.21-1.89c1.17-1.36 2.35-2.69 3.56-4a53.41 53.41 0 0 0-3.56 4Zm-1092.54 0c1.17-1.36 2.35-2.69 3.56-4 0 0-1.32 1.29-3.56 4ZM1143 172.8c1.16-1.36 2.35-2.7 3.56-4a53.41 53.41 0 0 0-3.56 4Zm2227.6-55.67c-.1-.61-.21-1.15-.31-1.63Zm-373 .07c7.88-18.77 13.28-29.19 13.28-29.19a174.27 174.27 0 0 0-13.28 29.19Zm-546.27-59.49c7.88-22.12 13.28-34.39 13.28-34.39a226.69 226.69 0 0 0-13.28 34.39Zm-136.83-23 .32-2c-.11.54-.21 1.22-.32 1.97Zm301.64 9.68c.38-1.23.59-1.88.59-1.88-.19.49-.38 1.14-.59 1.85Zm-65 72.77c-.1-.61-.21-1.15-.32-1.63Zm-273.13 0c-.11-.61-.21-1.15-.32-1.63Zm-99.81-59.45c7.87-22.12 13.28-34.39 13.28-34.39a224.6 224.6 0 0 0-13.28 34.39Zm682.57-23 .32-2c-.09.54-.22 1.22-.32 1.97Zm-909.9 24.76c-.39-1.23-.59-1.88-.59-1.88.16.53.36 1.16.59 1.85Zm1146.57 57.69c-.11-.61-.21-1.15-.32-1.63Zm-115-3.6A193.68 193.68 0 0 0 2971 84s4.68 10.53 11.47 29.53Zm151.46-78.88.32-2c-.11.57-.22 1.25-.32 2Zm-309.6 82.45c-.1-.61-.21-1.15-.31-1.63Z" />
</svg>