<svg xmlns="http://www.w3.org/2000/svg" viewBox="0 0 152.43 145.16">
  <path fill="#ccc15a"
    d="M4.23,64.69c4.21,8.6,10.21,16,16.34,23.21,1.56,1.86,3.39,3.72,4.25,5.91,2.36,6,4.2,12.21,6.36,18.29,1.45,4.05,3.07,8.05,4.71,12,4.27,10.28,11.56,21,27.94,21H75.05c18.61,0,21.46-6.1,25.16-9.79,5.8-5.8,8.84-9.75,14.06-15.62a34.5,34.5,0,0,1,6.71-6.31,156.18,156.18,0,0,0,14.91-10.93c4.07-3.34,8.71-6,13.1-8.94C151.31,92,152.9,90,152.31,87a7.34,7.34,0,0,0-6-5.63,25.2,25.2,0,0,0-15.78,2.51c-2.26,1.18-4.22,3-6.55,4a41,41,0,0,0-9.65,5.89c-8.93,7.15-20.19-17.33-20-23.65a40,40,0,0,1,.5-6.19c.79-4.4,2.15-8.73,2.58-13.16.66-6.71.79-13.47,1-20.22.18-5.06.19-10.12.27-15.19A16.08,16.08,0,0,0,97,7.05a6.69,6.69,0,0,0-6.43-3.73A5.57,5.57,0,0,0,85.1,7.67,23.1,23.1,0,0,0,83.85,14c-.06,9.32-2.2,18.26-4.73,27.11A90.54,90.54,0,0,0,76,57.53c-.1,1.11-.46,2.13-1.83,2.13s-1.51-1.07-1.66-2.07c-1-6.92-2.23-13.81-3-20.76a225,225,0,0,0-5.7-30.37,12.56,12.56,0,0,0-1.49-3.52C60.66.26,56.82-.71,53.43.54a5.74,5.74,0,0,0-3.9,6.79,146,146,0,0,1,2.14,22.39c.06,6.92.83,13.83,1.31,20.74.26,3.72.6,7.43.81,11.15,0,.52-.45,1.07-.7,1.6-.49-.32-1.19-.53-1.44-1-2.47-4.61-5-9.19-7.24-13.93a118,118,0,0,1-7.82-20.55,36.89,36.89,0,0,0-3.11-8.13c-1.61-3-4.87-3.84-8.22-2.62a6.35,6.35,0,0,0-4.34,7.27,27.14,27.14,0,0,0,.86,3.56c1.41,4.81,2.89,9.59,4.24,14.41.92,3.31,1.5,6.71,2.53,10,1.91,6.11,4,12.15,6.1,18.21.48,1.43,1.18,2.79,1.65,4.22s-.44,2.08-1.49,2.63-1.77.12-2.57-.71c-2.58-2.66-5.17-5.34-8-7.79a34.25,34.25,0,0,1-7.42-8.5q-2.63-4.55-5.48-8.94a12.3,12.3,0,0,0-2.59-2.8A5.23,5.23,0,0,0,.66,50.61a7.61,7.61,0,0,0,0,6.13C1.71,59.44,3,62.08,4.23,64.69Z" />
</svg>