<svg xmlns="http://www.w3.org/2000/svg" viewBox="0 0 40.5 49.24">
  <path fill="#417241"
    d="M36.92,4.53c-.48,3.08.49,5.91,1.37,8.71a42.61,42.61,0,0,1,2.19,14.38c-.2,6-1.56,11.58-5.79,16-4,4.19-8.83,6.38-14.76,5.34a35.25,35.25,0,0,1-4.69-1c-1.37-.42-1.5-1.21-.55-2.18a1.66,1.66,0,0,1,.27-.26c7.1-4.85,8.27-12.46,9.39-20.11.38-2.56.89-5.1,1.38-7.65.21-1.09.56-2.15.77-3.24.06-.31-.16-.68-.25-1-.3.21-.72.36-.87.65a61.8,61.8,0,0,0-3.08,6.28c-1.7,4.39-3.17,8.86-4.76,13.29-.77,2.1-1.58,4.17-2.42,6.24-.33.8-.81,1.54-1.16,2.33C12.36,46,8.59,45.7,5.68,43.4S1.25,37.64.55,33.81c-.87-4.66-.95-9.28,1.59-13.26,3.08-4.8,6.78-9.13,12-12,4.62-2.51,9.6-4,14.52-5.64A23.85,23.85,0,0,0,34.75.35c1-.7,2-.32,2.14.88A26,26,0,0,1,36.92,4.53Z" />
</svg>