<svg xmlns="http://www.w3.org/2000/svg" viewBox="0 0 426.32 458.13">
  <path fill="#ccc15a"
    d="M213.16,0l-3,4.57L193.11,30.65c-23.76,36.35-36.73,62-39.52,87.83s4.75,51.28,20.8,86.81v0c16.58,35.46,21.44,72.12,24.2,108.94H185c-6.73-28.18-11.26-58.47-21-84.15v0h0C155.94,209,146,193.82,133.2,183.85S105,169.34,86.72,169.07c-.78,0-1.54,0-2.29,0l-3.74,0v.16C34.4,171.16-.78,203.21,0,245.07c.48,25.33,13.35,46.81,30.44,58.66s39.09,13.91,55.92-.25c6.88-5.79,13.29-15.29,13.29-15.29l5.36-7.76-9.23,2a22.23,22.23,0,0,1-14.12-2.14c-4.11-2.17-6.66-5.29-6.93-9,.66-7.22,4-11.78,8.48-14.84a26.48,26.48,0,0,1,15.14-4.27c7.52.26,18.69,3,23,5.18,12.84,6.63,31,28,37.27,44.41.87,2.27,2.88,8,4.7,13-9.54,1.94-16.93,9.64-16.93,19.21,0,10.5,8.91,18.69,19.78,19.54a29.21,29.21,0,0,1-13.31,16.09c-7.1,4.08-18.12,2.3-25.75-2.89-2.47-1.68-5.92-5.76-8.44-9.33s-4.25-6.61-4.25-6.61l-4.75-8.31-2.16,9.32c-1.84,7.89-3,15.2-2.31,22.32a36.16,36.16,0,0,0,8.92,20.4h0c9.38,10.74,23.77,17.84,38.45,16.17l.21,0c13.7-2.36,23.64-8.09,30-16.46s9.19-19.09,9.75-31.1v0a83.94,83.94,0,0,0-.2-9.39h5c-1.39,9.67-3.67,22.83-5.93,29.27-3.81,10.84-6.52,20-5.39,28.9,2.19,17.37,11.08,34.1,24.92,44.49l2.38,1.78,2.28-1.91c13.05-10.94,24.82-27.68,25.64-44.32.47-9.3-2.27-20.06-8-39.89-1-3.32-1.83-11.31-2.62-18.32h6.06c-.64,12.94,1,25.26,6.21,35.27,5.78,11.07,16.12,19.14,30.93,21.14h0c14.5,1.86,28.74-4.6,38.28-14.78l.09-.1.08-.11c6.09-7.52,9.67-14,10.64-21.17s-.68-14.39-3.92-23.47l-2.8-7.85-4,7.3s-4.17,7.56-7.3,12.39c-6.77,10.42-21.12,12-32,5.42-7.21-5.65-10-9.54-11.12-14.22,10.83-.88,19.71-9.05,19.71-19.53,0-9.8-7.75-17.64-17.61-19.34.6-1.78,1.21-3.56,1.76-5.19,1.05-3.1,2.18-6,2.31-6.21,8.89-15.77,19-28.93,30.67-37.78S323.3,252,338.68,253c1.83.12,6.18,2.73,9.3,6.71s5,9,4.63,12.22c-.89,7.41-2.62,9.47-5.24,10.71s-7.46,1.32-13.85,1.54l-5.1.17,1.68,4.81a37.5,37.5,0,0,0,10.81,14.34c11.85,10,27.51,11.84,41.9,7.26s27.73-15.53,35.79-31.34l0-.1,0-.11c10.74-24.68,9.61-47.6,0-66.05s-27.51-32.35-49.63-40l0,0a91.6,91.6,0,0,0-28.16-4.85,76.77,76.77,0,0,0-35.47,8h0c-17.38,8.86-31,28.33-42.22,57.07-8.43,21.62-15.45,48.75-21.41,80.94h-13c.53-8,1-18.62,1.56-24.83,2.39-28.65,11.27-58.81,29.71-100.31,16.16-36.38,18.88-63.33,9-92.49l0-.15c-13.56-35-32.85-64.66-52.56-92.06Z" />
</svg>