<svg xmlns="http://www.w3.org/2000/svg" viewBox="0 0 721.99 773.7"><defs><style>.cls-3{fill:#b2a556}</style></defs><g id="Layer_2" data-name="Layer 2"><g id="Layer_1-2" data-name="Layer 1"><path d="M666.11 243.13c78.06 176.65 65.28 393-143 484.35-207.65 91-374.18 53-478.07-162.78-83.76-174-59.8-372.07 149.76-471.33C389.22 1.28 573.05 32.53 666.11 243.13Z" style="fill:#fff"/><path d="M601.35 346c0 127.57-103.42 231-231 231s-231-103.41-231-231 103.41-231 231-231 231 103.46 231 231Z" style="fill:#ccc15a"/><g id="Moon"><path class="cls-3" d="M596.48 350.87q0-8-.56-15.75a42.77 42.77 0 0 1-5.9-13 36.37 36.37 0 0 1 1-20.65 220.87 220.87 0 0 0-8.84-29.47 24.67 24.67 0 0 1-9.6-12.79 17.25 17.25 0 0 1-.25-9.57q-3.57-7-7.61-13.78c-9.27-1.9-17.56-8-20.58-17.45a17.31 17.31 0 0 1-.29-9.4c-9.6-3.92-16.71-13.13-19.94-23.19a226.7 226.7 0 0 0-20-16.32 13.81 13.81 0 0 1-6.6 1.63c-8.81 0-14.1-7.26-15.89-16-2.89-1.61-5.84-3.13-8.8-4.62a14.84 14.84 0 0 1-6.13 1.3c-10.19 0-20.32-5-25.14-14.1a223.05 223.05 0 0 0-33.1-8 15.24 15.24 0 0 1-3.57.43 31.1 31.1 0 0 1-11.81-2.35q-10-.92-20.34-.93c-69.49 0-92.63 13.79-39.5 4.5a260.16 260.16 0 0 0-34.73 14.08 57 57 0 0 1 8.36-.57 35.67 35.67 0 0 0 .31 9.93c55.27-15.21 50.6 5.88 50.6 5.88S314 165.23 303 170.62s-18.22 31.46-1.23 28.12c33.38-21.9 79-27.83 109.48-4.85 63.61 55.22-20.22 100.22-59.48 93-12.12-2.21 32.23 20.27 32.23 20.27s-.9 17.2-19.09 14.29c-8.56 7.91-8.56 7.91 18.47 24.56s4.92 9.34-3.94 16.3 7.07 1.36-27-6.18-11.06 48.79 1.93 47.41c-25.58 13.74-13.45 89.26-79.27 31.36-24.91-21.91-1.73-29-10.15-37.69s-20.15 3.38-13.29 8.78-1.41 45.4-25.36 18c-32.69-37.41 3.35-27.16 3.35-27.16s22.61-2.29 6.61-26.13c-9-8.4-27.2 1.49-39.35-6.85A99.93 99.93 0 0 1 180 330c-1.47 1.83-3.1 2.78-4.41 2.33-2.27-.78-2.73-5.42-1-10.37a17.86 17.86 0 0 1 2.71-5.14c-.37-2.68-.65-5.38-.82-8.08-1-15.52 22.27-27 7.38-46.37-37.06 82-23.09 181.18 62.3 246.91 12 9.22-39.32-13.34-30.58 0-41-40.37 33.29 65.52 157 65.52 93.27 0 173.22-57 206.89-138.13a16.58 16.58 0 0 1 5.86-15.78q3-9.21 5.28-18.76c-2.32-8.89-.82-19.76 4.48-26.09a224.92 224.92 0 0 0 1.39-25.17ZM413.25 168.72c-29.84 1.87-48.78-11.24-47.88-13.84 1.48-4.33 55.88 9.91 81.64 18.76s64.25 25.41 55 32.91c-3.56 2.88-16.62-1.37-42.37-10.22-10.23.67-31.1-9.01-46.39-27.61Zm52.07 248c-4-2.84-2.57-11.81 3.24-20a34.65 34.65 0 0 1 4.48-5.21c-53.6-38.08 8.67-74-4.2-72.69-3.19.34-7.64-.27-12.51-1.71-.55 12.23-12.5 22-27.18 22-15 0-27.2-10.24-27.2-22.88 0-11.91 10.82-21.7 24.64-22.78a21.82 21.82 0 0 1-.94-11.14c4.1-23.62 30.72-46.17 30.72-46.17s22.1 19.46 37.49 19.55c14.79 20.1 9.31 45.74 1 57.89 3.29 22 47-15.54 33.41 19 27.87 78.92-31.74 44.15-31.74 44.15s.75 8.34-8.31 12.89c1.35 4.05-.51 10.95-5.07 17.41-5.84 8.21-13.8 12.57-17.83 9.73ZM496 451.84c-3.09 9-16.78 16.49-23.27 14.26s-2.27-12.6.82-21.6 15.64-14.55 22.13-12.32 3.44 10.66.32 19.66ZM565.76 412c-6.18 28.66-48 32.9-50.51 23.7s13-15.76 6.62-27.12 26.72-31.6 26.72-31.6 21.49 14.95 17.17 35.02Zm24.06-67.05c-3 6.89-6.64 12.82-20.19 19.34s-17.72-26.16-19.63-32.66 12.68-22.34 22.62-18.93 20.21 25.3 17.2 32.2Z" id="crater3"/><path class="cls-3" d="M323.8 292.28c-6.75 0-15.9 4.93-15.9 11s9.15 11 15.9 11 9.17-4.93 9.17-11-2.42-11-9.17-11Z" id="crater2"/><ellipse class="cls-3" cx="256.37" cy="295.13" rx="12.23" ry="8.56" transform="rotate(-75.66 256.398 295.14)" id="crater1"/></g><g id="layer1"><path d="M393.41 768.12c-.65-5.43-1.6-10.84-2.45-16.31-.13-.67-.25-1.35-.37-2-.62-3.52-1.44-7.54-2.14-22.22-.36-9.09-.34-19.51.25-33 .78-17.06 2.27-38.55 5.91-60.41 2.14-14.25-.34-23.43.75-25.95 2.81-14.77 1.46-27.22-.14-37.65-.79-10.06-2.41-18.61-.39-23.84 4.33-15.72 3.33-28.81 4.77-37.94q1.57-9.52 3.63-19.11c4.52-14.38 9.06-29.51 12.41-44.6 2.8-14.14 1.71-26.83.48-38 .33-5.77.46-11.38.59-16.84.13-5.06.22-9.95.44-14.71a15 15 0 0 1 .67-1.4 40.33 40.33 0 0 0 2.91-13.39 13.18 13.18 0 0 0 .45-3.94c.26-.4.55-.83.9-1.28a36.56 36.56 0 0 0 5.45-10.05 21.7 21.7 0 0 0 2.24-2.44 55.83 55.83 0 0 1 10-11.69c.72-.36 1.54-.78 2.47-1.3-.63 1.43 1.18-.09 4.91-4.66.62-.61 1.18-1.2 1.61-1.71.61-.28 1.21-.57 1.82-.83a44.84 44.84 0 0 0 7.71-2.74 6 6 0 0 0 1.55-.07c2.05.06 4.46.44 7.21.8a61 61 0 0 0 9 .74c1.56.41 3.92 0 6.74-1.31a34.78 34.78 0 0 0 9.65-2.5c1.49-.79 2.94-1.59 4.39-2.38 1.65-.38 3.23-.76 4.74-1.09 5.48 2.8 10.64 4.3 14.95 5.94.15.9.31 1.89.51 3-.11.21.16 1.52 1.09 3.78a34.32 34.32 0 0 0 11.7 11.83 36.46 36.46 0 0 0 14.31 6.81c.71.4 1.48.8 2.33 1.19a19.37 19.37 0 0 1 3 2.93c1.55 1.4 1.38 4.53 1.6 7.84-.12 3.35.34 7.54 3.3 10.83a61.37 61.37 0 0 0 15.9 11.72c2.13.9 3.8 3.28 5.69 5.57s3.44 4.77 5.48 7.08c4.07 4.53 9.14 7.08 12.75 10.57 5.53 5.2 7.26 13.9 12.75 19.29a6.53 6.53 0 0 0 2.13 1.23c1.13.48 2.29.88 3.4 1.24 3.15 1 6.27 1.81 9.23 2.47a72 72 0 0 0 9.23 1.55 18.64 18.64 0 0 0 3.42.08 3.14 3.14 0 0 0 2.15-.71c1.39-1.52 3.87-1.69 5.88-1.75a210.69 210.69 0 0 1 21.36.51 208.35 208.35 0 0 0-21.36-1.27c-2.05-.06-4.71.07-6.58 1.81-.25.31-.86.28-1.52.35a18.78 18.78 0 0 1-3.22-.19 72.23 72.23 0 0 1-9-1.85c-2.9-.75-6-1.64-9-2.74-1.08-.4-2.16-.81-3.2-1.3a5 5 0 0 1-1.48-.87c-4.81-4.91-6.05-13.42-12.17-19.87-3.9-4-8.9-6.76-12.17-10.79-1.75-2.12-3.26-4.62-5.1-7.12-1.65-2.35-3.65-5.16-6.86-6.93-5.29-2.75-9.9-6.83-14.37-11.43-1.61-1.27-1.42-4.26-1.56-7.49a19.9 19.9 0 0 0-1-8.36 25.16 25.16 0 0 1 3.16.75c4.12.89 6.86-.4 7.24-.06 1.64.37 3.89 1 6.12 1.38a12.65 12.65 0 0 0 8.19-.62l.58-.33a650.24 650.24 0 0 0 82.35 2.22c11-.37 20.75.3 28.82-.26 9.15-.59 14.92-2.2 19.21-4.57a17.79 17.79 0 0 0 5.37-4.12s-6.65 6.76-24.64 6.93c-7.95 0-17.5-1.27-28.76-1.64-14.13-.47-31.2-1.41-50-3.41a11.08 11.08 0 0 0 1.39-1c3.74-4 5.33-8.9 7.11-13.21 1.79-3.88 4-7.71 7.44-8.78 1.8-.79 4.34-.17 7.09.13 2.57.45 5.74.86 8.74-.55a5.6 5.6 0 0 0 1.15-1.55c3.35-1.55 8.17-1.28 12.06-3.85.75-.67 2.26-.55 3.84-.68 2.34-.09 4.75 0 7.06.11 2.6.1 5 .22 7.49.21a16.92 16.92 0 0 0 5.68-.64c5.45-2 10.14-6.34 13.27-9a138.54 138.54 0 0 0 11.68-11.14A140.22 140.22 0 0 1 694.75 306c-3.26 2.57-8.11 6.69-13.26 8.25a16 16 0 0 1-5.21.33c-2.43-.1-4.78-.32-7.39-.54-2.29-.19-4.75-.41-7.22-.43a8.91 8.91 0 0 0-5.2.9c-3.06 2.06-7.88 1.26-12.58 3.44a6.06 6.06 0 0 0-1.11 1.42c-1.65.62-3.87 0-6.32-.29-2.51-.52-5.56-1.23-8.85-.32-5.1 1.78-8.34 6.25-10.29 10.61-2.2 4.46-3.69 8.82-6.63 11.45-1.28 1.82-4.93.92-8.44.53-3.64-.76-7.16-2.23-11.79-2.39a15.32 15.32 0 0 0-7.48 2.54c-11.81-1.87-24-4.19-36.42-7.11-2.89-.56-5.82-2.93-9.37-5.54-2.91-2.51-5.62-4.71-6.8-6.95.05 0 0-.25-.12-.75-.09-.83-.17-1.77-.28-2.8s-.21-2-.43-3.27c1.48.65.32-1.6-4.17-6.18-3.12-1.68-6.17-2.95-9-4.15a173.21 173.21 0 0 1 20.7-9.4 27.66 27.66 0 0 0 9.1-6c3.39-2.87 6.59-5.84 9.63-8.57 6.74-5.78 11.94-11.38 18.19-13.51 5.86-2.29 13.12-2.74 20.32-3.52 3.73-.38 7.39-.7 11.18-1.19 1.08-.13 2.23-.28 3.41-.48 1.37 1.35 4.28 2.19 7.61 1.91.25 0 .68-.06 1.39-.14 4-.41 9.22-1.07 13.17-1.48a122.1 122.1 0 0 1 12.5-.8c2.8.17 5.56-.11 7 .95 2.13 1.1 3.8 4.18 6.76 6.93 5.3 4.84 12 7 18.17 8.72a27.38 27.38 0 0 0 9.7.48c4.57-.3 9.12-.92 13.07-1.48C712.19 275.18 722 274 722 274s-10 .44-23.91 1.37c-4 .26-8.51.54-13 .49-3-.05-6.06 0-8.52-1-6-2.3-12-4.64-15.82-8.9-2-2.19-3.66-5.58-7.08-8.17a18.68 18.68 0 0 0-9.86-2.52 126.42 126.42 0 0 0-13.24-.11l-3.19.14c4.18-1.94 8.18-4 12-6.13 8.23-4.5 15.83-9.2 22-15.7a25.71 25.71 0 0 0 4.6-8.4c1.14-2.39 1.85-4.51 3.13-5.6a1.21 1.21 0 0 0 .28 0c.51.49 2 .45 4-.71 3.57-4.06 4.16-9.25 4.68-13.1.87-5.1 1-8.84 2.21-13 2.44-8.2 5.78-15.18 7.95-21.31 5.18-14.63 3.12-23.65 3.12-23.65s1.45 9.19-4.52 23.11c-2.52 5.89-6.26 12.58-9.34 20.92-1.63 4.48-2 8.4-3.12 13.17-.94 3.61-1.56 7.75-3.63 10h-.06c-.41-.41-1.75-.59-3.81.19a17.52 17.52 0 0 0-5.73 7.7c-1.36 2.59-2.34 5.18-3.91 6.47-5.77 5.44-13 9.19-21.28 13.17q-2.5 1.19-5.08 2.31a21.16 21.16 0 0 0 2.3-3.55 8 8 0 0 0-.32-6.41c-.69-2.69-1.51-5.3-2.21-7.89a56.33 56.33 0 0 1-1.75-8.36c-.19-2.29-.37-4.44.44-6 1.16-2.61 3.37-5 5.47-7.5s4.37-5.24 5.46-8.66c.49-2.17-.35-3.46-.09-3.81.62-2.59 4.17-4.63 5.4-8.26 3.75-12.31 5.89-19.51 7.07-27.94a60.69 60.69 0 0 0 .7-11.43 60.78 60.78 0 0 1-1.31 11.32c-1.65 8.37-4.14 15.2-8.54 27.35-.83 2.53-4.37 4.16-5.92 8.1-.54 2 .22 3.47-.1 3.74-.93 2.66-3 4.86-5.26 7.29a38.69 38.69 0 0 0-6.46 8 15.22 15.22 0 0 0-1.24 8.16 61.51 61.51 0 0 0 1.4 9.13c.59 2.75 1.26 5.38 1.78 7.94.12 2 .89 3.1.51 2.74a20.59 20.59 0 0 1-2.52 3.24c-1.49 1.72-3.05 3.36-4.6 4.94-1 1-2 1.95-2.92 2.87-2.17.76-4.36 1.47-6.59 2.13a34 34 0 0 1-7 .91c-.94-.1-1.89-.18-2.85-.21a95.86 95.86 0 0 0-13.44.86l-2.36.12c2-1.93 4-3.88 6-5.92 3.25-4 2.74-8 3.78-9.44 1-1.72 4.59-3.5 6.39-7.83a22.76 22.76 0 0 0-.18-13.84c-1.36-4.08-3.37-7.55-4.89-10.94a23.29 23.29 0 0 1-2.38-10.92c.29-5.34 3.14-10.45 6.29-14.88 6.06-8.43 15.44-16.91 21.69-23.38 4.68-4.9 7.23-11.52 9.25-16.62a92 92 0 0 0 5.58-17.79c1.09-6 3.58-10.52 4.37-13.73a17.07 17.07 0 0 0 .63-5 16.67 16.67 0 0 1-.81 5c-.9 3.16-3.54 7.49-4.88 13.64a91.62 91.62 0 0 1-6.08 17.47c-2.23 5-4.94 11.41-9.43 15.7-6.4 6.16-16.12 14.32-22.82 22.9-3.55 4.5-6.82 10.06-7.54 16.5a27.33 27.33 0 0 0 2.26 12.92c1.5 3.73 3.35 7.16 4.34 10.66a17.62 17.62 0 0 1-.22 10.8c-.21 1.67-3.55 2.79-6.07 6.41-2.53 3.95-2 7.8-3.34 8.35-3.55 3.43-7.32 6.66-11.18 10l-1.63 1.39c-1.59.31-3.18.67-4.78 1.13a49.63 49.63 0 0 0-11.59 5.7c-3-.11-6.67-.44-10.82.73-.14-.38-.29-.76-.45-1.12-1.06-2.49-2.28-4.53-3.13-6.38-.49-1.53-1.11-2.59-.77-2.87.77-2.74 2.88-5.81 4.19-9.88a60.46 60.46 0 0 0 2.21-16.32 77 77 0 0 0-1-15.92 11.22 11.22 0 0 0 1.21-.7c1.59-.94 3.07-1.94 4.48-2.94 3.77-2.66 7.36-5.48 10.84-8.33s6.93-5.78 10.24-8.82c1.23-1.14 2.47-2.3 3.67-3.55a14 14 0 0 0 2.26-2.75c2.82-5 5.73-9.49 8.54-14.46 3.49-6.23 3.52-12.8 6.62-17 2.15-3.05 4.95-5.72 7.46-8.63s5.52-5.87 6.53-10c1.86-8.48.34-18.24-.26-24.38-1.49-15.67 2.63-24 2.63-24s-4.64 8.1-3.87 24.07c.28 6.21 1.3 16-.89 23.7-.81 3.17-3.6 5.47-6.39 8.51-2.41 2.53-5.59 5.34-8.1 8.5-4 5.31-4.6 12.22-7.62 16.83s-6.29 9.33-9.26 14a12 12 0 0 1-1.54 1.6c-.83.77-1.7 1.53-2.6 2.29.24-1.1.46-2.19.66-3.28.58-3 1.07-6.07 1.61-9.1a33.12 33.12 0 0 1 1.25-5.67 46.64 46.64 0 0 0 1.79-7c.25-1.16.49-2.31.75-3.45.21-.78.23-1.29.32-1.41 2.8-5.45 6.48-12 4.87-19.05-1-3.48-3-6.16-4.34-8.69-1.25-2.77-2.32-5.7-1.14-7.81a79.11 79.11 0 0 0 4.26-9.79c1.22-3.65 1.75-7.67.5-11.37-1.88-5.33-4-10.26-5.44-15.07a50 50 0 0 1-2-8.69c-.26-2.39-.37-4.63.54-6.49 1.46-3.12 4.58-5.6 6.83-7.56 2.94-2.51 5.16-4.24 6.07-7.1a12.38 12.38 0 0 0-.79-9.49 12.18 12.18 0 0 1 .46 9.38c-.95 2.72-3.15 4.22-6.18 6.68-2.32 1.85-5.58 4.27-7.35 7.61a13 13 0 0 0-.9 7.1 52.05 52.05 0 0 0 1.71 9c1.32 5 3.25 10 4.91 15.32 1 3 .31 6.47-.87 9.83a77.48 77.48 0 0 1-4.45 9.29c-1.66 3.57-.75 7.52.8 10.6 1.38 3 3.26 5.56 3.79 8.14 1.42 5.05-2.38 10.4-5.2 16.2a9.2 9.2 0 0 0-.73 2.32c-.3 1.16-.59 2.31-.88 3.45a43.57 43.57 0 0 1-1.82 6.27 35.36 35.36 0 0 0-1.71 6.48c-.66 3.06-1.26 6.06-1.92 9a68.13 68.13 0 0 1-2.25 8.19 13.68 13.68 0 0 0-1 2.42l-1 .73c-.69.14-1.73.14-3 .33a9.82 9.82 0 0 0-6.11 2.41 72.06 72.06 0 0 1-6.11 5.13l-1.7 1.29c-.59-3.6-1.09-7.15-1.45-10.69-.72-7.29-1.13-13.8.28-20.06a97.76 97.76 0 0 1 6.5-20.43c.74-1.67 2.44-3.08 3.81-4.46a14 14 0 0 0 3.93-5.55c3.58-11.85 1.28-19.74 1.28-19.74s1.88 8.08-2.27 19.41c-.65 1.86-2.14 3.26-3.89 4.87a18.31 18.31 0 0 0-4.39 4.7 99.38 99.38 0 0 0-7.74 20.51c-1.83 6.68-1.83 13.64-1.43 21.05.22 4.38.64 8.76 1.17 13.22-.39.21-.77.41-1.16.59-.1.29-1.1 0-2.61-.07a10.63 10.63 0 0 0-6.27.57l-.18.08c-5.14 0-10.61 0-16.24 1.63a17.72 17.72 0 0 0-4.7 2.54c-1.75 1.18-3.4 2.38-5 3.49-2.4 1.63-4.35 3.19-6.15 4.17a40.22 40.22 0 0 0-4.12 1.46l-3 .9c1.31-1.76 2.63-3.52 3.91-5.27 4-5.35 7.66-10.48 11.08-15.9 2.51-3.83 5.14-8 6.34-13.07 1.27-6.35 5.18-12.72 6.44-19.88 1-6.62-1.31-11.86-.55-16.13 1.19-7.75 6.26-15.51 9.69-21.1 4.93-8.07 6.76-19.92 7.61-24 1.18-5.72 2.08-8.68 2.08-8.68s-1.11 2.89-2.69 8.54c-1.14 4-3.8 15.76-9 22.85-3.83 5.29-9.55 12.86-11.67 21.62-1.23 5.7.66 11.49-.55 15.91-1.33 5.8-5.54 11.48-7.8 19.29-.74 2.75-2.48 5.3-4.51 8.14 0-.16-.08-.29-.13-.47-1.89-3.37-4.51-5.51-6.78-7.46-1.17-1.06-2.33-2.08-3.38-3.12-.76-.85-1.4-1.31-1.45-1.62-1.87-4.36-4.32-8.23-6.06-12.21-1.68-4.18-3.32-8.43-2.08-12 2.05-6.95 8.91-13.06 10.2-21.16A171.5 171.5 0 0 0 496 104.1c-.14-5.77-1.55-10.56-1-14.43a91.43 91.43 0 0 0 1-10.74 91.92 91.92 0 0 1-1.53 10.66c-.75 4 .41 9 .27 14.51a170.75 170.75 0 0 1-3.2 28.1c-1.19 6.82-8.16 12.09-11.2 20.39-1.69 5.17-.28 10.53 1.54 14.94s4 8.48 5.43 12.42a10.41 10.41 0 0 0 2.41 3.39c1.14 1.24 2.31 2.38 3.39 3.46 2.07 2.14 4 3.75 5 5.54a.11.11 0 0 0 0 .05c-.07.48-.2 1-.35 1.66-.43 1.74-1 3.49-1.55 5.21-.29.87-.59 1.72-.89 2.54-1.48 1.8-3 3.6-4.57 5.46-.3.2-.63.43-1 .72a19 19 0 0 0-1.42 2.09l-6.33 7.45a19.65 19.65 0 0 0-.76-9.43 26 26 0 0 0-5.56-8.74c-2.11-2.29-4.29-4.2-6.19-6.07-1.52-1.65-2.9-2.86-3.2-4a85.49 85.49 0 0 0-4.89-11 5.42 5.42 0 0 0 .48-1.69 41.6 41.6 0 0 1 2.87-5.82c2.22-3.78 5.28-8.09 6.13-13.68 1.48-14.28-5.55-28.75-8.12-39.95a32.38 32.38 0 0 1 .81-16.5c1.53-5.06 4.21-10.29 6.28-14.69 2.39-5.39.21-11.27-1.7-15.24-2.39-5.11-5.2-9.08-6.06-12.89-1.75-7.7-1.2-12.4-1.2-12.4s-.78 4.64.59 12.53c.9 5.12 2.93 7.21 5.43 13.3 1.59 4 3.41 9.64 1.05 13.76s-5.23 9.4-7.15 14.71a35.76 35.76 0 0 0-1.81 18.14c1.19 7 3.79 14.77 5.34 22.39a25.82 25.82 0 0 1-1.85-4.5c-1.51-5.11-5.69-8.43-9.5-10.86s-7.53-4.25-10.45-7a1 1 0 0 0 0-.37 2.85 2.85 0 0 0-.09-2.08c-1.32-2.54-3.59-3.74-3.77-5.32-1.37-6.23-.89-12.78-2.19-18.82-1.08-4.85-4.3-8.72-7.43-11.61-3.54-3.31-7.21-5.86-10.11-8.66-1.39-1.19-.64-3.63.15-5.26 1.15-2.21 2.49-3.48 2.92-5.73a14.71 14.71 0 0 0-.9-8.06c-1.33-3.36-1.84-5.2-1.84-5.2a54.68 54.68 0 0 0 1.72 5.29 14.58 14.58 0 0 1 .63 7.92c-.39 1.83-1.91 3.43-3.05 5.5-1 1.67-1.82 4.32-.18 6.17 2.86 3 6.48 5.65 9.82 9 2.92 2.94 5.87 6.68 6.63 11 1.06 5.76.36 12.19 1.58 18.94.69 2.78 2.91 4.32 3.72 5.89a1.13 1.13 0 0 0-.13.64c-.27.18-.33 1 .4 2.35 3.33 3.39 7.3 5.36 10.91 7.92s7.14 5.49 7.84 9.19c.74 3 2.2 5.55 3 7.93.52 2.49 1.6 5 .4 5.33-1.19 2-1.1 3.49-.69 3.88a2.53 2.53 0 0 0 .19 1.12c-1.15 2.21-3.45 4.27-5.11 7.38a17.58 17.58 0 0 0-1.3 4.25c-.52 2.17-1 4.34-1.37 6.5s-.77 4.3-1 6.52a25.08 25.08 0 0 0-.18 2.57 4.61 4.61 0 0 0 .43 2.44c1.31 2.72 2.85 5.24 4.2 7.61.85 1.48 1.69 3 2.55 4.42.29.5.59 1 .91 1.52 0 .05.21.46.82 1.14 3.56 3.81 7.91 5 7.95 7.15.19.2-.45 2.23.72 5.46 1.19 2.31 2.47 3.16 2.28 3.39.11.09.05.42 0 .91a12.5 12.5 0 0 1-.4 1.36 45.86 45.86 0 0 0-1.31 5.64 8.15 8.15 0 0 0-.46 1.57 28.22 28.22 0 0 0-2.67 1.43 20.24 20.24 0 0 0-2.57 3.23c-1.19 1.6-2.35 3.21-3.47 4.78s-2.19 3.07-3.26 4.61c-.36.51-.72 1-1.09 1.58-.18.33-.37.67-.56 1a3.81 3.81 0 0 0-.23.45c-1.29 4.49-1 7.59-1.89 8.46a20.43 20.43 0 0 0-4.29 3.09 1.49 1.49 0 0 0-.15.2l-.38.49-1.12 2c-.42 1-.84 1.94-1.23 2.86-.68 1.55-1.41 3.12-2.1 5.09-.87 3.62-5.3 7.72-8.21 11.67-3.74-11.22-11.55-20-20.09-27.82-3.57-3.41-7.31-6.67-10.82-10a9.11 9.11 0 0 1 .21-1.76 36 36 0 0 1 2-7 5.69 5.69 0 0 1 1.94-2.5c3.08-2.05 7.26-2.86 11.05-4.87a7.89 7.89 0 0 0 3.35-4.2 35.31 35.31 0 0 0 1.71-5.83c1-3.86.91-7.31 3.11-9.5.62-.75 1.91-1.05 3.13-1.54a7 7 0 0 0 3.72-2.49c1.25-2.13.69-4.61.14-6.42-.6-2.25-1.19-4.11-.38-5.75 1-2.19 1.94-3.15 2.39-5.14a8.94 8.94 0 0 0-.43-3.9c-.56-2.3.25-3.07.25-3.07s-.91.73-.42 3.11a8.69 8.69 0 0 1 .24 3.77c-.43 1.53-1.62 3-2.64 4.93s-.54 4.05 0 6.3c.37 1.81.82 4.07-.27 5.44-.59.91-1.8 1.31-3.12 1.76a9.28 9.28 0 0 0-3.87 1.76c-2.77 2.78-3.16 6.64-4.09 10.17a33.89 33.89 0 0 1-1.87 5.33c-.66 1.23-1.32 2.42-2.24 2.73-3.37 1.58-7.57 2.17-11.59 4.44a9.24 9.24 0 0 0-3.46 3.85 35.41 35.41 0 0 0-2.45 6.82 47.3 47.3 0 0 1-8.12-10.89c-.25-.16-.22-.8 0-1.22a18.77 18.77 0 0 1 2.83-3.59 21.23 21.23 0 0 0 4-5.69 11.26 11.26 0 0 0 0-8.61c-1.95-4.31-5-7.28-7.67-9.82a36.09 36.09 0 0 1-2.75-3.18c.18 0 .37-.07.55-.12a29.42 29.42 0 0 0 9.24-4.61 94.82 94.82 0 0 0 10.67-8.3 84 84 0 0 0 9.31-9.53c2.18-2.62 4.16-5.23 4.91-8.41 1.38-6.07.9-12.73 2.27-18.79.92-4.05 3-7 3.65-9.16a9.17 9.17 0 0 0 .52-3.37 9 9 0 0 1-.66 3.32c-.74 2.1-2.93 4.87-4.07 9.07-1.35 4.94-1.14 11.57-3.07 18.59-.73 2.77-2.7 5-4.94 7.57a80.49 80.49 0 0 1-9.47 8.89 92.2 92.2 0 0 1-10.71 7.61c-2.71 1.6-5.51 3.28-8.39 3.81-.55.11-1.1.2-1.65.29a8.07 8.07 0 0 1-.5-1.77c-.77-3.86-.49-8.12-.16-12.4s.75-8.45 2.13-12.1c.92-2.52 2.53-5 3.81-7.93a17.53 17.53 0 0 0 1.19-10.02c-2.42-12.63-8.34-22.89-10.55-32.84-1.29-5.63-.49-12 .08-17 .83-7.16 1.21-12.3.05-17.54-2.14-9.6-3-15.07-3-15.07s.64 5.63 2.34 15.2c.92 5.18.29 10.1-.83 17.22-.81 5-1.9 11.43-.82 17.65 1.86 10.44 7.37 21.19 9 33a13.33 13.33 0 0 1-1.35 7.76c-1.2 2.44-2.94 4.93-4.26 8a49.35 49.35 0 0 0-3 13.26 51.4 51.4 0 0 0-.37 13.87c.09.51.21 1 .35 1.51-4.42.31-9 .29-13.93.4-7 .12-14.63.48-22 3.18-4.29 1.8-6.75 5.06-9.2 6.11-1.12.55-2.66.89-4.45 1.57a7.68 7.68 0 0 0-.79.24 7.9 7.9 0 0 0-.55-3.2c0-.71-.1-1.1-.23-1.2a63.37 63.37 0 0 0 3.9-12.91c.1-.22.22-.42.32-.66a12.93 12.93 0 0 0 .32-3c.16-1.05.31-2.09.44-3.12.66-2.19 2-6.43 3.62-14a40 40 0 0 0 1.31-11.3c1.81-6.68.34-12.8-.91-17.39-1-6.09-2.82-11-.88-14.37 3.76-8.36 12.14-15.72 15.36-25.72 9.89-33.2-2.44-63-9.43-76-1.46-2.56-.61-6.63-.37-8.84C347 2 344.29 0 344.29 0s2.46 2.18 1.36 8.62c-.4 2.14-1.53 6.2-.1 9.44 6.17 13.37 16.12 43.19 4.82 73.56-1.64 4.69-5.33 8.75-9.21 13.46a25.75 25.75 0 0 0-1-10.4c-1.9-5.79-6.14-9.59-8-13.91-.39-.86-.34-2.7-1.52-4.67a24.07 24.07 0 0 0-5.28-4.79c-1.69-1.38-3.17-2.89-3.62-4.69-1.62-5.7-.9-12.94-1-18.55a25.7 25.7 0 0 0-5.55-16 44 44 0 0 0-3.22-3.2A36.24 36.24 0 0 1 308 24.6a8 8 0 0 1-2-4.36 3.47 3.47 0 0 1 2.49-3.64 3.54 3.54 0 0 0-2.71 3.64 8.22 8.22 0 0 0 1.86 4.63 38.57 38.57 0 0 0 3.76 4.49 39.7 39.7 0 0 1 3 3.28 24.51 24.51 0 0 1 4.6 15.43c-.14 5.44-1.21 12.72.21 19.2a12.48 12.48 0 0 0 4.3 6.36c1.72 1.52 3.52 2.76 4.43 4.31.5.56.24 2.13 1 4.14C331 87.47 335 91.47 336 95.86a20.6 20.6 0 0 1-.34 11.76c-1.13 3.43-3.23 6.81-5.08 10.34-.48 1.42-.53 2.07-.36 1.88v1.59c0 1.47.05 2.92.1 4.33s.11 2.84.18 4.25c0 .47.05 1 .09 1.45 0 .26.09.53.14.81a2.29 2.29 0 0 0 .07.36 19.35 19.35 0 0 0 2.06 3.22c.61 5.51 1.9 10.65-.16 13.23-3.69 7.2-4.76 14.7-5.86 21.61-.74 4.07-1.52 8.12-2.61 11.92a16.38 16.38 0 0 0-2.19-4c-4.5-5.65-10.18-9.18-15.52-13.2-4.67-3.75-9.58-7.5-10.54-12.6-2.59-11.51.5-23.81 6.05-33.56 1.43-2.44 3.24-4.88 3.77-8A42.86 42.86 0 0 0 303.88 92c-2.37-7.32-4.15-11.06-5.1-16.91-1.68-9.91 1.55-16.31 1.55-16.31s-3.47 5.91-2.23 16.41c.74 6 2.38 9.9 4.42 17.22a40.76 40.76 0 0 1 1.13 18.42c-.4 2.43-2.19 4.47-3.78 7.08-6.26 9.92-10.08 22.79-7.8 35.66 1.44 6.86 6.72 11.75 11.52 15.53 5.38 4.49 10.65 7.95 14 12.8 1.87 2.45 2.14 6 1.55 9.15-.65 3.39-2.39 7.18-3.67 10.82a6.3 6.3 0 0 0-.3 2.4c0 .91 0 1.77.09 2.56.07 1.05.17 2.09.27 3.11a205.22 205.22 0 0 1-14.79 21.61 10.53 10.53 0 0 0-.55-1.54c-3.82-7.06-9.94-11.58-15.48-16.39-5.75-5.14-11.72-9.66-15-15.91-.09.15.07-.25.05-1a1.18 1.18 0 0 0 .12-.8c3.94-2.94 5.92-7.42 7.13-11.5 1.32-4.5.21-9.06-1.32-12.8-1.64-4.19-3.49-7.25-4.19-11.06-.8-4.42-2.37-7.52-1.52-11.05 1.06-4.62 1.34-8.59.37-12.17-2.31-8.46-4.07-13.14-4.07-13.14s1.59 5 3.47 13.29c.8 3.49.33 7.24-.89 11.74-1 3.95.37 7.42 1 11.61s2.36 7.48 3.78 11.54c1.21 3.63 2.09 7.74.77 11.17-1.44 3.85-3.3 7.84-6.54 9.76a3.65 3.65 0 0 0-1.47 2.95 4.41 4.41 0 0 0 .2 3c3.49 7.21 9.59 12.46 15 17.63 5.46 5.33 11.06 9.69 13.68 15.52 1 1.53-.1 4.14-1.27 6.54-1.19 2-3.06 4.14-4.41 7.06-8.05 10.57-16.26 22.32-21.71 36.24a18 18 0 0 0-2.21-1.94c-1.5-4.5-3.69-9.71-7.93-14.11-1.29-.41-2.31-.7-3.17-.93a5.38 5.38 0 0 1-.75-.39c-.32-.54-.63-1.09-.92-1.64a23.4 23.4 0 0 0-8-8.07c-.34-.3-.66-.56-1-.82q-1.64-2.4-3.22-4.84a.61.61 0 0 0 0-.11c.21-.5-.46-2.41-2.68-5.28l-1-.86c-7.26-14.56-8.07-33.27-8.69-50.06-.1-4.19-.16-8.18-.23-12.18.09-.14.17-.28.27-.42.92-2.08 4.48-3.06 7.93-5.54 6.42-4.65 9.27-12.08 10.65-18.69 1-4.57-.43-8.24.6-10.43 2.07-5.48 3.08-11.24 4.26-16.39 1-4.52.46-9 .33-12.83 0-4.15-.2-8 1.69-10.81.75-1.36 2.6-2.17 4.45-3a62.39 62.39 0 0 1 7.67-2.48c2.59-.72 5.1-1.35 7.62-2.28a7.69 7.69 0 0 0 4.84-3.29 8.31 8.31 0 0 0-.39-6.91c-.89-2-2.05-3.62-2.4-5.32-1.2-5.34-.24-11.13.68-15.8 1.32-6.63 2.4-10.86 2.31-16.07-.07-3.07-1.77-5.91-2.84-7.69-2.75-4.64-2.8-7.44-2.8-7.44s-.08 2.81 2.55 7.58c1 1.82 2.57 4.69 2.5 7.55-.09 5.12-1.31 9.2-2.87 15.82-1.11 4.67-2.3 10.57-1.26 16.39.44 2.23 1.56 3.91 2.31 5.75s1.08 3.77.24 5.16c-.37 1-2 1.34-3.66 2-2.39.8-4.84 1.32-7.5 2a65.08 65.08 0 0 0-8.1 2.32 12 12 0 0 0-6 4c-2.53 3.87-2.72 8.46-2.67 12.62s.35 8.32-.65 11.81c-1.42 5.25-2.58 10.81-4.64 15.65-1.61 4.41-.42 8.47-1.18 10.93-1.78 6-4.21 12.35-8.93 15.12-1.42.85-3.29 1.65-5.2 2.84-.45-14.89-1.63-28.72-6.62-42.54-.43-1.15-.88-2.29-1.34-3.41a17.48 17.48 0 0 0 2.81-4.84c.69-2.85-.24-4.88 0-6-.06.39 2.28-15.55 2.22-15.16a5.71 5.71 0 0 0 0-1.52c0-.93-.09-1.84-.14-2.75-.15-2.67-.32-5.32-.51-7.92s-.38-5.34-.61-8c-.08-.93-.16-1.86-.26-2.79a6.13 6.13 0 0 0-.25-1.55c-.92-2.67-2.65-4.58-2.61-6.59-.1-3.07 1.4-6.41 2.32-9.37 1.17-3.58 1.68-7.17.39-10.33-1.66-3.89-4.92-8.13-6.55-10.56-4.38-6.54-4-11.28-4-11.28s-.63 4.72 3.57 11.55c1.54 2.51 4.63 6.88 6 10.66 1.11 2.84.41 6.07-.79 9.51-1 2.81-2.69 6.2-2.79 9.82 0 2.82 1.74 5.1 2.42 7.25a7.25 7.25 0 0 1 .1 1.08c.06.91.1 1.82.15 2.75.12 2.61.21 5.23.29 7.94s.15 5.24.19 7.9v2.7a6.24 6.24 0 0 1 0 1c0 .21-2.78 14.85-2.81 15.06-.42 2.64.47 4.58 0 5.35a6.38 6.38 0 0 1-1 1.8 139.58 139.58 0 0 0-18-28.21 15.69 15.69 0 0 0-2.2-2.37c-.19-.42-1.09-.89-2.66-1.08a5.06 5.06 0 0 0-1.39.52c-.29-.58-.6-1.21-1-1.87-18.94-35.44-33.67-54.31-33.67-54.31S173 56 189.4 91.68a14.14 14.14 0 0 0 3 5.29c.46.77 1.67.8 3.47-.07l.49.66c6.52 9.33 13.25 20.61 17.31 33.1a8.07 8.07 0 0 0 0 1.88c.1 1.53.31 3 .54 4.42.43 2.61 1 5.18 1.52 7.73-3.28-2.07-6.86-2.78-9.18-4.21a9 9 0 0 0-6.13-.87c-1.78.11-3.14.5-3.94.14a41.61 41.61 0 0 1-7.53-3.52c-2.61-1.45-5.11-2.71-7-4.52-2.54-2.2-3.23-6.46-4.67-10.46-1.55-4.72-4.71-9-9.36-10.87a12.89 12.89 0 0 0-6.21-.27 69.76 69.76 0 0 0-8.23 1.51c-2.79.67-5.47 1.41-8.06 2.25a33.64 33.64 0 0 0-5.42 2.08c-.2.27-.87-.11-1.67-.3a26.3 26.3 0 0 1-3.84-1.8c-1.14-.61-2.26-1.27-3.36-1.93a14 14 0 0 1 2.48-7c2.59-3.79 5.15-6.33 6.41-10.35 1.39-4.79-1.66-9.42-3.65-12a44.66 44.66 0 0 0-8.37-8.7 44.3 44.3 0 0 1 8 9.06c1.8 2.6 4.53 7.24 3 11.23-1.29 3.65-3.86 5.85-6.73 9.7a15.86 15.86 0 0 0-3 6.85c-1.9-1.2-3.69-2.4-5.28-3.48-4.3-2.92-7.91-5.56-10.64-7.6-4.09-3.08-6.25-5-6.25-5s2.1 2 6.06 5.24c2.64 2.15 6.15 4.94 10.34 8 1.68 1.24 3.59 2.62 5.62 4a11.83 11.83 0 0 0 .44 4.14c2.65 8.44 7.88 14 13 22 2 3 2.45 7.48 5.09 11.74 2.4 3.56 6.12 4.92 6.77 7 .59.94.21 2.55-.12 4.41a26.31 26.31 0 0 0-1.29 6.13c-.07 4.56.81 8.69 1.23 12.69.26 4 .9 7.72-.58 9.93a50.1 50.1 0 0 0-4.11 8.88l-.56-.43a18.68 18.68 0 0 0-2.86-1.59c-.65-.63-1.31-1.25-2-1.86a13.18 13.18 0 0 0-4.79-3.15 23.59 23.59 0 0 0-5.86-.92c-15.39-9-27.19-16.73-36.75-27.74a92.1 92.1 0 0 1-5.94-8.1c-3.07-4.43-5.48-7.9-8.17-11.46a73.22 73.22 0 0 0-8.85-10.16c-4.81-4.47-8.06-4.31-8.06-4.31s3.19 0 7.79 4.59a72.82 72.82 0 0 1 8.34 10.44c2.53 3.65 4.77 7.2 7.65 11.76a92.4 92.4 0 0 0 5.72 8.56c8.33 10.41 18.68 18.37 31.58 26.85l-2.13.26a99.58 99.58 0 0 0-13.57 2.68c-1.18.42-2.81 0-4.59-.4a56.83 56.83 0 0 1-7-2.39c-4.44-1.77-8.77-4-13.33-5.42-3.19-.8-6 .78-8.1 2-2.6 1.33-4.58 2.84-6.94 3.35-2.86.66-6 0-8.8-.69a64.07 64.07 0 0 1-10.91-4.06 93.44 93.44 0 0 1-10.3-5.6 47.29 47.29 0 0 1-7-5.16 47.29 47.29 0 0 0 6.79 5.48 93 93 0 0 0 10.07 6A64.26 64.26 0 0 0 61.9 192a20.62 20.62 0 0 0 9.53 1.1c2.85-.54 5.1-2 7.54-3.19 2.32-1 4.7-2.37 6.37-1.56 4.23 1.51 8.36 3.88 12.91 5.92a61 61 0 0 0 7.35 2.85 12.36 12.36 0 0 0 6.37.65 96.25 96.25 0 0 1 13.14-2 62.25 62.25 0 0 1 8.2-.27c1.14.72 2.24 1.43 3.41 2.16a30.58 30.58 0 0 0 5.44 2.45c1 1.09 2 2.24 3 3.42q2 2.42 3.68 4.89a26.94 26.94 0 0 0 2.11 6.89c-.05.42-.09.79-.13 1.26a13.78 13.78 0 0 0-.23 2.59 11.08 11.08 0 0 0 .61 5.15 20.13 20.13 0 0 0 6.1 6.37 4.23 4.23 0 0 0 .34.4 26.59 26.59 0 0 0 5.35 4 17.5 17.5 0 0 0 5.46 4.13 59.94 59.94 0 0 0 8.09 2.16 88.72 88.72 0 0 0 22.92 7.29c5.43.95 10.61.63 15.16.72 3.8.16 7.4.64 10.22 2 .79 1.79 1.65 3.56 2.6 5.32 11 19.54 25.23 37.45 38.21 55.75a62.09 62.09 0 0 0 4.56 14.26 100.78 100.78 0 0 0 11 18.42c4.05 10.21 7 17.23 7.75 18.9a57.79 57.79 0 0 0 6.46 10.72c.13.62.27 1.25.43 1.91-4-.65-8-1.2-11.88-1.73l-1.05-.54a58 58 0 0 0-11-4.69 111 111 0 0 0-12.21-2.39 89.79 89.79 0 0 0-11-5.24c-8.39-3-18.38-6.52-28.87-9.71-1.08-.79-2.18-1.58-3.3-2.38a18.15 18.15 0 0 0-1.9-4.44c-3.41-3.87-6.56-4.46-7-4.94-.51.4-.39-1.84-2.09-5a23.76 23.76 0 0 0-5.06-5.78 17.72 17.72 0 0 1-4.14-6 25.17 25.17 0 0 1-1.16-7 26.3 26.3 0 0 1-.05-3.95c.21-.68.18-1.1.1-1.19.91-1 2.92-1.84 5-3.44a10.22 10.22 0 0 0 3-3.28 5.76 5.76 0 0 0 0-5.21 13.33 13.33 0 0 0-6.73-5.19c-2.07-1.19-4-1.9-4.3-3.23a33.8 33.8 0 0 0-2.59-5.18c-1.41-2.48-2.88-4.84-4.38-7.06a62.08 62.08 0 0 0-5-6.6 10.81 10.81 0 0 0-4.68-3.72c-2.05-.6-4-1.06-5.76-1.62a27.4 27.4 0 0 1-3.18-1.17c-.72-.38-1.37-.55-1.55-1a22.8 22.8 0 0 0-4.74-5.3c-.86-.74-.9-2.58-1.1-3.54-.6-3.16-1.78-4.26-1.78-4.26s1.05 1.18 1.45 4.32c.1.91 0 2.78 1 3.91 1.25 1.35 3.24 3.29 4.17 5.37a3.94 3.94 0 0 0 2 1.64 30.86 30.86 0 0 0 3.24 1.45c1.8.71 3.72 1.32 5.65 2 1.35.45 2.25 1.86 3.5 3.37a58.7 58.7 0 0 1 4.33 6.65c1.31 2.26 2.57 4.64 3.76 7.13a32.39 32.39 0 0 1 2 4.79 11.25 11.25 0 0 0 5.95 5.89c2.05 1.32 4.11 2.2 4.39 3.49.07.16 0 .49-.1.53a5.85 5.85 0 0 1-1.65 1.41c-1.46.93-3.79 1.72-6.13 3.81a6.9 6.9 0 0 0-1.85 4.42 31.36 31.36 0 0 0-.31 4.94 29.59 29.59 0 0 0 .94 8.92 24.11 24.11 0 0 0 4.13 7.65 6.22 6.22 0 0 0-2.13-.06 47.94 47.94 0 0 0-6.79.49c-4.26.23-7.61 1.69-9.31.49-11.4-5.29-20.49-15.46-31.14-23.11-1.09-.57-1.67-2.39-2.53-4.33a58.8 58.8 0 0 1-2.37-8.47c-1.16-5.26-1.83-10.62-2.8-15.84a36.56 36.56 0 0 0-2.43-7.15c-1.38-3.37-2.86-6.62-4.36-9.73s-3.09-6.25-4.75-9.2a22 22 0 0 0-3.68-5.54 85.9 85.9 0 0 0-8.39-7c-1.68-1.26-3.32-2.42-5-3.46a14.37 14.37 0 0 0-4.09-1.93c-6.68-1.54-12.67-1.16-16.93-3.2-2.53-1.2-4.42-2.93-6.19-4.1-4.48-3-7.29-2.75-7.29-2.75s2.8-.08 7.11 3a57 57 0 0 0 6.1 4.39c4.35 2.27 10.59 2.21 16.89 3.92a12.91 12.91 0 0 1 3.61 1.91c1.61 1.07 3.16 2.26 4.77 3.56a85 85 0 0 1 7.93 7.11c1.29 1.32 2 3.17 3.08 5.16 1.51 2.95 2.91 6 4.31 9.24s2.69 6.38 3.91 9.72a34.51 34.51 0 0 1 2 6.56c.75 5.13 1.21 10.52 2.19 16.07a62.43 62.43 0 0 0 2.2 9.19 12.88 12.88 0 0 0 3.92 6.62c7.59 5.95 14.59 13.64 23.22 19.93-2.61-.06-5.51-.06-8.8 0-9.65.15-20.82 1.21-32.65 1.46-3.18.07-6.43.14-9.59 0-1.91-.13-3.76-.16-5.4-.41q-2.64-1.2-5.24-2.29a30.89 30.89 0 0 1-5.93-6.21c-2.29-3.42-4.64-7.12-3.56-10.19a4.65 4.65 0 0 0 1.78-1.81c1.38-3.07 1.33-6.25 1.23-9s0-6-1.59-8.95c-4.94-8.17-12-13.74-16.91-19.95-2.11-2.69-3.49-5.18-5.9-7.51-1.43-1.3-2-3.43-2.34-5.36-.36-2.26-.54-4.33-1.55-6.29-1.74-3.26-5.15-5.52-7.22-7-5.22-3.72-7-6.67-7-6.67s1.65 3 6.76 7c2 1.57 5.28 3.95 6.7 7 .86 1.78.91 3.72 1.2 6.06a10.61 10.61 0 0 0 2.47 6.2c2 2.08 3.46 4.86 5.43 7.6 4.76 6.64 11.66 12.57 15.81 20.32 1.13 1.91.85 4.58.85 7.46-.14 2.73-.11 5.4-1.17 7.28-.14 0-1.11.48-2.08 2.19-1.53 5.12.74 10.2 3.46 13.87-5.85-2.27-11.47-4.37-16.7-6.58-11.31-4.79-20.13-10-27.14-16.59a39.42 39.42 0 0 1-6.26-8.19c-2.39-3.82-4.67-8-6.35-11.1-2.56-4.72-3.74-7-5.61-10.07a19 19 0 0 0-4.19-5.2 20.16 20.16 0 0 1 3.78 5.43c1.64 3.21 2.64 5.51 4.87 10.41 1.46 3.21 3.44 7.57 5.6 11.63a42.24 42.24 0 0 0 6.03 9.4c6.83 7.3 15.71 13.54 27 19.25 9.63 4.89 20.41 9.37 31 15.18 6.53 3.41 13.71 4.52 20.72 5 1.61.13 3.22.22 4.83.29-7.26 2.6-16.07 1.61-24.6 3.47-4.51 1-8.21 3.55-11.68 5.4-1.41.95-4.43 0-7.49 1.39-5 2.6-9.5 5-14.28 7.16a6.5 6.5 0 0 0-1.85 1.48c-.6.51-.94 1-1.26 1.11-3.43 1.52-6.92 2.67-9.62 5.4 0 .21-.56.1-1.18.13a15.55 15.55 0 0 1-2.67-.57 36.92 36.92 0 0 0-4.9-1.5c-7.58-1.19-14.28-.97-19.49-2.19-2.44-.55-5.1-2.24-6.66-3.1-4.15-2.32-6.62-2.3-6.62-2.3s2.46.1 6.48 2.53a28.08 28.08 0 0 0 6.67 3.41c5.24 1.41 12.06 1.5 19.47 2.88a42.73 42.73 0 0 1 4.67 1.64 15.42 15.42 0 0 0 2.94.74 2.85 2.85 0 0 0 2.52-.54c2.36-2.32 5.65-3.17 9.26-4.67a6.6 6.6 0 0 0 1.88-1.41c.62-.48 1-1 1.3-1 4.94-2 9.61-4.26 14.67-6.68 1.51-.87 4.37.25 7.62-1.12 3.79-1.79 7.35-4.09 11-4.68 7.88-1.42 16.76-.08 25.54-2.75a7.77 7.77 0 0 0 3.92-4.06c4.78.08 9.57 0 14.51-.09 7.87-.14 16.17-.4 24 0 6.23.41 12.24.77 16.71 3a34.61 34.61 0 0 1 5.46 3c3 2.24 5.59 4.43 7.7 6.12 2.39 2 4.35 3.55 6.07 4.9l.65.55a40.31 40.31 0 0 0-7.62 4.85c-7.49 5.83-12.13 12.28-17.7 15.15-3.25 2-7.9 2.81-12.77 4-5.12 1.1-10.68 2.71-15.74 6.15-6.65 4.83-9.41 10.83-13.41 12.78-6.19 3.54-14.59 4.86-21.94 6.6-8.76 1.92-16.7 5.47-22.41 11.44-1 1.34-3.24 2-5.47 2.72a13.37 13.37 0 0 0-6.63 3c-1.46 2-5.22 1.87-8.32 1.69a71.78 71.78 0 0 1-14.28-3.47c-5.94-1.93-10.91-3.78-14.9-5.09-7.14-2.35-11-2.45-11-2.45s3.8.42 10.7 3.23c3.87 1.59 8.67 3.79 14.51 6.17a74 74 0 0 0 14.52 4.65c3.27.72 7.86 1 11.47-2 .79-.95 2.66-.88 5-1.53a15.8 15.8 0 0 0 7.84-3.46c5-4.75 12.09-7.07 20.23-8.4 7.16-1.06 16.11-1.9 24.42-5.6 7-3.56 10.91-9.77 15.07-12.15 3.19-2.05 7.51-2.73 12.46-3.63 4.68-.69 10.26-1.46 16-4 8.63-4.22 14.64-10.83 20.47-14.78 3-1.94 6-3.51 8.82-3.94a19 19 0 0 1 10.08 1.23 115.41 115.41 0 0 1 13.93 6.39c2.6 2 4.05 2.83 4.16 2.53.45.17.84.29 1.22.42h.06a12.52 12.52 0 0 0-1.8 2.88 23.52 23.52 0 0 0-1.79 8.62c-.13 2.61 0 5.14 0 7.49a18.92 18.92 0 0 1-.08 2.35.78.78 0 0 0-.08.43c-1.78 1.87-5.07 2.87-8.13 5-6.21 4.39-11.4 10.09-16 14.91a24.7 24.7 0 0 0-4.23 6.78 52.45 52.45 0 0 0-2.91 7.33 4.11 4.11 0 0 0 .07 2.27 3.32 3.32 0 0 0 .15 1.05c-1.9 3.23-6.29 4.88-9.7 6.35-4.82 2-8.26 2.92-11.87 5.45a12.4 12.4 0 0 0-3.93 5 18.12 18.12 0 0 1-3 5.1 9.08 9.08 0 0 1-2.72 1.53c-1.89.88-1.61 2.14-1.61 2.14s-.19-1.24 1.67-2a9.39 9.39 0 0 0 2.89-1.45 18.4 18.4 0 0 0 3.37-5 11.61 11.61 0 0 1 3.9-4.46c3.57-2.26 6.9-2.93 11.93-4.73 3.49-1.2 8.19-2.76 11-6.61a3.38 3.38 0 0 0 .32-2.54c0-.79-.21-1.26-.09-1.26a51 51 0 0 1 3.12-6.82 22.79 22.79 0 0 1 4-5.77c4.85-4.59 10.18-9.89 16.08-13.57 2.5-1.55 6.15-2.48 9.42-5.43a4.76 4.76 0 0 0 1.31-2.91 22.81 22.81 0 0 0 .27-3c.11-2.47.12-4.92.36-7.17a18.2 18.2 0 0 1 1.64-6.49 7.29 7.29 0 0 1 1.92-2.3c4.56 2.65 9.28 5.4 14.35 8.14 8.17 3.69 13.8 3.1 14 4-1.2-.94.65 2.31 8.33 6.19a35.27 35.27 0 0 0 12.76 1.43c2.68.3 4.06 0 3.39.37-.51-.38-.31.09.89 1.08.4.39.8.84 1.2 1.27A99.26 99.26 0 0 0 316 428a65.6 65.6 0 0 0 4.94 5.43 63.5 63.5 0 0 0 3.48 6.51c.9.5 1.29 3.07 2.33 6.54a48.62 48.62 0 0 0 5.94 16.93c5.41 8.14 6.51 20.34 8.45 33.46q.76 6.61 1.19 13.25c-3 8.52-7 17.81-10 28.5-1.34 8.33-1 13.4-.66 15-4 14.58-7.24 29.88-10.14 42.42a89.71 89.71 0 0 0-1 25.12c.21 7 .73 11.71-.23 14.47-3.56 19.83-3.94 39.42-3.16 56.26-3.94 15.58-5.76 26.51-9.75 32.83-3.56 6.61-12.14 17.64-14 21.09a77.11 77.11 0 0 0-3.35 7.17 58.9 58.9 0 0 0-3.78 17.53 327 327 0 0 0 54.11 2.84 426.24 426.24 0 0 0 53.04-5.23ZM195 93.4a.45.45 0 0 1 .34.3 1.56 1.56 0 0 1-.34-.3Zm-30.23 19.06a5.38 5.38 0 0 1 2.27.42c3.64 1.45 6 5.23 7.28 9.36 1.05 3.75 1.8 8.44 5.12 12.11a34.9 34.9 0 0 0 7.57 5.41 44.62 44.62 0 0 0 8.16 4.17 13.78 13.78 0 0 0 5.72.26c1.62.05 2.85-.21 3.09.27 4.61 3.24 9.87 3.62 11.07 6.41 1.25 1.56.81 4.46.69 7.51-.35 3.13-1 6.63-.16 10.63.72 3.06 1.82 5.52 2.24 7.66-.09 2.36-.2 4.79-.3 7.26-.13.88-.24 1.77-.33 2.66a23.29 23.29 0 0 0-.13 9.78c-.48 12.6-.43 26.7 2.95 40.62a25.8 25.8 0 0 0-2.63.1c-5.24.2-9.56 1.79-11.39.35-12-5.35-24.74-3.52-34.75-6.64-.49.59-1.54-2.15-5.3-4.67-.34-.24-.67-.45-1-.66a80.38 80.38 0 0 1-4.39-10.21 44.4 44.4 0 0 0-5-10 9.47 9.47 0 0 1 .07-2.5c.32-3.11 2.08-6.38 3.73-10 2.07-4.89 1.38-9.69.64-13.49-.64-4.34-1.7-8.26-1.77-12-.11-1.27.54-3 .92-5.1a11.38 11.38 0 0 0-.55-7.5c-2.41-4.05-6.17-5.25-7.46-7.23-2.19-3-2.95-7.53-5.6-11.41-5.67-8.14-11-13-13.71-20.75a8 8 0 0 1-.49-2c.87.56 1.75 1.11 2.65 1.64a27.93 27.93 0 0 0 4 2 3.48 3.48 0 0 0 2.92.32 33.07 33.07 0 0 1 5.23-1.76q3.85-1.08 8-1.89a65.85 65.85 0 0 1 8-1.15c.93 0 1.86-.13 2.71-.12Zm299.3 47a59 59 0 0 1-3.46 5.62 4 4 0 0 1 .31-.89 33.63 33.63 0 0 1 3.15-4.73Zm-79.08 33a25.59 25.59 0 0 0 4.54 6.36c2.54 2.88 5.09 5.33 5.93 8a4 4 0 0 1-.13 3.26 15.5 15.5 0 0 1-2.9 3.62 23.79 23.79 0 0 0-4.1 4.94 9.18 9.18 0 0 0-.31 8.23c3.71 7.58 9.2 13.8 14.73 19.4-.05.79.54 2.1 2.25 3.4a29.17 29.17 0 0 1 6.55 5.39c.26.26.5.53.75.8l1.1 1.17a22.46 22.46 0 0 1 3.93 5.65 12.78 12.78 0 0 0 4.56 4.61c3.18 4.55 5.44 9.18 6.14 14.1a38.14 38.14 0 0 1 .36 5.85 17.64 17.64 0 0 0-.06 2.83c-.27.55-.54 1.1-.74 1.57s-.31.69-.47 1c-1.81 1.83-5.3 4.31-8.05 9-3.88 7.21-3.93 13-6.27 14.22 0 .12-1.14.52-2.92 1.76a15.92 15.92 0 0 0-1.55.95 46.08 46.08 0 0 0-3.47-3.66c-.13-.29-.25-.58-.39-.86a10.21 10.21 0 0 0-4-3.84c-1.29-.87-2.61-1.64-3.93-2.38a19.75 19.75 0 0 0-3-2.32c-2.41-1.09-4.81-2-7.16-2.86-.6-.29-1.18-.58-1.79-.86a9.79 9.79 0 0 0-2.84-.92c-.46-.18-.93-.37-1.38-.57a8.05 8.05 0 0 0-.44-1c-1-1.45-1.95-2-2.37-2a28 28 0 0 0-2.72-1.18c-1.19-.46-2.39-.87-3.59-1.26a13.07 13.07 0 0 1-4.32-6.39c-2.52-8.11-1.77-17.57-1.25-26a50.47 50.47 0 0 0-.7-13.34 61.08 61.08 0 0 0-6.7-17.18c-1.29-2.23-1.59-6.12-2-8-1.08-5.76-4-6.77-4-6.77s2.62 1.29 3.32 6.87c.2 1.89.17 5.79 1.39 8.58a58.83 58.83 0 0 1 5.07 17 47 47 0 0 1-.4 12.45c-1.28 8.32-2.82 18.1-.86 27.95a21.63 21.63 0 0 0 1.82 4.8l-.76.18c-2.49.31-4.4 1.33-5.34.63-.36.27-.63-2.05-3.2-3.67a109.16 109.16 0 0 0-14.19-6c-4.47-1.31-9-.42-12.85.25-4.48.72-8.27 1.48-11.89.34-1.18-.26-2-1.62-2.87-2.8a6.16 6.16 0 0 0-1.32-1.26 39.08 39.08 0 0 0-2.29-1.68c-2.25-1.56-4.49-3-6.39-4.08-2.7-1.63-4.73-2.74-6.57-3.67-.69-.34-1.23-.59-1.74-.81 3.29-6 7.14-11.86 11-17.74 1.79-1 3.75-1.92 5.8-3 4.57-2.18 9.7-5.53 12.73-11.22.2-.63 2.35-2.28 3.71-6.16 2.39-10 2.27-19.7 7-26.77 0-.48 1.24-.8 2.79-1.64 1.3-.54 3-1 4.82-2 4.1-2.23 6.19-5.47 8.6-6.35 6.13-2.68 13.31-3.27 20.18-3.74 5.21-.33 10.17-.52 15.09-1.16Zm159 19a74.68 74.68 0 0 1 .11 14.2 54.33 54.33 0 0 1-2.7 14.47c-1 2.73-3.21 5.63-4.71 9.71a11.45 11.45 0 0 0 .7 8.07c1 2.45 2.08 4.49 2.72 6.33a10.74 10.74 0 0 1 .7 5.1l-3.79 4.5-3.11 3.72c-2.87 1.39-6.76 2.52-10.71 5a56.48 56.48 0 0 0-5.33 4c-7.71 3.09-15.15 6.55-22.61 10.08a19.18 19.18 0 0 0-7.45 1.56 33 33 0 0 0-7.52 3.56 62.11 62.11 0 0 0-6.15-.92 40.57 40.57 0 0 0-20.84-.57q-5.1 1.53-10.13 3.38c10-18.36 20.1-36.81 30.58-55.78.43-.43.86-.87 1.33-1.39a48.75 48.75 0 0 1 4.62-7.76c2.06-2.63 3.85-5.15 5.86-6.07 4.67-2.54 10-4.13 16.06-6.35 4.71-1.82 8-4.63 10.79-7 1.57-1.24 3.08-2.46 4.57-3.56l.28-.21c.6.18 2.24.27 5-.51 2-1.11 5-1.51 8.63-2.62a101.43 101.43 0 0 0 13.05-1Zm-250.82 60.88c.49.24 1 .52 1.7.9 1.78 1 3.74 2.22 6.35 4 1.83 1.22 4 2.71 6.12 4.36.72.55 1.45 1.14 2.15 1.76a5.45 5.45 0 0 1 1 1.07 7.52 7.52 0 0 0 3.51 3.47c4 1.41 8.18.9 12.65.34 3.88-.42 8.21-1.09 11.7.26 4.6 1.65 8.79 4.07 13.49 6.56.4-.13.47 2.12 3.09 3.89 3 1.26 5.82.49 7.69 0 .91-.1 1.75-.23 2.55-.35a29.74 29.74 0 0 0 8.39 7.15c5.5 3.33 11.13 5.45 15.75 8a9.32 9.32 0 0 0 2.86 3.36 46.94 46.94 0 0 1 8.53 9.08 47.08 47.08 0 0 1-.37 5.33c-1.26 3.53-2.43 7-3.3 9.6-1.36 4.13-2.24 6.92-2.88 9-1.24 1.92-2.45 3.82-3.7 5.73-6.64 11.68-7.52 24.1-6.57 34.27.31 10.45 1.74 19.33-.23 25.67-.88 3.93-3.4 9-5.48 15.94-.63.23-2.86 2.7-5.47 8.2-.74 2-1.34 3.85-1.85 5.68l-28.56-53a39.23 39.23 0 0 0-10.38-11.86c-2.94-3-4.92-3.93-4.45-3.86-2.77-5.51-6.09-13-12.13-20.44-.47-1.24-1-2.52-1.63-3.84 0-.08-.08-.16-.12-.24-.09-1.87-1.61-6-5.4-11.85-.6-.57-1.19-1.15-1.78-1.73a55.93 55.93 0 0 0-4.5-9.67c-1.23-1.91-2.5-3.8-3.79-5.68-.44-.76-.91-1.51-1.42-2.25-.41-.53-.85-1.06-1.27-1.58-3.11-4.34-6.34-8.59-9.66-12.79-1.45-5.9-1.63-11.87.09-17.21a82.92 82.92 0 0 1 7.37-17.29Z" style="fill:#42210b" id="path24"/></g></g></g></svg>