<svg xmlns="http://www.w3.org/2000/svg" viewBox="0 0 1425.44 1400.86">
  <path fill="#ccc15a"
    d="M1425.44,1400.81c-34.37-73-63.15-227.34-97-298-7.81-16.3-34.14-47.61-48.58-53.55S1139.73,1017,1139.73,1017s-.85-6.79-9.34-17.83-57.75-48.41-66.24-64.55-36.52-57.75-43.32-64.54S1006.39,815.7,995.35,803s-45-4.25-45-4.25l-1.7-34c34-48.41,39.07-116.35,39.07-116.35s17,5.94,33.12-.85,34.82-60.3,38.22-112.11-39.92-44.16-39.92-44.16,1.68-8.31.84-39.28c295.54-19.41,323.88-130.06,259.63-142.73-91.87-18.11-181.59-26.63-259.79-30-24.08-72.82-54.31-153.73-64.32-175.88C929.83,46.55,912.39,76,868.14,54.26,805.56,23.53,811.23-2.18,751.59.15c-70.27,2.73-50.76,32.69-127.35,65-60.1,25.4-46.33,14.08-69.2,44.66-13.54,18.09-38.12,119-55.93,198.38-105.22,11.91-212.25,28.1-255.7,47.79-58.83,26.67-32.94,134,255.43,129.19,1.23,11.32,2.23,18,2.23,18s-26.32-5.94-33.12,28,29.73,111.25,48.41,131.63,38.22,0,38.22,0c16.13,73,47.56,113.81,47.56,113.81l2.55,19.53a199.05,199.05,0,0,0-23.78,0c-10.2.85-18.69,8.49-26.33,15.29s-21.23,5.94-34.82,11.89-19.54,19.53-19.54,43.31-5.09,49.26-6.79,59.45-7.64,17.84-29.72,25.48-34,39.07-34,39.07-132.48,18.68-142.67,24.62-8.5,22.94-8.5,22.94c-21.23,5.94-23.78,12.73-35.67,39.06s-43.31,46.71-79.83,92.57S32.27,1340.56,0,1400.86" />
</svg>