<svg xmlns="http://www.w3.org/2000/svg" viewBox="0 0 484.1 495.1"><path d="M432.3 240c-7.5-51.3-43.2-101.3-43.2-101.3S350.5 74 271.1 54c-4.5-1.1-9-2.1-13.3-2.8-2.2 13.9-5.7 35.9-8.1 44.9 0 0 27.5 9.4 37.4 9.5 0 0-23.6 21.3-35.4 16 0 0-7.7 50.3-7.7 66.6l-19.4-47s-30.3 29.7-44.4 26.6c0 0 23.7-25.8 27.4-38.7 0 0-28.3-22.4-29.7-28 0 0 30.2-1.1 36.7 1.2 0 0 16.3-34.5 31.3-52.7-65.2-6-106.9 31-106.9 31-96 70.7-88.2 156-88.2 156 3.8 57.3 44.2 114 44.2 114 5.5 7.5 10.8 14 15.9 19.7 20.4-25.1 74-88.6 91-106.7 0 0 22-2.4 67 36.6 0 0 37.6-46.5 42.6-118.5 0 0-16.6-.5-23.6-4.5 0 0 38-13 49-34 0 0 20 44.1 25 54.1 0 0-23.6-.3-25.6-10.3 0 0-33.4 114.3-51.4 138.3 0 0-41 10-69-28 0 0-21.1 79.4-37.9 118.2 3.5 1.5 6.9 3 10.2 4.6 24.7 12 88.7 12.7 121.3 5.3 32.7-7.3 60-26 77.3-46.7 17.7-20.7 53-87.4 45.5-138.7zm-291.6-47.9l-11.9 20.5s-4.5-4.4-1-22c0 0-10.6-8.6-14.4-10.5-3.8-1.9-6.9-5-6.9-5s23.5-8.2 29.4-6.6c0 0 7.5-17.3 7.8-20.2 0 0 3.3 6.5 0 26.2 0 0 20.4 10.9 20.1 20.2 0 .1 5.4 3-23.1-2.6z" fill="#9dcfc3"/></svg>