<svg xmlns="http://www.w3.org/2000/svg" viewBox="0 0 484.1 495.1"><path d="M414.1 164.3c-25.8-77.6-93.5-96.9-93.5-96.9-111.2-42.9-179 9.5-179 9.5-46.3 34-72.3 98.6-72.3 98.6-23.4 60-11.4 88.7-8.3 116 3.2 27.2 37 81.6 60.8 105.2 21.2 21.1 47.8 33.7 72.3 38.6-1-43.5-13.9-118.8-13.9-118.8-23.7-3.4-40.3-.9-45.1-11.4-6.7-14.8-4.9-33.6-4.9-33.6 14.4 3 44.3-9.4 44.3-9.4l-4.3-7.1c-14-43.1 3.1-65.4 3.1-65.4 105.9-55 104.2 9.8 104.2 9.8-82.1 5.4-52.9 59.6-52.9 59.6 54 3.8 61.3-2.2 58.6 13.5-5.2 30.5-7.3 34.4-7.3 34.4-16.8 1.3-41.4 4.2-41.4 4.2 6.2 18.5 10.6 94.3 12.2 124.8 32.4-3.7 72.2-14 97.2-35.7 39.2-33.9 62.2-90.9 62.2-90.9s33.8-67.4 8-145z" fill="#9dcfc3"/></svg>