<svg xmlns="http://www.w3.org/2000/svg" viewBox="0 0 484.1 495.1"><path d="M414.1 164.3c-25.8-77.6-93.5-96.9-93.5-96.9-111.2-42.9-179 9.5-179 9.5-46.3 34-72.3 98.6-72.3 98.6-23.4 60-11.4 88.7-8.3 116 3.2 27.2 37 81.6 60.8 105.2 23.8 23.6 54.2 36.6 80.9 40.1 26.7 3.5 102-2.6 141.2-36.5 39.2-33.9 62.2-90.9 62.2-90.9s33.8-67.5 8-145.1zm-119.3 63.9c-6.1 24.3-8.1 27.3-8.1 27.3-13.6 0-33.7.8-33.7.8 4.8 19.3-.1 98-.1 98-17.7 4.8-44.2 2.8-44.2 2.8 8-20.9.1-99.9.1-99.9-18.9-4.2-32.5-3.3-35.7-12.1-4.5-12.4-1.8-27.4-1.8-27.4 11.4 3.3 36.3-4.8 36.3-4.8l-3-6c-8.6-35.7 6.7-52.6 6.7-52.6 89-37.7 83.5 14.5 83.5 14.5-66.6-.9-46.5 44.8-46.5 44.8 43.4 6.4 49.7 2 46.5 14.6z" fill="#9dcfc3"/></svg>