<svg xmlns="http://www.w3.org/2000/svg" viewBox="0 0 484.1 495.1"><path d="M398.9 317.9l-13 46.2s-3.2-39.9-.1-52.9c0 0-12.3-7.6-14.3-13.2 0 0 11.5 1.2 19.1 3.3 0 0 8.4-29.5 7.6-34.3 0 0 5.6 20.6 5.2 34.8 0 0 11.2 4.3 20.1 6.5 7.4-22.4 11.8-46.7 8.7-68.2-7.5-51.3-43.2-101.3-43.2-101.3S350.5 74 271.1 54s-132 26.7-132 26.7c-96 70.7-88.2 156-88.2 156 3.8 57.3 44.2 114 44.2 114 28.4 38.8 52.7 51.6 73.4 60.6 5-14.9 11.6-35.5 18.6-58.8 0 0-.2-1.6-.7-4.5-2.6-15.5-13.8-67-49.7-89.8 0 0 41.3-27.2 64.4 44.4 12.6-48.5 22.8-99.6 21.3-133.6l4.3-34.1s27.6 28.4 16.7 126.7c0 0 14-95.3 32.5-120.7l7.7-15.2s20.9-2.7-.6 113.4c0 0-.5 24.7 1.6 30.6 0 0 22.9-87.2 28.9-99.6 3.3-6.9 6.8-12.2 8.6-19.2 0 0 28.5 21.4-7.1 136.2 0 0 31.1-19.2 40-50.5 0 0 22.1-2.5-32 95.3-29.6 53.5-41.9 79.3-48.7 97.8 13.4-.7 25.9-2.2 35.6-4.3 32.7-7.3 60-26 77.3-46.7 9.5-11.3 24.4-36.5 34.7-65.3-7 2.6-16.5 5.4-23 4.5zM124.7 199.2s4.2 14.3-.2 18.3c0 0 1.1 3.8-9.2-11.8l-14.8 3.8s0-4.1 9.6-10.4c0 0-.9-8.7-1.7-11.4-.8-2.6-.8-5.4-.8-5.4s14.4 7.1 16.3 10.5c0 0 11.3-4.4 12.8-5.5 0 0-1.5 4.5-12 11.9zm42.7-71.2s-6.2 26.8-4.1 37.3c0 0-12.5-22.7-8.8-32 0 0-20.4 3.7-26.8 7.8 0 0 15.3-14.5 19.3-14.5l-11.5-19.8s10.3 4.2 16.1 7.8c0 0 9.4-14.5 11.7-28.5 0 0 4.8 21.4 1.3 31.2 0 0 23.4 4.9 27.4 4.1.1-.2-19.9 6-24.6 6.6z" fill="#9dcfc3"/></svg>