<svg xmlns="http://www.w3.org/2000/svg" viewBox="0 0 484.1 495.1"><path d="M432.3 240c-7.5-51.3-43.2-101.3-43.2-101.3S350.5 74 271.1 54s-132 26.7-132 26.7c-96 70.7-88.2 156-88.2 156 3.8 57.3 44.2 114 44.2 114 38 52 68.7 57.3 93.3 69.3s88.7 12.7 121.3 5.3c32.7-7.3 60-26 77.3-46.7 17.5-20.6 52.8-87.3 45.3-138.6zM380 318.7c-3.2 47.9-131.6 114.6-207.7 57.2-76.1-57.4-90.8-145.7-73.8-202.3 17-56.6 48.2-61.6 48.2-61.6-16.1 114.7 94.5 190.1 94.5 190.1 86.8 48.3 126.4 2.7 128.1-1 1.7-3.7 8.1-12.2 8.1-12.2 7.2 9.4 2.6 29.8 2.6 29.8z" fill="#9dcfc3"/></svg>