<svg version="1.1" id="Vrstva_1" xmlns="http://www.w3.org/2000/svg" x="0" y="0" viewBox="0 0 484.1 495.1" xml:space="preserve"><style>.st0{fill:#9dcfc3}</style><path class="st0" d="M432.3 240c-7.5-51.3-43.2-101.3-43.2-101.3S350.5 74 271.1 54s-132 26.7-132 26.7c-96 70.7-88.2 156-88.2 156 3.8 57.3 44.2 114 44.2 114 25.1 34.4 47.1 48.4 66.2 57.4 7.7-28.7 41.1-155.9 39.4-182.2 0 0-42 6-58 14 0 0 10.7-20.4 27.6-31.7 0 0 16.4-10.3 32.4-19.6 5.1-3 13.4-5.6 22.5-7.4-1.1-.9-2.2-2-3.1-3.2-2.6-3.4-5.9-10.9-5.8-14.4.1-3.5-.9-7.3 3.1-14.5 0 0 4.4-7.7 10.9-11.2 0 0 9.5-5.4 22.8 2 0 0 8.2 3.6 10.1 13.9 1.9 10.3-3.6 18.2-3.6 18.2s-2.1 3.6-5.3 6.9c6.2.4 11.6 1.4 15.5 3.3 15 7.3 52 37.3 58 44.3s8.3 17.3 8.3 17.3-34.7-18-58.4-20.3c0 0 60.6 126.4 73.1 185.4 14.6-8.5 26.9-19.2 36.3-30.4 17.4-20.5 52.7-87.2 45.2-138.5zm-303.1-79.1s4.2 18.8 8.8 24.8c0 0-14.8-10.5-15.2-17.5 0 0-11.8 8.5-14.5 13 0 0 5.2-13.8 7.8-15l-13.3-9s7.8-.5 12.5 0c0 0 1.5-12-1.2-21.5 0 0 9.5 12 10.2 19.2 0 0 16.3-4 18.5-5.8-.1 0-10.8 10-13.6 11.8zm93.7-64.3s-8.6 21.5-17.7 22.2c0 0-2.3 5.8 0-23.2l-21.7-9.5s3.9-5 21.7-3.5c0 0 7.3-11.5 8.8-15.5s4.1-7.4 4.1-7.4S229 82.1 228 88.1c0 0 18 5.5 21 5.5 0 0-6.1 4-26.1 3zm107.7 47.7s4.6 26 0 30.8c0 0-7.9-15.5-9.9-20.8 0 0-11 3.2-14.2 5.5 0 0 2.8-12.2 7.8-13.2 0 0-9-18-12.8-23.2l17 10.8s3-16.5 8.2-18.8c0 0-1.8 13.8 0 18.8 0 0 14.2.8 16 2.2 0-.1-9.5 7.1-12.1 7.9z"/><path class="st0" d="M266.7 322.6s-29-10-41 14c-9.3 18.6-23.9 65.8-30.1 86.3 28.2 9.2 84.3 9.2 114.2 2.5 4.4-1 8.7-2.2 12.9-3.6-8.4-19.9-41.2-94.9-56-99.2z"/></svg>