<svg xmlns="http://www.w3.org/2000/svg" viewBox="0 0 484.1 495.1"><path d="M432.3 240c-7.5-51.3-43.2-101.3-43.2-101.3S350.5 74 271.1 54s-132 26.7-132 26.7c-96 70.7-88.2 156-88.2 156 3.8 57.3 44.2 114 44.2 114 38 52 68.7 57.3 93.3 69.3s88.7 12.7 121.3 5.3c32.7-7.3 60-26 77.3-46.7 17.5-20.6 52.8-87.3 45.3-138.6zM291 251.6s-31.7 79.4-65.7 82.1c0 0-8.5 21.2.1-85.9l-80.1-35.2s14.4-18.5 80.2-12.8c0 0 27-42.5 32.6-57.2 5.6-14.8 15.4-27.4 15.4-27.4s40 82.9 36.3 105.1c0 0 66.5 20.4 77.6 20.4-.2 0-22.8 14.7-96.4 10.9z" fill="#9dcfc3"/></svg>