<?xml version="1.0" standalone="no"?>
<!DOCTYPE svg PUBLIC "-//W3C//DTD SVG 1.1//EN" "http://www.w3.org/Graphics/SVG/1.1/DTD/svg11.dtd" >
<svg xmlns="http://www.w3.org/2000/svg">
<metadata></metadata>
<defs>
<font id="themix_c5semilight_italic" horiz-adv-x="1126" >
<font-face units-per-em="2048" ascent="1516" descent="-532" />
<missing-glyph horiz-adv-x="446" />
<glyph unicode="&#x2e;&#x2e;&#x2e;" horiz-adv-x="1288" d="M31 86q0 50 33 82.5t79 32.5q45 0 74 -30.5t29 -72.5q0 -48 -34 -81t-79 -33q-44 0 -73 30.5t-29 71.5zM449 86q0 50 32.5 82.5t79.5 32.5q43 0 72 -30.5t29 -72.5q0 -49 -33 -81.5t-80 -32.5q-43 0 -71.5 30.5t-28.5 71.5zM864 86q0 50 33.5 82.5t79.5 32.5 q45 0 73.5 -30.5t28.5 -72.5q0 -48 -33.5 -81t-78.5 -33q-44 0 -73.5 30.5t-29.5 71.5z" />
<glyph horiz-adv-x="0" />
<glyph horiz-adv-x="0" />
<glyph horiz-adv-x="682" />
<glyph unicode="&#xd;" horiz-adv-x="1024" />
<glyph unicode=" "  horiz-adv-x="446" />
<glyph unicode="&#x09;" horiz-adv-x="446" />
<glyph unicode="&#xa0;" horiz-adv-x="446" />
<glyph unicode="!" horiz-adv-x="641" d="M156 88q0 47 32 79t78 32q45 0 75 -31t30 -74q0 -47 -32 -78.5t-77 -31.5t-75.5 30.5t-30.5 73.5zM246 328l184 1108h176l-235 -1108h-125z" />
<glyph unicode="&#x22;" horiz-adv-x="702" d="M231 979l58 451h164l-113 -451h-109zM549 979l57 451h164l-113 -451h-108z" />
<glyph unicode="#" d="M43 383l20 104h201l111 371h-191l21 105h201l108 368h119l-109 -368h318l106 368h121l-108 -368h186l-21 -105h-196l-111 -371h187l-21 -104h-197l-114 -383h-119l115 383h-318l-114 -383h-119l114 383h-190zM385 487h315l109 371h-315z" />
<glyph unicode="$" d="M129 63l37 146q126 -45 264 -45q146 0 234 70.5t88 168.5q0 51 -27 90.5t-70.5 65t-96 48.5t-105 48.5t-96 57.5t-70.5 83.5t-27 118.5q0 149 114 254.5t288 126.5l36 199h117l-37 -192q109 -3 215 -25l-37 -139q-109 37 -221 37q-153 0 -235 -64t-82 -158 q0 -50 27.5 -88t71 -63t96.5 -47.5t106.5 -48.5t97 -58.5t71 -85t27.5 -121.5q0 -155 -118 -266.5t-301 -134.5l-41 -215h-117l41 207q-142 0 -250 30z" />
<glyph unicode="%" horiz-adv-x="1497" d="M111 35l1249 1333l88 -76l-1251 -1333zM184 934q0 95 31 175t82.5 132t115 80.5t130.5 28.5q117 0 176 -56.5t59 -160.5q0 -96 -31 -176.5t-82 -133t-115.5 -81.5t-131.5 -29q-116 0 -175 58t-59 163zM315 950q0 -65 28 -97t89 -32q89 0 152 82.5t63 210.5q0 65 -28.5 97 t-90.5 32q-88 0 -150.5 -83t-62.5 -210zM786 201q0 95 31 175t82.5 132t115 81t130.5 29q117 0 176 -57t59 -162q0 -95 -31 -175t-82 -132t-114.5 -81t-130.5 -29q-117 0 -176.5 57.5t-59.5 161.5zM918 217q0 -65 28 -97t90 -32q88 0 150.5 83.5t62.5 211.5q0 65 -27 96 t-89 31q-89 0 -152 -82.5t-63 -210.5z" />
<glyph unicode="&#x26;" horiz-adv-x="1597" d="M90 307q0 72 22.5 138.5t55 117t87 104t101 90t113.5 83.5q-127 197 -127 315q0 145 108 247.5t277 102.5q141 0 211 -63.5t70 -167.5q0 -56 -20 -110t-49.5 -96t-79 -89t-91.5 -79t-106 -77q149 -207 399 -450q169 183 217 415q-80 15 -164 21l16 84q156 21 324 14 q-52 -368 -297 -626q133 -127 248 -213l-109 -105q-115 86 -252 217q-256 -198 -573 -198q-97 0 -172 26.5t-119.5 72.5t-67 103t-22.5 123zM252 342q0 -98 63 -163.5t191 -65.5q234 0 444 157q-244 239 -409 467q-66 -48 -112 -87.5t-89.5 -89.5t-65.5 -104.5t-22 -113.5z M496 1176q0 -95 98 -252q62 44 101.5 76.5t79.5 74t59.5 85.5t19.5 91q0 62 -36.5 98.5t-106.5 36.5q-99 0 -157 -59t-58 -151z" />
<glyph unicode="'" horiz-adv-x="385" d="M231 979l58 451h164l-113 -451h-109z" />
<glyph unicode="(" horiz-adv-x="606" d="M135 264q0 342 137.5 688.5t382.5 644.5l101 -57q-202 -252 -337.5 -596.5t-135.5 -667.5q0 -377 112 -643l-121 -55q-139 328 -139 686z" />
<glyph unicode=")" horiz-adv-x="606" d="M-104 -365q202 253 337.5 596t135.5 666q0 376 -113 645l121 55q139 -328 139 -688q0 -342 -137 -687.5t-383 -643.5z" />
<glyph unicode="*" horiz-adv-x="741" d="M199 1108l225 90l-188 109l71 94l166 -137l29 237l116 -18l-65 -219l203 127l47 -107l-228 -90l189 -107l-72 -98l-168 141l-28 -237l-117 16l63 219l-196 -127z" />
<glyph unicode="+" d="M96 545l25 129h399l80 422h145l-79 -422h403l-25 -129h-403l-80 -424h-145l80 424h-400z" />
<glyph unicode="," horiz-adv-x="444" d="M-88 -231q204 171 141 288q-27 47 0 96.5t84 49.5q66 0 93 -59q37 -78 -24 -193q-67 -128 -235 -250z" />
<glyph unicode="-" horiz-adv-x="657" d="M104 532l25 127h465l-25 -127h-465z" />
<glyph unicode="." horiz-adv-x="444" d="M33 90q0 49 32.5 82t79.5 33q45 0 75 -31.5t30 -75.5q0 -49 -32.5 -81.5t-80.5 -32.5q-44 0 -74 31.5t-30 74.5z" />
<glyph unicode="/" horiz-adv-x="858" d="M-145 -330l1063 1880h147l-1061 -1880h-149z" />
<glyph unicode="0" d="M106 373q0 78 10 165t33.5 182.5t57 185t84.5 171t113.5 141.5t146 96t178.5 36q178 0 264 -101.5t86 -290.5q0 -78 -10 -165t-33 -182.5t-57 -184.5t-85 -170.5t-113 -142t-145.5 -96t-178.5 -35.5q-178 0 -264.5 101t-86.5 290zM270 387q0 -137 49 -205.5t164 -68.5 q90 0 166 63.5t123.5 159t81 211.5t47.5 217t14 180q0 138 -47.5 207.5t-160.5 69.5q-92 0 -168.5 -63.5t-125 -159.5t-82 -212.5t-47.5 -218t-14 -180.5z" />
<glyph unicode="1" d="M63 0l27 139h367l196 1035l-362 -119v137l407 139h144l-228 -1192h324l-27 -139h-848z" />
<glyph unicode="2" d="M29 0l24 125l418 344q230 189 309.5 301t79.5 236q0 93 -59 150.5t-172 57.5q-85 0 -175 -32t-153 -76l-31 131q201 113 398 113q174 0 267 -89t93 -225q0 -72 -16.5 -132.5t-61.5 -135.5t-131 -162.5t-219 -193.5l-334 -269v-2q160 4 441 4h211l-29 -145h-860z" />
<glyph unicode="3" d="M78 14l35 142q112 -41 264 -41q101 0 180.5 28.5t125.5 76t69.5 101.5t23.5 111q0 95 -77 149t-222 54q-109 0 -205 -8l25 125h41q118 0 211.5 18.5t152 48.5t96.5 71t53 82.5t15 86.5q0 76 -58 120t-161 44q-141 0 -311 -78l-4 135q179 70 344 70q176 0 266 -71.5 t90 -193.5q0 -132 -87.5 -230.5t-233.5 -137.5l-2 -2q115 -15 176 -85.5t61 -178.5q0 -64 -20.5 -128t-67 -126t-112.5 -109.5t-165.5 -76.5t-218.5 -29q-175 0 -284 32z" />
<glyph unicode="4" d="M27 315l12 123l758 893h209l-168 -876h235l-29 -140h-233l-59 -315h-152l59 315h-632zM209 449q203 6 479 6l137 716h-2z" />
<glyph unicode="5" d="M86 8l29 146q109 -39 237 -39q198 0 316 100t118 256q0 104 -81.5 156.5t-237.5 52.5q-123 0 -225 -16l129 667h702l-29 -147h-561l-73 -383q82 4 125 4q207 0 313 -85t106 -224q0 -104 -45 -198t-124.5 -164t-197.5 -111t-257 -41q-137 0 -244 26z" />
<glyph unicode="6" d="M111 377q0 59 10 133t36 169t66 186t106.5 180.5t150.5 156t204.5 107.5t261.5 41q41 0 111 -7l-25 -135q-79 9 -121 9q-409 0 -577 -461q-17 -43 -39 -113h2q60 90 161.5 140.5t211.5 50.5q169 0 259.5 -87t90.5 -227q0 -111 -42 -210t-113.5 -171t-173.5 -114.5 t-216 -42.5q-179 0 -271.5 102t-92.5 293zM270 354q0 -114 61 -179.5t181 -65.5q144 0 246 109.5t102 273.5q0 100 -59 156.5t-176 56.5q-104 0 -187 -52.5t-125.5 -132t-42.5 -166.5z" />
<glyph unicode="7" d="M199 0q373 657 764 1186q-86 -4 -517 -4h-198l28 149h893l-26 -135q-208 -283 -406 -597.5t-352 -598.5h-186z" />
<glyph unicode="8" d="M80 258q0 52 13.5 98t41 85t59 71.5t77.5 63.5t87 54t95 50q-98 58 -151.5 123t-53.5 160q0 157 136 272t339 115q168 0 259 -72t91 -193q0 -57 -18.5 -107.5t-47.5 -89t-75.5 -76t-90.5 -64.5t-104 -58q53 -30 91 -57t74 -64.5t54.5 -83.5t18.5 -100q0 -121 -73.5 -215 t-188.5 -141t-248 -47q-181 0 -283 73.5t-102 202.5zM244 276q0 -75 63.5 -121t181.5 -46q83 0 154 26.5t119.5 86.5t48.5 145q0 43 -17 78.5t-53.5 66t-71 51.5t-89.5 49q-62 -30 -104.5 -53t-90 -56t-75.5 -64.5t-47 -74t-19 -88.5zM410 983q0 -69 52 -120t150 -105 q70 36 116.5 64t92 66.5t68 82.5t22.5 96q0 72 -57 115t-152 43q-133 0 -212.5 -72t-79.5 -170z" />
<glyph unicode="9" d="M74 -4l24 141q82 -20 168 -20q407 0 565 436q23 66 35 92h-2q-65 -71 -156 -112t-196 -41q-164 0 -253 84t-89 235q0 101 37.5 197.5t104 172.5t168.5 122.5t222 46.5q174 0 272.5 -94t98.5 -287q0 -56 -8.5 -126t-32.5 -167.5t-62 -190t-103.5 -185.5t-149 -162 t-207 -112.5t-270.5 -43.5q-100 0 -166 14zM330 842q0 -105 57.5 -161t165.5 -56q149 0 254.5 103t105.5 251q0 109 -61.5 176.5t-175.5 67.5q-100 0 -180.5 -56t-123 -142.5t-42.5 -182.5z" />
<glyph unicode=":" horiz-adv-x="577" d="M131 92q0 47 32.5 80t78.5 33q45 0 76.5 -32t31.5 -77q0 -47 -32 -79.5t-78 -32.5t-77.5 32t-31.5 76zM246 700q0 47 33 80t79 33t77.5 -31.5t31.5 -76.5q0 -49 -32.5 -82t-78.5 -33q-47 0 -78.5 32t-31.5 78z" />
<glyph unicode=";" horiz-adv-x="577" d="M16 -231q205 172 142 288q-27 47 0 96.5t84 49.5q66 0 93 -59q37 -78 -24 -193q-67 -128 -235 -250zM246 700q0 47 32.5 80t79.5 33q46 0 77.5 -31.5t31.5 -76.5q0 -49 -33.5 -82t-79.5 -33t-77 32t-31 78z" />
<glyph unicode="&#x3c;" d="M176 633l739 559l89 -105l-629 -466l463 -474l-111 -98z" />
<glyph unicode="=" d="M90 379l27 127h893l-25 -127h-895zM154 711l26 129h893l-24 -129h-895z" />
<glyph unicode="&#x3e;" d="M168 156l631 465l-463 473l108 98l551 -582l-739 -561z" />
<glyph unicode="?" horiz-adv-x="888" d="M199 88q0 47 32 79t78 32q45 0 75 -31t30 -74q0 -47 -31.5 -78.5t-77.5 -31.5q-45 0 -75.5 30.5t-30.5 73.5zM274 328q-12 89 5.5 164.5t54 129t83.5 100t96.5 86.5t90.5 78.5t67.5 85.5t26.5 99q0 95 -92.5 156t-269.5 80l45 141q123 -11 217.5 -44.5t152 -82 t86.5 -107.5t29 -127q0 -60 -21 -113.5t-55.5 -92.5t-77.5 -78.5t-87 -73t-84 -76t-69.5 -86.5t-42.5 -106t-3 -133h-152z" />
<glyph unicode="@" horiz-adv-x="2056" d="M176 377q0 216 81.5 416t219 347t330 235.5t403.5 88.5q176 0 314.5 -50.5t223 -138t128 -199t43.5 -240.5q0 -193 -67.5 -352t-188.5 -251t-270 -92q-70 0 -120 23.5t-72 60.5t-30 83.5t5 92.5h-5q-42 -101 -135.5 -180.5t-197.5 -79.5q-103 0 -156 67.5t-53 178.5 q0 66 12.5 135.5t38 143.5t69 138.5t100 116t138 81.5t176.5 30q139 0 289 -28l-133 -463q-40 -132 -16 -201.5t110 -69.5q103 0 188 76t132 202t47 273q0 84 -19.5 159t-64 142t-111 115.5t-165.5 77t-222 28.5q-145 0 -280 -49.5t-243 -139t-189 -207t-125 -261 t-44 -293.5q0 -277 156.5 -435.5t464.5 -158.5q166 0 367 54l10 -119q-192 -58 -400 -58q-350 0 -544.5 187.5t-194.5 513.5zM778 412q0 -142 96 -142q91 0 189 133.5t170 368.5l35 121q-68 14 -133 14q-86 0 -157 -50t-113 -127t-64.5 -160t-22.5 -158z" />
<glyph unicode="A" horiz-adv-x="1226" d="M-66 0l760 1382h180l232 -1382h-168l-53 342h-602l-185 -342h-164zM346 469h522l-90 567q-12 74 -24 191h-2q-10 -20 -42 -86t-51 -101z" />
<glyph unicode="B" horiz-adv-x="1136" d="M90 0l262 1382q315 7 340 7q211 0 305.5 -74t94.5 -197q0 -146 -87 -248.5t-214 -144.5v-2q106 -19 165.5 -87.5t59.5 -166.5q0 -95 -38 -179.5t-110.5 -151t-188.5 -105.5t-261 -39q-37 0 -91 1t-125 2.5t-112 2.5zM268 131q58 -10 172 -10q196 0 304 95t108 237 q0 100 -79.5 150t-254.5 50q-116 0 -151 -2zM389 774q43 -2 135 -2q89 0 159.5 19t115.5 50t75 73.5t42 86.5t12 93q0 172 -256 172q-14 0 -191 -6z" />
<glyph unicode="C" horiz-adv-x="1183" d="M115 457q0 96 14.5 190.5t45 187.5t75.5 176t110 154t143.5 122.5t180.5 80.5t217 29q166 0 332 -66l-53 -137q-146 70 -303 70q-116 0 -215.5 -45.5t-168 -122.5t-117.5 -177.5t-72 -210.5t-23 -223q0 -166 89 -264t283 -98q83 0 178 24.5t170 59.5l13 -135 q-210 -86 -402 -86q-114 0 -203 28.5t-143 74t-89 108.5t-48.5 126.5t-13.5 133.5z" />
<glyph unicode="D" horiz-adv-x="1370" d="M90 0l262 1382q49 0 182 3.5t201 3.5q129 0 230.5 -24.5t169 -68.5t111.5 -108t63.5 -138.5t19.5 -164.5q0 -138 -33.5 -266t-106 -242.5t-176.5 -199t-255 -134t-332 -49.5q-80 0 -188.5 3t-147.5 3zM268 137q96 -14 181 -14q149 0 271.5 43.5t203.5 116t136.5 169.5 t80 201.5t24.5 214.5q0 89 -22 157.5t-72.5 123.5t-141 84t-218.5 29q-37 0 -230 -7z" />
<glyph unicode="E" horiz-adv-x="1032" d="M90 0l262 1382h705l-25 -127h-551l-92 -479h506l-25 -127h-503l-101 -518h551l-22 -131h-705z" />
<glyph unicode="F" horiz-adv-x="948" d="M90 0l262 1382h688l-22 -129h-537l-92 -485h498l-25 -125h-497l-121 -643h-154z" />
<glyph unicode="G" horiz-adv-x="1374" d="M111 508q0 100 22.5 202t66.5 203t116 188.5t164 154.5t218 106t271 39q192 0 366 -58l-45 -143q-176 68 -342 68q-114 0 -213.5 -32.5t-172 -88.5t-128.5 -128.5t-90.5 -156.5t-52 -169.5t-17.5 -168.5q0 -192 104.5 -299.5t317.5 -107.5q150 0 287 43l102 536h154 l-121 -639q-213 -75 -448 -75q-278 0 -418.5 137.5t-140.5 388.5z" />
<glyph unicode="H" horiz-adv-x="1411" d="M90 0l262 1382h154l-115 -600h737l115 600h154l-264 -1382h-152l123 651h-735l-125 -651h-154z" />
<glyph unicode="I" horiz-adv-x="520" d="M90 0l262 1382h154l-262 -1382h-154z" />
<glyph unicode="J" horiz-adv-x="692" d="M-92 2l24 141q74 -24 154 -24q97 0 159.5 56.5t90.5 195.5l190 1011h152l-197 -1034q-36 -183 -134.5 -272.5t-274.5 -89.5q-86 0 -164 16z" />
<glyph unicode="K" horiz-adv-x="1163" d="M90 0l262 1382h154l-125 -657l698 657h199l-735 -673l483 -709h-199l-452 696l-131 -696h-154z" />
<glyph unicode="L" horiz-adv-x="854" d="M90 0l262 1382h154l-238 -1251h502l-22 -131h-658z" />
<glyph unicode="M" horiz-adv-x="1792" d="M14 0l441 1382h204l144 -936q22 -128 22 -233h4q52 134 107 233l504 936h227l-76 -1382h-157l45 858q16 267 32 381h-6q-18 -43 -123 -258l-524 -981h-141l-146 928q-27 181 -36 311h-3q-36 -152 -108 -391l-256 -848h-154z" />
<glyph unicode="N" horiz-adv-x="1380" d="M90 0l262 1382h180l351 -804q80 -183 129 -338h2q49 340 135 790l68 352h149l-262 -1382h-146l-368 852q-80 180 -135 352h-2q-44 -308 -140 -815l-73 -389h-150z" />
<glyph unicode="O" horiz-adv-x="1421" d="M111 483q0 182 56 348.5t155.5 293t247 201.5t319.5 75q123 0 219 -37t156 -104.5t91 -158.5t31 -202q0 -182 -56.5 -348.5t-156 -292.5t-247 -201t-318.5 -75q-245 0 -371 136t-126 365zM274 510q0 -181 90.5 -287t274.5 -106q124 0 233 59.5t185.5 161t121 240.5 t44.5 294q0 181 -91.5 287.5t-273.5 106.5q-124 0 -233.5 -59.5t-186 -161.5t-120.5 -241t-44 -294z" />
<glyph unicode="P" horiz-adv-x="1101" d="M90 0l262 1382q174 7 328 7q219 0 331.5 -96t112.5 -253q0 -87 -27 -169t-80.5 -152t-127 -122.5t-173.5 -82t-214 -29.5q-39 0 -80.5 1.5t-63.5 3.5l-22 2l-92 -492h-154zM360 625q90 -13 166 -13q89 0 164 25t124.5 66t84.5 95t50.5 110.5t15.5 113.5q0 107 -76 173.5 t-238 66.5l-172 -5z" />
<glyph unicode="Q" horiz-adv-x="1421" d="M111 481q0 146 35 283t103.5 252t161.5 201.5t216.5 135t261.5 48.5q123 0 219 -37t156 -104.5t91 -158.5t31 -202q0 -151 -38 -290.5t-103 -247t-152.5 -185.5t-185.5 -113q40 -1 87 -15t84.5 -28t103.5 -22q29 -4 61 -4q39 0 82 6l-29 -137q-51 -7 -97 -7q-21 0 -41 2 q-64 4 -106.5 17.5t-89.5 31.5t-87 35t-99.5 28.5t-126.5 11.5h-41q-245 0 -371 136t-126 363zM274 510q0 -181 90.5 -287t274.5 -106q124 0 233 59.5t185.5 161t121 240.5t44.5 294q0 181 -91.5 287.5t-273.5 106.5q-124 0 -233.5 -59.5t-186 -161.5t-120.5 -241t-44 -294z " />
<glyph unicode="R" horiz-adv-x="1132" d="M90 0l262 1380q166 9 324 9q196 0 305 -77t109 -218q0 -81 -28 -157t-81.5 -141t-143 -110.5t-202.5 -58.5q41 -68 82 -144l262 -483h-188l-322 614h-111l-114 -614h-154zM383 735q74 -2 156 -2q84 0 151.5 20.5t110.5 54t72 77.5t41 89t12 91q0 93 -68.5 146t-208.5 53 q-36 0 -78.5 -2t-66.5 -4l-25 -1z" />
<glyph unicode="S" horiz-adv-x="1011" d="M29 23l45 149q128 -53 297 -53q165 0 256.5 78t91.5 196q0 56 -28 102.5t-72 79t-98 63.5t-108 65.5t-98 74t-72 99.5t-28 133q0 77 33.5 147t95.5 124.5t159.5 87t217.5 32.5q124 0 256 -27l-39 -141q-116 37 -242 37q-158 0 -240.5 -71.5t-82.5 -172.5q0 -54 28 -98 t72.5 -76t98.5 -62t108 -64.5t98.5 -75t72.5 -102.5t28 -138q0 -83 -35 -159.5t-100 -136.5t-168.5 -96t-231.5 -36q-181 0 -315 41z" />
<glyph unicode="T" horiz-adv-x="1042" d="M180 1251l27 131h964l-24 -131h-406l-237 -1251h-154l238 1251h-408z" />
<glyph unicode="U" horiz-adv-x="1398" d="M162 316q2 73 16 155l174 911h154l-176 -913q-12 -64 -13 -116q1 -95 43 -153q64 -88 256 -89q194 0 303.5 94.5t151.5 318.5l164 858h149l-165 -876q-51 -266 -206.5 -395t-416.5 -129q-117 0 -202.5 24.5t-133 69t-73.5 106.5q-25 58 -25 126v8z" />
<glyph unicode="V" horiz-adv-x="1230" d="M197 1382h168l143 -925q25 -155 37 -299h4q53 117 156 307l497 917h168l-762 -1382h-178z" />
<glyph unicode="W" horiz-adv-x="1914" d="M246 1382h162l71 -952q7 -114 7 -213q0 -33 -1 -65h2q61 162 109 268l453 962h155l94 -979q13 -127 13 -251h2q36 105 88 227l454 1003h152l-629 -1382h-190l-94 971q-8 78 -8 152q0 22 1 44h-2q-10 -25 -25.5 -66t-28 -72t-25.5 -58l-455 -971h-199z" />
<glyph unicode="X" horiz-adv-x="1179" d="M-55 0l590 717l-297 665h174l233 -544l434 544h183l-543 -665l323 -717h-182l-254 596l-477 -596h-184z" />
<glyph unicode="Y" horiz-adv-x="1058" d="M176 1382h166l156 -475q33 -95 63 -229h2q33 55 154 233l334 471h168l-607 -841l-102 -541h-154l103 541z" />
<glyph unicode="Z" horiz-adv-x="1083" d="M0 0l20 115l775 952q43 54 157 180q-144 -4 -307 -4h-387l27 139h872l-22 -116l-816 -996q-7 -8 -110 -133q45 6 354 6h363l-25 -143h-901z" />
<glyph unicode="[" horiz-adv-x="641" d="M12 -401l377 1976h379l-20 -117h-240l-332 -1741h240l-25 -118h-379z" />
<glyph unicode="\" horiz-adv-x="856" d="M229 1550h138l344 -1880h-138z" />
<glyph unicode="]" horiz-adv-x="641" d="M-92 -401l22 118h238l334 1741h-242l23 117h381l-379 -1976h-377z" />
<glyph unicode="^" d="M188 764l457 618h127l238 -614l-121 -61l-203 557l-399 -557z" />
<glyph unicode="_" d="M-190 -512l20 121h1124l-20 -121h-1124z" />
<glyph unicode="`" horiz-adv-x="702" d="M358 1440l111 90l197 -285l-91 -71z" />
<glyph unicode="a" horiz-adv-x="1128" d="M76 287q0 114 23 220t73 202.5t123 167.5t180 113t236 42q146 0 303 -28l-168 -881q84 -15 170 -21l-17 -88q-118 -16 -244 -16q-42 0 -85 2q24 123 127 449l-4 2q-209 -471 -494 -471q-223 0 -223 307zM231 313q0 -202 115 -202q75 0 156 71.5t145 178.5t111.5 225 t66.5 217l17 88q-86 20 -158 20q-79 0 -147 -25.5t-116.5 -70t-85.5 -102.5t-59.5 -126t-33.5 -136.5t-11 -137.5z" />
<glyph unicode="b" horiz-adv-x="1116" d="M109 16l260 1356q-89 15 -172 21l16 88q118 16 245 16q42 0 85 -2l-101 -520q-14 -78 -114 -402h4q41 100 91 181.5t111.5 146.5t135 101t153.5 36q224 0 224 -307q0 -114 -23 -220t-73 -202.5t-123 -167.5t-180 -113t-236 -42q-156 0 -303 30zM281 127q82 -21 157 -21 q95 0 173 37t129 96.5t86 139t50 161t15 165.5q0 202 -115 202q-61 0 -126 -47t-120 -122.5t-103 -167.5t-80.5 -183t-47.5 -168z" />
<glyph unicode="c" horiz-adv-x="849" d="M74 315q0 146 39.5 275.5t111.5 228t182 156t242 57.5q113 0 228 -33l-39 -137q-101 43 -203 43q-80 0 -147.5 -34t-113.5 -90t-78.5 -128.5t-47.5 -149.5t-15 -153q0 -233 230 -233q123 0 237 49l9 -125q-135 -55 -285 -55q-350 0 -350 329z" />
<glyph unicode="d" horiz-adv-x="1146" d="M76 287q0 114 23 220t73 202.5t123 167.5t180 113t236 42q75 0 155 -12l68 352q-85 15 -172 21l18 88q116 16 243 16q42 0 85 -2l-262 -1372q84 -15 170 -21l-17 -88q-118 -16 -243 -16q-42 0 -84 2q21 118 125 449l-4 2q-209 -471 -494 -471q-223 0 -223 307zM231 313 q0 -202 115 -202q75 0 156 71.5t145 178.5t111.5 225t66.5 217l17 88q-86 20 -158 20q-79 0 -147 -25.5t-116.5 -70t-85.5 -102.5t-59.5 -126t-33.5 -136.5t-11 -137.5z" />
<glyph unicode="e" horiz-adv-x="960" d="M74 307q0 144 38 275.5t107 232.5t174.5 161t231.5 60q144 0 215 -63.5t71 -161.5q0 -323 -667 -350q-13 -54 -13 -133q0 -128 51 -173.5t181 -45.5q146 0 280 59l9 -123q-148 -63 -342 -63q-172 0 -254 76.5t-82 248.5zM266 582q257 10 373.5 62t116.5 149q0 60 -41 91 t-111 31q-123 0 -211 -92.5t-127 -240.5z" />
<glyph unicode="f" horiz-adv-x="698" d="M-348 -508l37 131q82 -20 147 -20q120 0 187.5 73t101.5 256l184 965h-219l23 121h219l12 67q42 217 153 318.5t298 101.5q89 0 163 -18l-34 -125q-73 18 -150 18q-116 0 -184 -71.5t-98 -233.5l-11 -57h293l-22 -121h-293l-183 -956q-46 -249 -155.5 -358t-300.5 -109 q-73 0 -168 18z" />
<glyph unicode="g" horiz-adv-x="1097" d="M-25 -492l37 144q140 -45 273 -45q157 0 249 77.5t128 258.5q41 216 131 495l-5 2q-207 -460 -489 -460q-223 0 -223 307q0 114 23 220t73 202.5t123 167.5t180 113t236 42q146 0 303 -28l-213 -1108q-17 -91 -54 -164t-100.5 -132t-163.5 -91.5t-231 -32.5 q-149 0 -277 32zM231 313q0 -202 115 -202q75 0 156 71.5t145 178.5t111.5 225t66.5 217l17 88q-86 20 -158 20q-79 0 -147 -25.5t-116.5 -70t-85.5 -102.5t-59.5 -126t-33.5 -136.5t-11 -137.5z" />
<glyph unicode="h" horiz-adv-x="1173" d="M104 0l263 1372q-83 15 -172 21l16 88q119 16 245 16q42 0 85 -2l-97 -496q-18 -117 -114 -415l4 -2q30 72 66 136t82.5 123.5t97.5 102.5t113 68.5t126 25.5q136 0 189 -92q33 -58 34 -144q0 -51 -12 -112l-133 -690h-149l124 655q13 67 13 115q0 46 -12 76 q-24 60 -101 61q-60 0 -124.5 -47t-119.5 -122t-103.5 -166.5t-81.5 -184t-48 -170.5l-39 -217h-152z" />
<glyph unicode="i" horiz-adv-x="563" d="M135 0l172 895q-76 13 -172 20l17 89q118 16 244 16q42 0 85 -2l-194 -1018h-152zM356 1333q0 51 33.5 84t77.5 33q42 0 70 -28t28 -66q0 -50 -33 -82.5t-79 -32.5q-41 0 -69 27.5t-28 64.5z" />
<glyph unicode="j" horiz-adv-x="569" d="M-264 -510l31 135q56 -20 118 -20q107 0 155 62t81 231l192 997q-76 13 -172 20l17 89q119 16 245 16q41 0 84 -2l-223 -1161q-38 -199 -128 -291t-269 -92q-61 0 -131 16zM362 1333q0 51 33.5 84t79.5 33q40 0 68 -28t28 -66q0 -50 -33 -82.5t-79 -32.5q-41 0 -69 27.5 t-28 64.5z" />
<glyph unicode="k" horiz-adv-x="985" d="M104 0l263 1372q-83 15 -172 21l16 88q119 16 245 16q42 0 85 -2l-174 -915l495 485l107 -92l-449 -410l324 -563h-185l-299 551l-104 -551h-152z" />
<glyph unicode="l" horiz-adv-x="532" d="M106 0l261 1372q-84 15 -170 21l16 88q118 16 244 16q42 0 84 -2l-285 -1495h-150z" />
<glyph unicode="m" horiz-adv-x="1820" d="M135 0l172 895q-76 13 -172 20l17 89q119 16 245 16q42 0 84 -2q-43 -200 -123 -434l4 -2q37 90 85 168.5t108 144.5t134.5 104.5t152.5 38.5q98 0 150 -52t52 -146q0 -87 -57 -258l4 -2q37 91 85 169.5t108 145t134 105t152 38.5q132 0 184 -92q33 -57 32 -143 q0 -51 -11 -113l-133 -690h-149l125 655q12 67 12 116q0 47 -11 76q-23 60 -96 60q-85 0 -184.5 -104.5t-177.5 -265t-107 -320.5l-41 -217h-149l125 655q14 71 14 121q-1 43 -11 71q-22 60 -95 60q-86 0 -186 -104.5t-178 -265t-107 -320.5l-39 -217h-152z" />
<glyph unicode="n" horiz-adv-x="1204" d="M135 0l172 895q-76 13 -172 20l17 89q119 16 245 16q42 0 84 -2q-29 -144 -123 -434l4 -2q39 91 87.5 169t109.5 144.5t136 104.5t155 38q136 0 189 -92q33 -56 33 -140q0 -52 -13 -116l-129 -690h-152l125 655q13 67 13 115q0 46 -12 76q-24 60 -101 61 q-60 0 -124.5 -47t-119.5 -122t-103.5 -166.5t-81.5 -184t-48 -170.5l-39 -217h-152z" />
<glyph unicode="o" horiz-adv-x="1087" d="M72 344q0 103 23.5 202.5t72 188t116.5 155.5t164 106.5t207 39.5q179 0 273 -99t94 -263q0 -103 -23.5 -202.5t-72 -188t-117 -155.5t-164.5 -106.5t-207 -39.5q-179 0 -272.5 99t-93.5 263zM231 365q0 -113 58 -183.5t176 -70.5q98 0 177 50t125 130.5t70.5 173.5 t24.5 188q0 114 -57.5 185t-175.5 71q-79 0 -146 -33t-112.5 -88t-78 -126t-47 -146.5t-14.5 -150.5z" />
<glyph unicode="p" horiz-adv-x="1146" d="M39 -510l268 1405q-76 13 -172 20l17 89q119 16 245 16q41 0 84 -2q-25 -129 -123 -443l4 -2q41 99 91.5 181t111.5 147t134.5 101t152.5 36q225 0 225 -307q0 -114 -23 -220t-73 -201.5t-123 -166.5t-180 -113t-236 -42q-80 0 -157 12l-97 -510h-149zM311 135 q76 -26 158 -26q94 0 172 36.5t129 96t86 138t50.5 160.5t15.5 165q0 202 -115 202q-76 0 -157 -71.5t-144 -178.5t-110.5 -223.5t-67.5 -214.5z" />
<glyph unicode="q" horiz-adv-x="1097" d="M76 287q0 114 23 220t73 202.5t123 167.5t180 113t236 42q148 0 303 -31l-266 -1388q89 -15 172 -21l-17 -88q-138 -15 -258 -15q-36 0 -70 1l93 487q32 169 129 472l-4 2q-209 -471 -494 -471q-223 0 -223 307zM231 313q0 -202 115 -202q75 0 156 71.5t145 178.5 t111.5 225t66.5 217l17 88q-86 20 -158 20q-79 0 -147 -25.5t-116.5 -70t-85.5 -102.5t-59.5 -126t-33.5 -136.5t-11 -137.5z" />
<glyph unicode="r" horiz-adv-x="776" d="M135 0l172 895q-76 13 -172 20l17 89q120 16 244 16q41 0 83 -2q-23 -133 -114 -404h4q41 89 73 149.5t77 123t89 96t102 49.5q31 9 64 8q29 0 60 -6l-29 -151q-24 9 -49 9q-38 0 -78 -22q-66 -36 -120 -108t-101.5 -166.5t-79.5 -188.5t-47 -174l-43 -233h-152z" />
<glyph unicode="s" horiz-adv-x="804" d="M20 4l33 139q100 -34 209 -34q114 0 177 45.5t63 130.5q0 41 -25.5 78t-63.5 63.5t-83 59.5t-83 65t-63.5 81.5t-25.5 108.5q0 123 105.5 209t285.5 86q83 0 184 -16l-28 -129q-98 24 -170 24q-105 0 -162.5 -43.5t-57.5 -115.5q0 -49 35.5 -91.5t86 -77t101 -72 t86 -93.5t35.5 -125q0 -133 -108.5 -224t-314.5 -91q-120 0 -216 22z" />
<glyph unicode="t" horiz-adv-x="743" d="M90 897l23 121h213l63 338l158 37l-70 -375h289l-21 -121h-292l-107 -567q-12 -65 -13 -108q1 -39 11 -60q20 -45 100 -45t146 16l-6 -129q-95 -20 -183 -20q-151 0 -199 75q-28 44 -28 122q0 54 14 124l115 592h-213z" />
<glyph unicode="u" horiz-adv-x="1228" d="M129 915l16 89q122 16 246 16q42 0 84 -2l-127 -656q-12 -65 -12.5 -112.5t12.5 -77.5q25 -60 101 -61q74 0 155 71t145 177.5t111.5 224.5t65.5 217l41 217h149l-172 -895q83 -15 172 -21l-18 -88q-116 -16 -241 -16q-42 0 -85 2q32 160 121 434l-4 2 q-38 -90 -86.5 -168.5t-109.5 -144.5t-136 -104.5t-154 -38.5q-137 0 -189 91q-33 57 -33 143q0 52 12 114l108 567q-76 13 -172 20z" />
<glyph unicode="v" horiz-adv-x="958" d="M121 1018h164l106 -674q11 -85 19 -188h2l477 905l141 -53l-561 -1008h-170z" />
<glyph unicode="w" horiz-adv-x="1589" d="M137 1018h164l57 -617q14 -158 19 -245h2q23 57 113 247l307 615h174l78 -615q17 -154 20 -249h4q40 91 113 247l317 660l144 -51l-514 -1010h-174l-95 662q-13 103 -16 196h-2q-27 -63 -121 -260l-295 -598h-182z" />
<glyph unicode="x" horiz-adv-x="1032" d="M-35 39l465 477l-264 502h182l197 -402l407 449l109 -84l-445 -469l273 -512h-191l-198 414l-418 -463z" />
<glyph unicode="y" horiz-adv-x="946" d="M-236 -520l25 135q41 -6 78 -6q117 0 227 110q84 84 120 178t36 238q0 162 -35.5 397.5t-97.5 485.5h168q46 -208 77 -423t31 -327q0 -126 -22 -219h2q6 11 96 182q172 316 385 828l143 -45q-430 -1009 -776 -1352q-95 -97 -188.5 -141.5t-202.5 -44.5z" />
<glyph unicode="z" horiz-adv-x="878" d="M4 0l21 109l626 776q-132 -4 -266 -4h-205l27 137h653l-18 -107l-625 -774q118 4 275 4h213l-27 -141h-674z" />
<glyph unicode="{" horiz-adv-x="669" d="M63 590l25 123q128 8 182.5 53.5t77.5 167.5l51 266q70 375 363 375h33l-19 -117q-108 0 -158.5 -54.5t-76.5 -197.5l-52 -264q-28 -138 -88 -210.5t-157 -84.5v-4q88 -12 123 -86.5t10 -200.5l-74 -387q-28 -142 2.5 -197t136.5 -55l-22 -118h-35q-156 0 -206.5 97 t-14.5 279l76 392q24 118 -16.5 166.5t-160.5 56.5z" />
<glyph unicode="|" horiz-adv-x="569" d="M33 -510l391 2048h119l-391 -2048h-119z" />
<glyph unicode="}" horiz-adv-x="669" d="M-94 -401l24 118q107 0 156.5 54.5t77.5 197.5l74 389q52 274 245 295v4q-88 14 -123 87.5t-12 199.5l51 264q28 142 -2.5 196t-136.5 54l23 117h28q81 0 135 -28.5t78 -78.5t28.5 -118.5t-13.5 -149.5l-54 -266q-23 -118 17.5 -165.5t159.5 -55.5l-25 -123 q-126 -8 -179.5 -54t-78.5 -169l-74 -392q-38 -196 -120.5 -286t-239.5 -90h-39z" />
<glyph unicode="~" d="M209 907q6 138 82 220.5t196 82.5q62 0 109 -24t75.5 -58t53.5 -67.5t58.5 -57.5t76.5 -24q66 0 105 53t47 137h114q-7 -139 -83.5 -222t-196.5 -83q-62 0 -108.5 24t-75 58t-53.5 68t-58.5 58t-75.5 24q-66 0 -105.5 -53.5t-45.5 -135.5h-115z" />
<glyph unicode="&#xa2;" d="M186 549q0 133 40 241t111 180.5t163 116.5t200 58l33 186h123l-33 -182q124 -3 236 -49l-62 -131q-99 55 -227 55q-193 0 -305.5 -118t-112.5 -324q0 -108 69.5 -173t209.5 -65q142 0 268 66l19 -125q-132 -60 -273 -72l-41 -213h-123l41 215q-152 9 -244 96t-92 238z " />
<glyph unicode="&#xa3;" d="M57 0l21 106q90 71 138.5 117t82 102.5t45 116.5t14.5 156h-225l23 121h206q0 105 10.5 190t42 170t82.5 142.5t138 93t203 35.5q132 0 235 -35l-49 -131q-112 41 -213 41q-63 0 -112 -19.5t-80 -58t-51.5 -83t-30.5 -106.5t-13.5 -116t-3.5 -123h334l-23 -121h-315 q-6 -172 -58 -271t-186 -196q90 4 172 4h461l-24 -135h-824z" />
<glyph unicode="&#xa5;" d="M86 166l20 108h336l33 179h-334l21 108h334l10 47l-270 723h167l138 -391q19 -54 61 -207h2q70 110 156 223l270 375h172l-540 -721l-11 -49h334l-20 -108h-334l-33 -179h334l-21 -108h-336l-30 -166h-156l31 166h-334z" />
<glyph unicode="&#xa8;" horiz-adv-x="929" d="M340 1341q0 43 29 72t71 29q40 0 67.5 -27t27.5 -65q0 -44 -29.5 -73.5t-71.5 -29.5q-41 0 -67.5 27.5t-26.5 66.5zM717 1341q0 42 30 71.5t72 29.5q39 0 66.5 -27.5t27.5 -64.5q0 -44 -29.5 -73.5t-70.5 -29.5t-68.5 27.5t-27.5 66.5z" />
<glyph unicode="&#xa9;" horiz-adv-x="1511" d="M104 655q0 198 98.5 362.5t261.5 256.5t351 92q136 0 257.5 -50.5t208.5 -137t138 -206t51 -253.5q0 -149 -58 -282.5t-154.5 -227.5t-226 -148.5t-269.5 -54.5t-263 51t-209.5 137.5t-136 206.5t-49.5 254zM231 662q0 -146 71 -269.5t194.5 -196.5t271.5 -73 q153 0 285 76t212.5 213t80.5 303q0 143 -71 265t-195 194.5t-271 72.5q-154 0 -286 -75t-212 -210t-80 -300zM463 573q0 132 49.5 240t145 173t219.5 65q94 0 167 -25l-32 -113q-64 31 -148 31q-71 0 -125 -34t-83 -88t-42.5 -111t-13.5 -115q0 -160 154 -160q89 0 174 31 l2 -109q-93 -34 -199 -34q-268 0 -268 249z" />
<glyph unicode="&#xab;" horiz-adv-x="1001" d="M137 608l297 355l105 -68l-246 -295l135 -293l-119 -61zM506 608l311 350l103 -67l-261 -291l152 -291l-119 -61z" />
<glyph unicode="&#xad;" horiz-adv-x="657" d="M104 532l25 127h465l-25 -127h-465z" />
<glyph unicode="&#xae;" horiz-adv-x="1128" d="M242 1055q0 130 64.5 238t168.5 167.5t223 59.5q176 0 294 -118.5t118 -297.5q0 -127 -65 -234.5t-170 -167t-222 -59.5q-176 0 -293.5 119t-117.5 293zM352 1069q0 -134 89 -230t218 -96q136 0 238 103t102 252q0 131 -88.5 226t-216.5 95q-138 0 -240 -101.5 t-102 -248.5zM492 850l88 471h143q139 0 139 -100q0 -63 -41 -105t-106 -55q19 -28 33 -64l63 -147h-102l-80 201h-13l-38 -201h-86zM629 1114h30q50 0 79.5 26.5t29.5 65.5q0 43 -61 43h-52z" />
<glyph unicode="&#xb4;" horiz-adv-x="702" d="M324 1251l292 279l84 -100l-311 -256z" />
<glyph unicode="&#xb8;" horiz-adv-x="593" d="M4 -481q67 72 97.5 125t30.5 107t-38 112l142 53q39 -65 38.5 -131.5t-33.5 -129.5t-98 -136h-139z" />
<glyph unicode="&#xbb;" horiz-adv-x="1001" d="M121 317l264 291l-152 289l121 61l185 -358l-316 -352zM502 313l250 295l-136 293l121 62l166 -363l-297 -354z" />
<glyph unicode="&#xc1;" horiz-adv-x="1226" d="M-66 0l760 1382h180l232 -1382h-168l-53 342h-602l-185 -342h-164zM346 469h522l-90 567q-12 74 -24 191h-2q-10 -20 -42 -86t-51 -101zM688 1587l373 148l26 -127l-380 -115z" />
<glyph unicode="&#xc9;" horiz-adv-x="1032" d="M90 0l262 1382h705l-25 -127h-551l-92 -479h506l-25 -127h-503l-101 -518h551l-22 -131h-705zM602 1587l373 148l26 -127l-380 -115z" />
<glyph unicode="&#xcd;" horiz-adv-x="520" d="M90 0l262 1382h154l-262 -1382h-154zM354 1587l373 148l27 -127l-381 -115z" />
<glyph unicode="&#xd3;" horiz-adv-x="1421" d="M111 483q0 182 56 348.5t155.5 293t247 201.5t319.5 75q123 0 219 -37t156 -104.5t91 -158.5t31 -202q0 -182 -56.5 -348.5t-156 -292.5t-247 -201t-318.5 -75q-245 0 -371 136t-126 365zM274 510q0 -181 90.5 -287t274.5 -106q124 0 233 59.5t185.5 161t121 240.5 t44.5 294q0 181 -91.5 287.5t-273.5 106.5q-124 0 -233.5 -59.5t-186 -161.5t-120.5 -241t-44 -294zM823 1587l373 148l27 -127l-381 -115z" />
<glyph unicode="&#xda;" horiz-adv-x="1398" d="M162.5 316q1.5 73 15.5 155l174 911h154l-176 -913q-35 -181 29.5 -269.5t256.5 -88.5q194 0 303.5 94.5t151.5 318.5l164 858h149l-165 -876q-51 -266 -206.5 -395t-416.5 -129q-117 0 -202.5 24.5t-133 69t-73.5 106t-24.5 134.5zM844 1587l373 148l26 -127l-381 -115z " />
<glyph unicode="&#xdd;" horiz-adv-x="1058" d="M176 1382h166l156 -475q33 -95 63 -229h2q33 55 154 233l334 471h168l-607 -841l-102 -541h-154l103 541zM668 1587l372 148l27 -127l-381 -115z" />
<glyph unicode="&#xe1;" horiz-adv-x="1128" d="M76 287q0 114 23 220t73 202.5t123 167.5t180 113t236 42q146 0 303 -28l-168 -881q84 -15 170 -21l-17 -88q-158 -21 -329 -14q24 123 127 449l-4 2q-209 -471 -494 -471q-223 0 -223 307zM231 313q0 -202 115 -202q75 0 156 71.5t145 178.5t111.5 225t66.5 217l17 88 q-86 20 -158 20q-79 0 -147 -25.5t-116.5 -70t-85.5 -102.5t-59.5 -126t-33.5 -136.5t-11 -137.5zM612 1251l293 279l84 -100l-311 -256z" />
<glyph unicode="&#xe9;" horiz-adv-x="960" d="M74 307q0 144 38 275.5t107 232.5t174.5 161t231.5 60q144 0 215 -63.5t71 -161.5q0 -323 -667 -350q-13 -54 -13 -133q0 -128 51 -173.5t181 -45.5q146 0 280 59l9 -123q-148 -63 -342 -63q-172 0 -254 76.5t-82 248.5zM266 582q257 10 373.5 62t116.5 149q0 60 -41 91 t-111 31q-123 0 -211 -92.5t-127 -240.5zM532 1251l293 279l84 -100l-311 -256z" />
<glyph unicode="&#xed;" horiz-adv-x="563" d="M135 0l172 895q-76 13 -172 20l17 89q158 21 329 14l-194 -1018h-152zM328 1235l256 301l98 -78l-274 -287z" />
<glyph unicode="&#xf3;" horiz-adv-x="1087" d="M72 344q0 103 23.5 202.5t72 188t116.5 155.5t164 106.5t207 39.5q179 0 273 -99t94 -263q0 -103 -23.5 -202.5t-72 -188t-117 -155.5t-164.5 -106.5t-207 -39.5q-179 0 -272.5 99t-93.5 263zM231 365q0 -113 58 -183.5t176 -70.5q98 0 177 50t125 130.5t70.5 173.5 t24.5 188q0 114 -57.5 185t-175.5 71q-79 0 -146 -33t-112.5 -88t-78 -126t-47 -146.5t-14.5 -150.5zM604 1251l293 279l84 -100l-311 -256z" />
<glyph unicode="&#xfa;" horiz-adv-x="1228" d="M129 915l16 89q162 21 330 14l-127 -656q-25 -130 0 -190.5t101 -60.5q74 0 155 71t145 177.5t111.5 224.5t65.5 217l41 217h149l-172 -895q83 -15 172 -21l-18 -88q-154 -21 -326 -14q32 160 121 434l-4 2q-38 -90 -86.5 -168.5t-109.5 -144.5t-136 -104.5t-154 -38.5 q-137 0 -189 91t-21 257l108 567q-76 13 -172 20zM680 1251l293 279l84 -100l-312 -256z" />
<glyph unicode="&#xfd;" horiz-adv-x="946" d="M-236 -520l25 135q41 -6 78 -6q117 0 227 110q84 84 120 178t36 238q0 162 -35.5 397.5t-97.5 485.5h168q46 -208 77 -423t31 -327q0 -126 -22 -219h2q6 11 96 182q172 316 385 828l143 -45q-430 -1009 -776 -1352q-95 -97 -188.5 -141.5t-202.5 -44.5zM547 1251l293 279 l84 -100l-312 -256z" />
<glyph unicode="&#x100;" horiz-adv-x="1226" d="M-66 0l760 1382h180l232 -1382h-168l-53 342h-602l-185 -342h-164zM346 469h522l-90 567q-12 74 -24 191h-2q-10 -20 -42 -86t-51 -101zM541 1538l22 111h539l-21 -111h-540z" />
<glyph unicode="&#x101;" horiz-adv-x="1128" d="M76 287q0 114 23 220t73 202.5t123 167.5t180 113t236 42q146 0 303 -28l-168 -881q84 -15 170 -21l-17 -88q-158 -21 -329 -14q24 123 127 449l-4 2q-209 -471 -494 -471q-223 0 -223 307zM231 313q0 -202 115 -202q75 0 156 71.5t145 178.5t111.5 225t66.5 217l17 88 q-86 20 -158 20q-79 0 -147 -25.5t-116.5 -70t-85.5 -102.5t-59.5 -126t-33.5 -136.5t-11 -137.5zM463 1276l20 117h494l-23 -117h-491z" />
<glyph unicode="&#x102;" horiz-adv-x="1226" d="M-66 0l760 1382h180l232 -1382h-168l-53 342h-602l-185 -342h-164zM346 469h522l-90 567q-12 74 -24 191h-2q-10 -20 -42 -86t-51 -101zM594 1739h100q-11 -55 21 -92t100 -37q69 0 115 34t59 95h105q-20 -102 -94.5 -170t-194.5 -68q-122 0 -176.5 69t-34.5 169z" />
<glyph unicode="&#x103;" horiz-adv-x="1128" d="M76 287q0 114 23 220t73 202.5t123 167.5t180 113t236 42q146 0 303 -28l-168 -881q84 -15 170 -21l-17 -88q-158 -21 -329 -14q24 123 127 449l-4 2q-209 -471 -494 -471q-223 0 -223 307zM231 313q0 -202 115 -202q75 0 156 71.5t145 178.5t111.5 225t66.5 217l17 88 q-86 20 -158 20q-79 0 -147 -25.5t-116.5 -70t-85.5 -102.5t-59.5 -126t-33.5 -136.5t-11 -137.5zM494 1468h100q-11 -62 17 -102.5t91 -40.5t105.5 37.5t56.5 105.5h111q-20 -112 -94.5 -186t-194.5 -74t-167 75t-25 185z" />
<glyph unicode="&#x104;" horiz-adv-x="1226" d="M-66 0l760 1382h180l232 -1382q-256 -162 -256 -299q0 -26 17 -41.5t51 -15.5q63 0 143 53l37 -92q-111 -82 -217 -82q-88 0 -135.5 43t-47.5 106q0 86 62.5 172t177.5 160l-53 338h-602l-185 -342h-164zM346 469h522l-90 567q-12 74 -24 191h-2q-10 -20 -42 -86 t-51 -101z" />
<glyph unicode="&#x105;" horiz-adv-x="1128" d="M76 287q0 114 23 220t73 202.5t123 167.5t180 113t236 42q146 0 303 -28l-115 -598q-34 -165 -37 -287q76 -11 154 -17l-17 -88q-88 -9 -164 -44.5t-123 -82.5t-73.5 -96.5t-26.5 -89.5q0 -57 70 -57q61 0 141 53l37 -92q-108 -82 -217 -82q-86 0 -133 43t-47 106 q0 86 63 173.5t183 166.5q5 113 22 204t66 233l-4 2q-209 -471 -494 -471q-223 0 -223 307zM231 313q0 -202 115 -202q75 0 156 71.5t145 178.5t111.5 225t66.5 217l17 88q-86 20 -158 20q-79 0 -147 -25.5t-116.5 -70t-85.5 -102.5t-59.5 -126t-33.5 -136.5t-11 -137.5z " />
<glyph unicode="&#x106;" horiz-adv-x="1183" d="M115 457q0 96 14.5 190.5t45 187.5t75.5 176t110 154t143.5 122.5t180.5 80.5t217 29q166 0 332 -66l-53 -137q-146 70 -303 70q-116 0 -215.5 -45.5t-168 -122.5t-117.5 -177.5t-72 -210.5t-23 -223q0 -166 89 -264t283 -98q83 0 178 24.5t170 59.5l13 -135 q-210 -86 -402 -86q-114 0 -203 28.5t-143 74t-89 108.5t-48.5 126.5t-13.5 133.5zM811 1587l373 148l26 -127l-381 -115z" />
<glyph unicode="&#x107;" horiz-adv-x="849" d="M74 315q0 146 39.5 275.5t111.5 228t182 156t242 57.5q113 0 228 -33l-39 -137q-101 43 -203 43q-80 0 -147.5 -34t-113.5 -90t-78.5 -128.5t-47.5 -149.5t-15 -153q0 -233 230 -233q123 0 237 49l9 -125q-135 -55 -285 -55q-350 0 -350 329zM553 1235l256 301l98 -78 l-274 -287z" />
<glyph unicode="&#x108;" horiz-adv-x="1183" d="M115 457q0 96 14.5 190.5t45 187.5t75.5 176t110 154t143.5 122.5t180.5 80.5t217 29q166 0 332 -66l-53 -137q-146 70 -303 70q-116 0 -215.5 -45.5t-168 -122.5t-117.5 -177.5t-72 -210.5t-23 -223q0 -166 89 -264t283 -98q83 0 178 24.5t170 59.5l13 -135 q-210 -86 -402 -86q-114 0 -203 28.5t-143 74t-89 108.5t-48.5 126.5t-13.5 133.5zM600 1583l346 166l281 -168l-62 -92l-241 127l-293 -127z" />
<glyph unicode="&#x109;" horiz-adv-x="849" d="M74 315q0 146 39.5 275.5t111.5 228t182 156t242 57.5q113 0 228 -33l-39 -137q-101 43 -203 43q-80 0 -147.5 -34t-113.5 -90t-78.5 -128.5t-47.5 -149.5t-15 -153q0 -233 230 -233q123 0 237 49l9 -125q-135 -55 -285 -55q-350 0 -350 329zM381 1253l315 263l219 -265 l-81 -73l-162 176l-238 -176z" />
<glyph unicode="&#x10a;" horiz-adv-x="1183" d="M115 457q0 96 14.5 190.5t45 187.5t75.5 176t110 154t143.5 122.5t180.5 80.5t217 29q166 0 332 -66l-53 -137q-146 70 -303 70q-116 0 -215.5 -45.5t-168 -122.5t-117.5 -177.5t-72 -210.5t-23 -223q0 -166 89 -264t283 -98q83 0 178 24.5t170 59.5l13 -135 q-210 -86 -402 -86q-114 0 -203 28.5t-143 74t-89 108.5t-48.5 126.5t-13.5 133.5zM819 1595q0 46 31.5 78.5t73.5 32.5t70 -29t28 -69q0 -47 -30.5 -79t-73.5 -32q-42 0 -70.5 29t-28.5 69z" />
<glyph unicode="&#x10b;" horiz-adv-x="849" d="M74 315q0 146 39.5 275.5t111.5 228t182 156t242 57.5q113 0 228 -33l-39 -137q-101 43 -203 43q-80 0 -147.5 -34t-113.5 -90t-78.5 -128.5t-47.5 -149.5t-15 -153q0 -233 230 -233q123 0 237 49l9 -125q-135 -55 -285 -55q-350 0 -350 329zM563 1339q0 47 31 78t74 31 q42 0 70 -29t28 -69q0 -47 -30.5 -78t-73.5 -31q-42 0 -70.5 29t-28.5 69z" />
<glyph unicode="&#x10c;" horiz-adv-x="1183" d="M115 457q0 96 14.5 190.5t45 187.5t75.5 176t110 154t143.5 122.5t180.5 80.5t217 29q166 0 332 -66l-53 -137q-146 70 -303 70q-116 0 -215.5 -45.5t-168 -122.5t-117.5 -177.5t-72 -210.5t-23 -223q0 -166 89 -264t283 -98q83 0 178 24.5t170 59.5l13 -135 q-210 -86 -402 -86q-114 0 -203 28.5t-143 74t-89 108.5t-48.5 126.5t-13.5 133.5zM612 1659l60 90l241 -127l295 127l31 -92l-346 -168z" />
<glyph unicode="&#x10d;" horiz-adv-x="849" d="M74 315q0 146 39.5 275.5t111.5 228t182 156t242 57.5q113 0 228 -33l-39 -137q-101 43 -203 43q-80 0 -147.5 -34t-113.5 -90t-78.5 -128.5t-47.5 -149.5t-15 -153q0 -233 230 -233q123 0 237 49l9 -125q-135 -55 -285 -55q-350 0 -350 329zM422 1442l82 74l162 -177 l235 177l55 -78l-315 -260z" />
<glyph unicode="&#x10e;" horiz-adv-x="1370" d="M90 0l262 1382q49 0 182 3.5t201 3.5q129 0 230.5 -24.5t169 -68.5t111.5 -108t63.5 -138.5t19.5 -164.5q0 -138 -33.5 -266t-106 -242.5t-176.5 -199t-255 -134t-332 -49.5q-80 0 -188.5 3t-147.5 3zM268 137q96 -14 181 -14q149 0 271.5 43.5t203.5 116t136.5 169.5 t80 201.5t24.5 214.5q0 89 -22 157.5t-72.5 123.5t-141 84t-218.5 29q-37 0 -230 -7zM514 1659l59 90l242 -127l295 127l31 -92l-346 -168z" />
<glyph unicode="&#x10f;" horiz-adv-x="1144" d="M76 287q0 114 23 220t73 202.5t123 167.5t180 113t236 42q75 0 155 -12l68 352q-85 15 -172 21l18 88q155 21 328 14l-262 -1372q84 -15 170 -21l-17 -88q-157 -21 -327 -14q21 118 125 449l-4 2q-209 -471 -494 -471q-223 0 -223 307zM231 313q0 -202 115 -202 q75 0 156 71.5t145 178.5t111.5 225t66.5 217l17 88q-86 20 -158 20q-79 0 -147 -25.5t-116.5 -70t-85.5 -102.5t-59.5 -126t-33.5 -136.5t-11 -137.5zM1155 1200l180 348l123 -41l-205 -342z" />
<glyph unicode="&#x110;" horiz-adv-x="1386" d="M35 651l22 121h195l115 610q49 0 183 3.5t202 3.5q160 0 276.5 -37t184 -106t99 -158t31.5 -201q0 -139 -33.5 -267t-105.5 -242.5t-176 -199.5t-255.5 -134.5t-332.5 -49.5q-1 0 -334 6l123 651h-194zM285 137q96 -14 178 -14q149 0 271.5 43.5t203.5 115.5t137 169 t80.5 201.5t24.5 215.5q0 70 -13.5 127.5t-45.5 108t-83.5 85t-130.5 54t-182 19.5q-37 0 -229 -7l-93 -483h308l-23 -121h-307z" />
<glyph unicode="&#x111;" horiz-adv-x="1146" d="M76 287q0 114 23 220t73 202.5t123 167.5t180 113t236 42q53 0 155 -12l25 125h-277l21 110h276l27 136q-71 13 -172 20l14 80q171 22 330 16l-49 -252h147l-20 -110h-148l-194 -1022q84 -15 170 -21l-17 -88q-157 -21 -327 -14q21 118 125 449l-4 2q-209 -471 -494 -471 q-223 0 -223 307zM231 313q0 -202 115 -202q75 0 156 71.5t145 178.5t111.5 225t66.5 217l17 88q-86 20 -158 20q-79 0 -147 -25.5t-116.5 -70t-85.5 -102.5t-59.5 -126t-33.5 -136.5t-11 -137.5z" />
<glyph unicode="&#x112;" horiz-adv-x="1032" d="M90 0l262 1382h705l-25 -127h-551l-92 -479h506l-25 -127h-503l-101 -518h551l-22 -131h-705zM451 1538l22 111h539l-21 -111h-540z" />
<glyph unicode="&#x113;" horiz-adv-x="960" d="M74 307q0 144 38 275.5t107 232.5t174.5 161t231.5 60q144 0 215 -63.5t71 -161.5q0 -323 -667 -350q-13 -54 -13 -133q0 -128 51 -173.5t181 -45.5q146 0 280 59l9 -123q-148 -63 -342 -63q-172 0 -254 76.5t-82 248.5zM266 582q257 10 373.5 62t116.5 149q0 60 -41 91 t-111 31q-123 0 -211 -92.5t-127 -240.5zM389 1276l21 117h493l-22 -117h-492z" />
<glyph unicode="&#x114;" horiz-adv-x="1032" d="M90 0l262 1382h705l-25 -127h-551l-92 -479h506l-25 -127h-503l-101 -518h551l-22 -131h-705zM516 1739h100q-11 -55 21 -92t100 -37q69 0 115 34t59 95h105q-20 -102 -94.5 -170t-194.5 -68q-122 0 -176.5 69t-34.5 169z" />
<glyph unicode="&#x115;" horiz-adv-x="960" d="M74 307q0 144 38 275.5t107 232.5t174.5 161t231.5 60q144 0 215 -63.5t71 -161.5q0 -323 -667 -350q-13 -54 -13 -133q0 -128 51 -173.5t181 -45.5q146 0 280 59l9 -123q-148 -63 -342 -63q-172 0 -254 76.5t-82 248.5zM266 582q257 10 373.5 62t116.5 149q0 60 -41 91 t-111 31q-123 0 -211 -92.5t-127 -240.5zM434 1468h101q-11 -62 17 -102.5t91 -40.5t105.5 37.5t56.5 105.5h110q-20 -112 -94 -186t-194 -74t-167.5 75t-25.5 185z" />
<glyph unicode="&#x116;" horiz-adv-x="1032" d="M90 0l262 1382h705l-25 -127h-551l-92 -479h506l-25 -127h-503l-101 -518h551l-22 -131h-705zM635 1595q0 47 31 79t73 32t70.5 -29t28.5 -69q0 -47 -31 -79t-74 -32q-42 0 -70 29t-28 69z" />
<glyph unicode="&#x117;" horiz-adv-x="960" d="M74 307q0 144 38 275.5t107 232.5t174.5 161t231.5 60q144 0 215 -63.5t71 -161.5q0 -323 -667 -350q-13 -54 -13 -133q0 -128 51 -173.5t181 -45.5q146 0 280 59l9 -123q-148 -63 -342 -63q-172 0 -254 76.5t-82 248.5zM266 582q257 10 373.5 62t116.5 149q0 60 -41 91 t-111 31q-123 0 -211 -92.5t-127 -240.5zM547 1343q0 47 30.5 78t73.5 31q42 0 70.5 -29t28.5 -69q0 -47 -31 -78t-74 -31q-42 0 -70 29t-28 69z" />
<glyph unicode="&#x118;" horiz-adv-x="1032" d="M90 0l262 1382h705l-25 -127h-551l-92 -479h506l-25 -127h-503l-101 -518h551l-22 -123q-146 -82 -210.5 -162.5t-64.5 -144.5q0 -57 70 -57q64 0 141 53l39 -92q-111 -82 -219 -82q-86 0 -133 43t-47 106q0 86 61.5 172t173.5 156h-516z" />
<glyph unicode="&#x119;" horiz-adv-x="960" d="M74 307q0 144 38 275.5t107 232.5t174.5 161t231.5 60q144 0 215 -63.5t71 -161.5q0 -161 -168.5 -248.5t-498.5 -101.5q-13 -54 -13 -133q0 -128 51 -173.5t181 -45.5q146 0 280 59l9 -121q-161 -75 -251.5 -172.5t-90.5 -173.5q0 -57 69 -57q62 0 142 53l36 -92 q-108 -82 -217 -82q-86 0 -133 43t-47 106q0 85 58 168t155 144h-70q-165 0 -247 74.5t-82 248.5zM266 582q256 10 373 61.5t117 149.5q0 60 -41 91t-111 31q-123 0 -211 -92.5t-127 -240.5z" />
<glyph unicode="&#x11a;" horiz-adv-x="1032" d="M90 0l262 1382h705l-25 -127h-551l-92 -479h506l-25 -127h-503l-101 -518h551l-22 -131h-705zM426 1659l59 90l242 -127l295 127l31 -92l-346 -168z" />
<glyph unicode="&#x11b;" horiz-adv-x="960" d="M74 307q0 144 38 275.5t107 232.5t174.5 161t231.5 60q144 0 215 -63.5t71 -161.5q0 -323 -667 -350q-13 -54 -13 -133q0 -128 51 -173.5t181 -45.5q146 0 280 59l9 -123q-148 -63 -342 -63q-172 0 -254 76.5t-82 248.5zM266 582q257 10 373.5 62t116.5 149q0 60 -41 91 t-111 31q-123 0 -211 -92.5t-127 -240.5zM399 1442l82 74l162 -177l236 177l55 -78l-316 -260z" />
<glyph unicode="&#x11c;" horiz-adv-x="1374" d="M111 508q0 100 22.5 202t66.5 203t116 188.5t164 154.5t218 106t271 39q192 0 366 -58l-45 -143q-176 68 -342 68q-114 0 -213.5 -32.5t-172 -88.5t-128.5 -128.5t-90.5 -156.5t-52 -169.5t-17.5 -168.5q0 -192 104.5 -299.5t317.5 -107.5q150 0 287 43l102 536h154 l-121 -639q-213 -75 -448 -75q-278 0 -418.5 137.5t-140.5 388.5zM653 1583l346 166l281 -168l-61 -92l-242 127l-293 -127z" />
<glyph unicode="&#x11d;" horiz-adv-x="1097" d="M-25 -492l37 144q140 -45 273 -45q157 0 249 77.5t128 258.5q41 216 131 495l-5 2q-207 -460 -489 -460q-223 0 -223 307q0 114 23 220t73 202.5t123 167.5t180 113t236 42q146 0 303 -28l-213 -1108q-17 -91 -54 -164t-100.5 -132t-163.5 -91.5t-231 -32.5 q-149 0 -277 32zM231 313q0 -202 115 -202q75 0 156 71.5t145 178.5t111.5 225t66.5 217l17 88q-86 20 -158 20q-79 0 -147 -25.5t-116.5 -70t-85.5 -102.5t-59.5 -126t-33.5 -136.5t-11 -137.5zM424 1253l315 263l219 -265l-81 -73l-162 176l-238 -176z" />
<glyph unicode="&#x11e;" horiz-adv-x="1374" d="M111 508q0 100 22.5 202t66.5 203t116 188.5t164 154.5t218 106t271 39q192 0 366 -58l-45 -143q-176 68 -342 68q-114 0 -213.5 -32.5t-172 -88.5t-128.5 -128.5t-90.5 -156.5t-52 -169.5t-17.5 -168.5q0 -192 104.5 -299.5t317.5 -107.5q150 0 287 43l102 536h154 l-121 -639q-213 -75 -448 -75q-278 0 -418.5 137.5t-140.5 388.5zM758 1739h100q-11 -55 21 -92t100 -37q69 0 115 34t59 95h104q-20 -102 -94 -170t-194 -68q-122 0 -176.5 69t-34.5 169z" />
<glyph unicode="&#x11f;" horiz-adv-x="1097" d="M-25 -492l37 144q140 -45 273 -45q157 0 249 77.5t128 258.5q41 216 131 495l-5 2q-207 -460 -489 -460q-223 0 -223 307q0 114 23 220t73 202.5t123 167.5t180 113t236 42q146 0 303 -28l-213 -1108q-17 -91 -54 -164t-100.5 -132t-163.5 -91.5t-231 -32.5 q-149 0 -277 32zM231 313q0 -202 115 -202q75 0 156 71.5t145 178.5t111.5 225t66.5 217l17 88q-86 20 -158 20q-79 0 -147 -25.5t-116.5 -70t-85.5 -102.5t-59.5 -126t-33.5 -136.5t-11 -137.5zM489 1468h101q-11 -62 17 -102.5t91 -40.5t105.5 37.5t56.5 105.5h111 q-20 -112 -94.5 -186t-194.5 -74t-167.5 75t-25.5 185z" />
<glyph unicode="&#x120;" horiz-adv-x="1374" d="M111 508q0 100 22.5 202t66.5 203t116 188.5t164 154.5t218 106t271 39q192 0 366 -58l-45 -143q-176 68 -342 68q-114 0 -213.5 -32.5t-172 -88.5t-128.5 -128.5t-90.5 -156.5t-52 -169.5t-17.5 -168.5q0 -192 104.5 -299.5t317.5 -107.5q150 0 287 43l102 536h154 l-121 -639q-213 -75 -448 -75q-278 0 -418.5 137.5t-140.5 388.5zM868 1599q0 46 31.5 78.5t73.5 32.5t70 -29t28 -69q0 -47 -30.5 -79t-73.5 -32q-42 0 -70.5 29t-28.5 69z" />
<glyph unicode="&#x121;" horiz-adv-x="1097" d="M-25 -492l37 144q140 -45 273 -45q157 0 249 77.5t128 258.5q41 216 131 495l-5 2q-207 -460 -489 -460q-223 0 -223 307q0 114 23 220t73 202.5t123 167.5t180 113t236 42q146 0 303 -28l-213 -1108q-17 -91 -54 -164t-100.5 -132t-163.5 -91.5t-231 -32.5 q-149 0 -277 32zM231 313q0 -202 115 -202q75 0 156 71.5t145 178.5t111.5 225t66.5 217l17 88q-86 20 -158 20q-79 0 -147 -25.5t-116.5 -70t-85.5 -102.5t-59.5 -126t-33.5 -136.5t-11 -137.5zM618 1343q0 47 31 78t74 31q42 0 70 -29t28 -69q0 -47 -30.5 -78t-73.5 -31 q-42 0 -70.5 29t-28.5 69z" />
<glyph unicode="&#x122;" horiz-adv-x="1374" d="M111 508q0 100 22.5 202t66.5 203t116 188.5t164 154.5t218 106t271 39q192 0 366 -58l-45 -143q-176 68 -342 68q-114 0 -213.5 -32.5t-172 -88.5t-128.5 -128.5t-90.5 -156.5t-52 -169.5t-17.5 -168.5q0 -192 104.5 -299.5t317.5 -107.5q150 0 287 43l102 536h154 l-121 -639q-213 -75 -448 -75q-278 0 -418.5 137.5t-140.5 388.5zM412 -426q81 56 107.5 108.5t4.5 94.5q-19 45 6 83t76 38q54 0 79 -50q33 -65 -17 -152q-59 -102 -215 -185z" />
<glyph unicode="&#x123;" horiz-adv-x="1097" d="M-25 -492l37 144q140 -45 273 -45q157 0 249 77.5t128 258.5q41 216 131 495l-5 2q-207 -460 -489 -460q-223 0 -223 307q0 114 23 220t73 202.5t123 167.5t180 113t236 42q146 0 303 -28l-213 -1108q-17 -91 -54 -164t-100.5 -132t-163.5 -91.5t-231 -32.5 q-149 0 -277 32zM231 313q0 -202 115 -202q75 0 156 71.5t145 178.5t111.5 225t66.5 217l17 88q-86 20 -158 20q-79 0 -147 -25.5t-116.5 -70t-85.5 -102.5t-59.5 -126t-33.5 -136.5t-11 -137.5zM609 1210q-33 65 16 151q58 103 215 187l41 -63q-81 -54 -107.5 -106.5 t-5.5 -94.5q19 -45 -5.5 -84t-76.5 -39q-53 0 -77 49z" />
<glyph unicode="&#x124;" horiz-adv-x="1411" d="M90 0l262 1382h154l-115 -600h737l115 600h154l-264 -1382h-152l123 651h-735l-125 -651h-154zM600 1583l346 166l281 -168l-62 -92l-241 127l-293 -127z" />
<glyph unicode="&#x125;" horiz-adv-x="1173" d="M104 0l263 1372q-83 15 -172 21l16 88q159 21 330 14l-97 -496q-18 -117 -114 -415l4 -2q30 72 66 136t82.5 123.5t97.5 102.5t113 68.5t126 25.5q136 0 189 -91.5t22 -256.5l-133 -690h-149l124 655q25 131 1 191.5t-101 60.5q-60 0 -124.5 -47t-119.5 -122 t-103.5 -166.5t-81.5 -184t-48 -170.5l-39 -217h-152zM498 1651l346 166l280 -168l-61 -93l-242 127l-293 -127z" />
<glyph unicode="&#x126;" horiz-adv-x="1449" d="M111 0l192 1020h-160l23 127h162l45 235h153l-45 -235h738l45 235h153l-47 -235h162l-25 -127h-159l-195 -1020h-152l119 643h-737l-119 -643h-153zM408 768h737l49 252h-737z" />
<glyph unicode="&#x127;" horiz-adv-x="1179" d="M111 0l217 1143h-191l21 112h190l27 136q-73 13 -170 20l14 80q171 22 328 16l-47 -252h282l-20 -112h-285l-33 -166q-20 -120 -110 -393l4 -2q38 90 86.5 168.5t109 144.5t135.5 104.5t154 38.5q137 0 189.5 -91t21.5 -257l-131 -690h-151l127 655q25 130 0 191t-101 61 q-74 0 -155 -71t-145 -177.5t-111.5 -224.5t-65.5 -217l-41 -217h-149z" />
<glyph unicode="&#x128;" horiz-adv-x="520" d="M90 0l262 1382h154l-262 -1382h-154zM125 1587q86 144 221 144q45 0 85.5 -17.5t64.5 -38t54.5 -38t59.5 -17.5q69 0 135 94l76 -59q-86 -144 -219 -144q-45 0 -85.5 17.5t-64.5 38t-55 38t-61 17.5q-70 0 -133 -94z" />
<glyph unicode="&#x129;" horiz-adv-x="563" d="M135 0l172 895q-76 13 -172 20l17 89q158 21 329 14l-194 -1018h-152zM139 1305q74 145 189 145q31 0 63.5 -15.5t54 -33.5t45.5 -33.5t41 -15.5q48 0 101 86l76 -60q-72 -141 -191 -141q-39 0 -79 24t-72.5 48t-53.5 24q-58 0 -100 -86z" />
<glyph unicode="&#x12a;" horiz-adv-x="520" d="M90 0l262 1382h154l-262 -1382h-154zM188 1538l23 111h539l-21 -111h-541z" />
<glyph unicode="&#x12b;" horiz-adv-x="563" d="M135 0l172 895q-76 13 -172 20l17 89q158 21 329 14l-194 -1018h-152zM201 1276l22 117h461l-22 -117h-461z" />
<glyph unicode="&#x12c;" horiz-adv-x="520" d="M90 0l262 1382h154l-262 -1382h-154zM248 1739h100q-11 -55 21 -92t100 -37q69 0 115 34t59 95h105q-20 -102 -94.5 -170t-194.5 -68q-122 0 -176.5 69t-34.5 169z" />
<glyph unicode="&#x12d;" horiz-adv-x="563" d="M135 0l172 895q-76 13 -172 20l17 89q158 21 329 14l-194 -1018h-152zM240 1468h102q-11 -61 13 -102t81 -41q55 0 95.5 39t50.5 104h108q-23 -126 -92 -193t-176 -67q-108 0 -156.5 68t-25.5 192z" />
<glyph unicode="&#x12e;" horiz-adv-x="520" d="M-115 -328q0 86 52.5 172.5t154.5 163.5l260 1374h154l-262 -1382q-209 -157 -209 -299q0 -57 69 -57q64 0 144 53l37 -92q-111 -82 -217 -82q-88 0 -135.5 43t-47.5 106z" />
<glyph unicode="&#x12f;" horiz-adv-x="563" d="M-80 -328q0 78 54.5 167t162.5 169l170 887q-76 13 -172 20l17 89q158 21 329 14l-196 -1018q-114 -87 -164.5 -167.5t-50.5 -131.5q0 -57 67 -57q64 0 144 53l36 -92q-108 -82 -217 -82q-86 0 -133 43t-47 106zM356 1333q0 51 33.5 84t77.5 33q42 0 70 -28t28 -66 q0 -50 -33 -82.5t-79 -32.5q-41 0 -69 27.5t-28 64.5z" />
<glyph unicode="&#x130;" horiz-adv-x="520" d="M90 0l262 1382h154l-262 -1382h-154zM371 1595q0 47 31 79t73 32t70 -29t28 -69q0 -47 -30.5 -79t-73.5 -32q-42 0 -70 29t-28 69z" />
<glyph unicode="&#x131;" horiz-adv-x="563" d="M135 0l172 895q-76 13 -172 20l17 89q158 21 329 14l-194 -1018h-152z" />
<glyph unicode="&#x132;" horiz-adv-x="1191" d="M90 0l262 1382h154l-262 -1382h-154zM410 2l24 141q74 -24 154 -24q97 0 159.5 56.5t90.5 195.5l190 1011h152l-197 -1034q-36 -183 -135 -272.5t-275 -89.5q-85 0 -163 16z" />
<glyph unicode="&#x133;" horiz-adv-x="1130" d="M135 0l172 895q-76 13 -172 20l17 89q158 21 329 14l-194 -1018h-152zM299 -510l31 135q56 -20 119 -20q107 0 154.5 62t80.5 231l193 997q-76 13 -172 20l16 89q159 21 330 14l-224 -1161q-38 -199 -128 -291t-269 -92q-61 0 -131 16zM356 1333q0 51 33.5 84t77.5 33 q42 0 70 -28t28 -66q0 -50 -33 -82.5t-79 -32.5q-41 0 -69 27.5t-28 64.5zM926 1333q0 51 33 84t79 33q40 0 68.5 -28t28.5 -66q0 -50 -33.5 -82.5t-79.5 -32.5q-41 0 -68.5 27.5t-27.5 64.5z" />
<glyph unicode="&#x134;" horiz-adv-x="692" d="M-92 2l24 141q74 -24 154 -24q97 0 159.5 56.5t90.5 195.5l190 1011h152l-197 -1034q-36 -183 -134.5 -272.5t-274.5 -89.5q-86 0 -164 16zM317 1583l347 166l280 -168l-61 -92l-242 127l-293 -127z" />
<glyph unicode="&#x135;" horiz-adv-x="569" d="M-264 -510l31 135q56 -20 118 -20q107 0 155 62t81 231l192 997q-76 13 -172 20l17 89q159 21 329 14l-223 -1161q-38 -199 -128 -291t-269 -92q-61 0 -131 16zM195 1251l292 262l193 -264l-84 -71l-137 176l-211 -176z" />
<glyph unicode="&#x136;" horiz-adv-x="1163" d="M90 0l262 1382h154l-125 -657l698 657h199l-735 -673l483 -709h-199l-452 696l-131 -696h-154zM272 -426q81 56 107.5 108.5t5.5 94.5q-19 45 6 83t76 38q54 0 79 -50q32 -66 -19 -153q-59 -101 -214 -184z" />
<glyph unicode="&#x137;" horiz-adv-x="985" d="M104 0l263 1372q-83 15 -172 21l16 88q159 21 330 14l-174 -915l495 485l107 -92l-449 -410l324 -563h-185l-299 551l-104 -551h-152zM193 -426q81 56 107.5 108.5t4.5 94.5q-19 45 6 83t76 38q54 0 79 -50q32 -66 -19 -153q-59 -101 -214 -184z" />
<glyph unicode="&#x138;" horiz-adv-x="1013" d="M133 915l17 89q191 24 329 14l-84 -449l504 496l107 -92l-457 -420l319 -553h-186l-293 541l-102 -541h-152l170 895q-82 14 -172 20z" />
<glyph unicode="&#x139;" horiz-adv-x="854" d="M90 0l262 1382h154l-238 -1251h502l-22 -131h-658zM494 1587l372 148l27 -127l-381 -115z" />
<glyph unicode="&#x13a;" horiz-adv-x="532" d="M106 0l261 1372q-84 15 -170 21l16 88q158 21 328 14l-285 -1495h-150zM401 1710l373 148l27 -127l-381 -115z" />
<glyph unicode="&#x13b;" horiz-adv-x="854" d="M90 0l262 1382h154l-238 -1251h502l-22 -131h-658zM193 -426q81 56 107.5 108.5t4.5 94.5q-19 45 6 83t76 38q54 0 79 -50q32 -66 -19 -153q-59 -101 -214 -184z" />
<glyph unicode="&#x13c;" horiz-adv-x="532" d="M-45 -426q81 56 107.5 108.5t5.5 94.5q-19 45 6 83t76 38q54 0 79 -50q32 -66 -19 -153q-59 -101 -214 -184zM106 0l261 1372q-84 15 -170 21l16 88q158 21 328 14l-285 -1495h-150z" />
<glyph unicode="&#x13d;" horiz-adv-x="858" d="M90 0l262 1382h154l-238 -1251h502l-22 -131h-658zM623 1200l180 348l123 -41l-205 -342z" />
<glyph unicode="&#x13e;" horiz-adv-x="561" d="M106 0l261 1372q-84 15 -170 21l16 88q158 21 328 14l-285 -1495h-150zM575 1200l181 348l123 -41l-205 -342z" />
<glyph unicode="&#x13f;" horiz-adv-x="1095" d="M90 0l262 1382h154l-238 -1251h502l-22 -131h-658zM776 707q0 51 34.5 85.5t84.5 34.5q45 0 77 -33t32 -79q0 -50 -35.5 -85.5t-83.5 -35.5q-45 0 -77 33.5t-32 79.5z" />
<glyph unicode="&#x140;" horiz-adv-x="940" d="M106 0l261 1372q-84 15 -170 21l16 88q158 21 328 14l-285 -1495h-150zM627 604q0 51 34 86t84 35q45 0 77 -33.5t32 -79.5q0 -50 -35.5 -85t-83.5 -35q-45 0 -76.5 33t-31.5 79z" />
<glyph unicode="&#x141;" horiz-adv-x="870" d="M51 784l221 95l95 503h153l-80 -432l248 107l19 -121l-293 -123l-129 -682h501l-24 -131h-658l142 741l-178 -77z" />
<glyph unicode="&#x142;" horiz-adv-x="581" d="M106 803l195 102l90 467q-84 15 -170 21l15 88q158 21 327 14l-96 -504l164 86l20 -108l-209 -111l-161 -858h-150l145 774l-147 -80z" />
<glyph unicode="&#x143;" horiz-adv-x="1380" d="M90 0l262 1382h180l351 -804q80 -183 129 -338h2q49 340 135 790l68 352h149l-262 -1382h-146l-368 852q-80 180 -135 352h-2q-44 -308 -140 -815l-73 -389h-150zM825 1587l373 148l27 -127l-381 -115z" />
<glyph unicode="&#x144;" horiz-adv-x="1204" d="M135 0l172 895q-76 13 -172 20l17 89q159 21 329 14q-29 -144 -123 -434l4 -2q39 91 87.5 169t109.5 144.5t136 104.5t155 38q136 0 189 -91.5t20 -256.5l-129 -690h-152l125 655q25 131 1 191.5t-101 60.5q-60 0 -124.5 -47t-119.5 -122t-103.5 -166.5t-81.5 -184 t-48 -170.5l-39 -217h-152zM688 1251l293 279l84 -100l-311 -256z" />
<glyph unicode="&#x145;" horiz-adv-x="1380" d="M90 0l262 1382h180l351 -804q80 -183 129 -338h2q49 340 135 790l68 352h149l-262 -1382h-146l-368 852q-80 180 -135 352h-2q-44 -308 -140 -815l-73 -389h-150zM373 -426q81 56 107.5 108.5t4.5 94.5q-19 45 6 83t76 38q54 0 79 -50q33 -65 -17 -152 q-59 -102 -215 -185z" />
<glyph unicode="&#x146;" horiz-adv-x="1204" d="M135 0l172 895q-76 13 -172 20l17 89q159 21 329 14q-29 -144 -123 -434l4 -2q39 91 87.5 169t109.5 144.5t136 104.5t155 38q136 0 189 -91.5t20 -256.5l-129 -690h-152l125 655q25 131 1 191.5t-101 60.5q-60 0 -124.5 -47t-119.5 -122t-103.5 -166.5t-81.5 -184 t-48 -170.5l-39 -217h-152zM301 -426q81 56 107.5 108.5t5.5 94.5q-19 45 6 83t76 38q54 0 79 -50q32 -66 -19 -153q-59 -101 -214 -184z" />
<glyph unicode="&#x147;" horiz-adv-x="1380" d="M90 0l262 1382h180l351 -804q80 -183 129 -338h2q49 340 135 790l68 352h149l-262 -1382h-146l-368 852q-80 180 -135 352h-2q-44 -308 -140 -815l-73 -389h-150zM612 1659l60 90l241 -127l295 127l31 -92l-346 -168z" />
<glyph unicode="&#x148;" horiz-adv-x="1204" d="M135 0l172 895q-76 13 -172 20l17 89q159 21 329 14q-29 -144 -123 -434l4 -2q39 91 87.5 169t109.5 144.5t136 104.5t155 38q136 0 189 -91.5t20 -256.5l-129 -690h-152l125 655q25 131 1 191.5t-101 60.5q-60 0 -124.5 -47t-119.5 -122t-103.5 -166.5t-81.5 -184 t-48 -170.5l-39 -217h-152zM520 1442l82 74l162 -177l235 177l56 -78l-316 -260z" />
<glyph unicode="&#x149;" horiz-adv-x="1398" d="M156 1098q149 134 149 229q0 13 -10 39t-10 51q0 44 26.5 72.5t71.5 28.5q41 0 65.5 -30.5t24.5 -74.5q0 -76 -65.5 -173t-196.5 -204zM328 0l172 895q-76 13 -172 20l16 89q159 21 330 14q-29 -144 -123 -434l4 -2q39 91 87.5 168.5t109 144.5t135.5 105t155 38 q136 0 189 -91.5t20 -256.5l-129 -690h-151l125 655q25 131 0.5 191.5t-101.5 60.5q-60 0 -124.5 -47t-119.5 -122t-103.5 -166.5t-81.5 -184t-48 -170.5l-39 -217h-151z" />
<glyph unicode="&#x14a;" horiz-adv-x="1380" d="M90 0l262 1382h180l351 -804q80 -183 129 -338h2q49 340 135 790l68 352h149l-260 -1368q-26 -141 -69 -238.5t-106 -157.5t-134.5 -92t-171.5 -52l-11 120q56 11 96.5 27t80.5 46t68.5 74t53 111.5t41.5 159.5l-364 840q-80 180 -135 352h-2q-44 -308 -140 -815 l-73 -389h-150z" />
<glyph unicode="&#x14b;" horiz-adv-x="1206" d="M135 0l172 895q-85 14 -172 20l17 89q158 21 329 14q-29 -144 -123 -434l4 -2q39 90 87.5 168.5t108 144.5t131 104.5t145.5 38.5q109 0 166 -68t57 -229q0 -109 -45 -360q-32 -166 -62 -281.5t-59.5 -185t-53.5 -106t-57 -70.5q-60 -59 -128 -91.5t-163 -56.5l-20 121 q69 16 117.5 39t89.5 64q33 33 54.5 74t53.5 154.5t72 315.5q49 249 49 357q0 105 -28 148.5t-84 43.5q-71 0 -149.5 -71t-141 -177.5t-110 -224.5t-66.5 -217l-39 -217h-152z" />
<glyph unicode="&#x14c;" horiz-adv-x="1421" d="M111 483q0 182 56 348.5t155.5 293t247 201.5t319.5 75q123 0 219 -37t156 -104.5t91 -158.5t31 -202q0 -182 -56.5 -348.5t-156 -292.5t-247 -201t-318.5 -75q-245 0 -371 136t-126 365zM274 510q0 -181 90.5 -287t274.5 -106q124 0 233 59.5t185.5 161t121 240.5 t44.5 294q0 181 -91.5 287.5t-273.5 106.5q-124 0 -233.5 -59.5t-186 -161.5t-120.5 -241t-44 -294zM641 1538l23 111h538l-20 -111h-541z" />
<glyph unicode="&#x14d;" horiz-adv-x="1087" d="M72 344q0 103 23.5 202.5t72 188t116.5 155.5t164 106.5t207 39.5q179 0 273 -99t94 -263q0 -103 -23.5 -202.5t-72 -188t-117 -155.5t-164.5 -106.5t-207 -39.5q-179 0 -272.5 99t-93.5 263zM231 365q0 -113 58 -183.5t176 -70.5q98 0 177 50t125 130.5t70.5 173.5 t24.5 188q0 114 -57.5 185t-175.5 71q-79 0 -146 -33t-112.5 -88t-78 -126t-47 -146.5t-14.5 -150.5zM455 1276l20 117h494l-23 -117h-491z" />
<glyph unicode="&#x14e;" horiz-adv-x="1421" d="M111 483q0 182 56 348.5t155.5 293t247 201.5t319.5 75q123 0 219 -37t156 -104.5t91 -158.5t31 -202q0 -182 -56.5 -348.5t-156 -292.5t-247 -201t-318.5 -75q-245 0 -371 136t-126 365zM274 510q0 -181 90.5 -287t274.5 -106q124 0 233 59.5t185.5 161t121 240.5 t44.5 294q0 181 -91.5 287.5t-273.5 106.5q-124 0 -233.5 -59.5t-186 -161.5t-120.5 -241t-44 -294zM698 1739h101q-11 -55 21 -92t100 -37q69 0 115 34t59 95h104q-20 -102 -94.5 -170t-194.5 -68q-122 0 -176.5 69t-34.5 169z" />
<glyph unicode="&#x14f;" horiz-adv-x="1087" d="M72 344q0 103 23.5 202.5t72 188t116.5 155.5t164 106.5t207 39.5q179 0 273 -99t94 -263q0 -103 -23.5 -202.5t-72 -188t-117 -155.5t-164.5 -106.5t-207 -39.5q-179 0 -272.5 99t-93.5 263zM231 365q0 -113 58 -183.5t176 -70.5q98 0 177 50t125 130.5t70.5 173.5 t24.5 188q0 114 -57.5 185t-175.5 71q-79 0 -146 -33t-112.5 -88t-78 -126t-47 -146.5t-14.5 -150.5zM489 1468h101q-11 -62 17 -102.5t91 -40.5t105.5 37.5t56.5 105.5h111q-20 -112 -94.5 -186t-194.5 -74t-167.5 75t-25.5 185z" />
<glyph unicode="&#x150;" horiz-adv-x="1421" d="M111 483q0 182 56 348.5t155.5 293t247 201.5t319.5 75q123 0 219 -37t156 -104.5t91 -158.5t31 -202q0 -182 -56.5 -348.5t-156 -292.5t-247 -201t-318.5 -75q-245 0 -371 136t-126 365zM274 510q0 -181 90.5 -287t274.5 -106q124 0 233 59.5t185.5 161t121 240.5 t44.5 294q0 181 -91.5 287.5t-273.5 106.5q-124 0 -233.5 -59.5t-186 -161.5t-120.5 -241t-44 -294zM682 1567l260 248l80 -95l-277 -229zM1024 1567l293 243l78 -96l-310 -223z" />
<glyph unicode="&#x151;" horiz-adv-x="1087" d="M72 344q0 103 23.5 202.5t72 188t116.5 155.5t164 106.5t207 39.5q179 0 273 -99t94 -263q0 -103 -23.5 -202.5t-72 -188t-117 -155.5t-164.5 -106.5t-207 -39.5q-179 0 -272.5 99t-93.5 263zM231 365q0 -113 58 -183.5t176 -70.5q98 0 177 50t125 130.5t70.5 173.5 t24.5 188q0 114 -57.5 185t-175.5 71q-79 0 -146 -33t-112.5 -88t-78 -126t-47 -146.5t-14.5 -150.5zM471 1247l270 275l90 -88l-286 -256zM807 1247l287 264l86 -92l-299 -241z" />
<glyph unicode="&#x152;" horiz-adv-x="1755" d="M111 483q0 182 56 348.5t155.5 293t247 201.5t319.5 75q110 0 221 -19h666l-25 -127h-528l-93 -479h504l-24 -127h-504l-98 -518h528l-25 -131h-667q-120 -18 -236 -18q-245 0 -371 136t-126 365zM274 510q0 -181 90.5 -287t274.5 -106q112 0 217 24l211 1096 q-92 29 -209 29q-124 0 -233.5 -59.5t-186 -161.5t-120.5 -241t-44 -294z" />
<glyph unicode="&#x153;" horiz-adv-x="1714" d="M72 344q0 103 23.5 202.5t72 188t116.5 155.5t164 106.5t207 39.5q131 0 215 -57.5t117 -161.5q63 102 165 160.5t226 58.5q144 0 215.5 -63.5t71.5 -161.5q0 -159 -166.5 -248t-501.5 -102q-12 -66 -12 -133q0 -128 51 -173.5t183 -45.5q146 0 280 59l8 -123 q-151 -63 -344 -63q-138 0 -215 49.5t-98 161.5q-71 -103 -176.5 -157t-235.5 -54q-179 0 -272.5 99t-93.5 263zM231 365q0 -113 58 -183.5t176 -70.5q98 0 177 50t125 130.5t70.5 173.5t24.5 188q0 114 -57.5 185t-175.5 71q-79 0 -146 -33t-112.5 -88t-78 -126t-47 -146.5 t-14.5 -150.5zM1020 582q257 10 373 62t116 149q0 60 -40.5 91t-108.5 31q-125 0 -213 -92.5t-127 -240.5z" />
<glyph unicode="&#x154;" horiz-adv-x="1132" d="M90 0l262 1380q166 9 324 9q196 0 305 -77t109 -218q0 -81 -28 -157t-81.5 -141t-143 -110.5t-202.5 -58.5q41 -68 82 -144l262 -483h-188l-322 614h-111l-114 -614h-154zM383 735q74 -2 156 -2q84 0 151.5 20.5t110.5 54t72 77.5t41 89t12 91q0 93 -68.5 146t-208.5 53 q-36 0 -78.5 -2t-66.5 -4l-25 -1zM623 1587l372 148l27 -127l-381 -115z" />
<glyph unicode="&#x155;" horiz-adv-x="776" d="M135 0l172 895q-76 13 -172 20l17 89q160 21 327 14q-23 -133 -114 -404h4q41 89 73 149.5t77 123t89 96t102 49.5t124 2l-29 -151q-62 23 -127.5 -12.5t-119.5 -108t-101.5 -167t-79.5 -188.5t-47 -174l-43 -233h-152zM520 1251l293 279l84 -100l-311 -256z" />
<glyph unicode="&#x156;" horiz-adv-x="1132" d="M90 0l262 1380q166 9 324 9q196 0 305 -77t109 -218q0 -81 -28 -157t-81.5 -141t-143 -110.5t-202.5 -58.5q41 -68 82 -144l262 -483h-188l-322 614h-111l-114 -614h-154zM246 -426q81 56 107.5 108.5t4.5 94.5q-19 45 6 83t76 38q54 0 79 -50q33 -65 -17 -152 q-59 -102 -215 -185zM383 735q74 -2 156 -2q84 0 151.5 20.5t110.5 54t72 77.5t41 89t12 91q0 93 -68.5 146t-208.5 53q-36 0 -78.5 -2t-66.5 -4l-25 -1z" />
<glyph unicode="&#x157;" horiz-adv-x="776" d="M-16 -426q81 56 107.5 108.5t4.5 94.5q-19 45 6 83t76 38q54 0 79 -50q33 -65 -17 -152q-59 -102 -215 -185zM135 0l172 895q-76 13 -172 20l17 89q160 21 327 14q-23 -133 -114 -404h4q41 89 73 149.5t77 123t89 96t102 49.5t124 2l-29 -151q-62 23 -127.5 -12.5 t-119.5 -108t-101.5 -167t-79.5 -188.5t-47 -174l-43 -233h-152z" />
<glyph unicode="&#x158;" horiz-adv-x="1132" d="M90 0l262 1380q166 9 324 9q196 0 305 -77t109 -218q0 -81 -28 -157t-81.5 -141t-143 -110.5t-202.5 -58.5q41 -68 82 -144l262 -483h-188l-322 614h-111l-114 -614h-154zM383 735q74 -2 156 -2q84 0 151.5 20.5t110.5 54t72 77.5t41 89t12 91q0 93 -68.5 146t-208.5 53 q-36 0 -78.5 -2t-66.5 -4l-25 -1zM424 1659l59 90l242 -127l295 127l31 -92l-346 -168z" />
<glyph unicode="&#x159;" horiz-adv-x="776" d="M135 0l172 895q-76 13 -172 20l17 89q160 21 327 14q-23 -133 -114 -404h4q41 89 73 149.5t77 123t89 96t102 49.5t124 2l-29 -151q-62 23 -127.5 -12.5t-119.5 -108t-101.5 -167t-79.5 -188.5t-47 -174l-43 -233h-152zM346 1442l82 74l162 -177l235 177l56 -78 l-316 -260z" />
<glyph unicode="&#x15a;" horiz-adv-x="1011" d="M29 23l45 149q128 -53 297 -53q165 0 256.5 78t91.5 196q0 56 -28 102.5t-72 79t-98 63.5t-108 65.5t-98 74t-72 99.5t-28 133q0 77 33.5 147t95.5 124.5t159.5 87t217.5 32.5q124 0 256 -27l-39 -141q-116 37 -242 37q-158 0 -240.5 -71.5t-82.5 -172.5q0 -54 28 -98 t72.5 -76t98.5 -62t108 -64.5t98.5 -75t72.5 -102.5t28 -138q0 -83 -35 -159.5t-100 -136.5t-168.5 -96t-231.5 -36q-181 0 -315 41zM631 1587l373 148l26 -127l-381 -115z" />
<glyph unicode="&#x15b;" horiz-adv-x="804" d="M20 4l33 139q100 -34 209 -34q114 0 177 45.5t63 130.5q0 41 -25.5 78t-63.5 63.5t-83 59.5t-83 65t-63.5 81.5t-25.5 108.5q0 123 105.5 209t285.5 86q83 0 184 -16l-28 -129q-98 24 -170 24q-105 0 -162.5 -43.5t-57.5 -115.5q0 -49 35.5 -91.5t86 -77t101 -72 t86 -93.5t35.5 -125q0 -133 -108.5 -224t-314.5 -91q-120 0 -216 22zM424 1251l293 279l84 -100l-312 -256z" />
<glyph unicode="&#x15c;" horiz-adv-x="1011" d="M29 23l45 149q128 -53 297 -53q165 0 256.5 78t91.5 196q0 56 -28 102.5t-72 79t-98 63.5t-108 65.5t-98 74t-72 99.5t-28 133q0 77 33.5 147t95.5 124.5t159.5 87t217.5 32.5q124 0 256 -27l-39 -141q-116 37 -242 37q-158 0 -240.5 -71.5t-82.5 -172.5q0 -54 28 -98 t72.5 -76t98.5 -62t108 -64.5t98.5 -75t72.5 -102.5t28 -138q0 -83 -35 -159.5t-100 -136.5t-168.5 -96t-231.5 -36q-181 0 -315 41zM414 1583l346 166l280 -168l-61 -92l-242 127l-293 -127z" />
<glyph unicode="&#x15d;" horiz-adv-x="804" d="M20 4l33 139q100 -34 209 -34q114 0 177 45.5t63 130.5q0 41 -25.5 78t-63.5 63.5t-83 59.5t-83 65t-63.5 81.5t-25.5 108.5q0 123 105.5 209t285.5 86q83 0 184 -16l-28 -129q-98 24 -170 24q-105 0 -162.5 -43.5t-57.5 -115.5q0 -49 35.5 -91.5t86 -77t101 -72 t86 -93.5t35.5 -125q0 -133 -108.5 -224t-314.5 -91q-120 0 -216 22zM260 1253l315 263l220 -265l-82 -73l-162 176l-238 -176z" />
<glyph unicode="&#x15e;" horiz-adv-x="1011" d="M29 23l45 149q128 -53 297 -53q165 0 256.5 78t91.5 196q0 56 -28 102.5t-72 79t-98 63.5t-108 65.5t-98 74t-72 99.5t-28 133q0 77 33.5 147t95.5 124.5t159.5 87t217.5 32.5q124 0 256 -27l-39 -141q-116 37 -242 37q-158 0 -240.5 -71.5t-82.5 -172.5q0 -54 28 -98 t72.5 -76t98.5 -62t108 -64.5t98.5 -75t72.5 -102.5t28 -138q0 -83 -35 -159.5t-100 -136.5t-168.5 -96t-231.5 -36q-181 0 -315 41zM180 -481q67 72 97.5 125t30.5 107t-38 112l142 53q39 -65 38.5 -131.5t-33.5 -129.5t-98 -136h-139z" />
<glyph unicode="&#x15f;" horiz-adv-x="804" d="M20 4l33 139q100 -34 209 -34q114 0 177 45.5t63 130.5q0 41 -25.5 78t-63.5 63.5t-83 59.5t-83 65t-63.5 81.5t-25.5 108.5q0 123 105.5 209t285.5 86q83 0 184 -16l-28 -129q-98 24 -170 24q-105 0 -162.5 -43.5t-57.5 -115.5q0 -49 35.5 -91.5t86 -77t101 -72 t86 -93.5t35.5 -125q0 -133 -108.5 -224t-314.5 -91q-120 0 -216 22zM76 -481q67 72 97.5 125t30.5 107t-38 112l141 53q39 -65 39 -131.5t-33 -130t-98 -135.5h-139z" />
<glyph unicode="&#x160;" horiz-adv-x="1011" d="M29 23l45 149q128 -53 297 -53q165 0 256.5 78t91.5 196q0 56 -28 102.5t-72 79t-98 63.5t-108 65.5t-98 74t-72 99.5t-28 133q0 77 33.5 147t95.5 124.5t159.5 87t217.5 32.5q124 0 256 -27l-39 -141q-116 37 -242 37q-158 0 -240.5 -71.5t-82.5 -172.5q0 -54 28 -98 t72.5 -76t98.5 -62t108 -64.5t98.5 -75t72.5 -102.5t28 -138q0 -83 -35 -159.5t-100 -136.5t-168.5 -96t-231.5 -36q-181 0 -315 41zM416 1659l59 90l242 -127l295 127l30 -92l-346 -168z" />
<glyph unicode="&#x161;" horiz-adv-x="804" d="M20 4l33 139q100 -34 209 -34q114 0 177 45.5t63 130.5q0 41 -25.5 78t-63.5 63.5t-83 59.5t-83 65t-63.5 81.5t-25.5 108.5q0 123 105.5 209t285.5 86q83 0 184 -16l-28 -129q-98 24 -170 24q-105 0 -162.5 -43.5t-57.5 -115.5q0 -49 35.5 -91.5t86 -77t101 -72 t86 -93.5t35.5 -125q0 -133 -108.5 -224t-314.5 -91q-120 0 -216 22zM303 1442l82 74l162 -177l235 177l56 -78l-316 -260z" />
<glyph unicode="&#x162;" horiz-adv-x="1042" d="M180 1251l27 131h964l-24 -131h-406l-237 -1251h-154l238 1251h-408zM227 -481q67 72 97.5 125t30.5 107t-38 112l142 53q39 -65 39 -131.5t-33 -130t-98 -135.5h-140z" />
<glyph unicode="&#x163;" horiz-adv-x="743" d="M90 897l23 121h213l63 338l158 37l-70 -375h289l-21 -121h-292l-107 -567q-23 -123 -2.5 -168t100.5 -45t146 16l-6 -129q-95 -20 -183 -20q-151 0 -198.5 75t-14.5 246l115 592h-213zM141 -481q67 72 97.5 125t30.5 107t-38 112l142 53q39 -65 39 -131.5t-33 -130 t-98 -135.5h-140z" />
<glyph unicode="&#x164;" horiz-adv-x="1042" d="M180 1251l27 131h964l-24 -131h-406l-237 -1251h-154l238 1251h-408zM420 1659l59 90l242 -127l295 127l31 -92l-347 -168z" />
<glyph unicode="&#x165;" horiz-adv-x="749" d="M90 897l23 121h213l63 338l158 37l-70 -375h289l-21 -121h-292l-107 -567q-23 -123 -2.5 -168t100.5 -45t146 16l-6 -129q-95 -20 -183 -20q-151 0 -198.5 75t-14.5 246l115 592h-213zM631 1200l180 348l123 -41l-205 -342z" />
<glyph unicode="&#x166;" horiz-adv-x="1042" d="M180 1251l27 131h964l-24 -131h-406l-92 -483h240l-23 -125h-241l-121 -643h-154l121 643h-240l21 125h244l92 483h-408z" />
<glyph unicode="&#x167;" horiz-adv-x="800" d="M39 471l20 115h199l59 315h-211l23 117h211l63 338l158 37l-69 -375h290l-20 -117h-293l-61 -315h270l-21 -115h-272l-27 -145q-22 -120 0 -165.5t101 -45.5q71 0 145 18l-6 -129q-95 -20 -182 -20q-151 0 -198.5 75.5t-14.5 247.5l33 164h-197z" />
<glyph unicode="&#x168;" horiz-adv-x="1398" d="M162.5 316q1.5 73 15.5 155l174 911h154l-176 -913q-35 -181 29.5 -269.5t256.5 -88.5q194 0 303.5 94.5t151.5 318.5l164 858h149l-165 -876q-51 -266 -206.5 -395t-416.5 -129q-117 0 -202.5 24.5t-133 69t-73.5 106t-24.5 134.5zM563 1587q86 144 221 144 q45 0 85.5 -17.5t64.5 -38t55 -38t60 -17.5q69 0 135 94l76 -59q-86 -144 -220 -144q-45 0 -85.5 17.5t-64.5 38t-55 38t-61 17.5q-70 0 -133 -94z" />
<glyph unicode="&#x169;" horiz-adv-x="1228" d="M129 915l16 89q162 21 330 14l-127 -656q-25 -130 0 -190.5t101 -60.5q74 0 155 71t145 177.5t111.5 224.5t65.5 217l41 217h149l-172 -895q83 -15 172 -21l-18 -88q-154 -21 -326 -14q32 160 121 434l-4 2q-38 -90 -86.5 -168.5t-109.5 -144.5t-136 -104.5t-154 -38.5 q-137 0 -189 91t-21 257l108 567q-76 13 -172 20zM434 1309q40 72 95.5 110.5t119.5 38.5q44 0 83 -18t62 -39.5t53 -39.5t58 -18q67 0 127 97l80 -64q-40 -70 -97 -108.5t-122 -38.5q-43 0 -81 18t-60.5 39t-51.5 39t-57 18q-67 0 -131 -98z" />
<glyph unicode="&#x16a;" horiz-adv-x="1398" d="M162.5 316q1.5 73 15.5 155l174 911h154l-176 -913q-35 -181 29.5 -269.5t256.5 -88.5q194 0 303.5 94.5t151.5 318.5l164 858h149l-165 -876q-51 -266 -206.5 -395t-416.5 -129q-117 0 -202.5 24.5t-133 69t-73.5 106t-24.5 134.5zM629 1538l22 111h539l-21 -111h-540z " />
<glyph unicode="&#x16b;" horiz-adv-x="1228" d="M129 915l16 89q162 21 330 14l-127 -656q-25 -130 0 -190.5t101 -60.5q74 0 155 71t145 177.5t111.5 224.5t65.5 217l41 217h149l-172 -895q83 -15 172 -21l-18 -88q-154 -21 -326 -14q32 160 121 434l-4 2q-38 -90 -86.5 -168.5t-109.5 -144.5t-136 -104.5t-154 -38.5 q-137 0 -189 91t-21 257l108 567q-76 13 -172 20zM504 1276l20 117h494l-23 -117h-491z" />
<glyph unicode="&#x16c;" horiz-adv-x="1398" d="M162.5 316q1.5 73 15.5 155l174 911h154l-176 -913q-35 -181 29.5 -269.5t256.5 -88.5q194 0 303.5 94.5t151.5 318.5l164 858h149l-165 -876q-51 -266 -206.5 -395t-416.5 -129q-117 0 -202.5 24.5t-133 69t-73.5 106t-24.5 134.5zM688 1739h100q-11 -55 21 -92t100 -37 q69 0 115 34t59 95h105q-20 -102 -94.5 -170t-194.5 -68q-122 0 -176.5 69t-34.5 169z" />
<glyph unicode="&#x16d;" horiz-adv-x="1228" d="M129 915l16 89q162 21 330 14l-127 -656q-25 -130 0 -190.5t101 -60.5q74 0 155 71t145 177.5t111.5 224.5t65.5 217l41 217h149l-172 -895q83 -15 172 -21l-18 -88q-154 -21 -326 -14q32 160 121 434l-4 2q-38 -90 -86.5 -168.5t-109.5 -144.5t-136 -104.5t-154 -38.5 q-137 0 -189 91t-21 257l108 567q-76 13 -172 20zM559 1468h100q-11 -61 17 -102t92 -41q63 0 105.5 37.5t56.5 105.5h110q-20 -112 -94 -186t-194 -74t-167.5 75t-25.5 185z" />
<glyph unicode="&#x16e;" horiz-adv-x="1398" d="M162.5 316q1.5 73 15.5 155l174 911h154l-176 -913q-35 -181 29.5 -269.5t256.5 -88.5q194 0 303.5 94.5t151.5 318.5l164 858h149l-165 -876q-51 -266 -206.5 -395t-416.5 -129q-117 0 -202.5 24.5t-133 69t-73.5 106t-24.5 134.5zM688 1587q0 112 72.5 184t189.5 72 q86 0 137.5 -44.5t51.5 -121.5q0 -110 -72.5 -183t-189.5 -73q-85 0 -137 45t-52 121zM807 1604q0 -42 23 -65t63 -23q58 0 92.5 41.5t34.5 105.5q0 42 -22 65t-62 23q-58 0 -93.5 -41.5t-35.5 -105.5z" />
<glyph unicode="&#x16f;" horiz-adv-x="1228" d="M129 915l16 89q162 21 330 14l-127 -656q-25 -130 0 -190.5t101 -60.5q74 0 155 71t145 177.5t111.5 224.5t65.5 217l41 217h149l-172 -895q83 -15 172 -21l-18 -88q-154 -21 -326 -14q32 160 121 434l-4 2q-38 -90 -86.5 -168.5t-109.5 -144.5t-136 -104.5t-154 -38.5 q-137 0 -189 91t-21 257l108 567q-76 13 -172 20zM539 1300q0 111 74.5 185t193.5 74q84 0 132 -46.5t48 -123.5q0 -111 -73.5 -185t-192.5 -74q-84 0 -133 46.5t-49 123.5zM657 1319q0 -42 21.5 -68t62.5 -26q57 0 92 42.5t35 102.5q0 42 -21 68t-61 26q-58 0 -93.5 -41.5 t-35.5 -103.5z" />
<glyph unicode="&#x170;" horiz-adv-x="1398" d="M162.5 316q1.5 73 15.5 155l174 911h154l-176 -913q-35 -181 29.5 -269.5t256.5 -88.5q194 0 303.5 94.5t151.5 318.5l164 858h149l-165 -876q-51 -266 -206.5 -395t-416.5 -129q-117 0 -202.5 24.5t-133 69t-73.5 106t-24.5 134.5zM643 1567l260 248l80 -95l-276 -229z M985 1567l293 243l78 -96l-309 -223z" />
<glyph unicode="&#x171;" horiz-adv-x="1228" d="M129 915l16 89q162 21 330 14l-127 -656q-25 -130 0 -190.5t101 -60.5q74 0 155 71t145 177.5t111.5 224.5t65.5 217l41 217h149l-172 -895q83 -15 172 -21l-18 -88q-154 -21 -326 -14q32 160 121 434l-4 2q-38 -90 -86.5 -168.5t-109.5 -144.5t-136 -104.5t-154 -38.5 q-137 0 -189 91t-21 257l108 567q-76 13 -172 20zM526 1247l271 275l90 -88l-287 -256zM862 1247l287 264l86 -92l-299 -241z" />
<glyph unicode="&#x172;" horiz-adv-x="1398" d="M163.5 308.5q-0.5 74.5 14.5 162.5l174 911h154l-176 -913q-35 -181 29.5 -269.5t256.5 -88.5q194 0 303.5 94.5t151.5 318.5l164 858h149l-165 -876q-47 -239 -181 -373q-43 -43 -172 -119t-184 -131q-98 -98 -98 -182q0 -57 67 -57q64 0 144 53l36 -92 q-108 -82 -217 -82q-86 0 -133 43t-47 106q0 84 58.5 167t156.5 145h-61q-110 0 -191 22.5t-130 65t-76 102.5t-27.5 134.5z" />
<glyph unicode="&#x173;" horiz-adv-x="1228" d="M129 915l16 89q162 21 330 14l-127 -656q-25 -130 0 -190.5t101 -60.5q74 0 155 71t145 177.5t111.5 224.5t65.5 217l41 217h149l-117 -615q-28 -138 -36 -284q76 -11 151 -17l-16 -88q-87 -9 -162.5 -44.5t-122.5 -82.5t-73.5 -96.5t-26.5 -89.5q0 -57 67 -57 q64 0 144 53l37 -92q-111 -82 -218 -82q-86 0 -133 43t-47 106q0 176 244 340q6 101 25.5 196.5t60.5 225.5l-4 2q-38 -90 -86.5 -168.5t-109.5 -144.5t-136 -104.5t-154 -38.5q-137 0 -189 91t-21 257l108 567q-76 13 -172 20z" />
<glyph unicode="&#x174;" horiz-adv-x="1914" d="M246 1382h162l71 -952q9 -152 6 -278h2q61 162 109 268l453 962h155l94 -979q13 -127 13 -251h2q36 105 88 227l454 1003h152l-629 -1382h-190l-94 971q-10 101 -7 196h-2q-10 -25 -25.5 -66t-28 -72t-25.5 -58l-455 -971h-199zM850 1583l346 166l281 -168l-62 -92 l-241 127l-293 -127z" />
<glyph unicode="&#x175;" horiz-adv-x="1589" d="M137 1018h164l57 -617q14 -158 19 -245h2q23 57 113 247l307 615h174l78 -615q17 -154 20 -249h4q40 91 113 247l317 660l144 -51l-514 -1010h-174l-95 662q-13 103 -16 196h-2q-27 -63 -121 -260l-295 -598h-182zM668 1253l315 263l219 -265l-82 -73l-162 176l-237 -176 z" />
<glyph unicode="&#x176;" horiz-adv-x="1058" d="M176 1382h166l156 -475q33 -95 63 -229h2q33 55 154 233l334 471h168l-607 -841l-102 -541h-154l103 541zM414 1583l346 166l280 -168l-61 -92l-242 127l-293 -127z" />
<glyph unicode="&#x177;" horiz-adv-x="946" d="M-236 -520l25 135q41 -6 78 -6q117 0 227 110q84 84 120 178t36 238q0 162 -35.5 397.5t-97.5 485.5h168q46 -208 77 -423t31 -327q0 -126 -22 -219h2q6 11 96 182q172 316 385 828l143 -45q-430 -1009 -776 -1352q-95 -97 -188.5 -141.5t-202.5 -44.5zM342 1253l315 263 l220 -265l-82 -73l-162 176l-238 -176z" />
<glyph unicode="&#x178;" horiz-adv-x="1058" d="M176 1382h166l156 -475q33 -95 63 -229h2q33 55 154 233l334 471h168l-607 -841l-102 -541h-154l103 541zM424 1593q0 41 29.5 71t70.5 30t67.5 -27.5t26.5 -67.5q0 -41 -29.5 -70.5t-70.5 -29.5t-67.5 27t-26.5 67zM852 1593q0 41 29.5 71t70.5 30t68 -27.5t27 -67.5 q0 -41 -30 -70.5t-71 -29.5t-67.5 27t-26.5 67z" />
<glyph unicode="&#x179;" horiz-adv-x="1083" d="M0 0l20 115l775 952q43 54 157 180q-144 -4 -307 -4h-387l27 139h872l-22 -116l-816 -996q-7 -8 -110 -133q45 6 354 6h363l-25 -143h-901zM678 1587l373 148l26 -127l-381 -115z" />
<glyph unicode="&#x17a;" horiz-adv-x="878" d="M4 0l21 109l626 776q-132 -4 -266 -4h-205l27 137h653l-18 -107l-625 -774q118 4 275 4h213l-27 -141h-674zM506 1251l293 279l84 -100l-312 -256z" />
<glyph unicode="&#x17b;" horiz-adv-x="1083" d="M0 0l20 115l775 952q43 54 157 180q-144 -4 -307 -4h-387l27 139h872l-22 -116l-816 -996q-7 -8 -110 -133q45 6 354 6h363l-25 -143h-901zM649 1595q0 46 31.5 78.5t73.5 32.5t70 -29t28 -69q0 -47 -30.5 -79t-73.5 -32q-42 0 -70.5 29t-28.5 69z" />
<glyph unicode="&#x17c;" horiz-adv-x="878" d="M4 0l21 109l626 776q-132 -4 -266 -4h-205l27 137h653l-18 -107l-625 -774q118 4 275 4h213l-27 -141h-674zM489 1339q0 47 31 78t74 31q42 0 70 -29t28 -69q0 -47 -30.5 -78t-73.5 -31q-42 0 -70.5 29t-28.5 69z" />
<glyph unicode="&#x17d;" horiz-adv-x="1083" d="M0 0l20 115l775 952q43 54 157 180q-144 -4 -307 -4h-387l27 139h872l-22 -116l-816 -996q-7 -8 -110 -133q45 6 354 6h363l-25 -143h-901zM457 1659l59 90l242 -127l295 127l30 -92l-346 -168z" />
<glyph unicode="&#x17e;" horiz-adv-x="878" d="M4 0l21 109l626 776q-132 -4 -266 -4h-205l27 137h653l-18 -107l-625 -774q118 4 275 4h213l-27 -141h-674zM346 1442l82 74l162 -177l235 177l56 -78l-316 -260z" />
<glyph unicode="&#x17f;" horiz-adv-x="520" d="M-315 -518l39 131q36 -10 86 -10q107 0 168 69t90 224l227 1194q39 214 144 314.5t282 100.5q50 0 104 -8l-39 -127q-36 10 -86 10q-105 0 -167 -70.5t-91 -226.5l-225 -1194q-41 -213 -146.5 -314t-281.5 -101q-50 0 -104 8z" />
<glyph unicode="&#x2c6;" horiz-adv-x="894" d="M326 1253l315 263l219 -265l-82 -73l-162 176l-237 -176z" />
<glyph unicode="&#x2da;" horiz-adv-x="800" d="M338 1300q0 111 74.5 185t193.5 74q84 0 132 -46.5t48 -123.5q0 -111 -73.5 -185t-192.5 -74q-84 0 -133 46.5t-49 123.5zM457 1319q0 -42 21.5 -68t62.5 -26q57 0 92 42.5t35 102.5q0 42 -21 68t-61 26q-58 0 -93.5 -41.5t-35.5 -103.5z" />
<glyph unicode="&#x2dc;" horiz-adv-x="1030" d="M336 1309q40 72 95.5 110.5t119.5 38.5q44 0 83 -18t62 -39.5t53 -39.5t58 -18q67 0 127 97l80 -64q-40 -70 -97 -108.5t-122 -38.5q-43 0 -81 18t-60.5 39t-51.5 39t-57 18q-67 0 -131 -98z" />
<glyph unicode="&#x2000;" horiz-adv-x="929" />
<glyph unicode="&#x2001;" horiz-adv-x="1858" />
<glyph unicode="&#x2002;" horiz-adv-x="929" />
<glyph unicode="&#x2003;" horiz-adv-x="1858" />
<glyph unicode="&#x2004;" horiz-adv-x="619" />
<glyph unicode="&#x2005;" horiz-adv-x="464" />
<glyph unicode="&#x2006;" horiz-adv-x="309" />
<glyph unicode="&#x2007;" horiz-adv-x="309" />
<glyph unicode="&#x2008;" horiz-adv-x="232" />
<glyph unicode="&#x2009;" horiz-adv-x="371" />
<glyph unicode="&#x200a;" horiz-adv-x="103" />
<glyph unicode="&#x2010;" horiz-adv-x="657" d="M104 532l25 127h465l-25 -127h-465z" />
<glyph unicode="&#x2011;" horiz-adv-x="657" d="M104 532l25 127h465l-25 -127h-465z" />
<glyph unicode="&#x2012;" horiz-adv-x="657" d="M104 532l25 127h465l-25 -127h-465z" />
<glyph unicode="&#x2013;" d="M6 543l27 135h1126l-26 -135h-1127z" />
<glyph unicode="&#x2014;" horiz-adv-x="2048" d="M254 543l27 135h1552l-25 -135h-1554z" />
<glyph unicode="&#x2018;" horiz-adv-x="471" d="M252 1084q-36 78 24 193q67 129 236 251l57 -68q-203 -172 -139 -286q29 -47 1 -97.5t-87 -50.5q-65 0 -92 58z" />
<glyph unicode="&#x2019;" horiz-adv-x="471" d="M193 1083q203 172 139 287q-27 50 0.5 99t85.5 49q65 0 92 -58q36 -78 -23 -192q-67 -129 -237 -252z" />
<glyph unicode="&#x201a;" horiz-adv-x="471" d="M-55 -231q204 171 141 288q-27 47 0 96.5t84 49.5q66 0 93 -59q37 -78 -24 -193q-67 -128 -235 -250z" />
<glyph unicode="&#x201c;" horiz-adv-x="827" d="M252 1086q-36 78 23 192q67 129 237 252l57 -68q-203 -172 -139 -286q27 -48 -1 -98t-85 -50q-65 0 -92 58zM615 1086q-36 78 23 193q67 129 236 251l58 -68q-203 -172 -139 -286q15 -33 11 -66t-31.5 -57.5t-65.5 -24.5q-65 0 -92 58z" />
<glyph unicode="&#x201d;" horiz-adv-x="827" d="M193 1083q203 172 139 287q-27 50 0.5 99t85.5 49q65 0 92 -58q36 -78 -23 -192q-67 -129 -237 -252zM553 1083q205 172 141 287q-27 50 -0.5 99t84.5 49q65 0 93 -58q36 -78 -23 -192q-67 -129 -238 -252z" />
<glyph unicode="&#x201e;" horiz-adv-x="827" d="M-57 -231q204 171 141 288q-27 47 0 96.5t84 49.5q65 0 92 -58q36 -78 -24 -193q-67 -129 -236 -251zM303 -231q202 172 139 288q-27 47 0 96.5t84 49.5q65 0 92 -58q36 -78 -24 -193q-67 -129 -236 -251z" />
<glyph unicode="&#x202f;" horiz-adv-x="371" />
<glyph unicode="&#x2039;" horiz-adv-x="628" d="M137 608l309 353l99 -70l-256 -291l147 -287l-121 -65z" />
<glyph unicode="&#x203a;" horiz-adv-x="628" d="M125 317l256 291l-143 287l118 66l176 -361l-307 -352z" />
<glyph unicode="&#x205f;" horiz-adv-x="464" />
<glyph unicode="&#x20ac;" d="M8 471l19 107h163q8 74 35 180h-162l21 106h174q27 78 63 145t90.5 131t120 109.5t155 73t192.5 27.5q146 0 266 -45l-49 -129q-127 51 -246 51q-291 0 -430 -363h430l-21 -106h-444q-27 -106 -35 -180h443l-19 -107h-436v-53q0 -148 65.5 -227.5t223.5 -79.5 q133 0 286 65l25 -117q-174 -77 -356 -77q-90 0 -160 22.5t-115 60.5t-74.5 92t-42 114.5t-12.5 131.5q0 41 2 68h-172z" />
<glyph unicode="&#x2122;" horiz-adv-x="1411" d="M250 1286l18 96h426l-18 -96h-152l-90 -479h-121l93 479h-156zM629 807l192 575h154l33 -340l8 -98l33 88l172 350h155l-24 -575h-119l14 323l8 115l-43 -98l-168 -340h-122l-35 344l-6 94l-21 -76l-121 -362h-110z" />
<glyph unicode="&#x25fc;" horiz-adv-x="1064" d="M0 0v1065h1065v-1065h-1065z" />
</font>
</defs>
</svg>
