<?xml version="1.0" standalone="no"?>
<!DOCTYPE svg PUBLIC "-//W3C//DTD SVG 1.1//EN" "http://www.w3.org/Graphics/SVG/1.1/DTD/svg11.dtd" >
<svg xmlns="http://www.w3.org/2000/svg">
<metadata></metadata>
<defs>
<font id="themix_c5bold_italic" horiz-adv-x="1126" >
<font-face units-per-em="2048" ascent="1516" descent="-532" />
<missing-glyph horiz-adv-x="446" />
<glyph unicode="&#x2e;&#x2e;&#x2e;" horiz-adv-x="1452" d="M33 131q0 69 48.5 117.5t113.5 48.5t108 -45.5t43 -108.5q0 -70 -47.5 -118t-114.5 -48q-64 0 -107.5 46t-43.5 108zM502 131q0 69 48 117.5t114 48.5q64 0 107.5 -46t43.5 -108q0 -70 -47.5 -118t-114.5 -48q-64 0 -107.5 46t-43.5 108zM971 131q0 70 47.5 118t114.5 48 q64 0 107.5 -46t43.5 -108q0 -69 -48 -117.5t-114 -48.5q-65 0 -108 45.5t-43 108.5z" />
<glyph horiz-adv-x="0" />
<glyph horiz-adv-x="0" />
<glyph horiz-adv-x="682" />
<glyph unicode="&#xd;" horiz-adv-x="1024" />
<glyph unicode=" "  horiz-adv-x="446" />
<glyph unicode="&#x09;" horiz-adv-x="446" />
<glyph unicode="&#xa0;" horiz-adv-x="446" />
<glyph unicode="!" horiz-adv-x="645" d="M117 123q0 71 49.5 118.5t118.5 47.5q66 0 108.5 -44t42.5 -104q0 -71 -49.5 -117.5t-118.5 -46.5q-66 0 -108.5 43t-42.5 103zM215 385l162 1065h301l-242 -1065h-221z" />
<glyph unicode="&#x22;" horiz-adv-x="813" d="M209 918l65 520h258l-133 -520h-190zM588 918l65 520h256l-131 -520h-190z" />
<glyph unicode="#" d="M31 350l35 180h176l82 281h-158l35 178h176l100 342h191l-101 -342h258l101 342h190l-100 -342h155l-34 -178h-174l-82 -281h155l-35 -180h-174l-104 -350h-191l105 350h-258l-105 -350h-190l104 350h-157zM432 530h258l82 281h-258z" />
<glyph unicode="$" d="M117 55l61 236q127 -43 254 -43q117 0 183.5 47.5t66.5 118.5q0 40 -25 70.5t-64.5 52t-87.5 41.5t-96.5 46t-88 58.5t-64.5 85t-25 119.5q0 157 112 273.5t284 144.5l35 190h188l-35 -180q90 -2 205 -25l-59 -223q-107 35 -218 35q-116 0 -175.5 -42t-59.5 -108 q0 -38 25.5 -67t66 -49.5t89.5 -41t97.5 -46.5t89 -59t66 -87t25.5 -123q0 -164 -120.5 -284t-297.5 -152l-43 -217h-187l39 205q-121 0 -241 24z" />
<glyph unicode="%" horiz-adv-x="1525" d="M102 80l1254 1292l139 -125l-1253 -1292zM172 942q0 96 33.5 176t87.5 130.5t119 78t131 27.5q125 0 192.5 -60.5t67.5 -175.5q0 -98 -33.5 -179.5t-88 -132.5t-119.5 -78.5t-132 -27.5q-126 0 -192 63.5t-66 178.5zM367 958q0 -92 82 -92q67 0 113 68t46 164 q0 92 -82 92q-67 0 -113 -69t-46 -163zM803 217q0 96 33.5 176.5t87 131t118 78.5t129.5 28q125 0 193 -61t68 -177q0 -97 -33.5 -178t-87 -132t-118.5 -78.5t-132 -27.5q-127 0 -192.5 62.5t-65.5 177.5zM997 236q0 -51 20 -73t60 -22q68 0 114 68.5t46 163.5 q0 49 -19.5 70.5t-60.5 21.5q-68 0 -114 -68t-46 -161z" />
<glyph unicode="&#x26;" horiz-adv-x="1609" d="M78 328q0 79 27 150.5t78 133t104 108.5t127 101q-119 188 -119 309q0 153 123.5 267t312.5 114q172 0 255 -71t83 -195q0 -68 -25.5 -130.5t-75 -119t-100.5 -100.5t-123 -96q127 -154 326 -340q126 138 160 291q-64 13 -148 20l29 154q209 23 414 14 q-17 -173 -91.5 -336t-193.5 -293q125 -106 236 -184l-179 -178q-117 81 -254 196q-255 -166 -555 -166q-206 0 -308.5 98t-102.5 253zM350 377q0 -77 49.5 -126.5t145.5 -49.5q166 0 327 96q-202 192 -331 352q-92 -73 -141.5 -137.5t-49.5 -134.5zM553 1157q0 -75 70 -190 q92 68 140 125t48 120q0 47 -26.5 75t-77.5 28q-66 0 -110 -45t-44 -113z" />
<glyph unicode="'" horiz-adv-x="432" d="M209 918l65 520h258l-133 -520h-190z" />
<glyph unicode="(" horiz-adv-x="614" d="M92 262q0 333 135.5 686.5t390.5 663.5l179 -90q-198 -254 -325.5 -603t-127.5 -645q0 -360 98 -626l-206 -88q-144 332 -144 702z" />
<glyph unicode=")" horiz-adv-x="614" d="M-129 -350q198 256 325.5 603.5t127.5 641.5q0 358 -101 629l209 88q141 -330 141 -705q0 -332 -134.5 -684t-389.5 -663z" />
<glyph unicode="*" horiz-adv-x="772" d="M184 1116l222 66l-189 98l123 150l145 -152l15 227l182 -24l-78 -211l195 125l61 -168l-221 -68l186 -96l-120 -152l-146 152l-16 -225l-183 24l78 209l-192 -125z" />
<glyph unicode="+" d="M86 500l41 219h358l72 379h250l-74 -379h361l-41 -219h-361l-74 -381h-247l73 381h-358z" />
<glyph unicode="," horiz-adv-x="528" d="M-76 -244q81 67 121 122t41 99.5t-25 85.5q-22 35 -22 78t18.5 79t56 60.5t85.5 24.5q84 0 131 -70q57 -86 14 -214q-64 -191 -321 -372q-3 -1 -5 -3z" />
<glyph unicode="-" horiz-adv-x="669" d="M90 463l41 211h492l-41 -211h-492z" />
<glyph unicode="." horiz-adv-x="528" d="M35 137q0 73 51 123.5t121 50.5q67 0 113.5 -47.5t46.5 -111.5q0 -73 -51 -124t-121 -51q-66 0 -113 48t-47 112z" />
<glyph unicode="/" horiz-adv-x="929" d="M-180 -330l1067 1880h260l-1065 -1880h-262z" />
<glyph unicode="0" d="M82 389q0 86 11 176.5t35 185.5t59.5 182t89 164.5t118 134t151 89.5t185.5 33q193 0 290 -100.5t97 -311.5q0 -102 -15.5 -208t-46.5 -215.5t-83.5 -206t-121 -172t-165.5 -119.5t-211 -44q-197 0 -295 98.5t-98 313.5zM358 406q0 -108 33 -155.5t117 -47.5 q69 0 127.5 58.5t95.5 145.5t64 189.5t38 188.5t11 145q0 106 -34 154.5t-116 48.5q-69 0 -128 -58.5t-96 -145.5t-63.5 -190t-37.5 -188.5t-11 -144.5z" />
<glyph unicode="1" d="M45 0l45 236h336l158 831l-316 -94v231l398 127h239l-209 -1095h293l-45 -236h-899z" />
<glyph unicode="2" d="M14 0l43 217l256 211q186 148 282.5 243.5t130.5 159.5t34 134q0 66 -47 107.5t-138 41.5q-151 0 -301 -94l-16 235q196 99 408 99q194 0 294.5 -93t100.5 -239q0 -72 -17.5 -134t-63.5 -136t-133 -159.5t-220 -189.5l-191 -153v-2q180 4 375 4h158l-49 -252h-906z" />
<glyph unicode="3" d="M49 10l62 226q106 -39 268 -39q80 0 143 20.5t100.5 55t56.5 75t19 84.5q0 70 -63 111t-189 41q-99 0 -219 -13l39 203h60q220 0 338 67.5t118 172.5q0 58 -46 90.5t-140 32.5q-138 0 -295 -68l-2 219q184 66 365 66q205 0 304 -76.5t99 -212.5q0 -118 -78 -213.5 t-215 -132.5v-2q104 -23 158.5 -90t54.5 -166q0 -65 -20 -130t-68 -129.5t-119 -114t-182 -80t-248 -30.5q-179 0 -301 33z" />
<glyph unicode="4" d="M27 289l18 221l660 821h358l-154 -807h187l-47 -235h-185l-55 -289h-256l53 289h-579zM315 520q184 4 342 4l105 541h-2z" />
<glyph unicode="5" d="M72 2l47 238q119 -37 241 -37q156 0 251.5 71t95.5 189q0 80 -69.5 117.5t-215.5 37.5q-132 0 -217 -16l139 729h766l-47 -246h-518l-49 -262q25 2 77 2q214 0 320 -87.5t106 -229.5q0 -155 -88.5 -277t-239 -188t-335.5 -66q-145 0 -264 25z" />
<glyph unicode="6" d="M84 385q0 84 14 173t46 184t78.5 182.5t116.5 166t154.5 136t198 91.5t242.5 34q102 0 166 -11l-41 -225q-86 14 -158 14q-316 0 -461 -313q-23 -38 -45 -96h2q52 60 133 93.5t172 33.5q171 0 263 -87t92 -235q0 -238 -162.5 -393.5t-411.5 -155.5q-195 0 -297 103.5 t-102 304.5zM346 371q0 -82 45.5 -131.5t132.5 -49.5q109 0 185.5 82t76.5 201q0 76 -44 118t-130 42q-117 0 -191.5 -77t-74.5 -185z" />
<glyph unicode="7" d="M172 0q134 263 314 558.5t341 520.5q-114 -4 -424 -4h-184l49 256h920l-43 -225q-179 -249 -350.5 -542t-307.5 -564h-315z" />
<glyph unicode="8" d="M53 276q0 58 16.5 109.5t44 91.5t68.5 77t83.5 64.5t96.5 55.5q-73 49 -113 110t-40 146q0 115 67.5 212.5t186.5 154.5t262 57q191 0 293 -76t102 -207q0 -67 -21.5 -124t-62 -103t-87 -81t-109.5 -69q87 -54 136.5 -119.5t49.5 -156.5q0 -132 -80.5 -234.5 t-204.5 -154.5t-264 -52q-204 0 -314 78.5t-110 220.5zM328 313q0 -56 47 -91.5t135 -35.5q102 0 172 52.5t70 144.5q0 56 -46 95.5t-135 84.5q-56 -28 -95.5 -52t-75.5 -54.5t-54 -66.5t-18 -77zM477 969q0 -51 39.5 -89t114.5 -77q106 52 162.5 106.5t56.5 126.5 q0 52 -40.5 83.5t-115.5 31.5q-99 0 -158 -52.5t-59 -129.5z" />
<glyph unicode="9" d="M66 -6l45 233q80 -26 188 -26q162 0 282.5 85t180.5 230l26 70h-2q-120 -107 -286 -107q-164 0 -260.5 85.5t-96.5 242.5q0 104 39.5 202t110.5 175t179.5 123.5t236.5 46.5q193 0 299 -98.5t106 -307.5q0 -73 -10.5 -153.5t-38 -176.5t-69 -184.5t-109.5 -172t-153 -145 t-205 -99t-261 -37.5q-122 0 -202 14zM412 856q0 -78 43 -119t125 -41q109 0 187.5 76.5t78.5 194.5q0 80 -44.5 127t-127.5 47q-116 0 -189 -85.5t-73 -199.5z" />
<glyph unicode=":" horiz-adv-x="610" d="M98 137q0 73 51 123.5t121 50.5q68 0 116 -47.5t48 -111.5q0 -73 -51 -124t-121 -51q-68 0 -116 48t-48 112zM209 717q0 73 51 123.5t121 50.5q68 0 116 -48t48 -112q0 -73 -51 -123.5t-121 -50.5q-68 0 -116 48t-48 112z" />
<glyph unicode=";" horiz-adv-x="610" d="M-6 -244q81 67 121 122t41 99.5t-25 85.5q-22 35 -22 78t18 79t55.5 60.5t85.5 24.5q84 0 131 -70q56 -86 13 -214q-63 -192 -321 -373q-1 -1 -3 -2zM207 717q0 72 52 123t122 51q67 0 114.5 -48t47.5 -112q0 -73 -50.5 -123.5t-119.5 -50.5q-68 0 -117 48t-49 112z" />
<glyph unicode="&#x3c;" d="M158 631l749 588l154 -181l-565 -426l407 -434l-190 -166z" />
<glyph unicode="=" d="M78 307l41 211h907l-41 -211h-907zM152 698l41 211h907l-39 -211h-909z" />
<glyph unicode="&#x3e;" d="M123 193l565 425l-409 435l192 166l553 -621l-750 -586z" />
<glyph unicode="?" horiz-adv-x="905" d="M166 123q0 71 49.5 118.5t118.5 47.5q67 0 109 -43.5t42 -104.5q0 -71 -49.5 -117.5t-118.5 -46.5q-66 0 -108.5 43t-42.5 103zM242 385q-12 83 3.5 152.5t49.5 118.5t78.5 90.5t91 76t85.5 67t64 72t25 82.5q0 160 -358 187l77 237q284 -14 427 -117.5t143 -258.5 q0 -59 -16 -110.5t-43.5 -90.5t-62 -74t-72.5 -65t-75.5 -59.5t-69.5 -61.5t-55.5 -67.5t-34 -81t-3.5 -97.5h-254z" />
<glyph unicode="@" horiz-adv-x="2056" d="M145 332q0 140 34 279t97 265t157.5 234t210.5 187t263 124t307 45q144 0 264.5 -32.5t207.5 -90t148 -137.5t90.5 -176t29.5 -203q0 -149 -40 -281.5t-112.5 -232t-181.5 -157.5t-240 -58t-188.5 63t-46.5 161h-4q-48 -94 -136.5 -159t-183.5 -65q-109 0 -171 76 t-62 205q0 60 8.5 121t29 126.5t50.5 124.5t76.5 112t104 91.5t135.5 61t169 22.5q175 0 324 -47l-125 -438q-70 -242 61 -242q128 0 214.5 147t86.5 351q0 71 -16 134.5t-55 123.5t-97.5 102.5t-149 68.5t-204.5 26q-148 0 -280.5 -51t-230 -139t-169.5 -202t-108.5 -242.5 t-36.5 -258.5q0 -261 143 -398t438 -137q190 0 414 68l16 -197q-239 -76 -462 -76q-189 0 -337.5 50.5t-244.5 143t-146.5 221.5t-50.5 286zM829 416q0 -101 64 -101q68 0 143.5 106.5t134.5 303.5l29 96q-47 13 -94 13q-63 0 -117.5 -43t-88 -108t-52.5 -135.5t-19 -131.5z " />
<glyph unicode="A" horiz-adv-x="1255" d="M-82 0l715 1382h340l192 -1382h-280l-37 295h-510l-150 -295h-270zM436 506h391l-57 432q-11 108 -14 207h-4q-8 -18 -25.5 -60t-33.5 -79t-31 -66z" />
<glyph unicode="B" horiz-adv-x="1167" d="M53 0l262 1380q211 11 400 11q230 0 336 -77.5t106 -213.5q0 -132 -71.5 -228.5t-188.5 -142.5v-2q89 -23 139.5 -89.5t50.5 -156.5q0 -92 -38.5 -176.5t-113 -154.5t-198 -112t-278.5 -42q-35 0 -172.5 2t-233.5 2zM356 215q41 -6 129 -6q157 0 238.5 72t81.5 176 q0 151 -244 151q-102 0 -131 -2zM469 809q31 -2 100 -2q156 0 232 68.5t76 171.5q0 133 -195 133q-61 0 -143 -4z" />
<glyph unicode="C" horiz-adv-x="1136" d="M98 467q0 93 14.5 185.5t46 184.5t78 174.5t113 154t147.5 123t186.5 81t225.5 29.5q160 0 301 -51l-77 -242q-125 53 -248 53q-103 0 -188.5 -41t-140.5 -106.5t-93.5 -151.5t-55 -171.5t-16.5 -170.5q0 -293 299 -293q130 0 289 64l2 -240q-191 -65 -367 -65 q-89 0 -162.5 16t-126 42.5t-93 65t-65.5 80.5t-41 91t-22 94.5t-6 93.5z" />
<glyph unicode="D" horiz-adv-x="1339" d="M53 2l262 1378q292 11 433 11q291 0 436 -127.5t145 -372.5q0 -141 -34.5 -272t-106.5 -245.5t-175 -199t-249.5 -133.5t-319.5 -49q-104 0 -391 10zM358 229q58 -10 125 -10q120 0 218.5 42t161 108.5t105.5 153t61 172t18 169.5q0 147 -77.5 225t-262.5 78 q-109 0 -170 -6z" />
<glyph unicode="E" horiz-adv-x="1024" d="M53 0l262 1382h768l-43 -223h-505l-66 -340h463l-41 -217h-461l-72 -373h506l-43 -229h-768z" />
<glyph unicode="F" horiz-adv-x="946" d="M53 0l262 1382h744l-43 -227h-481l-68 -360h446l-43 -217h-446l-109 -578h-262z" />
<glyph unicode="G" horiz-adv-x="1353" d="M98 506q0 135 36 264.5t110.5 244t177.5 201t247.5 137t311.5 50.5q202 0 385 -55l-78 -246q-167 63 -336 63q-115 0 -212 -37.5t-162 -99.5t-110.5 -143.5t-66 -168t-20.5 -175.5q0 -150 83 -236t257 -86q105 0 197 27l90 479h262l-127 -664q-219 -81 -469 -81 q-289 0 -432.5 138.5t-143.5 387.5z" />
<glyph unicode="H" horiz-adv-x="1378" d="M53 0l262 1382h263l-107 -553h576l104 553h262l-262 -1382h-262l115 600h-574l-115 -600h-262z" />
<glyph unicode="I" horiz-adv-x="542" d="M53 0l262 1382h263l-263 -1382h-262z" />
<glyph unicode="J" horiz-adv-x="696" d="M-86 -2l41 229q55 -20 133 -20q79 0 129.5 45t71.5 149l186 981h260l-192 -1003q-77 -397 -449 -397q-94 0 -180 16z" />
<glyph unicode="K" horiz-adv-x="1198" d="M53 0l262 1382h263l-119 -622l549 622h331l-632 -682l376 -700h-325l-316 664l-127 -664h-262z" />
<glyph unicode="L" horiz-adv-x="860" d="M53 0l262 1382h263l-220 -1153h439l-43 -229h-701z" />
<glyph unicode="M" horiz-adv-x="1798" d="M-23 0l424 1382h355l98 -716q18 -123 18 -281h5q72 193 118 281l373 716h377l-96 -1382h-267l48 680q22 280 55 450h-6q-80 -201 -172 -385l-387 -745h-242l-103 717q-30 283 -30 413h-4q-41 -197 -115 -456l-197 -674h-252z" />
<glyph unicode="N" horiz-adv-x="1361" d="M53 0l262 1382h285l272 -655q75 -174 105 -303h4q33 282 98 623l66 335h252l-262 -1382h-252l-295 700q-62 146 -107 312h-4q-25 -244 -100 -635l-70 -377h-254z" />
<glyph unicode="O" horiz-adv-x="1431" d="M94 481q0 147 36.5 285t107 253.5t167.5 202t225 135t271 48.5q132 0 233 -36.5t164.5 -104t95 -158.5t31.5 -203q0 -185 -58 -353t-161 -295t-256 -202.5t-332 -75.5q-262 0 -393 135.5t-131 368.5zM379 524q0 -144 70.5 -225.5t216.5 -81.5q109 0 200.5 56t150.5 147.5 t91.5 205t32.5 232.5q0 144 -71.5 225.5t-215.5 81.5q-109 0 -200.5 -56t-150.5 -147.5t-91.5 -205t-32.5 -232.5z" />
<glyph unicode="P" horiz-adv-x="1110" d="M53 0l262 1382q205 9 377 9q233 0 352 -99.5t119 -263.5q0 -86 -25 -169.5t-77.5 -159t-127.5 -132.5t-182 -91t-233 -34l-119 4l-84 -446h-262zM442 672q64 -10 115 -10q83 0 149 30t104 78.5t57.5 104t19.5 112.5q0 83 -56 133.5t-178 50.5l-116 -2z" />
<glyph unicode="Q" horiz-adv-x="1431" d="M94 479q0 185 58 353t161 295t256 202.5t332 75.5q132 0 233 -36.5t164.5 -104t95 -158.5t31.5 -203q0 -277 -118 -491t-293 -287h5q34 0 83 -14q53 -15 98 -23q20 -4 51 -4q39 0 97 6l-43 -225q-72 -9 -124 -9q-23 0 -43 2q-62 6 -121.5 25.5t-101.5 40t-107.5 37 t-139.5 16.5h-50q-262 0 -393 135.5t-131 366.5zM379 524q0 -144 70.5 -225.5t216.5 -81.5q109 0 200.5 56t150.5 147.5t91.5 205t32.5 232.5q0 144 -71.5 225.5t-215.5 81.5q-109 0 -200.5 -56t-150.5 -147.5t-91.5 -205t-32.5 -232.5z" />
<glyph unicode="R" horiz-adv-x="1153" d="M53 0l262 1382q199 9 385 9q219 0 333 -84t114 -236q0 -165 -97 -296.5t-288 -178.5q39 -69 72 -143l208 -453h-313l-235 557h-74l-105 -557h-262zM459 758q51 -2 108 -2q80 0 140.5 24t93.5 63.5t49 84t16 92.5q0 71 -51.5 112.5t-159.5 41.5l-118 -7z" />
<glyph unicode="S" horiz-adv-x="1009" d="M16 16l70 254q150 -61 303 -61q122 0 188 54t66 136q0 44 -25.5 81.5t-66 66t-89 57t-97.5 62.5t-89.5 74t-66 100t-25.5 133q0 87 38 165t108 137.5t178.5 94.5t239.5 35q127 0 262 -27l-64 -233q-122 39 -244 39q-114 0 -177.5 -50.5t-63.5 -123.5q0 -42 25.5 -78 t66.5 -63.5t91 -56t99.5 -63t90.5 -75.5t66.5 -102t25.5 -136q0 -89 -38 -170.5t-109 -146.5t-184.5 -103.5t-252.5 -38.5q-170 0 -326 39z" />
<glyph unicode="T" horiz-adv-x="1024" d="M164 1155l43 227h962l-43 -227h-350l-221 -1155h-260l219 1155h-350z" />
<glyph unicode="U" horiz-adv-x="1366" d="M150 506l165 876h263l-172 -897q-10 -52 -10 -94q0 -75 32 -121q50 -70 197 -71q155 0 238.5 77t117.5 254l164 852h258l-168 -874q-102 -531 -647 -531q-454 0 -454 374q0 71 16 155z" />
<glyph unicode="V" horiz-adv-x="1261" d="M182 1382h281l100 -827q20 -182 25 -307h2q63 152 141 311l420 823h279l-715 -1382h-340z" />
<glyph unicode="W" horiz-adv-x="1923" d="M225 1382h275l35 -755q1 -38 1 -74q0 -146 -10 -270h6q63 186 130 340l348 759h264l61 -768q10 -122 10 -235q0 -49 -2 -96h5q77 233 114 327l326 772h260l-598 -1382h-320l-63 756q-2 42 -2 86q0 81 8 166h-6q-57 -174 -90 -252l-346 -756h-330z" />
<glyph unicode="X" horiz-adv-x="1261" d="M-68 0l570 713l-277 669h293l184 -479l361 479h307l-530 -680l309 -702h-315l-197 508l-387 -508h-318z" />
<glyph unicode="Y" d="M172 1382h279l114 -389q25 -89 51 -219h2q65 109 150 238l252 370h285l-605 -872l-96 -510h-260l96 508z" />
<glyph unicode="Z" horiz-adv-x="1077" d="M2 0l39 205l633 811q45 57 112 131q-94 -4 -239 -4h-309l45 239h874l-41 -215l-661 -829q-59 -72 -80 -96q33 4 291 4h282l-45 -246h-901z" />
<glyph unicode="[" horiz-adv-x="657" d="M-25 -420l383 2011h443l-39 -207h-203l-303 -1593h201l-39 -211h-443z" />
<glyph unicode="\" horiz-adv-x="962" d="M223 1550h244l350 -1880h-246z" />
<glyph unicode="]" horiz-adv-x="657" d="M-94 -420l39 211h200l306 1593h-203l39 207h442l-383 -2011h-440z" />
<glyph unicode="^" d="M172 782l446 600h205l236 -598l-199 -94l-174 506l-354 -506z" />
<glyph unicode="_" d="M-184 -504l41 211h1124l-39 -211h-1126z" />
<glyph unicode="`" horiz-adv-x="702" d="M311 1415l160 148l254 -299l-135 -121z" />
<glyph unicode="a" horiz-adv-x="1165" d="M61 295q0 117 25 225t77.5 202.5t128 164t184.5 109.5t239 40q210 0 360 -30l-153 -805q84 -15 170 -21l-31 -164q-157 -20 -327 -20q-48 0 -97 2q28 129 94 326h-4q-187 -347 -426 -347q-240 0 -240 318zM326 344q0 -141 77 -141q68 0 148.5 93t139 219.5t79.5 236.5 l14 65q-58 14 -114 14q-68 0 -126 -30.5t-97.5 -80t-67 -113.5t-40.5 -130.5t-13 -132.5z" />
<glyph unicode="b" horiz-adv-x="1120" d="M66 18l243 1276q-91 16 -172 21l31 164q158 19 342 19q46 0 94 -1l-84 -436q-21 -122 -112 -367h4q83 161 191 253.5t237 92.5q239 0 239 -317q0 -117 -24.5 -225t-77 -202.5t-128.5 -164t-184.5 -109.5t-238.5 -40q-200 0 -360 36zM356 201q66 -15 115 -15 q84 0 152 45.5t108 119t61 157t21 166.5q0 141 -76 141q-53 0 -113 -55.5t-110 -138t-88.5 -177t-54.5 -174.5z" />
<glyph unicode="c" horiz-adv-x="827" d="M61 332q0 195 71 354.5t208 254.5t317 95q99 0 207 -24l-61 -230q-78 33 -160 33q-77 0 -138 -39.5t-96.5 -103t-54 -136.5t-18.5 -147q0 -182 178 -182q103 0 188 37l-14 -221q-118 -41 -250 -41q-377 0 -377 350z" />
<glyph unicode="d" horiz-adv-x="1175" d="M61 295q0 117 25 225t77.5 202.5t128 164t184.5 109.5t239 40q51 0 108 -8l51 266q-91 16 -172 21l31 164q160 19 343 19q46 0 93 -1l-247 -1296q84 -15 170 -21l-31 -164q-157 -20 -326 -20q-47 0 -96 2q18 105 92 326h-4q-187 -347 -426 -347q-240 0 -240 318zM326 344 q0 -141 77 -141q68 0 148.5 93t139 219.5t79.5 236.5l14 65q-58 14 -114 14q-68 0 -126 -30.5t-97.5 -80t-67 -113.5t-40.5 -130.5t-13 -132.5z" />
<glyph unicode="e" horiz-adv-x="989" d="M61 324q0 156 45.5 290.5t123.5 227t183.5 144.5t223.5 52q91 0 157.5 -21t102.5 -57t53 -78t17 -91q0 -179 -167 -272.5t-474 -102.5q-7 -35 -7 -80q0 -87 40 -118.5t147 -31.5q143 0 295 60l4 -201q-174 -65 -383 -65q-191 0 -276 85.5t-85 258.5zM354 590 q359 12 359 166q0 42 -28.5 65t-78.5 23q-93 0 -157 -72t-95 -182z" />
<glyph unicode="f" horiz-adv-x="710" d="M-295 -492l57 216q69 -15 117 -15q89 0 138.5 54t76.5 200l164 852h-174l39 203h172l14 76q42 211 154 314t321 103q84 0 162 -16l-57 -213q-59 16 -119 16q-89 0 -136.5 -49.5t-70.5 -171.5l-12 -59h233l-36 -203h-234l-162 -852q-45 -244 -163.5 -357.5t-313.5 -113.5 q-97 0 -170 16z" />
<glyph unicode="g" horiz-adv-x="1110" d="M-39 -471l64 235q137 -53 278 -53t218.5 60.5t103.5 195.5q29 150 104 350l-4 2q-186 -342 -424 -342q-240 0 -240 318q0 117 25 225t77.5 202.5t128 164t184.5 109.5t239 40q168 0 360 -30l-205 -1069q-20 -108 -63.5 -189t-116 -139.5t-180.5 -88.5t-250 -30 q-171 0 -299 39zM326 344q0 -141 77 -141q68 0 148.5 93t139 219.5t79.5 236.5l14 65q-58 14 -114 14q-68 0 -126 -30.5t-97.5 -80t-67 -113.5t-40.5 -130.5t-13 -132.5z" />
<glyph unicode="h" horiz-adv-x="1155" d="M61 0l248 1294q-89 15 -172 21l29 164q160 19 343 19q46 0 93 -1l-80 -432q-26 -128 -110 -363h4q77 151 184.5 244.5t243.5 93.5q142 0 195 -91q34 -59 34 -145q0 -47 -10 -102l-135 -702h-256l123 639q8 49 8 83q0 32 -7 52q-15 41 -63 41q-65 0 -144 -89.5t-139 -219 t-83 -248.5l-50 -258h-256z" />
<glyph unicode="i" horiz-adv-x="602" d="M100 838l31 163q167 20 348 20q43 0 88 -1l-194 -1020h-256l155 817q-85 15 -172 21zM332 1315q0 73 51.5 122.5t120.5 49.5q65 0 108 -43t43 -101q0 -75 -51.5 -124.5t-120.5 -49.5q-66 0 -108.5 43.5t-42.5 102.5z" />
<glyph unicode="j" horiz-adv-x="602" d="M-246 -492l53 224q52 -21 109 -21q82 0 122.5 50.5t67.5 181.5l168 874q-85 15 -172 21l31 163q167 20 348 20q44 0 88 -1l-211 -1106q-42 -210 -151 -316t-316 -106q-78 0 -137 16zM334 1315q0 73 52.5 122.5t121.5 49.5q64 0 107.5 -43.5t43.5 -100.5q0 -74 -52 -124 t-122 -50q-66 0 -108.5 43.5t-42.5 102.5z" />
<glyph unicode="k" horiz-adv-x="1058" d="M61 0l248 1294q-89 15 -172 21l29 164q160 19 343 19q46 0 93 -1l-168 -889l443 469l202 -133l-407 -389l274 -555h-311l-217 516l-101 -516h-256z" />
<glyph unicode="l" horiz-adv-x="544" d="M61 0l248 1294q-91 16 -172 21l31 164q160 19 342 19q45 0 92 -1l-285 -1497h-256z" />
<glyph unicode="m" horiz-adv-x="1806" d="M100 838l31 163q168 20 342 20q42 0 84 -1q-32 -163 -92 -318h4q177 338 424 338q95 0 151 -50.5t56 -147.5q0 -43 -31 -148h2q78 155 185.5 250.5t240.5 95.5q141 0 193 -91q34 -59 34 -144q0 -47 -10 -103l-135 -702h-256l121 639q10 49 10 85q0 93 -68 93 q-59 0 -134.5 -82.5t-139 -214t-88.5 -262.5l-49 -258h-256l123 639q10 49 10 85q0 93 -68 93q-59 0 -135 -82.5t-139.5 -214t-87.5 -262.5l-49 -258h-256l155 817q-85 15 -172 21z" />
<glyph unicode="n" horiz-adv-x="1208" d="M100 838l31 163q168 20 342 20q42 0 84 -1q-26 -133 -92 -318h4q79 151 186 244.5t242 93.5q144 0 197 -91q33 -57 34 -141q0 -49 -12 -106l-131 -702h-258l121 639q10 51 10 87q0 30 -7 48q-15 41 -63 41q-66 0 -145 -89.5t-139.5 -219t-81.5 -248.5l-49 -258h-256 l155 817q-85 15 -172 21z" />
<glyph unicode="o" horiz-adv-x="1110" d="M59 348q0 188 75 345t215.5 251t318.5 94q105 0 183.5 -28t125 -78.5t69.5 -116t23 -145.5q0 -188 -75 -345t-215 -251t-318 -94q-105 0 -183.5 28t-125.5 78.5t-70 116t-23 145.5zM330 387q0 -84 42 -134t128 -50q75 0 135 41t94.5 106t52 137.5t17.5 143.5 q0 84 -42 135t-126 51q-76 0 -136.5 -41.5t-95 -107t-52 -138t-17.5 -143.5z" />
<glyph unicode="p" horiz-adv-x="1175" d="M23 -494l249 1311q-85 15 -172 21l31 163q168 20 342 20q42 0 84 -1q-24 -118 -92 -322l4 -2q79 159 187.5 251.5t238.5 92.5q240 0 240 -317q0 -117 -25 -225t-77.5 -202.5t-128 -164t-184.5 -109.5t-239 -40q-55 0 -110 8l-92 -484h-256zM412 205q66 -19 114 -19 q83 0 151 46t108 119t61.5 156.5t21.5 166.5q0 141 -75 141q-69 0 -149.5 -93t-139 -218t-80.5 -234z" />
<glyph unicode="q" horiz-adv-x="1110" d="M61 295q0 117 25 225t77.5 202.5t128 164t184.5 109.5t239 40q200 0 360 -32l-248 -1297q79 -13 172 -20l-28 -164q-167 -20 -348 -20q-44 0 -88 1l77 422q33 167 119 398h-4q-187 -347 -426 -347q-240 0 -240 318zM326 344q0 -141 77 -141q68 0 148.5 93t139 219.5 t79.5 236.5l14 65q-58 14 -114 14q-68 0 -126 -30.5t-97.5 -80t-67 -113.5t-40.5 -130.5t-13 -132.5z" />
<glyph unicode="r" horiz-adv-x="798" d="M100 838l31 163q168 20 341 20q42 0 83 -1q-18 -101 -88 -309h4q45 89 85 149.5t90 109t109 64.5q31 9 65 9q31 0 63 -7l-56 -254q-26 10 -52 10q-59 0 -119 -52q-86 -76 -148 -214t-94 -305l-41 -221h-256l155 817q-85 15 -172 21z" />
<glyph unicode="s" horiz-adv-x="794" d="M10 2l49 215q89 -35 189 -35q82 0 125 29.5t43 85.5q0 31 -21 61t-52.5 54t-68 55t-68 63t-52.5 81t-21 106q0 136 116.5 229.5t323.5 93.5q86 0 177 -16l-43 -203q-90 23 -150 23q-76 0 -116 -29t-40 -78q0 -37 29.5 -71.5t71.5 -66t83.5 -68t71 -92t29.5 -122.5 q0 -143 -119.5 -240t-343.5 -97q-123 0 -213 22z" />
<glyph unicode="t" horiz-adv-x="751" d="M84 815l39 203h170l59 313l266 53l-69 -366h239l-38 -203h-240l-86 -463q-9 -45 -8 -76q0 -30 8 -45q16 -32 78 -32q60 0 125 14l-21 -207q-110 -26 -209 -26q-163 0 -218 82q-33 50 -33 136q0 57 14 130l96 487h-172z" />
<glyph unicode="u" horiz-adv-x="1261" d="M96 838l31 163q173 20 350 20q43 0 86 -1l-123 -641q-10 -51 -9 -87q0 -30 6 -48q15 -41 65 -41q65 0 144 89.5t139 219t83 248.5l47 258h259l-158 -817q84 -15 170 -21l-31 -164q-157 -20 -326 -20q-47 0 -96 2q17 105 90 317h-4q-79 -151 -186 -244.5t-242 -93.5 q-143 0 -197 91q-34 58 -33 141q0 48 11 106l96 502q-85 15 -172 21z" />
<glyph unicode="v" horiz-adv-x="1015" d="M117 1018h268l68 -492q14 -140 14 -254h4l377 791l248 -76l-523 -987h-307z" />
<glyph unicode="w" horiz-adv-x="1597" d="M127 1018h276l33 -424q13 -204 13 -291h4q54 148 120 293l203 422h258l45 -422q15 -169 15 -295h4q51 143 116 293l213 469l244 -74l-489 -989h-283l-53 463q-10 127 -10 237h-2q-4 -9 -115 -268l-205 -432h-283z" />
<glyph unicode="x" horiz-adv-x="1058" d="M-51 66l430 452l-232 500h297l134 -336l331 395l203 -123l-391 -440l229 -514h-313l-129 344l-338 -405z" />
<glyph unicode="y" horiz-adv-x="1007" d="M-195 -504l41 225q50 -12 95 -12q104 0 186 82q58 58 84.5 133t26.5 195q0 364 -129 899h280q33 -151 56.5 -329.5t23.5 -272.5q0 -128 -20 -209h4q11 23 35.5 78.5t37.5 83.5q125 249 299 692l248 -70q-414 -962 -758 -1306q-101 -101 -198.5 -148t-218.5 -47z" />
<glyph unicode="z" horiz-adv-x="894" d="M4 0l35 186l491 600q-82 -4 -206 -4h-160l45 236h688l-35 -187l-481 -593q41 2 217 2h160l-45 -240h-709z" />
<glyph unicode="{" horiz-adv-x="727" d="M61 543l39 196q110 6 164.5 49.5t79.5 167.5l35 183q42 230 148.5 341t301.5 111h43l-38 -207q-101 0 -145 -47.5t-71 -193.5l-34 -182q-32 -161 -94.5 -237t-153.5 -89v-4q83 -13 117.5 -93t3.5 -235l-51 -268q-15 -76 -16 -122.5t14.5 -74t44 -37.5t79.5 -10l-41 -211 h-41q-194 0 -259.5 111t-20.5 346l55 276q24 123 -16.5 173.5t-143.5 56.5z" />
<glyph unicode="|" horiz-adv-x="577" d="M0 -494l391 2048h205l-391 -2048h-205z" />
<glyph unicode="}" horiz-adv-x="727" d="M-96 -420l39 211q99 0 142.5 48t70.5 196l55 280q58 305 250 332v4q-181 27 -125 320l33 172q15 76 16 122t-14.5 73t-44 36.5t-80.5 9.5l39 207h41q195 0 260 -111t20 -341l-35 -178q-24 -123 15.5 -169.5t144.5 -52.5l-37 -196q-109 -6 -164.5 -55t-80.5 -175l-54 -276 q-46 -243 -150 -350t-298 -107h-43z" />
<glyph unicode="~" d="M176 881q9 173 98.5 268.5t233.5 95.5q47 0 86 -12t65 -31t47.5 -41.5t38.5 -45.5t33 -42t36.5 -31t43.5 -12q98 0 117 166h194q-7 -174 -96.5 -269.5t-234.5 -95.5q-65 0 -114 22t-77.5 53.5t-51.5 62.5t-49.5 53t-58.5 22q-97 0 -116 -163h-195z" />
<glyph unicode="&#xa2;" d="M174 545q0 253 140.5 412.5t365.5 199.5l31 174h198l-30 -170q105 -3 202 -43l-96 -211q-82 45 -197 45q-151 0 -240 -96t-89 -254q0 -85 57.5 -134.5t165.5 -49.5q119 0 225 53l25 -209q-111 -48 -238 -61l-37 -201h-198l39 207q-144 16 -234 101.5t-90 236.5z" />
<glyph unicode="&#xa3;" d="M51 0l33 178q122 88 169 167.5t54 215.5h-192l39 203h170q-1 100 13 183t51 160.5t96 130.5t154.5 84.5t221.5 31.5q147 0 250 -33l-84 -219q-107 39 -201 39q-72 0 -120.5 -29.5t-72.5 -85t-33.5 -117.5t-8.5 -145h307l-39 -203h-280q-6 -121 -45.5 -196.5 t-131.5 -143.5q90 4 156 4h399l-41 -225h-864z" />
<glyph unicode="&#xa5;" d="M68 139l30 166h301l27 137h-301l33 166h299l8 37l-262 686h284l97 -295q23 -71 47 -172h2q52 83 119 178l204 289h293l-520 -684l-8 -39h301l-31 -166h-301l-26 -137h301l-31 -166h-301l-27 -139h-264l27 139h-301z" />
<glyph unicode="&#xa8;" horiz-adv-x="944" d="M295 1323q0 62 42.5 103.5t102.5 41.5q58 0 96.5 -39.5t38.5 -95.5q0 -62 -43 -104.5t-102 -42.5q-58 0 -96.5 40.5t-38.5 96.5zM700 1325q0 61 43 102t103 41q58 0 96.5 -39.5t38.5 -95.5q0 -62 -43 -104.5t-102 -42.5q-58 0 -97 40.5t-39 98.5z" />
<glyph unicode="&#xa9;" horiz-adv-x="1529" d="M106 647q0 153 60.5 290.5t160.5 234.5t234.5 153.5t278.5 56.5q139 0 263 -52t213 -140t141 -210.5t52 -258.5q0 -155 -60.5 -293.5t-161 -235t-234 -152.5t-277.5 -56q-188 0 -342 88.5t-241 240.5t-87 334zM305 657q0 -199 140 -340t341 -141q102 0 198 41t167.5 111 t114.5 169.5t43 211.5q0 129 -63.5 240t-174.5 176t-242 65q-139 0 -259 -69t-192.5 -192t-72.5 -272zM471 586q0 91 29 174.5t82 147.5t132.5 102.5t174.5 38.5q101 0 172 -31l-62 -172q-45 33 -120 33q-50 0 -89 -24t-61 -63t-33.5 -84t-11.5 -92q0 -114 111 -114 q81 0 147 28l6 -168q-91 -40 -205 -40q-130 0 -201 69.5t-71 194.5z" />
<glyph unicode="&#xab;" horiz-adv-x="1071" d="M111 612l288 389l189 -98l-230 -305l117 -307l-213 -90zM547 610l307 381l182 -98l-239 -295l131 -295l-209 -92z" />
<glyph unicode="&#xad;" horiz-adv-x="669" d="M90 463l41 211h492l-41 -211h-492z" />
<glyph unicode="&#xae;" horiz-adv-x="1132" d="M211 1057q0 142 70 258.5t183.5 180t242.5 63.5q191 0 320.5 -128t129.5 -319q0 -105 -41.5 -199t-110.5 -159t-159.5 -102.5t-186.5 -37.5q-190 0 -319 127.5t-129 315.5zM371 1071q0 -127 86 -219t211 -92q132 0 230.5 100t98.5 246q0 125 -86.5 216t-210.5 91 q-133 0 -231 -99t-98 -243zM479 864l86 457h176q146 0 146 -104q0 -112 -119 -154q5 -8 25 -59l41 -140h-142l-43 174h-18l-33 -174h-119zM649 1122h23q34 0 56 19.5t22 50.5q0 35 -48 35h-34z" />
<glyph unicode="&#xb4;" horiz-adv-x="702" d="M285 1272l350 291l117 -160l-373 -260z" />
<glyph unicode="&#xb8;" horiz-adv-x="559" d="M-43 -479q61 62 89 112.5t26 104.5t-39 115l225 65q108 -206 -92 -397h-209z" />
<glyph unicode="&#xbb;" horiz-adv-x="1071" d="M86 309l242 295l-131 295l209 92l172 -399l-308 -381zM535 299l231 305l-115 307l213 90l150 -411l-291 -389z" />
<glyph unicode="&#xc1;" horiz-adv-x="1255" d="M-82 0l715 1382h340l192 -1382h-280l-37 295h-510l-150 -295h-270zM436 506h391l-57 432q-11 108 -14 207h-4q-8 -18 -25.5 -60t-33.5 -79t-31 -66zM664 1614l442 149l27 -192l-451 -105z" />
<glyph unicode="&#xc9;" horiz-adv-x="1024" d="M53 0l262 1382h768l-43 -223h-505l-66 -340h463l-41 -217h-461l-72 -373h506l-43 -229h-768zM559 1614l442 149l27 -192l-450 -105z" />
<glyph unicode="&#xcd;" horiz-adv-x="542" d="M53 0l262 1382h263l-263 -1382h-262zM322 1614l442 149l27 -192l-451 -105z" />
<glyph unicode="&#xd3;" horiz-adv-x="1431" d="M94 481q0 147 36.5 285t107 253.5t167.5 202t225 135t271 48.5q132 0 233 -36.5t164.5 -104t95 -158.5t31.5 -203q0 -185 -58 -353t-161 -295t-256 -202.5t-332 -75.5q-262 0 -393 135.5t-131 368.5zM379 524q0 -144 70.5 -225.5t216.5 -81.5q109 0 200.5 56t150.5 147.5 t91.5 205t32.5 232.5q0 144 -71.5 225.5t-215.5 81.5q-109 0 -200.5 -56t-150.5 -147.5t-91.5 -205t-32.5 -232.5zM782 1614l443 149l26 -192l-450 -105z" />
<glyph unicode="&#xda;" horiz-adv-x="1366" d="M150 506l165 876h263l-172 -897q-28 -145 22.5 -215.5t196.5 -70.5q155 0 238.5 77t117.5 254l164 852h258l-168 -874q-102 -531 -647 -531q-540 0 -438 529zM813 1614l442 149l27 -192l-451 -105z" />
<glyph unicode="&#xdd;" d="M172 1382h279l114 -389q25 -89 51 -219h2q65 109 150 238l252 370h285l-605 -872l-96 -510h-260l96 508zM680 1614l442 149l27 -192l-451 -105z" />
<glyph unicode="&#xe1;" horiz-adv-x="1165" d="M61 295q0 117 25 225t77.5 202.5t128 164t184.5 109.5t239 40q210 0 360 -30l-153 -805q84 -15 170 -21l-31 -164q-201 -25 -424 -18q28 129 94 326h-4q-187 -347 -426 -347q-240 0 -240 318zM326 344q0 -141 77 -141q68 0 148.5 93t139 219.5t79.5 236.5l14 65 q-58 14 -114 14q-68 0 -126 -30.5t-97.5 -80t-67 -113.5t-40.5 -130.5t-13 -132.5zM584 1272l350 291l117 -160l-373 -260z" />
<glyph unicode="&#xe9;" horiz-adv-x="989" d="M61 324q0 156 45.5 290.5t123.5 227t183.5 144.5t223.5 52q91 0 157.5 -21t102.5 -57t53 -78t17 -91q0 -179 -167 -272.5t-474 -102.5q-7 -35 -7 -80q0 -87 40 -118.5t147 -31.5q143 0 295 60l4 -201q-174 -65 -383 -65q-191 0 -276 85.5t-85 258.5zM354 590 q359 12 359 166q0 42 -28.5 65t-78.5 23q-93 0 -157 -72t-95 -182zM510 1272l350 291l117 -160l-373 -260z" />
<glyph unicode="&#xed;" horiz-adv-x="602" d="M100 838l31 163q207 25 436 19l-194 -1020h-256l155 817q-85 15 -172 21zM305 1245l285 328l153 -123l-313 -309z" />
<glyph unicode="&#xf3;" horiz-adv-x="1110" d="M59 348q0 188 75 345t215.5 251t318.5 94q105 0 183.5 -28t125 -78.5t69.5 -116t23 -145.5q0 -188 -75 -345t-215 -251t-318 -94q-105 0 -183.5 28t-125.5 78.5t-70 116t-23 145.5zM330 387q0 -84 42 -134t128 -50q75 0 135 41t94.5 106t52 137.5t17.5 143.5 q0 84 -42 135t-126 51q-76 0 -136.5 -41.5t-95 -107t-52 -138t-17.5 -143.5zM563 1272l350 291l117 -160l-373 -260z" />
<glyph unicode="&#xfa;" horiz-adv-x="1261" d="M96 838l31 163q214 25 436 19l-123 -641q-18 -94 -3 -135t65 -41q65 0 144 89.5t139 219t83 248.5l47 258h259l-158 -817q84 -15 170 -21l-31 -164q-201 -25 -422 -18q17 105 90 317h-4q-79 -151 -186 -244.5t-242 -93.5q-143 0 -196.5 91t-22.5 247l96 502 q-85 15 -172 21zM639 1272l350 291l117 -160l-373 -260z" />
<glyph unicode="&#xfd;" horiz-adv-x="1007" d="M-195 -504l41 225q50 -12 95 -12q104 0 186 82q58 58 84.5 133t26.5 195q0 364 -129 899h280q33 -151 56.5 -329.5t23.5 -272.5q0 -128 -20 -209h4q11 23 35.5 78.5t37.5 83.5q125 249 299 692l248 -70q-414 -962 -758 -1306q-101 -101 -198.5 -148t-218.5 -47zM543 1272 l350 291l117 -160l-373 -260z" />
<glyph unicode="&#x100;" horiz-adv-x="1255" d="M-82 0l715 1382h340l192 -1382h-280l-37 295h-510l-150 -295h-270zM436 506h391l-57 432q-11 108 -14 207h-4q-8 -18 -25.5 -60t-33.5 -79t-31 -66zM526 1518l33 165h588l-31 -165h-590z" />
<glyph unicode="&#x101;" horiz-adv-x="1165" d="M61 295q0 117 25 225t77.5 202.5t128 164t184.5 109.5t239 40q210 0 360 -30l-153 -805q84 -15 170 -21l-31 -164q-201 -25 -424 -18q28 129 94 326h-4q-187 -347 -426 -347q-240 0 -240 318zM326 344q0 -141 77 -141q68 0 148.5 93t139 219.5t79.5 236.5l14 65 q-58 14 -114 14q-68 0 -126 -30.5t-97.5 -80t-67 -113.5t-40.5 -130.5t-13 -132.5zM459 1229l35 188h542l-37 -188h-540z" />
<glyph unicode="&#x102;" horiz-adv-x="1255" d="M-82 0l715 1382h340l192 -1382h-280l-37 295h-510l-150 -295h-270zM436 506h391l-57 432q-11 108 -14 207h-4q-8 -18 -25.5 -60t-33.5 -79t-31 -66zM582 1759h151q-11 -51 19 -84t90 -33q63 0 102.5 31t50.5 86h156q-11 -57 -35.5 -105.5t-63 -88t-97 -62t-130.5 -22.5 q-137 0 -201.5 81t-41.5 197z" />
<glyph unicode="&#x103;" horiz-adv-x="1165" d="M61 295q0 117 25 225t77.5 202.5t128 164t184.5 109.5t239 40q210 0 360 -30l-153 -805q84 -15 170 -21l-31 -164q-201 -25 -424 -18q28 129 94 326h-4q-187 -347 -426 -347q-240 0 -240 318zM326 344q0 -141 77 -141q68 0 148.5 93t139 219.5t79.5 236.5l14 65 q-58 14 -114 14q-68 0 -126 -30.5t-97.5 -80t-67 -113.5t-40.5 -130.5t-13 -132.5zM492 1359.5q-8 56.5 6 115.5h161q-9 -56 12 -90.5t72 -34.5q52 0 87 31.5t47 93.5h170q-24 -135 -106.5 -224.5t-219.5 -89.5q-71 0 -122 27t-75 71t-32 100.5z" />
<glyph unicode="&#x104;" horiz-adv-x="1255" d="M-82 0l715 1382h340l192 -1382q-129 -62 -186 -127t-57 -117q0 -47 57 -47q63 0 139 49l47 -149q-125 -94 -266 -94q-106 0 -166.5 52t-60.5 128q0 168 213 313l-37 287h-510l-150 -295h-270zM436 506h391l-57 432q-11 108 -14 207h-4q-8 -18 -25.5 -60t-33.5 -79 t-31 -66z" />
<glyph unicode="&#x105;" horiz-adv-x="1165" d="M61 295q0 117 25 225t77.5 202.5t128 164t184.5 109.5t239 40q210 0 360 -30l-102 -539q-32 -179 -39 -268q59 -12 158 -19l-31 -164q-91 -10 -165 -41t-115.5 -71t-63 -78.5t-21.5 -69.5q0 -47 58 -47q63 0 139 49l47 -149q-125 -94 -266 -94q-106 0 -167 52t-61 128 q0 168 226 323q2 76 14 143t45 163h-4q-187 -347 -426 -347q-240 0 -240 318zM326 344q0 -141 77 -141q68 0 148.5 93t139 219.5t79.5 236.5l14 65q-58 14 -114 14q-68 0 -126 -30.5t-97.5 -80t-67 -113.5t-40.5 -130.5t-13 -132.5z" />
<glyph unicode="&#x106;" horiz-adv-x="1136" d="M98 467q0 93 14.5 185.5t46 184.5t78 174.5t113 154t147.5 123t186.5 81t225.5 29.5q160 0 301 -51l-77 -242q-125 53 -248 53q-103 0 -188.5 -41t-140.5 -106.5t-93.5 -151.5t-55 -171.5t-16.5 -170.5q0 -293 299 -293q130 0 289 64l2 -240q-191 -65 -367 -65 q-89 0 -162.5 16t-126 42.5t-93 65t-65.5 80.5t-41 91t-22 94.5t-6 93.5zM745 1614l443 149l26 -192l-450 -105z" />
<glyph unicode="&#x107;" horiz-adv-x="827" d="M61 332q0 195 71 354.5t208 254.5t317 95q99 0 207 -24l-61 -230q-78 33 -160 33q-77 0 -138 -39.5t-96.5 -103t-54 -136.5t-18.5 -147q0 -182 178 -182q103 0 188 37l-14 -221q-118 -41 -250 -41q-377 0 -377 350zM500 1245l284 328l154 -123l-313 -309z" />
<glyph unicode="&#x108;" horiz-adv-x="1136" d="M98 467q0 93 14.5 185.5t46 184.5t78 174.5t113 154t147.5 123t186.5 81t225.5 29.5q160 0 301 -51l-77 -242q-125 53 -248 53q-103 0 -188.5 -41t-140.5 -106.5t-93.5 -151.5t-55 -171.5t-16.5 -170.5q0 -293 299 -293q130 0 289 64l2 -240q-191 -65 -367 -65 q-89 0 -162.5 16t-126 42.5t-93 65t-65.5 80.5t-41 91t-22 94.5t-6 93.5zM565 1602l367 170l299 -173l-84 -135l-250 113l-295 -113z" />
<glyph unicode="&#x109;" horiz-adv-x="827" d="M61 332q0 195 71 354.5t208 254.5t317 95q99 0 207 -24l-61 -230q-78 33 -160 33q-77 0 -138 -39.5t-96.5 -103t-54 -136.5t-18.5 -147q0 -182 178 -182q103 0 188 37l-14 -221q-118 -41 -250 -41q-377 0 -377 350zM326 1268l360 276l256 -278l-121 -119l-176 166 l-242 -166z" />
<glyph unicode="&#x10a;" horiz-adv-x="1136" d="M98 467q0 93 14.5 185.5t46 184.5t78 174.5t113 154t147.5 123t186.5 81t225.5 29.5q160 0 301 -51l-77 -242q-125 53 -248 53q-103 0 -188.5 -41t-140.5 -106.5t-93.5 -151.5t-55 -171.5t-16.5 -170.5q0 -293 299 -293q130 0 289 64l2 -240q-191 -65 -367 -65 q-89 0 -162.5 16t-126 42.5t-93 65t-65.5 80.5t-41 91t-22 94.5t-6 93.5zM762 1616q0 71 48 118.5t114 47.5q62 0 103.5 -44t41.5 -104q0 -70 -47.5 -118t-112.5 -48q-63 0 -105 44t-42 104z" />
<glyph unicode="&#x10b;" horiz-adv-x="827" d="M61 332q0 195 71 354.5t208 254.5t317 95q99 0 207 -24l-61 -230q-78 33 -160 33q-77 0 -138 -39.5t-96.5 -103t-54 -136.5t-18.5 -147q0 -182 178 -182q103 0 188 37l-14 -221q-118 -41 -250 -41q-377 0 -377 350zM510 1319q0 71 47 117.5t113 46.5q63 0 105 -46 t42 -106q0 -70 -46.5 -116t-113.5 -46q-63 0 -105 45t-42 105z" />
<glyph unicode="&#x10c;" horiz-adv-x="1136" d="M98 467q0 93 14.5 185.5t46 184.5t78 174.5t113 154t147.5 123t186.5 81t225.5 29.5q160 0 301 -51l-77 -242q-125 53 -248 53q-103 0 -188.5 -41t-140.5 -106.5t-93.5 -151.5t-55 -171.5t-16.5 -170.5q0 -293 299 -293q130 0 289 64l2 -240q-191 -65 -367 -65 q-89 0 -162.5 16t-126 42.5t-93 65t-65.5 80.5t-41 91t-22 94.5t-6 93.5zM575 1638l82 134l250 -113l297 113l39 -138l-366 -170z" />
<glyph unicode="&#x10d;" horiz-adv-x="827" d="M61 332q0 195 71 354.5t208 254.5t317 95q99 0 207 -24l-61 -230q-78 33 -160 33q-77 0 -138 -39.5t-96.5 -103t-54 -136.5t-18.5 -147q0 -182 178 -182q103 0 188 37l-14 -221q-118 -41 -250 -41q-377 0 -377 350zM373 1423l121 121l174 -168l243 168l78 -123l-360 -274 z" />
<glyph unicode="&#x10e;" horiz-adv-x="1339" d="M53 2l262 1378q292 11 433 11q291 0 436 -127.5t145 -372.5q0 -141 -34.5 -272t-106.5 -245.5t-175 -199t-249.5 -133.5t-319.5 -49q-104 0 -391 10zM358 229q58 -10 125 -10q120 0 218.5 42t161 108.5t105.5 153t61 172t18 169.5q0 147 -77.5 225t-262.5 78 q-109 0 -170 -6zM479 1638l82 134l250 -113l297 113l39 -138l-367 -170z" />
<glyph unicode="&#x10f;" horiz-adv-x="1216" d="M61 295q0 117 25 225t77.5 202.5t128 164t184.5 109.5t239 40q51 0 108 -8l51 266q-91 16 -172 21l31 164q200 24 436 18l-247 -1296q84 -15 170 -21l-31 -164q-201 -25 -422 -18q18 105 92 326h-4q-187 -347 -426 -347q-240 0 -240 318zM326 344q0 -141 77 -141 q68 0 148.5 93t139 219.5t79.5 236.5l14 65q-58 14 -114 14q-68 0 -126 -30.5t-97.5 -80t-67 -113.5t-40.5 -130.5t-13 -132.5zM1176 1171l178 418l198 -47l-217 -409z" />
<glyph unicode="&#x110;" horiz-adv-x="1357" d="M37 606l39 203h149l107 571q292 11 432 11q291 0 436.5 -127.5t145.5 -372.5q0 -141 -34.5 -271.5t-106.5 -245t-175 -199.5t-249.5 -134t-319.5 -49q-184 0 -389 10l116 604h-151zM373 229q58 -10 127 -10q120 0 218 41t160.5 106.5t105.5 151.5t61 172.5t18 173.5 q0 147 -77.5 225t-262.5 78q-43 0 -172 -6l-70 -352h248l-39 -203h-246z" />
<glyph unicode="&#x111;" horiz-adv-x="1175" d="M61 295q0 117 25 225t77.5 202.5t128 164t184.5 109.5t239 40q61 0 108 -8l17 78h-246l35 166h241l17 86q-75 13 -170 20l26 140q229 24 435 16l-50 -262h121l-35 -166h-118l-174 -905q84 -15 170 -21l-31 -164q-201 -25 -422 -18q18 105 92 326h-4q-187 -347 -426 -347 q-240 0 -240 318zM326 344q0 -141 77 -141q68 0 148.5 93t139 219.5t79.5 236.5l14 65q-58 14 -114 14q-68 0 -126 -30.5t-97.5 -80t-67 -113.5t-40.5 -130.5t-13 -132.5z" />
<glyph unicode="&#x112;" horiz-adv-x="1024" d="M53 0l262 1382h768l-43 -223h-505l-66 -340h463l-41 -217h-461l-72 -373h506l-43 -229h-768zM420 1518l33 165h587l-30 -165h-590z" />
<glyph unicode="&#x113;" horiz-adv-x="989" d="M61 324q0 156 45.5 290.5t123.5 227t183.5 144.5t223.5 52q91 0 157.5 -21t102.5 -57t53 -78t17 -91q0 -179 -167 -272.5t-474 -102.5q-7 -35 -7 -80q0 -87 40 -118.5t147 -31.5q143 0 295 60l4 -201q-174 -65 -383 -65q-191 0 -276 85.5t-85 258.5zM354 590 q359 12 359 166q0 42 -28.5 65t-78.5 23q-93 0 -157 -72t-95 -182zM383 1229l35 188h543l-37 -188h-541z" />
<glyph unicode="&#x114;" horiz-adv-x="1024" d="M53 0l262 1382h768l-43 -223h-505l-66 -340h463l-41 -217h-461l-72 -373h506l-43 -229h-768zM485 1759h152q-11 -51 18.5 -84t89.5 -33q64 0 103.5 31t50.5 86h156q-11 -57 -35.5 -105.5t-63 -88t-97 -62t-130.5 -22.5q-137 0 -202 81t-42 197z" />
<glyph unicode="&#x115;" horiz-adv-x="989" d="M61 324q0 156 45.5 290.5t123.5 227t183.5 144.5t223.5 52q91 0 157.5 -21t102.5 -57t53 -78t17 -91q0 -179 -167 -272.5t-474 -102.5q-7 -35 -7 -80q0 -87 40 -118.5t147 -31.5q143 0 295 60l4 -201q-174 -65 -383 -65q-191 0 -276 85.5t-85 258.5zM354 590 q359 12 359 166q0 42 -28.5 65t-78.5 23q-93 0 -157 -72t-95 -182zM424 1359.5q-8 56.5 6 115.5h162q-9 -56 12 -90.5t72 -34.5q109 0 133 125h170q-24 -135 -106.5 -224.5t-219.5 -89.5q-71 0 -122 27t-75 71t-32 100.5z" />
<glyph unicode="&#x116;" horiz-adv-x="1024" d="M53 0l262 1382h768l-43 -223h-505l-66 -340h463l-41 -217h-461l-72 -373h506l-43 -229h-768zM586 1616q0 71 48 118.5t114 47.5q62 0 103.5 -44t41.5 -104q0 -70 -47.5 -118t-112.5 -48q-63 0 -105 44t-42 104z" />
<glyph unicode="&#x117;" horiz-adv-x="989" d="M61 324q0 156 45.5 290.5t123.5 227t183.5 144.5t223.5 52q91 0 157.5 -21t102.5 -57t53 -78t17 -91q0 -179 -167 -272.5t-474 -102.5q-7 -35 -7 -80q0 -87 40 -118.5t147 -31.5q143 0 295 60l4 -201q-174 -65 -383 -65q-191 0 -276 85.5t-85 258.5zM354 590 q359 12 359 166q0 42 -28.5 65t-78.5 23q-93 0 -157 -72t-95 -182zM520 1331q0 71 47 117.5t113 46.5q63 0 105 -46t42 -106q0 -70 -46 -115.5t-113 -45.5q-63 0 -105.5 44.5t-42.5 104.5z" />
<glyph unicode="&#x118;" horiz-adv-x="1024" d="M53 0l262 1382h768l-43 -223h-505l-66 -340h463l-41 -217h-461l-72 -373h506l-43 -223q-133 -57 -196.5 -127t-63.5 -123q0 -47 57 -47q67 0 140 49l49 -149q-125 -94 -268 -94q-106 0 -166 52t-60 128q0 87 54.5 165t152.5 140h-467z" />
<glyph unicode="&#x119;" horiz-adv-x="989" d="M61 324q0 156 45.5 290.5t123.5 227t183.5 144.5t223.5 52q91 0 157.5 -21t102.5 -57t53 -78t17 -91q0 -98 -50 -170.5t-141 -115t-202 -64t-248 -25.5q-7 -35 -7 -80q0 -87 40 -118.5t147 -31.5q143 0 295 60l4 -199q-145 -77 -218 -154.5t-73 -136.5q0 -47 55 -47 q66 0 142 49l47 -149q-125 -94 -266 -94q-106 0 -167 52t-61 128q0 159 178 287h-36q-169 0 -257 81t-88 261zM354 590q181 6 270 46t89 120q0 42 -28.5 65t-78.5 23q-93 0 -157 -72t-95 -182z" />
<glyph unicode="&#x11a;" horiz-adv-x="1024" d="M53 0l262 1382h768l-43 -223h-505l-66 -340h463l-41 -217h-461l-72 -373h506l-43 -229h-768zM403 1638l82 134l250 -113l297 113l39 -138l-366 -170z" />
<glyph unicode="&#x11b;" horiz-adv-x="989" d="M61 324q0 156 45.5 290.5t123.5 227t183.5 144.5t223.5 52q91 0 157.5 -21t102.5 -57t53 -78t17 -91q0 -179 -167 -272.5t-474 -102.5q-7 -35 -7 -80q0 -87 40 -118.5t147 -31.5q143 0 295 60l4 -201q-174 -65 -383 -65q-191 0 -276 85.5t-85 258.5zM354 590 q359 12 359 166q0 42 -28.5 65t-78.5 23q-93 0 -157 -72t-95 -182zM379 1423l121 121l174 -168l244 168l77 -123l-360 -274z" />
<glyph unicode="&#x11c;" horiz-adv-x="1353" d="M98 506q0 135 36 264.5t110.5 244t177.5 201t247.5 137t311.5 50.5q202 0 385 -55l-78 -246q-167 63 -336 63q-115 0 -212 -37.5t-162 -99.5t-110.5 -143.5t-66 -168t-20.5 -175.5q0 -150 83 -236t257 -86q105 0 197 27l90 479h262l-127 -664q-219 -81 -469 -81 q-289 0 -432.5 138.5t-143.5 387.5zM645 1602l367 170l299 -173l-84 -135l-250 113l-295 -113z" />
<glyph unicode="&#x11d;" horiz-adv-x="1110" d="M-39 -471l64 235q137 -53 278 -53t218.5 60.5t103.5 195.5q29 150 104 350l-4 2q-186 -342 -424 -342q-240 0 -240 318q0 117 25 225t77.5 202.5t128 164t184.5 109.5t239 40q168 0 360 -30l-205 -1069q-20 -108 -63.5 -189t-116 -139.5t-180.5 -88.5t-250 -30 q-171 0 -299 39zM326 344q0 -141 77 -141q68 0 148.5 93t139 219.5t79.5 236.5l14 65q-58 14 -114 14q-68 0 -126 -30.5t-97.5 -80t-67 -113.5t-40.5 -130.5t-13 -132.5zM416 1268l360 276l256 -278l-121 -119l-176 166l-241 -166z" />
<glyph unicode="&#x11e;" horiz-adv-x="1353" d="M98 506q0 135 36 264.5t110.5 244t177.5 201t247.5 137t311.5 50.5q202 0 385 -55l-78 -246q-167 63 -336 63q-115 0 -212 -37.5t-162 -99.5t-110.5 -143.5t-66 -168t-20.5 -175.5q0 -150 83 -236t257 -86q105 0 197 27l90 479h262l-127 -664q-219 -81 -469 -81 q-289 0 -432.5 138.5t-143.5 387.5zM743 1759h152q-11 -51 19 -84t90 -33q63 0 102.5 31t50.5 86h156q-11 -57 -35.5 -105.5t-63 -88t-97 -62t-130.5 -22.5q-137 0 -202 81t-42 197z" />
<glyph unicode="&#x11f;" horiz-adv-x="1110" d="M-39 -471l64 235q137 -53 278 -53t218.5 60.5t103.5 195.5q29 150 104 350l-4 2q-186 -342 -424 -342q-240 0 -240 318q0 117 25 225t77.5 202.5t128 164t184.5 109.5t239 40q168 0 360 -30l-205 -1069q-20 -108 -63.5 -189t-116 -139.5t-180.5 -88.5t-250 -30 q-171 0 -299 39zM326 344q0 -141 77 -141q68 0 148.5 93t139 219.5t79.5 236.5l14 65q-58 14 -114 14q-68 0 -126 -30.5t-97.5 -80t-67 -113.5t-40.5 -130.5t-13 -132.5zM488 1359.5q-8 56.5 6 115.5h161q-9 -56 12 -90.5t72 -34.5q109 0 133 125h170q-24 -135 -106 -224.5 t-219 -89.5q-71 0 -122 27t-75 71t-32 100.5z" />
<glyph unicode="&#x120;" horiz-adv-x="1353" d="M98 506q0 135 36 264.5t110.5 244t177.5 201t247.5 137t311.5 50.5q202 0 385 -55l-78 -246q-167 63 -336 63q-115 0 -212 -37.5t-162 -99.5t-110.5 -143.5t-66 -168t-20.5 -175.5q0 -150 83 -236t257 -86q105 0 197 27l90 479h262l-127 -664q-219 -81 -469 -81 q-289 0 -432.5 138.5t-143.5 387.5zM838 1628q0 71 47.5 118.5t113.5 47.5q62 0 104 -43.5t42 -103.5q0 -70 -47.5 -118t-112.5 -48q-63 0 -105 43.5t-42 103.5z" />
<glyph unicode="&#x121;" horiz-adv-x="1110" d="M-39 -471l64 235q137 -53 278 -53t218.5 60.5t103.5 195.5q29 150 104 350l-4 2q-186 -342 -424 -342q-240 0 -240 318q0 117 25 225t77.5 202.5t128 164t184.5 109.5t239 40q168 0 360 -30l-205 -1069q-20 -108 -63.5 -189t-116 -139.5t-180.5 -88.5t-250 -30 q-171 0 -299 39zM326 344q0 -141 77 -141q68 0 148.5 93t139 219.5t79.5 236.5l14 65q-58 14 -114 14q-68 0 -126 -30.5t-97.5 -80t-67 -113.5t-40.5 -130.5t-13 -132.5zM592 1331q0 71 47 117.5t113 46.5q63 0 105 -46t42 -106q0 -70 -46.5 -115.5t-113.5 -45.5 q-63 0 -105 44.5t-42 104.5z" />
<glyph unicode="&#x122;" horiz-adv-x="1353" d="M98 506q0 135 36 264.5t110.5 244t177.5 201t247.5 137t311.5 50.5q202 0 385 -55l-78 -246q-167 63 -336 63q-115 0 -212 -37.5t-162 -99.5t-110.5 -143.5t-66 -168t-20.5 -175.5q0 -150 83 -236t257 -86q105 0 197 27l90 479h262l-127 -664q-219 -81 -469 -81 q-289 0 -432.5 138.5t-143.5 387.5zM406 -393q146 54 120 155q-12 57 20 99.5t93 42.5q73 0 105 -61q35 -67 -3 -149q-51 -108 -202 -161q-47 -17 -101 -27z" />
<glyph unicode="&#x123;" horiz-adv-x="1110" d="M-39 -471l64 235q137 -53 278 -53t218.5 60.5t103.5 195.5q29 150 104 350l-4 2q-186 -342 -424 -342q-240 0 -240 318q0 117 25 225t77.5 202.5t128 164t184.5 109.5t239 40q168 0 360 -30l-205 -1069q-20 -108 -63.5 -189t-116 -139.5t-180.5 -88.5t-250 -30 q-171 0 -299 39zM326 344q0 -141 77 -141q68 0 148.5 93t139 219.5t79.5 236.5l14 65q-58 14 -114 14q-68 0 -126 -30.5t-97.5 -80t-67 -113.5t-40.5 -130.5t-13 -132.5zM611 1211q-36 67 3 148q50 109 201 161q46 17 100 26l33 -100q-147 -53 -121 -156q12 -57 -18.5 -99 t-93.5 -42q-72 0 -104 62z" />
<glyph unicode="&#x124;" horiz-adv-x="1378" d="M53 0l262 1382h263l-107 -553h576l104 553h262l-262 -1382h-262l115 600h-574l-115 -600h-262zM573 1602l367 170l299 -173l-84 -135l-250 113l-295 -113z" />
<glyph unicode="&#x125;" horiz-adv-x="1155" d="M61 0l248 1294q-89 15 -172 21l29 164q200 24 436 18l-80 -432q-26 -128 -110 -363h4q77 151 184.5 244.5t243.5 93.5q142 0 195 -91t24 -247l-135 -702h-256l123 639q16 94 1 135t-63 41q-65 0 -144 -89.5t-139 -219t-83 -248.5l-50 -258h-256zM469 1681l367 170 l299 -172l-84 -135l-250 113l-295 -113z" />
<glyph unicode="&#x126;" horiz-adv-x="1417" d="M74 0l188 987h-131l39 217h131l35 178h262l-35 -178h574l34 178h263l-35 -178h131l-41 -217h-131l-187 -987h-262l107 567h-576l-104 -567h-262zM483 784h574l39 203h-574z" />
<glyph unicode="&#x127;" horiz-adv-x="1173" d="M80 0l209 1098h-166l33 174h166l16 86q-73 13 -170 20l27 140q226 25 432 16l-49 -262h239l-35 -174h-237l-23 -103q-20 -92 -94 -293h4q79 151 186 244.5t242 93.5q143 0 196.5 -91t22.5 -247l-133 -702h-256l121 639q18 94 3.5 135t-62.5 41q-65 0 -144.5 -89.5 t-140.5 -218.5t-82 -247l-49 -260h-256z" />
<glyph unicode="&#x128;" horiz-adv-x="542" d="M53 0l262 1382h263l-263 -1382h-262zM115 1589q97 168 258 168q46 0 85.5 -15t62 -33t50.5 -33t54 -15q64 0 120 86l123 -88q-102 -168 -256 -168q-47 0 -87 15t-62.5 33t-50.5 33t-54 15q-63 0 -120 -88z" />
<glyph unicode="&#x129;" horiz-adv-x="602" d="M100 838l31 163q207 25 436 19l-194 -1020h-256l155 817q-85 15 -172 21zM123 1286q34 83 93.5 132.5t139.5 49.5q43 0 82.5 -24t69 -48t47.5 -24q46 0 98 86l113 -92q-81 -180 -234 -180q-34 0 -66 15t-52 33t-42 33t-38 15q-27 0 -53 -25.5t-43 -60.5z" />
<glyph unicode="&#x12a;" horiz-adv-x="542" d="M53 0l262 1382h263l-263 -1382h-262zM178 1518l33 165h588l-31 -165h-590z" />
<glyph unicode="&#x12b;" horiz-adv-x="602" d="M100 838l31 163q207 25 436 19l-194 -1020h-256l155 817q-85 15 -172 21zM188 1229l39 188h512l-37 -188h-514z" />
<glyph unicode="&#x12c;" horiz-adv-x="542" d="M53 0l262 1382h263l-263 -1382h-262zM231 1759h152q-11 -51 19 -84t90 -33q63 0 102.5 31t50.5 86h156q-11 -57 -35.5 -105.5t-63 -88t-97 -62t-130.5 -22.5q-137 0 -202 81t-42 197z" />
<glyph unicode="&#x12d;" horiz-adv-x="602" d="M100 838l31 163q207 25 436 19l-194 -1020h-256l155 817q-85 15 -172 21zM233 1475h164q-11 -53 7.5 -89t62.5 -36q42 0 73.5 33.5t41.5 91.5h168q-28 -152 -106 -233t-202 -81q-126 0 -181.5 83t-27.5 231z" />
<glyph unicode="&#x12e;" horiz-adv-x="542" d="M-133 -305q0 166 188 309l260 1378h263l-263 -1382q-104 -67 -151 -130.5t-47 -113.5q0 -47 57 -47q63 0 139 49l49 -149q-125 -94 -268 -94q-106 0 -166.5 52t-60.5 128z" />
<glyph unicode="&#x12f;" horiz-adv-x="602" d="M-88 -305q0 83 53 163t152 146l155 813q-85 15 -172 21l31 163q207 25 436 19l-196 -1020q-109 -67 -159 -132.5t-50 -111.5q0 -47 57 -47q63 0 139 49l50 -149q-125 -94 -269 -94q-106 0 -166.5 52t-60.5 128zM332 1315q0 73 51.5 122.5t120.5 49.5q65 0 108 -43 t43 -101q0 -75 -51.5 -124.5t-120.5 -49.5q-66 0 -108.5 43.5t-42.5 102.5z" />
<glyph unicode="&#x130;" horiz-adv-x="542" d="M53 0l262 1382h263l-263 -1382h-262zM340 1616q0 71 48 118.5t114 47.5q62 0 103.5 -44t41.5 -104q0 -70 -47.5 -118t-112.5 -48q-63 0 -105 44t-42 104z" />
<glyph unicode="&#x131;" horiz-adv-x="602" d="M100 838l31 163q207 25 436 19l-194 -1020h-256l155 817q-85 15 -172 21z" />
<glyph unicode="&#x132;" horiz-adv-x="1222" d="M53 0l262 1382h263l-263 -1382h-262zM438 -2l41 229q55 -20 133 -20q79 0 129.5 45t71.5 149l186 981h261l-193 -1003q-77 -397 -449 -397q-94 0 -180 16z" />
<glyph unicode="&#x133;" horiz-adv-x="1202" d="M100 838l31 163q207 25 436 19l-194 -1020h-256l155 817q-85 15 -172 21zM332 1315q0 73 51.5 122.5t120.5 49.5q65 0 108 -43t43 -101q0 -75 -51.5 -124.5t-120.5 -49.5q-66 0 -108.5 43.5t-42.5 102.5zM354 -492l54 224q52 -21 108 -21q82 0 123 51t68 181l167 874 q-85 15 -172 21l31 163q207 25 436 19l-211 -1106q-42 -210 -150.5 -316t-315.5 -106q-79 0 -138 16zM934 1315q0 73 52.5 122.5t121.5 49.5q64 0 108 -43.5t44 -100.5q0 -74 -52.5 -124t-122.5 -50q-66 0 -108.5 43.5t-42.5 102.5z" />
<glyph unicode="&#x134;" horiz-adv-x="696" d="M-86 -2l41 229q55 -20 133 -20q79 0 129.5 45t71.5 149l186 981h260l-192 -1003q-77 -397 -449 -397q-94 0 -180 16zM305 1602l367 170l299 -173l-84 -135l-250 113l-295 -113z" />
<glyph unicode="&#x135;" horiz-adv-x="602" d="M-246 -492l53 224q52 -21 109 -21q82 0 122.5 50.5t67.5 181.5l168 874q-85 15 -172 21l31 163q207 25 436 19l-211 -1106q-42 -210 -151 -316t-316 -106q-78 0 -137 16zM190 1268l328 274l223 -278l-116 -117l-148 166l-215 -166z" />
<glyph unicode="&#x136;" horiz-adv-x="1198" d="M53 0l262 1382h263l-119 -622l549 622h331l-632 -682l376 -700h-325l-316 664l-127 -664h-262zM240 -393q146 54 120 155q-12 57 20 99.5t93 42.5q73 0 105 -61q35 -67 -3 -149q-51 -108 -202 -161q-47 -17 -101 -27z" />
<glyph unicode="&#x137;" horiz-adv-x="1058" d="M61 0l248 1294q-89 15 -172 21l29 164q200 24 436 18l-168 -889l443 469l202 -133l-407 -389l274 -555h-311l-217 516l-101 -516h-256zM182 -393q147 54 121 155q-12 57 20 99.5t93 42.5q73 0 105 -61q35 -67 -3 -149q-51 -108 -202 -161q-47 -17 -101 -27z" />
<glyph unicode="&#x138;" horiz-adv-x="1114" d="M100 838l31 163q238 29 436 17l-82 -426l455 485l201 -133l-416 -403l270 -541h-311l-215 502l-94 -502h-258l153 817q-80 15 -170 21z" />
<glyph unicode="&#x139;" horiz-adv-x="860" d="M53 0l262 1382h263l-220 -1153h439l-43 -229h-701zM422 1614l442 149l27 -192l-451 -105z" />
<glyph unicode="&#x13a;" horiz-adv-x="544" d="M61 0l248 1294q-91 16 -172 21l31 164q200 24 434 18l-285 -1497h-256zM367 1737l442 149l27 -192l-451 -105z" />
<glyph unicode="&#x13b;" horiz-adv-x="860" d="M53 0l262 1382h263l-220 -1153h439l-43 -229h-701zM139 -393q147 54 121 155q-12 57 20 99.5t93 42.5q73 0 105 -61q35 -67 -3 -149q-51 -108 -202 -161q-47 -17 -101 -27z" />
<glyph unicode="&#x13c;" horiz-adv-x="544" d="M-82 -393q147 54 121 155q-12 57 20 99.5t93 42.5q73 0 105 -61q35 -67 -3 -149q-51 -108 -202 -161q-47 -17 -101 -27zM61 0l248 1294q-91 16 -172 21l31 164q200 24 434 18l-285 -1497h-256z" />
<glyph unicode="&#x13d;" horiz-adv-x="872" d="M53 0l262 1382h263l-220 -1153h439l-43 -229h-701zM637 1171l178 418l199 -47l-217 -409z" />
<glyph unicode="&#x13e;" horiz-adv-x="641" d="M61 0l248 1294q-91 16 -172 21l31 164q200 24 434 18l-285 -1497h-256zM602 1171l178 418l199 -47l-217 -409z" />
<glyph unicode="&#x13f;" horiz-adv-x="1140" d="M53 0l262 1382h263l-220 -1153h439l-43 -229h-701zM758 707q0 73 51 124.5t123 51.5q69 0 114.5 -49t45.5 -117q0 -73 -50.5 -123.5t-121.5 -50.5q-69 0 -115.5 48.5t-46.5 115.5z" />
<glyph unicode="&#x140;" horiz-adv-x="1067" d="M61 0l248 1294q-91 16 -172 21l31 164q200 24 434 18l-285 -1497h-256zM657 604q0 73 51 124.5t123 51.5q69 0 114.5 -49t45.5 -117q0 -73 -50.5 -123.5t-121.5 -50.5q-69 0 -115.5 48.5t-46.5 115.5z" />
<glyph unicode="&#x141;" horiz-adv-x="878" d="M41 793l197 84l96 505h260l-72 -383l209 91l14 -211l-268 -113l-102 -537h440l-43 -229h-700l123 643l-140 -61z" />
<glyph unicode="&#x142;" horiz-adv-x="616" d="M102 803l170 86l78 405q-91 16 -172 21l31 164q200 24 434 18l-90 -471l123 64l12 -195l-176 -90l-152 -805h-256l125 668l-112 -60z" />
<glyph unicode="&#x143;" horiz-adv-x="1361" d="M53 0l262 1382h285l272 -655q75 -174 105 -303h4q33 282 98 623l66 335h252l-262 -1382h-252l-295 700q-62 146 -107 312h-4q-25 -244 -100 -635l-70 -377h-254zM791 1614l442 149l27 -192l-451 -105z" />
<glyph unicode="&#x144;" horiz-adv-x="1208" d="M100 838l31 163q208 25 426 19q-26 -133 -92 -318h4q79 151 186 244.5t242 93.5q144 0 197 -91t22 -247l-131 -702h-258l121 639q18 94 3 135t-63 41q-66 0 -145 -89.5t-139.5 -219t-81.5 -248.5l-49 -258h-256l155 817q-85 15 -172 21zM666 1272l350 291l117 -160 l-373 -260z" />
<glyph unicode="&#x145;" horiz-adv-x="1361" d="M53 0l262 1382h285l272 -655q75 -174 105 -303h4q33 282 98 623l66 335h252l-262 -1382h-252l-295 700q-62 146 -107 312h-4q-25 -244 -100 -635l-70 -377h-254zM324 -393q146 54 120 155q-12 57 20 99.5t93 42.5q73 0 105 -61q35 -67 -3 -149q-51 -108 -202 -161 q-47 -17 -101 -27z" />
<glyph unicode="&#x146;" horiz-adv-x="1208" d="M100 838l31 163q208 25 426 19q-26 -133 -92 -318h4q79 151 186 244.5t242 93.5q144 0 197 -91t22 -247l-131 -702h-258l121 639q18 94 3 135t-63 41q-66 0 -145 -89.5t-139.5 -219t-81.5 -248.5l-49 -258h-256l155 817q-85 15 -172 21zM240 -393q146 54 120 155 q-12 57 20 99.5t93 42.5q73 0 105 -61q35 -67 -3 -149q-51 -108 -202 -161q-47 -17 -101 -27z" />
<glyph unicode="&#x147;" horiz-adv-x="1361" d="M53 0l262 1382h285l272 -655q75 -174 105 -303h4q33 282 98 623l66 335h252l-262 -1382h-252l-295 700q-62 146 -107 312h-4q-25 -244 -100 -635l-70 -377h-254zM578 1638l81 134l250 -113l297 113l39 -138l-366 -170z" />
<glyph unicode="&#x148;" horiz-adv-x="1208" d="M100 838l31 163q208 25 426 19q-26 -133 -92 -318h4q79 151 186 244.5t242 93.5q144 0 197 -91t22 -247l-131 -702h-258l121 639q18 94 3 135t-63 41q-66 0 -145 -89.5t-139.5 -219t-81.5 -248.5l-49 -258h-256l155 817q-85 15 -172 21zM473 1423l121 121l174 -168 l244 168l78 -123l-361 -274z" />
<glyph unicode="&#x149;" horiz-adv-x="1474" d="M141 1038q148 136 148 222q0 18 -17.5 52.5t-17.5 67.5q0 64 40.5 107t104.5 43q60 0 94.5 -41t34.5 -107q0 -94 -79 -206t-226 -226zM365 838l30 163q208 25 426 19q-26 -133 -92 -318h4q79 151 186 244.5t242 93.5q144 0 197 -91t22 -247l-131 -702h-258l121 639 q18 94 3.5 135t-62.5 41q-66 0 -145 -89.5t-140 -219t-82 -248.5l-49 -258h-256l156 817q-85 15 -172 21z" />
<glyph unicode="&#x14a;" horiz-adv-x="1361" d="M53 0l262 1382h285l272 -655q75 -174 105 -303h4q33 282 98 623l66 335h252l-264 -1384q-43 -242 -164.5 -359t-345.5 -153l-19 209q119 20 183.5 85.5t93.5 225.5l-293 694q-62 146 -107 312h-4q-25 -244 -100 -635l-70 -377h-254z" />
<glyph unicode="&#x14b;" horiz-adv-x="1210" d="M100 838l31 163q208 25 426 19q-26 -133 -92 -318h4q78 149 183.5 243.5t228.5 94.5q114 0 171.5 -67t57.5 -230q0 -125 -49 -385q-39 -209 -80.5 -342.5t-75.5 -192.5t-82 -108q-65 -65 -139 -101.5t-174 -62.5l-35 209q111 29 170 86q27 27 45 61t45 132.5t62 275.5 q53 270 53 377q0 67 -17.5 95t-52.5 28q-63 0 -140 -89.5t-137 -219t-81 -248.5l-49 -258h-256l155 817q-89 15 -172 21z" />
<glyph unicode="&#x14c;" horiz-adv-x="1431" d="M94 481q0 147 36.5 285t107 253.5t167.5 202t225 135t271 48.5q132 0 233 -36.5t164.5 -104t95 -158.5t31.5 -203q0 -185 -58 -353t-161 -295t-256 -202.5t-332 -75.5q-262 0 -393 135.5t-131 368.5zM379 524q0 -144 70.5 -225.5t216.5 -81.5q109 0 200.5 56t150.5 147.5 t91.5 205t32.5 232.5q0 144 -71.5 225.5t-215.5 81.5q-109 0 -200.5 -56t-150.5 -147.5t-91.5 -205t-32.5 -232.5zM627 1518l32 165h588l-30 -165h-590z" />
<glyph unicode="&#x14d;" horiz-adv-x="1110" d="M59 348q0 188 75 345t215.5 251t318.5 94q105 0 183.5 -28t125 -78.5t69.5 -116t23 -145.5q0 -188 -75 -345t-215 -251t-318 -94q-105 0 -183.5 28t-125.5 78.5t-70 116t-23 145.5zM330 387q0 -84 42 -134t128 -50q75 0 135 41t94.5 106t52 137.5t17.5 143.5 q0 84 -42 135t-126 51q-76 0 -136.5 -41.5t-95 -107t-52 -138t-17.5 -143.5zM444 1229l35 188h543l-37 -188h-541z" />
<glyph unicode="&#x14e;" horiz-adv-x="1431" d="M94 481q0 147 36.5 285t107 253.5t167.5 202t225 135t271 48.5q132 0 233 -36.5t164.5 -104t95 -158.5t31.5 -203q0 -185 -58 -353t-161 -295t-256 -202.5t-332 -75.5q-262 0 -393 135.5t-131 368.5zM379 524q0 -144 70.5 -225.5t216.5 -81.5q109 0 200.5 56t150.5 147.5 t91.5 205t32.5 232.5q0 144 -71.5 225.5t-215.5 81.5q-109 0 -200.5 -56t-150.5 -147.5t-91.5 -205t-32.5 -232.5zM680 1759h151q-11 -51 19 -84t90 -33q64 0 103.5 31t50.5 86h155q-11 -58 -35.5 -106t-63 -87.5t-96.5 -62t-130 -22.5q-137 0 -202 81t-42 197z" />
<glyph unicode="&#x14f;" horiz-adv-x="1110" d="M59 348q0 188 75 345t215.5 251t318.5 94q105 0 183.5 -28t125 -78.5t69.5 -116t23 -145.5q0 -188 -75 -345t-215 -251t-318 -94q-105 0 -183.5 28t-125.5 78.5t-70 116t-23 145.5zM330 387q0 -84 42 -134t128 -50q75 0 135 41t94.5 106t52 137.5t17.5 143.5 q0 84 -42 135t-126 51q-76 0 -136.5 -41.5t-95 -107t-52 -138t-17.5 -143.5zM469 1359.5q-8 56.5 6 115.5h162q-9 -56 12 -90.5t72 -34.5q109 0 133 125h170q-24 -135 -106.5 -224.5t-219.5 -89.5q-71 0 -122 27t-75 71t-32 100.5z" />
<glyph unicode="&#x150;" horiz-adv-x="1431" d="M94 481q0 147 36.5 285t107 253.5t167.5 202t225 135t271 48.5q132 0 233 -36.5t164.5 -104t95 -158.5t31.5 -203q0 -185 -58 -353t-161 -295t-256 -202.5t-332 -75.5q-262 0 -393 135.5t-131 368.5zM379 524q0 -144 70.5 -225.5t216.5 -81.5q109 0 200.5 56t150.5 147.5 t91.5 205t32.5 232.5q0 144 -71.5 225.5t-215.5 81.5q-109 0 -200.5 -56t-150.5 -147.5t-91.5 -205t-32.5 -232.5zM639 1571l303 301l127 -133l-328 -279zM1032 1573l338 285l113 -142l-357 -256z" />
<glyph unicode="&#x151;" horiz-adv-x="1110" d="M59 348q0 188 75 345t215.5 251t318.5 94q105 0 183.5 -28t125 -78.5t69.5 -116t23 -145.5q0 -188 -75 -345t-215 -251t-318 -94q-105 0 -183.5 28t-125.5 78.5t-70 116t-23 145.5zM330 387q0 -84 42 -134t128 -50q75 0 135 41t94.5 106t52 137.5t17.5 143.5 q0 84 -42 135t-126 51q-76 0 -136.5 -41.5t-95 -107t-52 -138t-17.5 -143.5zM430 1251l299 318l137 -127l-321 -295zM821 1251l322 301l129 -137l-342 -268z" />
<glyph unicode="&#x152;" horiz-adv-x="1748" d="M94 481q0 147 36.5 285t107 253.5t167.5 202t225 135t271 48.5q107 0 229 -23h682l-43 -223h-475l-63 -340h450l-43 -217h-450l-70 -373h475l-45 -229h-696q-128 -23 -234 -23q-262 0 -393 135.5t-131 368.5zM379 524q0 -144 70.5 -225.5t216.5 -81.5q94 0 192 25 l172 899q-70 24 -176 24q-109 0 -200.5 -56t-150.5 -147.5t-91.5 -205t-32.5 -232.5z" />
<glyph unicode="&#x153;" horiz-adv-x="1695" d="M59 348q0 188 75 345t215.5 251t318.5 94q117 0 200 -41.5t123 -117.5q58 72 151.5 115.5t198.5 43.5q91 0 158 -21t103 -57t52.5 -78t16.5 -91q0 -179 -166 -272.5t-473 -102.5q-6 -30 -6 -80q0 -87 39 -118.5t145 -31.5q146 0 295 60l4 -201q-174 -65 -381 -65 q-125 0 -198.5 37t-102.5 118q-140 -155 -366 -155q-105 0 -183.5 28t-125.5 78.5t-70 116t-23 145.5zM330 387q0 -84 42 -134t128 -50q75 0 135 41t94.5 106t52 137.5t17.5 143.5q0 84 -42 135t-126 51q-76 0 -136.5 -41.5t-95 -107t-52 -138t-17.5 -143.5zM1059 590 q360 12 360 166q0 42 -28 65t-78 23q-93 0 -158 -72t-96 -182z" />
<glyph unicode="&#x154;" horiz-adv-x="1153" d="M53 0l262 1382q199 9 385 9q219 0 333 -84t114 -236q0 -165 -97 -296.5t-288 -178.5q39 -69 72 -143l208 -453h-313l-235 557h-74l-105 -557h-262zM459 758q51 -2 108 -2q80 0 140.5 24t93.5 63.5t49 84t16 92.5q0 71 -51.5 112.5t-159.5 41.5l-118 -7zM618 1614l443 149 l26 -192l-450 -105z" />
<glyph unicode="&#x155;" horiz-adv-x="798" d="M100 838l31 163q208 25 424 19q-18 -101 -88 -309h4q45 89 85 149.5t90 109t109 65t128 1.5l-56 -254q-85 33 -171 -42.5t-148 -213.5t-94 -305l-41 -221h-256l155 817q-85 15 -172 21zM473 1272l350 291l117 -160l-373 -260z" />
<glyph unicode="&#x156;" horiz-adv-x="1153" d="M53 0l262 1382q199 9 385 9q219 0 333 -84t114 -236q0 -165 -97 -296.5t-288 -178.5q39 -69 72 -143l208 -453h-313l-235 557h-74l-105 -557h-262zM215 -393q147 54 121 155q-12 57 20 99.5t93 42.5q73 0 105 -61q35 -67 -3 -149q-51 -108 -202 -161q-47 -17 -101 -27z M459 758q51 -2 108 -2q80 0 140.5 24t93.5 63.5t49 84t16 92.5q0 71 -51.5 112.5t-159.5 41.5l-118 -7z" />
<glyph unicode="&#x157;" horiz-adv-x="798" d="M-53 -393q147 54 121 155q-12 57 19.5 99.5t92.5 42.5q73 0 105 -61q35 -67 -3 -149q-50 -108 -201 -161q-46 -17 -101 -27zM100 838l31 163q208 25 424 19q-18 -101 -88 -309h4q45 89 85 149.5t90 109t109 65t128 1.5l-56 -254q-85 33 -171 -42.5t-148 -213.5t-94 -305 l-41 -221h-256l155 817q-85 15 -172 21z" />
<glyph unicode="&#x158;" horiz-adv-x="1153" d="M53 0l262 1382q199 9 385 9q219 0 333 -84t114 -236q0 -165 -97 -296.5t-288 -178.5q39 -69 72 -143l208 -453h-313l-235 557h-74l-105 -557h-262zM424 1638l82 134l250 -113l297 113l39 -138l-367 -170zM459 758q51 -2 108 -2q80 0 140.5 24t93.5 63.5t49 84t16 92.5 q0 71 -51.5 112.5t-159.5 41.5l-118 -7z" />
<glyph unicode="&#x159;" horiz-adv-x="798" d="M100 838l31 163q208 25 424 19q-18 -101 -88 -309h4q45 89 85 149.5t90 109t109 65t128 1.5l-56 -254q-85 33 -171 -42.5t-148 -213.5t-94 -305l-41 -221h-256l155 817q-85 15 -172 21zM307 1423l121 121l174 -168l244 168l78 -123l-361 -274z" />
<glyph unicode="&#x15a;" horiz-adv-x="1009" d="M16 16l70 254q150 -61 303 -61q122 0 188 54t66 136q0 44 -25.5 81.5t-66 66t-89 57t-97.5 62.5t-89.5 74t-66 100t-25.5 133q0 87 38 165t108 137.5t178.5 94.5t239.5 35q127 0 262 -27l-64 -233q-122 39 -244 39q-114 0 -177.5 -50.5t-63.5 -123.5q0 -42 25.5 -78 t66.5 -63.5t91 -56t99.5 -63t90.5 -75.5t66.5 -102t25.5 -136q0 -89 -38 -170.5t-109 -146.5t-184.5 -103.5t-252.5 -38.5q-170 0 -326 39zM598 1614l442 149l27 -192l-451 -105z" />
<glyph unicode="&#x15b;" horiz-adv-x="794" d="M10 2l49 215q89 -35 189 -35q82 0 125 29.5t43 85.5q0 31 -21 61t-52.5 54t-68 55t-68 63t-52.5 81t-21 106q0 136 116.5 229.5t323.5 93.5q86 0 177 -16l-43 -203q-90 23 -150 23q-76 0 -116 -29t-40 -78q0 -37 29.5 -71.5t71.5 -66t83.5 -68t71 -92t29.5 -122.5 q0 -143 -119.5 -240t-343.5 -97q-123 0 -213 22zM377 1272l350 291l117 -160l-373 -260z" />
<glyph unicode="&#x15c;" horiz-adv-x="1009" d="M16 16l70 254q150 -61 303 -61q122 0 188 54t66 136q0 44 -25.5 81.5t-66 66t-89 57t-97.5 62.5t-89.5 74t-66 100t-25.5 133q0 87 38 165t108 137.5t178.5 94.5t239.5 35q127 0 262 -27l-64 -233q-122 39 -244 39q-114 0 -177.5 -50.5t-63.5 -123.5q0 -42 25.5 -78 t66.5 -63.5t91 -56t99.5 -63t90.5 -75.5t66.5 -102t25.5 -136q0 -89 -38 -170.5t-109 -146.5t-184.5 -103.5t-252.5 -38.5q-170 0 -326 39zM410 1602l366 170l299 -173l-84 -135l-250 113l-295 -113z" />
<glyph unicode="&#x15d;" horiz-adv-x="794" d="M10 2l49 215q89 -35 189 -35q82 0 125 29.5t43 85.5q0 31 -21 61t-52.5 54t-68 55t-68 63t-52.5 81t-21 106q0 136 116.5 229.5t323.5 93.5q86 0 177 -16l-43 -203q-90 23 -150 23q-76 0 -116 -29t-40 -78q0 -37 29.5 -71.5t71.5 -66t83.5 -68t71 -92t29.5 -122.5 q0 -143 -119.5 -240t-343.5 -97q-123 0 -213 22zM221 1268l361 276l256 -278l-121 -119l-176 166l-242 -166z" />
<glyph unicode="&#x15e;" horiz-adv-x="1009" d="M16 16l70 254q150 -61 303 -61q122 0 188 54t66 136q0 44 -25.5 81.5t-66 66t-89 57t-97.5 62.5t-89.5 74t-66 100t-25.5 133q0 87 38 165t108 137.5t178.5 94.5t239.5 35q127 0 262 -27l-64 -233q-122 39 -244 39q-114 0 -177.5 -50.5t-63.5 -123.5q0 -42 25.5 -78 t66.5 -63.5t91 -56t99.5 -63t90.5 -75.5t66.5 -102t25.5 -136q0 -89 -38 -170.5t-109 -146.5t-184.5 -103.5t-252.5 -38.5q-170 0 -326 39zM164 -479q61 62 89 112.5t26 104.5t-39 115l225 65q108 -206 -92 -397h-209z" />
<glyph unicode="&#x15f;" horiz-adv-x="794" d="M10 2l49 215q89 -35 189 -35q82 0 125 29.5t43 85.5q0 31 -21 61t-52.5 54t-68 55t-68 63t-52.5 81t-21 106q0 136 116.5 229.5t323.5 93.5q86 0 177 -16l-43 -203q-90 23 -150 23q-76 0 -116 -29t-40 -78q0 -37 29.5 -71.5t71.5 -66t83.5 -68t71 -92t29.5 -122.5 q0 -143 -119.5 -240t-343.5 -97q-123 0 -213 22zM61 -479q61 62 89 112.5t26 104.5t-39 115l225 65q108 -206 -92 -397h-209z" />
<glyph unicode="&#x160;" horiz-adv-x="1009" d="M16 16l70 254q150 -61 303 -61q122 0 188 54t66 136q0 44 -25.5 81.5t-66 66t-89 57t-97.5 62.5t-89.5 74t-66 100t-25.5 133q0 87 38 165t108 137.5t178.5 94.5t239.5 35q127 0 262 -27l-64 -233q-122 39 -244 39q-114 0 -177.5 -50.5t-63.5 -123.5q0 -42 25.5 -78 t66.5 -63.5t91 -56t99.5 -63t90.5 -75.5t66.5 -102t25.5 -136q0 -89 -38 -170.5t-109 -146.5t-184.5 -103.5t-252.5 -38.5q-170 0 -326 39zM401 1638l82 134l250 -113l297 113l39 -138l-367 -170z" />
<glyph unicode="&#x161;" horiz-adv-x="794" d="M10 2l49 215q89 -35 189 -35q82 0 125 29.5t43 85.5q0 31 -21 61t-52.5 54t-68 55t-68 63t-52.5 81t-21 106q0 136 116.5 229.5t323.5 93.5q86 0 177 -16l-43 -203q-90 23 -150 23q-76 0 -116 -29t-40 -78q0 -37 29.5 -71.5t71.5 -66t83.5 -68t71 -92t29.5 -122.5 q0 -143 -119.5 -240t-343.5 -97q-123 0 -213 22zM266 1423l121 121l174 -168l244 168l78 -123l-361 -274z" />
<glyph unicode="&#x162;" horiz-adv-x="1024" d="M164 1155l43 227h962l-43 -227h-350l-221 -1155h-260l219 1155h-350zM193 -479q61 62 88.5 112.5t25.5 104.5t-39 115l226 65q108 -206 -93 -397h-208z" />
<glyph unicode="&#x163;" horiz-adv-x="751" d="M84 815l39 203h170l59 313l266 53l-69 -366h239l-38 -203h-240l-86 -463q-17 -89 -0.5 -121t78.5 -32q60 0 125 14l-21 -207q-110 -26 -209 -26q-163 0 -218 82t-19 266l96 487h-172zM113 -479q61 62 88.5 112.5t25.5 104.5t-39 115l226 65q108 -206 -92 -397h-209z" />
<glyph unicode="&#x164;" horiz-adv-x="1024" d="M164 1155l43 227h962l-43 -227h-350l-221 -1155h-260l219 1155h-350zM395 1638l82 134l250 -113l297 113l39 -138l-367 -170z" />
<glyph unicode="&#x165;" horiz-adv-x="761" d="M84 815l39 203h170l59 313l266 53l-69 -366h239l-38 -203h-240l-86 -463q-17 -89 -0.5 -121t78.5 -32q60 0 125 14l-21 -207q-110 -26 -209 -26q-163 0 -218 82t-19 266l96 487h-172zM655 1171l179 418l198 -47l-217 -409z" />
<glyph unicode="&#x166;" horiz-adv-x="1024" d="M164 1155l43 227h962l-43 -227h-350l-69 -360h208l-41 -215h-208l-111 -580h-260l108 580h-208l41 215h208l70 360h-350z" />
<glyph unicode="&#x167;" horiz-adv-x="802" d="M41 426l35 190h155l39 207h-170l37 195h170l60 313l266 53l-70 -366h240l-37 -195h-240l-41 -207h222l-37 -190h-221l-15 -82q-14 -84 3.5 -116.5t78.5 -32.5q49 0 123 16l-18 -205q-111 -26 -209 -26q-163 0 -218 81.5t-20 264.5l21 100h-154z" />
<glyph unicode="&#x168;" horiz-adv-x="1366" d="M150 506l165 876h263l-172 -897q-28 -145 22.5 -215.5t196.5 -70.5q155 0 238.5 77t117.5 254l164 852h258l-168 -874q-102 -531 -647 -531q-540 0 -438 529zM526 1589q97 168 258 168q46 0 85.5 -15t62 -33t50.5 -33t54 -15q65 0 121 86l123 -88q-102 -168 -256 -168 q-47 0 -87 15t-62.5 33t-50.5 33t-54 15q-64 0 -121 -88z" />
<glyph unicode="&#x169;" horiz-adv-x="1261" d="M96 838l31 163q214 25 436 19l-123 -641q-18 -94 -3 -135t65 -41q65 0 144 89.5t139 219t83 248.5l47 258h259l-158 -817q84 -15 170 -21l-31 -164q-201 -25 -422 -18q17 105 90 317h-4q-79 -151 -186 -244.5t-242 -93.5q-143 0 -196.5 91t-22.5 247l96 502 q-85 15 -172 21zM422 1290q46 88 112 135.5t142 47.5q45 0 83.5 -16.5t60.5 -36t49.5 -36t52.5 -16.5q61 0 116 92l121 -96q-46 -88 -112 -135t-144 -47q-44 0 -81.5 16t-59 36t-48.5 36t-52 16q-64 0 -119 -92z" />
<glyph unicode="&#x16a;" horiz-adv-x="1366" d="M150 506l165 876h263l-172 -897q-28 -145 22.5 -215.5t196.5 -70.5q155 0 238.5 77t117.5 254l164 852h258l-168 -874q-102 -531 -647 -531q-540 0 -438 529zM592 1518l33 165h587l-30 -165h-590z" />
<glyph unicode="&#x16b;" horiz-adv-x="1261" d="M96 838l31 163q214 25 436 19l-123 -641q-18 -94 -3 -135t65 -41q65 0 144 89.5t139 219t83 248.5l47 258h259l-158 -817q84 -15 170 -21l-31 -164q-201 -25 -422 -18q17 105 90 317h-4q-79 -151 -186 -244.5t-242 -93.5q-143 0 -196.5 91t-22.5 247l96 502 q-85 15 -172 21zM487 1229l35 188h543l-37 -188h-541z" />
<glyph unicode="&#x16c;" horiz-adv-x="1366" d="M150 506l165 876h263l-172 -897q-28 -145 22.5 -215.5t196.5 -70.5q155 0 238.5 77t117.5 254l164 852h258l-168 -874q-102 -531 -647 -531q-540 0 -438 529zM647 1759h152q-11 -51 18.5 -84t89.5 -33q64 0 103.5 31t50.5 86h156q-11 -57 -35.5 -105.5t-63 -88t-97 -62 t-130.5 -22.5q-137 0 -202 81t-42 197z" />
<glyph unicode="&#x16d;" horiz-adv-x="1261" d="M96 838l31 163q214 25 436 19l-123 -641q-18 -94 -3 -135t65 -41q65 0 144 89.5t139 219t83 248.5l47 258h259l-158 -817q84 -15 170 -21l-31 -164q-201 -25 -422 -18q17 105 90 317h-4q-79 -151 -186 -244.5t-242 -93.5q-143 0 -196.5 91t-22.5 247l96 502 q-85 15 -172 21zM543 1359.5q-8 56.5 6 115.5h162q-9 -56 12 -90.5t72 -34.5q109 0 133 125h170q-24 -135 -106.5 -224.5t-219.5 -89.5q-71 0 -122 27t-75 71t-32 100.5z" />
<glyph unicode="&#x16e;" horiz-adv-x="1366" d="M150 506l165 876h263l-172 -897q-28 -145 22.5 -215.5t196.5 -70.5q155 0 238.5 77t117.5 254l164 852h258l-168 -874q-102 -531 -647 -531q-540 0 -438 529zM639 1608q0 128 88.5 207t224.5 79q106 0 169 -49.5t63 -136.5q0 -128 -89 -207.5t-225 -79.5q-105 0 -168 50 t-63 137zM813 1630q0 -38 21.5 -59t58.5 -21q54 0 85.5 38.5t31.5 97.5q0 38 -21.5 58.5t-58.5 20.5q-54 0 -85.5 -38t-31.5 -97z" />
<glyph unicode="&#x16f;" horiz-adv-x="1261" d="M96 838l31 163q214 25 436 19l-123 -641q-18 -94 -3 -135t65 -41q65 0 144 89.5t139 219t83 248.5l47 258h259l-158 -817q84 -15 170 -21l-31 -164q-201 -25 -422 -18q17 105 90 317h-4q-79 -151 -186 -244.5t-242 -93.5q-143 0 -196.5 91t-22.5 247l96 502 q-85 15 -172 21zM512 1303q0 131 89 216t228 85q103 0 162.5 -52.5t59.5 -140.5q0 -130 -88.5 -215.5t-227.5 -85.5q-104 0 -163.5 52.5t-59.5 140.5zM686 1329q0 -84 74 -84q54 0 86.5 40t32.5 99q0 84 -74 84q-54 0 -86.5 -40t-32.5 -99z" />
<glyph unicode="&#x170;" horiz-adv-x="1366" d="M150 506l165 876h263l-172 -897q-28 -145 22.5 -215.5t196.5 -70.5q155 0 238.5 77t117.5 254l164 852h258l-168 -874q-102 -531 -647 -531q-540 0 -438 529zM582 1571l303 301l127 -133l-328 -279zM975 1573l338 285l112 -142l-356 -256z" />
<glyph unicode="&#x171;" horiz-adv-x="1261" d="M96 838l31 163q214 25 436 19l-123 -641q-18 -94 -3 -135t65 -41q65 0 144 89.5t139 219t83 248.5l47 258h259l-158 -817q84 -15 170 -21l-31 -164q-201 -25 -422 -18q17 105 90 317h-4q-79 -151 -186 -244.5t-242 -93.5q-143 0 -196.5 91t-22.5 247l96 502 q-85 15 -172 21zM469 1251l299 318l137 -127l-321 -295zM860 1251l322 301l129 -137l-342 -268z" />
<glyph unicode="&#x172;" horiz-adv-x="1366" d="M150 506l165 876h263l-172 -897q-28 -145 22.5 -215.5t196.5 -70.5q155 0 238.5 77t117.5 254l164 852h258l-168 -874q-45 -236 -178 -369q-53 -53 -167.5 -124.5t-160.5 -118.5q-78 -78 -78 -140q0 -47 58 -47q65 0 141 49l47 -149q-125 -94 -268 -94q-106 0 -166 52 t-60 128q0 87 52.5 161.5t136.5 125.5h-35q-244 0 -351 131t-56 393z" />
<glyph unicode="&#x173;" horiz-adv-x="1261" d="M96 838l31 163q214 25 436 19l-123 -641q-18 -94 -3 -135t65 -41q65 0 144 89.5t139 219t83 248.5l47 258h259l-107 -553q-29 -149 -39 -266q64 -12 158 -19l-31 -164q-91 -10 -164.5 -41t-115 -71t-63 -78.5t-21.5 -69.5q0 -47 57 -47q63 0 139 49l47 -149 q-125 -94 -266 -94q-106 0 -166.5 52t-60.5 128q0 169 225 323q3 137 57 297h-4q-79 -151 -186 -244.5t-242 -93.5q-143 0 -196.5 91t-22.5 247l96 502q-85 15 -172 21z" />
<glyph unicode="&#x174;" horiz-adv-x="1923" d="M225 1382h275l35 -755q3 -189 -9 -344h6q63 186 130 340l348 759h264l61 -768q14 -174 8 -331h5q77 233 114 327l326 772h260l-598 -1382h-320l-63 756q-7 121 6 252h-6q-57 -174 -90 -252l-346 -756h-330zM848 1602l366 170l299 -173l-83 -135l-250 113l-295 -113z" />
<glyph unicode="&#x175;" horiz-adv-x="1597" d="M127 1018h276l33 -424q13 -204 13 -291h4q54 148 120 293l203 422h258l45 -422q15 -169 15 -295h4q51 143 116 293l213 469l244 -74l-489 -989h-283l-53 463q-10 127 -10 237h-2q-4 -9 -115 -268l-205 -432h-283zM639 1268l360 276l256 -278l-120 -119l-177 166 l-241 -166z" />
<glyph unicode="&#x176;" d="M172 1382h279l114 -389q25 -89 51 -219h2q65 109 150 238l252 370h285l-605 -872l-96 -510h-260l96 508zM440 1602l367 170l299 -173l-84 -135l-250 113l-295 -113z" />
<glyph unicode="&#x177;" horiz-adv-x="1007" d="M-195 -504l41 225q50 -12 95 -12q104 0 186 82q58 58 84.5 133t26.5 195q0 364 -129 899h280q33 -151 56.5 -329.5t23.5 -272.5q0 -128 -20 -209h4q11 23 35.5 78.5t37.5 83.5q125 249 299 692l248 -70q-414 -962 -758 -1306q-101 -101 -198.5 -148t-218.5 -47zM346 1268 l361 276l256 -278l-121 -119l-176 166l-242 -166z" />
<glyph unicode="&#x178;" d="M172 1382h279l114 -389q25 -89 51 -219h2q65 109 150 238l252 370h285l-605 -872l-96 -510h-260l96 508zM424 1610q0 60 43 102.5t102 42.5t97.5 -40t38.5 -97q0 -61 -42.5 -103t-101.5 -42t-98 40t-39 97zM858 1612q0 58 43.5 100.5t102.5 42.5t97 -40t38 -97 q0 -61 -43.5 -103t-102.5 -42t-97 40.5t-38 98.5z" />
<glyph unicode="&#x179;" horiz-adv-x="1077" d="M2 0l39 205l633 811q45 57 112 131q-94 -4 -239 -4h-309l45 239h874l-41 -215l-661 -829q-59 -72 -80 -96q33 4 291 4h282l-45 -246h-901zM618 1614l443 149l26 -192l-450 -105z" />
<glyph unicode="&#x17a;" horiz-adv-x="894" d="M4 0l35 186l491 600q-82 -4 -206 -4h-160l45 236h688l-35 -187l-481 -593q41 2 217 2h160l-45 -240h-709zM467 1272l350 291l117 -160l-373 -260z" />
<glyph unicode="&#x17b;" horiz-adv-x="1077" d="M2 0l39 205l633 811q45 57 112 131q-94 -4 -239 -4h-309l45 239h874l-41 -215l-661 -829q-59 -72 -80 -96q33 4 291 4h282l-45 -246h-901zM608 1616q0 71 48 118.5t114 47.5q62 0 103.5 -44t41.5 -104q0 -70 -47 -118t-112 -48q-63 0 -105.5 44t-42.5 104z" />
<glyph unicode="&#x17c;" horiz-adv-x="894" d="M4 0l35 186l491 600q-82 -4 -206 -4h-160l45 236h688l-35 -187l-481 -593q41 2 217 2h160l-45 -240h-709zM455 1319q0 71 46.5 117.5t112.5 46.5q63 0 105.5 -46t42.5 -106q0 -70 -46.5 -116t-113.5 -46q-63 0 -105 45t-42 105z" />
<glyph unicode="&#x17d;" horiz-adv-x="1077" d="M2 0l39 205l633 811q45 57 112 131q-94 -4 -239 -4h-309l45 239h874l-41 -215l-661 -829q-59 -72 -80 -96q33 4 291 4h282l-45 -246h-901zM434 1638l82 134l250 -113l297 113l39 -138l-367 -170z" />
<glyph unicode="&#x17e;" horiz-adv-x="894" d="M4 0l35 186l491 600q-82 -4 -206 -4h-160l45 236h688l-35 -187l-481 -593q41 2 217 2h160l-45 -240h-709zM319 1423l121 121l174 -168l244 168l78 -123l-361 -274z" />
<glyph unicode="&#x17f;" horiz-adv-x="534" d="M-297 -504l61 217q42 -10 72 -10q79 0 126.5 51.5t70.5 167.5l219 1155q43 225 155.5 329.5t311.5 104.5q69 0 119 -6l-64 -215q-31 8 -69 8q-79 0 -126.5 -51.5t-70.5 -167.5l-219 -1155q-43 -224 -156 -329t-313 -105q-68 0 -117 6z" />
<glyph unicode="&#x2c6;" horiz-adv-x="876" d="M285 1268l360 276l256 -278l-121 -119l-176 166l-242 -166z" />
<glyph unicode="&#x2da;" horiz-adv-x="788" d="M295 1303q0 131 89 216t228 85q103 0 162.5 -52.5t59.5 -140.5q0 -130 -88.5 -215.5t-227.5 -85.5q-104 0 -163.5 52.5t-59.5 140.5zM469 1329q0 -84 74 -84q54 0 86.5 40t32.5 99q0 84 -74 84q-54 0 -86.5 -40t-32.5 -99z" />
<glyph unicode="&#x2dc;" horiz-adv-x="987" d="M289 1290q46 88 112 135.5t142 47.5q45 0 83.5 -16.5t60 -36t49 -36t52.5 -16.5q62 0 117 92l121 -96q-46 -88 -112 -135t-144 -47q-36 0 -67.5 10.5t-52.5 26t-40 31t-40 26t-42 10.5q-63 0 -118 -92z" />
<glyph unicode="&#x2000;" horiz-adv-x="947" />
<glyph unicode="&#x2001;" horiz-adv-x="1894" />
<glyph unicode="&#x2002;" horiz-adv-x="947" />
<glyph unicode="&#x2003;" horiz-adv-x="1894" />
<glyph unicode="&#x2004;" horiz-adv-x="631" />
<glyph unicode="&#x2005;" horiz-adv-x="473" />
<glyph unicode="&#x2006;" horiz-adv-x="315" />
<glyph unicode="&#x2007;" horiz-adv-x="315" />
<glyph unicode="&#x2008;" horiz-adv-x="236" />
<glyph unicode="&#x2009;" horiz-adv-x="378" />
<glyph unicode="&#x200a;" horiz-adv-x="105" />
<glyph unicode="&#x2010;" horiz-adv-x="669" d="M90 463l41 211h492l-41 -211h-492z" />
<glyph unicode="&#x2011;" horiz-adv-x="669" d="M90 463l41 211h492l-41 -211h-492z" />
<glyph unicode="&#x2012;" horiz-adv-x="669" d="M90 463l41 211h492l-41 -211h-492z" />
<glyph unicode="&#x2013;" d="M4 496l43 229h1127l-44 -229h-1126z" />
<glyph unicode="&#x2014;" horiz-adv-x="2048" d="M231 496l43 229h1596l-43 -229h-1596z" />
<glyph unicode="&#x2018;" horiz-adv-x="534" d="M227 1170q63 191 320 372l6 4l94 -110q-82 -67 -122.5 -122.5t-41.5 -99.5t25 -86q22 -35 22.5 -78t-17.5 -78.5t-55.5 -60t-86.5 -24.5q-83 0 -129 69q-57 86 -15 214z" />
<glyph unicode="&#x2019;" horiz-adv-x="534" d="M166 981q81 67 121 122t41 99.5t-25 85.5q-22 35 -22 78t18 79t55.5 60.5t85.5 24.5q84 0 131 -69q57 -86 15 -214q-62 -189 -317 -369q-4 -3 -9 -6z" />
<glyph unicode="&#x201a;" horiz-adv-x="534" d="M-57 -244q81 67 121 122t41 99.5t-25 85.5q-22 35 -22 78t18 79t55.5 60.5t85.5 24.5q84 0 131 -70q56 -86 13 -214q-63 -192 -321 -373q-1 -1 -3 -2z" />
<glyph unicode="&#x201c;" horiz-adv-x="972" d="M226 1173q63 191 320 372q3 1 5 3l94 -110q-81 -67 -121 -122.5t-41 -99.5t25 -86q22 -35 22 -78t-18 -78.5t-55.5 -60t-85.5 -24.5q-84 0 -131 70q-57 86 -14 214zM679 1173q64 192 322 373q1 1 3 2l94 -110q-81 -67 -121 -122.5t-41 -99.5t25 -86q22 -35 22 -78 t-18.5 -78.5t-56 -60t-85.5 -24.5q-84 0 -130 70q-57 86 -14 214z" />
<glyph unicode="&#x201d;" horiz-adv-x="972" d="M166 981q81 67 121 122t41 99.5t-25 85.5q-22 35 -22 78t18 79t55.5 60.5t85.5 24.5q84 0 131 -69q57 -86 15 -214q-62 -189 -317 -369q-4 -3 -9 -6zM618 981q82 67 121.5 122t41 99.5t-24.5 85.5q-22 35 -22 78t18 79t55.5 60.5t85.5 24.5q84 0 130 -69q57 -86 15 -215 q-63 -190 -319 -370l-6 -4z" />
<glyph unicode="&#x201e;" horiz-adv-x="972" d="M-59 -244q81 67 120 122t40 99.5t-25 85.5q-21 35 -21 78t17.5 79t54 60.5t82.5 24.5q82 0 127 -69q57 -86 15 -215q-63 -193 -318 -375zM379 -244q81 67 120 122t40 99.5t-25 85.5q-21 35 -21 78t17.5 79t54.5 60.5t84 24.5q81 0 126 -69q56 -86 14 -215 q-62 -193 -318 -375z" />
<glyph unicode="&#x202f;" horiz-adv-x="378" />
<glyph unicode="&#x2039;" horiz-adv-x="626" d="M109 610l301 387l182 -98l-238 -301l125 -299l-211 -94z" />
<glyph unicode="&#x203a;" horiz-adv-x="626" d="M88 305l238 299l-125 299l213 94l159 -405l-301 -387z" />
<glyph unicode="&#x205f;" horiz-adv-x="473" />
<glyph unicode="&#x20ac;" d="M14 436l31 162h135q9 67 27 139h-135l30 162h156q30 74 68 136.5t95.5 123t126 102.5t162 67.5t201.5 25.5q141 0 275 -41l-78 -215q-120 45 -231 45q-221 0 -342 -244h376l-30 -162h-406q-22 -91 -29 -139h408l-29 -162h-391q2 -118 57.5 -180.5t192.5 -62.5 q129 0 264 55l25 -201q-177 -70 -359 -70q-124 0 -213.5 34t-139.5 95.5t-72.5 138t-22.5 171.5v20h-152z" />
<glyph unicode="&#x2122;" horiz-adv-x="1384" d="M203 1225l30 157h449l-29 -157h-131l-80 -418h-182l80 418h-137zM592 807l196 575h211l21 -252l2 -83l29 79l116 256h228l-17 -575h-186l10 248l6 96l-32 -88l-117 -256h-168l-19 262v82l-20 -74l-86 -270h-174z" />
<glyph unicode="&#x25fc;" horiz-adv-x="1075" d="M0 0v1075h1075v-1075h-1075z" />
</font>
</defs>
</svg>
