<?xml version="1.0" standalone="no"?>
<!DOCTYPE svg PUBLIC "-//W3C//DTD SVG 1.1//EN" "http://www.w3.org/Graphics/SVG/1.1/DTD/svg11.dtd" >
<svg xmlns="http://www.w3.org/2000/svg">
<metadata></metadata>
<defs>
<font id="themix_c5bold" horiz-adv-x="1126" >
<font-face units-per-em="2048" ascent="1516" descent="-532" />
<missing-glyph horiz-adv-x="446" />
<glyph unicode="&#x2e;&#x2e;&#x2e;" horiz-adv-x="1480" d="M96 137q0 66 47 113t113 47t114 -47t48 -113t-48 -113t-114 -47t-113 47t-47 113zM575 137q0 66 47 113t113 47t113 -47t47 -113t-47 -113t-113 -47t-113 47t-47 113zM1053 137q0 66 46.5 113t112.5 47t113 -47t47 -113t-47 -113t-113 -47t-112.5 47t-46.5 113z" />
<glyph horiz-adv-x="0" />
<glyph horiz-adv-x="0" />
<glyph horiz-adv-x="682" />
<glyph unicode="&#xd;" horiz-adv-x="1024" />
<glyph unicode=" "  horiz-adv-x="446" />
<glyph unicode="&#x09;" horiz-adv-x="446" />
<glyph unicode="&#xa0;" horiz-adv-x="446" />
<glyph unicode="!" horiz-adv-x="657" d="M184 133q0 65 46.5 110.5t113.5 45.5q69 0 115.5 -45.5t46.5 -110.5q0 -66 -46.5 -111t-115.5 -45q-68 0 -114 45t-46 111zM193 1450h307l-39 -1065h-225z" />
<glyph unicode="&#x22;" horiz-adv-x="829" d="M90 1438h262l-33 -520h-196zM477 1438h262l-34 -520h-195z" />
<glyph unicode="#" d="M55 350v180h174l29 281h-156v178h174l37 342h191l-37 -342h260l35 342h190l-34 -342h153v-178h-174l-27 -281h154v-180h-172l-39 -350h-190l36 350h-258l-36 -350h-191l37 350h-156zM422 530h258l27 281h-258z" />
<glyph unicode="$" d="M145 940q0 132 89 231.5t235 128.5v195h186v-180q106 -3 213 -25l-22 -223q-112 35 -225 35q-105 0 -155 -38.5t-50 -98.5q0 -41 30.5 -72.5t79.5 -53t107.5 -43.5t117.5 -51.5t108 -68t79.5 -102t30.5 -146.5q0 -138 -91 -243.5t-247 -141.5v-217h-189v205 q-129 3 -247 24l20 236q119 -43 258 -43q101 0 160 38.5t59 114.5q0 44 -30 76.5t-78.5 54t-106.5 42t-116.5 49t-107 66.5t-78.5 102t-30 149z" />
<glyph unicode="%" horiz-adv-x="1556" d="M78 1022q0 146 91.5 239t229.5 93q143 0 223 -79.5t80 -234.5q0 -150 -91.5 -245t-229.5 -95q-147 0 -225 85t-78 237zM180 72l1026 1300l164 -117l-1026 -1300zM279 1030q0 -87 28.5 -125.5t85.5 -38.5q49 0 81 44t32 118q0 87 -28 124.5t-87 37.5q-49 0 -80.5 -43.5 t-31.5 -116.5zM854 297q0 147 91 240.5t229 93.5q144 0 224.5 -80.5t80.5 -235.5q0 -150 -92.5 -244t-229.5 -94q-147 0 -225 84.5t-78 235.5zM1053 307q0 -88 28.5 -127t87.5 -39q47 0 79 44t32 118q0 87 -28 124.5t-85 37.5q-51 0 -82.5 -42.5t-31.5 -115.5z" />
<glyph unicode="&#x26;" horiz-adv-x="1642" d="M96 381q0 68 19.5 129.5t56.5 114t77 93.5t95 85q-98 113 -137 200.5t-39 167.5q0 143 109 241.5t298 98.5q174 0 269.5 -81.5t95.5 -219.5q0 -64 -19.5 -121.5t-58.5 -108.5t-77.5 -89t-94.5 -84q138 -127 416 -336q87 127 96 279q-68 12 -153 20v154q217 23 417 14 q12 -169 -33 -324t-139 -282l246 -176l-162 -207q-128 91 -272 196q-233 -168 -535 -168q-118 0 -210.5 32t-149.5 87.5t-86 128t-29 156.5zM369 412q0 -90 66 -150.5t179 -60.5q156 0 304 90q-257 198 -422 354q-127 -120 -127 -233zM426 1186q0 -103 113 -230 q69 59 106 114.5t37 119.5q0 55 -32 90t-95 35q-56 0 -92.5 -36t-36.5 -93z" />
<glyph unicode="'" horiz-adv-x="442" d="M90 1438h262l-33 -520h-196z" />
<glyph unicode="(" horiz-adv-x="626" d="M106 584q0 549 306 1028l190 -88q-237 -422 -237 -930q0 -520 243 -942l-198 -92q-163 257 -233.5 509t-70.5 515z" />
<glyph unicode=")" horiz-adv-x="626" d="M27 1522l198 90q161 -257 230 -508.5t69 -513.5q0 -553 -305 -1030l-190 88q239 420 239 932q0 513 -241 942z" />
<glyph unicode="*" horiz-adv-x="786" d="M63 1087l207 82l-207 82l93 162l174 -139l-33 221h186l-32 -221l174 139l92 -160l-207 -82l207 -84l-92 -159l-174 139l32 -221h-186l33 221l-176 -139z" />
<glyph unicode="+" d="M80 500v219h358v379h250v-379h359v-219h-359v-381h-250v381h-358z" />
<glyph unicode="," horiz-adv-x="528" d="M55 -258q69 74 98.5 131.5t24.5 100t-39 83.5q-28 33 -32.5 76.5t11.5 81.5t54.5 64t89.5 26q87 0 134 -76q57 -94 15 -235q-53 -178 -247 -348z" />
<glyph unicode="-" horiz-adv-x="684" d="M90 463v211h504v-211h-504z" />
<glyph unicode="." horiz-adv-x="528" d="M96 145q0 68 49.5 117t118.5 49t118.5 -49t49.5 -117q0 -69 -49.5 -118.5t-118.5 -49.5t-118.5 49.5t-49.5 118.5z" />
<glyph unicode="/" horiz-adv-x="948" d="M-23 -330l717 1880h258l-716 -1880h-259z" />
<glyph unicode="0" d="M72 672q0 338 135.5 510t365.5 172q117 0 203.5 -36t149.5 -114.5t95 -210.5t32 -317q0 -179 -40.5 -316.5t-111 -219t-159 -122.5t-191.5 -41q-117 0 -202 34t-149 112.5t-96 215t-32 333.5zM354 680q0 -186 21 -289.5t65.5 -145.5t122.5 -42q103 0 155 107.5t52 357.5 q0 184 -24 287t-67 140.5t-118 37.5q-64 0 -108 -38.5t-71.5 -141.5t-27.5 -273z" />
<glyph unicode="1" d="M129 1200l385 131h227v-1095h291v-236h-897v236h334v835l-297 -94z" />
<glyph unicode="2" d="M104 0v213l201 197q156 149 236.5 243t105.5 148.5t25 113.5q0 88 -58.5 143.5t-164.5 55.5q-146 0 -283 -92l-51 231q175 101 391 101q114 0 203 -32t143 -87.5t81.5 -125t27.5 -148.5q0 -138 -70 -261t-262 -299l-160 -151v-2q188 4 377 4h164v-252h-906z" />
<glyph unicode="3" d="M133 8l25 232q127 -43 282 -43q132 0 200.5 51.5t68.5 140.5q0 91 -71.5 143t-219.5 52q-92 0 -209 -13v203h59q195 0 305.5 50.5t110.5 152.5q0 75 -57 117.5t-164 42.5q-152 0 -285 -68l-24 221q167 64 362 64q217 0 329.5 -89.5t112.5 -238.5q0 -113 -60.5 -189.5 t-170.5 -111.5v-4q126 -23 197 -106.5t71 -196.5q0 -205 -155 -323t-420 -118q-140 0 -287 31z" />
<glyph unicode="4" d="M37 506l506 825h356v-807h184v-235h-184v-289h-258v289h-580zM301 520q90 4 344 4v545h-2z" />
<glyph unicode="5" d="M162 6v236q125 -39 272 -39q132 0 205.5 58t73.5 157q0 97 -80.5 148.5t-222.5 51.5q-138 0 -232 -16v729h766v-246h-516v-262q25 2 80 2q232 0 362.5 -105.5t130.5 -275.5q0 -213 -160.5 -340t-424.5 -127q-128 0 -254 29z" />
<glyph unicode="6" d="M82 559q0 389 186 591t510 202q92 0 156 -9v-227q-77 14 -168 14q-324 0 -404 -329q-9 -27 -18 -82h2q99 129 293 129q196 0 306 -110.5t110 -280.5q0 -222 -133 -351t-353 -129q-230 0 -358.5 147.5t-128.5 434.5zM358 430q0 -106 58.5 -173t167.5 -67q96 0 151.5 63 t55.5 163q0 102 -55.5 159.5t-160.5 57.5q-97 0 -157 -62t-60 -141z" />
<glyph unicode="7" d="M102 1075v256h920v-225q-133 -254 -253 -550.5t-202 -555.5h-301q89 270 212.5 565t240.5 514q-118 -4 -440 -4h-177z" />
<glyph unicode="8" d="M82 326q0 111 64.5 191t177.5 147q-99 58 -154 131.5t-55 183.5q0 168 129.5 271.5t333.5 103.5q201 0 317.5 -92.5t116.5 -239.5q0 -104 -56.5 -179.5t-156.5 -140.5q113 -59 178 -137.5t65 -197.5q0 -122 -68 -212t-178.5 -134t-246.5 -44q-216 0 -341.5 94.5 t-125.5 254.5zM354 346q0 -72 56.5 -116t160.5 -44q88 0 144.5 42.5t56.5 113.5q0 32 -12.5 60t-32 49t-52 42t-62 36t-72.5 34q-90 -50 -138.5 -101t-48.5 -116zM379 1001q0 -65 51 -109t150 -89q82 47 125 92.5t43 103.5q0 68 -49.5 110t-139.5 42q-85 0 -132.5 -43 t-47.5 -107z" />
<glyph unicode="9" d="M70 879q0 218 134.5 346.5t350.5 128.5q228 0 356.5 -145.5t128.5 -436.5q0 -393 -185.5 -592.5t-510.5 -199.5q-103 0 -188 14v231q102 -24 204 -24q164 0 260.5 79t133.5 236l18 80h-2q-102 -117 -285 -117q-195 0 -305 112.5t-110 287.5zM332 918q0 -104 55.5 -163 t155.5 -59t157.5 59t57.5 146q0 108 -57.5 174t-163.5 66q-94 0 -149.5 -63t-55.5 -160z" />
<glyph unicode=":" horiz-adv-x="610" d="M162 145q0 68 49.5 117t118.5 49t117.5 -49t48.5 -117q0 -69 -48.5 -118.5t-117.5 -49.5t-118.5 49.5t-49.5 118.5zM162 725q0 68 49.5 117t118.5 49t117.5 -49t48.5 -117q0 -69 -48.5 -118.5t-117.5 -49.5t-118.5 49.5t-49.5 118.5z" />
<glyph unicode=";" horiz-adv-x="610" d="M123 -258q68 74 97 131.5t24.5 100t-37.5 83.5q-28 33 -32.5 76.5t11 81.5t53.5 64t89 26q89 0 136 -77q57 -94 14 -235q-53 -177 -247 -347zM162 725q0 68 49.5 117t118.5 49t117.5 -49t48.5 -117q0 -69 -48.5 -118.5t-117.5 -49.5t-118.5 49.5t-49.5 118.5z" />
<glyph unicode="&#x3c;" d="M129 616l651 603l172 -172l-485 -429l487 -428l-172 -178z" />
<glyph unicode="=" d="M109 307v211h909v-211h-909zM109 698v211h909v-211h-909z" />
<glyph unicode="&#x3e;" d="M172 1040l172 179l653 -605l-651 -602l-172 172l485 428z" />
<glyph unicode="?" horiz-adv-x="923" d="M137 1231l33 237q164 -4 292 -39.5t206.5 -94t118.5 -131t40 -154.5q0 -61 -17 -113.5t-44.5 -88.5t-61.5 -72t-67.5 -64t-62.5 -63t-47.5 -70t-21.5 -85t15 -108h-256q-27 85 -26 146t23.5 113t56.5 89t73 73.5t72.5 66.5t55.5 69t22 80q0 92 -107.5 147.5t-296.5 61.5z M236 133q0 65 46 110.5t113 45.5t113.5 -45.5t46.5 -110.5q0 -66 -46 -111t-114 -45q-67 0 -113 45t-46 111z" />
<glyph unicode="@" horiz-adv-x="2097" d="M147 442q0 220 78 411.5t211.5 325.5t317 210.5t389.5 76.5q157 0 289 -37t226.5 -102.5t161 -156t98.5 -198t32 -227.5q0 -296 -146.5 -471.5t-378.5 -175.5q-122 0 -187.5 63.5t-63.5 160.5h-5q-48 -96 -130 -160t-189 -64q-114 0 -185 87.5t-71 248.5 q0 126 34.5 234.5t100 191.5t169.5 130.5t235 47.5q76 0 155.5 -12t120.5 -24l41 -11l-82 -436q-47 -244 94 -244q110 0 182 111.5t72 310.5q0 82 -19.5 157t-64 144t-110.5 119.5t-166 80.5t-223 30q-155 0 -293 -58.5t-240 -162t-161.5 -253t-59.5 -323.5 q0 -300 165 -465.5t498 -165.5q191 0 412 68l31 -195q-111 -36 -239.5 -57t-233.5 -21q-415 0 -640 217.5t-225 593.5zM840 471q0 -81 19 -118.5t63 -37.5q69 0 134 103.5t101 302.5l19 100q-42 13 -99 13t-104 -34.5t-75 -89t-43 -116.5t-15 -123z" />
<glyph unicode="A" horiz-adv-x="1282" d="M4 0l463 1382h346l465 -1382h-295l-94 295h-520l-97 -295h-268zM430 506h399l-143 432q-33 103 -55 207h-4q-16 -77 -54 -205z" />
<glyph unicode="B" horiz-adv-x="1189" d="M143 0v1380q217 11 424 11q247 0 372.5 -90.5t125.5 -262.5q0 -100 -53 -181.5t-148 -119.5v-2q115 -30 181.5 -112t66.5 -199q0 -81 -33 -155.5t-98 -136.5t-176 -99t-254 -37q-37 0 -174 2t-234 2zM410 215q49 -6 149 -6q132 0 199 55t67 148q0 196 -290 196 q-96 0 -125 -2v-391zM410 809q33 -2 118 -2q128 0 192 50.5t64 141.5q0 181 -235 181q-53 0 -139 -4v-367z" />
<glyph unicode="C" horiz-adv-x="1159" d="M78 653q0 340 179 543t505 203q163 0 305 -49l-43 -248q-136 57 -276 57q-124 0 -211 -63t-127.5 -167.5t-40.5 -240.5q0 -224 98 -342.5t295 -118.5q127 0 274 64l41 -236q-177 -71 -362 -71q-140 0 -250 36.5t-181.5 98t-118.5 148t-67 182t-20 204.5z" />
<glyph unicode="D" horiz-adv-x="1366" d="M143 2v1378q300 11 447 11q700 0 700 -676q0 -174 -55.5 -312t-156.5 -227.5t-240.5 -136.5t-309.5 -47q-92 0 -385 10zM410 229q62 -10 145 -10q99 0 180 28.5t141.5 85.5t94 149t33.5 212q0 232 -102.5 352.5t-330.5 120.5q-97 0 -161 -6v-932z" />
<glyph unicode="E" horiz-adv-x="1044" d="M143 0v1382h783v-223h-516v-340h473v-217h-473v-373h516v-229h-783z" />
<glyph unicode="F" horiz-adv-x="964" d="M143 0v1382h758v-227h-491v-360h456v-217h-456v-578h-267z" />
<glyph unicode="G" horiz-adv-x="1382" d="M74 649q0 226 86.5 394.5t261.5 264t420 95.5q201 0 391 -60l-53 -243q-157 65 -355 65q-119 0 -210 -38t-145 -105t-81 -152t-27 -186q0 -222 113.5 -343.5t327.5 -121.5q93 0 176 25v481h266v-659q-214 -86 -473 -86q-337 0 -517.5 178t-180.5 491z" />
<glyph unicode="H" horiz-adv-x="1404" d="M143 0v1382h267v-553h585v553h269v-1382h-269v600h-585v-600h-267z" />
<glyph unicode="I" horiz-adv-x="552" d="M143 0v1382h267v-1382h-267z" />
<glyph unicode="J" horiz-adv-x="710" d="M0 -2v229q55 -20 143 -20q79 0 119.5 43t40.5 147v985h268v-989q0 -90 -21.5 -163t-66.5 -129.5t-122 -87.5t-181 -31q-86 0 -180 16z" />
<glyph unicode="K" horiz-adv-x="1222" d="M143 0v1382h267v-626l446 626h324l-506 -663l530 -719h-350l-444 664v-664h-267z" />
<glyph unicode="L" horiz-adv-x="878" d="M143 0v1382h267v-1151h448v-231h-715z" />
<glyph unicode="M" horiz-adv-x="1835" d="M63 0l166 1382h371l242 -716q45 -126 71 -281h5q35 185 67 281l242 716h375l170 -1382h-273l-84 680q-30 260 -33 450h-4q-42 -199 -102 -385l-250 -745h-248l-239 717q-80 243 -113 413h-4q-2 -156 -29 -456l-71 -674h-259z" />
<glyph unicode="N" horiz-adv-x="1413" d="M143 0v1382h314l405 -655q110 -173 166 -303h4q-20 304 -20 623v335h258v-1382h-281l-434 700q-102 159 -170 312h-4q20 -278 20 -635v-377h-258z" />
<glyph unicode="O" horiz-adv-x="1460" d="M74 666q0 175 54 317t147.5 233t215.5 140t261 49q309 0 471.5 -179.5t162.5 -508.5q0 -175 -54 -317t-147 -233.5t-215 -140.5t-261 -49q-309 0 -472 180t-163 509zM358 698q0 -227 94 -354t277 -127q167 0 270 123t103 346q0 226 -94.5 352.5t-278.5 126.5 q-167 0 -269 -122.5t-102 -344.5z" />
<glyph unicode="P" horiz-adv-x="1132" d="M143 0v1382q203 9 398 9q267 0 405.5 -119t138.5 -326q0 -219 -150.5 -361.5t-416.5 -142.5l-108 4v-446h-267zM410 672q62 -10 125 -10q132 0 204 70t72 186q0 118 -71 185.5t-216 67.5l-114 -2v-497z" />
<glyph unicode="Q" horiz-adv-x="1460" d="M74 666q0 175 54 317t147.5 233t215.5 140t261 49q309 0 471.5 -179.5t162.5 -508.5q0 -215 -78 -373t-210 -219h11q40 0 88 -12q55 -14 101 -23q22 -5 57 -5q38 0 91 5v-225q-78 -10 -135 -10q-25 0 -45 2q-68 6 -133 25.5t-111 40.5t-114 37.5t-142 16.5h-57 q-309 0 -472 180t-163 509zM356 698q0 -227 95 -354t278 -127q168 0 271.5 123t103.5 346q0 226 -95.5 352.5t-279.5 126.5q-167 0 -270 -122.5t-103 -344.5z" />
<glyph unicode="R" horiz-adv-x="1177" d="M143 0v1382q191 9 406 9q245 0 378.5 -97t133.5 -303q0 -157 -85 -255t-226 -134q59 -75 106 -149l299 -453h-324l-348 557h-73v-557h-267zM410 758q59 -2 112 -2q123 0 190.5 55t67.5 156q0 98 -62.5 152.5t-187.5 54.5l-120 -7v-409z" />
<glyph unicode="S" horiz-adv-x="1030" d="M82 997q0 185 138.5 296.5t383.5 111.5q118 0 250 -27l-25 -233q-119 39 -241 39q-113 0 -170.5 -42.5t-57.5 -117.5q0 -51 33 -89.5t85.5 -64.5t116 -51.5t127 -58.5t116 -76t85.5 -113.5t33 -162.5q0 -193 -141 -312t-393 -119q-174 0 -322 37l29 256q148 -61 307 -61 q107 0 171.5 42.5t64.5 129.5q0 53 -32.5 92.5t-84.5 66t-115 51.5t-126 57.5t-115 74.5t-84.5 112t-32.5 162z" />
<glyph unicode="T" horiz-adv-x="1044" d="M31 1155v227h983v-227h-359v-1155h-266v1155h-358z" />
<glyph unicode="U" horiz-adv-x="1394" d="M143 479v903h267v-886q0 -69 13 -120.5t44 -93t88.5 -62.5t140.5 -21q156 0 223.5 73t67.5 248v862h264v-845q0 -280 -147.5 -420t-425.5 -140q-91 0 -166.5 14t-130.5 39t-96.5 61.5t-68 78.5t-43.5 94t-23.5 103.5t-6.5 111.5z" />
<glyph unicode="V" horiz-adv-x="1286" d="M6 1382h295l266 -827q46 -157 82 -307h4q46 190 84 311l269 823h274l-463 -1382h-346z" />
<glyph unicode="W" horiz-adv-x="1961" d="M49 1382h285l184 -755q38 -183 60 -344h4q24 182 65 340l209 759h266l215 -768q49 -173 72 -331h4q27 203 53 327l183 772h262l-344 -1382h-330l-211 756q-29 121 -45 252h-4q-23 -171 -43 -252l-207 -756h-332z" />
<glyph unicode="X" horiz-adv-x="1286" d="M20 0l441 707l-414 675h309l281 -479l278 479h304l-408 -673l455 -709h-336l-297 508l-297 -508h-316z" />
<glyph unicode="Y" horiz-adv-x="1148" d="M-4 1382h293l192 -389q50 -106 94 -219h5q36 95 106 238l184 370h283l-446 -872v-510h-267v508z" />
<glyph unicode="Z" horiz-adv-x="1099" d="M92 0v205l498 811q64 98 90 131q-98 -4 -252 -4h-319v239h892v-215l-526 -829q-39 -64 -63 -96q35 4 299 4h299v-246h-918z" />
<glyph unicode="[" horiz-adv-x="671" d="M145 -420v2011h453v-207h-207v-1593h207v-211h-453z" />
<glyph unicode="\" horiz-adv-x="980" d="M14 1550h258l717 -1880h-258z" />
<glyph unicode="]" horiz-adv-x="671" d="M74 -209h205v1593h-205v207h450v-2011h-450v211z" />
<glyph unicode="^" d="M113 782l336 600h200l350 -598l-188 -94l-268 506l-256 -506z" />
<glyph unicode="_" d="M0 -293h1126v-211h-1126v211z" />
<glyph unicode="`" horiz-adv-x="716" d="M133 1407l143 156l308 -295l-117 -125z" />
<glyph unicode="a" horiz-adv-x="1130" d="M78 270q0 118 73.5 199t203.5 118.5t311 37.5v43q0 90 -42 131t-141 41q-138 0 -309 -68l-41 199q203 69 381 69q228 0 321 -89t93 -269v-481q94 -15 178 -21v-164q-155 -20 -324 -20q-47 0 -96 2q0 108 10 174l-2 2q-37 -87 -124.5 -140.5t-200.5 -53.5q-135 0 -213 81 t-78 209zM330 299q0 -51 33.5 -85t89.5 -34q92 0 152.5 74t60.5 168v31q-96 0 -163.5 -11.5t-104 -33t-52.5 -48t-16 -61.5z" />
<glyph unicode="b" horiz-adv-x="1153" d="M-27 1315v164q159 19 346 19q47 0 95 -1v-440q0 -109 -17 -199h2q38 84 120.5 132t187.5 48q182 0 278 -124.5t96 -352.5q0 -263 -146.5 -422t-404.5 -159q-204 0 -378 49v1265q-93 15 -179 21zM414 207q59 -19 135 -19q120 0 188 83.5t68 263.5q0 286 -174 286 q-65 0 -115.5 -46.5t-76 -120.5t-25.5 -160v-287z" />
<glyph unicode="c" horiz-adv-x="870" d="M70 475q0 264 138.5 412.5t375.5 148.5q117 0 227 -35l-41 -225q-97 39 -190 39q-114 0 -175 -84t-61 -229q0 -295 238 -295q105 0 198 41l35 -219q-121 -47 -285 -47q-221 0 -340.5 120.5t-119.5 372.5z" />
<glyph unicode="d" horiz-adv-x="1200" d="M74 455q0 262 144 421.5t394 159.5q69 0 129 -8v266q-94 15 -178 21v164q157 19 343 19q47 0 95 -1v-1296q93 -15 179 -21v-164q-155 -20 -326 -20q-48 0 -96 2q0 90 12 172h-4q-43 -88 -126.5 -140.5t-195.5 -52.5q-182 0 -276 127t-94 351zM348 483q0 -288 174 -288 q99 0 159 98t60 235v285q-75 16 -137 16q-120 0 -188 -83t-68 -263z" />
<glyph unicode="e" horiz-adv-x="1052" d="M70 500q0 153 56.5 274.5t167.5 192.5t259 71q212 0 317 -119.5t105 -312.5q0 -35 -2 -73t-4 -59l-2 -21h-631q0 -134 65.5 -202.5t204.5 -68.5q147 0 307 54l27 -195q-180 -61 -365 -61q-505 0 -505 520zM338 629h377v12q0 96 -44 149q-47 56 -132 56q-83 0 -137.5 -58 t-63.5 -159z" />
<glyph unicode="f" horiz-adv-x="724" d="M16 815v203h179v59q0 434 415 434q35 0 74 -3.5t60 -7.5l22 -3l-18 -217q-66 18 -132 18q-84 0 -122.5 -47.5t-38.5 -154.5v-78h237v-203h-237v-815h-260v815h-179z" />
<glyph unicode="g" horiz-adv-x="1144" d="M74 455q0 264 146 422.5t409 158.5q187 0 372 -30v-1020q0 -496 -555 -496q-159 0 -313 35l25 237q139 -51 303 -51q145 0 213.5 59.5t68.5 188.5v61q0 80 13 146l-4 2q-40 -88 -120 -138t-181 -50q-183 0 -280 122t-97 353zM348 483q0 -286 172 -286q101 0 161 98 t60 237v281q-60 14 -137 14q-256 0 -256 -344z" />
<glyph unicode="h" horiz-adv-x="1179" d="M-27 1315v164q159 19 346 19q47 0 95 -1v-440q0 -124 -19 -207h4q46 88 131.5 138t202.5 50q83 0 143.5 -25t94.5 -70.5t49.5 -101.5t15.5 -126v-715h-260v651q0 83 -28.5 125.5t-98.5 42.5q-99 0 -167 -97t-68 -233v-489h-262v1294q-93 15 -179 21z" />
<glyph unicode="i" horiz-adv-x="610" d="M31 838v163q164 20 348 20q44 0 90 -1v-1020h-260v817q-94 15 -178 21zM176 1327q0 66 48 113t114 47q68 0 116 -46.5t48 -113.5q0 -65 -48.5 -111.5t-115.5 -46.5q-66 0 -114 46t-48 112z" />
<glyph unicode="j" horiz-adv-x="614" d="M-68 -487l17 223q70 -25 123 -25q79 0 109 41.5t30 145.5v919q-94 15 -178 21v163q166 20 350 20q45 0 90 -1v-1096q0 -215 -91 -323.5t-304 -108.5q-71 0 -146 21zM178 1327q0 66 48 113t116 47t115 -46.5t47 -113.5q0 -65 -47.5 -111.5t-114.5 -46.5q-68 0 -116 46 t-48 112z" />
<glyph unicode="k" horiz-adv-x="1081" d="M-27 1315v164q159 19 346 19q47 0 95 -1v-903l297 424h307l-350 -453l389 -565h-328l-315 504v-504h-262v1294q-93 15 -179 21z" />
<glyph unicode="l" horiz-adv-x="555" d="M-27 1315v164q159 19 346 19q47 0 95 -1v-1497h-262v1294q-93 15 -179 21z" />
<glyph unicode="m" horiz-adv-x="1839" d="M31 838v163q165 20 340 20q42 0 84 -1q0 -88 -13 -184l2 -2q46 95 134.5 149.5t201.5 54.5q85 0 146.5 -31.5t91 -74t43.5 -96.5q42 84 127.5 143t204.5 59q305 0 305 -338v-700h-262v643q0 88 -26.5 132t-94.5 44q-91 0 -162.5 -94.5t-71.5 -237.5v-487h-258v645 q0 84 -25.5 129t-95.5 45q-93 0 -163 -96t-70 -236v-487h-260v817q-94 15 -178 21z" />
<glyph unicode="n" horiz-adv-x="1234" d="M31 838v163q165 20 340 20q42 0 84 -1q0 -102 -15 -184h2q48 93 137 147.5t209 54.5q83 0 143.5 -25t95 -70.5t50 -101.5t15.5 -126v-715h-261v651q0 83 -27.5 125.5t-96.5 42.5q-99 0 -168.5 -96.5t-69.5 -230.5v-492h-260v817q-94 15 -178 21z" />
<glyph unicode="o" horiz-adv-x="1132" d="M68 485q0 242 138 397.5t380 155.5q226 0 352.5 -126t126.5 -380q0 -242 -138 -397t-380 -155q-226 0 -352.5 125.5t-126.5 379.5zM338 510q0 -149 59.5 -228t167.5 -79q104 0 167 77t63 228q0 149 -59.5 229t-166.5 80q-108 0 -169.5 -79t-61.5 -228z" />
<glyph unicode="p" horiz-adv-x="1210" d="M31 838v163q165 20 337 20q41 0 83 -1q0 -99 -11 -172h4q44 91 125 140.5t195 49.5q180 0 276.5 -124t96.5 -351q0 -270 -138.5 -423.5t-398.5 -153.5q-74 0 -131 8v-488h-260v1311q-94 15 -178 21zM469 207q65 -19 137 -19q120 0 188 83.5t68 263.5q0 288 -174 288 q-99 0 -159 -98.5t-60 -235.5v-282z" />
<glyph unicode="q" horiz-adv-x="1144" d="M74 455q0 264 146 422.5t409 158.5q187 0 372 -30v-1299q82 -13 179 -20v-164q-165 -20 -349 -20q-45 0 -90 1v463q0 115 15 197l-4 2q-40 -88 -120 -138.5t-181 -50.5q-184 0 -280.5 122t-96.5 356zM348 483q0 -288 172 -288q99 0 160 99t61 238v283q-75 14 -137 14 q-120 0 -188 -83t-68 -263z" />
<glyph unicode="r" horiz-adv-x="798" d="M31 838v163q165 20 340 20q42 0 84 -1q0 -93 -19 -207h4q41 109 122 173q69 54 171 54q18 0 37 -2l-12 -258q-37 8 -69 8q-95 0 -149 -68q-72 -91 -71 -304v-416h-260v817q-94 15 -178 21z" />
<glyph unicode="s" horiz-adv-x="854" d="M84 721q0 140 109.5 229.5t318.5 89.5q82 0 188 -18l-14 -207q-100 29 -186 29q-72 0 -110 -27t-38 -72q0 -34 23.5 -59t60.5 -42t82 -33.5t90 -40t82 -54.5t60.5 -83.5t23.5 -121.5q0 -146 -114.5 -238.5t-327.5 -92.5q-127 0 -234 26l15 217q103 -41 231 -41 q76 0 117 27.5t41 77.5q0 35 -23 60.5t-60 42t-81.5 32.5t-89 39t-81.5 53.5t-60 83.5t-23 123z" />
<glyph unicode="t" horiz-adv-x="768" d="M16 815v203h174v313l263 70v-383h243v-203h-243v-461q0 -89 24 -122t90 -33q60 0 121 14l19 -205q-115 -28 -218 -28q-170 0 -234.5 70.5t-64.5 254.5v510h-174z" />
<glyph unicode="u" horiz-adv-x="1288" d="M27 838v163q173 20 352 20q43 0 86 -1v-653q0 -83 28 -125.5t97 -42.5q99 0 168 96.5t69 230.5v492h260v-817q93 -15 179 -21v-164q-155 -20 -326 -20q-48 0 -96 2q0 113 12 184h-4q-46 -93 -134.5 -147.5t-209.5 -54.5q-84 0 -144.5 25t-95 70.5t-50 101.5t-15.5 126 v514q-95 16 -176 21z" />
<glyph unicode="v" horiz-adv-x="1036" d="M10 1018h283l164 -492q44 -144 65 -254h4q24 119 62 252l160 494h276l-352 -1018h-312z" />
<glyph unicode="w" horiz-adv-x="1630" d="M20 1018h289l115 -424q65 -264 70 -291h2q30 159 67 293l127 422h260l129 -422q51 -175 72 -295h4q17 104 68 293l118 424h267l-314 -1018h-293l-145 463q-39 149 -55 237h-2q-18 -90 -66 -268l-127 -432h-280z" />
<glyph unicode="x" horiz-adv-x="1081" d="M23 0l350 514l-330 504h313l197 -336l199 336h290l-319 -502l336 -516h-330l-197 342l-196 -342h-313z" />
<glyph unicode="y" horiz-adv-x="1028" d="M-27 -498l27 224q60 -17 123 -17q80 0 134.5 45.5t94.5 155.5l33 90l-375 1018h295l137 -400q38 -114 84 -292h2q41 163 93 325l118 367h281l-387 -1075q-61 -170 -140.5 -271t-171.5 -141.5t-215 -40.5q-28 0 -61.5 3t-52.5 6z" />
<glyph unicode="z" horiz-adv-x="921" d="M92 0v186l410 600q-78 -4 -217 -4h-181v236h713v-187l-401 -593q43 2 231 2h178v-240h-733z" />
<glyph unicode="{" horiz-adv-x="741" d="M49 543v196q110 6 157.5 52.5t47.5 169.5v178q0 230 87.5 341t285.5 111h43v-207q-101 0 -136.5 -47.5t-35.5 -193.5v-176q0 -156 -49 -232t-140 -92v-4q189 -27 189 -330v-274q0 -101 16 -152.5t51.5 -71.5t104.5 -20v-211h-43q-198 0 -285.5 109t-87.5 348v276 q0 123 -49 173.5t-156 56.5z" />
<glyph unicode="|" horiz-adv-x="589" d="M186 -494v2048h209v-2048h-209z" />
<glyph unicode="}" horiz-adv-x="741" d="M72 -209q69 0 104.5 20t51.5 71.5t16 152.5v274q0 303 188 330v4q-188 26 -188 318v182q0 146 -35.5 193.5t-136.5 47.5v207h43q198 0 285 -111t87 -341v-172q0 -128 47 -175t158 -53v-196q-107 -6 -156 -56.5t-49 -173.5v-276q0 -240 -87 -348.5t-285 -108.5h-43v211z " />
<glyph unicode="~" d="M86 881v37q0 148 83.5 237.5t225.5 89.5q55 0 99 -16t71 -40t52 -51.5t42.5 -51.5t41.5 -40t51 -16q93 0 96 166h194v-37q0 -149 -83.5 -238.5t-225.5 -89.5q-65 0 -114.5 22t-78.5 53.5t-53 62.5t-51 53t-59 22q-93 0 -96 -163h-195z" />
<glyph unicode="&#xa2;" d="M150 668q0 191 104 318t295 167v178h196v-170q111 -3 211 -43l-53 -211q-95 45 -209 45q-125 0 -197.5 -71t-72.5 -201q0 -122 70 -192t200 -70q121 0 213 53l64 -209q-102 -48 -226 -61v-201h-196v201q-196 20 -297.5 142.5t-101.5 324.5z" />
<glyph unicode="&#xa3;" d="M98 561v203h168q-16 118 -16 174q0 416 452 416q117 0 252 -33l-53 -219q-115 39 -213 39q-174 0 -174 -180q0 -49 18 -197h310v-203h-285q8 -44 8 -96q0 -76 -28 -133t-88 -111q86 4 149 4h406v-225h-865v178q162 131 162 279q0 57 -8 104h-195z" />
<glyph unicode="&#xa5;" d="M41 1331h293l151 -295q46 -84 80 -172h4q25 66 84 178l150 289h282l-389 -684v-39h299v-166h-299v-137h299v-166h-299v-139h-266v139h-299v166h299v137h-299v166h299v37z" />
<glyph unicode="&#xa8;" horiz-adv-x="964" d="M133 1327q0 60 41 100.5t100 40.5q60 0 101 -40.5t41 -100.5q0 -59 -41 -100t-101 -41q-58 0 -99.5 41t-41.5 100zM549 1327q0 60 40.5 100.5t100.5 40.5q59 0 100 -40.5t41 -100.5q0 -59 -41.5 -100t-99.5 -41q-60 0 -100.5 41t-40.5 100z" />
<glyph unicode="&#xa9;" horiz-adv-x="1560" d="M78 682q0 143 55.5 272.5t149 223t223 149t272.5 55.5q190 0 351.5 -93t255.5 -254t94 -351t-94 -351.5t-255.5 -255t-351.5 -93.5q-145 0 -275 55t-223 148.5t-147.5 222.5t-54.5 272zM274 684q0 -137 67.5 -253.5t183.5 -184.5t253 -68q209 0 355.5 147.5t146.5 356.5 q0 136 -66.5 252.5t-182.5 185t-253 68.5q-209 0 -356.5 -147.5t-147.5 -356.5zM444 676q0 77 21.5 143t64 118t113.5 82t162 30t168 -31l-29 -174q-54 35 -129 35q-153 0 -153 -199q0 -178 143 -178q83 0 143 28l35 -168q-84 -40 -209 -40q-155 0 -242.5 95.5t-87.5 258.5z " />
<glyph unicode="&#xab;" horiz-adv-x="1093" d="M86 598l225 403l201 -92l-174 -309l178 -305l-211 -94zM530 598l246 393l197 -94l-189 -297l193 -293l-205 -96z" />
<glyph unicode="&#xad;" horiz-adv-x="684" d="M90 463v211h504v-211h-504z" />
<glyph unicode="&#xae;" horiz-adv-x="1155" d="M98 1085q0 197 140.5 335.5t339.5 138.5q200 0 339.5 -137t139.5 -337q0 -96 -38.5 -183.5t-102.5 -150.5t-152.5 -100t-185.5 -37q-201 0 -340.5 136.5t-139.5 334.5zM256 1087q0 -132 94.5 -227.5t227.5 -95.5q132 0 225.5 94t93.5 227q0 132 -93.5 228t-225.5 96 q-134 0 -228 -94.5t-94 -227.5zM410 860v457h190q82 0 122 -34t40 -93q0 -103 -92 -129q20 -24 35 -55l67 -146h-147l-78 174h-15v-174h-122zM532 1118h23q35 0 53.5 15.5t18.5 40.5q0 49 -62 49h-33v-105z" />
<glyph unicode="&#xb4;" horiz-adv-x="716" d="M133 1268l307 295l144 -154l-334 -266z" />
<glyph unicode="&#xb8;" horiz-adv-x="571" d="M133 -479q52 62 72.5 111.5t9.5 103t-59 114.5l217 68q146 -204 -41 -397h-199z" />
<glyph unicode="&#xbb;" horiz-adv-x="1093" d="M117 895l205 96l241 -387l-248 -393l-196 94l190 297zM578 907l210 94l220 -397l-226 -403l-202 92l176 309z" />
<glyph unicode="&#xc1;" horiz-adv-x="1282" d="M4 0l463 1382h346l465 -1382h-295l-94 295h-520l-97 -295h-268zM430 506h399l-143 432q-33 103 -55 207h-4q-16 -77 -54 -205zM455 1610l426 153l59 -188l-442 -109z" />
<glyph unicode="&#xc9;" horiz-adv-x="1044" d="M143 0v1382h783v-223h-516v-340h473v-217h-473v-373h516v-229h-783zM348 1610l426 153l60 -188l-443 -109z" />
<glyph unicode="&#xcd;" horiz-adv-x="552" d="M109 1610l426 153l59 -188l-442 -109zM143 0v1382h267v-1382h-267z" />
<glyph unicode="&#xd3;" horiz-adv-x="1460" d="M74 666q0 175 54 317t147.5 233t215.5 140t261 49q309 0 471.5 -179.5t162.5 -508.5q0 -175 -54 -317t-147 -233.5t-215 -140.5t-261 -49q-309 0 -472 180t-163 509zM358 698q0 -227 94 -354t277 -127q167 0 270 123t103 346q0 226 -94.5 352.5t-278.5 126.5 q-167 0 -269 -122.5t-102 -344.5zM575 1610l426 153l60 -188l-443 -109z" />
<glyph unicode="&#xda;" horiz-adv-x="1394" d="M143 479v903h267v-886q0 -69 13 -120.5t44 -93t88.5 -62.5t140.5 -21q156 0 223.5 73t67.5 248v862h264v-845q0 -280 -147.5 -420t-425.5 -140q-91 0 -166.5 14t-130.5 39t-96.5 61.5t-68 78.5t-43.5 94t-23.5 103.5t-6.5 111.5zM608 1610l426 153l60 -188l-443 -109z " />
<glyph unicode="&#xdd;" horiz-adv-x="1148" d="M-4 1382h293l192 -389q50 -106 94 -219h5q36 95 106 238l184 370h283l-446 -872v-510h-267v508zM471 1610l426 153l59 -188l-442 -109z" />
<glyph unicode="&#xe1;" horiz-adv-x="1130" d="M78 270q0 118 73.5 199t203.5 118.5t311 37.5v43q0 90 -42 131t-141 41q-138 0 -309 -68l-41 199q203 69 381 69q228 0 321 -89t93 -269v-481q94 -15 178 -21v-164q-199 -25 -420 -18q0 108 10 174l-2 2q-37 -87 -124.5 -140.5t-200.5 -53.5q-135 0 -213 81t-78 209z M330 299q0 -51 33.5 -85t89.5 -34q92 0 152.5 74t60.5 168v31q-96 0 -163.5 -11.5t-104 -33t-52.5 -48t-16 -61.5zM395 1268l307 295l144 -154l-334 -266z" />
<glyph unicode="&#xe9;" horiz-adv-x="1052" d="M70 500q0 153 56.5 274.5t167.5 192.5t259 71q212 0 317 -119.5t105 -312.5q0 -35 -2 -73t-4 -59l-2 -21h-631q0 -134 65.5 -202.5t204.5 -68.5q147 0 307 54l27 -195q-180 -61 -365 -61q-505 0 -505 520zM338 629h377q3 105 -44 161t-132 56q-83 0 -137.5 -58 t-63.5 -159zM393 1268l307 295l144 -154l-334 -266z" />
<glyph unicode="&#xed;" horiz-adv-x="610" d="M31 838v163q203 25 438 19v-1020h-260v817q-94 15 -178 21zM160 1241l233 332l176 -119l-266 -313z" />
<glyph unicode="&#xf3;" horiz-adv-x="1132" d="M68 485q0 242 138 397.5t380 155.5q226 0 352.5 -126t126.5 -380q0 -242 -138 -397t-380 -155q-226 0 -352.5 125.5t-126.5 379.5zM338 510q0 -149 59.5 -228t167.5 -79q104 0 167 77t63 228q0 149 -59.5 229t-166.5 80q-108 0 -169.5 -79t-61.5 -228zM418 1268l307 295 l143 -154l-333 -266z" />
<glyph unicode="&#xfa;" horiz-adv-x="1288" d="M27 838v163q214 25 438 19v-653q0 -83 28 -125.5t97 -42.5q99 0 168 96.5t69 230.5v492h260v-817q93 -15 179 -21v-164q-199 -25 -422 -18q0 113 12 184h-4q-46 -93 -134.5 -147.5t-209.5 -54.5q-84 0 -144.5 25t-95 70.5t-50 101.5t-15.5 126v514q-95 16 -176 21z M500 1268l307 295l143 -154l-334 -266z" />
<glyph unicode="&#xfd;" horiz-adv-x="1028" d="M-27 -498l27 224q60 -17 123 -17q80 0 134.5 45.5t94.5 155.5l33 90l-375 1018h295l137 -400q38 -114 84 -292h2q41 163 93 325l118 367h281l-387 -1075q-61 -170 -140.5 -271t-171.5 -141.5t-215 -40.5q-28 0 -61.5 3t-52.5 6zM399 1268l308 295l143 -154l-334 -266z " />
<glyph unicode="&#x100;" horiz-adv-x="1282" d="M4 0l463 1382h346l465 -1382h-295l-94 295h-520l-97 -295h-268zM332 1518v165h600v-165h-600zM430 506h399l-143 432q-33 103 -55 207h-4q-16 -77 -54 -205z" />
<glyph unicode="&#x101;" horiz-adv-x="1130" d="M78 270q0 118 73.5 199t203.5 118.5t311 37.5v43q0 90 -42 131t-141 41q-138 0 -309 -68l-41 199q203 69 381 69q228 0 321 -89t93 -269v-481q94 -15 178 -21v-164q-199 -25 -420 -18q0 108 10 174l-2 2q-37 -87 -124.5 -140.5t-200.5 -53.5q-135 0 -213 81t-78 209z M266 1229v188h553v-188h-553zM330 299q0 -51 33.5 -85t89.5 -34q92 0 152.5 74t60.5 168v31q-96 0 -163.5 -11.5t-104 -33t-52.5 -48t-16 -61.5z" />
<glyph unicode="&#x102;" horiz-adv-x="1282" d="M4 0l463 1382h346l465 -1382h-295l-94 295h-520l-97 -295h-268zM342 1759h156q0 -50 38.5 -83.5t96.5 -33.5q62 0 98.5 33t36.5 84h156q0 -121 -77 -199.5t-216 -78.5q-137 0 -213 79.5t-76 198.5zM430 506h399l-143 432q-33 103 -55 207h-4q-16 -77 -54 -205z" />
<glyph unicode="&#x103;" horiz-adv-x="1130" d="M78 270q0 118 73.5 199t203.5 118.5t311 37.5v43q0 90 -42 131t-141 41q-138 0 -309 -68l-41 199q203 69 381 69q228 0 321 -89t93 -269v-481q94 -15 178 -21v-164q-199 -25 -420 -18q0 108 10 174l-2 2q-37 -87 -124.5 -140.5t-200.5 -53.5q-135 0 -213 81t-78 209z M266 1475h170q0 -56 28.5 -90.5t80.5 -34.5t81 31.5t29 93.5h172q0 -63 -17 -118.5t-50 -100t-89 -70t-128 -25.5t-127 26t-87 70.5t-47.5 99.5t-15.5 118zM330 299q0 -51 33.5 -85t89.5 -34q92 0 152.5 74t60.5 168v31q-96 0 -163.5 -11.5t-104 -33t-52.5 -48t-16 -61.5z " />
<glyph unicode="&#x104;" horiz-adv-x="1282" d="M4 0l463 1382h346l465 -1382q-203 -93 -203 -223q0 -68 72 -68q63 0 133 49l74 -141q-114 -102 -269 -102q-118 0 -187 55t-69 154q0 152 154 276l-94 295h-520l-97 -295h-268zM430 506h399l-143 432q-33 103 -55 207h-4q-16 -77 -54 -205z" />
<glyph unicode="&#x105;" horiz-adv-x="1130" d="M78 270q0 118 73.5 199t203.5 118.5t311 37.5v43q0 90 -42 131t-141 41q-138 0 -309 -68l-41 199q203 69 381 69q228 0 321 -89t93 -269v-297q0 -76 12 -186q91 -14 166 -19v-164q-152 -14 -240 -84.5t-88 -154.5q0 -32 19.5 -50t54.5 -18q63 0 133 49l72 -141 q-114 -102 -266 -102q-118 0 -187 55t-69 154q0 155 172 294q-13 76 -13 148h-2q-42 -85 -127.5 -135.5t-195.5 -50.5q-135 0 -213 81t-78 209zM330 299q0 -51 33.5 -85t89.5 -34q92 0 152.5 74t60.5 168v31q-96 0 -163.5 -11.5t-104 -33t-52.5 -48t-16 -61.5z" />
<glyph unicode="&#x106;" horiz-adv-x="1159" d="M78 653q0 340 179 543t505 203q163 0 305 -49l-43 -248q-136 57 -276 57q-124 0 -211 -63t-127.5 -167.5t-40.5 -240.5q0 -224 98 -342.5t295 -118.5q127 0 274 64l41 -236q-177 -71 -362 -71q-140 0 -250 36.5t-181.5 98t-118.5 148t-67 182t-20 204.5zM537 1610 l426 153l59 -188l-442 -109z" />
<glyph unicode="&#x107;" horiz-adv-x="870" d="M70 475q0 264 138.5 412.5t375.5 148.5q117 0 227 -35l-41 -225q-97 39 -190 39q-114 0 -175 -84t-61 -229q0 -295 238 -295q105 0 198 41l35 -219q-121 -47 -285 -47q-221 0 -340.5 120.5t-119.5 372.5zM348 1268l307 295l144 -154l-334 -266z" />
<glyph unicode="&#x108;" horiz-adv-x="1159" d="M78 653q0 340 179 543t505 203q163 0 305 -49l-43 -248q-136 57 -276 57q-124 0 -211 -63t-127.5 -167.5t-40.5 -240.5q0 -224 98 -342.5t295 -118.5q127 0 274 64l41 -236q-177 -71 -362 -71q-140 0 -250 36.5t-181.5 98t-118.5 148t-67 182t-20 204.5zM358 1599 l344 173l336 -170l-61 -138l-279 113l-280 -113z" />
<glyph unicode="&#x109;" horiz-adv-x="870" d="M70 475q0 264 138.5 412.5t375.5 148.5q117 0 227 -35l-41 -225q-97 39 -190 39q-114 0 -175 -84t-61 -229q0 -295 238 -295q105 0 198 41l35 -219q-121 -47 -285 -47q-221 0 -340.5 120.5t-119.5 372.5zM197 1266l317 278l311 -276l-102 -121l-211 166l-215 -166z" />
<glyph unicode="&#x10a;" horiz-adv-x="1159" d="M78 653q0 340 179 543t505 203q163 0 305 -49l-43 -248q-136 57 -276 57q-124 0 -211 -63t-127.5 -167.5t-40.5 -240.5q0 -224 98 -342.5t295 -118.5q127 0 274 64l41 -236q-177 -71 -362 -71q-140 0 -250 36.5t-181.5 98t-118.5 148t-67 182t-20 204.5zM553 1626 q0 64 46.5 110t111.5 46q64 0 109.5 -45.5t45.5 -110.5t-45.5 -111.5t-109.5 -46.5q-65 0 -111.5 46t-46.5 112z" />
<glyph unicode="&#x10b;" horiz-adv-x="870" d="M70 475q0 264 138.5 412.5t375.5 148.5q117 0 227 -35l-41 -225q-97 39 -190 39q-114 0 -175 -84t-61 -229q0 -295 238 -295q105 0 198 41l35 -219q-121 -47 -285 -47q-221 0 -340.5 120.5t-119.5 372.5zM371 1325q0 66 46 112t111 46t110.5 -46t45.5 -112 q0 -65 -46 -110.5t-110 -45.5q-65 0 -111 46t-46 110z" />
<glyph unicode="&#x10c;" horiz-adv-x="1159" d="M78 653q0 340 179 543t505 203q163 0 305 -49l-43 -248q-136 57 -276 57q-124 0 -211 -63t-127.5 -167.5t-40.5 -240.5q0 -224 98 -342.5t295 -118.5q127 0 274 64l41 -236q-177 -71 -362 -71q-140 0 -250 36.5t-181.5 98t-118.5 148t-67 182t-20 204.5zM356 1634l64 138 l276 -113l281 113l59 -134l-344 -174z" />
<glyph unicode="&#x10d;" horiz-adv-x="870" d="M70 475q0 264 138.5 412.5t375.5 148.5q117 0 227 -35l-41 -225q-97 39 -190 39q-114 0 -175 -84t-61 -229q0 -295 238 -295q105 0 198 41l35 -219q-121 -47 -285 -47q-221 0 -340.5 120.5t-119.5 372.5zM207 1421l102 123l213 -168l215 168l99 -121l-318 -276z" />
<glyph unicode="&#x10e;" horiz-adv-x="1366" d="M143 2v1378q300 11 447 11q700 0 700 -676q0 -174 -55.5 -312t-156.5 -227.5t-240.5 -136.5t-309.5 -47q-92 0 -385 10zM260 1634l64 138l276 -113l281 113l59 -134l-344 -174zM410 229q62 -10 145 -10q99 0 180 28.5t141.5 85.5t94 149t33.5 212q0 232 -102.5 352.5 t-330.5 120.5q-97 0 -161 -6v-932z" />
<glyph unicode="&#x10f;" horiz-adv-x="1251" d="M74 455q0 262 144 421.5t394 159.5q69 0 129 -8v266q-94 15 -178 21v164q196 24 438 18v-1296q93 -15 179 -21v-164q-199 -25 -422 -18q0 90 12 172h-4q-43 -88 -126.5 -140.5t-195.5 -52.5q-182 0 -276 127t-94 351zM348 483q0 -288 174 -288q99 0 159 98t60 235v285 q-75 16 -137 16q-120 0 -188 -83t-68 -263zM1073 1169l105 420l208 -45l-143 -411z" />
<glyph unicode="&#x110;" horiz-adv-x="1384" d="M8 610v203h154v567q300 11 448 11q699 0 699 -676q0 -343 -204.5 -533t-557.5 -190q-93 0 -385 10v608h-154zM426 229q62 -10 145 -10q206 0 328.5 119t122.5 356q0 232 -102 352.5t-332 120.5q-98 0 -162 -6v-348h250v-203h-250v-381z" />
<glyph unicode="&#x111;" horiz-adv-x="1200" d="M74 455q0 262 144 421.5t394 159.5q69 0 129 -8v78h-247v166h247v86q-83 14 -178 20v140q225 24 438 16v-262h121v-166h-121v-905q90 -15 179 -21v-164q-211 -25 -422 -18q0 90 12 172h-4q-43 -88 -126.5 -140.5t-195.5 -52.5q-182 0 -276 127t-94 351zM348 483 q0 -288 174 -288q99 0 159 98t60 235v285q-75 16 -137 16q-120 0 -188 -83t-68 -263z" />
<glyph unicode="&#x112;" horiz-adv-x="1044" d="M143 0v1382h783v-223h-516v-340h473v-217h-473v-373h516v-229h-783zM223 1518v165h600v-165h-600z" />
<glyph unicode="&#x113;" horiz-adv-x="1052" d="M70 500q0 153 56.5 274.5t167.5 192.5t259 71q212 0 317 -119.5t105 -312.5q0 -35 -2 -73t-4 -59l-2 -21h-631q0 -134 65.5 -202.5t204.5 -68.5q147 0 307 54l27 -195q-180 -61 -365 -61q-505 0 -505 520zM262 1229v188h553v-188h-553zM338 629h377q3 105 -44 161 t-132 56q-83 0 -137.5 -58t-63.5 -159z" />
<glyph unicode="&#x114;" horiz-adv-x="1044" d="M143 0v1382h783v-223h-516v-340h473v-217h-473v-373h516v-229h-783zM242 1759h155q0 -50 38.5 -83.5t96.5 -33.5q62 0 99 33t37 84h155q0 -121 -77 -199.5t-216 -78.5q-137 0 -212.5 79.5t-75.5 198.5z" />
<glyph unicode="&#x115;" horiz-adv-x="1052" d="M70 500q0 153 56.5 274.5t167.5 192.5t259 71q212 0 317 -119.5t105 -312.5q0 -35 -2 -73t-4 -59l-2 -21h-631q0 -134 65.5 -202.5t204.5 -68.5q147 0 307 54l27 -195q-180 -61 -365 -61q-505 0 -505 520zM254 1475h170q0 -56 28 -90.5t80 -34.5t81.5 31.5t29.5 93.5h172 q0 -63 -17 -118.5t-50.5 -100t-89.5 -70t-128 -25.5t-126.5 26t-86.5 71t-47.5 99.5t-15.5 117.5zM338 629h377q3 105 -44 161t-132 56q-83 0 -137.5 -58t-63.5 -159z" />
<glyph unicode="&#x116;" horiz-adv-x="1044" d="M143 0v1382h783v-223h-516v-340h473v-217h-473v-373h516v-229h-783zM371 1626q0 64 46 110t111 46q64 0 110 -46t46 -110q0 -65 -46 -111.5t-110 -46.5q-65 0 -111 46t-46 112z" />
<glyph unicode="&#x117;" horiz-adv-x="1052" d="M70 500q0 153 56.5 274.5t167.5 192.5t259 71q212 0 317 -119.5t105 -312.5q0 -35 -2 -73t-4 -59l-2 -21h-631q0 -134 65.5 -202.5t204.5 -68.5q147 0 307 54l27 -195q-180 -61 -365 -61q-505 0 -505 520zM338 629h377q3 105 -44 161t-132 56q-83 0 -137.5 -58 t-63.5 -159zM389 1337q0 66 46.5 112t111.5 46t110 -46t45 -112q0 -65 -45 -110t-110 -45t-111.5 45.5t-46.5 109.5z" />
<glyph unicode="&#x118;" horiz-adv-x="1044" d="M143 0v1382h783v-223h-516v-340h473v-217h-473v-373h516v-223q-101 -29 -160 -97t-59 -132q0 -32 19 -50t54 -18q63 0 133 49l72 -141q-114 -102 -268 -102q-117 0 -185.5 55t-68.5 154q0 76 44 153t118 123h-482z" />
<glyph unicode="&#x119;" horiz-adv-x="1052" d="M70 500q0 153 56.5 274.5t167.5 192.5t259 71q212 0 317 -119.5t105 -312.5q0 -33 -2 -71t-4 -60l-2 -22h-631q0 -134 65.5 -202.5t204.5 -68.5q147 0 307 54l27 -193q-110 -43 -180 -117.5t-70 -148.5q0 -32 19.5 -50t54.5 -18q63 0 133 49l72 -141q-114 -102 -267 -102 q-118 0 -187 55t-69 154q0 68 36 138t106 128q-24 -6 -58 -6q-72 0 -135.5 15t-124 52t-104 94.5t-70 148t-26.5 206.5zM338 629h377q3 105 -44 161t-132 56q-83 0 -137.5 -58t-63.5 -159z" />
<glyph unicode="&#x11a;" horiz-adv-x="1044" d="M143 0v1382h783v-223h-516v-340h473v-217h-473v-373h516v-229h-783zM184 1634l64 138l276 -113l281 113l59 -134l-344 -174z" />
<glyph unicode="&#x11b;" horiz-adv-x="1052" d="M70 500q0 153 56.5 274.5t167.5 192.5t259 71q212 0 317 -119.5t105 -312.5q0 -35 -2 -73t-4 -59l-2 -21h-631q0 -134 65.5 -202.5t204.5 -68.5q147 0 307 54l27 -195q-180 -61 -365 -61q-505 0 -505 520zM229 1421l103 123l213 -168l215 168l98 -121l-317 -276zM338 629 h377q3 105 -44 161t-132 56q-83 0 -137.5 -58t-63.5 -159z" />
<glyph unicode="&#x11c;" horiz-adv-x="1382" d="M74 649q0 226 86.5 394.5t261.5 264t420 95.5q201 0 391 -60l-53 -243q-157 65 -355 65q-119 0 -210 -38t-145 -105t-81 -152t-27 -186q0 -222 113.5 -343.5t327.5 -121.5q93 0 176 25v481h266v-659q-214 -86 -473 -86q-337 0 -517.5 178t-180.5 491zM440 1599l344 173 l336 -170l-61 -138l-279 113l-280 -113z" />
<glyph unicode="&#x11d;" horiz-adv-x="1144" d="M74 455q0 264 146 422.5t409 158.5q187 0 372 -30v-1020q0 -496 -555 -496q-159 0 -313 35l25 237q139 -51 303 -51q145 0 213.5 59.5t68.5 188.5v61q0 80 13 146l-4 2q-40 -88 -120 -138t-181 -50q-183 0 -280 122t-97 353zM289 1266l317 278l312 -276l-103 -121 l-211 166l-215 -166zM348 483q0 -286 172 -286q101 0 161 98t60 237v281q-60 14 -137 14q-256 0 -256 -344z" />
<glyph unicode="&#x11e;" horiz-adv-x="1382" d="M74 649q0 226 86.5 394.5t261.5 264t420 95.5q201 0 391 -60l-53 -243q-157 65 -355 65q-119 0 -210 -38t-145 -105t-81 -152t-27 -186q0 -222 113.5 -343.5t327.5 -121.5q93 0 176 25v481h266v-659q-214 -86 -473 -86q-337 0 -517.5 178t-180.5 491zM508 1759h156 q0 -50 38.5 -83.5t96.5 -33.5q62 0 98.5 33t36.5 84h156q0 -121 -77 -199.5t-216 -78.5q-137 0 -213 79.5t-76 198.5z" />
<glyph unicode="&#x11f;" horiz-adv-x="1144" d="M74 455q0 264 146 422.5t409 158.5q187 0 372 -30v-1020q0 -496 -555 -496q-159 0 -313 35l25 237q139 -51 303 -51q145 0 213.5 59.5t68.5 188.5v61q0 80 13 146l-4 2q-40 -88 -120 -138t-181 -50q-183 0 -280 122t-97 353zM324 1475h170q0 -56 28 -90.5t80 -34.5 t81.5 31.5t29.5 93.5h172q0 -63 -17 -118.5t-50.5 -100t-89.5 -70t-128 -25.5t-126.5 26t-86.5 71t-47.5 99.5t-15.5 117.5zM348 483q0 -286 172 -286q101 0 161 98t60 237v281q-60 14 -137 14q-256 0 -256 -344z" />
<glyph unicode="&#x120;" horiz-adv-x="1382" d="M74 649q0 226 86.5 394.5t261.5 264t420 95.5q201 0 391 -60l-53 -243q-157 65 -355 65q-119 0 -210 -38t-145 -105t-81 -152t-27 -186q0 -222 113.5 -343.5t327.5 -121.5q93 0 176 25v481h266v-659q-214 -86 -473 -86q-337 0 -517.5 178t-180.5 491zM627 1638 q0 64 46 110t111 46q64 0 110 -46t46 -110q0 -65 -46 -111t-110 -46q-65 0 -111 45.5t-46 111.5z" />
<glyph unicode="&#x121;" horiz-adv-x="1144" d="M74 455q0 264 146 422.5t409 158.5q187 0 372 -30v-1020q0 -496 -555 -496q-159 0 -313 35l25 237q139 -51 303 -51q145 0 213.5 59.5t68.5 188.5v61q0 80 13 146l-4 2q-40 -88 -120 -138t-181 -50q-183 0 -280 122t-97 353zM348 483q0 -286 172 -286q101 0 161 98 t60 237v281q-60 14 -137 14q-256 0 -256 -344zM446 1337q0 66 46.5 112t111.5 46t110.5 -46t45.5 -112q0 -64 -45.5 -109.5t-110.5 -45.5t-111.5 45.5t-46.5 109.5z" />
<glyph unicode="&#x122;" horiz-adv-x="1382" d="M74 649q0 226 86.5 394.5t261.5 264t420 95.5q201 0 391 -60l-53 -243q-157 65 -355 65q-119 0 -210 -38t-145 -105t-81 -152t-27 -186q0 -222 113.5 -343.5t327.5 -121.5q93 0 176 25v481h266v-659q-214 -86 -473 -86q-337 0 -517.5 178t-180.5 491zM580 -401 q56 29 78 55t22 55q0 18 -8 41t-8 39q0 47 32 81t88 34q57 0 91 -37.5t34 -97.5q0 -81 -70.5 -154.5t-217.5 -110.5z" />
<glyph unicode="&#x123;" horiz-adv-x="1144" d="M74 455q0 264 146 422.5t409 158.5q187 0 372 -30v-1020q0 -496 -555 -496q-159 0 -313 35l25 237q139 -51 303 -51q145 0 213.5 59.5t68.5 188.5v61q0 80 13 146l-4 2q-40 -88 -120 -138t-181 -50q-183 0 -280 122t-97 353zM348 483q0 -286 172 -286q101 0 161 98 t60 237v281q-60 14 -137 14q-256 0 -256 -344zM457 1286q0 35 15 71t46 73t89 68.5t136 49.5l43 -94q-102 -49 -102 -108q0 -18 8 -41t8 -41q0 -51 -33.5 -83t-86.5 -32q-54 0 -88.5 40t-34.5 97z" />
<glyph unicode="&#x124;" horiz-adv-x="1404" d="M143 0v1382h267v-553h585v553h269v-1382h-269v600h-585v-600h-267zM365 1599l344 173l335 -170l-61 -138l-278 113l-281 -113z" />
<glyph unicode="&#x125;" horiz-adv-x="1179" d="M-27 1315v164q199 24 441 18v-440q0 -124 -19 -207h4q46 88 131.5 138t202.5 50q83 0 143.5 -25t94.5 -70.5t49.5 -101.5t15.5 -126v-715h-260v651q0 83 -28.5 125.5t-98.5 42.5q-99 0 -167 -97t-68 -233v-489h-262v1294q-93 15 -179 21zM244 1679l344 172l336 -170 l-62 -137l-278 113l-281 -113z" />
<glyph unicode="&#x126;" horiz-adv-x="1445" d="M31 987v217h133v178h266v-178h586v178h268v-178h133v-217h-133v-987h-268v567h-586v-567h-266v987h-133zM430 784h586v203h-586v-203z" />
<glyph unicode="&#x127;" horiz-adv-x="1198" d="M-8 1378v140q228 24 440 16v-262h244v-174h-244v-82q0 -98 -18 -174l4 -2q45 88 131.5 139t202.5 51q83 0 143.5 -25t94.5 -71t49.5 -102.5t15.5 -126.5v-705h-260v649q0 83 -28 125.5t-97 42.5q-99 0 -168.5 -97t-69.5 -233v-487h-262v1098h-168v174h168v86 q-83 14 -178 20z" />
<glyph unicode="&#x128;" horiz-adv-x="552" d="M-106 1589q94 168 258 168q48 0 89 -15t64.5 -33t52.5 -33t56 -15q66 0 116 86l132 -88q-94 -168 -259 -168q-47 0 -88 15t-64.5 33t-52.5 33t-55 15q-67 0 -118 -88zM143 0v1382h267v-1382h-267z" />
<glyph unicode="&#x129;" horiz-adv-x="610" d="M-41 1286q27 79 86 130.5t141 51.5q44 0 86 -24t73.5 -48t49.5 -24q52 0 94 86l121 -92q-72 -180 -229 -180q-43 0 -84 24t-72.5 48t-50.5 24q-28 0 -53.5 -25.5t-40.5 -60.5zM31 838v163q203 25 438 19v-1020h-260v817q-94 15 -178 21z" />
<glyph unicode="&#x12a;" horiz-adv-x="552" d="M-25 1518v165h600v-165h-600zM143 0v1382h267v-1382h-267z" />
<glyph unicode="&#x12b;" horiz-adv-x="610" d="M31 838v163q203 25 438 19v-1020h-260v817q-94 15 -178 21zM45 1229v188h522v-188h-522z" />
<glyph unicode="&#x12c;" horiz-adv-x="552" d="M-16 1759h155q0 -50 38.5 -83.5t96.5 -33.5q62 0 99 33t37 84h155q0 -121 -77 -199.5t-216 -78.5q-137 0 -212.5 79.5t-75.5 198.5zM143 0v1382h267v-1382h-267z" />
<glyph unicode="&#x12d;" horiz-adv-x="610" d="M31 838v163q203 25 438 19v-1020h-260v817q-94 15 -178 21zM43 1475h168q0 -53 25.5 -89t68.5 -36q44 0 69 33t25 92h170q0 -150 -69 -232t-197 -82q-127 0 -193.5 82t-66.5 232z" />
<glyph unicode="&#x12e;" horiz-adv-x="552" d="M10 -276q0 135 133 278v1380h267v-1382q-156 -111 -156 -223q0 -32 19 -50t53 -18q65 0 135 49l71 -141q-114 -102 -268 -102q-117 0 -185.5 55t-68.5 154z" />
<glyph unicode="&#x12f;" horiz-adv-x="610" d="M31 838v163q203 25 438 19v-1020q-90 -51 -130 -111t-40 -112q0 -32 19 -50t53 -18q65 0 135 49l72 -141q-114 -102 -265 -102q-120 0 -189 55t-69 154q0 72 40 145.5t114 136.5v811q-94 15 -178 21zM176 1327q0 66 48 113t114 47q68 0 116 -46.5t48 -113.5 q0 -65 -48.5 -111.5t-115.5 -46.5q-66 0 -114 46t-48 112z" />
<glyph unicode="&#x130;" horiz-adv-x="552" d="M121 1626q0 64 46.5 110t111.5 46q64 0 109.5 -45.5t45.5 -110.5t-45.5 -111.5t-109.5 -46.5q-65 0 -111.5 46t-46.5 112zM143 0v1382h267v-1382h-267z" />
<glyph unicode="&#x131;" horiz-adv-x="610" d="M31 838v163q203 25 438 19v-1020h-260v817q-94 15 -178 21z" />
<glyph unicode="&#x132;" horiz-adv-x="1247" d="M143 0v1382h267v-1382h-267zM535 -2v229q55 -20 143 -20q79 0 119.5 43t40.5 147v985h268v-989q0 -90 -21.5 -163t-66.5 -129.5t-122 -87.5t-181 -31q-86 0 -180 16z" />
<glyph unicode="&#x133;" horiz-adv-x="1224" d="M31 838v163q203 25 438 19v-1020h-260v817q-94 15 -178 21zM176 1327q0 66 48 113t114 47q68 0 116 -46.5t48 -113.5q0 -65 -48.5 -111.5t-115.5 -46.5q-66 0 -114 46t-48 112zM543 -487l16 223q70 -25 123 -25q79 0 109 41.5t30 145.5v919q-94 15 -178 21v163 q206 25 440 19v-1096q0 -215 -91 -323.5t-304 -108.5q-70 0 -145 21zM788 1327q0 66 48 113t116 47t115 -46.5t47 -113.5q0 -65 -47.5 -111.5t-114.5 -46.5q-68 0 -116 46t-48 112z" />
<glyph unicode="&#x134;" horiz-adv-x="710" d="M0 -2v229q55 -20 143 -20q79 0 119.5 43t40.5 147v985h268v-989q0 -90 -21.5 -163t-66.5 -129.5t-122 -87.5t-181 -31q-86 0 -180 16zM94 1599l344 173l336 -170l-61 -138l-279 113l-280 -113z" />
<glyph unicode="&#x135;" horiz-adv-x="614" d="M-68 -487l17 223q70 -25 123 -25q79 0 109 41.5t30 145.5v919q-94 15 -178 21v163q206 25 440 19v-1096q0 -215 -91 -323.5t-304 -108.5q-71 0 -146 21zM41 1264l283 278l278 -274l-98 -121l-182 166l-187 -166z" />
<glyph unicode="&#x136;" horiz-adv-x="1222" d="M143 0v1382h267v-626l446 626h324l-506 -663l530 -719h-350l-444 664v-664h-267zM412 -401q56 29 78 55t22 55q0 18 -8 41t-8 39q0 47 32 81t88 34q57 0 91 -37.5t34 -97.5q0 -81 -70.5 -154.5t-217.5 -110.5z" />
<glyph unicode="&#x137;" horiz-adv-x="1081" d="M-27 1315v164q199 24 441 18v-903l297 424h307l-350 -453l389 -565h-328l-315 504v-504h-262v1294q-93 15 -179 21zM352 -401q56 30 78.5 55.5t22.5 54.5q0 18 -8.5 41t-8.5 39q0 47 32.5 81t88.5 34q57 0 91 -37.5t34 -97.5q0 -81 -71 -154.5t-218 -110.5z" />
<glyph unicode="&#x138;" horiz-adv-x="1136" d="M31 838v163q104 12 213.5 16.5t167.5 3.5l57 -1v-438l307 436h307l-360 -467l389 -551h-328l-315 492v-492h-260v817q-86 15 -178 21z" />
<glyph unicode="&#x139;" horiz-adv-x="878" d="M143 0v1382h267v-1151h448v-231h-715zM211 1610l426 153l59 -188l-442 -109z" />
<glyph unicode="&#x13a;" horiz-adv-x="555" d="M-27 1315v164q199 24 441 18v-1497h-262v1294q-93 15 -179 21zM129 1733l426 153l59 -188l-442 -109z" />
<glyph unicode="&#x13b;" horiz-adv-x="878" d="M143 0v1382h267v-1151h448v-231h-715zM311 -401q56 30 78.5 55.5t22.5 54.5q0 18 -8.5 41t-8.5 39q0 47 32.5 81t88.5 34q57 0 91 -37.5t34 -97.5q0 -81 -71 -154.5t-218 -110.5z" />
<glyph unicode="&#x13c;" horiz-adv-x="555" d="M-27 1315v164q199 24 441 18v-1497h-262v1294q-93 15 -179 21zM84 -401q56 29 78 55t22 55q0 18 -8 41t-8 39q0 47 32.5 81t88.5 34q57 0 91 -37.5t34 -97.5q0 -81 -71 -154.5t-218 -110.5z" />
<glyph unicode="&#x13d;" horiz-adv-x="888" d="M143 0v1382h267v-1151h448v-231h-715zM510 1169l104 420l209 -45l-143 -411z" />
<glyph unicode="&#x13e;" horiz-adv-x="653" d="M-27 1315v164q199 24 441 18v-1497h-262v1294q-93 15 -179 21zM475 1169l105 420l208 -45l-143 -411z" />
<glyph unicode="&#x13f;" horiz-adv-x="1165" d="M143 0v1382h267v-1151h448v-231h-715zM727 713q0 69 50 119.5t120 50.5q69 0 119.5 -50.5t50.5 -119.5q0 -70 -50.5 -120t-119.5 -50q-71 0 -120.5 49.5t-49.5 120.5z" />
<glyph unicode="&#x140;" horiz-adv-x="1087" d="M-27 1315v164q199 24 441 18v-1497h-262v1294q-93 15 -179 21zM643 610q0 69 50 119.5t120 50.5q69 0 119.5 -50.5t50.5 -119.5q0 -70 -50.5 -120t-119.5 -50q-71 0 -120.5 50t-49.5 120z" />
<glyph unicode="&#x141;" horiz-adv-x="897" d="M-20 788l182 84v510h266v-385l201 93l49 -207l-250 -113v-539h449v-231h-715v645l-135 -63z" />
<glyph unicode="&#x142;" horiz-adv-x="628" d="M16 1315v164q197 24 439 18v-471l112 64l51 -195l-163 -90v-805h-260v668l-105 -60l-53 195l158 86v405q-93 15 -179 21z" />
<glyph unicode="&#x143;" horiz-adv-x="1413" d="M143 0v1382h314l405 -655q110 -173 166 -303h4q-20 304 -20 623v335h258v-1382h-281l-434 700q-102 159 -170 312h-4q20 -278 20 -635v-377h-258zM604 1610l426 153l60 -188l-443 -109z" />
<glyph unicode="&#x144;" horiz-adv-x="1234" d="M31 838v163q205 25 424 19q0 -102 -15 -184h2q48 93 137 147.5t209 54.5q83 0 143.5 -25t95 -70.5t50 -101.5t15.5 -126v-715h-261v651q0 83 -27.5 125.5t-96.5 42.5q-99 0 -168.5 -96.5t-69.5 -230.5v-492h-260v817q-94 15 -178 21zM522 1268l307 295l144 -154 l-334 -266z" />
<glyph unicode="&#x145;" horiz-adv-x="1413" d="M143 0v1382h314l405 -655q110 -173 166 -303h4q-20 304 -20 623v335h258v-1382h-281l-434 700q-102 159 -170 312h-4q20 -278 20 -635v-377h-258zM508 -401q56 29 78 55t22 55q0 18 -8 41t-8 39q0 47 32.5 81t88.5 34q57 0 91 -37.5t34 -97.5q0 -81 -71 -154.5 t-218 -110.5z" />
<glyph unicode="&#x146;" horiz-adv-x="1234" d="M31 838v163q205 25 424 19q0 -102 -15 -184h2q48 93 137 147.5t209 54.5q83 0 143.5 -25t95 -70.5t50 -101.5t15.5 -126v-715h-261v651q0 83 -27.5 125.5t-96.5 42.5q-99 0 -168.5 -96.5t-69.5 -230.5v-492h-260v817q-94 15 -178 21zM412 -401q56 29 78 55t22 55 q0 18 -8 41t-8 39q0 47 32 81t88 34q57 0 91 -37.5t34 -97.5q0 -81 -70.5 -154.5t-217.5 -110.5z" />
<glyph unicode="&#x147;" horiz-adv-x="1413" d="M143 0v1382h314l405 -655q110 -173 166 -303h4q-20 304 -20 623v335h258v-1382h-281l-434 700q-102 159 -170 312h-4q20 -278 20 -635v-377h-258zM373 1634l63 138l277 -113l280 113l60 -134l-344 -174z" />
<glyph unicode="&#x148;" horiz-adv-x="1234" d="M31 838v163q205 25 424 19q0 -102 -15 -184h2q48 93 137 147.5t209 54.5q83 0 143.5 -25t95 -70.5t50 -101.5t15.5 -126v-715h-261v651q0 83 -27.5 125.5t-96.5 42.5q-99 0 -168.5 -96.5t-69.5 -230.5v-492h-260v817q-94 15 -178 21zM295 1421l102 123l213 -168l215 168 l99 -121l-318 -276z" />
<glyph unicode="&#x149;" horiz-adv-x="1505" d="M33 1032q61 66 87 118.5t22.5 90.5t-31.5 74q-25 29 -29.5 66.5t9.5 70.5t47 55.5t77 22.5q78 0 119 -70q51 -88 6 -219q-51 -149 -213 -291zM301 838v163q205 25 424 19q0 -107 -14 -184h2q48 93 137 147.5t209 54.5q83 0 143.5 -25t94.5 -70.5t49.5 -101.5t15.5 -126 v-715h-260v651q0 83 -28 125.5t-97 42.5q-99 0 -168.5 -96.5t-69.5 -230.5v-492h-260v817q-94 15 -178 21z" />
<glyph unicode="&#x14a;" horiz-adv-x="1413" d="M143 0v1382h303l459 -733q76 -123 123 -229q-16 282 -16 614v348h258v-1384q0 -242 -102 -359t-320 -153l-57 209q112 20 165.5 77.5t53.5 182.5l-494 797q-73 120 -131 252q16 -242 16 -629v-375h-258z" />
<glyph unicode="&#x14b;" horiz-adv-x="1234" d="M31 838v163q205 25 424 19q0 -99 -15 -182h2q47 92 134.5 146t191.5 54q125 0 196 -57t104.5 -190.5t33.5 -368.5v-45q0 -226 -16 -361.5t-46.5 -206t-85.5 -124.5q-83 -85 -266 -134l-61 205q94 29 133 68q33 33 48.5 73t24.5 138t9 280v43q0 194 -17.5 295.5t-48 133.5 t-86.5 32q-88 0 -154.5 -92.5t-66.5 -216.5v-510h-260v817q-94 15 -178 21z" />
<glyph unicode="&#x14c;" horiz-adv-x="1460" d="M74 666q0 175 54 317t147.5 233t215.5 140t261 49q309 0 471.5 -179.5t162.5 -508.5q0 -175 -54 -317t-147 -233.5t-215 -140.5t-261 -49q-309 0 -472 180t-163 509zM358 698q0 -227 94 -354t277 -127q167 0 270 123t103 346q0 226 -94.5 352.5t-278.5 126.5 q-167 0 -269 -122.5t-102 -344.5zM434 1518v165h600v-165h-600z" />
<glyph unicode="&#x14d;" horiz-adv-x="1132" d="M68 485q0 242 138 397.5t380 155.5q226 0 352.5 -126t126.5 -380q0 -242 -138 -397t-380 -155q-226 0 -352.5 125.5t-126.5 379.5zM303 1229v188h553v-188h-553zM338 510q0 -149 59.5 -228t167.5 -79q104 0 167 77t63 228q0 149 -59.5 229t-166.5 80q-108 0 -169.5 -79 t-61.5 -228z" />
<glyph unicode="&#x14e;" horiz-adv-x="1460" d="M74 666q0 175 54 317t147.5 233t215.5 140t261 49q309 0 471.5 -179.5t162.5 -508.5q0 -175 -54 -317t-147 -233.5t-215 -140.5t-261 -49q-309 0 -472 180t-163 509zM358 698q0 -227 94 -354t277 -127q167 0 270 123t103 346q0 226 -94.5 352.5t-278.5 126.5 q-167 0 -269 -122.5t-102 -344.5zM440 1759h156q0 -50 38.5 -83.5t96.5 -33.5q62 0 98.5 33t36.5 84h156q0 -121 -77 -199.5t-216 -78.5q-137 0 -213 79.5t-76 198.5z" />
<glyph unicode="&#x14f;" horiz-adv-x="1132" d="M68 485q0 242 138 397.5t380 155.5q226 0 352.5 -126t126.5 -380q0 -242 -138 -397t-380 -155q-226 0 -352.5 125.5t-126.5 379.5zM287 1475h170q0 -56 28 -90.5t80 -34.5t81.5 31.5t29.5 93.5h172q0 -63 -17 -118.5t-50.5 -100t-89.5 -70t-128 -25.5t-126.5 26t-86.5 71 t-47.5 99.5t-15.5 117.5zM338 510q0 -149 59.5 -228t167.5 -79q104 0 167 77t63 228q0 149 -59.5 229t-166.5 80q-108 0 -169.5 -79t-61.5 -228z" />
<glyph unicode="&#x150;" horiz-adv-x="1460" d="M74 666q0 175 54 317t147.5 233t215.5 140t261 49q309 0 471.5 -179.5t162.5 -508.5q0 -175 -54 -317t-147 -233.5t-215 -140.5t-261 -49q-309 0 -472 180t-163 509zM358 698q0 -227 94 -354t277 -127q167 0 270 123t103 346q0 226 -94.5 352.5t-278.5 126.5 q-167 0 -269 -122.5t-102 -344.5zM438 1567l260 305l150 -129l-289 -283zM836 1569l297 289l139 -138l-320 -260z" />
<glyph unicode="&#x151;" horiz-adv-x="1132" d="M68 485q0 242 138 397.5t380 155.5q226 0 352.5 -126t126.5 -380q0 -242 -138 -397t-380 -155q-226 0 -352.5 125.5t-126.5 379.5zM287 1251l264 318l151 -127l-292 -295zM338 510q0 -149 59.5 -228t167.5 -79q104 0 167 77t63 228q0 149 -59.5 229t-166.5 80 q-108 0 -169.5 -79t-61.5 -228zM682 1251l293 301l141 -137l-317 -268z" />
<glyph unicode="&#x152;" horiz-adv-x="1783" d="M74 666q0 175 54 317t147.5 233t215.5 140t261 49q115 0 233 -23h684v-223h-483v-340h461v-217h-461v-373h483v-229h-719q-122 -23 -241 -23q-309 0 -472 180t-163 509zM356 698q0 -227 95 -354t278 -127q93 0 191 25v899q-80 24 -191 24q-167 0 -270 -122.5t-103 -344.5 z" />
<glyph unicode="&#x153;" horiz-adv-x="1761" d="M68 485q0 242 138 397.5t380 155.5q235 0 348 -151q48 69 133 110t195 41q108 0 190 -33t131.5 -92.5t73.5 -136.5t24 -170l-6 -153h-631q0 -271 269 -271q150 0 307 54l29 -195q-180 -61 -365 -61q-271 0 -381 161q-51 -74 -144.5 -117.5t-211.5 -43.5 q-226 0 -352.5 125.5t-126.5 379.5zM338 510q0 -149 59.5 -228t167.5 -79q104 0 167 77t63 228q0 149 -59.5 229t-166.5 80q-108 0 -169.5 -79t-61.5 -228zM1044 629h379q3 105 -44 161t-132 56q-83 0 -138 -57.5t-65 -159.5z" />
<glyph unicode="&#x154;" horiz-adv-x="1177" d="M143 0v1382q191 9 406 9q245 0 378.5 -97t133.5 -303q0 -157 -85 -255t-226 -134q59 -75 106 -149l299 -453h-324l-348 557h-73v-557h-267zM408 1610l426 153l59 -188l-442 -109zM410 758q59 -2 112 -2q123 0 190.5 55t67.5 156q0 98 -62.5 152.5t-187.5 54.5l-120 -7 v-409z" />
<glyph unicode="&#x155;" horiz-adv-x="798" d="M31 838v163q205 25 424 19q0 -93 -19 -207h4q41 109 122 172.5t208 52.5l-12 -258q-146 31 -217.5 -60t-71.5 -304v-416h-260v817q-94 15 -178 21zM311 1268l307 295l144 -154l-334 -266z" />
<glyph unicode="&#x156;" horiz-adv-x="1177" d="M143 0v1382q191 9 406 9q245 0 378.5 -97t133.5 -303q0 -157 -85 -255t-226 -134q59 -75 106 -149l299 -453h-324l-348 557h-73v-557h-267zM389 -401q56 29 78 55t22 55q0 18 -8 41t-8 39q0 47 32.5 81t88.5 34q57 0 91 -37.5t34 -97.5q0 -81 -71 -154.5t-218 -110.5z M410 758q59 -2 112 -2q123 0 190.5 55t67.5 156q0 98 -62.5 152.5t-187.5 54.5l-120 -7v-409z" />
<glyph unicode="&#x157;" horiz-adv-x="798" d="M31 838v163q205 25 424 19q0 -93 -19 -207h4q41 109 122 172.5t208 52.5l-12 -258q-146 31 -217.5 -60t-71.5 -304v-416h-260v817q-94 15 -178 21zM109 -401q56 29 78 55t22 55q0 18 -8 41t-8 39q0 47 32 81t88 34q57 0 91 -37.5t34 -97.5q0 -81 -70.5 -154.5 t-217.5 -110.5z" />
<glyph unicode="&#x158;" horiz-adv-x="1177" d="M143 0v1382q191 9 406 9q245 0 378.5 -97t133.5 -303q0 -157 -85 -255t-226 -134q59 -75 106 -149l299 -453h-324l-348 557h-73v-557h-267zM207 1634l63 138l277 -113l280 113l60 -134l-344 -174zM410 758q59 -2 112 -2q123 0 190.5 55t67.5 156q0 98 -62.5 152.5 t-187.5 54.5l-120 -7v-409z" />
<glyph unicode="&#x159;" horiz-adv-x="798" d="M31 838v163q205 25 424 19q0 -93 -19 -207h4q41 109 122 172.5t208 52.5l-12 -258q-146 31 -217.5 -60t-71.5 -304v-416h-260v817q-94 15 -178 21zM113 1421l102 123l213 -168l215 168l98 -121l-317 -276z" />
<glyph unicode="&#x15a;" horiz-adv-x="1030" d="M82 997q0 185 138.5 296.5t383.5 111.5q118 0 250 -27l-25 -233q-119 39 -241 39q-113 0 -170.5 -42.5t-57.5 -117.5q0 -51 33 -89.5t85.5 -64.5t116 -51.5t127 -58.5t116 -76t85.5 -113.5t33 -162.5q0 -193 -141 -312t-393 -119q-174 0 -322 37l29 256q148 -61 307 -61 q107 0 171.5 42.5t64.5 129.5q0 53 -32.5 92.5t-84.5 66t-115 51.5t-126 57.5t-115 74.5t-84.5 112t-32.5 162zM387 1610l426 153l59 -188l-442 -109z" />
<glyph unicode="&#x15b;" horiz-adv-x="854" d="M84 721q0 140 109.5 229.5t318.5 89.5q82 0 188 -18l-14 -207q-100 29 -186 29q-72 0 -110 -27t-38 -72q0 -34 23.5 -59t60.5 -42t82 -33.5t90 -40t82 -54.5t60.5 -83.5t23.5 -121.5q0 -146 -114.5 -238.5t-327.5 -92.5q-127 0 -234 26l15 217q103 -41 231 -41 q76 0 117 27.5t41 77.5q0 35 -23 60.5t-60 42t-81.5 32.5t-89 39t-81.5 53.5t-60 83.5t-23 123zM262 1268l307 295l144 -154l-334 -266z" />
<glyph unicode="&#x15c;" horiz-adv-x="1030" d="M82 997q0 185 138.5 296.5t383.5 111.5q118 0 250 -27l-25 -233q-119 39 -241 39q-113 0 -170.5 -42.5t-57.5 -117.5q0 -51 33 -89.5t85.5 -64.5t116 -51.5t127 -58.5t116 -76t85.5 -113.5t33 -162.5q0 -193 -141 -312t-393 -119q-174 0 -322 37l29 256q148 -61 307 -61 q107 0 171.5 42.5t64.5 129.5q0 53 -32.5 92.5t-84.5 66t-115 51.5t-126 57.5t-115 74.5t-84.5 112t-32.5 162zM197 1599l344 173l336 -170l-62 -138l-278 113l-281 -113z" />
<glyph unicode="&#x15d;" horiz-adv-x="854" d="M84 721q0 140 109.5 229.5t318.5 89.5q82 0 188 -18l-14 -207q-100 29 -186 29q-72 0 -110 -27t-38 -72q0 -34 23.5 -59t60.5 -42t82 -33.5t90 -40t82 -54.5t60.5 -83.5t23.5 -121.5q0 -146 -114.5 -238.5t-327.5 -92.5q-127 0 -234 26l15 217q103 -41 231 -41 q76 0 117 27.5t41 77.5q0 35 -23 60.5t-60 42t-81.5 32.5t-89 39t-81.5 53.5t-60 83.5t-23 123zM104 1266l318 278l311 -276l-102 -121l-211 166l-215 -166z" />
<glyph unicode="&#x15e;" horiz-adv-x="1030" d="M82 997q0 185 138.5 296.5t383.5 111.5q118 0 250 -27l-25 -233q-119 39 -241 39q-113 0 -170.5 -42.5t-57.5 -117.5q0 -51 33 -89.5t85.5 -64.5t116 -51.5t127 -58.5t116 -76t85.5 -113.5t33 -162.5q0 -193 -141 -312t-393 -119q-174 0 -322 37l29 256q148 -61 307 -61 q107 0 171.5 42.5t64.5 129.5q0 53 -32.5 92.5t-84.5 66t-115 51.5t-126 57.5t-115 74.5t-84.5 112t-32.5 162zM346 -479q52 62 72.5 111.5t9.5 103t-59 114.5l217 68q146 -204 -41 -397h-199z" />
<glyph unicode="&#x15f;" horiz-adv-x="854" d="M84 721q0 140 109.5 229.5t318.5 89.5q82 0 188 -18l-14 -207q-100 29 -186 29q-72 0 -110 -27t-38 -72q0 -34 23.5 -59t60.5 -42t82 -33.5t90 -40t82 -54.5t60.5 -83.5t23.5 -121.5q0 -146 -114.5 -238.5t-327.5 -92.5q-127 0 -234 26l15 217q103 -41 231 -41 q76 0 117 27.5t41 77.5q0 35 -23 60.5t-60 42t-81.5 32.5t-89 39t-81.5 53.5t-60 83.5t-23 123zM272 -479q52 62 72.5 111.5t9.5 103t-59 114.5l217 68q146 -204 -41 -397h-199z" />
<glyph unicode="&#x160;" horiz-adv-x="1030" d="M82 997q0 185 138.5 296.5t383.5 111.5q118 0 250 -27l-25 -233q-119 39 -241 39q-113 0 -170.5 -42.5t-57.5 -117.5q0 -51 33 -89.5t85.5 -64.5t116 -51.5t127 -58.5t116 -76t85.5 -113.5t33 -162.5q0 -193 -141 -312t-393 -119q-174 0 -322 37l29 256q148 -61 307 -61 q107 0 171.5 42.5t64.5 129.5q0 53 -32.5 92.5t-84.5 66t-115 51.5t-126 57.5t-115 74.5t-84.5 112t-32.5 162zM180 1634l64 138l276 -113l281 113l59 -134l-344 -174z" />
<glyph unicode="&#x161;" horiz-adv-x="854" d="M84 721q0 140 109.5 229.5t318.5 89.5q82 0 188 -18l-14 -207q-100 29 -186 29q-72 0 -110 -27t-38 -72q0 -34 23.5 -59t60.5 -42t82 -33.5t90 -40t82 -54.5t60.5 -83.5t23.5 -121.5q0 -146 -114.5 -238.5t-327.5 -92.5q-127 0 -234 26l15 217q103 -41 231 -41 q76 0 117 27.5t41 77.5q0 35 -23 60.5t-60 42t-81.5 32.5t-89 39t-81.5 53.5t-60 83.5t-23 123zM117 1421l102 123l213 -168l215 168l98 -121l-317 -276z" />
<glyph unicode="&#x162;" horiz-adv-x="1044" d="M31 1155v227h983v-227h-359v-1155h-266v1155h-358zM375 -479q52 62 72.5 111.5t9 103t-59.5 114.5l217 68q146 -204 -41 -397h-198z" />
<glyph unicode="&#x163;" horiz-adv-x="768" d="M16 815v203h174v313l263 70v-383h243v-203h-243v-461q0 -89 24 -122t90 -33q60 0 121 14l19 -205q-115 -28 -218 -28q-170 0 -234.5 70.5t-64.5 254.5v510h-174zM289 -479q52 62 72.5 111.5t9 103t-59.5 114.5l217 68q146 -204 -41 -397h-198z" />
<glyph unicode="&#x164;" horiz-adv-x="1044" d="M31 1155v227h983v-227h-359v-1155h-266v1155h-358zM180 1634l64 138l276 -113l281 113l59 -134l-344 -174z" />
<glyph unicode="&#x165;" horiz-adv-x="776" d="M16 815v203h174v313l263 70v-383h243v-203h-243v-461q0 -89 24 -122t90 -33q60 0 121 14l19 -205q-115 -28 -218 -28q-170 0 -234.5 70.5t-64.5 254.5v510h-174zM532 1169l105 420l209 -45l-144 -411z" />
<glyph unicode="&#x166;" horiz-adv-x="1044" d="M31 1155v227h983v-227h-359v-360h215v-215h-215v-580h-266v580h-213v215h213v360h-358z" />
<glyph unicode="&#x167;" horiz-adv-x="819" d="M33 823v195h174v313l260 70v-383h246v-195h-246v-207h223v-190h-223v-80q0 -86 25.5 -118.5t91.5 -32.5q62 0 121 16l16 -203q-115 -28 -217 -28q-169 0 -233 70.5t-64 252.5v123h-160v190h160v207h-174z" />
<glyph unicode="&#x168;" horiz-adv-x="1394" d="M143 479v903h267v-886q0 -69 13 -120.5t44 -93t88.5 -62.5t140.5 -21q156 0 223.5 73t67.5 248v862h264v-845q0 -280 -147.5 -420t-425.5 -140q-91 0 -166.5 14t-130.5 39t-96.5 61.5t-68 78.5t-43.5 94t-23.5 103.5t-6.5 111.5zM313 1589q94 168 258 168q48 0 89 -15 t65 -33t53 -33t56 -15q66 0 116 86l131 -88q-94 -168 -258 -168q-47 0 -88 15t-64.5 33t-52.5 33t-55 15q-68 0 -119 -88z" />
<glyph unicode="&#x169;" horiz-adv-x="1288" d="M27 838v163q214 25 438 19v-653q0 -83 28 -125.5t97 -42.5q99 0 168 96.5t69 230.5v492h260v-817q93 -15 179 -21v-164q-199 -25 -422 -18q0 113 12 184h-4q-46 -93 -134.5 -147.5t-209.5 -54.5q-84 0 -144.5 25t-95 70.5t-50 101.5t-15.5 126v514q-95 16 -176 21z M268 1290q92 183 250 183q46 0 85.5 -16.5t62 -36t51 -36t53.5 -16.5q62 0 113 92l125 -96q-92 -182 -248 -182q-46 0 -86 16t-62.5 36t-51 36t-54.5 16q-62 0 -113 -92z" />
<glyph unicode="&#x16a;" horiz-adv-x="1394" d="M143 479v903h267v-886q0 -69 13 -120.5t44 -93t88.5 -62.5t140.5 -21q156 0 223.5 73t67.5 248v862h264v-845q0 -280 -147.5 -420t-425.5 -140q-91 0 -166.5 14t-130.5 39t-96.5 61.5t-68 78.5t-43.5 94t-23.5 103.5t-6.5 111.5zM399 1518v165h600v-165h-600z" />
<glyph unicode="&#x16b;" horiz-adv-x="1288" d="M27 838v163q214 25 438 19v-653q0 -83 28 -125.5t97 -42.5q99 0 168 96.5t69 230.5v492h260v-817q93 -15 179 -21v-164q-199 -25 -422 -18q0 113 12 184h-4q-46 -93 -134.5 -147.5t-209.5 -54.5q-84 0 -144.5 25t-95 70.5t-50 101.5t-15.5 126v514q-95 16 -176 21z M346 1229v188h553v-188h-553z" />
<glyph unicode="&#x16c;" horiz-adv-x="1394" d="M143 479v903h267v-886q0 -69 13 -120.5t44 -93t88.5 -62.5t140.5 -21q156 0 223.5 73t67.5 248v862h264v-845q0 -280 -147.5 -420t-425.5 -140q-91 0 -166.5 14t-130.5 39t-96.5 61.5t-68 78.5t-43.5 94t-23.5 103.5t-6.5 111.5zM408 1759h155q0 -50 38.5 -83.5 t96.5 -33.5q62 0 99 33t37 84h155q0 -121 -77 -199.5t-216 -78.5q-137 0 -212.5 79.5t-75.5 198.5z" />
<glyph unicode="&#x16d;" horiz-adv-x="1288" d="M27 838v163q214 25 438 19v-653q0 -83 28 -125.5t97 -42.5q99 0 168 96.5t69 230.5v492h260v-817q93 -15 179 -21v-164q-199 -25 -422 -18q0 113 12 184h-4q-46 -93 -134.5 -147.5t-209.5 -54.5q-84 0 -144.5 25t-95 70.5t-50 101.5t-15.5 126v514q-95 16 -176 21z M362 1475h170q0 -56 28.5 -90.5t80.5 -34.5t81.5 31.5t29.5 93.5h172q0 -63 -17 -118.5t-50.5 -100t-89.5 -70t-128 -25.5t-127 26t-87 70.5t-47.5 99.5t-15.5 118z" />
<glyph unicode="&#x16e;" horiz-adv-x="1394" d="M143 479v903h267v-886q0 -69 13 -120.5t44 -93t88.5 -62.5t140.5 -21q156 0 223.5 73t67.5 248v862h264v-845q0 -280 -147.5 -420t-425.5 -140q-91 0 -166.5 14t-130.5 39t-96.5 61.5t-68 78.5t-43.5 94t-23.5 103.5t-6.5 111.5zM424 1649q0 109 80 177t205 68 q126 0 194 -57t68 -170q0 -109 -79.5 -177.5t-203.5 -68.5q-127 0 -195.5 57t-68.5 171zM602 1659q0 -109 94 -109q43 0 71 28t28 79q0 108 -97 108q-43 0 -69.5 -27.5t-26.5 -78.5z" />
<glyph unicode="&#x16f;" horiz-adv-x="1288" d="M27 838v163q214 25 438 19v-653q0 -83 28 -125.5t97 -42.5q99 0 168 96.5t69 230.5v492h260v-817q93 -15 179 -21v-164q-199 -25 -422 -18q0 113 12 184h-4q-46 -93 -134.5 -147.5t-209.5 -54.5q-84 0 -144.5 25t-95 70.5t-50 101.5t-15.5 126v514q-95 16 -176 21z M354 1362q0 114 78.5 185t202.5 71t190 -59.5t66 -176.5q0 -115 -78.5 -186.5t-200.5 -71.5q-125 0 -191.5 60t-66.5 178zM526 1372q0 -112 97 -112q43 0 69.5 28t26.5 82q0 113 -94 113q-43 0 -71 -29t-28 -82z" />
<glyph unicode="&#x170;" horiz-adv-x="1394" d="M143 479v903h267v-886q0 -69 13 -120.5t44 -93t88.5 -62.5t140.5 -21q156 0 223.5 73t67.5 248v862h264v-845q0 -280 -147.5 -420t-425.5 -140q-91 0 -166.5 14t-130.5 39t-96.5 61.5t-68 78.5t-43.5 94t-23.5 103.5t-6.5 111.5zM381 1567l260 305l150 -129l-289 -283z M778 1569l297 289l139 -138l-319 -260z" />
<glyph unicode="&#x171;" horiz-adv-x="1288" d="M27 838v163q214 25 438 19v-653q0 -83 28 -125.5t97 -42.5q99 0 168 96.5t69 230.5v492h260v-817q93 -15 179 -21v-164q-199 -25 -422 -18q0 113 12 184h-4q-46 -93 -134.5 -147.5t-209.5 -54.5q-84 0 -144.5 25t-95 70.5t-50 101.5t-15.5 126v514q-95 16 -176 21z M330 1251l264 318l151 -127l-292 -295zM725 1251l293 301l141 -137l-317 -268z" />
<glyph unicode="&#x172;" horiz-adv-x="1394" d="M143 479v903h267v-886q0 -69 13 -120.5t44 -93t88.5 -62.5t140.5 -21q156 0 223.5 73t67.5 248v862h264v-845q0 -275 -145 -420q-29 -29 -109 -88t-120 -99q-78 -78 -78 -153q0 -32 19 -50t54 -18q64 0 134 49l71 -141q-114 -102 -266 -102q-118 0 -187 55t-69 154 q0 70 37 137.5t108 120.5q-12 -2 -43 -2q-119 0 -210 26.5t-147.5 71.5t-92.5 110t-50 135.5t-14 155.5z" />
<glyph unicode="&#x173;" horiz-adv-x="1288" d="M27 838v163q214 25 438 19v-653q0 -83 28 -125.5t97 -42.5q99 0 168 96.5t69 230.5v492h260v-633q0 -97 13 -186q91 -14 166 -19v-164q-152 -14 -240 -84.5t-88 -154.5q0 -32 19 -50t53 -18q65 0 135 49l72 -141q-114 -102 -269 -102q-117 0 -185.5 55t-68.5 154 q0 155 172 294q-15 88 -12 156h-2q-50 -89 -137.5 -141.5t-206.5 -52.5q-84 0 -144.5 25t-95 70.5t-50 101.5t-15.5 126v514q-95 16 -176 21z" />
<glyph unicode="&#x174;" horiz-adv-x="1961" d="M49 1382h285l184 -755q38 -183 60 -344h4q24 182 65 340l209 759h266l215 -768q49 -173 72 -331h4q27 203 53 327l183 772h262l-344 -1382h-330l-211 756q-29 121 -45 252h-4q-23 -171 -43 -252l-207 -756h-332zM647 1599l344 173l336 -170l-61 -138l-279 113l-280 -113z " />
<glyph unicode="&#x175;" horiz-adv-x="1630" d="M20 1018h289l115 -424q65 -264 70 -291h2q30 159 67 293l127 422h260l129 -422q51 -175 72 -295h4q17 104 68 293l118 424h267l-314 -1018h-293l-145 463q-39 149 -55 237h-2q-18 -90 -66 -268l-127 -432h-280zM500 1266l317 278l311 -276l-102 -121l-211 166l-215 -166z " />
<glyph unicode="&#x176;" horiz-adv-x="1148" d="M-4 1382h293l192 -389q50 -106 94 -219h5q36 95 106 238l184 370h283l-446 -872v-510h-267v508zM233 1599l345 173l335 -170l-61 -138l-279 113l-280 -113z" />
<glyph unicode="&#x177;" horiz-adv-x="1028" d="M-27 -498l27 224q60 -17 123 -17q80 0 134.5 45.5t94.5 155.5l33 90l-375 1018h295l137 -400q38 -114 84 -292h2q41 163 93 325l118 367h281l-387 -1075q-61 -170 -140.5 -271t-171.5 -141.5t-215 -40.5q-28 0 -61.5 3t-52.5 6zM203 1266l317 278l311 -276l-102 -121 l-211 166l-215 -166z" />
<glyph unicode="&#x178;" horiz-adv-x="1148" d="M-4 1382h293l192 -389q50 -106 94 -219h5q36 95 106 238l184 370h283l-446 -872v-510h-267v508zM217 1614q0 58 41.5 99.5t99.5 41.5q60 0 101 -41t41 -100q0 -60 -41 -100.5t-101 -40.5q-59 0 -100 40.5t-41 100.5zM659 1614q0 58 41.5 99.5t100.5 41.5t100 -41.5 t41 -99.5q0 -60 -41 -100.5t-100 -40.5t-100.5 40.5t-41.5 100.5z" />
<glyph unicode="&#x179;" horiz-adv-x="1099" d="M92 0v205l498 811q64 98 90 131q-98 -4 -252 -4h-319v239h892v-215l-526 -829q-39 -64 -63 -96q35 4 299 4h299v-246h-918zM410 1610l426 153l59 -188l-442 -109z" />
<glyph unicode="&#x17a;" horiz-adv-x="921" d="M92 0v186l410 600q-78 -4 -217 -4h-181v236h713v-187l-401 -593q43 2 231 2h178v-240h-733zM326 1268l307 295l143 -154l-334 -266z" />
<glyph unicode="&#x17b;" horiz-adv-x="1099" d="M92 0v205l498 811q64 98 90 131q-98 -4 -252 -4h-319v239h892v-215l-526 -829q-39 -64 -63 -96q35 4 299 4h299v-246h-918zM395 1626q0 64 46.5 110t111.5 46t110.5 -46t45.5 -110q0 -65 -46 -111.5t-110 -46.5q-65 0 -111.5 46t-46.5 112z" />
<glyph unicode="&#x17c;" horiz-adv-x="921" d="M92 0v186l410 600q-78 -4 -217 -4h-181v236h713v-187l-401 -593q43 2 231 2h178v-240h-733zM301 1325q0 66 46.5 112t111.5 46t110 -46t45 -112q0 -65 -45.5 -110.5t-109.5 -45.5q-65 0 -111.5 46t-46.5 110z" />
<glyph unicode="&#x17d;" horiz-adv-x="1099" d="M92 0v205l498 811q64 98 90 131q-98 -4 -252 -4h-319v239h892v-215l-526 -829q-39 -64 -63 -96q35 4 299 4h299v-246h-918zM215 1634l64 138l276 -113l281 113l59 -134l-344 -174z" />
<glyph unicode="&#x17e;" horiz-adv-x="921" d="M92 0v186l410 600q-78 -4 -217 -4h-181v236h713v-187l-401 -593q43 2 231 2h178v-240h-733zM147 1421l103 123l213 -168l215 168l98 -121l-317 -276z" />
<glyph unicode="&#x17f;" horiz-adv-x="544" d="M137 0v1067q0 444 402 444q63 0 112 -6l-20 -215q-33 8 -78 8q-83 0 -118.5 -51.5t-35.5 -167.5v-1079h-262z" />
<glyph unicode="&#x2c6;" horiz-adv-x="894" d="M133 1266l318 278l311 -276l-103 -121l-210 166l-216 -166z" />
<glyph unicode="&#x2da;" horiz-adv-x="804" d="M133 1348q0 114 78.5 185t202.5 71t190 -59.5t66 -176.5q0 -115 -78.5 -186.5t-200.5 -71.5q-125 0 -191.5 60t-66.5 178zM305 1358q0 -113 96 -113q43 0 70 28.5t27 82.5q0 112 -95 112q-43 0 -70.5 -28.5t-27.5 -81.5z" />
<glyph unicode="&#x2dc;" horiz-adv-x="1005" d="M133 1290q92 183 250 183q46 0 85.5 -16.5t62 -36t51 -36t53.5 -16.5q62 0 113 92l124 -96q-92 -182 -247 -182q-46 0 -86 16t-62.5 36t-51 36t-54.5 16q-62 0 -113 -92z" />
<glyph unicode="&#x2000;" horiz-adv-x="947" />
<glyph unicode="&#x2001;" horiz-adv-x="1894" />
<glyph unicode="&#x2002;" horiz-adv-x="947" />
<glyph unicode="&#x2003;" horiz-adv-x="1894" />
<glyph unicode="&#x2004;" horiz-adv-x="631" />
<glyph unicode="&#x2005;" horiz-adv-x="473" />
<glyph unicode="&#x2006;" horiz-adv-x="315" />
<glyph unicode="&#x2007;" horiz-adv-x="315" />
<glyph unicode="&#x2008;" horiz-adv-x="236" />
<glyph unicode="&#x2009;" horiz-adv-x="378" />
<glyph unicode="&#x200a;" horiz-adv-x="105" />
<glyph unicode="&#x2010;" horiz-adv-x="684" d="M90 463v211h504v-211h-504z" />
<glyph unicode="&#x2011;" horiz-adv-x="684" d="M90 463v211h504v-211h-504z" />
<glyph unicode="&#x2012;" horiz-adv-x="684" d="M90 463v211h504v-211h-504z" />
<glyph unicode="&#x2013;" d="M0 496v229h1126v-229h-1126z" />
<glyph unicode="&#x2014;" horiz-adv-x="2048" d="M227 496v229h1594v-229h-1594z" />
<glyph unicode="&#x2018;" horiz-adv-x="546" d="M116 1198q53 179 249 350l106 -96q-68 -73 -97 -131.5t-24.5 -101t37.5 -82.5q29 -33 34 -76.5t-11 -81.5t-54.5 -64t-89.5 -26q-87 0 -134 76q-57 93 -16 233z" />
<glyph unicode="&#x2019;" horiz-adv-x="546" d="M72 967q69 74 98.5 132t24.5 100.5t-39 82.5q-28 33 -32.5 76.5t11.5 81.5t54.5 64t89.5 26q87 0 134 -76q57 -93 16 -234q-53 -179 -249 -350z" />
<glyph unicode="&#x201a;" horiz-adv-x="546" d="M72 -258q69 74 98.5 131.5t24.5 100t-39 83.5q-28 33 -32.5 76.5t11.5 81.5t54.5 64t89.5 26q87 0 134 -76q57 -93 16 -233q-53 -179 -249 -350z" />
<glyph unicode="&#x201c;" horiz-adv-x="993" d="M116 1198q53 179 249 350l106 -96q-68 -73 -97 -131.5t-24.5 -101t37.5 -82.5q29 -33 34 -76.5t-11 -81.5t-54.5 -64t-89.5 -26q-87 0 -134 76q-57 93 -16 233zM564 1201q53 177 247 347l109 -96q-68 -73 -97 -131.5t-24.5 -101t37.5 -82.5q28 -33 32.5 -76.5t-11 -81.5 t-53.5 -64t-89 -26q-89 0 -136 77q-57 94 -15 235z" />
<glyph unicode="&#x201d;" horiz-adv-x="993" d="M72 967q69 74 98.5 132t24.5 100.5t-39 82.5q-28 33 -32.5 76.5t11.5 81.5t54.5 64t89.5 26q87 0 134 -76q57 -93 16 -234q-53 -179 -249 -350zM520 967q68 73 97 131.5t24.5 101t-37.5 82.5q-28 33 -32.5 76.5t11 81.5t53.5 64t89 26q89 0 136 -77q57 -94 15 -235 q-53 -178 -247 -348z" />
<glyph unicode="&#x201e;" horiz-adv-x="993" d="M72 -258q69 74 98.5 131.5t24.5 100t-39 83.5q-28 33 -32.5 76.5t11.5 81.5t54.5 64t89.5 26q87 0 134 -76q57 -93 16 -233q-53 -179 -249 -350zM520 -258q68 74 97 131.5t24.5 100t-37.5 83.5q-28 33 -32.5 76.5t11 81.5t53.5 64t89 26q89 0 136 -77q57 -94 15 -235 q-53 -177 -247 -347z" />
<glyph unicode="&#x202f;" horiz-adv-x="378" />
<glyph unicode="&#x2039;" horiz-adv-x="638" d="M84 598l235 399l199 -96l-182 -301l186 -297l-207 -98z" />
<glyph unicode="&#x203a;" horiz-adv-x="638" d="M119 899l207 98l231 -393l-238 -399l-198 96l184 301z" />
<glyph unicode="&#x205f;" horiz-adv-x="473" />
<glyph unicode="&#x20ac;" d="M20 436v162h134v45q0 63 2 94h-136v162h160q24 99 67.5 178.5t110.5 143t166.5 98.5t223.5 35q140 0 284 -41l-49 -217q-121 45 -240 45q-224 0 -292 -242h380v-162h-405q-2 -25 -2 -73v-66h407v-162h-389q28 -120 99 -181.5t204 -61.5q126 0 252 55l52 -201 q-166 -70 -347 -70q-131 0 -229 34.5t-159.5 98.5t-96.5 143.5t-51 182.5h-146z" />
<glyph unicode="&#x2122;" horiz-adv-x="1411" d="M59 1225v157h459v-157h-133v-418h-186v418h-140zM535 807l92 575h223l70 -252l16 -83l14 79l70 256h225l94 -575h-194l-37 248l-10 96l-19 -88l-67 -256h-174l-68 262l-16 82l-4 -74l-39 -270h-176z" />
<glyph unicode="&#x25fc;" horiz-adv-x="1013" d="M0 0v1014h1014v-1014h-1014z" />
</font>
</defs>
</svg>
