<svg xmlns="http://www.w3.org/2000/svg" id="Layer_2" viewBox="0 0 523.35 523.35"><defs><clipPath id="clippath"><circle cx="261.68" cy="261.68" r="261.68" class="cls-1" transform="rotate(-45 261.68 261.678)"/></clipPath><style>.cls-1{fill:none}.cls-10,.cls-11,.cls-12,.cls-13,.cls-14,.cls-8,.cls-9{fill-rule:evenodd}.cls-9{fill:#4f110c}.cls-12{fill:#063}.cls-8{fill:#652d12}.cls-10{fill:#ebe7ba}.cls-11{fill:#eed17f}.cls-13{fill:#693}</style></defs><g id="Layer_1-2"><g id="artwork"><g style="clip-path:url(#clippath)"><g id="_3142328513424"><path d="M-7.16-5.28H545.6v403.65H-7.16z" style="fill:#8dc1dc"/><path d="M-7.17 383.76h552.76v184.25H-7.17z" style="fill:#2b913d"/><path d="M151.49 6.11c0 .25.07.32.14.14.07-.16.05-.37-.02-.43-.07-.09-.14.05-.11.3Z" class="cls-14"/><path d="M317.56 62.37c.14 6.23-.46 11.19-1.83 15.55-.62 1.94-2.69 5.25-4.38 6.99-1.37 1.39-2.74 2.6-2.92 2.56-.09 0-.23.11-.34.27-.23.39-.25.34-.89-2.88-.71-3.65-.55-6.44.69-11.33.96-3.77 2.33-7.83 3.49-10.25 1.19-2.47 4.04-6.9 4.04-6.28 0 .09.27-.18.62-.62.34-.41.73-.82.87-.91.37-.25.55 1.74.66 6.9Z" class="cls-13"/><path d="M317.24 53.22c0 .11-.82 1.05-1.85 2.1-1.03 1.05-2.42 2.79-3.13 3.86-1.21 1.87-3.13 5.82-3.33 6.9-.05.3-.3 1-.55 1.6-.43.98-1.12 3.38-1.67 5.89-.14.57-.32 1.39-.43 1.83-.66 2.6-.71 6.83-.14 10.28.23 1.32.46 2.79.52 3.27.11.85.14.87 1.05.78 2.23-.23 8.3-8.8 9.16-11.12 1.62-4.41 2.56-14.82 1.85-20.78-.07-.57-.16-1.76-.21-2.67-.05-.89-.16-1.74-.25-1.87-.18-.3-1.03-.34-1.03-.05Zm-24.46 7.81c.16.39.66 1.28 1.1 1.99.94 1.51 4.52 8.79 5.57 11.26.39.94 1.1 2.92 1.58 4.43.48 1.51 1.05 3.17 1.23 3.72.82 2.26.98 6.99.27 7.58-.34.25-2.74-1.92-4.04-3.65-.41-.57-.84-1.07-.91-1.14-.14-.09-1.16-1.58-1.96-2.85-2.31-3.63-3.95-10.23-3.95-15.82 0-2.28.41-6.21.66-6.21.07 0 .27.32.46.71Z" class="cls-13"/><path d="M291.69 58.58c-.5.62-.96 2.92-1.3 6.76-.18 2.01.5 7.58 1.3 10.39.39 1.37.78 2.6.89 2.74.09.11.41.89.71 1.69.3.82.91 2.05 1.39 2.79.48.71.87 1.35.87 1.44 0 .14 1.07 1.58 1.99 2.65.16.18.71.89 1.23 1.55.55.73 2.95 3.24 3.77 3.24 1.35 0 1.62-.27 1.64-1.64.02-.66.09-1.83.18-2.6.07-.8.02-1.99-.14-2.74-.21-1.05-2.06-7.24-2.69-9-.07-.18-.14-.39-.16-.46-.46-1.3-4.98-10.39-6.19-12.47-.66-1.14-1.42-2.56-1.67-3.13-.25-.57-.66-1.14-.91-1.28-.57-.32-.59-.32-.91.07" class="cls-13"/><path d="M223.51 65.14c.25.39.64.98.87 1.32.34.52 1.37 2.6 2.01 4.02.5 1.16 1.42 4.02 1.74 5.37.89 4.06.09 12.12-1.51 14.68a4.265 4.265 0 0 1-2.9 1.96l-1.03.21-.94-1.19c-.52-.64-1.28-1.92-1.71-2.83-.66-1.42-.82-2.08-1.03-4.43-.25-2.79-.02-7.26.5-9.43.11-.5.48-2.1.82-3.52.71-3.15 2.1-6.87 2.56-6.87.09 0 .39.32.62.71" class="cls-12"/><path d="M222.71 62.67c-.62.5-1.51 2.08-2.33 4.16-1.78 4.45-2.67 9.48-2.72 15.18 0 3.7.37 5.96 1.23 7.6.87 1.63 2.68 3.54 3.13 4.59.74 2.04 5.79-2.56 6.44-4.95 1.55-5.43 1.92-9.43 1.21-13.29-.69-3.86-2.83-9.04-4.98-12.06-1.12-1.55-1.39-1.74-1.99-1.23Z" class="cls-12"/><path d="M335.41 73.38c-.16 1.07-1.96 4.89-2.74 5.85-.27.34-1.05 1.42-1.74 2.42-.69.98-1.76 2.42-2.37 3.2-1.21 1.53-5.07 5.39-5.39 5.39-.11 0-.37.16-.55.37-.21.21-.5.39-.68.41-.16.02-.48.23-.71.43-.57.59-2.85 1.69-3.88 1.9-.73.14-.84.09-.73-.21.07-.21.21-.73.3-1.16.07-.46.23-.89.34-.96.11-.07.21-.27.21-.46 0-1.05 2.56-6.53 3.29-6.99.14-.09.16-.18.07-.18-.3 0 2.01-2.88 3.68-4.61.98-1 1.6-1.48 1.85-1.39.3.09.3.07.05-.11s-.18-.32.34-.64c.37-.23.73-.53.82-.66.09-.11.18-.16.18-.07s.25-.09.57-.41c.34-.32.73-.52.91-.46.18.07.34 0 .34-.16s.21-.41.46-.57c.34-.21.46-.21.46-.02 0 .16.18.05.43-.21.23-.27.46-.43.52-.37.07.05.69-.21 1.35-.57.68-.39 1.58-.71 2.01-.71h.78l-.16.96Z" class="cls-13"/><path d="M333.22 71.6c-2.26.84-7.01 4-8.84 5.89-1.37 1.42-3.65 4.11-4.93 5.82-1.6 2.12-4.91 10.09-4.29 10.3.14.05.41.43.59.87.8 1.91 6.69-2.24 7.9-3.04 1.12-.73 4.52-4.11 5.69-5.66.43-.57 1.03-1.3 1.3-1.62.71-.78 1.85-2.49 2.1-3.11.11-.3.68-1.23 1.26-2.08s1.05-1.62 1.05-1.71c0-.11.3-.64.64-1.21 1.05-1.64 1.74-3.72 1.44-4.29-.23-.41-.48-.48-1.69-.46-.78 0-1.78.14-2.21.3Zm-155.45 6.89c1.39 1.6 2.26 3.22 2.92 5.48.23.78.5 1.6.64 1.83.11.23.5 1.83.84 3.52.32 1.69.82 3.95 1.07 5.02.34 1.39.5 2.97.57 5.57.09 3.15.05 3.86-.39 5.64-.27 1.12-.64 2.33-.82 2.67-.16.34-.32.78-.32.98 0 .18-.16.55-.34.8-.18.23-.34.64-.34.89s-.21.75-.43 1.12c-.41.62-.46.62-.66.21-.14-.23-1.21-1.39-2.37-2.58-2.33-2.35-3.49-4.25-4.59-7.54-.89-2.63-1.07-3.88-1.07-7.03s.52-5.82 2.56-12.83c.57-2.05 1.64-4.57 1.94-4.57.05 0 .41.37.8.82Z" class="cls-13"/><path d="M176.45 76.46c-.07.23-.21.57-.32.75-1.28 2.12-1.6 2.81-1.9 3.88-.21.69-.57 1.96-.85 2.85-1.42 4.64-1.74 6.14-2.03 9.43-.37 4.16.43 8.72 2.19 12.38 1.07 2.24 1.83 3.33 3.56 5.11.78.8 1.96 2.06 2.63 2.76 1.28 1.37 1.39 1.37 1.99.3 1.1-1.94 1.48-2.97 2.85-7.38.52-1.71.73-3.54.71-6.05-.02-2.26-.43-5.62-.82-6.85-.18-.55-.23-.78-.89-4.11-.32-1.58-1.1-4.41-1.76-6.28-1.16-3.38-1.87-4.7-3.49-6.46-.75-.8-1.67-.98-1.87-.34Z" class="cls-13"/><path d="M244.08 85.02c.18.89.18 7.58-.02 8.4-.07.32-.21 1.14-.27 1.83-.07.68-.21 1.42-.3 1.6-.11.18-.25 1-.34 1.8s-.34 1.92-.59 2.47c-.23.57-.43 1.14-.43 1.28 0 .48-2.33 4.84-2.83 5.32-.75.73-1.69 1.14-3.11 1.44-1.69.34-2.24.27-2.1-.25.11-.46-.32-.57-.48-.14-.18.55-.46-3.31-.32-4.84.18-2.1 2.01-8.04 3.2-10.34 2.74-5.27 5.82-9.29 7.17-9.29.14 0 .34.34.43.73Z" class="cls-12"/><path d="M243.74 83.01c-1.87.85-2.56 1.37-3.74 2.79-1.99 2.35-3.4 4.61-4.64 7.4-.34.82-.73 1.55-.84 1.62-.11.07-.27.48-.39.91-.11.43-.53 1.96-.91 3.4-.41 1.44-.82 3.04-.96 3.54-.25 1.03-.32 3.9-.14 5.94.07.75.14 1.53.16 1.71.05.66.41 1.03.75.73.18-.14.89-.27 1.58-.3.68-.02 1.39-.14 1.58-.23.89-.46 2.44-1.12 2.65-1.12.3-.02 1.51-1.19 1.92-1.85.94-1.55 2.79-5.23 3.08-6.14.18-.57.71-2.79 1.14-4.93.87-4.2 1.03-7.08.57-10.82-.39-3.22-.43-3.29-1.8-2.65Zm-36.15 3.95c4.27 4.66 6.32 7.4 7.38 9.84.25.59.59 1.37.75 1.76.73 1.67.89 2.12 1.21 3.31.43 1.62.91 4.54.87 5.27-.02.3-.11 1.03-.21 1.6-.14.82-.09 1.12.18 1.42.5.5.46.62-.23.62-.91 0-3.27-1.12-4.5-2.12-.59-.48-1.46-1.14-1.94-1.46-.46-.32-.98-.78-1.14-1-.16-.23-.41-.55-.57-.71-1.69-1.74-3.31-5.09-4.8-9.89-.64-2.08-.71-2.58-.71-5.48-.02-2.95.02-3.29.53-4.29.32-.59.69-1.07.84-1.07.14 0 1.19 1 2.33 2.21Z" class="cls-12"/><path d="M204.78 83.65c-1.6 1.9-2.28 4.5-2.08 7.9.16 2.76.43 4.13 1.19 6.05.32.78.78 2.01 1.03 2.74 1.39 4.09 5.34 8.52 10.07 11.28 1 .57 3.24.94 3.49.55.18-.3.37-3.11.37-5.39 0-2.99-1.37-8.06-3.15-11.65-1.62-3.22-5.14-7.65-7.95-10-.89-.73-1.62-1.46-1.67-1.64-.14-.62-.71-.55-1.3.16m85.97 4.18c.3 1.26.64 2.99.82 3.88.16.87.43 2.26.62 3.08 1.21 5.27 1.1 10.07-.34 14.84-.46 1.55-1.03 2.88-1.37 3.29-.09.14-.37.46-.59.73-.73.87-1.21 1-1.71.46-.32-.34-.39-.39-.3-.09.05.21-.05.5-.23.64-.25.23-.32.21-.32-.05 0-.16-.18-.69-.43-1.16-.52-1.03-.64-1.42-1.07-3.81-.18-1.07-.41-2.26-.48-2.63-.07-.39-.16-2.33-.18-4.32-.07-4.66.39-6.87 2.79-13.49.68-1.85 1.92-4.06 2.15-3.81.09.09.39 1.19.66 2.44Z" class="cls-12"/><path d="M289.68 83.79c-1.35 1.37-2.76 4-3.33 6.21-.18.69-.66 2.21-1.05 3.4-1.28 3.84-1.64 7.88-1.16 12.92.48 5.21 1.35 8.06 2.9 9.64l.71.73 1.37-.69c.75-.39 1.58-.91 1.83-1.19.91-1.03 1.92-3.24 2.56-5.71.2-.74.74-5.26.75-5.87.09-4.18-.3-6.99-1.94-14.16-.71-3.11-.84-4.06-.73-4.7.11-.59.02-.8-.39-1.1-1.22-.84-.94-.13-1.51.5Z" class="cls-12"/><path d="M340.14 92.17c.07 1 .05 1.58-.05 1.26-.09-.32-.25-1.39-.32-2.4s-.05-1.58.05-1.26c.09.32.25 1.39.32 2.4m-1.44-4.52c.02.11.11.64.25 1.21.96 4.52 1.39 13.91.78 17.28-.41 2.24-1.96 6.85-2.79 8.24-.62 1.05-2.51 3.06-3.24 3.47-.39.21-.5 0-1.16-2.06-1.53-4.89-1.42-11.37.34-17.47.68-2.47 3.79-8.93 4.82-10.12.64-.71 1-.91 1-.57Z" class="cls-13"/><path d="M338.18 85.94c-1.62 1.64-2.99 3.97-4.89 8.4-1.16 2.69-1.62 4.11-2.24 7.08-.21.94-.43 1.92-.5 2.17-.05.25-.16 2.06-.23 4-.14 3.84.09 5.46 1.14 9.13.73 2.44 1.19 3.56 1.39 3.24.11-.23 1.86-1.4 2.26-1.69.94-.73 2.31-2.01 2.12-2.01-.07 0 .16-.46.53-1.03.59-.94 1.62-3.54 2.63-6.69 1.35-4.16 1.23-12.01-.27-21.24-.11-.64-.16-1.19-.09-1.19s-.07-.21-.3-.46c-.55-.62-.68-.59-1.55.27Zm26.42 11.5c-.59 1.76-1.26 3.58-1.48 4.09-.21.5-.62 1.42-.87 2.01-.25.59-1.16 2.24-1.99 3.63-1.64 2.72-4.77 6.14-7.01 7.67-1.16.82-4.13 2.28-4.86 2.42-.25.05-.84.25-1.32.46-.46.18-.91.34-1 .32-.39-.09-2.1.55-2.1.78 0 .14-.07.21-.14.14-.3-.32 4.64-9.61 5.41-10.23.09-.07.46-.64.82-1.26 1.32-2.33 2.03-3.43 2.53-3.93.27-.3.5-.59.5-.68 0-.32 4.25-4.64 4.54-4.64.16 0 .43-.16.64-.37.21-.18.5-.3.69-.23.18.07.27.05.21-.05-.16-.27.55-1.21.8-1.07.11.09.27-.02.34-.23.11-.27.21-.3.46-.09s.32.18.32-.11c0-.21.14-.37.32-.37s.39-.16.46-.37.27-.32.43-.25c.14.05.64-.05 1.07-.23.82-.37 2.12-.71 2.24-.62.05.02-.41 1.46-1 3.2Z" class="cls-13"/><path d="M366.45 93.02c-.37.09-.87.14-1.1.09-.82-.21-4.27 1.3-6.1 2.65-1.76 1.3-4.75 3.79-5.25 4.38-.62.75-1.19 1.39-2.06 2.4-.32.37-1.1 1.42-1.71 2.35-.62.91-1.21 1.69-1.3 1.74-.11.05-.18.18-.18.27 0 .11-.66 1.21-1.46 2.44-1.26 1.94-4.25 7.49-4.25 7.9 0 .09-.27.73-.62 1.46-.73 1.58-.8 1.9-.41 1.76.16-.07 5.14-1.68 5.66-1.83 3.13-.87 6.71-2.76 8.68-4.61 2.85-2.69 3.77-3.65 3.93-4.13.07-.27.25-.48.37-.48s.21-.11.21-.25c0-.16.3-.75.64-1.32.37-.57.8-1.46 1-1.96.21-.5.68-1.58 1.07-2.4.66-1.44 1.83-4.5 2.83-7.54.27-.8.69-1.67.91-1.87.73-.78.25-1.39-.87-1.05Z" class="cls-13"/><path d="M283.56 229.51c.07.11.05.23-.09.23-.11 0-.3-.11-.37-.23-.07-.14-.05-.23.09-.23.11 0 .3.09.37.23Z" style="stroke:#302525;stroke-width:.57px;stroke-miterlimit:10;fill:none"/><path d="M224.95 98.72c-.02 2.81.18 5.75.5 7.72.11.69.39 2.69.59 4.45.18 1.76.64 4.73 1 6.62.73 3.88 1.37 7.47 1.6 9.13.09.62.39 2.26.64 3.65.27 1.37.64 4.16.84 6.17.16 1.57.6 7.11 1.26 8.31.23.46.34 4.04.25 7.67-.07 1.85-1.46 8.75-2.31 11.42-.23.75-.59 2.08-.82 2.97-.21.87-.55 2.01-.78 2.51-.71 1.64-2.4 6.78-3.22 9.82-.69 2.53-.34 7.58.59 9.13.16.25.34.73.43 1.07.07.34.52 1.07 1 1.62 1.58 1.87 1.74 2.1 2.63 3.56 1.05 1.74 2.6 3.68 3.63 4.54 4.28 3.65 4.65 3.94 9.59.43 2.33-1.58 4.13-1.64 5.48-.21.73.75 2.4 4.16 2.81 5.71.16.62.25 1.83.21 2.69-.16 2.81-1.55 9.73-2.19 10.89-.34.64-.57 2.51-.84 7.01-.25 3.84-.14 5.55.34 6.32.18.27.32.64.32.82 0 .84 1.94 4 3.15 5.11.73.66 1.37 1.21 1.48 1.21.09 0 .16.16.16.34s.23.37.52.43c.27.05 1.07.21 1.76.32 1.1.21 1.3.18 1.62-.16.18-.23.59-.5.91-.59.3-.09 1.42-.57 2.49-1.07 1.07-.5 2.15-1 2.4-1.1.25-.11 1.23-.55 2.17-.98.94-.43 2.49-1.07 3.43-1.44.94-.34 2.17-.89 2.74-1.19 2.08-1.1 6.48-2.42 9.02-2.72.5-.07 1.94-.37 3.2-.69 1.26-.3 2.58-.59 2.97-.62 1.92-.21 3.81-.41 5.25-.59 2.83-.37 6.21-.48 7.26-.23.71.14 1.44.14 2.31-.02.68-.11 2.1-.32 3.15-.41 1.05-.11 3.17-.46 4.75-.78 2.35-.46 9.91-1.46 14.38-1.9.91-.09 4.04-.53 6.51-.89.5-.09 1.58-.3 2.4-.5.82-.18 1.8-.39 2.17-.43.39-.07 1.39-.32 2.28-.57.87-.27 2.05-.57 2.63-.66 3.24-.62 7.08-1.69 9.36-2.65.69-.27 1.55-.59 1.94-.69.14-.04 2.81-1.05 2.9-1.1 1.19-.53 3.84-1.23 5.09-1.39.64-.07 1.69-.3 2.37-.48.66-.18 1.26-.3 1.32-.25.05.07-.37.37-.91.68-.55.34-1.42.94-1.94 1.37-.5.43-1.26.91-1.67 1.07-.43.18-1.6.84-2.6 1.48-2.85 1.83-5.39 3.2-12.79 6.83-3.77 1.85-7.22 3.56-7.65 3.79-.43.23-1.67.78-2.74 1.21-1.07.43-2.63 1.1-3.47 1.48-.84.39-1.55.62-1.6.52-.33-.93-3.13 0 .84 2.03 1 .52 2.21 1.14 2.69 1.39.46.25.84.53.84.62s.27.3.64.43c.34.16.98.5 1.44.8.43.3 1.3.82 1.9 1.21.94.59 1.69 1.07 3.54 2.28.18.11 1.05.66 1.92 1.21 1.48.94 1.83 1.16 2.51 1.78.18.16.75.5 1.3.78.78.39 2.63 1.53 3.63 2.21.36.36-.59.08-1.3-.27-1.69-.84-5.71-2.12-7.26-2.28-.73-.09-1.42-.21-1.48-.25-.09-.05-2.9-.87-8.2-2.37-.43-.11-1.42-.41-2.19-.66-2.15-.66-7.67-1.92-10.02-2.28-2.92-.43-3.49-.46-8.15-.48-6.3-.02-21.24.91-27.24 3.65-.5.23-3.24 1.19-6.85 2.4-2.25 1-3.98 1.56-5.92 2.42-1 .44-2.6-.12-5.4 2.61-4.04 3.97-4.93 6.39-5.69 15.53-.21 2.37-1.05 7.99-1.26 8.33-.05.07-.14.71-.21 1.42-.34 3.11-2.37 7.54-5.23 11.37-1.46 1.99-8.17 8.91-8.63 8.91-.09 0-.41.23-.71.5-.3.3-.94.8-1.44 1.14-.5.34-1.32.98-1.83 1.44-.5.43-.98.8-1.07.8s-.34-.27-.55-.64c-.23-.34-1.23-1.9-2.26-3.47-1.8-2.74-4-6.74-4-7.28 0-.16-.18-.64-.43-1.12-.5-.98-.87-3.04-1.05-5.75-.07-1.07-.3-3.74-.48-5.94-.62-7.08-.37-16.26.59-21.81.53-2.92 1.1-7.03 1.62-11.53.43-3.77.57-8.52.32-11.07-.07-.75-.18-2.06-.21-2.88-.09-1.6-.84-3.63-1.37-3.63-.16 0-.43-.27-.59-.59-.48-.87-3.88-3.49-5.07-3.88-.23-.09-.41-.23-.41-.32 0-.39-1.44-.71-4.79-1.1-4.22-.46-9.5-.34-11.19.27-.55.21-1.44.43-1.94.48-1.26.14-5.09 2.21-6.99 3.81-.55.46-1.67 1.32-2.49 1.92-1.83 1.32-4.8 4.18-4.8 4.64 0 .18-.07.27-.14.18-.16-.16-1.07.59-2.15 1.74-.43.5-2.08 2.15-3.63 3.65-1.55 1.53-2.92 2.9-3.08 3.04-.14.14-.39.48-.57.73-.18.27-.41.43-.53.37-.09-.07-.18.02-.18.21s-.16.48-.39.64c-.21.18-1.26 1.35-2.33 2.6a122.87 122.87 0 0 1-2.08 2.4c-.07.07-.62.75-1.21 1.53s-1.16 1.46-1.28 1.53c-.27.18.94-4.38 1.87-7.06.89-2.53 2.17-5.11 3.7-7.54.55-.89 1.19-1.92 1.39-2.28.21-.39.98-1.53 1.71-2.56.73-1 1.48-2.17 1.67-2.53.21-.39.48-.82.66-1 .62-.64 2.44-3.81 2.44-4.25 0-.55-.87-.82-1.35-.43-.18.16-.8.27-1.37.3-.57.02-1.76.18-2.65.39-2.26.51-13.31 2.53-15.37 2.42-.11.09-7.83-.52-9.17-.73-1.58-.23-3.79-.71-3.97-.89-.14-.09-.48-.18-.82-.18-1.99 0-9.8-2.49-11.37-3.65-.5-.37-.98-.59-1.05-.52-.07.07-.78-.39-1.58-1-.8-.64-1.74-1.32-2.12-1.51l-.66-.37.69.09c.39.05 1.55.21 2.63.34 1.07.16 2.88.53 4 .84 1.14.32 2.21.62 2.4.64.59.07 2.37.39 2.85.5.75.18 3.27.53 6.28.84 4.16.43 8.04.25 12.44-.55.64-.11 1.76-.32 2.51-.43.75-.14 2.56-.48 4-.8 1.44-.3 2.99-.57 3.42-.62.89-.09 1.51-.46 2.43-.58.5-.09 1.64-.45 2.82-.9 1.19-.43 2.9-1.05 3.77-1.37.89-.32 1.78-.66 2.03-.8.23-.14 1-.43 1.71-.66.71-.23 1.85-.66 2.53-.96 2.12-.96 5.09-1.85 7.51-2.26.71-.11 1.64-.27 2.08-.34.43-.09.91-.16 1.03-.18 1.2-.2 1.79-.39 3.2-.46 8.22-.46 11.07-1.1 9.36-2.06-.25-.14-.64-.46-.84-.71-.23-.25-.66-.71-.96-1.03-.3-.32-.66-.82-.82-1.1-.14-.3-.8-1.26-1.44-2.1-.66-.87-2.01-2.85-3.01-4.45-1-1.58-2.17-3.38-2.56-4-.41-.62-.75-1.23-.75-1.35s-1.46-1.69-3.24-3.49c-2.85-2.88-3.49-3.4-5.05-4.16-1-.48-2.67-1.42-3.74-2.1-1.05-.66-2.31-1.32-2.76-1.48-.46-.14-1.51-.57-2.31-.94s-2.44-1.03-3.68-1.44c-4.41-1.55-10.02-6.12-15.82-12.88-.91-1.07-2.08-2.37-2.63-2.92-.53-.55-.87-.98-.75-.98s.91.41 1.76.91c.87.5 1.67.91 1.78.91s.53.23.91.53c.39.3 1.42.82 2.26 1.16.87.37 1.71.8 1.87.98.32.3 2.44 1.42 4.34 2.24.5.21 1.58.71 2.37 1.07.82.37 2.15.89 2.97 1.14s1.8.57 2.17.71c.39.14.84.27 1.03.27.21.02.73.16 1.16.3.43.14 1.67.41 2.74.59 1.07.18 2.72.5 3.65.71.94.21 2.44.48 3.31.59 3.56.53 9.04 3.52 12.9 7.03.73.66 1.48 1.14 1.78 1.16.64 0 1.69-.66 1.51-.96-.07-.11.07-.43.32-.71 1.11-1.27 1.64-2.83 2.56-4 1.71-2.21 3.52-5.48 5.18-9.36.57-1.35 1.1-2.49 1.19-2.56.32-.25 1-4.16 1.23-7.08.18-2.37.16-3.65-.07-5.59-.99-8.47-.8-16.39-1.6-25-.09-1.07-.21-3.54-.23-5.48-.02-1.94-.07-3.86-.11-4.22-.05-.39-.14-2.28-.18-4.22-.09-3.4.43-9.36 1.19-13.52.21-1.26.73-3.15.84-3.15.04 0 .05 2.41.05 2.56Z" style="fill:#4f110c;fill-rule:evenodd;stroke-miterlimit:10;stroke:#4f110c;stroke-width:2.4px"/><path d="M295.59 186.18c-.18.18-.21.09-.11-.3.09-.3.18-.41.25-.23.05.16-.02.41-.14.52Z" class="cls-10"/><path d="M307.81 98.61c.66 1.19.96 3.43.98 7.6.05 4.27.07 3.01-.09 9.13-.27 10.48-.37 11.76-.82 13.49-.23.94-.59 2.31-.8 3.06-.18.75-.43 1.62-.55 1.94-.11.32-.39 1.19-.59 1.94-.23.75-.68 2.24-1.05 3.31-.34 1.07-.69 2.21-.75 2.58-.07.34-.27.96-.48 1.37-.3.55-.37 1.37-.37 3.45 0 1.51.09 3.08.16 3.49.25 1.39.94 2.92 1.35 2.99 1.14.25 4.77-2.53 9.32-7.12 4.64-4.7 6.58-6.85 9.41-10.5 1.26-1.6 2.95-3.77 3.74-4.8 2.03-2.56 7.72-8.11 9.06-8.84.62-.32 1.55-.66 2.1-.75l.98-.14-.14 1.14c-.07.62-.25 1.46-.37 1.87-.11.41-.21.98-.21 1.26s-.11.78-.27 1.14c-.14.34-.3.8-.32.98-.16.84-.57 2.33-.75 2.69-.11.21-.39.84-.62 1.42-.59 1.48-3.61 6.46-4.8 7.9-1.26 1.58-1.48 1.78-3.17 3.29-.75.66-2.35 2.1-3.54 3.2s-2.9 2.63-3.79 3.38c-1.69 1.46-3.29 3.24-3.29 3.7 0 .14-.09.21-.18.14-.11-.07-.73.46-1.37 1.19-3.81 4.29-5.46 6.07-7.26 7.81-3.58 3.45-6.21 6.9-8.47 11.19-.5.94-1.03 1.92-1.16 2.17-.14.25-.41.82-.59 1.26-2.31 5.37-2.65 6.28-2.53 6.71.09.3.07.39-.05.21-.41-.57-2.12 3.86-2.51 6.46-.09.57 0 .73.48.96.37.16.64.18.71.05.09-.14.32-.23.55-.23s.55-.16.73-.37c.62-.73 5.16-2.65 6.99-2.95.34-.07 1.1-.23 1.67-.34.57-.14 1.55-.3 2.17-.34 1.44-.14 3.2-.53 4.22-.94.43-.18 1.1-.39 1.48-.46.37-.07.78-.21.91-.32.11-.09.84-.34 1.6-.55.75-.23 1.53-.48 1.76-.59.32-.18 1.48-.64 4.98-1.92 1.83-.69 8.27-2.69 10.39-3.24 1.26-.32 2.44-.73 2.63-.89.18-.16 1.28-.73 2.4-1.28 2.58-1.21 6.53-3.7 7.88-4.95.57-.52 1.1-.96 1.16-.96.09 0 .5-.3.91-.68.43-.37 1.19-.85 1.69-1.07.5-.23 1.07-.57 1.26-.75.18-.18.98-.55 1.78-.8.78-.25 1.42-.55 1.42-.64 0-.34 2.03.02 2.44.43.64.64.5 2.56-.25 3.86-.82 1.39-5.37 6.37-6.96 7.63-1.9 1.48-4.06 2.81-5.62 3.45-.75.3-2.56 1.12-4 1.8-3.54 1.69-5.89 2.53-9.04 3.22-.87.18-3.27.82-6.37 1.71-.62.18-1.76.43-2.51.59-3.84.73-7.83 2.31-10.57 4.11-.53.37-1.26.73-1.6.8-.34.09-.91.46-1.28.82-.39.37-.98.82-1.35 1.03-.37.18-1.03.68-1.44 1.12-.43.43-1.16.96-1.64 1.21-.46.23-1.14.75-1.53 1.16-.89.91-6.26 4.61-8.08 5.53-.3.16-.87.59-1.26.98-.39.37-1.39 1.19-2.24 1.83-1.19.91-1.69 1.46-2.35 2.74-.89 1.67-2.67 6.71-3.22 9.13-.66 2.99-1.26 5.21-1.46 5.59-.27.52-1.9 1.05-4.7 1.48-4.04.66-8.38 1.69-10.02 2.4-.25.11-1.23.46-2.17.75-.94.32-2.42.84-3.31 1.19-.87.34-1.9.68-2.28.8-.37.09-.98.3-1.32.43-.37.14-1.14.25-1.78.25-1.6 0-2.67-1-3.47-3.24-1.51-4.36-1.39-5.57 1.28-14.23.27-.89.5-2.12.55-2.74.02-.64.14-1.92.25-2.85.39-2.99-.16-6.62-1.3-8.68-.3-.57-.68-1.26-.82-1.51-.27-.53-1.8-2.51-3.06-4-.75-.89-3.49-3.17-3.79-3.17-.07 0-.8-.46-1.58-1.03-.8-.57-1.51-1.03-1.55-1.03-.07 0-1.28-.78-2.72-1.74-1.44-.94-3.27-2.03-4.09-2.44-.82-.39-1.9-.98-2.4-1.32-.5-.32-1.12-.66-1.37-.75-.75-.25-2.92-2.03-3.7-3.06-.62-.8-.71-1.1-.59-1.8.07-.48.32-1.26.55-1.76.43-.91 1.21-3.9 1.44-5.55.18-1.28.57-2.08 1.03-2.1 2.9-.16 4.8-.48 5.5-.89.87-.53 1.83-1.64 1.83-2.15 0-.3.48-1.67 1.28-3.61.23-.57.75-1.51 1.16-2.12.96-1.37 3.84-6.94 4.98-9.64 1-2.37 1.64-3.45 2.95-5.02.52-.64 1.1-1.42 1.26-1.76.46-.91 2.26-2.63 3.01-2.9.8-.27 1.21.05 1.9 1.58 1 2.21.32 8.01-1.39 11.8-.27.64-.52 1.23-.52 1.3 0 .27-1.48 2.56-2.15 3.36-1.74 2.03-2.99 4.93-3.61 8.43-.62 3.56-.16 10.69.78 11.8.14.16.16.48.09.69-.11.27.05.57.5.98.37.32 1.51 1.67 2.56 3.01 2.1 2.74 4.61 5.32 8.63 8.86 1.48 1.32 2.99 2.76 3.33 3.2.34.43 1.37 1.58 2.28 2.51 2.03 2.1 3.11 3.56 3.11 4.22 0 1.03 1.16.96 1.58-.07.66-1.76 2.76-8.36 3.06-9.75 2.53-11.46 2.83-12.26 5.78-16.21.66-.89 1.48-1.87 1.85-2.19 1.07-.98 2.85-2.99 4.18-4.77.69-.91 1.53-1.99 1.85-2.37 1.9-2.31 4.02-6.1 5-8.93.39-1.14 1-2.88 1.37-3.9.34-1 .84-2.26 1.12-2.79.25-.53.48-1.26.48-1.62s.11-.96.25-1.32c.14-.34.34-1.21.46-1.9.09-.68.23-1.46.3-1.71.14-.71.46-3.4.41-3.58-.02-.09.18-1.37.43-2.85s.71-4.18 1-6.01c.3-1.83.66-3.68.8-4.11.3-.91.37-1.42.68-5.02.14-1.44.34-3.29.46-4.11.11-.82.32-2.35.46-3.43.14-1.07.34-2.26.46-2.63.11-.39.39-1.71.59-2.97.21-1.26.48-2.85.59-3.54.11-.68.21-1.42.23-1.6.05-1.58 1.1-5.46 1.74-6.51 1.23-2.03 1.94-2.26 2.72-.87Z" class="cls-10"/><path d="M306.35 96.39c-.3.11-.53.3-.53.41 0 .09-.18.39-.41.64-1.26 1.37-2.24 3.61-2.79 6.37a47.5 47.5 0 0 1-.48 2.19c-.11.46-.21 1.1-.21 1.44 0 .32-.3 2.1-.69 3.95-.37 1.87-.78 4-.89 4.75-.11.75-.37 2.31-.57 3.45-.18 1.14-.46 3.56-.62 5.37-.14 1.8-.34 3.38-.43 3.52-.09.11-.18.62-.21 1.1-.02.48-.18 1.26-.37 1.71-.16.46-.48 2.08-.68 3.58-.23 1.51-.48 2.92-.59 3.13s-.21.94-.21 1.6-.11 1.62-.25 2.12-.34 1.53-.43 2.28c-.09.75-.23 1.58-.3 1.83-.07.25-.3 1.37-.52 2.51-.21 1.12-.46 2.15-.55 2.28-.09.11-.25.57-.34 1-.09.43-.3.94-.48 1.1-.16.18-.25.46-.18.62.11.3-.64 2.69-1.19 3.77-.18.32-.32.71-.32.87 0 .57-1.71 4.29-2.79 6.05-1.12 1.85-3.22 4.86-3.7 5.32-.14.14-.71.8-1.26 1.48-.57.68-1.58 1.83-2.24 2.51-2.92 3.01-3.43 3.63-4.98 6.01-1.44 2.19-2.44 5.46-3.88 12.44-.3 1.55-.62 2.9-.68 2.99-.18.32-1.48 5.27-1.48 5.71 0 .23-.16.55-.34.71-.18.16-.34.18-.34.07 0-.25-.78-1.21-3.08-3.72-4.04-4.43-7.38-7.72-8.22-8.11-.27-.14-.98-.8-1.55-1.48-.57-.68-1.28-1.48-1.58-1.76-.3-.3-.71-.71-.94-.91-3.63-3.54-4.73-6.28-4.91-12.49-.14-5.02.43-8.2 1.87-10.41.3-.43.91-1.39 1.37-2.12.25-.38 1.51-1.73 1.51-1.96 0-.21.21-.68.46-1.05.32-.5.5-1.48.78-1.69.18-.16.41-.62.5-1 .07-.41.23-.85.32-.96.14-.21.57-1.83 1.07-4.22.11-.43.16-2.01.14-3.47-.02-2.6-.05-2.72-.75-3.72-.39-.57-.82-1.35-.96-1.71-.54-1.69-2.13-.74-2.21-.27-.22.87-3.22 2.59-3.22 3.2 0 .09-.3.5-.69.91-.37.41-.68.8-.68.87s-.3.43-.69.85c-.64.68-2.6 4.43-3.56 6.78-.23.57-.71 1.48-1.07 2.03-.37.57-.75 1.23-.87 1.48-.11.27-.3.64-.41.82-.14.18-.48.94-.8 1.64-.34.71-.71 1.37-.82 1.44-.37.23-1.74 3.06-2.28 4.68-.89 2.63-.96 2.67-4.93 2.88-1.39.07-2.4.25-2.72.46-.68.43-1.21 1.78-1.39 3.45-.18 1.78-.87 4-1.69 5.53-.78 1.39-.78 1.42-.46 2.56.57 2.06 3.58 4.48 9.48 7.63 1.96 1.07 5.69 3.49 7.03 4.61.37.3.75.53.89.53.46 0 4.86 3.61 4.66 3.81-.07.07.3.48.8.94.48.46.89.96.89 1.1 0 .16.14.32.32.39.48.18 2.65 4.75 2.79 5.89.27 2.03.18 4-.37 8.65-.11.94-.48 2.58-.8 3.65-1.48 4.8-1.55 5.09-1.55 7.42 0 1.96.11 2.6.75 4.57.84 2.58 1.42 3.58 2.6 4.64 1 .87 1.87 1.14 2.49.75.25-.16.71-.34 1.05-.39 1.32-.23 1.99-.39 2.19-.55.14-.09.64-.3 1.14-.46.5-.16 1.23-.41 1.6-.57 3.2-1.3 7.38-2.69 9.7-3.2.94-.21 2.08-.48 2.51-.59.43-.09 1.37-.25 2.05-.32 1.35-.11 2.97-.48 5.07-1.16 1.39-.43 1.6-.71 1.89-2.49.64-4.09 2.81-11.05 4.11-13.33.87-1.48 3.45-3.7 6.58-5.62.96-.59 1.76-1.16 1.76-1.26 0-.07.43-.39.96-.68 1.07-.59 3.47-2.35 4.95-3.61.55-.46 1.26-.98 1.58-1.16.32-.16.84-.55 1.16-.87.32-.3 1.14-.8 1.83-1.12.66-.32 1.44-.82 1.71-1.12.73-.82 4.32-2.79 6.9-3.79 1.26-.5 3.68-1.21 5.37-1.58 1.69-.39 3.31-.8 3.63-.91.32-.14.89-.25 1.26-.27.39-.02.89-.18 1.14-.34.25-.16.73-.3 1.07-.3.37 0 .82-.09 1.05-.21.21-.11 1.12-.39 1.99-.59 2.83-.69 3.84-1.05 6.39-2.28 1.39-.68 3.08-1.46 3.77-1.71 5.07-1.92 8.61-4.64 13.01-10.05.57-.69 1.21-1.39 1.44-1.58.62-.43 1.26-2.08 1.42-3.61l.16-1.32-1.28-1.3c-.84-.84-1.42-1.26-1.69-1.19-2.63.66-3.63 1.03-5 1.87-1.21.73-1.6 1.1-1.51 1.37.07.27.05.3-.09.11-.21-.3-.27-.25-2.03.96-.37.25-1.23.91-1.92 1.51-2.03 1.71-5.57 4.06-7.08 4.68-.18.07-1 .46-1.83.82-4.09 1.95-4.87 1.38-8.13 2.35-2.92.89-6.71 2.17-7.51 2.51-.37.16-1.26.53-1.94.78-.68.27-1.46.57-1.71.68-3.08 1.3-6.87 2.37-10.16 2.88-3.01.46-5.39 1.14-8.31 2.44-1.14.5-2.21.96-2.37 1.03-.51.23.54-1.93.66-2.33.27-.89.78-2.17 1.14-2.85.34-.69.87-1.83 1.12-2.51.27-.69.62-1.46.78-1.71.16-.25.43-.87.59-1.37.34-1.03 2.1-4.45 3.15-6.16.39-.64.91-1.51 1.16-1.94.23-.43.64-1 .91-1.23.27-.25.48-.53.48-.66 0-.46 3.06-3.93 5.48-6.21 1.69-1.58 4.82-5 6.39-6.99.82-1.05 2.81-3.01 6.99-6.94 1.35-1.26 2.92-2.76 3.54-3.38.62-.59 1.23-1.07 1.37-1.07.34 0 3.49-3.17 3.86-3.9.16-.3.69-1.07 1.16-1.74.48-.64 1.26-1.87 1.71-2.74.46-.85.91-1.67 1.03-1.8.39-.48 1.87-4.36 2.4-6.26 1.1-3.9 1.28-5.18.94-6.32-.32-1.07-.5-1.21-1.64-1.21-1.39 0-2.51.39-3.54 1.26-.53.43-1.03.8-1.12.8-.25 0-5.07 4.8-6.07 6.05-.5.62-1.23 1.51-1.64 1.94-.41.43-1.03 1.19-1.37 1.64-1 1.35-3.79 4.84-3.95 4.98-.09.07-.25.27-.37.48-.57 1.05-9.54 10.3-11.85 12.24-.75.64-1.94 1.51-2.65 1.96l-1.26.8-.3-1c-.5-1.71-.23-6.42.53-8.88.34-1.14.78-2.6.94-3.27.16-.68.41-1.35.55-1.48.14-.14.25-.48.25-.73 0-.27.34-1.58.78-2.9 1.83-5.71 2.19-9.41 2.24-23.02.02-7.58-.14-11.07-.53-11.33-.11-.07-.21-.37-.21-.64 0-.3-.16-.66-.34-.82s-.34-.41-.34-.57c0-.32-.98-.8-1.55-.78-.21 0-.62.09-.89.21Z" class="cls-11"/><path d="M183.28 117.93c.53.55 1.12 1.3 1.3 1.67.18.37.68 1.23 1.12 1.92 1.12 1.8 2.44 4.5 2.83 5.82.32 1.07 1.51 3.77 2.81 6.39.53 1.03 1.94 4.75 2.72 7.08 1.05 3.22 4.43 9.66 5.75 11.03.16.16.57.78.91 1.37 1.67 2.9 8.49 9.41 10.69 10.21 1.21.43 3.79.71 5.02.55 2.49-.34 3.43.25 3.04 1.92-.64 2.9-3.93 7.97-4.91 7.6-.23-.09-.94-.21-1.55-.23-1.19-.07-4.36-1.37-5.07-2.08-.18-.21-.62-.55-.96-.75-1.53-1-4.75-4.48-6.07-6.55-.23-.37-.5-.78-.62-.91-.66-.85-4.41-6.85-5.8-9.36-1-1.83-2.19-3.74-3.43-5.59-.8-1.19-2.12-3.7-2.95-5.57-1.46-3.31-1.8-4.25-3.29-8.86-.37-1.21-.8-2.4-.91-2.63-.11-.23-.32-.87-.46-1.44s-.46-1.8-.73-2.74c-1-3.68-1.37-5.16-1.44-6.01-.05-.48-.14-.91-.23-1-.23-.23-.16-1.3.11-2.1.34-.98.94-.91 2.1.27Z" class="cls-14"/><path d="m190.76 129.05.34 1.02c-.17.03-.13.17.14.42.18.18.5.84.73 1.44.23.62.48 1.32.59 1.58.69 1.6 1.94 4.73 2.24 5.59.71 2.08 1 2.88 1.48 3.88.78 1.6 3.45 6.37 4.29 7.69.43.64 1.03 1.62 1.35 2.17.32.52 2.17 2.58 4.11 4.52 4.68 4.68 5.09 4.89 9.36 4.93 1.69.02 3.24.05 3.45.07.48.02 1.58 1.12 1.83 1.8.23.62 0 1.74-.82 3.81-.66 1.67-.87 2.08-2.17 4.18-.78 1.27-1.82 2.04-2.95 2.93-.81.63-.58.71-2.42-.06-.33-.14-2.81-1.46-2.81-1.46-.34 0-1.39-.64-3.61-2.17a8.38 8.38 0 0 1-1.19-1.03c-.3-.32-1.07-1.14-1.74-1.83-1.05-1.12-1.83-2.15-3.45-4.59-.25-.39-.8-1.16-1.21-1.74-.43-.57-1.03-1.51-1.35-2.1-.32-.57-.71-1.21-.87-1.39-.14-.18-.71-1.16-1.26-2.17-.55-1-1.23-2.15-1.51-2.56-.3-.39-.55-.82-.55-.94s-.96-1.62-2.1-3.38c-1.94-2.92-2.67-4.22-3.68-6.51-1.26-2.81-1.96-4.61-2.33-5.8-.21-.75-.46-1.48-.57-1.6-.5-.64-3.88-14.34-4.04-16.44-.21-2.63.41-3.54 2.44-3.54.46 0 1.83 1.3 1.83 1.74 0 .16.09.32.21.37.55.21 3.49 5.5 5.41 9.7.37.8.71 1.44.8 1.44Z" class="cls-11"/><path d="M192.43 129.64c.14-.02.43.03.87.17.59.18.89.21 1 .02.11-.17 2.77-1.24 3.61-2.01 1.07-1 2.79-4.09 3.4-6.07.5-1.69.73-8.65.37-11.8-.43-3.61-1.48-8.84-1.87-9.29-.11-.11-.21-.55-.21-.94 0-1.85-.78-2.37-2.21-1.44-.91.57-1.8 1.96-3.27 5.09-1.85 3.9-2.97 6.94-3.45 9.32-.41 2.1-.41 2.4-.09 5.37.25 2.28 1.06 9.23 1.85 11.59Z" class="cls-13"/><path d="M273.33 105.57c.68.78 2.58 3.56 2.58 3.81 0 .11.23.5.53.87.55.64 2.35 4.32 2.88 5.78 1.16 3.31 2.06 8.24 1.92 10.59-.11 1.8-1.32 4.8-1.69 4.22-.18-.25-.27-.23-.55.11-.18.25-.34.32-.34.18 0-.16-.11-.27-.25-.27-.16 0-.46-.23-.68-.5-.25-.25-.43-.41-.43-.3 0 .39-.82-.55-1.71-1.94-1.21-1.92-2.97-5.73-3.4-7.47-.66-2.51-.84-5.5-.62-9.22.14-1.99.37-3.95.57-4.5.37-1.03.37-1 .37-1.53 0-.48.3-.43.84.16Z" class="cls-12"/><path d="M271.94 103.22c-.46.5-1.19 3.63-1.48 6.46-.39 3.47-.3 6.37.3 9.54.62 3.29 1.21 4.91 3.06 8.31 1.14 2.05 1.58 2.63 2.97 3.79 1.39 1.16 1.76 1.37 2.53 1.37 1.51 0 1.46.05 3.31-3.86.55-1.19.07-6.76-.82-9.61-.47-1.5-3.74-9.66-5.02-11.05-.41-.45-.37-.73-.69-1.1-.16-.16-.89-1.16-1.6-2.24-1.35-2.03-1.87-2.37-2.56-1.62Z" class="cls-12"/><path d="M160.83 107.56c.32.23 1.05.66 1.6.94.57.27 1.07.57 1.14.66.14.16.69.5 1.92 1.16 1.6.87 5.09 3.61 6.85 5.34 2.37 2.37 4.06 4.7 5.18 7.12.78 1.67.94 2.31.98 3.52l.02 1.48-1.21.07c-2.12.11-4.59-1.3-9.04-5.23-.53-.43-1.23-1.03-1.6-1.3-1.23-.94-4.41-4.04-5.53-5.41-.62-.75-1.42-1.94-1.78-2.63-.37-.68-.84-1.51-1.05-1.83-.46-.68-1.28-2.79-1.51-3.88-.27-1.28-.3-1.44-.18-1.62.11-.21 3.47 1.05 4.2 1.6Z" class="cls-13"/><path d="M156.13 103.95c-.34.39-.43.8-.41 2.12.07 2.63 1.42 6.05 3.81 9.59 1 1.48 5.09 5.71 6.9 7.1.64.5 1.19.96 1.26 1.03.07.07.64.53 1.26 1.03.64.5 1.58 1.3 2.12 1.78 1.32 1.19 4.52 2.69 5.91 2.81 1.35.09 2.69-.25 3.29-.85.65-.65-1.7-6.76-2.24-7.74-1.53-2.76-6.19-7.92-8.72-9.64-.57-.39-1.1-.8-1.16-.87-1.16-1.45-10.2-6.85-11.42-6.85-.09 0-.34.23-.59.48Zm165.54 3.22c.09.55.34 2.42.59 4.18.59 4.11.64 11.23.09 13.93-.21.98-1.32 3.38-1.78 3.74-.21.16-.37.43-.37.57s-.3.68-.66 1.21l-.66.98-.37-.94c-.21-.53-.53-1.67-.71-2.58-.16-.89-.39-1.83-.48-2.06-.14-.34-.09-.39.16-.25.25.16.27.14.05-.14-.43-.55-.84-5.94-.53-7.17.02-.14.05-.3.02-.39-.07-.41 1.19-5.8 1.42-6.07.11-.16.23-.5.25-.8.02-.27.16-.48.32-.46.16.05.25 0 .25-.11-.09-.55.07-1.21.39-1.51.18-.21.3-.37.23-.37s0-.27.16-.64c.41-.94 1.14-2.1 1.35-2.1.09 0 .21.43.27.96Z" class="cls-13"/><path d="M321.01 104.75c-1.74 1.78-3.7 6.85-4.68 12.19-.64 3.33-.52 5.98.41 11.3.75 4.2 1.1 5.23 1.64 5 .18-.09.57-.21.82-.25.27-.07.64-.39.8-.71.18-.34.84-1.51 1.53-2.6 1.46-2.4 1.85-3.31 2.21-5.09.34-1.71.43-9.18.11-10.8-.57-2.95-.68-3.68-.82-4.95-.09-.75-.18-1.58-.23-1.83-.02-.25-.07-.94-.07-1.53-.02-.82-.14-1.14-.48-1.32-.39-.21-.57-.11-1.26.59Z" class="cls-13"/><path d="M397.61 106.21c-.3.18-.27.23.07.23.21 0 .39-.11.39-.23 0-.27-.02-.27-.46 0" class="cls-14"/><path d="M263.92 118.89c-.05 2.37-.14 4.75-.21 5.25-.27 1.62-1.05 4.61-1.51 5.71-.09.25-.37.96-.57 1.58-.59 1.62-.84 2.06-1.87 3.17-2.26 2.47-2.63 2.19-2.49-1.83.16-3.93.5-6.67 1.28-9.82.39-1.53.69-2.9.69-3.06 0-.14.14-.57.32-.96.18-.41.5-1.12.68-1.58.48-1.23 1.85-2.97 2.88-3.68q.57-.39.71.23c.09.37.11 2.58.09 4.98Z" class="cls-13"/><path d="M263.81 111.44c0 .11-.5.53-1.1.91-1.62 1.03-3.49 3.88-4.36 6.64-1.71 5.39-2.76 12.95-2.35 16.65.36 2.92 2.56 2.88 2.56 2.53 0-.11.53-.75 1.16-1.42.64-.66 1.46-1.62 1.78-2.12.69-1 2.42-5.3 2.76-6.8.71-3.11.94-4.5.89-5.41 0-.57.02-3.2.07-5.82.07-2.9.02-4.91-.11-5.09-.25-.32-1.3-.39-1.3-.07m-21.6 7.38c2.01 3.65 3.86 9.32 4.22 13.08.16 1.48-.05 4.25-.41 5.71-.11.5-.39 1.74-.62 2.74-.21 1-.48 1.94-.59 2.1-.11.14-.25.59-.3 1-.07.39-.14.75-.18.82-.09.07-1.39-2.35-2.69-4.95-.34-.68-.94-2.24-1.3-3.43-1-3.15-1.03-3.27-.8-3.13.14.09.18-.11.11-.48-.11-.53-.14-.55-.27-.16-.14.39-.16.37-.27-.16-.07-.34-.02-.57.07-.5.11.07.21 0 .21-.11 0-.14-.09-.25-.21-.25-.23 0-.46-1.58-.25-1.71.07-.05.07-.78-.02-1.64-.09-.89-.07-1.58.05-1.62.11-.05.21-.39.21-.78s.09-1.07.21-1.53c.11-.46.34-1.44.5-2.19s.39-1.48.55-1.6c.16-.14.41-.78.57-1.44.18-.64.34-1.19.37-1.19.05 0 .43.64.87 1.42Z" class="cls-13"/><path d="M241.02 115.85c-.16.16-.27.34-.27.46 0 .09-.25.71-.55 1.39-.32.66-.69 1.71-.84 2.33-.14.64-.37 1.35-.5 1.6-.14.25-.48 1.3-.75 2.35-.46 1.62-.53 2.31-.43 4.48.09 2.44.73 5.57 1.58 7.67.18.43.5 1.37.71 2.05.59 1.99 1.19 3.27 2.21 4.91.39.62.78 1.39.87 1.71.18.66 1.05 1.05 1.92.82.71-.18.66-.07 1.12-2.63.69-3.54 2.34-9.27 1.46-12.58-.18-.69-.41-1.78-.5-2.4-.09-.64-.39-1.71-.62-2.4-1.67-4.64-2.12-5.73-2.81-6.85-.41-.69-.8-1.58-.87-1.99-.07-.39-.18-.85-.27-.96-.18-.34-1.1-.32-1.44.02Z" class="cls-13"/><path d="M207.25 121.4c.73.43 1.37.8 1.44.8.32 0 2.97 2.15 4.75 3.86 2.6 2.53 4.18 4.52 5.25 6.64.48.94.98 1.85 1.1 2.01.39.43.46 4.61.11 4.61-.75 0-3.08-.78-4.8-1.58-1.42-.66-2.19-1.21-2.97-2.06-2.03-2.28-3.42-4.8-4.48-8.13-.27-.89-.59-1.78-.73-2.01-.3-.57-1.32-4.95-1.14-4.95.07 0 .73.37 1.46.8Z" class="cls-12"/><path d="M204.67 118.89c-.14.37-.14.96 0 1.64.14.62.34 1.71.46 2.47.23 1.44.43 2.15 1.58 5.48.91 2.63 1.71 4.27 2.81 5.75.48.66.87 1.26.87 1.35 0 .32 3.13 3.06 3.88 3.42.43.21 1.55.73 2.47 1.16 1.96.91 3.65 1.07 4.36.43.39-.34.43-.66.37-2.58-.09-2.12-.25-2.79-1.44-5.62-.48-1.16-2.12-3.72-3.04-4.73-2.17-2.37-3.86-4.04-4.45-4.34-.62-.32-.8-.43-1.53-1.03-.43-.34-1.07-.73-2.08-1.28-1-.55-3.17-2.19-3.29-2.51-.16-.41-.75-.18-.96.37Z" class="cls-12"/><path d="M288.52 125.67c.09 2.21-.18 6.96-.53 8.97-.14.87-.3 2.03-.37 2.58-.05.53-.43 2.03-.87 3.36-.43 1.32-.8 2.63-.8 2.92 0 .27-.23.87-.5 1.3-.46.75-1.76 3.24-3.72 7.08-.8 1.58-2.26 3.97-5.16 8.56-3.54 5.53-6.17 11.62-7.4 17.13-.59 2.58-1.42 5.71-1.85 6.96-.55 1.53-2.33 4.34-2.76 4.34-.55 0-1.16-.41-3.7-2.47-2.92-2.33-3.11-2.56-2.88-3.65.21-1.16.25-1.35.43-2.79.46-3.47 1.23-6.87 2.01-8.79 1.05-2.63 1.51-3.52 2.81-5.46.75-1.12 1.48-2.19 1.6-2.37.14-.21.3-.48.41-.59.5-.73 3.01-4.18 3.17-4.36.09-.14.64-.87 1.21-1.67.57-.78 1.12-1.42 1.26-1.42.11 0 .37-.27.55-.64.18-.34.66-.98 1.07-1.42.96-1.07 3.11-3.7 4.09-5.02.43-.62 1.21-1.62 1.71-2.24 1.8-2.28 3.81-4.98 4.52-6.07.41-.62.8-1.23.89-1.37.55-.84 1.99-5.39 2.83-8.91.18-.73.48-1.67.64-2.05.18-.39.43-1.35.59-2.15.16-.78.37-1.42.48-1.42.09 0 .21.75.25 1.64Z" class="cls-14"/><path d="M286.85 119.96c-.02.16-.05 1.16-.07 2.24-.05 1.07-.3 2.85-.57 4-1 4.18-2.9 10.25-3.68 11.78-.55 1.07-2.4 3.93-2.81 4.36-.16.16-.8.96-1.42 1.78s-1.21 1.53-1.3 1.6c-.09.07-.73.89-1.42 1.83-1.76 2.42-2.88 3.81-3.74 4.77-.43.46-1.23 1.44-1.8 2.19-.57.75-1.21 1.53-1.44 1.71-.41.39-2.83 3.56-4.8 6.3-.68.98-1.6 2.24-2.03 2.81-1.64 2.19-3.49 7.15-4.38 11.67-.27 1.44-.73 3.15-1.03 3.79-1.28 2.76-.43 4.09 5.34 8.38 1.37 1.03 2.31 1.58 2.74 1.58.68.02 1.87-.62 1.87-1 0-.14.32-.64.71-1.12.66-.85 1.19-1.99 1.94-4.32.64-1.99.75-2.4.91-3.31.12-.64.36-1.09.46-1.6 1.14-6.17 3.56-12.31 7.01-17.7 2.37-3.74 3.56-5.64 4.13-6.67.53-.91 2.88-5.39 3.93-7.54.43-.87 1.03-1.94 1.32-2.42.3-.5.62-1.26.68-1.69.07-.46.43-1.76.8-2.9.87-2.65 1.44-7.4 1.48-12.01 0-1.68.8-7.39-1.21-8.56-.62-.32-1.62-.3-1.64.05Z" class="cls-9"/><path d="M368.39 123.2s-.8.87-1.76 1.8c-3.31 3.2-6.21 5.27-9.43 6.78-1.19.55-2.33 1.14-2.51 1.28-.55.46-3.79 1.46-6.51 2.03-.87.18-2.53.34-3.65.34-1.85 0-2.1-.05-2.37-.48-.23-.39-.23-.53-.02-.66.46-.27.05-.66-.53-.5-.43.11-.39-.02.41-1 .5-.62 1.05-1.23 1.26-1.37.18-.16.59-.5.91-.78 1.12-1 4.34-2.99 5.98-3.68.91-.39 2.08-.89 2.58-1.12 1.71-.78 5.48-1.83 7.74-2.15 1.23-.18 2.28-.39 2.35-.46.11-.11 5.55-.16 5.55-.05Z" class="cls-13"/><path d="M363.93 122.1c-1.26.14-3.15.43-4.22.66-1.07.21-2.19.43-2.51.5-.69.11-3.72 1.12-4.68 1.53-.37.18-1.35.57-2.17.91-3.61 1.46-6.35 3.26-9.06 6.01-1.75 1.71-2.24 1.35-1.37 3.08.82 1.69 1.28 1.92 3.81 1.9 2.49-.05 3.31-.16 6.62-.96 2.63-.64 3.17-.85 7.19-2.81 2.72-1.32 5.21-2.85 6.74-4.16.43-.37 1.19-1 1.67-1.39.48-.41 1.48-1.28 2.24-1.96.75-.68 1.58-1.39 1.8-1.55.27-.21.46-.59.46-.96 0-.62-.07-.66-1.3-.82-1.96-.27-2.69-.25-5.21.02Z" class="cls-13"/><path d="M144.98 138.29c2.03.94 6.39 3.4 7.06 4 .25.23.78.57 1.14.78 2.03 1.1 4.93 3.22 5.75 4.18.41.48.94 1.1 1.19 1.39.64.78 1.53 2.72 2.08 4.5.34 1.19.46 2.03.39 3.31l-.09 1.71-.73.07c-1.58.16-5.07-1.28-6.64-2.76-.43-.39-1.3-1.12-1.9-1.6-1.32-1.07-3.43-3.49-5.27-6.07-.98-1.39-3.24-5.82-4.02-7.9-.27-.75-.59-1.55-.71-1.76-.43-.84-.39-.82 1.76.16Z" class="cls-12"/><path d="M142.06 135.69c-1.13.65 1.56 6.27 1.92 7.06.27.57.82 1.78 1.23 2.69 1.39 3.01 6.12 8.7 9.27 11.12.16.14.71.57 1.21.96 1.1.89 4.09 2.01 5.87 2.21 1.14.14 1.42.11 2.03-.34.57-.41.66-.59.53-1.1-.07-.32-.18-1.42-.23-2.42-.09-2.53-1.39-5.89-3.22-8.31-.73-.96-1.46-1.83-1.64-1.94-.18-.11-.75-.59-1.26-1.05-.53-.46-1.05-.89-1.16-.94-.21-.07-1.74-1.07-5.14-3.31-1.21-.78-3.95-2.26-6.39-3.43-1.19-.57-2.19-1.14-2.24-1.26-.11-.25-.27-.25-.78.05Zm25.71 4.98c.64.5 2.03 1.85 3.11 3.01 1.07 1.16 2.33 2.49 2.83 2.92.73.69 2.92 3.36 5.87 7.17.66.87 1.53 3.31 1.94 5.53.34 1.69.32 1.92-.05 3.13-.5 1.67-.73 1.69-3.24.18-1.05-.64-1.94-1.14-1.99-1.14-.23 0-1.26-.89-2.99-2.65-1.64-1.64-2.03-2.19-3.49-5.07-1.92-3.77-3.36-8.59-3.61-11.99-.16-2.35-.09-2.4 1.62-1.1Z" class="cls-12"/><path d="M165.37 138.23c-.41.78-.3 4.82.23 7.03.8 3.49 1.16 4.91 1.39 5.37.11.25.43 1.03.71 1.71.3.69.75 1.67 1.05 2.17.3.5.82 1.48 1.19 2.19 1.32 2.51 5.64 6.28 9.38 8.2 2.35 1.19 3.52-.05 3.49-3.72 0-1.12-.11-2.24-.25-2.51-.11-.27-.41-1.16-.62-1.99-.68-2.56-1.26-3.52-4.57-7.65-3.86-4.8-10.46-11.3-11.49-11.3-.14 0-.39.23-.53.5Z" class="cls-12"/><path d="M368.52 139.82c-.21 1.03-5 10.64-6.92 13.88-1.62 2.72-4.06 5.48-5.59 6.26l-1.9 1.07c-1.62.96-3.29 1.71-4.22 1.92-.43.09-.87.3-.96.43-.11.14-.18.02-.18-.3 0-.39-.09-.5-.37-.39-.25.09-.32.02-.23-.27.05-.21.32-1.21.59-2.21.25-1 .55-1.99.66-2.17.09-.18.37-.96.57-1.69.23-.73.91-2.42 1.55-3.74 1.51-3.08 3.77-5.69 6.92-7.92 1.23-.87 2.33-1.69 2.49-1.83.5-.48 1.64-1.21 3.11-1.99.82-.43 1.8-.98 2.21-1.23.39-.25 1.1-.48 1.58-.5q.84-.07.68.68Z" class="cls-13"/><path d="M367.86 137.95c-.59.11-1.76.59-2.63 1.07-.84.48-1.71.94-1.96 1.05-.23.09-.8.46-1.26.8-.46.34-1.12.78-1.46.96-.37.18-.87.55-1.14.82s-.98.78-1.55 1.14c-1.53.96-4.8 4.13-5.87 5.71-1.12 1.64-2.58 4.73-3.22 6.71-.25.82-.62 1.92-.82 2.44-.41 1.16-1.26 4.18-1.48 5.34-.09.53-.05.96.11 1.21.64.85 5.59-1.39 5.59-1.46 0-.01 3.28-2.03 3.42-1.94.48.32 4.34-3.52 4.7-4 .62-.82 1.26-1.62 1.42-1.78.16-.18.55-.8.87-1.39.3-.57.82-1.51 1.14-2.08 2.19-3.84 4.98-9.41 6.03-12.08l.75-1.92-.5-.43c-.57-.46-.55-.43-2.15-.18Z" class="cls-13"/><path d="M207.84 143.18c1.67.96 3.45 1.96 3.95 2.24 2.83 1.58 6.67 5.91 7.15 8.06.25 1.05.14 3.24-.16 3.58-.57.68-3.7-.07-5.21-1.28-2.33-1.83-6.69-6.32-7.56-7.81-1.05-1.74-2.35-4.82-2.58-6.01l-.16-.82.75.14c.41.09 2.12.94 3.81 1.9Z" class="cls-12"/><path d="M201.93 140.01c0 .39.14.75.32.82.18.07.37.68.46 1.62.32 3.17 2.49 7.06 5.91 10.55 1.1 1.14 2.08 2.08 2.17 2.08s.34.27.57.64c.25.34 1 1.05 1.71 1.55 1 .73 1.67 1 2.9 1.23.89.16 1.76.37 1.94.46.41.21 1.55-.23 2.12-.78.82-.85.32-5.23-.84-7.33-.62-1.1-2.49-3.43-3.45-4.29-3.47-3.15-10.14-6.78-13.06-7.15-.71-.09-.75-.05-.75.59Z" class="cls-12"/><path d="M342.13 151.24c-.02.87-1.78 7.54-2.06 7.81a.84.84 0 0 0-.23.53c0 .27-.73 1.99-1.55 3.72-.5 1.03-2.28 3.88-2.76 4.41-1.35 1.53-3.22 3.22-3.84 3.49-.41.18-.75.41-.75.52 0 .25-2.42 1.85-2.81 1.85-.16 0-.55.25-.82.55-.78.82-1.32.89-1.48.16-.46-2.15-.5-1.78.78-6.39 1.19-4.25 2.53-6.64 5.27-9.38 2.17-2.15 6.55-5.71 7.03-5.71.11 0 .27-.18.34-.39.14-.34.18-.34.37-.07.18.27.23.25.23-.14 0-.3.21-.57.52-.66.27-.11.71-.25.96-.34.68-.27.8-.25.8.05Z" class="cls-13"/><path d="M341.17 150.01c-.84.46-2.01 1.21-2.6 1.64-.59.43-1.46 1.05-1.92 1.37-2.12 1.46-5.55 4.5-7.26 6.46-.66.75-1.87 2.49-1.87 2.72 0 .16-.98 2.42-1.37 3.17-.27.5-1.32 4.25-1.87 6.6-.39 1.64-.41 2.05-.16 2.74.16.43.27 1.07.25 1.42-.05.43.09.71.43.87 1.1.64 3.21-2.12 5.14-3.08 1.8-.91 5.5-4.16 7.19-6.28 1.44-1.83 3.29-5.62 4.64-9.54.33-.97 2.55-7.96 2.06-8.52-.53-.59-.89-.53-2.65.43Zm48.61 1.62c-.64.8-9.32 9.25-9.86 9.61-.32.21-.73.59-.91.82-.43.62-5.21 4.02-6.85 4.86-.75.41-1.87.87-2.51 1.05-1.48.41-5.11.39-5.55-.02-.16-.18-.66-.32-1.1-.32s-1.12-.16-1.48-.37c-.64-.32-.68-.43-.55-1.19.37-2.1 2.21-4.27 5.94-6.99 2.26-1.64 6.19-4.02 6.64-4.02.14 0 .75-.25 1.42-.57 2.26-1.07 7.35-2.17 10.73-2.26.39-.02.73-.09.73-.16 0-.09.57-.23 1.26-.32.68-.07 1.3-.23 1.35-.32.07-.07.32-.16.57-.16.37 0 .41.07.18.34Z" class="cls-13"/><path d="M384.39 151.1c-.82.09-1.58.18-1.69.25-.09.05-1.05.18-2.12.3-1.07.11-2.08.3-2.21.41-.16.11-1.05.43-1.99.71-1.8.55-6.23 2.67-7.47 3.58-.39.3-.78.55-.87.55-.18 0-2.88 1.85-3.93 2.67-.43.37-1.44 1.3-2.24 2.12-1.58 1.6-2.21 2.97-2.49 5.39-.14 1.05-.09 1.19.41 1.44.74.4 5.82 1.04 6.87 1 2.81-.09 3.24-.14 4.11-.5.84-.34 2.65-1.21 2.97-1.46.11-.09.57-.39.98-.68 2.95-2.03 4.43-3.15 5.53-4.16.69-.64 2.12-1.99 3.2-2.99 1.07-.98 3.36-3.2 5.07-4.93 1.71-1.71 3.31-3.22 3.52-3.33.34-.18.34-.25-.02-.8-.21-.34-.48-.57-.57-.5-.02 0-6.76.91-7.06.94Z" class="cls-13"/><path d="M145.19 162.73c5.18.41 7.63.89 10.96 2.19 1 .39 2.21.8 2.69.91.48.11 1.62.57 2.51.98.91.43 1.92.84 2.26.94.32.09.8.34 1.07.59.25.23.55.43.68.43.21 0 2.15 1.26 3.06 1.99.27.23.89.87 1.35 1.44l.82 1.03-.62.64c-.64.62-3.22 1.83-3.74 1.71-.16-.02-.94.05-1.76.16-2.01.25-3.43.21-5.85-.23-5.41-.94-8.08-1.92-10.85-4.06-.46-.34-.91-.62-1.05-.62-.73 0-7.38-7.12-7.38-7.92 0-.18.5-.3 1.44-.34 1.53-.07 1.67-.07 4.38.16Z" class="cls-12"/><path d="M138 161.58c-.87 1.03 3.68 6.85 7.65 9.82 3.95 2.92 5.64 3.74 9.59 4.66 4.45 1 7.31 1.28 9.93.96 3.58-.43 4.18-.59 5.34-1.51.39-.32.82-.66.96-.78.14-.11.43-.25.68-.3.64-.11.66-.82.05-1.42-.27-.27-.98-1-1.55-1.6-2.51-2.74-5.78-4.73-10.41-6.42-1.26-.46-3.06-1.14-4.04-1.53-.35-.14-2.86-.79-2.83-.96 0-.01-.88-.41-1.53-.66-.12-.05-1.41-.08-1.64-.05-.34.02-1.6-.09-2.81-.25-3.08-.43-9.02-.43-9.38.02Z" class="cls-12"/><path d="M413.14 166.04c0 .25.05.46.09.46s.14-.21.21-.46c.07-.25.02-.46-.09-.46s-.21.21-.21.46" class="cls-14"/><path d="M379.41 173.25c2.51.43 4.86 1.1 8.27 2.28 4.43 1.53 4.45 1.55 4.45 1.85 0 .16.14.23.32.16.39-.16 1.64.98 1.85 1.67.16.62.14.62-3.88 1.46-6.92 1.44-17.88 1.96-21.46 1.03-1.3-.34-4.06-1.46-5.82-2.4-.55-.27-1.85-2.35-1.71-2.72.07-.18 0-.48-.14-.64-.62-.75 4.64-2.19 9.73-2.69 4.29-.39 6.14-.39 8.4 0Z" class="cls-13"/><path d="M373.3 172c-5.78.37-8.81.8-10.05 1.42-.5.25-.94.43-.98.41-.02-.02-.39.11-.8.3-.43.16-.98.39-1.26.46-.27.09-.57.41-.64.73-.28 1.06 1.87 4.89 2.6 4.89.09 0 4.08 1.83 4.43 1.96 2.6.96 3.29 1.07 7.67 1.21 2.4.07 4.38.07 4.38-.05 0-.13 10.92-1.27 11.87-1.44 1.69-.3 3.54-.59 4.11-.66 1.46-.18 1.6-.25 1.6-.87 0-1.35-1.78-3.36-3.65-4.13-.57-.23-1.19-.48-1.37-.57-.18-.11-1.12-.41-2.05-.68-.94-.27-2.53-.8-3.54-1.16-2.88-1.03-5.3-1.6-7.17-1.74-.96-.05-1.94-.14-2.19-.16-.25-.05-1.58 0-2.97.09Z" class="cls-13"/><path d="M178.53 180.42c3.36.53 4.68.94 5.59 1.8.87.8.87.84.55 1.58-.57 1.39-2.63 3.08-4.54 3.79-.62.25-1.23.5-1.37.59-.27.21-2.35.66-4.34.91-2.9.41-14.11-.87-16.33-1.85-.87-.39-.98-.5-.66-.73.18-.16.8-.64 1.37-1.07 1.83-1.46 8.13-3.93 10.82-4.22.14 0 .8-.18 1.48-.39.68-.23 1.58-.41 1.94-.46 1.96-.21 4.06-.18 5.48.05Z" class="cls-12"/><path d="M172.25 179.28c-1.07.18-3.81.84-6.51 1.6-1.44.41-4.64 1.64-6.39 2.51-2.01.96-4.11 2.88-3.86 3.52.18.46 1.35 1.16 2.63 1.64 1.05.37 5.55 1.1 8.43 1.37.94.07 1.8.21 1.9.25.37.23 6.21.27 7.12.07.5-.09 1.23-.25 1.6-.3 1.07-.18 3.54-1.05 5.02-1.8 3.15-1.55 5.5-5.32 3.88-6.21-.25-.14-.5-.3-.57-.37-.59-.66-1.6-1.12-3.2-1.48-.07-.02-.41-.09-.8-.18-.37-.09-1.05-.21-1.48-.27-.43-.07-1.1-.21-1.48-.32-.96-.23-4.77-.25-6.28-.02Z" class="cls-12"/><path d="M350.58 187.39c1.07.09 2.12.25 2.33.37.21.11.62.21.89.21 1.07 0 3.17.75 3.9 1.42.41.37.59.62.41.57-.41-.11-2.35.62-3.17 1.19-.75.52-5.3 2.42-6.64 2.76-1.71.46-1.87.5-3.61.82-.91.16-1.76.37-1.87.43-.23.14-6.28.16-6.85.05-.18-.05-.84-.16-1.48-.25-1.12-.18-3.58-1.21-3.72-1.55-.05-.11-.16-.14-.27-.07-.09.05-.46-.18-.8-.53-.62-.59-.62-.62-.14-.69.25-.05.48-.18.48-.3s.16-.21.37-.21c.25 0 .34-.14.25-.43-.11-.43.59-.94 1.35-.94.18 0 .5-.09.73-.21.21-.11 1-.34 1.76-.48.75-.16 2.1-.53 2.97-.82 2.69-.87 4.25-1.21 6.51-1.37 1.19-.07 2.19-.16 2.21-.18.09-.07 2.1.02 4.41.21Z" class="cls-13"/><path d="M347.45 185.83c-.09.02-.89.09-1.78.16-2.85.18-4.75.55-8.01 1.58-1.76.57-3.81 1.14-4.57 1.3-.73.16-1.8.48-2.35.73s-1.58.55-2.26.64c-1.69.3-1.94.39-2.26.91-.34.55-.02 1.6.48 1.6.06 0 5 3.13 7.33 3.52.39.07.94.18 1.26.25 1.51.3 3.81.3 5.82 0 1.21-.18 2.26-.32 2.35-.3.69.21 6.98-1.98 7.35-1.76.02.01 5.85-2.58 6.51-2.85.91-.39 1.39-.53 1.92-.59.87-.11 1.16-.27 1.16-.66 0-.59-1.8-2.35-2.69-2.65-.46-.14-.94-.34-1.07-.41-.23-.16-1.48-.48-3.7-.94-1.14-.23-5.16-.62-5.48-.53Z" class="cls-13"/><path d="M369.85 191.88c-.23 1.28-.59 2.33-1.16 3.2-.27.48-.53.91-.53 1 0 .25-3.7 5.66-4.98 7.28-2.01 2.53-8.91 9.25-10.78 10.5-1.3.89-4 2.4-4.25 2.4-.02 0-.11-.46-.21-1.03-.23-1.53.3-5.25.96-6.96 1.83-4.64 6.05-9.64 9.89-11.67.57-.3 1.23-.73 1.48-.96.25-.23 1.32-.82 2.4-1.32 1.07-.5 2.44-1.19 3.04-1.48.59-.32 1.21-.48 1.35-.41.16.11.18.05.07-.14-.14-.23-.09-.27.18-.16.23.07.39.05.39-.07 0-.25 1.1-.59 1.55-.5.14.05.27-.05.27-.18 0-.11.09-.23.23-.23.11 0 .16.32.09.73Z" class="cls-12"/><path d="M369.64 190.51c-.37.11-1.05.32-1.48.46-.43.11-1.37.53-2.1.89-.71.37-1.99.91-2.85 1.23-.84.32-2.44 1.14-3.52 1.83-1.1.68-2.06 1.26-2.15 1.26s-.43.21-.75.46c-.34.25-.87.64-1.16.87-1.76 1.28-5.8 6.1-6.83 8.15-1.48 2.97-1.8 3.95-2.33 7.4-.41 2.51.25 4.59 1.42 4.59.67 0 4.5-2.38 4.98-2.69 2.67-1.78 8.65-7.51 10.75-10.32.62-.82 1.19-1.6 1.28-1.71 3.4-4.38 5.64-8.24 6.32-10.87.46-1.74.11-2.08-1.58-1.53Z" class="cls-12"/><path d="M125.16 184.19c-.68.39-.37 4.32.53 6.26.11.25.53 1.42.89 2.56.64 1.94 1.21 3.2 2.63 5.71.84 1.51 5.64 5.85 8.54 7.74 1.03.69 1.94 1.23 2.03 1.23.07 0 .5.23.96.5.43.27.94.53 1.07.55.14.02.55.23.91.46 1.28.84 2.95 1.23 3.4.8.14-.11.43-.25.68-.3.34-.05.55-.46.91-1.92.27-1.03.41-2.05.32-2.28-1.26-3.26-1.9-4.84-2.15-5.11-.16-.18-.46-.66-.64-1.03-.48-.91-4.5-5-6.1-6.21-1.8-1.35-5.41-3.65-6.62-4.2-1.48-.69-3.68-2.21-6.26-4.36-.55-.46-.82-.55-1.12-.39Z" style="fill:#063;stroke:#063;stroke-width:1.92px;fill-rule:evenodd;stroke-miterlimit:10"/><path d="M157.59 198.67c4.98 5.07 5.69 5.82 7.28 7.9 1.83 2.37 2.63 4.73 2.53 7.44-.07 1.48-.14 1.78-.41 1.67-.18-.07-.84-.18-1.48-.25-1.87-.21-2.76-.59-4.66-2.1-1.9-1.48-3.24-2.97-3.74-4.06-.16-.34-.55-1.05-.84-1.55-.59-.94-.78-1.37-1.78-4.11-.53-1.42-.59-1.99-.64-5.09-.02-1.9 0-3.47.05-3.47.07 0 1.71 1.64 3.7 3.63Z" class="cls-12"/><path d="M153.07 192.84s-.11.62-.23 1.28c-.41 2.21-.3 6.74.23 8.86.39 1.59 3.43 7.55 3.43 7.56 0 .25 3.63 3.95 5.14 5.23 1.16 1 4.09 1.67 5.87 1.32 1.07-.21 1.35-1.05 1.23-3.77-.23-4.75-2.35-7.92-11.1-16.6-3.38-3.36-4.57-4.36-4.57-3.88" class="cls-12"/><path d="M315.21 198.69c2.53.53 3.52.82 5.23 1.55.75.34 2.53 1.03 4.22 1.64 3.88 1.44 9 3.9 9.48 4.57.07.09.5.34.96.55 1.19.57 3.84 3.22 3.84 3.86 0 .16-7.79.05-8.22-.14-.18-.07-.75-.18-1.26-.27-.5-.09-1.37-.3-1.94-.46-8.2-2.51-8.38-2.6-11.39-5.62-1.51-1.51-1.55-1.58-2.33-3.06-.55-1-1.1-3.08-.82-3.08.05 0 1.05.21 2.24.46Z" class="cls-13"/><path d="M310.89 196.45c-.32.32-.37 1-.07 1.19.11.07.34.68.5 1.32.5 2.19 1.64 4.02 3.81 6.12 3.47 3.42 4.91 4.27 9.18 5.55 6.1 1.83 8.68 2.24 12.9 2.01l2.97-.14.07-1.03c.05-.75-.09-1.26-.46-1.85-.57-.91-2.49-2.67-3.79-3.49-.48-.3-.98-.71-1.16-.91-.16-.21-.43-.37-.57-.37-.16 0-.64-.27-1.07-.59-1-.75-4.29-2.37-4.84-2.37-.23 0-.89-.27-1.48-.62-.18-.11-1.49-.74-1.55-.82-.09-.09-1.2-.33-1.55-.5-.53-.3-1.93-.59-2.6-.84-3.56-1.35-5.69-1.96-7.42-2.12-1.03-.09-1.9-.3-2.08-.48-.41-.39-.43-.39-.78-.05Z" class="cls-13"/><path d="M399.05 197.3c.8.05.48.48-1.76 2.37-.62.53-1.51 1.28-1.94 1.64-1.55 1.32-2.88 2.33-4.13 3.17-1.26.84-2.42 1.64-4.48 3.08-4.36 3.06-5.87 3.95-7.92 4.61-2.08.69-3.68.78-5.41.32-1.62-.41-2.08-.53-2.33-.55-.32-.05-.18-.48.3-.96.3-.3.43-.64.34-.96-.14-.55 1.16-3.2 1.48-2.99.11.07.57-.46 1-1.16.46-.69.89-1.26.98-1.26s.41-.23.73-.52c2.17-1.99 7.88-5.18 9.25-5.18.21 0 .57-.11.84-.25.68-.37 5.02-1.1 7.49-1.26 1.19-.07 2.21-.16 2.26-.21.07-.07 1.9-.02 3.29.09Z" class="cls-12"/><path d="M393.94 196.56c-1.8.23-5.43.85-6.71 1.12-.87.21-1.76.39-1.94.43-1.35.27-4.27 1.46-5.62 2.28-.89.53-1.85 1.05-2.15 1.14-.96.3-3.22 2.33-5.39 4.84-.43.5-1.48 2.44-2.15 3.97-.14.3-.43.84-.66 1.23-.66 1-.59 1.42.23 1.6 2.28.54 5.99 1.06 8.2.52.94-.23 2.08-.59 2.51-.8 1.99-.94 2.39-1.55 4.04-2.47.59-.37 1.87-1.23 2.81-1.94s2.17-1.58 2.74-1.92c.57-.34 1.6-1.03 2.28-1.53.68-.5 1.51-1.07 1.83-1.3.09-.06 5.64-4.48 5.69-4.54.27-.32.73-.71 1-.84.27-.16.53-.48.57-.75.14-.89-1.21-1.26-4.32-1.16-.18 0-2.97.11-2.97.11Z" class="cls-12"/><path d="M83.45 209.85c-.18.14-.21.25-.07.34.14.07.32.02.39-.11.21-.32.05-.46-.32-.23" class="cls-14"/><path d="M383.75 220.61c.84.16 1.53.34 1.53.43s.32.14.68.07c.41-.05.69 0 .69.16 0 .14.14.18.32.11.32-.11 3.56.91 3.77 1.23.09.09.55.37 1.05.62 1.12.57 3.81 2.83 3.65 3.08-.14.21-2.99 1-5.37 1.46-.94.18-2.63.5-3.77.73-1.46.27-3.22.39-6.05.41-3.63 0-4.2-.05-6.21-.59-1.96-.55-6.05-2.26-6.35-2.67-.07-.09-.48-.32-.94-.55-.43-.21-1.19-.68-1.67-1.07l-.89-.68 1.71-.8c2.24-1.03 4.73-1.83 6.69-2.17 1.62-.25 9.29-.11 11.14.23Z" class="cls-12"/><path d="M372.95 219.15c-3.11.59-5.89 1.46-7.19 2.26-.68.43-2.62 1-3.08 1.6-.43.52.02 1.32 1.03 1.8.46.23.89.55.96.71.14.37 3.52 2.17 4.06 2.17.21 0 .53.16.71.34.32.3 2.97 1.23 4.09 1.42.25.05.71.18 1.03.3 2.05.8 8.72.69 12.67-.23.5-.11 2.05-.43 3.42-.69 2.79-.52 6.19-1.51 6.39-1.83.66-1.07-3.56-4.73-7.06-6.1-.78-.3-2.67-.8-4.25-1.12-2.42-.5-3.56-.62-7.54-.66-2.58-.05-4.93-.02-5.25.02Zm-261.51 9.59c-.37.21-.71.3-.78.23-.07-.07.11-.23.41-.34.85-.34 1.07-.27.37.11m3.49-1.3c0 .11-.27.25-.62.32-.59.11-.59.09-.18-.21.5-.37.8-.41.8-.11m22.7-2.26c.98.25 2.17.69 2.67.91.48.25 1.03.46 1.23.46.73 0 .37 1.07-.62 1.92-.55.46-1.46 1.21-2.06 1.71-.59.48-1 .96-.91 1.07.09.09.05.09-.09.02-.16-.09-.53.05-.85.3-.78.62-3.13 1.69-3.29 1.51-.07-.07-.25.02-.39.21-.46.59-2.99 1.23-6.42 1.6-3.68.41-6.99.25-10.28-.48-.87-.18-1.8-.39-2.06-.41-2.67-.43-6.96-2.33-6.96-3.08 0-.59 11.26-4.41 14.96-5.07.64-.11 1.67-.32 2.28-.46 4.45-.98 9.59-1.07 12.76-.21Z" class="cls-12"/><path d="M127.27 223.14c-.43.11-1.51.32-2.4.43-1.55.21-3.58.82-9.02 2.74-1.44.53-2.99 1.05-3.42 1.16-.43.14-1.42.5-2.17.82-.75.32-1.58.66-1.83.78-.25.09-.91.32-1.46.46-1.12.34-1.39.73-.85 1.32.21.23.37.5.37.64 0 .62 3.56 2.53 5.48 2.92.07.02.73.16 1.48.32s1.69.37 2.06.48c.39.11 1.16.25 1.78.32.59.07 1.55.21 2.17.3 1.3.23 7.51.21 8.97 0 3.61-.53 7.1-1.74 10.18-3.56 1.96-1.14 2.72-1.71 4.34-3.24.96-.91 1.28-1.37 1.28-1.85 0-1.62-1.81-1.46-3.15-2.03-1.19-.5-4.68-1.55-5.59-1.67-3.29-.46-7.24-.64-8.22-.34" class="cls-12"/><path d="M197.25 237.07c.5.11 1.55.37 2.33.55 1.8.39 3.4 1.12 4.16 1.83.34.3.89.8 1.26 1.14.37.32.62.64.55.69-.21.23-3.22.16-4.75-.09-3.47-.57-8.95-3.63-7.79-4.34.32-.21 3.08-.07 4.25.23Z" class="cls-13"/><path d="M191.56 235.15c-.21.23-.16 1.16.07 1.32.11.07.3.43.37.84.32 1.39 2.44 3.04 5.94 4.54 1.28.57 3.65 1.14 4.61 1.12.62-.02 1.46.05 1.92.11 1.22.21.81-.34 1.78-.34 1.26 0 1.55-1.03.55-2.03-.37-.34-1.03-1.05-1.51-1.58-.46-.53-1.28-1.23-1.78-1.55-1.64-1.03-5.46-2.1-8.17-2.28-.96-.05-2.17-.16-2.67-.21-.53-.05-1-.02-1.1.05Z" class="cls-13"/><path d="M225.86 238.1c.27.05.5.23.5.39s.21.73.46 1.26c.5 1.05.62 3.04.23 4.43-.48 1.67-2.33 2.37-4.18 1.58-.62-.27-1.39-.53-1.71-.57-1.94-.32-3.42-.37-3.97-.16-.34.11-1.37.3-2.28.37-4.2.37-6.71 1.12-9.68 2.92-4.73 2.85-6.92 3.22-5.66.91.8-1.51 2.97-2.9 7.33-4.73 1.3-.55 2.33-1.14 3.7-2.15 1.62-1.19 3.4-2.08 5.5-2.72 5.8-1.83 7.24-2.05 9.77-1.53Z" class="cls-10"/><path d="M223.17 236.5c-1.51.23-5.14 1.12-7.88 1.94-1.37.39-3.7 1.62-6.21 3.27-1.23.8-3.06 1.8-4.06 2.21-3.11 1.28-5.48 2.74-6.69 4.11-.66.75-.73.94-.59 1.8.23 1.46.96 2.37 1.96 2.47.89.07 2.92-.82 5.27-2.33 1.55-.98 5.11-2.67 5.87-2.79.18-.02 1.16-.11 2.17-.21 1-.09 2.49-.3 3.31-.43 2.05-.39 4.02-.21 5.34.43.37.18.89.34 1.19.34s.57.09.64.21c.23.34 1.26.43 1.67.11.23-.16.57-.32.75-.32.21 0 .82-.46 1.42-.98 1.03-.98 1.05-1.05 1.32-3.08.3-2.15.09-4.22-.55-5.41-.11-.25-.21-.55-.18-.66.11-.39-.48-.82-.98-.69-.27.07-.87.05-1.28-.07-.5-.14-1.39-.11-2.49.07Z" class="cls-11"/><path d="M370.83 237.94c3.88.27 4.64.37 7.26.87 1.64.32 3.08.87 3.08 1.21 0 .14-3.06 1.71-4.8 2.47-2.19.96-8.95 2.58-10.59 2.56-.39-.02-1.48.05-2.42.11-3.58.25-7.01.18-8.27-.21-.66-.21-1.58-.48-2.01-.62-.43-.14-1.64-.62-2.69-1.05-1.74-.78-1.85-.87-1.51-1.19.25-.25.41-.3.48-.09.14.39 1.42-.21 1.74-.82.5-.96 4.68-2.81 7.01-3.13.32-.05 1.39-.14 2.4-.23 1-.09 1.85-.18 1.9-.21.11-.09 4.89.09 8.43.32Z" class="cls-12"/><path d="M359.14 236.59c-3.45.68-4.95 1.19-7.67 2.63-.59.32-1.23.57-1.42.57-.21 0-.64.23-1 .5-.34.3-.84.64-1.1.78-.98.55-1.03 2.44-.05 2.81.27.11 1.07.46 1.76.75 1.08.5 4.3 1.64 5.43 1.71.71.07 1.44.18 1.64.3.8.41 7.88-.02 11.51-.71 1.39-.27 2.79-.53 3.08-.57.25-.06 2.08-.73 2.08-.66 0 .09 1.6-.43 2.4-.78.84-.38 7.42-2.78 7.42-3.9 0-.21-.34-.55-.73-.78-.41-.23-1.14-.62-1.6-.84-1.07-.59-4.77-1.26-8.06-1.46-1.37-.09-2.72-.21-2.97-.27-.84-.18-9.8-.23-10.73-.07Zm-189.95 7.9c1.85.62 2.06 1.07 1.07 2.33-2.83 3.72-6.19 6.3-10.34 7.97-1.6.64-4.02 1.39-5.25 1.64-.69.14-2.08.41-3.08.64-2.47.53-6.85.55-7.69.05l-.64-.37.57-.3c.3-.16 1.1-.87 1.76-1.55 2.47-2.58 8.54-7.03 11.14-8.17.96-.41 2.17-.96 3.93-1.78.71-.32 1.69-.69 2.17-.82 1.19-.3 5.07-.07 6.37.37Z" class="cls-12"/><path d="M163.11 242.99c-.57.07-1.28.27-1.6.46-.32.18-.66.32-.8.34-.57.05-2.15.59-2.21.78-.05.09-1.05.66-2.24 1.26-3.7 1.85-4.45 2.35-8.29 5.41-1.14.91-6.9 4.69-6.28 5.78.11.21.37.37.57.37s.59.21.85.43c.27.25.96.57 1.55.73 2.31.62 11.37-.78 14.11-2.19.32-.16 1.14-.46 1.83-.69 2.44-.8 6.28-3.38 8.79-5.94 2.99-3.04 3.11-3.22 3.04-4.27-.05-.55-.21-1-.41-1.1-2.35-1.16-6.03-1.71-8.91-1.37" class="cls-12"/><path d="M194.03 249.29c.75.53.82.64.5.82-.21.11-.32.32-.25.43.09.11.25.16.37.09.84-.53-1.26 2.65-2.81 4.22-2.4 2.44-4.13 3.74-9.32 6.87-2.9 1.78-7.08 3.68-7.08 3.24 0-.09.78-1.26 1.21-1.78.09-.14.89-1.21 1.78-2.4 3.27-4.43 4.02-5.34 6.51-7.74 1.67-1.6 2.99-2.67 3.88-3.13.73-.37 1.46-.8 1.64-.96.16-.14.84-.27 1.48-.27.91 0 1.42.14 2.08.59Z" class="cls-13"/><path d="M189.71 247.96c-1.05.43-2.49 1.39-3.77 2.49-.48.41-.94.75-1.05.78-.18.02-3.52 3.58-4.98 5.34-.96 1.14-3.11 4.25-3.11 4.48 0 .02-1.07 1.12-1.83 2.17-1.78 2.44-1.74 2.72.59 2.72 1.42 0 1.78-.11 3.52-1 3.47-1.78 9.48-5.46 10.05-6.17.18-.23.71-.64 1.14-.94 1.19-.8 2.67-2.24 3.72-3.65.5-.68 1.1-1.42 1.28-1.6.62-.59 1.16-1.83 1.16-2.6s-.73-1.6-1.92-2.15c-.89-.41-3.72-.32-4.82.14Z" class="cls-13"/><path d="M284.06 249.88c.8.18 1 .37 1.19.96.32 1.1.48 1.85.73 3.74.34 2.63.43 3.4.64 5.59.11 1.12.3 2.12.41 2.24.03.03 2.56-.14 2.72-.37.32-.43 4.16-1.78 4.48-1.58.14.09.3.02.39-.11.18-.3 9.27-.43 11.33-.18 2.26.27 2.6.3 2.49.11-.11-.18 2.4-.21 2.74-.02.5.3 3.47.23 4.11-.09.37-.18.91-.3 1.23-.23.34.07 1.26.02 2.06-.11 1.12-.18 1.51-.16 1.64.05.11.21.21.21.32.02.23-.34 3.54-.09 4.18.34.27.18.64.32.8.32.53 0 1.05.82.94 1.46-.18.91-1.07 1.62-2.74 2.19-1.48.5-2.44.66-6.46 1.14-1.96.23-3.81.55-5.25.91-.43.11-2.53.48-4.68.8-6.21.94-7.88 1.28-8.72 1.85-.27.18-.69.32-.87.32-.37 0-2.88 1.03-4.43 1.78-.71.37-1.74 1.23-4.34 3.7-1.42 1.35-2.85 3.68-3.22 5.23-.3 1.26-.41 13.93-.14 14.39.21.3-.27 4.36-.71 6.19-.37 1.6-1.3 3.74-2.21 5.09-.34.48-.59.91-.59.98 0 .18-1.64 2.49-2.01 2.83-.66.59-1.69 2.05-1.85 2.63-.21.8-4.93 5.87-7.58 8.15-.69.57-2.1 1.76-3.17 2.6-1.07.87-2.44 2.03-3.08 2.63-.62.59-1.42 1.3-1.74 1.6-1.05.96-4.32 4.7-4.32 4.93 0 .14-.16.37-.34.52-.91.75-3.47 6.39-4.77 10.5-1.35 4.25-1.76 7.33-1.85 14.36-.02 3.33.02 6.74.11 7.56.18 1.35.25 2.53.57 8.33.07 1 .16 2.28.23 2.85.14 1.12.41 8.79.43 11.87.02 3.11-.09 4.38-.48 5.37-.18.5-.43 1.12-.52 1.37-.66 1.8-1.28 2.81-3.2 5.18-.39.46-.69.94-.69 1.07s-.09.25-.21.25-.46.48-.73 1.05c-.3.57-.71 1.14-.94 1.26-.23.11-.41.37-.41.55 0 .53-.39.41-1.32-.34-.87-.69-1.21-.78-2.56-.71-.89.05-1.62.62-3.08 2.4-2.37 2.9-4.13 5.41-4.95 7.1-.5 1-1.28 2.24-1.71 2.74-.43.5-1.1 1.26-1.46 1.67-1.07 1.21-4.32 4.04-5.69 4.95-1.53 1.03-4.11 2.63-4.27 2.63-.05 0-.55.3-1.1.68-.55.37-1.07.69-1.19.69-.23 0-4.09 2.65-5.78 3.95-4.43 3.45-7.9 8.13-10.64 14.38-.94 2.1-1.69 3.9-1.69 3.97s-.14.43-.32.82c-.91 2.03-1.64 5.11-2.28 9.52-.48 3.38-1.32 5.27-3.13 7.1-.73.73-1.42 1.35-1.51 1.35s-.43-.25-.71-.57c-.5-.52-.66-.91-.71-1.71-.02-.3-.05-.3-.27 0-.18.27-.21.23-.09-.16.16-.59-.09-1.71-.34-1.55-.11.07-.16-.16-.11-.5.05-.37 0-.73-.07-.87-.18-.3-.07-4.11.21-6.85.5-5.16.73-6.71 1.28-8.79.91-3.45 2.83-8.22 3.29-8.22.09 0 .43-.59.78-1.3.32-.73.73-1.46.89-1.67.18-.18 1.1-1.87 2.06-3.74.94-1.87 1.87-3.56 2.03-3.77.16-.21.48-.75.73-1.21.23-.46.78-1.28 1.19-1.83s1.1-1.51 1.51-2.12c.43-.64 1.64-2.12 2.69-3.31 1.05-1.21 2.37-2.74 2.92-3.43.91-1.12 1.69-2.01 3.06-3.45.21-.25.39-.5.39-.57s.37-.5.82-.96c.46-.46 1.07-1.14 1.37-1.53.71-.94 2.88-5.85 2.72-6.21-.16-.43-.55-.37-1.3.27-.37.32-.84.57-1.07.57-.21 0-.48.09-.59.18-.21.18-1.62.71-3.79 1.39-.43.14-1.12.25-1.48.25s-1.03.09-1.46.21c-1.26.34-6.44.68-12.33.84-2.95.09-5.55.14-5.75.14-1.69-.07-4.09-.05-4.75.09-.43.07-2.4.32-4.34.55-1.94.25-4.52.64-5.71.89-1.19.25-2.42.5-2.74.57-2.56.48-5.18 1.21-7.99 2.21-1.83.64-3.97 1.42-4.79 1.71-.82.27-2.35.84-3.43 1.23-1.07.39-2.19.78-2.51.84-.5.11-2.01.89-4.27 2.15-1.48.84-3.43 2.17-5.07 3.49-3.01 2.42-4.57 3.38-5.89 3.63-.91.18-.96-.02-.3-2.53.5-1.96 1.35-3.84 2.97-6.55.59-1 1.37-2.35 1.71-2.97.62-1.1 5.16-5.82 5.62-5.82.21 0 1.51-.82 1.8-1.14.07-.07.78-.48 1.6-.89.82-.43 1.53-.87 1.55-.98.05-.09.23-.18.41-.18s.55-.23.8-.48c.8-.8 5.18-2.85 7.74-3.63 1.32-.39 2.72-.8 3.08-.91.39-.11 2.28-.32 4.25-.46 1.94-.14 4-.3 4.57-.37.55-.07 2.81-.21 5-.34 2.19-.11 4.41-.25 4.91-.32 2.58-.27 6.71-1.07 7.19-1.37.16-.09.75-.3 1.32-.46.59-.18 1.8-.57 2.67-.89.89-.32 2.17-.73 2.85-.91.68-.18 2.24-.59 3.43-.94 1.19-.32 3.11-.87 4.22-1.26 1.14-.37 2.99-.94 4.11-1.28 2.88-.84 5.73-2.15 7.12-3.2.39-.3.87-.55 1.05-.55.8 0 .89-.25 2.56-7.12.57-2.37 1.23-4.89 1.48-5.64.43-1.39.84-4.91 1.03-8.7.23-5.41.07-20.05-.23-20.55-.09-.14-.09-.43 0-.64s.21-1 .23-1.76c.05-.75.21-1.9.41-2.51 1.69-5.73 2.69-9.06 2.99-9.89.39-1.05 2.51-5.66 2.88-6.21.11-.18.39-.66.59-1.03.21-.39.8-1.26 1.35-1.94.53-.68 1.12-1.58 1.35-1.99.21-.39.55-.87.78-1.03.23-.16.62-.66.87-1.07.23-.43.71-1.1 1.07-1.48.34-.37.94-1.14 1.3-1.71.37-.57.91-1.3 1.21-1.62.3-.32.66-.89.84-1.26.16-.39.34-.57.39-.41.07.18.23.16.5-.11.23-.21.82-.78 1.35-1.26.52-.48.96-.96.96-1.07 0-.14.14-.23.3-.23s.62-.27 1-.64c.39-.34 1.12-.96 1.6-1.35.5-.41.98-.82 1.1-.91.09-.11.09-.02 0 .16-.16.3.64-.25 1.03-.71.07-.07.3-.18.53-.27.21-.07.39-.27.39-.43s.32-.43.71-.62c.39-.16.78-.55.89-.82.11-.3.41-.59.66-.69.23-.07.62-.41.84-.75.23-.34.71-.87 1.1-1.19 1.39-1.19 3.7-3.65 4.36-4.7 1-1.58 2.01-2.95 2.31-3.13.23-.14.25-.3.11-.59-.18-.3-.05-.71.53-1.64.41-.68.91-1.69 1.1-2.26.21-.57.64-1.74.98-2.63 1-2.69 1.46-5.57 1.6-9.93.16-6.23.55-10.14 1.03-10.85.07-.14.34-.84.59-1.6.23-.75.59-1.53.78-1.74.18-.21.55-.64.8-.98.25-.32 1.03-1.03 1.71-1.55.68-.55 1.39-1.12 1.6-1.28.64-.57 5.11-3.29 6.32-3.86.66-.32 1.3-.71 1.46-.89.14-.18.5-.32.8-.32.27 0 .59-.11.66-.23.09-.14.32-.18.53-.14.23.07.55.02.73-.09.37-.23 1.64-.11 3.13.27Z" class="cls-10"/><path d="M280.02 248.56c-.43.14-1.23.48-1.76.78-.55.27-1.05.48-1.14.46-.11-.02-.68.27-1.3.69-.64.41-1.26.73-1.39.73s-.59.3-1 .66c-.41.39-1.26.87-1.87 1.07-.62.23-1.16.59-1.23.82-.09.21-.66.71-1.32 1.07-1.19.69-3.04 2.31-3.47 3.04-1.42 2.37-1.76 3.11-1.87 3.81a7.53 7.53 0 0 1-.32 1.39c-.11.32-.3 2.21-.43 4.22-.14 2.01-.34 4.57-.48 5.71-.14 1.12-.25 2.51-.25 3.08s-.14 1.74-.34 2.63c-.18.87-.39 1.96-.46 2.4-.18 1.39-1.19 4.16-2.24 6.23-.57 1.1-1.07 2.26-1.12 2.56-.07.32-.27.73-.46.94-.21.18-.37.43-.37.52s-.43.69-.96 1.3c-.55.64-1.44 1.69-2.01 2.37-.91 1.07-2.17 2.24-6.39 5.94-1.78 1.58-4.59 3.65-4.91 3.65-.16 0-.5.3-.8.69-.3.37-.62.68-.71.68-.21 0-3.49 3.36-4.82 4.91-.43.5-1.12 1.51-1.55 2.24-.43.73-.96 1.51-1.16 1.74-.21.23-.55.73-.75 1.12-.21.41-.66 1.05-1 1.46-.96 1.12-3.15 4.73-4.27 6.99-1.39 2.79-2.24 5.02-2.97 7.81-.34 1.32-.75 2.76-.91 3.2-.16.43-.37 1-.48 1.26-.23.62-.23.68-.68 2.4-.41 1.6-.46 5.18-.18 10.62.09 1.62.16 5.69.18 9.02.02 6.35-.43 12.28-1.12 14.84-.48 1.71-1.39 5.23-1.55 5.94-.34 1.64-1.62 4.68-2.17 5.16-1.04.94-7.88 3.73-10.02 4.2-.73.16-1.58.43-1.9.57-.32.16-1.35.46-2.28.69-2.01.46-3.06.75-4 1.16-.4.16-3.4 1.01-4.27 1.23-.55.14-1.19.34-1.44.46-1.78.78-7.01 1.8-9.82 1.92-.64.02-1.28.11-1.42.21s-2.28.21-4.73.25c-2.47.07-4.59.18-4.73.27-.16.09-1.67.25-3.38.34-2.76.18-3.42.3-6.42 1.26-1.83.59-3.81 1.3-4.45 1.58-.62.27-1.37.59-1.62.71-.27.11-.8.43-1.14.71-1.35 1.07-3.01 2.1-4.16 2.58-.64.27-1.28.64-1.44.82-.14.16-1.12.89-2.17 1.58-2.63 1.76-5.02 4.45-7.08 7.92-2.17 3.68-3.24 5.91-3.65 7.6-.16.75-.41 1.8-.55 2.35-.5 2.15-.11 3.33.91 2.79.27-.14.69-.3.91-.34 1.37-.25 4.66-2.4 6.05-3.93.25-.27 1.1-.91 1.9-1.44.8-.5 1.67-1.12 1.92-1.37.27-.25.57-.46.66-.46s.32-.14.48-.3c.16-.14 1.16-.71 2.24-1.23 2.28-1.12 3.4-1.55 6.74-2.58 1.6-.5 4.16-1.48 6.01-2.31.52-.23 1.12-.43 1.3-.43s.94-.21 1.64-.46c2.28-.78 10.21-2.42 13.31-2.74 1.28-.11 2.42-.3 2.53-.37.11-.07 2.35-.16 4.95-.23 11.58-.25 13.68-.3 14.43-.41.43-.05 1.94-.23 3.31-.37 4.43-.48 7.65-1.3 9.77-2.53.25-.14.46-.21.5-.16.3.3-2.24 4.36-3.52 5.62-.46.46-3.29 3.68-4.86 5.55-.59.68-1.32 1.51-1.64 1.83-.58.54-.57.91-1.1 1.44-.8.75-1.74 1.94-2.67 3.33-.46.69-.87 1.3-.96 1.37-.16.16-3.01 5.23-5.11 9.13-.98 1.83-2.12 3.88-2.53 4.57-1.37 2.26-3.86 9.18-4.2 11.71-1.03 7.67-1.14 11.62-.46 15.07.53 2.56 1.28 4.7 1.69 4.75 1.58.14 1.78.05 3.36-1.53.87-.87 1.58-1.64 1.58-1.76s.21-.48.43-.82c.84-1.16 1.46-3.24 1.85-6.07.48-3.45.8-5.05 1.51-7.17.3-.91.55-1.78.55-1.92 0-.21 1.1-2.74 2.26-5.3 1.16-2.49 2.42-4.86 2.9-5.43.3-.37.55-.73.55-.84 0-.27 2.12-2.83 3.65-4.36.68-.69 2.4-2.1 3.77-3.13 1.39-1.03 2.63-1.96 2.74-2.06.39-.32 3.01-1.87 3.15-1.87.07 0 1.07-.55 2.26-1.21 5.62-3.17 10.41-7.92 12.83-12.65.62-1.21 2.81-4.2 4.25-5.75.5-.57.91-1.07.91-1.14 0-.09.34-.34.78-.57.94-.5 1.46-.41 3.54.59l1.48.71.64-.78c.37-.43.8-1.1.98-1.46.16-.39.66-1.07 1.12-1.55.46-.48.82-.91.82-.98 0-.16.91-1.44 1.67-2.33.49-.59.61-1.39 1.07-1.69.25-.16.46-.46.46-.68 0-.21.11-.46.23-.53.14-.07.23-.39.23-.68s.09-.59.21-.66c.16-.11.39-1.23.62-3.22.05-.39.14-1.03.23-1.46.14-.89-.21-8.79-.75-16.23-.18-2.83-.43-6.42-.55-7.99-.21-3.01-.25-8.79-.11-9.93.07-.39.11-1.55.14-2.63.09-4.52 1.05-9.43 2.6-13.13.16-.39.43-1.05.59-1.48.3-.8 2.72-5.25 2.97-5.48.07-.07.46-.55.84-1.1.82-1.14 3.54-4.02 5.21-5.53 1.16-1.03 1.62-1.42 4.57-3.77 1.39-1.12 2.92-2.51 3.65-3.31.25-.3 2.28-2.35 3.56-3.63.48-.46 1.39-1.48 2.06-2.31s1.53-1.83 1.96-2.26c.41-.43.75-.94.75-1.14s.41-.94.89-1.62c.5-.69 1.28-1.99 1.76-2.85.46-.89.89-1.71.98-1.83.39-.53.91-2.42 1.19-4.22.21-1.35.27-4.41.23-9.82-.05-8.59.05-9.64 1.21-11.67.32-.57 1.21-1.67 1.94-2.4 1.14-1.1 1.38-1.3 2.44-2.26 1.83-1.67 4.43-2.9 8.31-3.97 2.81-.78 3.31-.87 5.14-1.05.75-.09 1.94-.23 2.63-.34.69-.14 1.74-.27 2.31-.34 2.37-.27 2.92-.37 4.77-.69 1.07-.18 2.4-.46 2.97-.59s1.28-.3 1.6-.34c.32-.05.94-.16 1.37-.23.43-.07.91-.23 1.07-.37.14-.11.73-.25 1.28-.3 1.12-.09 3.17-1.14 4.02-2.03.78-.82.71-1.83-.23-2.79-.43-.46-1.23-1.12-1.8-1.51-.94-.64-1.14-.69-3.31-.73-1.26 0-3.31.11-4.57.3-3.2.43-12.12.53-14.5.11-1.69-.3-8.11-.07-9.59.37-.43.14-1.12.23-1.51.23-.89 0-3.43.96-3.77 1.44-.16.23-.62-2.28-.8-4.32-.07-.87-.23-1.99-.37-2.49-.11-.5-.25-1.21-.3-1.6-.09-1.21-.84-3.65-1.21-3.93-.21-.18-.46-.21-.59-.09s-.82.11-1.51 0c-1.92-.26-2.27.11-3.65.11Z" class="cls-11"/><path d="M341.76 251.18c.25.39-.57 1.6-1.94 2.85-.75.71-1.44 1.26-1.53 1.23-.09-.02-.46.09-.84.25-1.51.66-2.1.87-3.77 1.3-1.28.34-4.57.69-4.57.5 0-.16 3.31-2.69 3.52-2.69.09 0 .27-.11.43-.23.78-.69 3.17-2.03 4.38-2.49.75-.3 1.58-.62 1.83-.71.62-.27 2.33-.27 2.49-.02Z" class="cls-13"/><path d="M339.3 249.88c-.65.1-1.74.64-1.99.64-.43 0-4.41 2.1-4.77 2.53-.07.07-.57.41-1.14.75s-1.48.98-2.06 1.42c-.57.43-1.35.98-1.76 1.26-.96.62-1.07 1-.43 1.71.46.55.66.62 1.87.57 1.55-.05 2.97-.16 3.63-.32 1.42-.34 2.56-.66 2.97-.84.25-.11.87-.32 1.37-.46 1.64-.5 4.18-2.03 4.98-3.04 1.26-1.58 2.21-3.13 2.21-3.58 0-.27-.21-.48-.5-.55-1-.21-3.27-.27-4.38-.09m-132.25 2.42c.18.32-.55 5.18-1.03 6.67-.91 2.79-3.58 7.69-5.27 9.68-1.21 1.42-3.43 3.52-4.75 4.52-1.6 1.21-3.74 2.67-3.84 2.58-.14-.14.46-5.98.78-7.54.18-.89.53-2.05.75-2.63.25-.57.71-1.76 1.05-2.63 1-2.67 1.51-3.31 4.95-6.26 2.47-2.12 2.83-2.37 5-3.54 2.03-1.1 2.17-1.14 2.35-.87Z" class="cls-13"/><path d="M206.84 250.5c-.11.22-3.19 1.85-3.42 1.85-.64.02-4 2.72-6.69 5.41-1.03 1.03-1.69 1.96-2.33 3.31-.5 1.03-.91 2.03-.91 2.24s-.07.43-.14.53c-.21.21-1.37 3.77-1.64 5.07-.14.62-.41 2.37-.62 3.88-.21 1.51-.46 3.06-.57 3.47-.14.55-.11.75.14.84.41.16 2.6-.89 4.06-1.94.62-.43 1.35-.94 1.64-1.14.3-.21 1.16-.94 1.94-1.64.75-.73 1.46-1.3 1.53-1.3.18 0 1.48-1.58 2.92-3.54 1.35-1.85 3.54-6.32 4.45-9.13.68-2.08.75-2.56.75-5.14.02-2.76 0-2.85-.48-2.92-.37-.07-.64.16-.64.16Z" class="cls-13"/><path d="M363.93 253.19c1 .18 2.03.5 2.28.66.25.18.66.32.91.32s.68.14.94.32c.25.18 1.6.8 2.97 1.35 3.88 1.58 7.08 3.77 9.66 6.64 2.12 2.35 2.53 2.85 3.43 4.13.43.62.94 1.28 1.1 1.46.57.55 2.03 2.85 2.35 3.68.16.43.39.89.5 1 .09.14.18.48.18.78 0 .5-.07.55-.73.39-4.38-.94-11.01-3.84-14.13-6.19-2.95-2.21-6.28-4.95-7.26-6.01-2.24-2.37-5.96-7.33-5.96-7.92 0-.16-.16-.32-.34-.41a.59.59 0 0 1-.34-.5c0-.32.18-.34 1.32-.23.71.09 2.12.32 3.13.52Z" class="cls-12"/><path d="M356.74 252.03c-.3.78-.3.75.27 1.23 2.74 2.09 2.04 2.33 3.81 4.11.3.27 2.01 2.26 2.53 2.97.75 1.03 4.04 4.32 5 5.02.41.32 1.35 1.07 2.06 1.67 3.52 3.04 9.57 6.21 14.29 7.51.89.23 2.19.64 2.92.89 1.58.57 1.87.41 1.8-.89-.07-1.1-.96-3.63-1.58-4.52-.25-.37-.64-.98-.82-1.39-.21-.39-.53-.84-.71-1.03-.16-.18-.53-.75-.8-1.26-.25-.53-.55-.98-.64-1.03-.11-.02-.8-.8-1.55-1.67-2.44-2.9-4.98-5.23-6.74-6.26-.94-.55-1.96-1.16-2.28-1.37-2.24-1.42-9.2-3.93-11.76-4.25-.62-.07-2.15-.18-3.38-.23-2.21-.09-2.24-.09-2.44.48Zm-8.56 5.2c.78.37 1.46 1.21 1.6 1.99.09.43 1.26 2.01 1.26 1.69 0-.43 3.2 5.82 3.72 7.31.18.5.84 2.15 1.46 3.65 1.07 2.58 1.35 3.58 1.9 6.83.3 1.8.3 5.23 0 5.05-.14-.07-.23.09-.23.41 0 .3-.07.59-.14.69-.14.11-2.6-2.88-2.6-3.15 0-.07-.55-.78-1.21-1.58-1.53-1.9-3.52-5.23-4.57-7.67-2.44-5.85-2.92-8.17-2.74-13.43.14-3.24.16-3.45.46-2.81.18.37.68.84 1.1 1.03Z" class="cls-12"/><path d="M344.98 253.19c.34.89.59 3.95.48 6.35-.14 3.36.21 6.64.91 9 .89 2.88 3.04 7.85 4.09 9.5.59.94 2.9 4.09 3.08 4.22.32.25 2.69 3.36 3.11 4.04.43.8.89.94 1.46.46.62-.53.91-1.3 1.14-2.97.18-1.62.14-6.14-.09-6.51-.07-.11-.23-.91-.37-1.78-.14-.87-.48-2.03-.73-2.6-.27-.57-.5-1.14-.53-1.26-.05-.14-.53-1.26-1.12-2.49-.57-1.23-1.05-2.35-1.05-2.47 0-.5-2.42-5.02-3.33-6.28-1.44-1.94-1.85-2.53-2.88-4.18-.53-.82-1.07-1.58-1.26-1.67-.18-.11-.64-.55-1.03-.98-.5-.55-.91-.78-1.39-.78-.55 0-.64.07-.5.39Zm-192.12 20.78c-.18.34-.23.34-.25.05 0-.39.23-.73.41-.57.05.07-.02.3-.16.53Zm1.21-2.33c-.09.18-.18.34-.23.34s-.09-.16-.09-.34.09-.34.23-.34c.11 0 .16.16.09.34m16.65-13.79c.27 2.1-1.9 7.44-4.41 10.91-.64.89-1.28 1.58-1.39 1.48-.11-.07-.21 0-.21.14 0 .37-1.62 2.06-1.85 1.92-.11-.07-.21.02-.21.18 0 .27-.59.73-3.52 2.79-.53.37-.98.73-1.05.8-.21.27-2.31 1.62-2.53 1.62-.11 0-.21.09-.21.21 0 .32-3.74 2.1-3.86 1.83-.02-.14.05-.5.16-.84 1.3-3.38 2.03-5.09 2.72-6.39.43-.84 1-1.94 1.28-2.44 2.4-4.57 5.18-8.08 8.38-10.57 1.92-1.46 4.27-2.49 5.96-2.53.55-.02.62.09.73.91Z" class="cls-12"/><path d="M171.31 255.41c-.11.11-1.16.34-3.29.73-1.14.21-3.74 1.64-4.5 2.49-.37.43-.8.8-.96.8-.25 0-3.11 2.67-3.9 3.68-2.19 2.74-6.6 10.46-7.06 12.35-.1.55-1.8 4.63-1.83 4.66-.69.68.3 1.51 1.21 1.03.25-.14.66-.25.91-.25s1.05-.32 1.78-.73c1.37-.75 6.03-3.77 6.23-4.04.07-.09.82-.66 1.69-1.26 4.11-2.92 8.45-8.7 9.64-12.92.21-.68.53-1.78.71-2.4.62-1.96.62-2.88.02-3.61-.3-.37-.59-.59-.66-.52Z" class="cls-12"/><path d="M99.13 258.9c.16.07.37.05.43-.02.09-.07-.05-.14-.3-.11-.25 0-.32.07-.14.14Z" class="cls-14"/><path d="M330.69 266.98c.14-.21.52-.09 1.53.46 5.27 2.9 9.64 5.94 10.53 7.38.32.5.78 1.53 1.03 2.28.25.78.52 1.55.62 1.74.09.18.37 1.05.59 1.94.23.87.53 1.76.66 1.94.39.53 1 1.69 1.28 2.37.21.57.21.59-.3.34-.27-.14-.96-.59-1.53-1s-1.74-1.12-2.63-1.6c-.87-.48-1.69-.94-1.83-1.03-.11-.11-.73-.46-1.37-.8-6.23-3.38-9.18-7.31-9.57-12.79l-.16-2.06.48.55c.37.41.53.5.66.27Z" class="cls-13"/><path d="M328.2 264.56c-.47.55.33 1.88.14 3.06-.09.66.02 1.46.41 2.81.91 3.08 1.21 3.77 2.35 5.39 2.37 3.33 4.57 5.07 9.93 7.9 2.65 1.39 6.64 4.09 7.1 4.77.21.3.57.62.82.68.37.09.48-.02.59-.57.18-.73.09-.98-1.28-3.38-.46-.82-1.03-2.01-1.26-2.63-.21-.64-.48-1.26-.57-1.37-.23-.32-1.05-2.72-1.46-4.34-.43-1.6-1.16-2.9-2.21-3.93-.96-.96-3.01-2.58-4.32-3.4-.55-.37-1.05-.71-1.12-.78-.07-.09-.57-.37-1.14-.64-1.71-.84-3.47-1.92-4.27-2.65-.27-.23-2.07-.82-2.42-.82-.27 0-.64-.11-.75-.23-.22-.22-.39-.08-.55.11Zm-10.02 8.61c.37.14 2.79 3.27 4.29 5.55 2.44 3.65 4.09 7.79 5.07 12.56.09.5.32 1.58.5 2.4.32 1.58.34 3.4.05 4.32l-.18.57-.37-.73c-.21-.41-.89-1.32-1.53-2.03-1.19-1.39-4.43-5.87-4.43-6.14 0-.09-.23-.48-.53-.87-.3-.39-.75-1.16-1-1.74-.25-.57-.78-1.69-1.16-2.51-.37-.82-.8-2.06-.94-2.74-.59-2.63-.8-9.73-.27-8.95.07.09.3.25.5.32Z" class="cls-13"/><path d="M316.23 272.49c.07.25.11 1.05.09 1.76-.11 2.72.25 6.46.82 8.93.75 3.24 5.3 11.01 8.33 14.32.5.55 1.12 1.44 1.39 2.01.62 1.26 1.12 1.32 1.8.21.71-1.16.8-4.36.18-7.35-1.23-6.03-3.42-11.51-6.07-15.28-2.19-3.08-4.45-5.98-4.77-6.1-.05-.02-2.03.77-1.78 1.51Z" class="cls-13"/><path d="M311.19 431.09c-.07.07-.25 0-.41-.16-.21-.23-.18-.25.14-.11.23.07.34.21.27.27m-15.76-31.51c-.07.07-.25 0-.41-.16-.21-.23-.18-.25.14-.11.23.07.34.21.27.27m-9.08-72.07c-.07.16-.11.05-.11-.27s.05-.43.11-.3c.05.16.05.43 0 .57m-.23-1.82c-.07.18-.14.11-.14-.14-.02-.25.05-.39.11-.3.07.07.09.27.02.43Z" class="cls-8"/><path d="M282.92 314.75c1.07 1.55 1.6 4.18 2.12 10.43.16 1.74.57 4.16 1.05 6.14.43 1.8.84 3.63.91 4.09.05.43.14.84.18.94.41.66 1.23 11.35 1.14 14.86-.05 1.19-.09 6.44-.11 11.64-.07 9.38.07 13.15.5 13.56.11.14.21.43.21.71 0 .82 1.96 6.35 2.74 7.65.39.68 1.14 1.71 1.67 2.24 1.07 1.12 3.56 2.83 3.84 2.65.11-.07.75.21 1.44.57 1.21.69 5.48 2.17 14.52 5.05 2.44.78 4.66 1.48 4.91 1.6.43.18 7.24 2.33 8.68 2.74.39.11 1.42.41 2.28.66 1.62.46 3.54.89 4.8 1.07 2.17.32 4.82.84 5.59 1.12.48.16 1.37.37 1.99.46.59.09 1.55.27 2.12.46.57.16 1.76.5 2.63.78 3.33.98 4.18 1.26 6.74 2.35 1.44.62 3.17 1.48 3.84 1.94 1.07.71 4.66 4.02 8.27 7.6.69.71 1.64 1.58 2.12 1.92.48.37.82.71.75.75-.05.05-.69-.21-1.42-.57-.75-.37-1.78-.75-2.33-.84-.53-.09-1.1-.27-1.26-.41-.73-.68-4.27-1.89-4.59-1.58-.07.07-.14.02-.14-.11s-.39-.3-.84-.39c-1.03-.16-2.26-.41-4.86-1-1.07-.25-2.88-.53-4-.62-1.14-.09-2.24-.25-2.44-.37-.23-.11-.89-.27-1.48-.32-.59-.07-1.42-.18-1.83-.23-.39-.07-.78-.02-.87.11-.09.16-.25.11-.46-.09-.34-.34-1.69-.62-3.54-.71-.68-.05-2.21-.14-3.36-.21-1.6-.09-2.12-.07-2.12.16 0 .21-.05.21-.18.02-.16-.27-3.54-.59-5.64-.55-.62 0-1.64-.14-2.26-.32s-1.21-.3-1.3-.23c-.09.05-.62-.05-1.16-.23-1.3-.41-3.31-.62-3.47-.34-.05.11-.07.09-.05-.07.02-.16-.68-.53-1.78-.91-3.45-1.14-4.36-1.53-4.29-1.78.02-.14-.05-.21-.16-.11-.14.07-.59-.02-1.03-.21-.43-.18-.84-.27-.91-.18-.07.07-.14 0-.14-.16s-.09-.21-.23-.14c-.11.07-.23.05-.23-.07 0-.21-2.51-1.53-3.33-1.76-.25-.07-.71-.34-1.03-.64-.3-.27-.64-.5-.78-.53-.55-.02-1.94-.59-1.94-.8 0-.14.11-.16.27-.07.14.09.18.07.09-.09-.25-.41-2.65-1.44-2.95-1.28-.14.09-.21.09-.11-.02.21-.23-.91-.84-1.21-.66-.11.07-.21-.02-.21-.21 0-.34-3.11-1.62-3.42-1.42-.11.07-.23.05-.27-.05-.02-.11-.91-.52-1.96-.96-1.53-.62-1.94-.71-2.21-.48-.5.41-.41 1 .25 1.62.34.3 1.26 1.53 2.03 2.72 2.06 3.13 5.09 6.14 13.93 13.84 2.03 1.76 4.43 3.52 4.79 3.52.46 0 4.06 2.51 6.07 4.22.43.37 1.42 1.19 2.15 1.83 2.31 1.94 6.35 5.62 7.19 6.53 1.58 1.69 3.31 3.7 3.65 4.2 1.48 2.22 2.05 3.11 2.05 3.27 0 .09.39.69.87 1.32 2.81 3.84 3.65 5.02 5.16 7.4 2.05 3.27 3.43 5.69 3.27 5.85-.07.07-.34-.23-.64-.64-.66-.91-3.86-4.09-4.98-4.93-1.05-.8-2.88-2.47-3.77-3.45-.78-.84-4.57-3.97-5.87-4.84-.46-.3-1.46-.98-2.21-1.51-.78-.55-1.48-.98-1.58-.98-.16 0-1.03-.66-2.15-1.64-.18-.18-.46-.3-.57-.25-.11.05-.5-.21-.89-.55-.37-.34-.78-.64-.91-.64-.41 0-1.74-.82-1.62-1 .07-.09-.11-.16-.39-.16-.27.02-.48-.09-.46-.23.02-.16-.14-.23-.39-.16s-.46.02-.46-.09-.23-.23-.5-.23c-.3-.02-.64-.21-.78-.39-.14-.21-.46-.32-.73-.25-.25.05-.64-.07-.89-.25-.39-.32-.37-.32.11-.09.27.14.5.16.5.02 0-.25-1-.64-2.74-1.05-1.05-.25-1.32-.25-1.87.02-.34.18-.64.46-.64.59s-.16.43-.34.64c-.23.25-.55 1.78-.89 4.25-.3 2.12-.75 4.48-1 5.23-.23.75-.57 2.12-.71 3.01-.18 1.05-.41 1.67-.59 1.67-.37 0-1.74-1.51-5.3-5.82-.55-.66-.98-1.3-.98-1.46 0-.14-.09-.25-.21-.25-.37 0-.71-1.39-.71-2.76 0-.8-.23-2.03-.55-2.99-.3-.91-.87-2.69-1.28-3.95-.39-1.26-.82-2.4-.91-2.51-.09-.14-.25-.57-.34-.98-.07-.39-.23-.73-.32-.73-.37 0-1.39-3.13-1.39-4.25 0-.05-.18-.09-.43-.09-.3 0-.62-.39-1.03-1.23-.41-.82-1.46-2.1-3.17-3.84a436.68 436.68 0 0 1-3.4-3.49c-.46-.5-1.53-1.55-2.4-2.33a206.9 206.9 0 0 0-2.69-2.44c-.62-.57-1.23-1.05-1.32-1.05s-.96-.78-1.94-1.74c-3.65-3.58-4.52-4.09-4.86-2.79-.18.71-2.08 3.65-4.5 7.03-2.44 3.38-2.31 3.22-7.99 9.02-5.05 5.16-6.69 6.74-10.57 10.14-1.05.94-2.37 2.19-2.95 2.76-.57.59-1.69 1.62-2.51 2.33-.82.68-1.9 1.67-2.4 2.15-.5.5-1.32 1.21-1.83 1.58-.5.37-.96.73-1.03.8-.07.07-.62.55-1.23 1.03-.64.5-1.51 1.26-1.94 1.64-.46.41-.89.75-.96.75s-.5.27-.96.62c-.43.37-1.1.84-1.44 1.1-.34.25-1.32 1.03-2.17 1.71-.82.69-2.85 2.24-4.45 3.43-3.63 2.67-7.1 6.14-8.52 8.45-.25.43-.48.69-.48.57.02-.3.75-2.44.98-2.76.07-.14.3-.82.48-1.51.18-.69.52-1.64.8-2.12.27-.5.48-1.07.48-1.26 0-.21.09-.46.21-.57.09-.14.39-.8.62-1.48.23-.69.53-1.32.62-1.39.11-.07.18-.18.18-.23-.05-.34.3-1.12.5-1.12.14 0 .18-.07.09-.14-.16-.16.96-2.31 1.62-3.13.16-.18.21-.53.14-.75-.09-.25-.09-.37.02-.27.18.18.73-.46 1.23-1.44.16-.34.52-.84.82-1.16.27-.32.78-1.03 1.07-1.6.32-.59.66-.98.84-.91.18.07.27-.05.21-.32-.07-.41.37-1.03 1.53-2.24.25-.27.8-.98 1.23-1.62.41-.62 1-1.42 1.3-1.74.32-.32.48-.66.39-.78-.11-.09-.05-.11.11-.02.14.09.27.09.27-.02 0-.09.43-.64.94-1.21 2.26-2.44 3.27-3.43 3.56-3.43.39 0 2.35-2.03 2.35-2.44 0-.14.3-.57.68-.94.37-.37.59-.73.53-.82-.09-.07 0-.14.18-.14s.62-.37.96-.8c.37-.46.73-.75.87-.69.11.09.21-.02.21-.21s.73-.98 1.62-1.78c.87-.8 2.49-2.42 3.56-3.61 1.07-1.19 2.33-2.58 2.79-3.08 1.46-1.62 4.18-5.57 4.48-6.53.09-.25.25-.37.39-.3.14.09.18.07.11-.07-.07-.11.23-.94.69-1.8 1.6-3.08 2.58-5.14 2.58-5.41 0-.16.09-.39.18-.5.27-.3.84-2.01 1.21-3.52.18-.66.48-1.32.71-1.46.34-.23.37-.53.27-2.33-.07-1.12-.16-2.58-.21-3.2-.18-1.96-.59-6.55-.71-7.88-.14-1.76-.27-3.08-.34-3.15-.11-.14-.46-2.44-.57-3.7-.05-.57-.18-1.92-.27-3.04-.18-1.76-.18-9.84-.02-12.1.05-.46.16-.84.27-.84.14 0 .16-.48.07-1.14-.09-.64-.07-1.14.05-1.14.09 0 .14-.37.09-.8-.05-.43-.02-.98.09-1.19.09-.23.18-.84.21-1.37.05-.53.27-1.39.55-1.94.25-.57.48-1.19.48-1.39 0-.5 1.48-3.72 1.8-3.9.14-.09.25-.34.25-.57 0-.57 1.76-4.13 2.06-4.13.14 0 .21-.09.11-.21-.11-.23.66-1.71 1.19-2.26.16-.16.3-.41.3-.55 0-.37 3.4-3.65 4.8-4.64.66-.46 1.48-1.12 1.83-1.44.34-.34 1.03-.98 1.51-1.44.5-.43 1.51-1.46 2.26-2.28.75-.8 1.71-1.76 2.15-2.1.41-.34 1-.98 1.28-1.39.5-.73 1.39-1.83 2.17-2.6.18-.21.34-.43.34-.52 0-.21 1.07-1.55 1.26-1.58.07 0 .34.34.62.75Z" class="cls-8"/><path d="M281.19 313.36c-.66.89-4.61 5.23-5.23 5.75-.41.34-2.08 2.01-2.79 2.81-.34.34-1.39 1.35-2.4 2.24-.98.87-2.67 2.44-3.74 3.47-1.05 1.05-2.01 1.9-2.1 1.9-.37 0-2.44 3.54-3.88 6.62-.37.82-.98 2.1-1.35 2.85-.34.75-.87 1.94-1.14 2.63-.27.68-.59 1.46-.69 1.71-.62 1.46-1.19 3.58-1.28 4.57-.18 2.47-.39 3.88-.57 4-.37.25-.25 13.49.14 15.44.39 1.83 1.05 7.15 1.26 10.02.14 1.87.3 3.65.34 3.93.48 2.21-.14 7.72-1.28 11.14-.71 2.12-4.98 10.48-5.66 11.07-.09.07-.43.55-.78 1.1-.84 1.32-.75 1.19-4.73 5.71-.68.8-2.05 2.21-3.04 3.2-5.85 5.75-11.1 11.28-12.95 13.63-.94 1.21-2.08 2.63-2.53 3.15-.43.53-1.03 1.32-1.3 1.76-.25.43-1.23 1.8-2.17 3.04-.94 1.23-1.83 2.51-2.01 2.85-.16.34-.73 1.35-1.26 2.24-2.15 3.61-6.05 13.11-8.08 19.66-.55 1.78-.43 2.35.48 2.35.46 0 .64-.3 1.14-2.03.16-.55.41-1.12.55-1.26.14-.14.91-1.16 1.71-2.31 1.58-2.17 7.22-7.97 7.56-7.74.08.05 3.55-2.78 3.86-3.01.22-.16 4.47-3.56 4.48-3.58.05-.15 3.97-3.04 4.43-3.4q3.33-2.63 5-4.27c.82-.8 2.17-1.92 2.97-2.47.82-.55 1.67-1.3 1.87-1.67.23-.34.55-.73.73-.84.3-.16 2.31-1.92 5.02-4.41 1.74-1.6 3.61-3.47 4.75-4.82.59-.69 2.65-2.83 4.57-4.8 3.27-3.31 7.26-8.31 7.12-8.88 0-.02 1.56-2.01 1.69-2.21.71-1.1 1.39-2.12 1.55-2.26.18-.21.73.21 2.26 1.67 1.1 1.05 2.85 2.6 3.86 3.47 1.03.84 2.76 2.37 3.84 3.36 1.07.98 2.15 1.96 2.4 2.17 1.12.96 5.34 5.66 5.34 5.98 0 .11.25.5.57.89.15.17 1.68 2.77 1.78 3.08.23.71.62 1.58.87 1.92.5.73 1.12 2.4 1.9 5.23.66 2.37.89 3.74.91 5.82.02 1.14.16 1.9.55 2.63.62 1.26 1.94 3.08 3.08 4.25.46.48.84.94.84 1 0 .09.71.91 1.6 1.85.87.94 1.6 1.76 1.6 1.83 0 .37 1.05.39 1.44.02.73-.66 1.55-2.24 1.39-2.67-.09-.21.16-1.9.55-3.72.41-1.85.89-4.57 1.1-6.03.46-3.24.59-3.45 2.35-3.11 1.76.32 8.59 3.42 10.23 4.66.39.3.78.55.84.55s.71.41 1.44.91c1.62 1.12 1.85 1.28 2.63 1.78 2.06 1.32 5.94 4.59 7.38 6.19.5.55 1.64 1.58 2.51 2.26 1.48 1.16 3.17 2.81 6.67 6.44 2.42 2.53 2.56 2.63 2.95 2.24.43-.43.11-1.99-.57-2.72-.55-.6-.38-.96-.75-1.39-.37-.37-1.23-1.87-1.67-2.85-.18-.39-.59-1.12-.91-1.6-.32-.48-.71-1.07-.87-1.3-.14-.23-.59-.85-.96-1.37-.39-.53-.94-1.35-1.26-1.85-.3-.5-1.03-1.53-1.6-2.28-.59-.75-1.71-2.35-2.47-3.54-1.37-2.12-2.67-3.86-4.04-5.34-.37-.41-1-1.1-1.39-1.53-.87-.98-3.84-3.77-4.82-4.54-.78-.62-3.56-3.01-4.86-4.2-.43-.41-1.16-.98-1.6-1.28-.43-.3-1.21-.89-1.69-1.3-.5-.41-1-.75-1.14-.75 0 0-3.66-2.13-3.7-2.17-.21-.21-.64-.55-.96-.75-.59-.39-1.21-.91-4.04-3.47-2.1-1.89-2.88-2.53-4-3.4-.57-.43-1.1-.87-1.16-.98-.09-.15-2.9-2.68-3.4-3.11-.62-.55-1.14-1.1-1.14-1.21 0-.14-.57-.87-1.26-1.64-.68-.75-1.26-1.51-1.26-1.64s-.3-.55-.69-.91c-.37-.37-.68-.73-.68-.82 0-.14 3.49 1.05 4.68 1.6.25.11 1.12.5 1.94.84.82.37 2.1.98 2.85 1.39.75.43 2.24 1.19 3.31 1.69 3.26 1.58 5.82 2.9 6.39 3.31.18.14.75.37 1.26.5.5.11 1.44.43 2.06.68 3.04 1.21 7.33 2.35 10.05 2.67.64.07 1.46.18 1.83.25.68.11 1.62.16 7.08.43 3.79.18 7.95.59 8.24.84.16.11 1.03.3 1.94.41.94.11 2.56.39 3.63.59 1.07.18 2.15.34 2.4.34 1.42-.05 5.11.87 10.07 2.49 1.14.39 2.24.68 2.47.68.21 0 .94.25 1.62.57.66.3 1.87.71 2.65.91.8.21 1.71.53 2.08.71 1.12.59 3.38.34 3.38-.39 0-.23-1.03-1.23-1.37-1.3-1-.21-2-1.87-2.37-1.87-.18 0-2.26-1.9-4.61-4.22-2.37-2.33-4.48-4.29-4.7-4.36-.03 0-1.86-.99-2.19-1.14-2.53-1.19-4.04-1.85-4.77-2.15-.39-.15-2.05-.7-2.06-.71-.73-.45-.84-.21-1.48-.59-.41-.21-1.05-.41-1.44-.41-.69-.05-3.86-.73-6.39-1.39-.46-.11-3.65-1-3.79-1-.38 0-7.05-1.14-7.47-1.35-.21-.11-1.3-.37-2.44-.59-1.12-.21-2.67-.62-3.45-.94-.75-.3-1.55-.55-1.78-.55-.21 0-.68-.16-1.03-.34-.37-.18-.94-.37-1.28-.43-.47-.09-3.46-1.1-3.97-1.28-.27-.09-2.76-.96-3.04-1.03-.1-.02-2.99-1.01-3.13-1.07-.44-.21-3.4-1.36-3.72-1.44-1.58-.48-5.64-2.08-6.12-2.4-.32-.21-1.21-.73-1.99-1.14-2.17-1.12-4.09-3.33-4.95-5.71-.64-1.71-2.06-6.53-2.33-7.88-.09-.5-.21-8.01-.23-16.67-.02-8.68-.14-16.17-.21-16.67-.09-.5-.18-1.12-.18-1.37 0-2-1.47-7.89-1.9-10.05-.2-1.1-.29-1.59-.53-3.47-.14-1.1-.41-3.4-.59-5.11-.41-3.74-1.03-5.89-2.12-7.35-1.05-1.37-1.6-1.39-2.53-.11Z" class="cls-9"/><path d="M230.47 314.96c0 .21.16.43.37.5.34.14.34.09.07-.25-.16-.23-.34-.46-.37-.5-.05-.05-.07.07-.07.25" class="cls-14"/><path d="M273.44 412.16c1.39.89 3.56 2.85 4.41 4 .37.53.73.98.82 1.05.07.07.48.62.94 1.26 1.94 2.81 4 5.82 4.84 7.08.5.75 1.1 1.53 1.3 1.71.21.18.52.66.73 1.07.21.39.5.84.66 1.03.75.75 4.7 6.76 5.78 8.75.98 1.83 2.47 3.97 3.56 5.14.91.98 1.58 2.15 1.58 2.76 0 .25.53.98 1.14 1.62.64.64 1.14 1.26 1.14 1.39 0 .11.69.91 1.55 1.74.84.84 1.71 1.76 1.94 2.08.23.32 1.26 1.44 2.28 2.51 2.08 2.17 2.56 2.72 4.04 4.68.57.75 1.07 1.42 1.14 1.48.07.07.59.69 1.16 1.37 1.37 1.62 2.03 2.95 2.19 4.38l.14 1.16-.78-.11c-2.17-.37-6.6-3.13-10.25-6.39-2.44-2.19-4.18-4.25-5.64-6.69-.43-.75-.89-1.42-.98-1.48-.09-.07-.3-.34-.43-.64-.16-.3-.43-.71-.62-.91-.18-.21-.82-1.05-1.42-1.87-.59-.8-1.53-1.8-2.1-2.24-.57-.41-1.28-.96-1.6-1.21-.32-.25-1.76-1.35-3.24-2.44-1.46-1.1-2.99-2.31-3.43-2.67-.41-.39-1.05-.89-1.44-1.12-.37-.25-.8-.55-.94-.68-.46-.41-1.03-.89-3.63-2.88-1.39-1.07-3.77-2.97-5.32-4.22-1.55-1.26-3.2-2.6-3.68-2.97-4.22-3.4-6.3-5.98-6.55-8.13-.14-1.26-.11-1.32 1.07-3.29.91-1.48 1.64-2.37 2.83-3.36.89-.73 2.08-1.74 2.65-2.26.57-.5 1.19-1.03 1.37-1.14.62-.39 1.71-.21 2.76.46Z" class="cls-10"/><path d="M271.12 410.31c-1.48.23-7.28 5.27-8.22 7.15-.25.46-.57.89-.73.94-.14.05-.39.71-.55 1.46-.25 1.21-.23 1.48.21 2.72.59 1.69 1.19 2.53 3.24 4.57 1.69 1.69 7.42 6.55 9.93 8.45.82.62 1.92 1.51 2.44 1.99.55.48 1.05.87 1.14.87.11 0 .57.34 1.03.75.46.39 1.37 1.14 2.01 1.64.62.5 1.99 1.62 3.04 2.47 1.03.85 1.99 1.62 2.1 1.74.14.09 1.42 1.07 2.85 2.17 1.55 1.16 3.17 2.63 3.95 3.56.71.87 1.3 1.64 1.3 1.71 0 .18 1.19 1.99 1.76 2.63.27.32.78 1.12 1.14 1.76 1.44 2.69 6.23 7.42 9.54 9.43.5.3 1.12.75 1.37.98.8.73 3.72 2.08 5.14 2.35.32.05.91.27 1.32.5 1.05.55 1.51.21 1.6-1.21.07-.85-.05-1.26-.5-1.92a8.45 8.45 0 0 1-.91-1.8c-.16-.43-1.05-1.82-1.05-1.96 0-.16-.48-.8-1.05-1.42-.59-.62-1.44-1.58-1.89-2.12-.46-.57-1.07-1.3-1.39-1.62-.32-.34-.98-1.1-1.48-1.71-.5-.62-2.03-2.35-3.43-3.84-2.21-2.41-2.99-4.21-4.45-5.87-.53-.57-1.1-1.3-1.28-1.67-.18-.34-.41-.62-.53-.62-.09 0-.37-.37-.62-.84-.23-.46-.68-1.1-1-1.44s-.73-.84-.91-1.14c-.18-.27-.46-.64-.57-.78-.14-.14-.64-.98-1.14-1.85-1.8-3.29-3.24-5.39-7.31-10.73-.18-.25-.91-1.28-1.6-2.28-.69-1-1.9-2.74-2.67-3.86-.8-1.12-1.62-2.28-1.83-2.6-.98-1.48-3.77-4.84-4.29-5.16-.32-.18-.96-.71-1.46-1.16-1.67-1.55-3.24-2.37-4.25-2.21Z" class="cls-11"/><path d="M292.83 454.08c1.3 1.16 1.94 2.22 2.33 3.81.59 2.4.62 2.37-.91 4-.41.43-.75.89-.75 1s-.09.21-.21.21c-.09 0-.69.46-1.28 1.03-.62.57-1.53 1.3-2.03 1.64-.53.34-1.35.94-1.83 1.3-.5.39-1.05.71-1.23.73-.16.05-.48.21-.69.37-1.39 1.14-5.78 3.29-6.35 3.11-.11-.02-.55.07-.96.25-1.14.48-1.12.16.09-.94.59-.55 1.35-1.28 1.67-1.64.34-.37.96-1.1 1.42-1.6.84-.96 3.31-4.61 3.56-5.32.18-.5 2.63-4.61 3.49-5.89.34-.5.84-1.35 1.1-1.87.48-.91 1.03-1.28 1.55-1 .14.07.62.46 1.03.82Z" class="cls-8"/><path d="M290.18 451.91c-.18.37-.34.8-.34.96 0 .18-.46 1.03-1.03 1.87-.57.87-1.03 1.6-1.03 1.62s-.48.85-1.07 1.8c-.62.98-1.23 2.03-1.42 2.37-.46.89-2.08 3.29-2.51 3.72-.21.23-.8.98-1.32 1.71-1.1 1.55-2.37 2.81-4.22 4.16-.73.55-1.32 1.07-1.32 1.21 0 .11-.34.43-.78.68-.8.46-1.12 1.26-.78 1.87.16.32.27.32.98.02.43-.18 1.07-.32 1.44-.32s.98-.16 1.37-.37c.01 0 1.77-.67 1.83-.69 1.48-.32 2.97-.89 3.81-1.44.5-.32 1.6-.94 2.42-1.37 1.44-.73 6.23-4.18 7.19-5.16.25-.25 1.05-1.23 1.8-2.17s1.42-1.76 1.48-1.83c.07-.07.3-.39.53-.73.52-.85.18-2.81-.64-3.54-.32-.27-.57-.66-.57-.87 0-.59-2.6-2.95-4-3.63-.66-.32-1.28-.59-1.35-.59s-.27.3-.48.69Z" class="cls-9"/><path d="M382.34 497.72c0 .25.07.32.14.14.07-.16.05-.37-.02-.43-.07-.09-.14.05-.11.3Z" class="cls-14"/><path d="M116.18 206.48c-1.09-.07-3.91-.06-6.7.05-1.49.07-4.89.53-6.8.97-2.18.47-4.66 1.85-4.57 2.53.07.49 1.04 1.44 2.18 2.21.94.6 5.15 2.35 7.88 3.28.9.28 1.71.62 1.79.68.3.31 5.98 1.7 6.92 1.71.51.03 1.26.04 1.62.08 1.09.07 3.69-.21 5.3-.6 3.42-.78 6.58-3.91 5.21-5.15-.21-.19-.42-.4-.47-.49-.42-.78-1.3-1.46-2.77-2.18-.06-.04-.38-.18-.74-.36-.33-.17-.97-.44-1.38-.61-.41-.17-1.02-.45-1.37-.65-.88-.44-4.59-1.35-6.1-1.47" class="cls-12"/></g></g><path d="M261.68 0C117.16 0 0 117.16 0 261.68s117.16 261.68 261.68 261.68S523.36 406.2 523.36 261.68 406.2 0 261.68 0" class="cls-1"/></g></g></svg>