<svg version="1.1" id="Vrstva_1" xmlns="http://www.w3.org/2000/svg" x="0" y="0" viewBox="0 0 484.1 495.1" xml:space="preserve"><style>.st0{fill:#9dcfc3}</style><path class="st0" d="M317.5 183.7c0-14.1-13.7-14.5-24.3-13.7-10.6.8-107.8-2-107.8-2l-16.5.8c-16.5.8-11.5 15.8-11.4 17.3 3.9 37.6.2 129.4.2 129.4 9.8 6.3 135.1 6.3 135.1 6.3l8.2-.4c8.2-.4 11.4 1.6 13.3-5.5 2-7.1 3.9-48.2 3.1-63.1-.7-15 .1-55 .1-69.1zm-40.7 113.5c-6.3 5.7-15.8 10.3-26.5 11.2-10.7.9-31.1-1.8-38.4-6.5-7.4-4.7-17-7.6-27-25.1 0 0-10.7-19.1-9.6-36.9 0 0 .8-26.6 34.2-44.4 0 0 18.6-12.2 43.1-2.9 24.5 9.4 34.3 30.8 34.3 30.8s9.4 16.8 9.8 32.9c.2 16.2-13.6 35.3-19.9 40.9zm22.3-92.2c-4.9 4-10.6 3.5-10.6 3.5s-4.7 0-8.2-1.9c-3.5-1.8-5.9-7-6.4-9s-.3-4.5.7-6.9c1.1-2.3 4-6.3 5.9-7.3 1.9-1 3.6-2.6 8.5-2.7 0 0 5.3 0 9 2.4 0 0 5.6 3.4 5.5 12.5 0 0 .4 5.4-4.4 9.4z"/><path class="st0" d="M273.9 220.8c-9.8-9.6-24.1-18.1-24.1-18.1-15.2-3.1-24.5 2.1-30.9 3.9-6.4 1.9-18.7 11.2-23.5 17.8-4.8 6.6-5.6 19.4-5.5 25.9.1 6.5 4.2 24.1 13.7 32 9.5 7.9 23.9 11 23.9 11s17.3 5.2 35-4.2 19.9-26.2 19.9-26.2c6.5-28.2-8.5-42.1-8.5-42.1z"/><path class="st0" d="M421.3 183.5C404.1 103.5 338.9 77 338.9 77 233.1 22.1 160 66.9 160 66.9 110.3 95.7 77.4 157 77.4 157c-29.8 57.1-21 87-20.8 114.4.2 27.4 27.9 85.1 48.9 111.2 21 26 49.9 42.3 76.1 48.7 26.2 6.4 101.6 8.6 144.3-20.9 42.7-29.5 71.8-83.6 71.8-83.6s40.8-63.3 23.6-143.3zM314.7 337.2c-40.6 4.9-104.2.1-140-.6-38.4-.8-33.5-24.7-33.5-24.7.8-11.4 1.3-39.2 1.3-48.6 0-9.4.8-33.7.8-33.7-12.2-107 29-72.9 105.5-78.8 76.4-5.9 81.1 18.8 81.1 18.8 11.9 184.6-15.2 167.6-15.2 167.6z"/></svg>