<svg version="1.1" id="Vrstva_1" xmlns="http://www.w3.org/2000/svg" x="0" y="0" viewBox="0 0 484.1 495.1" xml:space="preserve"><style>.st0{fill:#9dcfc3}</style><path class="st0" d="M239.1 402.6s-20 7.9-27.5 10.5c-8.6 2.9-13.5 5-21.4 7.7 22.9 10 74.2 11.5 107.8 6.7-15.4-5.2-48.4-16.8-58.9-24.9zM269.3 144c-12.6-8.6-22.5-4-22.5-4-6.7 2.9-11.8 10.1-11.8 10.1-4.6 6.8-4 10.7-4.4 14.2-.4 3.5 2.2 11.2 4.5 14.8 2.3 3.6 5.7 6.1 8.9 7.3 3.2 1.2 12.7 2.6 18.6-.4 5.9-3.1 10.4-9.5 10.4-9.5s6.1-7.4 5.2-17.8c-1-10.3-8.9-14.7-8.9-14.7z"/><path class="st0" d="M432.3 240c-7.5-51.3-43.2-101.3-43.2-101.3S350.5 74 271.1 54s-132 26.7-132 26.7c-96 70.7-88.2 156-88.2 156 3.8 57.3 44.2 114 44.2 114 31.5 43.1 58 54.2 80.2 63.5 17-16.6 42.2-40.5 48.8-43.6 0 0-33.3-26.9-36.5-31.5 0 0 30.5 7.5 55.9 25.5 0 0 34.1-4.5 70.6-14 0 0 0 6-55.5 27l44.4 49.1c2.4-.4 4.7-.9 6.8-1.3 32.7-7.3 60-26 77.3-46.7 17.4-20.7 52.7-87.4 45.2-138.7zm-187.4 83.6s-25.6-26.3-36.8-43.8c0 0-78-107.4-14.8-173.4s148.3-9.1 147.5 45.1c-.8 54.1-61.7 148-95.9 172.1z"/></svg>