<svg version="1.1" id="Vrstva_1" xmlns="http://www.w3.org/2000/svg" x="0" y="0" viewBox="0 0 484.1 495.1" xml:space="preserve"><style>.st0{fill:#9dcfc3}</style><path class="st0" d="M432.3 240c-7.5-51.3-43.2-101.3-43.2-101.3S350.5 74 271.1 54c-5.9-1.5-11.7-2.6-17.2-3.4-3.1 3.8-8.5 9.2-17.9 16 0 0 8 26.2.1 33.7 0 0 2.1 7-17.2-21.5l-27 7.3s-.1-7.5 17.4-19.3c0 0-1-9.2-2.2-15.8-42.3 7-67.9 29.6-67.9 29.6-96 70.7-88.2 156-88.2 156 3.8 57.3 44.2 114 44.2 114 38 52 68.7 57.3 93.3 69.3s88.7 12.7 121.3 5.3c32.7-7.3 60-26 77.3-46.7 17.4-20.5 52.7-87.2 45.2-138.5zm-212.2-85.1l-14.9-35.5s16.3 9.2 25.2 16.4c0 0 18.8-22.2 25.7-45 0 0 3.4 36.7-4.6 52.3 0 0 38 13.3 44.9 12.7 0 0-34.8 6-42.6 6 0 0-16 43.4-14.9 61.4 0 0-16-40.5-7.8-55.3 0 0-34.9 1.7-46.3 7.2 0-.1 28.6-21 35.3-20.2zm26.1 88.2l68.5-70.5s-33.2 75.1-51.6 95.4c0 0 14.7 25.6 12.7 37.8 0 0-19.5-13.3-31.2-24.6 0 0-43.9 44.9-47.3 54.3 0 0 10-42.6 24.8-67.8 0 0-27.6-32.5-42-40.9.1.1 47.2 2.1 66.1 16.3zm60.4 162C239 443.6 142 376.3 144.5 337.2c0 0-1.6-17 5.1-23.8 0 0 4.3 7.5 5.3 10.7 1 3.2 28.3 44.2 103.6 14.1 0 0 97.4-49.4 96.3-144 0 0 24.7 7.3 32.6 54.9 7.9 47.5-13.2 117.4-80.8 156z"/><path class="st0" d="M234.3 55s6.5-2.6 12.7-5.2c-6.7-.7-13.2-.9-19.4-.7 3.3 2.2 5.8 4.3 6.7 5.9z"/></svg>