<svg xmlns="http://www.w3.org/2000/svg" viewBox="0 0 484.1 495.1"><path d="M335.1 333.3s-36 21.6-45.5 32.5c0 0-1.5-45.9 15.3-54.1 0 0-48.4-55.6-66.5-70.7l70.1 22.5s-4.5-61.2 12.1-74c0 0 6.4 50.3 17.2 66.5 0 0 51.2-10.4 58.8-6.7 0 0-27 34.4-35.7 39.5 0 0 23.9 52.2 29.3 85.8 18.1-24.3 49.1-86.3 42-134.6-7.5-51.3-43.2-101.3-43.2-101.3S350.5 74 271.1 54s-132 26.7-132 26.7c-96 70.7-88.2 156-88.2 156 3.8 57.3 44.2 114 44.2 114 38 52 68.7 57.3 93.3 69.3s88.7 12.7 121.3 5.3c28.3-6.3 52.5-21.2 69.8-38.4-13.1-15.1-36.1-41.9-44.4-53.6zm-157.6-58.8s-27.9-19.9-28.9-33.1c0 0-22.2 16.1-27.4 24.6 0 0 9.9-26 14.7-28.4l-25.1-17s14.7-1 23.7 0c0 0 2.8-22.7-2.4-40.7 0 0 18 22.7 19.4 36.4 0 0 30.8-7.6 35-10.9 0 0-20.3 18.9-25.6 22.3 0 0 8.1 35.5 16.6 46.8zm43.4-98.2s-3.9 9.7 0-39.2l-36.6-16s6.6-8.4 36.6-5.9c0 0 12.3-19.4 14.9-26.2s7-12.5 7-12.5 18.3 37.8 16.6 48c0 0 30.4 9.3 35.4 9.3 0 0-10.3 6.8-44 5.1.1-.2-14.3 36.1-29.9 37.4z" fill="#9dcfc3"/></svg>